<?xml version="1.0" encoding="UTF-8"?>
<svg id="Capa_2" data-name="Capa 2" xmlns="http://www.w3.org/2000/svg" viewBox="0 0 100.53 93.43">
  <defs>
    <style>
      .cls-1 {
        fill: #e1e5df;
      }

      .cls-1, .cls-2, .cls-3 {
        stroke-width: 0px;
      }

      .cls-2 {
        fill: #82a86c;
      }

      .cls-3 {
        fill: #fff;
      }
    </style>
  </defs>
  <g id="Capa_1-2" data-name="Capa 1">
    <g>
      <ellipse class="cls-2" cx="50.27" cy="46.72" rx="50.27" ry="46.72"/>
      <path class="cls-3" d="M90.72,50.05c-19.37,11.11-38.74,22.22-58.11,33.32-1.56.82-3.5.74-4.83-.19-1.62-1.13-1.5-2.94-1.48-3.1V17.45c0-.26-.02-1.89,1.48-3.1,1.83-1.47,4.24-.96,4.41-.92,18.95,8.67,37.9,17.33,56.85,26,3.06,1.58,4.72,4.37,4.21,6.96-.39,1.97-1.91,3.21-2.53,3.66Z"/>
      <path class="cls-1" d="M34.84,14.62s-12.22,60.75,27.1,51.93l-30,17.11s-4.82,1.64-5.65-2.99l.07-63.97s1.87-6.38,8.48-2.08Z"/>
    </g>
  </g>
</svg>