<?xml version="1.0" encoding="UTF-8"?>
<svg id="Capa_1" data-name="Capa 1" xmlns="http://www.w3.org/2000/svg" xmlns:xlink="http://www.w3.org/1999/xlink" viewBox="0 0 127.13 128.32">
  <defs>
    <style>
      .cls-1 {
        fill: url(#Degradado_sin_nombre_17);
      }

      .cls-1, .cls-2, .cls-3, .cls-4, .cls-5, .cls-6, .cls-7, .cls-8, .cls-9, .cls-10 {
        stroke-width: 0px;
      }

      .cls-2 {
        fill: #416d25;
      }

      .cls-3 {
        fill: #8ab270;
      }

      .cls-4 {
        fill: #a6c98f;
      }

      .cls-5 {
        fill: #82a86c;
      }

      .cls-11 {
        stroke: #417235;
        stroke-miterlimit: 10;
      }

      .cls-11, .cls-10 {
        fill: #fff;
      }

      .cls-6 {
        fill: #74a555;
      }

      .cls-7 {
        fill: #80b25f;
      }

      .cls-8 {
        fill: #578738;
      }

      .cls-9 {
        fill: #496b2c;
      }
    </style>
    <radialGradient id="Degradado_sin_nombre_17" data-name="Degradado sin nombre 17" cx="593.94" cy="5460.15" fx="593.94" fy="5460.15" r="200.51" gradientTransform="translate(-24.96 -775.72) scale(.15)" gradientUnits="userSpaceOnUse">
      <stop offset=".62" stop-color="#82b362"/>
      <stop offset=".92" stop-color="#a4c88d"/>
    </radialGradient>
  </defs>
  <ellipse class="cls-5" cx="63.57" cy="64.16" rx="63.57" ry="64.16"/>
  <g>
    <ellipse class="cls-2" cx="92.14" cy="78.26" rx="9.96" ry="13.42"/>
    <ellipse class="cls-2" cx="37.93" cy="80.27" rx="9.96" ry="13.42"/>
    <ellipse class="cls-2" cx="32.24" cy="65.69" rx="9.06" ry="9.02"/>
    <ellipse class="cls-8" cx="55" cy="94.22" rx="5.32" ry="5.48"/>
    <ellipse class="cls-8" cx="81.21" cy="90.98" rx="5.32" ry="5.48"/>
    <ellipse class="cls-2" cx="80.31" cy="89.29" rx="6.36" ry="5.78"/>
    <ellipse class="cls-2" cx="55" cy="91.45" rx="6.36" ry="5.78"/>
    <ellipse class="cls-8" cx="46.46" cy="90.21" rx="5.32" ry="5.48"/>
    <ellipse class="cls-8" cx="72.07" cy="93.45" rx="5.32" ry="5.48"/>
    <ellipse class="cls-8" cx="38.23" cy="51.19" rx="9.06" ry="9.02"/>
    <ellipse class="cls-8" cx="91.24" cy="78.57" rx="9.96" ry="13.42"/>
    <ellipse class="cls-8" cx="93.04" cy="63.38" rx="9.06" ry="9.02"/>
    <ellipse class="cls-8" cx="91.99" cy="51.04" rx="9.06" ry="9.02"/>
    <ellipse class="cls-8" cx="82.11" cy="41.01" rx="9.81" ry="10.1"/>
    <ellipse class="cls-8" cx="65.48" cy="40.09" rx="9.06" ry="9.02"/>
    <ellipse class="cls-8" cx="46.61" cy="39.31" rx="9.06" ry="9.02"/>
    <ellipse class="cls-8" cx="38.53" cy="78.72" rx="9.96" ry="13.42"/>
    <ellipse class="cls-8" cx="32.09" cy="63.38" rx="9.06" ry="9.02"/>
    <ellipse class="cls-8" cx="59.19" cy="35.77" rx="9.06" ry="9.02"/>
    <ellipse class="cls-8" cx="71.32" cy="35.92" rx="9.06" ry="9.02"/>
    <path class="cls-8" d="M94.24,67.17c-.03.47-1.21,5.13-3.56,14.46-1.14,4.52-1.84,7.14-4.21,9.32-1.21,1.11-2.6,1.88-7.44,3.21-7.55,2.07-11.33,3.11-15.86,2.89-5.69-.28-9.74-1.95-13.59-3.53-3.91-1.61-6.55-2.74-8.74-5.46-1.64-2.05-2.17-3.92-3.24-7.71-3.88-13.81-3.88-13.79-3.88-13.82-1.29-10.22,10.28-30.79,30.42-30.68,19.91.1,30.85,20.31,30.1,31.33Z"/>
    <path class="cls-1" d="M94.28,67.17c-.03.47-1.21,5.13-3.56,14.46-1.14,4.52-1.84,7.14-4.21,9.32-1.21,1.11-2.6,1.88-7.44,3.21-7.55,2.07-11.33,3.11-15.86,2.89-5.69-.28-9.74-1.95-13.59-3.53-3.91-1.61-6.55-2.74-8.74-5.46-1.64-2.05-2.17-3.92-3.24-7.71-3.88-13.81-3.88-13.79-3.88-13.82-1.29-10.22,10.28-30.79,30.42-30.68,19.91.1,30.85,20.31,30.1,31.33Z"/>
    <rect class="cls-4" x="58.67" y="94.15" width="10.78" height="7.71" rx="3.86" ry="3.86"/>
    <path class="cls-4" d="M41.38,88.61c-.62.2-1.27.32-1.95.34-4.13.14-7.59-3.34-7.73-7.78-.1-3.24,1.6-6.1,4.13-7.45"/>
    <path class="cls-4" d="M92.67,73.85c.61.23,1.19.55,1.74.97,3.33,2.51,3.97,7.45,1.42,11.03-1.86,2.62-4.91,3.78-7.72,3.24"/>
    <ellipse class="cls-11" cx="50.21" cy="71.24" rx="8.54" ry="8.79"/>
    <ellipse class="cls-11" cx="76.27" cy="71.4" rx="8.54" ry="8.79"/>
    <ellipse class="cls-9" cx="51.63" cy="72.71" rx="4.34" ry="4.47"/>
    <ellipse class="cls-10" cx="53.65" cy="71.4" rx="1.27" ry="1.31"/>
    <ellipse class="cls-9" cx="74.54" cy="72.71" rx="4.34" ry="4.47"/>
    <ellipse class="cls-10" cx="72.67" cy="71.4" rx="1.27" ry="1.31"/>
    <path class="cls-9" d="M55.64,58.98c-1.18-.33-2.17-.42-2.87-.44-1.17-.04-4.94-.15-7.5,2.66-.47.51-.79,1-.98,1.34.36-.21,2.78-1.62,5.02-2.31.5-.15,1.76-.53,3.12-.5.13,0,.21.01.34.01.77,0,1.61.15,2.44.38.38.09.71-.18.75-.5.03-.24-.1-.5-.33-.63Z"/>
    <path class="cls-9" d="M70.51,58.96c1.18-.33,2.17-.42,2.87-.44,1.17-.04,4.94-.15,7.5,2.66.47.51.79,1,.98,1.34-.36-.21-2.78-1.62-5.02-2.31-.5-.15-1.76-.53-3.12-.5-.13,0-.21.01-.34.01-.77,0-1.61.15-2.44.38-.38.09-.71-.18-.75-.5-.03-.24.1-.5.33-.63Z"/>
    <path class="cls-9" d="M63.04,87.6c.31.04,1.35.14,2.71-.13,2.88-.56,4.77-2.29,5.61-3.18-2.22,1-4.05,1.55-5.33,1.87-1.1.27-1.93.4-2.92.36-.24-.01-1.16-.06-2.52-.48-2.26-.69-3.45-1.7-3.5-1.63-.07.11,2.33,2.77,5.95,3.19Z"/>
    <path class="cls-9" d="M72.87,83.59s-.05-.17-.14-.32c-.2-.32-.51-.47-.66-.52.23.22.38.42.48.55.09.12.14.22.18.34,0,.03.05.14.06.33.02.31-.05.5-.04.51.02,0,.23-.42.12-.88Z"/>
    <path class="cls-9" d="M56.03,83.33s-.09.13-.13.29c-.08.35.07.69.14.85-.02-.32,0-.55.02-.71.02-.14.05-.24.11-.33.01-.02.07-.12.2-.22.22-.18.42-.22.41-.23-.01-.02-.51,0-.76.35Z"/>
    <ellipse class="cls-7" cx="83.75" cy="83.2" rx="1.57" ry="1.7"/>
    <ellipse class="cls-7" cx="86.23" cy="73.71" rx="1.05" ry=".85"/>
    <ellipse class="cls-6" cx="86.9" cy="77.03" rx="1.69" ry="1.13" transform="translate(-13.36 135.61) rotate(-71.85)"/>
    <ellipse class="cls-7" cx="83.98" cy="78.72" rx=".9" ry=".93"/>
    <ellipse class="cls-7" cx="86.23" cy="81.04" rx=".9" ry="1.39"/>
    <ellipse class="cls-7" cx="89.75" cy="71.4" rx="1.31" ry=".83" transform="translate(-9.77 128.39) rotate(-68.3)"/>
    <ellipse class="cls-6" cx="88.77" cy="79.11" rx="1.06" ry=".84" transform="translate(-29.29 93.28) rotate(-48.55)"/>
    <ellipse class="cls-6" cx="87.72" cy="71.78" rx=".75" ry=".77"/>
    <ellipse class="cls-7" cx="88.92" cy="74.17" rx="1.06" ry=".84" transform="translate(-26.73 80.04) rotate(-42.74)"/>
    <ellipse class="cls-7" cx="89.6" cy="76.56" rx="1.07" ry=".53" transform="translate(-17.29 126.22) rotate(-65.43)"/>
    <ellipse class="cls-6" cx="79.64" cy="81.96" rx="1.65" ry="1.7"/>
    <ellipse class="cls-7" cx="42.88" cy="83.5" rx="1.57" ry="1.7"/>
    <ellipse class="cls-7" cx="40.41" cy="74.01" rx="1.05" ry=".85"/>
    <ellipse class="cls-6" cx="39.74" cy="77.33" rx="1.13" ry="1.69" transform="translate(-22.11 16.22) rotate(-18.15)"/>
    <ellipse class="cls-7" cx="42.66" cy="79.03" rx=".9" ry=".93"/>
    <ellipse class="cls-7" cx="40.41" cy="81.34" rx=".9" ry="1.39"/>
    <ellipse class="cls-7" cx="36.89" cy="71.7" rx=".83" ry="1.31" transform="translate(-23.89 18.72) rotate(-21.7)"/>
    <ellipse class="cls-6" cx="37.87" cy="79.41" rx=".84" ry="1.06" transform="translate(-43.08 44.96) rotate(-41.45)"/>
    <ellipse class="cls-6" cx="38.91" cy="72.09" rx=".75" ry=".77"/>
    <ellipse class="cls-7" cx="37.72" cy="74.48" rx=".84" ry="1.06" transform="translate(-42.58 51.63) rotate(-47.26)"/>
    <ellipse class="cls-7" cx="37.04" cy="76.87" rx=".53" ry="1.07" transform="translate(-28.61 22.36) rotate(-24.57)"/>
    <ellipse class="cls-6" cx="47" cy="82.27" rx="1.65" ry="1.7"/>
    <path class="cls-3" d="M58.67,96.5c1.54.4,2.84.53,3.74.58,1.28.07,2.28-.02,3.89-.15,1.31-.11,2.39-.25,3.15-.35v2.81l-10.78.07v-2.96Z"/>
    <ellipse class="cls-8" cx="69.53" cy="39.16" rx="9.06" ry="9.02"/>
    <ellipse class="cls-2" cx="53.65" cy="37.46" rx="9.06" ry="9.02"/>
    <ellipse class="cls-2" cx="34.18" cy="54.43" rx="9.06" ry="9.02"/>
    <ellipse class="cls-2" cx="41.37" cy="46.56" rx="9.06" ry="9.02"/>
    <ellipse class="cls-2" cx="89.89" cy="53.04" rx="9.06" ry="9.02"/>
    <ellipse class="cls-2" cx="81.81" cy="43.94" rx="9.06" ry="9.02"/>
    <ellipse class="cls-8" cx="54.25" cy="39.16" rx="9.06" ry="9.02"/>
    <ellipse class="cls-8" cx="46.76" cy="40.09" rx="9.06" ry="9.02"/>
    <ellipse class="cls-8" cx="34.78" cy="56.28" rx="9.06" ry="9.02"/>
    <ellipse class="cls-8" cx="89" cy="54.28" rx="9.06" ry="9.02"/>
    <ellipse class="cls-8" cx="80.76" cy="45.02" rx="9.06" ry="9.02"/>
    <ellipse class="cls-8" cx="42.72" cy="46.72" rx="9.06" ry="9.02"/>
    <ellipse class="cls-8" cx="91.84" cy="62.6" rx="5.32" ry="5.48"/>
    <ellipse class="cls-8" cx="33.73" cy="64.76" rx="5.32" ry="5.48"/>
  </g>
</svg>