<?xml version="1.0" encoding="UTF-8"?>
<svg id="Capa_2" data-name="Capa 2" xmlns="http://www.w3.org/2000/svg" viewBox="0 0 116.18 121.02">
  <defs>
    <style>
      .cls-1 {
        fill: #82a86c;
      }

      .cls-1, .cls-2, .cls-3, .cls-4, .cls-5 {
        stroke-width: 0px;
      }

      .cls-2 {
        fill: #c4203b;
      }

      .cls-3 {
        fill: #dbdbdb;
      }

      .cls-4 {
        fill: #cc5062;
      }

      .cls-5 {
        fill: #aa0025;
      }
    </style>
  </defs>
  <g id="Capa_1-2" data-name="Capa 1">
    <g>
      <ellipse class="cls-1" cx="58.09" cy="60.51" rx="58.09" ry="60.51"/>
      <g>
        <path class="cls-2" d="M89.75,51.35c0,24.57-31.35,37.21-31.35,37.21,0,0-31.35-12.64-31.35-37.21,0-10.47,7.57-18.95,16.93-18.95,6.09,0,11.44,3.61,14.42,9.01,2.98-5.41,8.33-9.01,14.42-9.01,9.36,0,16.93,8.48,16.93,18.95Z"/>
        <path class="cls-5" d="M89.75,51.35c0,24.57-31.35,37.21-31.35,37.21,0,0-12.57-5.07-21.79-15.02,31,9.84,42.24-9.79,42.24-24.45,0-11.35-7.52-14.81-11.12-15.82,1.6-.57,3.31-.87,5.08-.87,9.35,0,16.93,8.48,16.93,18.95Z"/>
        <path class="cls-4" d="M46.31,36.93c-5.41-.58-16.66.14-15.08,16.44.06.63.88.73,1.07.13,1.35-4.3,5.04-12.48,14.12-15.41.58-.19.49-1.09-.11-1.16Z"/>
        <ellipse class="cls-3" cx="58.4" cy="94.34" rx="19.78" ry="2.89"/>
      </g>
    </g>
  </g>
</svg>