<?xml version="1.0" encoding="UTF-8"?>
<svg id="Capa_2" data-name="Capa 2" xmlns="http://www.w3.org/2000/svg" xmlns:xlink="http://www.w3.org/1999/xlink" viewBox="0 0 363 327.98">
  <defs>
    <style>
      .cls-1 {
        fill: #1b3764;
      }

      .cls-1, .cls-2, .cls-3, .cls-4, .cls-5, .cls-6, .cls-7, .cls-8, .cls-9, .cls-10, .cls-11, .cls-12, .cls-13, .cls-14, .cls-15, .cls-16, .cls-17, .cls-18, .cls-19, .cls-20, .cls-21, .cls-22, .cls-23, .cls-24, .cls-25, .cls-26, .cls-27, .cls-28, .cls-29, .cls-30, .cls-31, .cls-32, .cls-33, .cls-34 {
        stroke-width: 0px;
      }

      .cls-2 {
        fill: #193c6c;
      }

      .cls-3 {
        fill: #82a86c;
      }

      .cls-4 {
        fill: #000625;
      }

      .cls-5 {
        fill: #444217;
      }

      .cls-6 {
        fill: #a38d31;
      }

      .cls-7 {
        fill: #e4e250;
      }

      .cls-8 {
        fill: #5b5a51;
      }

      .cls-9 {
        fill: #473406;
      }

      .cls-10 {
        fill: #261b03;
      }

      .cls-11 {
        fill: #777531;
      }

      .cls-12 {
        fill: #000f2d;
      }

      .cls-13 {
        fill: #36587b;
      }

      .cls-35 {
        fill: #02050a;
        stroke: #000;
        stroke-miterlimit: 10;
      }

      .cls-14 {
        fill: #021123;
      }

      .cls-15 {
        fill: #3a6389;
      }

      .cls-16, .cls-28 {
        fill: #051a39;
      }

      .cls-17 {
        fill: #d6bf5b;
      }

      .cls-18 {
        fill: #35290e;
      }

      .cls-19 {
        fill: url(#Degradado_sin_nombre_9);
      }

      .cls-20 {
        fill: #0f2447;
      }

      .cls-21 {
        fill: #091421;
      }

      .cls-22 {
        fill: #081d3e;
      }

      .cls-23 {
        fill: #1b3862;
      }

      .cls-24 {
        fill: #000119;
      }

      .cls-25 {
        fill: #40702a;
      }

      .cls-26 {
        fill: url(#Degradado_sin_nombre_9-2);
        opacity: .57;
      }

      .cls-27 {
        fill: #b2ae5d;
        opacity: .67;
      }

      .cls-28 {
        opacity: .35;
      }

      .cls-29 {
        fill: #fff;
        opacity: .33;
      }

      .cls-30 {
        fill: #306099;
        opacity: .46;
      }

      .cls-31 {
        fill: #698fbc;
        opacity: .19;
      }

      .cls-32 {
        fill: #6d6d6d;
      }

      .cls-36 {
        opacity: .71;
      }

      .cls-33 {
        fill: #42779b;
      }

      .cls-34 {
        fill: #ead26c;
      }
    </style>
    <radialGradient id="Degradado_sin_nombre_9" data-name="Degradado sin nombre 9" cx="-1371.12" cy="375.54" fx="-1371.12" fy="375.54" r="4.93" gradientTransform="translate(1200.67 -509.64) scale(.77 1.6)" gradientUnits="userSpaceOnUse">
      <stop offset="0" stop-color="#e4e250"/>
      <stop offset="1" stop-color="#b2ae5d" stop-opacity=".67"/>
    </radialGradient>
    <radialGradient id="Degradado_sin_nombre_9-2" data-name="Degradado sin nombre 9" cx="-1488.7" cy="557.92" fx="-1488.7" fy="557.92" r="67.41" gradientTransform="translate(1081.13 -458.12) scale(.61 1.11)" xlink:href="#Degradado_sin_nombre_9"/>
  </defs>
  <g id="Capa_1-2" data-name="Capa 1">
    <g>
      <g class="cls-36">
        <rect class="cls-15" x="117.07" width="128.26" height="235.75"/>
        <rect class="cls-16" y=".55" width="117.37" height="327.43"/>
        <rect class="cls-1" x="245.63" y=".55" width="117.37" height="327.43"/>
        <polygon class="cls-2" points="117.37 235.75 245.63 239.07 333.32 327.98 28.86 327.48 117.37 235.75"/>
        <g>
          <polygon class="cls-23" points="27.41 53.81 63.34 69.52 63.34 195.48 27.41 211.36 27.41 53.81"/>
          <path class="cls-21" d="M29.41,56.87l31.93,13.96v123.34l-31.93,14.11V56.87M25.41,50.75v163.68l39.93-17.65V68.22l-39.93-17.46h0Z"/>
        </g>
        <g>
          <polygon class="cls-23" points="72.79 74.55 93.59 83.71 93.59 183.38 72.79 193.09 72.79 74.55"/>
          <path class="cls-21" d="M74.79,77.62l16.81,7.39v97.09l-16.81,7.85v-112.33M70.79,71.49v124.74l24.81-11.58v-102.25l-24.81-10.91h0Z"/>
        </g>
        <polygon class="cls-4" points="72.6 13.64 72.6 5.42 78.38 9.53 78.38 18.11 72.6 13.64"/>
        <polygon class="cls-4" points="77.5 30.46 77.5 22.24 83.28 26.35 83.28 34.92 77.5 30.46"/>
        <polygon class="cls-4" points="67.82 27.19 67.82 18.97 73.6 23.08 73.6 31.65 67.82 27.19"/>
        <rect class="cls-33" x="117.37" y="34.38" width="42.35" height="191"/>
        <rect class="cls-13" x="194.21" y="51.84" width="51.43" height="173.54"/>
        <rect class="cls-16" x="117.37" y="225.38" width="128.56" height="13.64"/>
        <path class="cls-14" d="M151.13,84.01s-1.09-8.15-5.93-5.97c0,0-11.5,0-11.5,8.73v2.48l4.84-1.45,12.59-3.78Z"/>
        <rect class="cls-16" x="119.79" y="42.02" width="4.84" height="12.01"/>
        <rect class="cls-7" x="119.79" y="73.67" width="4.84" height="12.01"/>
        <rect class="cls-16" x="130.08" y="73.67" width="4.84" height="12.01"/>
        <rect class="cls-16" x="153.07" y="57.3" width="4.84" height="12.01"/>
        <rect class="cls-7" x="153.07" y="102.05" width="4.84" height="12.01"/>
        <rect class="cls-7" x="153.67" y="178.45" width="4.84" height="12.01"/>
        <rect class="cls-16" x="137.34" y="179.54" width="4.84" height="12.01"/>
        <rect class="cls-7" x="137.34" y="134.79" width="4.84" height="12.01"/>
        <rect class="cls-24" x="153.07" y="133.7" width="4.84" height="12.01"/>
        <rect class="cls-16" x="137.34" y="103.14" width="4.84" height="12.01"/>
        <rect class="cls-7" x="142.18" y="57.3" width="4.84" height="12.01"/>
        <rect class="cls-24" x="119.79" y="102.05" width="4.84" height="13.1"/>
        <rect class="cls-16" x="119.19" y="133.7" width="5.45" height="14.19"/>
        <rect class="cls-24" x="119.19" y="177.36" width="5.45" height="14.19"/>
        <rect class="cls-27" x="197.23" y="59.48" width="19.97" height="50.21"/>
        <rect class="cls-27" x="223.85" y="59.48" width="19.97" height="50.21"/>
        <rect class="cls-27" x="223.85" y="124.97" width="19.97" height="50.21"/>
        <rect class="cls-27" x="196.63" y="124.97" width="19.97" height="50.21"/>
        <path class="cls-31" d="M117.37,236.3s9.68,17.83,27.23,12.74c0,0-10.89-7.24,8.47-2.9,0,0,23.72-4.82,37.27,30.87,0,0,11.73,20.41,31.09,22.59,0,0-9.08,4.37-2.42,7.64,0,0,22.39,18.55,38.12-10.91,0,0-41.15,3.27-15.43-8.73,0,0,32.37,4.37,12.41-18.55,0,0-24.81-27.29-40.54-21.83,0,0,44.77.44,32.07-7.97l-128.26-2.95Z"/>
        <path class="cls-8" d="M98.54,214.43v62.32s12.41,6.61,24.91,0v-61.21s-12.12-15.33-24.91-1.1Z"/>
        <g>
          <ellipse class="cls-11" cx="106.78" cy="216.11" rx="4.54" ry="8.19"/>
          <ellipse class="cls-11" cx="112.83" cy="212.83" rx="4.54" ry="8.19"/>
          <ellipse class="cls-11" cx="109.2" cy="206.28" rx="2.72" ry="4.91"/>
          <ellipse class="cls-11" cx="118.88" cy="218.29" rx="4.54" ry="7.09"/>
          <ellipse class="cls-11" cx="112.83" cy="219.38" rx="2.72" ry="4.91"/>
          <ellipse class="cls-11" cx="117.98" cy="209.01" rx="2.42" ry="3.27"/>
        </g>
        <path class="cls-35" d="M98.71,219.94s12.41,8.75,24.91,0v10.9s-14.54,10.91-24.91,0v-10.9Z"/>
        <path class="cls-5" d="M113.14,179.77s-2.42.41-1.51,8.82c0,0,1.51,4.05,1.51,8.42,0,0,.7-4.88-.86-11.17,0,0-.96-4.75.86-6.07Z"/>
        <polygon class="cls-25" points="97.41 275.59 97.41 272.06 106.78 272.06 106.78 281.96 97.41 281.96 97.41 279.68 95.59 279.68 95.59 275.64 97.41 275.59"/>
        <rect class="cls-11" x="114.35" y="287.6" width="1.21" height="2.18" rx=".61" ry=".61"/>
        <rect class="cls-11" x="119.19" y="287.6" width="3.03" height="2.18" rx="1" ry="1"/>
        <rect class="cls-11" x="120.4" y="283.23" width="3.03" height="1.09" rx=".5" ry=".5"/>
        <path class="cls-20" d="M245.33,0v88.7s14.45,42.27,87.69,75.02c0,0,34.29,120.11-26.4,137l26.4,26.71h29.68V0h-117.37Z"/>
        <polygon class="cls-4" points="3.12 59.19 3.12 48.02 14.82 53.61 14.82 65.26 3.12 59.19"/>
        <polygon class="cls-4" points="67.85 220.14 67.85 211.92 73.63 216.03 73.63 224.61 67.85 220.14"/>
        <polygon class="cls-4" points="108.99 117.55 108.99 109.33 114.77 113.44 114.77 122.01 108.99 117.55"/>
        <polygon class="cls-4" points="105.36 54.24 105.36 46.02 111.14 50.13 111.14 58.71 105.36 54.24"/>
        <polygon class="cls-4" points="42.44 42.24 42.44 34.02 48.22 38.13 48.22 46.7 42.44 42.24"/>
        <polygon class="cls-4" points="9.57 158.22 8.49 147.23 20.55 149.05 21.68 160.52 9.57 158.22"/>
        <polygon class="cls-4" points="40.09 42.91 40.09 31.74 51.79 37.33 51.79 48.98 40.09 42.91"/>
        <path class="cls-12" d="M25.97,112.36c12.94.91,25.89,1.82,38.83,2.73v6.68c-13-.81-26-1.62-39-2.43.06-2.33.12-4.66.17-6.98Z"/>
        <path class="cls-12" d="M71.19,125.42c7.94.1,15.88.2,23.81.3.06-1.21.12-2.43.17-3.64-7.94-.1-15.88-.2-23.81-.3-.06,1.21-.12,2.43-.17,3.64Z"/>
        <polygon class="cls-22" points="319.87 40.36 319.87 31.65 310.7 34.38 310.7 42.02 319.87 40.36"/>
        <polygon class="cls-22" points="296.33 84.59 296.33 73.67 289 73.67 289 83.46 296.33 84.59"/>
        <polygon class="cls-22" points="349.52 63.3 349.52 48.02 359.61 46.02 359.61 58.71 349.52 63.3"/>
        <rect class="cls-22" x="343.34" y="146.8" width="9.55" height="12.55"/>
        <polygon class="cls-22" points="319.87 187.41 319.87 177.36 311.92 178.45 311.92 187.41 319.87 187.41"/>
        <polygon class="cls-22" points="290.21 93.32 290.21 84.7 283.75 84.9 283.75 94.41 290.21 93.32"/>
        <polygon class="cls-22" points="252.01 214.43 252.01 207.92 247.12 206.28 247.12 214.43 252.01 214.43"/>
        <polygon class="cls-22" points="269.83 208.38 269.83 200.88 264.54 200.88 264.54 209.01 269.83 208.38"/>
        <g>
          <polygon class="cls-23" points="259.13 183.36 259.13 83.83 280.54 76.47 280.54 193.12 259.13 183.36"/>
          <path class="cls-21" d="M278.54,79.28v110.73l-17.41-7.93v-96.82l17.41-5.98M282.54,73.67l-25.41,8.73v102.25l25.41,11.58v-122.56h0Z"/>
        </g>
        <path class="cls-12" d="M282.07,123.3c-8.17-.1-16.34-.2-24.51-.3v3.04h24.68c-.06-.91-.12-1.82-.17-2.73Z"/>
        <polygon class="cls-22" points="276.45 31.9 276.45 23.28 269.99 23.48 269.99 32.99 276.45 31.9"/>
        <polygon class="cls-22" points="262.54 72.28 262.54 63.66 256.08 63.87 256.08 73.38 262.54 72.28"/>
        <polygon class="cls-22" points="318.8 244.73 318.8 236.11 312.34 236.32 312.34 245.82 318.8 244.73"/>
        <polygon class="cls-22" points="310.94 234.91 310.94 226.29 304.48 226.49 304.48 236 310.94 234.91"/>
        <polygon class="cls-22" points="276.45 46.09 276.45 37.47 269.99 37.67 269.99 47.18 276.45 46.09"/>
        <polygon class="cls-22" points="281.29 40.63 281.29 32.01 274.83 32.22 274.83 41.72 281.29 40.63"/>
        <path class="cls-5" d="M106.07,184.08s-2.42.41-1.51,8.82c0,0,1.51,4.05,1.51,8.42,0,0,.7-4.88-.86-11.17,0,0-.96-4.75.86-6.07Z"/>
        <path class="cls-5" d="M109.7,169.89s-2.42.41-1.51,8.82c0,0,1.51,4.05,1.51,8.42,0,0,.7-4.88-.86-11.17,0,0-.96-4.75.86-6.07Z"/>
        <path class="cls-14" d="M133.71,86.77s-10.29-2.18-13.31,20.74v117.88h2.16l-.34-118.97s1.21-14.69,11.5-17.17v-2.48Z"/>
        <path class="cls-19" d="M147.85,84.5c-.61.76-1.33,1.24-2.04,1.43.81-.21-.02.03-.19.09-.24.09-.49.18-.73.27-.6.22-1.21.4-1.82.57-.72.2-1.4.28-2.08.24-.22.96-.34,2.02-.34,3.14,0,4.42,1.9,8,4.24,8s4.24-3.58,4.24-8c0-2.25-.49-4.27-1.28-5.73Z"/>
        <polygon class="cls-26" points="141 87.14 149.13 238.41 219.92 239.03 147.85 84.5 141 87.14"/>
        <path class="cls-24" d="M117.37,84.01s52.03-74.8,128.26,0v-33.25s-55.66-70.94-128.26,0v33.25Z"/>
        <path class="cls-30" d="M273.16,290.67s-12.95,1.4-7.99,25.63c0,0,11.71-9.06,16.2,2.68,0,0,8.43,9.11,10.39-2.68,0,0,2.5-7.64-2-16.81,0,0-8.13-20.48-16.6-8.82Z"/>
        <path class="cls-30" d="M84.11,295.05s-12.95,1.4-7.99,25.63c0,0,11.71-9.06,16.2,2.68,0,0,8.43,9.11,10.39-2.68,0,0,2.5-7.64-2-16.81,0,0-8.13-20.48-16.6-8.82Z"/>
        <path class="cls-30" d="M142.19,273.22s-12.95,1.4-7.99,25.63c0,0,11.71-9.06,16.2,2.68,0,0,8.43,9.11,10.39-2.68,0,0,2.5-7.64-2-16.81,0,0-8.13-20.48-16.6-8.82Z"/>
        <rect class="cls-9" x="68.67" y="277.23" width="20.57" height="37.11"/>
        <rect class="cls-18" x="63.53" y="295.24" width="12.1" height="19.65"/>
        <polygon class="cls-10" points="63.53 295.24 75.63 314.88 73.79 314.88 63.53 298.8 63.53 295.24"/>
        <polygon class="cls-10" points="68.37 281.96 68.37 277.77 69.58 277.77 88.94 310.94 88.94 314.88 86.33 314.88 68.37 281.96"/>
        <path class="cls-30" d="M97.03,51.84s-3.1,16.43,0,16.68c0,0,4.16,2.42,0-16.68Z"/>
        <path class="cls-30" d="M286.71,131.89s-3.1,16.43,0,16.68c0,0,4.16,2.42,0-16.68Z"/>
        <path class="cls-30" d="M255.85,223.57s-3.1,16.43,0,16.68c0,0,4.16,2.42,0-16.68Z"/>
        <path class="cls-30" d="M266.14,38.03s-3.1,16.43,0,16.68c0,0,4.16,2.42,0-16.68Z"/>
        <path class="cls-30" d="M174.17,69.68s-3.1,16.43,0,16.68c0,0,4.16,2.42,0-16.68Z"/>
        <path class="cls-30" d="M161.47,182.1s-3.1,16.43,0,16.68c0,0,4.16,2.42,0-16.68Z"/>
        <path class="cls-30" d="M186.88,125.34s-3.1,16.43,0,16.68c0,0,4.16,2.42,0-16.68Z"/>
        <path class="cls-30" d="M246.77,91.51s-3.1,16.43,0,16.68c0,0,4.16,2.42,0-16.68Z"/>
        <path class="cls-30" d="M301.96,274.48s-3.1,16.43,0,16.68c0,0,4.16,2.42,0-16.68Z"/>
        <path class="cls-30" d="M230.57,11.44s-3.1,16.43,0,16.68c0,0,4.16,2.42,0-16.68Z"/>
        <path class="cls-30" d="M12.77,20.17s-3.1,16.43,0,16.68c0,0,4.16,2.42,0-16.68Z"/>
        <path class="cls-30" d="M18.22,261.38s-3.1,16.43,0,16.68c0,0,4.16,2.42,0-16.68Z"/>
        <ellipse class="cls-28" cx="133.79" cy="284.89" rx="27.23" ry="10.36"/>
      </g>
      <g>
        <ellipse class="cls-3" cx="194.52" cy="172.45" rx="88.5" ry="88"/>
        <g>
          <rect class="cls-34" x="146.44" y="144.74" width="96.77" height="85.87" rx="12" ry="12"/>
          <path class="cls-32" d="M163.59,144.74c-.76-4.07-1.51-11.18.89-19.26,3.35-11.26,13.35-26.26,27.89-27.02,8.77-.46,15.41,4.34,17.76,6.09,17.17,12.78,14.62,37.96,14.36,40.19h-7.62c.42-22.56-14.31-37.2-24.5-36.54-9.76.63-21.67,15.72-20.21,36.54h-8.57Z"/>
          <path class="cls-17" d="M150.73,159.36s-3.06,64.55,36.75,65.16c-11.84-.2-23.68-.41-35.52-.61-.41-21.52-.82-43.04-1.22-64.55Z"/>
          <rect class="cls-29" x="229.12" y="152.66" width="6.12" height="51.76"/>
          <rect class="cls-29" x="229.12" y="208.69" width="6.12" height="6.09"/>
          <ellipse class="cls-6" cx="194.21" cy="175.19" rx="12.86" ry="13.4"/>
          <rect class="cls-6" x="189.31" y="184.33" width="11.02" height="31.67" rx="5.51" ry="5.51"/>
        </g>
      </g>
    </g>
  </g>
</svg>