<?xml version="1.0" encoding="UTF-8"?>
<svg id="Capa_2" data-name="Capa 2" xmlns="http://www.w3.org/2000/svg" xmlns:xlink="http://www.w3.org/1999/xlink" viewBox="0 0 1924 1080">
  <defs>
    <style>
      .cls-1 {
        fill: url(#Degradado_sin_nombre_17);
      }

      .cls-1, .cls-2, .cls-3, .cls-4, .cls-5, .cls-6, .cls-7, .cls-8, .cls-9, .cls-10, .cls-11, .cls-12, .cls-13, .cls-14, .cls-15, .cls-16, .cls-17, .cls-18, .cls-19, .cls-20 {
        stroke-width: 0px;
      }

      .cls-2 {
        fill: #a6c8dd;
      }

      .cls-3 {
        fill: #416d25;
      }

      .cls-4 {
        fill: #8ab270;
      }

      .cls-5 {
        fill: #cdecf7;
      }

      .cls-6 {
        fill: #a6c98f;
      }

      .cls-7 {
        fill: #000;
      }

      .cls-8 {
        fill: #9a67b7;
      }

      .cls-9 {
        fill: #2c4919;
      }

      .cls-21 {
        stroke: #417235;
      }

      .cls-21, .cls-22, .cls-23, .cls-24, .cls-25 {
        stroke-miterlimit: 10;
      }

      .cls-21, .cls-18 {
        fill: #fff;
      }

      .cls-22 {
        fill: #e5b3db;
      }

      .cls-22, .cls-23, .cls-24, .cls-25 {
        stroke: #000;
      }

      .cls-10 {
        fill: #74a555;
      }

      .cls-11 {
        fill: #11000e;
      }

      .cls-23 {
        fill: none;
      }

      .cls-12 {
        fill: #b0ae6e;
      }

      .cls-24 {
        fill: #d375cc;
      }

      .cls-13 {
        fill: #80b25f;
      }

      .cls-14 {
        fill: #578738;
      }

      .cls-25 {
        fill: #b679cc;
      }

      .cls-15 {
        fill: #496b2c;
      }

      .cls-16 {
        fill: #5088aa;
      }

      .cls-17 {
        fill: #639cc6;
      }

      .cls-19 {
        fill: #e57fca;
      }

      .cls-20 {
        fill: #e889d2;
      }
    </style>
    <radialGradient id="Degradado_sin_nombre_17" data-name="Degradado sin nombre 17" cx="-2521.65" cy="1001.56" fx="-2521.65" fy="1001.56" r="200.51" gradientTransform="translate(3264.55 -602.53) scale(1.06 1.14)" gradientUnits="userSpaceOnUse">
      <stop offset=".62" stop-color="#82b362"/>
      <stop offset=".92" stop-color="#a4c88d"/>
    </radialGradient>
  </defs>
  <g id="Capa_1-2" data-name="Capa 1">
    <g>
      <rect class="cls-5" width="1924" height="1080"/>
      <g>
        <g>
          <path class="cls-9" d="M681.05,806.76c2.28,5.12,7.48,7.55,11.61,5.42,4.13-2.13,5.62-8.01,3.34-13.14-2.28-5.12-7.48-7.55-11.61-5.42s-5.62,8.01-3.34,13.14Z"/>
          <path class="cls-9" d="M691.34,814.65c2.28,5.12,7.48,7.55,11.61,5.42,4.13-2.13,5.62-8.01,3.34-13.14-2.28-5.12-7.48-7.55-11.61-5.42s-5.62,8.01-3.34,13.14Z"/>
          <path class="cls-9" d="M689.75,826.28c2.28,5.12,7.48,7.55,11.61,5.42s5.62-8.01,3.34-13.14c-2.28-5.12-7.48-7.55-11.61-5.42-4.13,2.13-5.62,8.01-3.34,13.14Z"/>
        </g>
        <g>
          <path class="cls-9" d="M514.14,810.49c-2.28,5.12-7.48,7.55-11.61,5.42s-5.62-8.01-3.34-13.14,7.48-7.55,11.61-5.42,5.62,8.01,3.34,13.14Z"/>
          <path class="cls-9" d="M503.85,818.38c-2.28,5.12-7.48,7.55-11.61,5.42s-5.62-8.01-3.34-13.14c2.28-5.12,7.48-7.55,11.61-5.42,4.13,2.13,5.62,8.01,3.34,13.14Z"/>
          <path class="cls-9" d="M505.44,830.01c-2.28,5.12-7.48,7.55-11.61,5.42-4.13-2.13-5.62-8.01-3.34-13.14s7.48-7.55,11.61-5.42,5.62,8.01,3.34,13.14Z"/>
        </g>
        <ellipse class="cls-3" cx="795.65" cy="625.48" rx="70.35" ry="99.1"/>
        <ellipse class="cls-3" cx="412.66" cy="640.28" rx="70.35" ry="99.1"/>
        <ellipse class="cls-3" cx="372.46" cy="532.64" rx="64.01" ry="66.64"/>
        <ellipse class="cls-14" cx="533.27" cy="743.37" rx="37.56" ry="40.44"/>
        <ellipse class="cls-14" cx="718.41" cy="719.45" rx="37.56" ry="40.44"/>
        <ellipse class="cls-3" cx="712.07" cy="706.92" rx="44.96" ry="42.72"/>
        <ellipse class="cls-3" cx="533.27" cy="722.87" rx="44.96" ry="42.72"/>
        <ellipse class="cls-14" cx="472.97" cy="713.76" rx="37.56" ry="40.44"/>
        <ellipse class="cls-14" cx="653.88" cy="737.68" rx="37.56" ry="40.44"/>
        <ellipse class="cls-14" cx="414.78" cy="425.57" rx="64.01" ry="66.64"/>
        <ellipse class="cls-14" cx="789.3" cy="627.75" rx="70.35" ry="99.1"/>
        <ellipse class="cls-14" cx="801.99" cy="515.55" rx="64.01" ry="66.64"/>
        <ellipse class="cls-14" cx="794.59" cy="424.43" rx="64.01" ry="66.64"/>
        <ellipse class="cls-14" cx="724.76" cy="350.39" rx="69.3" ry="74.61"/>
        <ellipse class="cls-14" cx="607.33" cy="343.55" rx="64.01" ry="66.64"/>
        <ellipse class="cls-14" cx="474.03" cy="337.86" rx="64.01" ry="66.64"/>
        <ellipse class="cls-14" cx="416.9" cy="628.89" rx="70.35" ry="99.1"/>
        <ellipse class="cls-14" cx="371.4" cy="515.55" rx="64.01" ry="66.64"/>
        <ellipse class="cls-14" cx="562.89" cy="311.66" rx="64.01" ry="66.64"/>
        <ellipse class="cls-14" cx="648.59" cy="312.8" rx="64.01" ry="66.64"/>
        <path class="cls-14" d="M810.5,543.55c-.22,3.45-8.53,37.89-25.15,106.77-8.06,33.42-12.98,52.7-29.72,68.81-8.52,8.19-18.38,13.91-52.58,23.73-53.36,15.32-80.04,22.98-112.03,21.35-40.19-2.04-68.81-14.37-96.02-26.1-27.65-11.92-46.27-20.22-61.73-40.34-11.61-15.11-15.33-28.93-22.86-56.95-27.43-101.99-27.41-101.81-27.44-102.03-9.13-75.51,72.63-227.37,214.91-226.59,140.63.77,217.91,149.97,212.62,231.34Z"/>
        <path class="cls-6" d="M473.11,971.02h0c-10.63-3.76-16.47-16.21-12.98-27.66l37.25-121.96c3.5-11.45,15.06-17.74,25.69-13.97h0c10.63,3.76,16.47,16.21,12.98,27.66l-37.25,121.96c-3.5,11.45-15.06,17.74-25.69,13.97Z"/>
        <path class="cls-6" d="M717.61,968.72h0c10.67-3.66,16.61-16.05,13.21-27.54l-36.23-122.32c-3.4-11.48-14.91-17.88-25.57-14.22h0c-10.67,3.66-16.61,16.05-13.21,27.54l36.23,122.32c3.4,11.48,14.91,17.88,25.57,14.22Z"/>
        <path class="cls-1" d="M810.73,543.57c-.22,3.45-8.53,37.89-25.15,106.77-8.06,33.42-12.98,52.7-29.72,68.81-8.52,8.19-18.38,13.91-52.58,23.73-53.36,15.32-80.04,22.98-112.03,21.35-40.19-2.04-68.81-14.37-96.02-26.1-27.65-11.92-46.27-20.22-61.73-40.34-11.61-15.11-15.33-28.93-22.86-56.95-27.43-101.99-27.41-101.81-27.44-102.03-9.13-75.51,72.63-227.37,214.91-226.59,140.63.77,217.91,149.97,212.62,231.34Z"/>
        <rect class="cls-6" x="559.19" y="742.8" width="76.17" height="56.95" rx="12" ry="12"/>
        <rect class="cls-6" x="491.48" y="788.37" width="210.53" height="283.63" rx="49.71" ry="49.71"/>
        <path class="cls-6" d="M696.83,823.88c3.49,14.3-4.45,28.93-17.73,32.69-13.28,3.75-26.87-4.79-30.36-19.09-3.49-14.3,4.45-28.93,17.73-32.69,13.28-3.75,26.87,4.79,30.36,19.09Z"/>
        <path class="cls-6" d="M542.35,826.12c3.49,14.3-4.45,28.93-17.73,32.69-13.28,3.75-26.87-4.79-30.36-19.09-3.49-14.3,4.45-28.93,17.73-32.69,13.28-3.75,26.87,4.79,30.36,19.09Z"/>
        <path class="cls-6" d="M437.06,701.95c-4.36,1.49-8.97,2.37-13.75,2.54-29.16,1.04-53.62-24.68-54.62-57.43-.73-23.95,11.27-45.03,29.18-55.04"/>
        <path class="cls-6" d="M799.36,592.88c4.29,1.72,8.42,4.1,12.28,7.14,23.54,18.56,28.05,55.04,10.06,81.48-13.15,19.33-34.68,27.94-54.51,23.92"/>
        <ellipse class="cls-21" cx="499.42" cy="573.65" rx="60.3" ry="64.93"/>
        <ellipse class="cls-21" cx="683.5" cy="574.79" rx="60.3" ry="64.93"/>
        <ellipse class="cls-15" cx="509.47" cy="584.47" rx="30.68" ry="33.03"/>
        <ellipse class="cls-18" cx="523.75" cy="574.79" rx="8.99" ry="9.68"/>
        <ellipse class="cls-15" cx="671.34" cy="584.47" rx="30.68" ry="33.03"/>
        <ellipse class="cls-18" cx="658.11" cy="574.79" rx="8.99" ry="9.68"/>
        <path class="cls-15" d="M537.8,483.06c-8.32-2.44-15.33-3.13-20.24-3.29-8.29-.27-34.89-1.12-52.99,19.64-3.29,3.78-5.55,7.4-6.94,9.87,2.56-1.57,19.67-11.99,35.46-17.05,3.55-1.14,12.44-3.92,22.07-3.7.91.02,1.51.1,2.4.1,5.45,0,11.36,1.1,17.24,2.79,2.65.69,5.02-1.29,5.32-3.68.22-1.76-.71-3.68-2.31-4.69Z"/>
        <path class="cls-15" d="M642.83,482.96c8.32-2.44,15.33-3.13,20.24-3.29,8.29-.27,34.89-1.12,52.99,19.64,3.29,3.78,5.55,7.4,6.94,9.87-2.56-1.57-19.67-11.99-35.46-17.05-3.55-1.14-12.44-3.92-22.07-3.7-.91.02-1.51.1-2.4.1-5.45,0-11.36,1.1-17.24,2.79-2.65.69-5.02-1.29-5.32-3.68-.22-1.76.71-3.68,2.31-4.69Z"/>
        <path class="cls-15" d="M590.08,694.44c2.19.26,9.57,1.01,19.14-.93,20.33-4.12,33.69-16.93,39.6-23.45-15.65,7.41-28.63,11.47-37.65,13.78-7.79,2-13.67,2.97-20.61,2.64-1.66-.08-8.2-.46-17.81-3.54-15.95-5.12-24.38-12.57-24.71-12.02-.49.81,16.46,20.48,42.03,23.52Z"/>
        <path class="cls-15" d="M659.54,664.83c-.07-.29-.33-1.26-1.01-2.38-1.45-2.38-3.6-3.44-4.65-3.87,1.62,1.62,2.71,3.07,3.41,4.1.6.89,1,1.59,1.28,2.49.07.21.33,1.06.42,2.44.14,2.28-.35,3.72-.27,3.73.12.02,1.66-3.1.82-6.5Z"/>
        <path class="cls-15" d="M540.55,662.89c-.15.22-.64.96-.89,2.17-.53,2.57.47,5.11,1.02,6.31-.16-2.34,0-4.1.16-5.28.15-1.02.33-1.74.74-2.47.1-.17.5-.86,1.42-1.64,1.53-1.31,2.97-1.6,2.91-1.68-.08-.12-3.6.06-5.37,2.6Z"/>
        <ellipse class="cls-13" cx="736.4" cy="661.93" rx="11.11" ry="12.53"/>
        <ellipse class="cls-13" cx="753.86" cy="591.87" rx="7.41" ry="6.26"/>
        <path class="cls-10" d="M766.1,619.22c-2.15,6.52-7.24,10.53-11.37,8.96-4.13-1.58-5.74-8.14-3.59-14.66,2.15-6.52,7.24-10.53,11.37-8.96,4.13,1.58,5.74,8.14,3.59,14.66Z"/>
        <ellipse class="cls-13" cx="737.99" cy="628.89" rx="6.35" ry="6.83"/>
        <ellipse class="cls-13" cx="753.86" cy="645.98" rx="6.35" ry="10.25"/>
        <ellipse class="cls-13" cx="778.72" cy="574.79" rx="9.59" ry="5.88" transform="translate(-25.71 1113.01) rotate(-70.22)"/>
        <path class="cls-10" d="M777.08,626.1c2.27,2.45,1.77,6.95-1.12,10.07-2.89,3.11-7.08,3.65-9.35,1.21-2.27-2.45-1.77-6.95,1.12-10.07,2.89-3.11,7.08-3.65,9.35-1.21Z"/>
        <ellipse class="cls-10" cx="764.44" cy="577.64" rx="5.29" ry="5.7"/>
        <path class="cls-13" d="M778.64,590.25c2.03,2.68,1.11,7.11-2.07,9.89-3.17,2.78-7.39,2.86-9.42.18-2.03-2.68-1.11-7.11,2.07-9.89,3.17-2.78,7.39-2.86,9.42-.18Z"/>
        <ellipse class="cls-13" cx="777.66" cy="612.95" rx="7.87" ry="3.75" transform="translate(-90.87 1088.46) rotate(-66.95)"/>
        <ellipse class="cls-10" cx="707.31" cy="652.81" rx="11.64" ry="12.53"/>
        <ellipse class="cls-13" cx="447.67" cy="664.17" rx="11.11" ry="12.53"/>
        <ellipse class="cls-13" cx="430.22" cy="594.12" rx="7.41" ry="6.26"/>
        <path class="cls-10" d="M417.98,621.46c2.15,6.52,7.24,10.53,11.37,8.96,4.13-1.58,5.74-8.14,3.59-14.66-2.15-6.52-7.24-10.53-11.37-8.96-4.13,1.58-5.74,8.14-3.59,14.66Z"/>
        <ellipse class="cls-13" cx="446.09" cy="631.14" rx="6.35" ry="6.83"/>
        <ellipse class="cls-13" cx="430.22" cy="648.23" rx="6.35" ry="10.25"/>
        <ellipse class="cls-13" cx="405.35" cy="577.03" rx="5.88" ry="9.59" transform="translate(-171.37 171.25) rotate(-19.78)"/>
        <path class="cls-10" d="M406.99,628.35c-2.27,2.45-1.77,6.95,1.12,10.07,2.89,3.11,7.08,3.65,9.35,1.21,2.27-2.45,1.77-6.95-1.12-10.07-2.89-3.11-7.08-3.65-9.35-1.21Z"/>
        <ellipse class="cls-10" cx="419.64" cy="579.88" rx="5.29" ry="5.7"/>
        <path class="cls-13" d="M405.43,592.5c-2.03,2.68-1.11,7.11,2.07,9.89,3.17,2.78,7.39,2.86,9.42.18,2.03-2.68,1.11-7.11-2.07-9.89-3.17-2.78-7.39-2.86-9.42-.18Z"/>
        <ellipse class="cls-13" cx="406.41" cy="615.19" rx="3.75" ry="7.87" transform="translate(-208.45 208.29) rotate(-23.05)"/>
        <ellipse class="cls-10" cx="476.77" cy="655.06" rx="11.64" ry="12.53"/>
        <path class="cls-4" d="M559.19,760.18c10.91,2.94,20.04,3.93,26.45,4.27,9.05.49,16.09-.13,27.51-1.14,9.26-.82,16.9-1.83,22.22-2.61v20.77l-76.17.54v-21.82Z"/>
        <rect class="cls-17" x="491.48" y="788.37" width="210.53" height="283.63" rx="49.71" ry="49.71"/>
        <path class="cls-16" d="M541.82,822.14c3.49,14.3-4.45,28.93-17.73,32.69-13.28,3.75-26.87-4.79-30.36-19.09-3.49-14.3,4.45-28.93,17.73-32.69,13.28-3.75,26.87,4.79,30.36,19.09Z"/>
        <path class="cls-16" d="M652.46,822.15c-3.49,14.3,4.45,28.93,17.73,32.69,13.28,3.75,26.87-4.79,30.36-19.09,3.49-14.3-4.45-28.93-17.73-32.69-13.28-3.75-26.87,4.79-30.36,19.09Z"/>
        <rect class="cls-12" x="568.2" y="939.24" width="53.58" height="211.93" rx="12.07" ry="12.07" transform="translate(-450.21 1640.2) rotate(-90)"/>
        <ellipse class="cls-14" cx="635.89" cy="336.72" rx="64.01" ry="66.64"/>
        <ellipse class="cls-3" cx="523.75" cy="324.19" rx="64.01" ry="66.64"/>
        <ellipse class="cls-3" cx="386.21" cy="449.49" rx="64.01" ry="66.64"/>
        <ellipse class="cls-3" cx="437" cy="391.39" rx="64.01" ry="66.64"/>
        <ellipse class="cls-3" cx="779.78" cy="439.24" rx="64.01" ry="66.64"/>
        <ellipse class="cls-3" cx="722.65" cy="372.03" rx="64.01" ry="66.64"/>
        <ellipse class="cls-14" cx="527.98" cy="336.72" rx="64.01" ry="66.64"/>
        <ellipse class="cls-14" cx="475.08" cy="343.55" rx="64.01" ry="66.64"/>
        <ellipse class="cls-14" cx="390.45" cy="463.16" rx="64.01" ry="66.64"/>
        <ellipse class="cls-14" cx="773.43" cy="448.35" rx="64.01" ry="66.64"/>
        <ellipse class="cls-14" cx="715.24" cy="380" rx="64.01" ry="66.64"/>
        <ellipse class="cls-14" cx="446.52" cy="392.53" rx="64.01" ry="66.64"/>
        <ellipse class="cls-14" cx="793.53" cy="509.86" rx="37.56" ry="40.44"/>
        <ellipse class="cls-14" cx="383.04" cy="525.81" rx="37.56" ry="40.44"/>
        <g>
          <path class="cls-6" d="M347.98,880.39h0c5.53-9.81,18.75-12.88,29.37-6.82l110.09,62.84c10.61,6.06,14.78,19.04,9.25,28.84h0c-5.53,9.81-18.75,12.88-29.37,6.82l-110.09-62.84c-10.61-6.06-14.78-19.04-9.25-28.84Z"/>
          <ellipse class="cls-9" cx="393.32" cy="883" rx="10.11" ry="10.76" transform="translate(-563.83 747.86) rotate(-57.95)"/>
          <ellipse class="cls-9" cx="386.04" cy="870.39" rx="10.11" ry="10.76" transform="translate(-556.55 735.77) rotate(-57.95)"/>
          <ellipse class="cls-9" cx="373.55" cy="871.94" rx="10.11" ry="10.76" transform="translate(-563.73 725.91) rotate(-57.95)"/>
          <path class="cls-6" d="M365.22,924.38l-2.58-1.28c-4.61-2.3-6.64-7.77-4.51-12.18.1-.21.21-.41.32-.6l-6.47-3.22c-8.5-4.23-12.25-14.35-8.33-22.49l3.56-7.4c3.92-8.14,14.09-11.33,22.59-7.1l14.17,7.05c8.5,4.23,12.25,14.35,8.33,22.49l-3.56,7.4c-2.11,4.39-6.04,7.34-10.55,8.46.25,1.67.03,3.42-.74,5.03-1.06,2.21-2.97,3.75-5.19,4.43-2.21.7-4.74.56-7.05-.59Z"/>
        </g>
        <g>
          <path class="cls-6" d="M839.96,865.64l-3.61-4.99c-5.6-7.74-16.47-9.45-24.15-3.81l-110.13,80.96c-7.68,5.65-9.38,16.6-3.78,24.34l3.61,4.99c5.6,7.74,16.47,9.45,24.15,3.81l110.13-80.96c7.68-5.65,9.38-16.6,3.78-24.34Z"/>
          <ellipse class="cls-9" cx="796.11" cy="871.08" rx="10.77" ry="10.1" transform="translate(-371.93 702.96) rotate(-39.38)"/>
          <ellipse class="cls-9" cx="801.8" cy="857.67" rx="10.77" ry="10.1" transform="translate(-362.12 703.52) rotate(-39.38)"/>
          <ellipse class="cls-9" cx="814.38" cy="857.66" rx="10.77" ry="10.1" transform="translate(-359.26 711.5) rotate(-39.38)"/>
          <path class="cls-6" d="M824.34,907.65l2.36-1.57c4.23-2.8,5.56-8.38,2.96-12.42-.12-.19-.26-.38-.39-.55l5.93-3.93c7.79-5.17,10.25-15.49,5.46-22.93l-4.35-6.77c-4.79-7.44-15.08-9.3-22.88-4.13l-12.99,8.62c-7.79,5.17-10.25,15.49-5.46,22.93l4.35,6.77c2.58,4.01,6.77,6.4,11.29,6.94-.05,1.66.38,3.34,1.32,4.8,1.3,2.02,3.34,3.28,5.59,3.68,2.24.41,4.69-.04,6.81-1.44Z"/>
        </g>
        <g>
          <path class="cls-2" d="M595.47,923.93s-11.5-39.25-37.74-16.02c0,0-18.47,17.65-9.96,31.12,0,0,18.06,18.22,35.8,8.11l1.86,1.93s-5.12,10.26,1.63,10.89c0,0,4.79,2.23,6.52,1.06,1.73-1.17-1.08,0-1.08,0,0,0,16.68,11.64,31.51,1.55,0,0,4.1-2.93,1.96-5.03h2.23s11.39,3.19,17.4-3.87c0,0,5.52-5.07-5.12-6.44,0,0,11.74-9.44,6.55-16.81,0,0-6.47,6.34-14.08,6.11,0,0-11.78-24.96-37.47-12.6Z"/>
          <g>
            <path class="cls-22" d="M593.61,930.23c-.43-14.51-7.64-25.79-16.77-28.01-1.84-.45-6.08-1.09-11.68,1.69-1.9,1.24-4.04,2.89-6.21,5.07-4.48,4.51-7.09,9.35-8.58,12.78,0,0-5.86,10.32,0,15.9,0,0,14.78,15.26,33.2,6.79l4.74,3.03s-4.18,4.84-3.07,8.17c0,0,3.63,4.17,9.34,2.54,0,0,5.44,7.75,20.78,4.42,0,0,8.93-1.21,8.65-3.93l-4.74-3.33s6.69-.91,6.69-2.12c0,0,2.23,5.75,15.34,1.21,0,0,4.46-1.82,4.18-3.93,0,0-.84-2.72-8.65-3.33v-.91s9.79-4.67,8.66-13.07c0,0-7.27,5.81-13.12,4.3,0,0-1.95-6.66-11.99-12.1-.72-.45-11.95-7.25-21.2-1.21-2.67,1.74-4.44,4.07-5.58,6.05Z"/>
            <path class="cls-25" d="M591.66,935.38s24.37,8.16,38.55-1.82c-1.56-2.24-3.12-3.86-4.37-4.99-7.19-6.49-17.44-8.96-23.43-6.05-1.46.71-3.07,1.82-3.07,1.82-2.64,1.82-4.52,3.82-5.73,5.31-.65,1.91-1.29,3.82-1.94,5.73Z"/>
            <path class="cls-24" d="M589.29,940.06s17.57,12.1,43.1-2.57c0,0-.6-2.89-2.18-3.94-4.71,2.34-8.85,3.46-11.79,4.03-7.73,1.51-13.9.6-17.41.06-3.91-.61-7.1-1.52-9.34-2.27-.79,1.56-1.58,3.13-2.37,4.69Z"/>
            <path class="cls-24" d="M619.27,955.34s6-.15,6.69-2.12l-.7-5.6s-8.93,5.14-19.25,2.42c0,0,9.76,5.75,13.25,5.29Z"/>
            <ellipse class="cls-11" cx="569.2" cy="922.97" rx="4.74" ry="6.2"/>
            <ellipse class="cls-18" cx="568.36" cy="920.7" rx="2.41" ry="1.68" transform="translate(-444.05 1302.47) rotate(-78.97)"/>
            <ellipse class="cls-19" cx="576.17" cy="934.17" rx="4.74" ry="2.57"/>
            <path class="cls-20" d="M568.64,904.81s-5.02,3.06,0,1.91c0,0,3.29-3.09,8.62,0,0,0,3,1.56,1.37-1.91,0,0-7.76-1.97-9.99,0Z"/>
            <ellipse class="cls-20" cx="564.46" cy="909.2" rx="1.39" ry="1.51"/>
            <path class="cls-8" d="M592.8,931.99s20.44,6.53,35.17-1.09c0,0,2,1.74,2.23,2.65,0,0-13.44,9.08-38.55,1.82l1.14-3.38Z"/>
            <path class="cls-23" d="M597.21,925.74s8.53,3.43,8.81,12.51c0,0-11.02-1.66-14.37-2.87l1.92-6.31,3.64-3.32Z"/>
            <path class="cls-23" d="M614.46,922.23s-11.41,4.33-11.67,7.68c0,0-2.81-3.22-5.58-4.17,0,0,7.97-6.97,17.25-3.51Z"/>
            <path class="cls-23" d="M621.35,936.91s-1.66-12.39-6.89-14.67c0,0,11.33,3.75,15.74,11.32,0,0-7.05,3.67-8.85,3.35Z"/>
            <path class="cls-23" d="M624.01,927.15s-4.16-2.4-4.31,2.76c0,0-1.68-6-5.24-7.68,0,0,7.87,2.43,9.55,4.91Z"/>
            <path class="cls-23" d="M588.31,947.48s4.31,4.11,6.9,4.02c0,0-.19-3.15,1.48-3.58,0,0-1.68-2.01-2.1,10.27"/>
            <path class="cls-7" d="M556.09,933.32s.46,6.13,7.04,2.69c0,0-5.51,1.86-7.04-2.69Z"/>
            <path class="cls-23" d="M583.57,944.45s4.32-1.66,5.72-4.39"/>
            <path class="cls-23" d="M614.46,950.75s3.12.42,3.13,4.47"/>
            <path class="cls-23" d="M621.27,949.33s2.35,2.47,2.27,5.3"/>
            <ellipse class="cls-19" cx="600.58" cy="956.7" rx="2.23" ry="1.97"/>
            <ellipse class="cls-19" cx="628.2" cy="953.07" rx="2.23" ry="1.97"/>
            <ellipse class="cls-19" cx="587.05" cy="952.47" rx="2.21" ry="1.29" transform="translate(-531.02 910.86) rotate(-56.22)"/>
            <ellipse class="cls-19" cx="611.46" cy="959.13" rx="1.67" ry="1.06"/>
            <ellipse class="cls-19" cx="633.78" cy="948.23" rx=".84" ry="1.06"/>
            <ellipse class="cls-19" cx="640.47" cy="951.56" rx="1.67" ry="1.06"/>
          </g>
        </g>
        <g>
          <ellipse class="cls-2" cx="646.72" cy="910.76" rx="6.63" ry="6.27"/>
          <ellipse class="cls-18" cx="650.29" cy="907.38" rx="1.02" ry=".96"/>
          <ellipse class="cls-18" cx="651.79" cy="911.24" rx=".4" ry=".16" transform="translate(-237.2 229.42) rotate(-16.94)"/>
          <ellipse class="cls-18" cx="651.42" cy="909.7" rx=".91" ry=".58"/>
        </g>
        <g>
          <ellipse class="cls-2" cx="550.73" cy="881.93" rx="6.2" ry="5.46"/>
          <ellipse class="cls-18" cx="554.07" cy="878.99" rx=".95" ry=".84"/>
          <ellipse class="cls-18" cx="555.47" cy="882.34" rx=".37" ry=".14" transform="translate(-214.79 179.66) rotate(-15.43)"/>
          <ellipse class="cls-18" cx="555.12" cy="881" rx=".85" ry=".5"/>
        </g>
        <g>
          <ellipse class="cls-2" cx="653.73" cy="932.09" rx="2.79" ry="2.72"/>
          <ellipse class="cls-18" cx="655.24" cy="930.62" rx=".43" ry=".42"/>
          <ellipse class="cls-18" cx="655.87" cy="932.29" rx=".17" ry=".07" transform="translate(-251.95 242.95) rotate(-17.66)"/>
          <ellipse class="cls-18" cx="655.71" cy="931.63" rx=".38" ry=".25"/>
        </g>
        <g>
          <ellipse class="cls-2" cx="553.14" cy="966.87" rx="4.99" ry="4.89"/>
          <ellipse class="cls-18" cx="555.83" cy="964.24" rx=".77" ry=".75"/>
          <ellipse class="cls-18" cx="556.96" cy="967.24" rx=".3" ry=".13" transform="translate(-268.34 215.82) rotate(-17.75)"/>
          <ellipse class="cls-18" cx="556.68" cy="966.04" rx=".69" ry=".45"/>
        </g>
        <path class="cls-16" d="M722.03,973.4h0c10.63-3.76,16.47-16.21,12.98-27.66l-37.25-121.96c-3.5-11.45-15.06-17.74-25.69-13.97h0c-10.63,3.76-16.47,16.21-12.98,27.66l37.25,121.96c3.5,11.45,15.06,17.74,25.69,13.97Z"/>
        <path class="cls-16" d="M472.25,973.39h0c-10.63-3.76-16.47-16.21-12.98-27.66l37.25-121.96c3.5-11.45,15.06-17.74,25.69-13.97h0c10.63,3.76,16.47,16.21,12.98,27.66l-37.25,121.96c-3.5,11.45-15.06,17.74-25.69,13.97Z"/>
      </g>
      <g>
        <path class="cls-3" d="M1116.92,676.08c0-22.19,8.28-41.28,32.93-41.28,3.58.39,4.3,3.87,4.3,7.61s-.2,9.03-1.43,10.19c-2.05-.52-3.89-.77-5.63-.77-11.97,0-16.47,12.26-16.77,21.93-.82,23.48,10.33,28.77,18.21,28.77,1.84,0,3.48-.26,4.81-.65,1.43.52,2.45,4,2.45,7.48s-1.02,6.84-3.58,7.48c0,0-2.25.52-5.73.52-9.92,0-29.56-4.52-29.56-41.28Z"/>
        <path class="cls-3" d="M1183.91,710.78c-3.48,2.71-7.57,3.87-11.35,3.87-.82,0-1.64,0-2.45-.13-8.28-1.55-12.79-13.03-12.79-24.38,0-1.42.1-2.97.2-4.39,1.84-17.03,10.02-22.45,17.59-22.45,1.12,0,2.25.13,3.27.39,3.58.39,6.96,2.32,8.9,4,.41-3.23,2.25-4.26,4.4-4.26,2.66,0,5.22,1.55,6.03,2.58.41.64.51,2.32.51,4.77,0,11.48-3.58,39.22-3.99,44.51-.51,4-4.81,3.48-6.14,3.35-2.45-.39-3.78-4.13-4.19-7.87ZM1183.61,693.75c.31-1.94.51-4.26.51-6.45,0-5.42-1.23-10.45-5.11-11.22h-.72c-7.67,0-9,9.29-9,13.8,0,7.35,3.48,10.06,7.16,10.06,3.27,0,6.75-2.45,7.16-6.19Z"/>
        <path class="cls-3" d="M1202.32,735.03l2.25-71.73v-2.06c0-1.81.51-3.1,2.97-3.1h3.48c2.97,0,6.14.26,6.24,2.32l-.31,5.16c2.86-.9,6.03-1.42,9-1.42,9.51,0,18.31,5.29,18.31,21.29,0,6.71-.2,26.57-20.05,26.57-2.56,0-5.32-.39-8.49-1.03l-1.23,25.8-1.13,1.16-9.92-.52c-1.12-.13-1.02-1.81-1.12-2.45ZM1232.5,685.49c0-5.68-3.27-8.13-6.65-8.13-5.42,0-8.59,3.48-9.82,7.74l-.41,7.35.31,1.29c.51,2.45,3.89,4.51,7.57,4.51,4.4,0,9-3.1,9-12.77Z"/>
        <path class="cls-3" d="M1249.37,713.62l2.15-47.6c1.12-.64,2.86-.9,4.7-.9,2.76,0,5.52.52,6.24.9,1.74.9,1.23,1.55,1.53,4.64l-3.07,42.96c-1.02,1.16-3.38,1.68-5.73,1.68s-4.71-.52-5.83-1.68ZM1250.49,648.99c0-4.77,3.27-9.93,9-9.93,3.99,0,6.24,4.26,6.24,7.87,0,5.29-2.66,9.8-8.08,9.8-4.91,0-7.16-3.74-7.16-7.74Z"/>
        <path class="cls-3" d="M1277.49,690.53c-.31-4.9-.41-7.48-.31-13.03-.82-.13-1.43-.13-2.15-.13l-3.17.13c-1.53,0-1.94-.52-2.45-3.87-.1-.65-.2-1.55-.2-2.58-.1-1.16-.2-1.42-.2-3.35,0-2.84,2.05-3.87,4.4-4.51,1.94-.65,4.09-.77,5.52-.9l.61-.52.31-15.87c.1-2.32.51-5.42,3.17-5.93.82-.26,1.64-.39,2.56-.52,2.56-.26,5.32.26,5.73,2.97l-.72,19.48,2.25-.39,2.15-.13c2.45,0,4.81.39,5.01,1.29.41,1.03.51,2.32.51,4.13,0,4.13-1.02,8.13-1.84,8.38l-8.59.9c-.1,1.81-.31,3.48-.31,5.81l.2,4.77c.41,7.22.61,14.45,7.26,14.45,2.15,0,3.89-.52,5.22-.52,1.64,0,2.56.9,2.86,4.77.1,1.68-.1,3.87-.61,6.45-.82,2.32-1.94,2.71-3.07,3.1-1.64.39-3.17.52-4.5.64-.82.13-1.53.13-2.35.13-12.99,0-16.47-10.58-17.29-25.16Z"/>
        <path class="cls-3" d="M1331.7,709.88c-3.27,3.23-6.75,4.77-10.94,4.77-10.13,0-12.17-11.87-12.17-23.09,0-6.84.72-12.77.72-16.25v-.65c0-3.22.1-8.77,3.07-8.77,2.25,0,10.33-.26,10.23,2.58-.1,4-.82,12.26-.92,16.51l-.2,5.55c-.2,5.29,1.02,9.03,5.83,9.03,11.25,0,2.56-34.06,9.31-34.06.31,0,3.48-.52,6.14-.52,1.53,0,2.97.13,3.68.65l-1.43,48.38c-.82,1.16-2.76,1.81-5.01,1.81-3.27,0-6.95-1.55-8.28-5.93Z"/>
        <path class="cls-3" d="M1352.97,712.07l-.31-70.57c0-.39-.1-1.16-.1-2.06,0-1.94.41-3.35,3.27-3.35l4.5-.13c2.45,0,4.7.39,4.91,2.06l-1.53,74.05-1.12,1.29-8.39,1.03c-1.12,0-1.12-1.68-1.23-2.32Z"/>
        <path class="cls-3" d="M1370.35,693.23c0-16.25,9.31-31.99,25.16-31.99,10.94,0,17.39,13.16,17.39,24.77,0,17.29-8.28,29.54-22.71,29.54-11.05,0-19.84-8.13-19.84-22.32ZM1400.73,687.69c0-8.13-3.68-12-7.67-12-4.5,0-9.21,4.77-10.02,14.06v1.16c-.2,5.29,2.25,9.8,6.75,10.32.51,0,.92.13,1.33.13,5.83,0,9.61-5.16,9.61-13.67Z"/>
        <path class="cls-3" d="M1467.92,709.88c-3.27,3.23-6.75,4.77-10.94,4.77-10.13,0-12.17-11.87-12.17-23.09,0-6.84.72-12.77.72-16.25v-.65c0-3.22.1-8.77,3.07-8.77,2.25,0,10.33-.26,10.23,2.58-.1,4-.82,12.26-.92,16.51l-.2,5.55c-.2,5.29,1.02,9.03,5.83,9.03,11.25,0,2.56-34.06,9.31-34.06.31,0,3.48-.52,6.14-.52,1.53,0,2.97.13,3.68.65l-1.43,48.38c-.82,1.16-2.76,1.81-5.01,1.81-3.27,0-6.95-1.55-8.28-5.93Z"/>
        <path class="cls-3" d="M1513.33,715.29l.92-21.42c-.1-1.68.2-3.87.2-5.93,0-3.87-.61-7.48-4.3-7.48-11.25,0-7.26,26.45-10.13,33.93-.41,1.16-1.94,1.42-3.68,1.42l-7.47-.13-.1-.9c0-14.06,1.64-33.03,2.45-46.83,0-2.32,2.15-2.71,4.09-2.71,3.07,0,6.24,1.29,6.75,4.64.2,0,.61.26.72.13,3.78-3.1,5.83-5.55,11.15-5.55,11.46,0,13.71,9.16,13.81,21.67,0,8.13-1.02,17.8-1.23,27.09,0,2.45-2.35,3.22-5.22,3.22-3.07,0-6.65-.9-7.98-1.16Z"/>
        <path class="cls-3" d="M1532.45,693.23c0-16.25,9.31-31.99,25.16-31.99,10.94,0,17.39,13.16,17.39,24.77,0,17.29-8.28,29.54-22.71,29.54-11.05,0-19.84-8.13-19.84-22.32ZM1562.83,687.69c0-8.13-3.68-12-7.67-12-4.5,0-9.21,4.77-10.02,14.06v1.16c-.2,5.29,2.25,9.8,6.75,10.32.51,0,.92.13,1.33.13,5.83,0,9.61-5.16,9.61-13.67Z"/>
      </g>
    </g>
  </g>
</svg>