<?xml version="1.0" encoding="UTF-8"?>
<svg xmlns="http://www.w3.org/2000/svg" version="1.1" xmlns:xlink="http://www.w3.org/1999/xlink" viewBox="0 0 1920 1080">
  <defs>
    <style>
      .cls-1 {
        fill: #ffd3c2;
      }

      .cls-1, .cls-2, .cls-3, .cls-4, .cls-5, .cls-6, .cls-7, .cls-8, .cls-9, .cls-10, .cls-11, .cls-12, .cls-13, .cls-14, .cls-15, .cls-16, .cls-17, .cls-18, .cls-19, .cls-20, .cls-21, .cls-22, .cls-23, .cls-24, .cls-25, .cls-26, .cls-27, .cls-28, .cls-29 {
        stroke-width: 0px;
      }

      .cls-2 {
        fill: #b1b7dd;
      }

      .cls-3, .cls-24 {
        fill: #000;
      }

      .cls-4 {
        fill: #75584e;
      }

      .cls-5 {
        fill: #56331f;
      }

      .cls-6 {
        fill: #dda08e;
      }

      .cls-7 {
        fill: #f7a1a1;
        opacity: .4;
      }

      .cls-30 {
        isolation: isolate;
      }

      .cls-8 {
        fill: #650e81;
        mix-blend-mode: multiply;
        opacity: 0;
      }

      .cls-9 {
        fill: #f2b9a7;
      }

      .cls-10 {
        fill: #f297ab;
        opacity: .5;
      }

      .cls-11 {
        fill: #505982;
      }

      .cls-12 {
        fill: none;
      }

      .cls-13 {
        fill: #303030;
      }

      .cls-14 {
        fill: #49342f;
      }

      .cls-15 {
        fill: #7c797c;
      }

      .cls-16 {
        fill: #e2bbaf;
      }

      .cls-17 {
        fill: #76b5ce;
      }

      .cls-17, .cls-29 {
        opacity: .6;
      }

      .cls-18 {
        fill: #4c2612;
      }

      .cls-19 {
        fill: #757daa;
      }

      .cls-20 {
        fill: #e2e5a5;
      }

      .cls-21 {
        fill: #474047;
      }

      .cls-31 {
        stroke: #af8571;
      }

      .cls-31, .cls-32 {
        stroke-miterlimit: 10;
      }

      .cls-31, .cls-26 {
        fill: #fff;
      }

      .cls-22 {
        fill: #80b2c1;
        opacity: .6;
      }

      .cls-23, .cls-32 {
        fill: #f2cabb;
      }

      .cls-32 {
        stroke: #ddae97;
      }

      .cls-24 {
        filter: url(#drop-shadow-1);
      }

      .cls-25 {
        fill: #1f5566;
      }

      .cls-27 {
        fill: #b7b774;
      }

      .cls-28 {
        opacity: .6;
      }

      .cls-28, .cls-29 {
        fill: #b8e0f4;
      }
    </style>
    <filter id="drop-shadow-1" filterUnits="userSpaceOnUse">
      <feOffset dx="0" dy="7"/>
      <feGaussianBlur result="blur" stdDeviation="2"/>
      <feFlood flood-color="#575151" flood-opacity=".5"/>
      <feComposite in2="blur" operator="in"/>
      <feComposite in="SourceGraphic"/>
    </filter>
  </defs>
  <g class="cls-30">
    <g id="Capa_1" data-name="Capa 1">
      <g>
        <g>
          <path class="cls-5" d="M916.3,437.6s-2.4,61.4-8.4,68.6c0,0,35.4,16.5,51-19.1,0,0,14.5-60.5-42.5-49.5Z"/>
          <path class="cls-26" d="M883.9,460.3c-1.1.6-2.2,1.2-3.3,1.7,1.2-.5,2.3-1,3.3-1.7Z"/>
          <path class="cls-2" d="M867.9,452.8s0,0-.1,0c0,0,.1,0,.1,0Z"/>
          <path class="cls-5" d="M703.6,656.2s242.2,42.2,314-45.3c0,0-274.2-156.1-314,45.3Z"/>
          <polygon class="cls-5" points="872.4 586.4 790.1 587.7 790.1 541.8 870.5 544.3 872.4 586.4"/>
          <rect class="cls-16" x="794.9" y="540.6" width="39" height="38.5" rx="4.4" ry="4.4"/>
          <path class="cls-23" d="M786.9,305.1s-71.3,10.5-93.3,73.2c0,0-15.1,66.7,0,94.1,0,0-23.3-13.1-12.3,22.2,0,0,9.6,10.5,26.1,13.1,9.7,12,19.5,19.5,26.3,24,14.7,9.6,27.9,13.9,36.7,16.6,8.1,2.4,16.8,5.1,28.9,5.8,14,.8,24.6-1.4,39.7-4.5,5.2-1.1,15.3-3.5,27.5-7,1-.3,1.9-.6,2.7-.8,14.4-4.4,21.8-6.8,28.8-11.8,9.6-6.9,15-15.3,17.8-20.9,0,0,21.9-1.3,28.8-18.3,0,0,6.9-23.5-9.6-22.2,3.1-12,5.8-27.8,5-46.3-1.6-37.1-16.3-64.8-25.5-79.3-6.4-7-14.8-14.5-25.4-21.1-41.1-25.5-86.6-19.6-102.2-16.8Z"/>
          <path class="cls-10" d="M726.5,486.3c-4.2-11.6,2.1-24.4,14.1-28.5,12-4.1,25,2,29.2,13.7,4.2,11.6-2.1,24.4-14.1,28.5-11.9,4.1-25-2.1-29.2-13.7Z"/>
          <path class="cls-10" d="M849.7,486.3c-4.2-11.6,2.1-24.4,14.1-28.5,12-4.1,25,2,29.2,13.7,4.2,11.6-2.1,24.4-14,28.5-11.9,4.1-25-2-29.2-13.7Z"/>
          <path class="cls-10" d="M821.4,506.1s-11.4,3.8-17.4,3.6c-6-.2-13.3-2.5-13.3-2.5,0,0,5-6.7,14.8-7,9.8-.3,15.9,5.9,15.9,5.9Z"/>
          <path class="cls-10" d="M790.7,506.8s2.3,9.4,15.9,9.2c13.5-.2,15.5-11,15.5-11,0,0-8.1,4-16.4,4.1-6.1,0-15-2.3-15-2.3Z"/>
          <path class="cls-12" d="M852.4,466.2c1,.2,1.9.3,2.8.5-.9-.1-1.9-.3-2.8-.5Z"/>
          <path class="cls-11" d="M755.6,455.5s0,0,0,0c0,0,0,0,0,0Z"/>
          <path class="cls-11" d="M851.3,454.4s0,0,0,0c0,0,.1,0,.1,0s0,0-.1,0Z"/>
          <polygon class="cls-19" points="851.3 454.4 851.3 454.4 851.3 454.4 851.3 454.4"/>
          <ellipse class="cls-7" cx="807.5" cy="466.8" rx="7.4" ry="6.2"/>
          <path class="cls-6" d="M807.6,471.9c-4.2-4.9.4-9.6.4-9.6-9.7,1.6-.4,9.6-.4,9.6Z"/>
          <path class="cls-5" d="M706.7,391.8v1.5c.1,0-4.2,37.5-4.2,37.5,0,0-14.7,20.8-15.3,35-1.2,27.4,32.5,77.8,106,86.3v.8c-.1,0-1.8,28.4-1.8,28.4,0,0-1.9.2-5,.6-11.4,1.9-39.4,8.4-55.4,28.6-9.7,12.3-18.3,28-25.9,46.2l-1.6-.6c-27.3-.9-53-14.5-53-14.5,0,0-18.5-56,1.1-189.6,19.6-133.6,43.7-182.9,119-196.4,75.3-13.6,103.8,26.8,103.8,26.8,0,0,66.1-12.4,91.5,38.1,25.4,50.5,64,277.9,51.7,290.3-12.3,12.4-57.5,26.9-57.5,26.9l-.5.2h0c-5.2-9.5-10.2-16.6-14.7-20.6-24.3-22-64.3-32.2-79.5-35.4-3.9-.8-6.1-1.2-6.1-1.2l-1.3-35.2-.4-.8c32.4-13.6,50.4-38.6,50.4-38.6,0,0,21.7,5.7,37-6.3,25.4-19.9,11-71.1-22-59.4l-.3-.6c-60.3-18.3-65.2-132-65.2-132,0,0-54.4,77.3-150.7,83.8Z"/>
          <path class="cls-5" d="M706.7,391.8l-4.2,38.9s14,72.4,9.5,85.3l-9.5,11-27.8-62.2,32-73Z"/>
          <polygon class="cls-5" points="712.1 510 751.5 545.6 704.9 516 712.1 510"/>
          <path class="cls-8" d="M831.6,551.9l-.2-.4c-6.6,2.7-14.3,4.7-23,5-4.5.2-8.8,0-12.8-.3v.4c0,0-.3,7.2-.3,7.2,12.9,0,25.4-1.7,36.6-8l-.3-3.9Z"/>
          <path class="cls-18" d="M850,402.7s20.3,9.3,48.3,3.9c-5.8-.2-12.2-.7-19.1-1.7-7-1-13.4-2.3-19.1-3.7-4.6-2.1-8.5-2.2-9.7-.5-.3.4-.5,1-.4,2Z"/>
          <path class="cls-18" d="M772.6,407.4s-20.3,9.3-48.3,3.9c5.8-.2,12.2-.7,19.1-1.7,7-1,13.4-2.3,19.1-3.7,4.6-2.1,8.5-2.2,9.7-.5.3.4.5,1,.4,2Z"/>
          <path class="cls-29" d="M754.1,480.7s-1.6,3.1,0,3.1c0,0,1.6,0,0-3.1Z"/>
          <g>
            <path class="cls-31" d="M734.4,446.3c.1,12.5,10.2,22.7,22.5,22.8,12.3,0,22.2-10,22.1-22.6-.1-12.5-10.2-22.7-22.5-22.8-12.3,0-22.2,10-22.1,22.6Z"/>
            <ellipse class="cls-5" cx="757.3" cy="451.3" rx="16.2" ry="12.9"/>
            <ellipse class="cls-26" cx="762.6" cy="457.7" rx="3.6" ry="3.4"/>
            <path class="cls-28" d="M740.7,462s9.9,2.8,12.8,5.6c0,0,15.3-5.8,17.6-3.7,0,0-6.2,5.8-14.9,5.2,0,0-8.6.5-15.5-7.1Z"/>
            <path class="cls-32" d="M775.2,434h-37.3c.5-1.3,1.3-3.1,3.2-4.9,4.6-4.4,11.5-5.1,13.2-5.3,0,0,14.6-2.2,21,10.1Z"/>
          </g>
          <g>
            <path class="cls-31" d="M889.8,446.5c-.1,12.5-10.2,22.7-22.5,22.8s-22.2-10-22.1-22.6c.1-12.5,10.2-22.7,22.5-22.8,12.3,0,22.2,10,22.1,22.6Z"/>
            <ellipse class="cls-5" cx="866.9" cy="451.5" rx="16.2" ry="12.9"/>
            <ellipse class="cls-26" cx="861.6" cy="457.9" rx="3.6" ry="3.4"/>
            <path class="cls-28" d="M883.5,462.2s-9.9,2.8-12.8,5.6c0,0-15.3-5.8-17.6-3.7,0,0,6.2,5.8,14.9,5.2,0,0,8.6.5,15.5-7.1Z"/>
            <path class="cls-32" d="M849,434.2h37.3c-.5-1.3-1.3-3.1-3.2-4.9-4.6-4.4-11.5-5.1-13.2-5.3,0,0-14.6-2.2-21,10.1Z"/>
          </g>
          <path class="cls-17" d="M871.3,482.8s-1.6,3.1,0,3.1c0,0,1.6,0,0-3.1Z"/>
          <path class="cls-17" d="M881.4,470.4s-1.6,3.1,0,3.1c0,0,1.6,0,0-3.1Z"/>
        </g>
        <rect class="cls-3" x="748.5" y="562.5" width="134.9" height="191.1" rx="59.5" ry="59.5"/>
        <rect class="cls-21" x="746" y="701.7" width="140.4" height="50.4" rx="21.6" ry="21.6"/>
        <rect class="cls-21" x="766" y="739.7" width="52" height="127.2" rx="22.9" ry="22.9"/>
        <rect class="cls-21" x="814.6" y="739.7" width="52" height="127.2" rx="22.9" ry="22.9"/>
        <rect class="cls-3" x="748.3" y="845.6" width="66.3" height="30.9" rx="13.3" ry="13.3"/>
        <rect class="cls-3" x="814.6" y="845.6" width="66.3" height="30.9" rx="13.3" ry="13.3"/>
        <g>
          <path class="cls-26" d="M816.1,571.5s-10.3,12.7-13,11.9c-10.5-3.2-7.7-17.6-7.7-17.6v-.4c1.6-.3,2.7-.4,2.7-.4,0,0,4.6,6.8,18,6.3v.2Z"/>
          <path class="cls-26" d="M817.8,571.3c14.6-1.1,18.3-7.6,18.3-7.6,0,0,1.3.2,3.5.5v.6c3.9,5.1-4.4,17.1-6.5,17.3-2,.3-17-10.6-17-10.6v-.2c.6,0,1.1,0,1.7,0Z"/>
          <path class="cls-15" d="M816.6,572.6s0,1.6.2,4.3c.1,2.7.3,6.6.4,11.3,0,4.7.2,10.1.3,16,0,2.9,0,5.9,0,9,0,3,.2,6.1.3,9.2.5,12.4,1.5,24.8,2.4,34.1.9,9.3,1.7,15.5,1.7,15.5,0,.3-.2.6-.6.6-.4,0-.7-.2-.8-.5,0,0-.9-6.2-2-15.5-1.1-9.3-2.5-21.7-3.3-34.2-.2-3.1-.3-6.3-.4-9.3,0-3.1,0-6.1.1-9,.2-5.8.4-11.3.6-15.9.3-9.3.5-15.6.5-15.6,0-.1.1-.2.3-.2.1,0,.2,0,.2.2Z"/>
          <path class="cls-15" d="M812,611.3c0-1.3-1.3-2.4-3-2.4s-3,1.1-3,2.4,1.3,2.4,3,2.4,3-1.1,3-2.4Z"/>
          <path class="cls-15" d="M812.4,595.6c0-1.3-1.3-2.4-3-2.4s-3,1.1-3,2.4,1.3,2.4,3,2.4,3-1.1,3-2.4Z"/>
          <path class="cls-15" d="M812.2,627.5c-.4-1.3-2-2.1-3.6-1.8-1.6.3-2.6,1.6-2.2,3,.4,1.3,2,2.1,3.6,1.8,1.6-.3,2.6-1.6,2.2-3Z"/>
          <path class="cls-15" d="M813.3,643c0-1.3-1.4-2.4-3.1-2.4-1.7,0-2.9,1.2-2.9,2.5,0,1.3,1.4,2.4,3.1,2.4,1.7,0,2.9-1.2,2.9-2.5Z"/>
        </g>
        <path class="cls-3" d="M891.6,658.6h0c5.3-2.7,7.5-9.3,4.8-14.6l-28.6-57.2c-2.7-5.4-9.3-7.6-14.6-4.9h0c-5.3,2.7-7.5,9.3-4.8,14.6l28.6,57.2c2.7,5.4,9.3,7.6,14.6,4.9h0Z"/>
        <path class="cls-3" d="M737.5,662.5c5.3,2.7,11.9.5,14.6-4.9l28.6-57.2c2.7-5.4.5-11.9-4.8-14.6h0c-5.3-2.7-11.9-.5-14.6,4.9l-28.6,57.2c-2.7,5.4-.5,11.9,4.8,14.6h0Z"/>
        <g>
          <rect class="cls-4" x="763.8" y="640.6" width="99.8" height="66.4"/>
          <polygon class="cls-20" points="763.8 640.6 770.1 646 858.1 646 863.6 640.6 763.8 640.6"/>
          <path class="cls-27" d="M863.6,640.6l-5.6,5.4c-.5,18.8-1,37.6-1.5,56.4,2.3,1.5,4.7,3.1,7,4.6v-66.4Z"/>
          <polygon class="cls-27" points="763.8 640.6 770.1 646 770.1 702.2 763.8 707 763.8 640.6"/>
          <path class="cls-20" d="M770.1,702.2c28.8,0,57.7.1,86.5.2,2.3,1.5,4.7,3.1,7,4.6h-99.8l6.2-4.8Z"/>
          <rect class="cls-14" x="783.3" y="652.2" width="60.8" height="8.5" rx="3.6" ry="3.6"/>
          <ellipse class="cls-27" cx="812.2" cy="664.2" rx="1.6" ry="1.9"/>
          <path class="cls-24" d="M863.6,666c-.2-.2-.3-.5-.5-.8-.4-.7-.9-1.4-1.4-2.2,0-.1-.2-.2-.2-.4-.8-1.3-1.7-2.8-2.6-4.4.9-1.8,1.6-3.3,2-4.3,1.2-3.4.6-7.8-.8-10h0c0,0,0-.1-.1-.2-.3-.5-.9-.9-1.6-1.2-.2,0-.4-.2-.6-.2-.2,0-.4,0-.6-.1,0,0,0,0-.1,0-.2,0-.3,0-.5,0h0c-.3,0-.7,0-1,.1,0,0-.2,0-.2,0,0,0,0,0-.1,0,0,0-.2,0-.2,0,0,0-.2,0-.2,0-.6.3-1.2.7-1.6,1.2,0,0,0,0,0,0h0c-1.5,2.1-2.1,6.6-.9,10.1.3,1,1.1,2.5,2,4.3-.7,1.3-1.4,2.4-2,3.5,0,.2-.2.3-.3.5-.5.7-.9,1.4-1.3,2,0,.1-.2.3-.3.4,0,.1-.2.3-.3.4-.2.4-.5.7-.7,1h0l1.9,6.3h0s0,0,0,0c0,0,0,0,0,0,0,0,0,0,0,0h0c.4-.6,2.9-5.1,5.2-9.6,2.4,4.5,5,9.1,5.3,9.6h0s0,0,0,0c0,0,0,0,0,0h0s1.9-6.3,1.9-6.3ZM853.9,648.4c.4-.9,1.2-1.6,2.5-1.6s2.1.7,2.5,1.6c-.5,1.1-1.1,2.5-2,4.3-.2.4-.4.8-.6,1.1-.2-.4-.4-.8-.6-1.1-.9-1.8-1.5-3.2-2-4.3Z"/>
          <g>
            <path class="cls-3" d="M775.6,646.9c0-2.2-.4-3.4-.7-3.9-.7-1-2.1-1.6-3.4-1.6s-2.7.6-3.4,1.6c-.3.5-.6,1.7-.7,3.9,0,2.2,1.1,3.7,1.1,3.7,0,0-.5-4.5,3-4.5s3,4.5,3,4.5c0,0,1.2-1.5,1.1-3.7Z"/>
            <g>
              <path class="cls-3" d="M767.4,646.9c0-2.2.4-3.4.7-3.9.7-1,2.1-1.6,3.4-1.6s2.7.6,3.4,1.6c.3.5.6,1.7.7,3.9,0,0,0,.1,0,.2,0,0,0-.2,0-.2,0-2.2-.4-3.4-.7-3.9-.7-1-2.1-1.6-3.4-1.6s-2.7.6-3.4,1.6c-.3.5-.6,1.7-.7,3.9,0,0,0,.2,0,.2,0,0,0-.1,0-.2Z"/>
              <path class="cls-3" d="M774.5,650.1c0,.3,0,.5,0,.5,0,0,0,0,0,0,0,0,0-.3,0-.5Z"/>
              <path class="cls-3" d="M768.5,650.6s0,0,0,0c0,0,0-.2,0-.5,0,.2,0,.4,0,.5Z"/>
            </g>
            <path class="cls-13" d="M772.1,651.9c-3,6.1-5.9,10.7-7.7,13.3l1.9,6.3c.4-.7,8.1-14.4,9.6-18.4,1.3-3.5.6-8.1-.9-10.2.2.5,1,1.2-2.8,9Z"/>
            <path class="cls-3" d="M764.4,665.3c1.8-2.6,4.7-7.3,7.7-13.3,3.4-6.9,3.2-8.2,2.9-8.8,0,0,0-.1-.1-.2.2.5,1,1.2-2.8,9-3,6.1-5.9,10.7-7.7,13.3l1.9,6.3s0,0,0,0l-1.9-6.2Z"/>
            <path class="cls-3" d="M778.6,665.3c-1.8-2.6-4.7-7.3-7.7-13.3-3.8-7.7-3-8.4-2.8-9-1.5,2.1-2.2,6.7-.9,10.2,1.4,3.9,9.2,17.7,9.6,18.4l1.9-6.3Z"/>
            <path class="cls-3" d="M770.9,651.9c-3.8-7.7-3-8.4-2.8-9,0,0,0,0,0,0-.2.5-1,1.3,2.8,8.9,3,6.1,5.9,10.7,7.7,13.3l-1.9,6.2s0,0,0,0l1.9-6.3c-1.8-2.6-4.7-7.3-7.7-13.3Z"/>
          </g>
        </g>
        <g>
          <path class="cls-1" d="M935.9,614.1c3.9-4.9,11.1-15.2,13.6-17.9,2.6-2.6,6.8-5.1,8.8-6.2,2-1.2,6.1-2.2,8-2.7,1.9-.5,2.7-.1,2.9.9.3,1-.3,2.2-1.6,3.2,0,0,2.4-.3,3.6-.4,1.2-.1,2.2.5,1.9,2-.3,1.4-2.3,3.6-4.5,4.4,0,0,4.9-.3,6.2-.3,1.3,0,1.7.4,1.9,1.4.2,1,0,2.6-1.6,3.7-1.6,1.1-5.3,1.8-5.3,1.8,0,0,6.2.4,7.5.6,1.3.2,1.6.9,1.1,1.8-.4,1-1,2.2-3.2,3-2.2.8-3.9.2-4.7.4-.8.2-3.4,1.7-4.8,2.5-3.4,4.2-6.1,4.6-8,6-1.9,1.3-4.3,2.5-6,4.8-2.1,2.9-8.5,4.8-13.8,1.4-5.2-3.4-5.2-6.8-2.3-10.6Z"/>
          <path class="cls-9" d="M971.2,595.2c0,.2-.1.3-.3.3,0,0-.9,0-2.4,0-.3,0-.7,0-1.1,0-.4,0-.8,0-1.2,0-.3,0-.8.2-1.2.3-.4.1-.9.2-1.3.3-1.8.4-3.6.8-4.9,1.1-1.3.3-2.3.4-2.3.4-.2,0-.3,0-.4-.2,0-.1,0-.3.1-.4,0,0,.8-.3,2.2-.7.7-.2,1.4-.4,2.3-.7.8-.2,1.7-.4,2.6-.6.5,0,.9-.2,1.3-.3.5,0,.8-.2,1.4-.2.5,0,1,0,1.4,0,.4,0,.8,0,1.2.1.7,0,1.3.2,1.7.2.4,0,.6.1.6.1.2,0,.3.1.3.3ZM970.3,600.7s-.2,0-.5,0c-.3,0-.7,0-1.3,0-.3,0-.6,0-.9,0-.3,0-.7,0-1,0-.6.1-1.3.2-2,.3-1.3.2-2.6.5-3.6.8,0,0-.3,0-.3,0-.1,0-.2,0-.3,0-.2,0-.4,0-.5,0-.2,0-.2,0-.3,0,0,0-.1,0-.1,0h0c-.2,0-.3.2-.3.3,0,.1.1.2.3.2,0,0,0,0,.1,0,0,0,.3,0,.4,0,.2,0,.3,0,.6,0,.1,0,.2,0,.3,0,.3,0,.3,0,.4,0,1-.1,2.4-.3,3.7-.6.7-.1,1.3-.3,1.9-.4.4,0,.6,0,.9-.1.3,0,.5,0,.8,0,.5,0,.9-.1,1.2-.1.3,0,.5,0,.5,0,.2,0,.3-.2.3-.3,0-.1-.2-.2-.3-.2ZM970,607.2s-.4,0-1,0c-.3,0-.7,0-1,0-.4,0-.8.1-1.2.2-.8.2-1.6.4-2.2.5-.6.2-.9.3-.9.3-.2,0-.2.2-.1.4,0,0,.2.1.3.1h0s.4,0,1,0c.6,0,1.4-.1,2.2-.3.4,0,.8-.2,1.1-.3.4,0,.7-.2,1-.2.6-.2,1-.3,1-.3.2,0,.2-.2.2-.4,0,0-.2-.2-.3-.2Z"/>
        </g>
        <path class="cls-3" d="M954,613.8h0c-2.9-5.2-9.6-7.1-15-4.2l-56.6,30.6c-5.3,2.9-7.3,9.5-4.4,14.6h0c2.9,5.2,9.6,7.1,15,4.2l56.6-30.6c5.3-2.9,7.3-9.5,4.4-14.6h0Z"/>
        <g>
          <path class="cls-1" d="M804.2,661.1c6.3.8,18.9,1.5,22.5,2.3,3.6.8,7.9,3.1,10,4.2,2,1.1,5.1,4,6.5,5.4,1.4,1.3,1.5,2.2.8,2.9-.7.7-2,.9-3.6.3,0,0,1.5,1.9,2.2,2.9.7,1,.7,2.1-.7,2.7-1.4.5-4.3,0-6.1-1.6,0,0,2.8,4,3.4,5.1.6,1.1.6,1.7-.2,2.4-.8.7-2.3,1.4-4.1.6s-4.4-3.6-4.4-3.6c0,0,2.9,5.5,3.4,6.7.5,1.2,0,1.8-1,1.9-1.1.1-2.4.3-4.3-1.1-1.8-1.4-2.2-3.2-2.8-3.7-.6-.5-3.3-2-4.7-2.8-5.4-.7-7.1-2.7-9.3-3.7-2.1-.9-4.4-2.4-7.3-2.6-3.6-.2-8.6-4.7-8.4-10.9.2-6.2,3.2-7.9,7.9-7.4Z"/>
          <path class="cls-9" d="M838.8,681.2c-.1,0-.3,0-.4-.1,0,0-.5-.8-1.2-2-.2-.3-.4-.6-.6-1-.2-.4-.4-.6-.6-1-.2-.3-.6-.6-.9-.9-.3-.3-.6-.6-1-1-1.3-1.3-2.5-2.6-3.5-3.6-.9-1-1.5-1.7-1.5-1.7-.1-.1-.1-.3,0-.4,0-.1.2-.2.4,0,0,0,.7.6,1.7,1.5.5.5,1.1,1,1.7,1.6.6.6,1.3,1.2,1.9,1.9.3.3.6.7.9,1,.3.4.6.6.9,1,.2.4.5.8.7,1.2.2.4.4.7.5,1,.3.6.5,1.2.7,1.6.2.4.2.6.2.6,0,.2,0,.3,0,.4ZM833.6,683.3s0-.2-.2-.4c-.1-.3-.3-.7-.6-1.1-.1-.2-.3-.5-.5-.7-.2-.2-.4-.6-.5-.8-.4-.5-.9-1-1.3-1.5-.9-1-1.8-2-2.6-2.7,0,0-.2-.2-.2-.2,0,0-.1-.2-.2-.3-.1-.2-.2-.3-.3-.4-.1-.1-.1-.2-.2-.2,0,0,0,0,0,0h0c-.1-.2-.3-.2-.4-.1,0,0-.1.2,0,.4,0,0,0,0,0,.1,0,0,0,.3.2.4,0,.1.2.3.3.5,0,0,.1.2.2.3.1.2.2.2.3.3.6.8,1.5,1.8,2.4,2.8.5.5.9,1,1.4,1.4.2.3.4.5.6.7.2.2.3.4.5.6.3.4.6.7.7,1,.2.2.3.4.3.4.1.1.3.2.4,0,0,0,.1-.3,0-.4ZM827.7,686.4s-.2-.4-.5-.9c-.2-.2-.4-.6-.6-.9-.3-.3-.5-.6-.8-.9-.5-.6-1.1-1.2-1.6-1.6-.4-.4-.8-.6-.8-.6-.1,0-.3,0-.4.1,0,.1,0,.2,0,.3h0s.2.4.6.9c.4.5.8,1.1,1.4,1.7.3.3.5.6.8.8.3.3.5.5.7.7.4.4.7.7.7.7.1.1.3,0,.4,0,0,0,0-.2,0-.3Z"/>
        </g>
        <path class="cls-3" d="M816,670.8c1.4-5.8-2.3-11.6-8.2-13l-62.8-14.5c-5.9-1.4-11.9,2.2-13.3,8h0c-1.4,5.8,2.3,11.6,8.2,13l62.8,14.5c5.9,1.4,11.9-2.2,13.3-8h0Z"/>
        <g>
          <ellipse class="cls-21" cx="1078.1" cy="618.6" rx="4.7" ry="4.6"/>
          <ellipse class="cls-21" cx="1095.3" cy="603.2" rx="5.5" ry="5.4"/>
          <ellipse class="cls-21" cx="1096.4" cy="622.9" rx="6.6" ry="2.7"/>
          <ellipse class="cls-21" cx="1107.3" cy="617.1" rx="4.3" ry="1.5"/>
          <ellipse class="cls-21" cx="1116.3" cy="599.3" rx="4.7" ry="4.6"/>
          <ellipse class="cls-21" cx="1078.1" cy="628.7" rx="3.1" ry="3.1"/>
          <ellipse class="cls-21" cx="989.2" cy="605.9" rx="4.7" ry="3.5"/>
          <ellipse class="cls-21" cx="999.4" cy="599" rx="5.5" ry="2.7"/>
          <ellipse class="cls-21" cx="1005.6" cy="586.2" rx="3.9" ry="1.5"/>
          <ellipse class="cls-21" cx="1014.6" cy="614.4" rx="2.7" ry="2.7"/>
          <ellipse class="cls-21" cx="1022" cy="601.7" rx="2.3" ry="2.3"/>
          <ellipse class="cls-21" cx="1026.7" cy="593.9" rx="2.3" ry=".8"/>
          <ellipse class="cls-21" cx="1038.4" cy="587.8" rx="3.1" ry="3.1"/>
          <ellipse class="cls-21" cx="1027.8" cy="636" rx="1.2" ry="4.2"/>
          <ellipse class="cls-21" cx="1031.3" cy="657.2" rx="2.3" ry=".8"/>
          <ellipse class="cls-21" cx="1058.2" cy="661.9" rx="1.9" ry="3.9"/>
          <ellipse class="cls-21" cx="1082.8" cy="677.3" rx="1.6" ry="3.9"/>
          <ellipse class="cls-21" cx="1114" cy="671.5" rx="7" ry="3.5"/>
          <ellipse class="cls-21" cx="1135.4" cy="644.5" rx="2.7" ry="2.7"/>
          <ellipse class="cls-21" cx="1140.1" cy="622.1" rx="1.9" ry="1.9"/>
          <ellipse class="cls-21" cx="1140.1" cy="597.4" rx="1.9" ry="1.9"/>
          <ellipse class="cls-21" cx="1132.3" cy="683.9" rx=".4" ry="5"/>
          <ellipse class="cls-21" cx="1099.6" cy="707.4" rx="3.5" ry=".8"/>
          <path class="cls-21" d="M1057.8,712.8h5.5-5.5Z"/>
          <ellipse class="cls-21" cx="1050.8" cy="692.8" rx="2.3" ry=".8"/>
          <ellipse class="cls-21" cx="1036.8" cy="689.7" rx="1.6" ry=".8"/>
          <ellipse class="cls-21" cx="1044.6" cy="670.8" rx="2.3" ry="1.9"/>
          <ellipse class="cls-21" cx="1078.9" cy="711.7" rx="3.9" ry="1.2"/>
          <ellipse class="cls-21" cx="1115.9" cy="735.6" rx="5.1" ry="4.2"/>
          <ellipse class="cls-21" cx="1062.5" cy="757.2" rx="4.7" ry="1.2"/>
          <path class="cls-21" d="M1033.7,739.9h7.8-7.8Z"/>
          <path class="cls-21" d="M1073.4,726.7h5.5-5.5Z"/>
          <ellipse class="cls-21" cx="1098.4" cy="766.1" rx="2.3" ry="3.9"/>
          <path class="cls-21" d="M1114,766.1h3.9-3.9Z"/>
          <ellipse class="cls-21" cx="1140.1" cy="751.4" rx="1.9" ry="4.6"/>
          <ellipse class="cls-21" cx="1131.9" cy="726" rx=".8" ry=".8"/>
          <ellipse class="cls-21" cx="1163.1" cy="715.9" rx="1.6" ry="4.6"/>
        </g>
      </g>
      <path class="cls-22" d="M1063.2,311.2l-18.9,23.7,33.6-5.6,352.1,1.1c1.4-70.5,2.9-140.9,4.3-211.4h-369.1c-.7,64-1.4,128.1-2,192.1Z"/>
      <g>
        <path class="cls-25" d="M1095.4,180.8c0,0-.2,0-.3,0-1.2-.4-2.4-.5-3.5-.5s-1.2,0-1.9.2-1.4.3-2.2.5c0,.5,0,.9,0,1.1,0,1,0,2.4-.2,4.2l4.7-.5c1.4-.1,2.2-.2,2.5-.2s.6.1.8.3c.2.2.3.5.3.8,0,.7-.3,1-1,1.1l-2.5.2-4.9.5c0,.5,0,1,0,1.5,0,.5,0,.9,0,1.3,0,1.6.1,2.6.3,2.9.2.2.7.3,1.7.3s1.1,0,2,0c.9,0,1.5,0,2,0s.4,0,.6,0,.5,0,.6,0c.8,0,1.1.4,1.1,1.1s-.3,1-.9,1.1c-.7.1-2.1.2-4.3.2s-3.6-.3-4.2-.9c-.7-.7-1-2.2-1-4.5s0-1,0-1.5c0-.6,0-1.2,0-1.8,0-.2-.1-.3-.1-.5s0-.5.2-.7c.1-2.1.2-3.7.2-4.7s0-.7-.1-1.2c0-.5-.1-.9-.1-1.2,0-.9.4-1.3,1.1-1.3s.6.1.8.3c.9-.2,1.7-.4,2.4-.5.8-.1,1.5-.2,2.1-.2,1.7,0,3.1.2,4.1.6.5.2.7.6.7,1.1s0,.6-.3.8c-.2.2-.5.4-.8.4Z"/>
        <path class="cls-25" d="M1105.8,187.1c-.4,0-.7-.1-.8-.4-.1-.2-.2-.6-.3-1.2-.5.1-1.4.4-2.5.8-1.1.5-1.7,1-1.7,1.7.2,0,.4.1.6.2,1.6.3,2.8.7,3.6,1.2,1.2.8,1.7,1.9,1.7,3.3s-.5,2.1-1.5,2.7c-.8.5-1.9.7-3.2.7s-1.8-.2-2.7-.5c-1.1-.4-1.6-1-1.6-1.7s.1-.6.3-.8c.2-.2.5-.3.8-.3s.5.2.9.5c.2.2.6.3,1.1.4.5,0,.9.1,1.2.1.6,0,1.1,0,1.6-.2.7-.2,1-.6,1-1,0-1-.7-1.7-2-2l-1.1-.3c-.9-.2-1.6-.5-2-.7-.6-.4-.9-1-.9-1.9,0-1.5.7-2.6,2.1-3.3.4-.2,1.1-.4,2-.7.9-.3,1.6-.5,2-.7.3-.1.6-.2.9-.2s.6.1.8.3c.2.2.3.5.3.8s0,.5.1.9c0,.4.1.7.1.9,0,.3,0,.6-.3.8s-.4.3-.8.3Z"/>
        <path class="cls-25" d="M1116.4,186.2c-.1,0-.3,0-.5,0-.2,0-.4,0-.5,0s-.6,0-1.4.2l.2,6.5v.5s0,.6,0,.6c0,1.6-.3,2.4-1.1,2.4s-.5,0-.7-.3c-.2-.2-.3-.4-.3-.7s0-.7,0-1.3c0-.6,0-1,0-1.3l-.2-6.4c-.5,0-1.3,0-2.4-.2-.6,0-.9-.5-.9-1.1s0-.6.3-.8.4-.3.7-.3l2.2.2c0-.4,0-.9,0-1.5,0-.6,0-1.1,0-1.4s.1-.6.3-.8c.2-.2.5-.3.8-.3.6,0,1,.5,1.1,1.6,0,.3,0,.6,0,1v.6s0,.7,0,.7c.9-.1,1.4-.2,1.5-.2.7,0,1.2,0,1.4.1.4.1.6.5.6,1s0,.6-.3.8c-.2.2-.4.3-.8.3Z"/>
        <path class="cls-25" d="M1124.5,196.1c-1.6,0-2.9-.4-3.9-1.2-1.1-.9-1.6-2.2-1.6-3.9s.4-3.5,1.3-4.8c1-1.4,2.3-2.1,3.9-2.1s2.1.2,2.9.6c.9.5,1.4,1.3,1.4,2.3s-.4,1.4-1.2,2c-.4.3-1.1.7-2.3,1.2l-4.1,2c.4.6.9,1.1,1.5,1.4.6.3,1.3.5,2.1.5s1.1,0,1.7-.3c.8-.2,1.4-.6,1.6-1,.2-.4.5-.6.8-.6s.5,0,.7.3c.2.2.3.4.3.7,0,.8-.6,1.5-1.9,2.1-1.1.5-2.1.7-3.2.7ZM1124.2,186.1c-.9,0-1.6.3-2.2,1-.6.7-1,1.7-1.3,3.1l3.3-1.6c1.3-.6,2.2-1.2,2.7-1.7-.6-.6-1.5-.9-2.6-.9Z"/>
        <path class="cls-25" d="M1143,196.1c-1.6,0-2.9-.4-3.9-1.2-1.1-.9-1.6-2.2-1.6-3.9s.4-3.5,1.3-4.8c1-1.4,2.3-2.1,3.9-2.1s2.1.2,2.9.6c.9.5,1.4,1.3,1.4,2.3s-.4,1.4-1.2,2c-.4.3-1.1.7-2.3,1.2l-4.1,2c.4.6.9,1.1,1.5,1.4.6.3,1.3.5,2.1.5s1.1,0,1.7-.3c.8-.2,1.4-.6,1.6-1,.2-.4.5-.6.8-.6s.5,0,.7.3c.2.2.3.4.3.7,0,.8-.6,1.5-1.9,2.1-1.1.5-2.1.7-3.2.7ZM1142.7,186.1c-.9,0-1.6.3-2.2,1-.6.7-1,1.7-1.3,3.1l3.3-1.6c1.3-.6,2.2-1.2,2.7-1.7-.6-.6-1.5-.9-2.6-.9Z"/>
        <path class="cls-25" d="M1158.2,187.5c0,.9-.4,1.4-1.1,1.4s-.9-.4-.9-1.1,0-.4,0-.8v-.9c-1.2.1-2.1.5-2.7,1-.6.5-1.2,1.2-1.6,2.2v6c0,.7-.3,1.1-1,1.1s-.9-.4-.9-1.1v-7.7c0-.2,0-.6,0-1.1,0-.5,0-.8,0-1.1,0-.7.3-1.1.9-1.1s1,.6,1.1,1.8c1.4-1.4,2.9-2,4.5-2s1,.2,1.3.7.4,1.1.4,2,0,.6,0,.8Z"/>
        <path class="cls-25" d="M1168.7,196.3c-.1,0-.4-.2-.7-.5-.3-.3-.6-.6-.7-.8-.7.4-1.3.7-1.8.9-.5.2-1,.3-1.3.3-1.7,0-2.9-.5-3.6-1.5-.7-.9-1.1-2.3-1.1-4.2s.6-3.3,1.8-4.6c1.2-1.3,2.6-1.9,4.2-1.9s1.3.2,2.1.5c1,.4,1.4.9,1.4,1.5s0,.4-.2.5c0,.3-.1.7-.2,1.4,0,.6,0,1.5,0,2.5,0,.9,0,1.6.2,2.2,0,.3.3,1,.7,1.9,0,.1.1.3.2.6v.2c0,.3,0,.5-.2.7-.2.2-.4.3-.7.3ZM1166.5,188.7c0-.3,0-.7,0-1,0-.4,0-.8.2-1.2-.3-.1-.5-.2-.7-.3s-.3,0-.5,0c-1.1,0-2,.5-2.8,1.4-.8.9-1.2,2-1.2,3.2s.2,2.1.6,2.7c.4.6,1,.9,1.9.9s1.3-.1,1.7-.4c.3-.1.6-.4,1.1-.8-.2-1.9-.3-3.4-.3-4.4Z"/>
        <path class="cls-25" d="M1185.2,186.2c-.1,0-.3,0-.5,0-.2,0-.4,0-.5,0s-.6,0-1.4.2l.2,6.5v.5s0,.6,0,.6c0,1.6-.3,2.4-1.1,2.4s-.5,0-.7-.3c-.2-.2-.3-.4-.3-.7s0-.7,0-1.3c0-.6,0-1,0-1.3l-.2-6.4c-.5,0-1.3,0-2.4-.2-.6,0-.9-.5-.9-1.1s0-.6.3-.8.4-.3.7-.3l2.2.2c0-.4,0-.9,0-1.5,0-.6,0-1.1,0-1.4s.1-.6.3-.8c.2-.2.5-.3.8-.3.6,0,1,.5,1.1,1.6,0,.3,0,.6,0,1v.6s0,.7,0,.7c.9-.1,1.4-.2,1.5-.2.7,0,1.2,0,1.4.1.4.1.6.5.6,1s0,.6-.3.8c-.2.2-.4.3-.8.3Z"/>
        <path class="cls-25" d="M1197,189.2c0,.5,0,1.3,0,2.4,0,1.1,0,1.8,0,2.4s0,.4,0,.7,0,.6,0,.7c0,.3-.1.6-.3.8s-.5.3-.8.3c-.5,0-.9-.3-1-1-.9.5-1.9.7-3.1.7s-1.7-.2-2.3-.6c-.7-.5-1.1-1.2-1.2-2.1-.3-1.9-.4-3.7-.4-5.2s.1-2.2.3-3.4c0-.6.4-1,1-1s.6.1.8.3.3.5.3.8,0,.9-.2,1.6-.2,1.3-.2,1.7c0,1.2,0,2.3.1,3.1s.2,1.6.4,2.1c.2.1.5.2.7.3s.5.1.7.1c1,0,2-.2,3-.5v-2.2s0-2.1,0-2.1c0-1.6,0-3,.2-4.1,0-.7.4-1,1-1s.6.1.8.3c.2.2.3.5.3.8l-.2,4.2Z"/>
        <path class="cls-25" d="M1208.9,186.9l-.2,5.5c0,.6,0,1.4,0,2.6,0,.7-.4,1.1-1,1.1s-1-.4-1-1.1,0-2.2.1-4c0-1.8.1-3.1.1-4s0-2.5,0-4c0-1.5,0-2.8,0-4s.3-1.1,1-1.1,1.1.4,1.1,1.1c0,1.2,0,2.5,0,4,0,1.5,0,2.8,0,4Z"/>
        <path class="cls-25" d="M1220.9,189.2c0,.5,0,1.3,0,2.4,0,1.1,0,1.8,0,2.4s0,.4,0,.7,0,.6,0,.7c0,.3-.1.6-.3.8-.2.2-.5.3-.8.3-.5,0-.9-.3-1-1-.9.5-1.9.7-3.1.7s-1.7-.2-2.3-.6c-.7-.5-1.1-1.2-1.2-2.1-.3-1.9-.4-3.7-.4-5.2s.1-2.2.3-3.4c0-.6.4-1,1-1s.6.1.8.3.3.5.3.8,0,.9-.2,1.6c-.1.7-.2,1.3-.2,1.7,0,1.2,0,2.3.1,3.1s.2,1.6.4,2.1c.2.1.5.2.7.3s.5.1.7.1c1,0,2-.2,3-.5v-2.2s0-2.1,0-2.1c0-1.6,0-3,.2-4.1,0-.7.4-1,1-1s.6.1.8.3c.2.2.3.5.3.8l-.2,4.2Z"/>
        <path class="cls-25" d="M1232.3,190.8l-.2,3.7c0,1.5-.2,2.7-.4,3.6-.3,1.2-.8,2.1-1.5,2.6-.9.7-2.1,1-3.7,1s-1.7,0-2.4-.2c-.9-.2-1.3-.6-1.3-1.1s.3-1,.9-1,.7,0,1.3.2c.6.1,1.3.2,2,.2,1.4,0,2.3-.7,2.8-2,.3-.9.5-2.3.5-4.1-.4.7-.8,1.3-1.4,1.7s-1.1.6-1.8.6c-1.3,0-2.3-.5-3.1-1.4-.8-.9-1.2-2.1-1.2-3.5s.5-3.6,1.6-4.8c1.1-1.2,2.7-1.9,4.6-1.9s1.2,0,1.7.3.8.4,1,.8c.8,0,1.1.5,1.1,1.3s0,1.2-.2,2.1c-.2,1-.3,1.7-.3,2.1ZM1228.9,186.1c-1.3,0-2.4.5-3.1,1.4-.7.9-1,2-1,3.3s.2,1.9.6,2.4,1,.8,1.8.8,1.4-.4,2.1-1.3c.6-.8,1-1.5,1-2.3.1-.8.3-2,.5-3.7-.3-.2-.6-.4-.9-.5s-.6-.2-.9-.2Z"/>
        <path class="cls-25" d="M1243.4,196.3c-.1,0-.4-.2-.7-.5-.3-.3-.6-.6-.7-.8-.7.4-1.3.7-1.8.9-.5.2-1,.3-1.3.3-1.7,0-2.9-.5-3.6-1.5-.7-.9-1.1-2.3-1.1-4.2s.6-3.3,1.8-4.6c1.2-1.3,2.6-1.9,4.2-1.9s1.3.2,2.1.5c1,.4,1.4.9,1.4,1.5s0,.4-.2.5c0,.3-.1.7-.2,1.4,0,.6,0,1.5,0,2.5,0,.9,0,1.6.2,2.2,0,.3.3,1,.7,1.9,0,.1.1.3.2.6v.2c0,.3,0,.5-.2.7-.2.2-.4.3-.7.3ZM1241.2,188.7c0-.3,0-.7,0-1,0-.4,0-.8.2-1.2-.3-.1-.5-.2-.7-.3s-.3,0-.5,0c-1.1,0-2,.5-2.8,1.4-.8.9-1.2,2-1.2,3.2s.2,2.1.6,2.7c.4.6,1,.9,1.9.9s1.3-.1,1.7-.4c.3-.1.6-.4,1.1-.8-.2-1.9-.3-3.4-.3-4.4Z"/>
        <path class="cls-25" d="M1254.5,187.5c0,.9-.4,1.4-1.1,1.4s-.9-.4-.9-1.1,0-.4,0-.8v-.9c-1.2.1-2.1.5-2.7,1-.6.5-1.2,1.2-1.6,2.2v6c0,.7-.3,1.1-1,1.1s-.9-.4-.9-1.1v-7.7c0-.2,0-.6,0-1.1,0-.5,0-.8,0-1.1,0-.7.3-1.1.9-1.1s1,.6,1.1,1.8c1.4-1.4,2.9-2,4.5-2s1,.2,1.3.7.4,1.1.4,2,0,.6,0,.8Z"/>
        <path class="cls-25" d="M1270.4,180.1c-1.7,0-2.7,1.2-2.9,3.7v.7c1.2,0,2-.1,2.3-.1,1.1,0,1.7.4,1.7,1.1s-.3.9-.8,1c-.2,0-.5,0-.8,0-.3,0-1.1,0-2.5.1v2.5c0,.5,0,1.1,0,2s0,1.6,0,2c0,1.4,0,2.5-.2,3.3-.1.6-.5.9-1,.9s-.5,0-.7-.3c-.2-.2-.3-.4-.3-.7s0-.1,0-.2c.1-1,.2-2,.2-3.1v-3s0-3.2,0-3.2c-.9,0-1.4.1-1.7.1-.7,0-1.1-.4-1.1-1.1s.6-1.1,1.9-1.1h1c0-.4,0-1,.2-1.7.2-1.6.6-2.8,1.2-3.6.7-.9,1.9-1.4,3.5-1.4s1.5.4,1.5,1.1-.5,1.1-1.4,1.1Z"/>
        <path class="cls-25" d="M1282.6,196.3c-.1,0-.4-.2-.7-.5-.3-.3-.6-.6-.7-.8-.7.4-1.3.7-1.8.9-.5.2-1,.3-1.3.3-1.7,0-2.9-.5-3.6-1.5-.7-.9-1.1-2.3-1.1-4.2s.6-3.3,1.8-4.6c1.2-1.3,2.6-1.9,4.2-1.9s1.3.2,2.1.5c1,.4,1.4.9,1.4,1.5s0,.4-.2.5c0,.3-.1.7-.2,1.4,0,.6,0,1.5,0,2.5,0,.9,0,1.6.2,2.2,0,.3.3,1,.7,1.9,0,.1.1.3.2.6v.2c0,.3,0,.5-.2.7s-.4.3-.7.3ZM1280.4,188.7c0-.3,0-.7,0-1,0-.4,0-.8.2-1.2-.3-.1-.5-.2-.7-.3s-.3,0-.5,0c-1.1,0-2,.5-2.8,1.4-.8.9-1.2,2-1.2,3.2s.2,2.1.6,2.7c.4.6,1,.9,1.9.9s1.3-.1,1.7-.4c.3-.1.6-.4,1.1-.8-.2-1.9-.3-3.4-.3-4.4Z"/>
        <path class="cls-25" d="M1290.4,195c0,.7-.3,1-1,1s-.9-.3-1.1-.9l-1.6-4.5-1.9-5.1c0-.2-.1-.4-.1-.5,0-.3.1-.6.3-.8.2-.2.5-.3.8-.3.4,0,.7.2.9.7l2.7,7.7c.5-1.2,1.2-2.9,2-5.1.2-.6.5-1.4.9-2.5.2-.5.5-.7.9-.7s.5.1.8.3c.2.2.3.5.3.8s-.6,1.8-1.8,4.7l-2.2,5.2Z"/>
        <path class="cls-25" d="M1300.1,196.2c-1.2,0-2.2-.5-3.1-1.4-1-1-1.5-2.4-1.5-4.1,0-1.7.4-3.1,1.2-4.4,1-1.5,2.4-2.2,4.2-2.2s2.5.7,3.2,2c.6,1.1.9,2.4.8,3.9,0,1.6-.4,3-1.2,4.2-.9,1.3-2.1,2-3.6,2ZM1300.7,186.4c-1,0-1.9.5-2.4,1.5-.5.8-.7,1.8-.7,2.8s.3,1.9.8,2.5c.5.5,1,.7,1.6.7s1.4-.3,1.9-.8c.6-.6.9-1.4,1-2.5,0-2.8-.6-4.3-2.2-4.3Z"/>
        <path class="cls-25" d="M1315.8,187.5c0,.9-.4,1.4-1.1,1.4s-.9-.4-.9-1.1,0-.4,0-.8v-.9c-1.2.1-2.1.5-2.7,1-.6.5-1.2,1.2-1.6,2.2v6c0,.7-.3,1.1-1,1.1s-.9-.4-.9-1.1v-7.7c0-.2,0-.6,0-1.1,0-.5,0-.8,0-1.1,0-.7.3-1.1.9-1.1s1,.6,1.1,1.8c1.4-1.4,2.9-2,4.5-2s1,.2,1.3.7c.3.4.4,1.1.4,2s0,.6,0,.8Z"/>
        <path class="cls-25" d="M1320.5,190.6c0,.4,0,1.1,0,2,0,.9,0,1.5,0,2s0,.6-.3.8-.4.3-.8.3-.6-.1-.8-.3c-.2-.2-.3-.5-.3-.8s0-1.1,0-2,0-1.5,0-2c0-.7,0-1.6.1-2.6s.1-1.9.1-2.6,0-.6.3-.8.4-.3.8-.3.6.1.8.3c.2.2.3.5.3.8,0,.7,0,1.6-.1,2.6s-.1,1.9-.1,2.6ZM1320,181.7c-.3,0-.6-.1-.9-.4-.2-.2-.4-.6-.4-.9s.1-.7.4-.9c.2-.2.5-.4.9-.4s.6.1.9.4c.2.2.4.6.4.9s-.1.7-.4.9c-.2.2-.5.4-.9.4Z"/>
        <path class="cls-25" d="M1331.2,186.2c-.1,0-.3,0-.5,0-.2,0-.4,0-.5,0s-.6,0-1.4.2l.2,6.5v.5s0,.6,0,.6c0,1.6-.3,2.4-1.1,2.4s-.5,0-.7-.3c-.2-.2-.3-.4-.3-.7s0-.7,0-1.3,0-1,0-1.3l-.2-6.4c-.5,0-1.3,0-2.4-.2-.6,0-.9-.5-.9-1.1s0-.6.3-.8c.2-.2.4-.3.7-.3l2.2.2c0-.4,0-.9,0-1.5,0-.6,0-1.1,0-1.4s.1-.6.3-.8c.2-.2.5-.3.8-.3.6,0,1,.5,1.1,1.6,0,.3,0,.6,0,1v.6s0,.7,0,.7c.9-.1,1.4-.2,1.5-.2.7,0,1.2,0,1.4.1.4.1.6.5.6,1s0,.6-.3.8c-.2.2-.4.3-.8.3Z"/>
        <path class="cls-25" d="M1338.4,196.2c-1.2,0-2.2-.5-3.1-1.4-1-1-1.5-2.4-1.5-4.1,0-1.7.4-3.1,1.2-4.4,1-1.5,2.4-2.2,4.2-2.2s2.5.7,3.2,2c.6,1.1.9,2.4.8,3.9,0,1.6-.4,3-1.2,4.2-.9,1.3-2.1,2-3.6,2ZM1339,186.4c-1,0-1.9.5-2.4,1.5-.5.8-.7,1.8-.7,2.8s.3,1.9.8,2.5c.5.5,1,.7,1.6.7s1.4-.3,1.9-.8c.6-.6.9-1.4,1-2.5,0-2.8-.6-4.3-2.2-4.3Z"/>
        <path class="cls-25" d="M1356.9,196c-.7,0-1.5-.1-2.3-.4v5.3c0,.3-.1.6-.3.8-.2.2-.4.3-.8.3s-.6-.1-.8-.3c-.2-.2-.3-.5-.3-.8v-4.4s0-4.4,0-4.4c0-1.6,0-3.1-.2-4.4l-.2-2.2c0-.5,0-1,.3-1.3.2-.4.5-.6.9-.6s.5.1.7.3c.2.2.3.4.3.7s0,.2,0,.4c0,.2,0,.4,0,.6.6-.4,1.2-.8,1.8-1s1.1-.3,1.6-.3c1.5,0,2.5.7,3.2,2,.5,1.1.8,2.5.8,4.2s-.4,2.9-1.2,3.9c-.9,1.1-2,1.6-3.5,1.6ZM1357.6,186.4c-.7,0-1.2.2-1.8.5-.4.2-.9.6-1.4,1.2,0,1.7.1,3.4.1,5.3.8.3,1.5.5,2.3.5s1.6-.3,2-1c.4-.6.6-1.4.6-2.3s-.2-2.3-.5-3c-.3-.7-.8-1-1.4-1Z"/>
        <path class="cls-25" d="M1372.3,196.3c-.1,0-.4-.2-.7-.5-.3-.3-.6-.6-.7-.8-.7.4-1.3.7-1.8.9-.5.2-1,.3-1.3.3-1.7,0-2.9-.5-3.6-1.5-.7-.9-1.1-2.3-1.1-4.2s.6-3.3,1.8-4.6c1.2-1.3,2.6-1.9,4.2-1.9s1.3.2,2.1.5c1,.4,1.4.9,1.4,1.5s0,.4-.2.5c0,.3-.1.7-.2,1.4,0,.6,0,1.5,0,2.5,0,.9,0,1.6.2,2.2,0,.3.3,1,.7,1.9,0,.1.1.3.2.6v.2c0,.3,0,.5-.2.7s-.4.3-.7.3ZM1370.1,188.7c0-.3,0-.7,0-1,0-.4,0-.8.2-1.2-.3-.1-.5-.2-.7-.3s-.3,0-.5,0c-1.1,0-2,.5-2.8,1.4-.8.9-1.2,2-1.2,3.2s.2,2.1.6,2.7c.4.6,1,.9,1.9.9s1.3-.1,1.7-.4c.3-.1.6-.4,1.1-.8-.2-1.9-.3-3.4-.3-4.4Z"/>
        <path class="cls-25" d="M1383.5,187.5c0,.9-.4,1.4-1.1,1.4s-.9-.4-.9-1.1,0-.4,0-.8v-.9c-1.2.1-2.1.5-2.7,1-.6.5-1.2,1.2-1.6,2.2v6c0,.7-.3,1.1-1,1.1s-.9-.4-.9-1.1v-7.7c0-.2,0-.6,0-1.1,0-.5,0-.8,0-1.1,0-.7.3-1.1.9-1.1s1,.6,1.1,1.8c1.4-1.4,2.9-2,4.5-2s1,.2,1.3.7.4,1.1.4,2,0,.6,0,.8Z"/>
        <path class="cls-25" d="M1394,196.3c-.1,0-.4-.2-.7-.5-.3-.3-.6-.6-.7-.8-.7.4-1.3.7-1.8.9-.5.2-1,.3-1.3.3-1.7,0-2.9-.5-3.6-1.5-.7-.9-1.1-2.3-1.1-4.2s.6-3.3,1.8-4.6c1.2-1.3,2.6-1.9,4.2-1.9s1.3.2,2.1.5c1,.4,1.4.9,1.4,1.5s0,.4-.2.5c0,.3-.1.7-.2,1.4s0,1.5,0,2.5c0,.9,0,1.6.2,2.2,0,.3.3,1,.7,1.9,0,.1.1.3.2.6v.2c0,.3,0,.5-.2.7-.2.2-.4.3-.7.3ZM1391.7,188.7c0-.3,0-.7,0-1,0-.4,0-.8.2-1.2-.3-.1-.5-.2-.7-.3s-.3,0-.5,0c-1.1,0-2,.5-2.8,1.4-.8.9-1.2,2-1.2,3.2s.2,2.1.6,2.7,1,.9,1.9.9,1.3-.1,1.7-.4c.3-.1.6-.4,1.1-.8-.2-1.9-.3-3.4-.3-4.4Z"/>
        <path class="cls-25" d="M1090,223.1c-1.6,0-2.9-.4-3.9-1.2-1.1-.9-1.6-2.2-1.6-3.9s.4-3.5,1.3-4.8c1-1.4,2.3-2.1,3.9-2.1s2.1.2,2.9.6c.9.5,1.4,1.3,1.4,2.3s-.4,1.4-1.2,2c-.4.3-1.1.7-2.3,1.2l-4.1,2c.4.6.9,1.1,1.5,1.4.6.3,1.3.5,2.1.5s1.1,0,1.7-.3c.8-.2,1.4-.6,1.6-1,.2-.4.5-.6.8-.6s.5,0,.7.3c.2.2.3.4.3.7,0,.8-.6,1.5-1.9,2.1-1.1.5-2.1.7-3.2.7ZM1089.7,213.1c-.9,0-1.6.3-2.2,1-.6.7-1,1.7-1.3,3.1l3.3-1.6c1.3-.6,2.2-1.2,2.7-1.7-.6-.6-1.5-.9-2.6-.9Z"/>
        <path class="cls-25" d="M1104.2,214.2c-.4,0-.7-.1-.8-.4-.1-.2-.2-.6-.3-1.2-.5.1-1.4.4-2.5.8-1.1.5-1.7,1-1.7,1.7.2,0,.4.1.6.2,1.6.3,2.8.7,3.6,1.2,1.2.8,1.7,1.9,1.7,3.3s-.5,2.1-1.5,2.7c-.8.5-1.9.7-3.2.7s-1.8-.2-2.7-.5c-1.1-.4-1.6-1-1.6-1.7s.1-.6.3-.8c.2-.2.5-.3.8-.3s.5.2.9.5c.2.2.6.3,1.1.4.5,0,.9.1,1.2.1.6,0,1.1,0,1.6-.2.7-.2,1-.6,1-1,0-1-.7-1.7-2-2l-1.1-.3c-.9-.2-1.6-.5-2-.7-.6-.4-.9-1-.9-1.9,0-1.5.7-2.6,2.1-3.3.4-.2,1.1-.4,2-.7.9-.3,1.6-.5,2-.7.3-.1.6-.2.9-.2s.6.1.8.3c.2.2.3.5.3.8s0,.5.1.9c0,.4.1.7.1.9,0,.3,0,.6-.3.8s-.4.3-.8.3Z"/>
        <path class="cls-25" d="M1114.7,213.3c-.1,0-.3,0-.5,0-.2,0-.4,0-.5,0s-.6,0-1.4.2l.2,6.5v.5s0,.6,0,.6c0,1.6-.3,2.4-1.1,2.4s-.5,0-.7-.3c-.2-.2-.3-.4-.3-.7s0-.7,0-1.3c0-.6,0-1,0-1.3l-.2-6.4c-.5,0-1.3,0-2.4-.2-.6,0-.9-.5-.9-1.1s0-.6.3-.8.4-.3.7-.3l2.2.2c0-.4,0-.9,0-1.5,0-.6,0-1.1,0-1.4s.1-.6.3-.8c.2-.2.5-.3.8-.3.6,0,1,.5,1.1,1.6,0,.3,0,.6,0,1v.6s0,.7,0,.7c.9-.1,1.4-.2,1.5-.2.7,0,1.2,0,1.4.1.4.1.6.5.6,1s0,.6-.3.8c-.2.2-.4.3-.8.3Z"/>
        <path class="cls-25" d="M1126.2,223.4c-.1,0-.4-.2-.7-.5-.3-.3-.6-.6-.7-.8-.7.4-1.3.7-1.8.9-.5.2-1,.3-1.3.3-1.7,0-2.9-.5-3.6-1.5-.7-.9-1.1-2.3-1.1-4.2s.6-3.3,1.8-4.6c1.2-1.3,2.6-1.9,4.2-1.9s1.3.2,2.1.5c1,.4,1.4.9,1.4,1.5s0,.4-.2.5c0,.3-.1.7-.2,1.4,0,.6,0,1.5,0,2.5,0,.9,0,1.6.2,2.2,0,.3.3,1,.7,1.9,0,.1.1.3.2.6v.2c0,.3,0,.5-.2.7-.2.2-.4.3-.7.3ZM1124,215.7c0-.3,0-.7,0-1,0-.4,0-.8.2-1.2-.3-.1-.5-.2-.7-.3s-.3,0-.5,0c-1.1,0-2,.5-2.8,1.4-.8.9-1.2,2-1.2,3.2s.2,2.1.6,2.7c.4.6,1,.9,1.9.9s1.3-.1,1.7-.4c.3-.1.6-.4,1.1-.8-.2-1.9-.3-3.4-.3-4.4Z"/>
        <path class="cls-25" d="M1137.3,214.5c0,.9-.4,1.4-1.1,1.4s-.9-.4-.9-1.1,0-.4,0-.8v-.9c-1.2.1-2.1.5-2.7,1-.6.5-1.2,1.2-1.6,2.2v6c0,.7-.3,1.1-1,1.1s-.9-.4-.9-1.1v-7.7c0-.2,0-.6,0-1.1,0-.5,0-.8,0-1.1,0-.7.3-1.1.9-1.1s1,.6,1.1,1.8c1.4-1.4,2.9-2,4.5-2s1,.2,1.3.7.4,1.1.4,2,0,.6,0,.8Z"/>
        <path class="cls-25" d="M1153.1,213.3c-.1,0-.3,0-.5,0-.2,0-.4,0-.5,0s-.6,0-1.4.2l.2,6.5v.5s0,.6,0,.6c0,1.6-.3,2.4-1.1,2.4s-.5,0-.7-.3c-.2-.2-.3-.4-.3-.7s0-.7,0-1.3c0-.6,0-1,0-1.3l-.2-6.4c-.5,0-1.3,0-2.4-.2-.6,0-.9-.5-.9-1.1s0-.6.3-.8.4-.3.7-.3l2.2.2c0-.4,0-.9,0-1.5,0-.6,0-1.1,0-1.4s.1-.6.3-.8c.2-.2.5-.3.8-.3.6,0,1,.5,1.1,1.6,0,.3,0,.6,0,1v.6s0,.7,0,.7c.9-.1,1.4-.2,1.5-.2.7,0,1.2,0,1.4.1.4.1.6.5.6,1s0,.6-.3.8c-.2.2-.4.3-.8.3Z"/>
        <path class="cls-25" d="M1164.6,214.5c0,.9-.4,1.4-1.1,1.4s-.9-.4-.9-1.1,0-.4,0-.8v-.9c-1.2.1-2.1.5-2.7,1-.6.5-1.2,1.2-1.6,2.2v6c0,.7-.3,1.1-1,1.1s-.9-.4-.9-1.1v-7.7c0-.2,0-.6,0-1.1,0-.5,0-.8,0-1.1,0-.7.3-1.1.9-1.1s1,.6,1.1,1.8c1.4-1.4,2.9-2,4.5-2s1,.2,1.3.7.4,1.1.4,2,0,.6,0,.8Z"/>
        <path class="cls-25" d="M1175.1,223.4c-.1,0-.4-.2-.7-.5-.3-.3-.6-.6-.7-.8-.7.4-1.3.7-1.8.9-.5.2-1,.3-1.3.3-1.7,0-2.9-.5-3.6-1.5-.7-.9-1.1-2.3-1.1-4.2s.6-3.3,1.8-4.6c1.2-1.3,2.6-1.9,4.2-1.9s1.3.2,2.1.5c1,.4,1.4.9,1.4,1.5s0,.4-.2.5c0,.3-.1.7-.2,1.4s0,1.5,0,2.5c0,.9,0,1.6.2,2.2,0,.3.3,1,.7,1.9,0,.1.1.3.2.6v.2c0,.3,0,.5-.2.7-.2.2-.4.3-.7.3ZM1172.9,215.7c0-.3,0-.7,0-1,0-.4,0-.8.2-1.2-.3-.1-.5-.2-.7-.3s-.3,0-.5,0c-1.1,0-2,.5-2.8,1.4-.8.9-1.2,2-1.2,3.2s.2,2.1.6,2.7,1,.9,1.9.9,1.3-.1,1.7-.4c.3-.1.6-.4,1.1-.8-.2-1.9-.3-3.4-.3-4.4Z"/>
        <path class="cls-25" d="M1186.1,223.4c-.6,0-1-.3-1-1l-.3-2.4c0-.9-.1-1.7-.1-2.4s0-.6,0-1c0-.5,0-.8,0-1,0-1.6-.3-2.4-.9-2.4s-1.6.5-2.3,1.5c-.7.9-1.2,2-1.5,3.4,0,.3,0,.6,0,1.1,0,.4,0,.7,0,1.1s0,.6,0,1,0,.8,0,1c0,.3,0,.6-.3.8-.2.2-.4.3-.8.3s-.6-.1-.8-.3-.3-.5-.3-.8,0-.6,0-1,0-.8,0-1c0-.8,0-1.8.2-3.1s.2-2.4.2-3.1,0-.6,0-1c0-.5,0-.8,0-1s.1-.6.3-.8c.2-.2.5-.3.8-.3.7,0,1,.5,1.1,1.4v1.3c1.2-1.6,2.4-2.5,3.7-2.5s1.9.5,2.4,1.6c.3.7.5,1.7.5,3.1v2.1c0,.6,0,1.4.2,2.4.2,1,.2,1.7.2,2.4s-.1.6-.3.8c-.2.2-.5.3-.8.3Z"/>
        <path class="cls-25" d="M1197.5,219.2l-.5,4.2c-.2,1.6-.3,3-.3,4.3s0,.6-.3.8-.4.3-.8.3c-.7,0-1-.4-1-1.1,0-.3,0-.7,0-1.2v-1.2c.1,0,.3-2.4.3-2.4-.6.2-1,.3-1.3.3-1.5,0-2.8-.4-3.8-1.2-1-.9-1.5-2.1-1.5-3.7s.6-3.9,1.8-5.2c1.2-1.3,2.8-2,4.9-2,.4,0,.7.2.9.5.3-.3.6-.4.8-.4s.5.1.7.4c.2.2.3.5.3.8,0,2.2-.1,4.5-.4,7ZM1194.4,212.8c-1.3.2-2.3.9-3,2.1-.5.9-.8,2-.8,3.2s.3,1.6.8,2.1c.6.6,1.3.9,2.3.9.7,0,1.2-.4,1.5-1.1.3-.8.5-2.2.5-4.2v-2.9c0,0-.2,0-.6,0-.4,0-.6,0-.8,0Z"/>
        <path class="cls-25" d="M1209.3,216.2c0,.5,0,1.3,0,2.4,0,1.1,0,1.8,0,2.4s0,.4,0,.7,0,.6,0,.7c0,.3-.1.6-.3.8s-.5.3-.8.3c-.5,0-.9-.3-1-1-.9.5-1.9.7-3.1.7s-1.7-.2-2.3-.6c-.7-.5-1.1-1.2-1.2-2.1-.3-1.9-.4-3.7-.4-5.2s.1-2.2.3-3.4c0-.6.4-1,1-1s.6.1.8.3.3.5.3.8,0,.9-.2,1.6-.2,1.3-.2,1.7c0,1.2,0,2.3.1,3.1s.2,1.6.4,2.1c.2.1.5.2.7.3s.5.1.7.1c1,0,2-.2,3-.5v-2.2s0-2.1,0-2.1c0-1.6,0-3,.2-4.1,0-.7.4-1,1-1s.6.1.8.3c.2.2.3.5.3.8l-.2,4.2Z"/>
        <path class="cls-25" d="M1214.5,217.6c0,.4,0,1.1,0,2s0,1.5,0,2,0,.6-.3.8-.4.3-.8.3-.6-.1-.8-.3c-.2-.2-.3-.5-.3-.8s0-1.1,0-2c0-.9,0-1.5,0-2,0-.7,0-1.6.1-2.6s.1-1.9.1-2.6,0-.6.3-.8.4-.3.8-.3.6.1.8.3c.2.2.3.5.3.8,0,.7,0,1.6-.1,2.6,0,1-.1,1.9-.1,2.6ZM1214,208.7c-.3,0-.6-.1-.9-.4-.2-.2-.4-.6-.4-.9s.1-.7.4-.9c.2-.2.5-.4.9-.4s.6.1.9.4c.2.2.4.6.4.9s-.1.7-.4.9c-.2.2-.5.4-.9.4Z"/>
        <path class="cls-25" d="M1220.8,214l-.2,5.5c0,.6,0,1.4,0,2.6,0,.7-.4,1.1-1,1.1s-1-.4-1-1.1,0-2.2.1-4c0-1.8.1-3.1.1-4s0-2.5,0-4c0-1.5,0-2.8,0-4s.3-1.1,1-1.1,1.1.4,1.1,1.1c0,1.2,0,2.5,0,4,0,1.5,0,2.8,0,4Z"/>
        <path class="cls-25" d="M1232.4,223.4c-.1,0-.4-.2-.7-.5-.3-.3-.6-.6-.7-.8-.7.4-1.3.7-1.8.9-.5.2-1,.3-1.3.3-1.7,0-2.9-.5-3.6-1.5-.7-.9-1.1-2.3-1.1-4.2s.6-3.3,1.8-4.6c1.2-1.3,2.6-1.9,4.2-1.9s1.3.2,2.1.5c1,.4,1.4.9,1.4,1.5s0,.4-.2.5c0,.3-.1.7-.2,1.4,0,.6,0,1.5,0,2.5,0,.9,0,1.6.2,2.2,0,.3.3,1,.7,1.9,0,.1.1.3.2.6v.2c0,.3,0,.5-.2.7-.2.2-.4.3-.7.3ZM1230.2,215.7c0-.3,0-.7,0-1,0-.4,0-.8.2-1.2-.3-.1-.5-.2-.7-.3s-.3,0-.5,0c-1.1,0-2,.5-2.8,1.4-.8.9-1.2,2-1.2,3.2s.2,2.1.6,2.7c.4.6,1,.9,1.9.9s1.3-.1,1.7-.4c.3-.1.6-.4,1.1-.8-.2-1.9-.3-3.4-.3-4.4Z"/>
        <path class="cls-25" d="M1236.8,226.4c-.2,0-.5,0-.6-.3-.2-.2-.3-.4-.3-.7s.2-.8.7-1.9c.4-.9.7-1.6.9-1.9.2-.4.4-.5.7-.5s.5.1.7.3c.2.2.3.4.3.7s-.5,1.4-1.5,3.8c-.2.4-.4.6-.8.6Z"/>
        <path class="cls-25" d="M1256.1,223.4c-.1,0-.4-.2-.7-.5-.3-.3-.6-.6-.7-.8-.7.4-1.3.7-1.8.9-.5.2-1,.3-1.3.3-1.7,0-2.9-.5-3.6-1.5-.7-.9-1.1-2.3-1.1-4.2s.6-3.3,1.8-4.6c1.2-1.3,2.6-1.9,4.2-1.9s1.3.2,2.1.5c1,.4,1.4.9,1.4,1.5s0,.4-.2.5c0,.3-.1.7-.2,1.4,0,.6,0,1.5,0,2.5,0,.9,0,1.6.2,2.2,0,.3.3,1,.7,1.9,0,.1.1.3.2.6v.2c0,.3,0,.5-.2.7s-.4.3-.7.3ZM1253.9,215.7c0-.3,0-.7,0-1,0-.4,0-.8.2-1.2-.3-.1-.5-.2-.7-.3s-.3,0-.5,0c-1.1,0-2,.5-2.8,1.4-.8.9-1.2,2-1.2,3.2s.2,2.1.6,2.7,1,.9,1.9.9,1.3-.1,1.7-.4c.3-.1.6-.4,1.1-.8-.2-1.9-.3-3.4-.3-4.4Z"/>
        <path class="cls-25" d="M1267.8,223.3c-.5,0-.8-.3-1-.8-.2-.6-.3-1.5-.4-2.6-.1-1.1-.2-1.9-.2-2.6s0-.5,0-.9c0-.4,0-.7,0-.9,0-1.4-.3-2.1-1-2.1s-1.7.4-2.4,1.3c-.4.4-.9,1.3-1.5,2.5,0,2.8-.1,4.5-.3,5-.2.5-.5.7-.9.7s-.5-.1-.8-.3c-.2-.2-.3-.5-.3-.7s0-.3,0-.5c0-.2,0-.7.1-1.6v-1.6s0-8.1,0-8.1c0-.9,0-1.5,0-1.8s0-.7-.1-1.1c0-.3-.1-.7-.1-1s.1-.6.3-.8.5-.3.8-.3c.6,0,.9.3,1,1,.1.7.2,1.4.2,1.9s0,1.6,0,2.4c0,.8,0,1.6,0,2.4v1c.6-.8,1.2-1.4,1.9-1.8.7-.4,1.4-.6,2.1-.6,1.2,0,2,.4,2.4,1.2.3.6.5,1.5.5,2.8v2.1c0,0,.3,2.3.3,2.3,0,.9.2,1.6.4,2.3,0,.1,0,.2,0,.3,0,.3-.1.6-.3.8s-.5.3-.8.3Z"/>
        <path class="cls-25" d="M1275.5,223.3c-1.2,0-2.2-.5-3.1-1.4-1-1-1.5-2.4-1.5-4.1,0-1.7.4-3.1,1.2-4.4,1-1.5,2.4-2.2,4.2-2.2s2.5.7,3.2,2c.6,1.1.9,2.4.8,3.9,0,1.6-.4,3-1.2,4.2-.9,1.3-2.1,2-3.6,2ZM1276.2,213.5c-1,0-1.9.5-2.4,1.5-.5.8-.7,1.8-.7,2.8s.3,1.9.8,2.5c.5.5,1,.7,1.6.7s1.4-.3,1.9-.8c.6-.6.9-1.4,1-2.5,0-2.8-.6-4.3-2.2-4.3Z"/>
        <path class="cls-25" d="M1291.3,214.5c0,.9-.4,1.4-1.1,1.4s-.9-.4-.9-1.1,0-.4,0-.8v-.9c-1.2.1-2.1.5-2.7,1-.6.5-1.2,1.2-1.6,2.2v6c0,.7-.3,1.1-1,1.1s-.9-.4-.9-1.1v-7.7c0-.2,0-.6,0-1.1,0-.5,0-.8,0-1.1,0-.7.3-1.1.9-1.1s1,.6,1.1,1.8c1.4-1.4,2.9-2,4.5-2s1,.2,1.3.7.4,1.1.4,2,0,.6,0,.8Z"/>
        <path class="cls-25" d="M1301.8,223.4c-.1,0-.4-.2-.7-.5-.3-.3-.6-.6-.7-.8-.7.4-1.3.7-1.8.9-.5.2-1,.3-1.3.3-1.7,0-2.9-.5-3.6-1.5-.7-.9-1.1-2.3-1.1-4.2s.6-3.3,1.8-4.6c1.2-1.3,2.6-1.9,4.2-1.9s1.3.2,2.1.5c1,.4,1.4.9,1.4,1.5s0,.4-.2.5c0,.3-.1.7-.2,1.4,0,.6,0,1.5,0,2.5,0,.9,0,1.6.2,2.2,0,.3.3,1,.7,1.9,0,.1.1.3.2.6v.2c0,.3,0,.5-.2.7s-.4.3-.7.3ZM1299.6,215.7c0-.3,0-.7,0-1,0-.4,0-.8.2-1.2-.3-.1-.5-.2-.7-.3s-.3,0-.5,0c-1.1,0-2,.5-2.8,1.4-.8.9-1.2,2-1.2,3.2s.2,2.1.6,2.7,1,.9,1.9.9,1.3-.1,1.7-.4c.3-.1.6-.4,1.1-.8-.2-1.9-.3-3.4-.3-4.4Z"/>
        <path class="cls-25" d="M1316.1,223.1c-1.6,0-2.9-.4-3.9-1.2-1.1-.9-1.6-2.2-1.6-3.9s.4-3.5,1.3-4.8c1-1.4,2.3-2.1,3.9-2.1s2.1.2,2.9.6c.9.5,1.4,1.3,1.4,2.3s-.4,1.4-1.2,2c-.4.3-1.1.7-2.3,1.2l-4.1,2c.4.6.9,1.1,1.5,1.4.6.3,1.3.5,2.1.5s1.1,0,1.7-.3c.8-.2,1.4-.6,1.6-1,.2-.4.5-.6.8-.6s.5,0,.7.3c.2.2.3.4.3.7,0,.8-.6,1.5-1.9,2.1-1.1.5-2.1.7-3.2.7ZM1315.8,213.1c-.9,0-1.6.3-2.2,1-.6.7-1,1.7-1.3,3.1l3.3-1.6c1.3-.6,2.2-1.2,2.7-1.7-.6-.6-1.5-.9-2.6-.9Z"/>
        <path class="cls-25" d="M1330.3,214.2c-.4,0-.7-.1-.8-.4-.1-.2-.2-.6-.3-1.2-.5.1-1.4.4-2.5.8-1.1.5-1.7,1-1.7,1.7.2,0,.4.1.6.2,1.6.3,2.8.7,3.6,1.2,1.2.8,1.7,1.9,1.7,3.3s-.5,2.1-1.5,2.7c-.8.5-1.9.7-3.2.7s-1.8-.2-2.7-.5c-1.1-.4-1.6-1-1.6-1.7s.1-.6.3-.8c.2-.2.5-.3.8-.3s.5.2.9.5c.2.2.6.3,1.1.4.5,0,.9.1,1.2.1.6,0,1.1,0,1.6-.2.7-.2,1-.6,1-1,0-1-.7-1.7-2-2l-1.1-.3c-.9-.2-1.6-.5-2-.7-.6-.4-.9-1-.9-1.9,0-1.5.7-2.6,2.1-3.3.4-.2,1.1-.4,2-.7.9-.3,1.6-.5,2-.7.3-.1.6-.2.9-.2s.6.1.8.3c.2.2.3.5.3.8s0,.5.1.9c0,.4.1.7.1.9,0,.3,0,.6-.3.8-.2.2-.4.3-.8.3Z"/>
        <path class="cls-25" d="M1338.2,223c-.7,0-1.5-.1-2.3-.4v5.3c0,.3-.1.6-.3.8s-.4.3-.8.3-.6-.1-.8-.3c-.2-.2-.3-.5-.3-.8v-4.4s0-4.4,0-4.4c0-1.6,0-3.1-.2-4.4l-.2-2.2c0-.5,0-1,.3-1.3.2-.4.5-.6.9-.6s.5.1.7.3c.2.2.3.4.3.7s0,.2,0,.4c0,.2,0,.4,0,.6.6-.4,1.2-.8,1.8-1s1.1-.3,1.6-.3c1.5,0,2.5.7,3.2,2,.5,1.1.8,2.5.8,4.2s-.4,2.9-1.2,3.9c-.9,1.1-2,1.6-3.5,1.6ZM1338.9,213.5c-.7,0-1.2.2-1.8.5-.4.2-.9.6-1.4,1.2,0,1.7.1,3.4.1,5.3.8.3,1.5.5,2.3.5s1.6-.3,2-1c.4-.6.6-1.4.6-2.3s-.2-2.3-.5-3c-.3-.7-.8-1-1.4-1Z"/>
        <path class="cls-25" d="M1350.3,223.1c-1.6,0-2.9-.4-3.9-1.2-1.1-.9-1.6-2.2-1.6-3.9s.4-3.5,1.3-4.8c1-1.4,2.3-2.1,3.9-2.1s2.1.2,2.9.6c.9.5,1.4,1.3,1.4,2.3s-.4,1.4-1.2,2c-.4.3-1.1.7-2.3,1.2l-4.1,2c.4.6.9,1.1,1.5,1.4.6.3,1.3.5,2.1.5s1.1,0,1.7-.3c.8-.2,1.4-.6,1.6-1,.2-.4.5-.6.8-.6s.5,0,.7.3c.2.2.3.4.3.7,0,.8-.6,1.5-1.9,2.1-1.1.5-2.1.7-3.2.7ZM1350,213.1c-.9,0-1.6.3-2.2,1-.6.7-1,1.7-1.3,3.1l3.3-1.6c1.3-.6,2.2-1.2,2.7-1.7-.6-.6-1.5-.9-2.6-.9Z"/>
        <path class="cls-25" d="M1365.6,214.5c0,.9-.4,1.4-1.1,1.4s-.9-.4-.9-1.1,0-.4,0-.8v-.9c-1.2.1-2.1.5-2.7,1-.6.5-1.2,1.2-1.6,2.2v6c0,.7-.3,1.1-1,1.1s-.9-.4-.9-1.1v-7.7c0-.2,0-.6,0-1.1,0-.5,0-.8,0-1.1,0-.7.3-1.1.9-1.1s1,.6,1.1,1.8c1.4-1.4,2.9-2,4.5-2s1,.2,1.3.7.4,1.1.4,2,0,.6,0,.8Z"/>
        <path class="cls-25" d="M1371.8,223.3c-1.2,0-2.2-.5-3.1-1.4-1-1-1.5-2.4-1.5-4.1,0-1.7.4-3.1,1.2-4.4,1-1.5,2.4-2.2,4.2-2.2s2.5.7,3.2,2c.6,1.1.9,2.4.8,3.9,0,1.6-.4,3-1.2,4.2-.9,1.3-2.1,2-3.6,2ZM1372.4,213.5c-1,0-1.9.5-2.4,1.5-.5.8-.7,1.8-.7,2.8s.3,1.9.8,2.5c.5.5,1,.7,1.6.7s1.4-.3,1.9-.8c.6-.6.9-1.4,1-2.5,0-2.8-.6-4.3-2.2-4.3Z"/>
        <path class="cls-25" d="M1393.9,219.2l-.5,4.2c-.2,1.6-.3,3-.3,4.3s0,.6-.3.8-.4.3-.8.3c-.7,0-1-.4-1-1.1,0-.3,0-.7,0-1.2v-1.2c.1,0,.3-2.4.3-2.4-.6.2-1,.3-1.3.3-1.5,0-2.8-.4-3.8-1.2-1-.9-1.5-2.1-1.5-3.7s.6-3.9,1.8-5.2c1.2-1.3,2.8-2,4.9-2,.4,0,.7.2.9.5.3-.3.6-.4.8-.4s.5.1.7.4c.2.2.3.5.3.8,0,2.2-.1,4.5-.4,7ZM1390.8,212.8c-1.3.2-2.3.9-3,2.1-.5.9-.8,2-.8,3.2s.3,1.6.8,2.1c.6.6,1.3.9,2.3.9.7,0,1.2-.4,1.5-1.1.3-.8.5-2.2.5-4.2v-2.9c0,0-.2,0-.6,0-.4,0-.6,0-.8,0Z"/>
        <path class="cls-25" d="M1405.8,216.2c0,.5,0,1.3,0,2.4,0,1.1,0,1.8,0,2.4s0,.4,0,.7,0,.6,0,.7c0,.3-.1.6-.3.8s-.5.3-.8.3c-.5,0-.9-.3-1-1-.9.5-1.9.7-3.1.7s-1.7-.2-2.3-.6c-.7-.5-1.1-1.2-1.2-2.1-.3-1.9-.4-3.7-.4-5.2s.1-2.2.3-3.4c0-.6.4-1,1-1s.6.1.8.3.3.5.3.8,0,.9-.2,1.6-.2,1.3-.2,1.7c0,1.2,0,2.3.1,3.1s.2,1.6.4,2.1c.2.1.5.2.7.3s.5.1.7.1c1,0,2-.2,3-.5v-2.2s0-2.1,0-2.1c0-1.6,0-3,.2-4.1,0-.7.4-1,1-1s.6.1.8.3c.2.2.3.5.3.8l-.2,4.2Z"/>
        <path class="cls-25" d="M1413.4,223.1c-1.6,0-2.9-.4-3.9-1.2-1.1-.9-1.6-2.2-1.6-3.9s.4-3.5,1.3-4.8c1-1.4,2.3-2.1,3.9-2.1s2.1.2,2.9.6c.9.5,1.4,1.3,1.4,2.3s-.4,1.4-1.2,2c-.4.3-1.1.7-2.3,1.2l-4.1,2c.4.6.9,1.1,1.5,1.4.6.3,1.3.5,2.1.5s1.1,0,1.7-.3c.8-.2,1.4-.6,1.6-1,.2-.4.5-.6.8-.6s.5,0,.7.3c.2.2.3.4.3.7,0,.8-.6,1.5-1.9,2.1-1.1.5-2.1.7-3.2.7ZM1413.1,213.1c-.9,0-1.6.3-2.2,1-.6.7-1,1.7-1.3,3.1l3.3-1.6c1.3-.6,2.2-1.2,2.7-1.7-.6-.6-1.5-.9-2.6-.9Z"/>
        <path class="cls-25" d="M1087.7,241l-.2,5.5c0,.6,0,1.4,0,2.6,0,.7-.4,1.1-1,1.1s-1-.4-1-1.1,0-2.2.1-4,.1-3.1.1-4,0-2.5,0-4c0-1.5,0-2.8,0-4s.3-1.1,1-1.1,1.1.4,1.1,1.1c0,1.2,0,2.5,0,4,0,1.5,0,2.8,0,4Z"/>
        <path class="cls-25" d="M1095,250.3c-1.2,0-2.2-.5-3.1-1.4-1-1-1.5-2.4-1.5-4.1,0-1.7.4-3.1,1.2-4.4,1-1.5,2.4-2.2,4.2-2.2s2.5.7,3.2,2c.6,1.1.9,2.4.8,3.9,0,1.6-.4,3-1.2,4.2-.9,1.3-2.1,2-3.6,2ZM1095.6,240.5c-1,0-1.9.5-2.4,1.5-.5.8-.7,1.8-.7,2.8s.3,1.9.8,2.5c.5.5,1,.7,1.6.7s1.4-.3,1.9-.8c.6-.6.9-1.4,1-2.5,0-2.8-.6-4.3-2.2-4.3Z"/>
        <path class="cls-25" d="M1111.2,245l-.2,3.7c0,1.5-.2,2.7-.4,3.6-.3,1.2-.8,2.1-1.5,2.6-.9.7-2.1,1-3.7,1s-1.7,0-2.4-.2c-.9-.2-1.3-.6-1.3-1.1s.3-1,.9-1,.7,0,1.3.2c.6.1,1.3.2,2,.2,1.4,0,2.3-.7,2.8-2,.3-.9.5-2.3.5-4.1-.4.7-.8,1.3-1.4,1.7s-1.1.6-1.8.6c-1.3,0-2.3-.5-3.1-1.4-.8-.9-1.2-2.1-1.2-3.5s.5-3.6,1.6-4.8c1.1-1.2,2.7-1.9,4.6-1.9s1.2,0,1.7.3.8.4,1,.8c.8,0,1.1.5,1.1,1.3s0,1.2-.2,2.1c-.2,1-.3,1.7-.3,2.1ZM1107.8,240.2c-1.3,0-2.4.5-3.1,1.4-.7.9-1,2-1,3.3s.2,1.9.6,2.4,1,.8,1.8.8,1.4-.4,2.1-1.3c.6-.8,1-1.5,1-2.3.1-.8.3-2,.5-3.7-.3-.2-.6-.4-.9-.5-.3-.1-.6-.2-.9-.2Z"/>
        <path class="cls-25" d="M1122.3,241.6c0,.9-.4,1.4-1.1,1.4s-.9-.4-.9-1.1,0-.4,0-.8v-.9c-1.2.1-2.1.5-2.7,1-.6.5-1.2,1.2-1.6,2.2v6c0,.7-.3,1.1-1,1.1s-.9-.4-.9-1.1v-7.7c0-.2,0-.6,0-1.1,0-.5,0-.8,0-1.1,0-.7.3-1.1.9-1.1s1,.6,1.1,1.8c1.4-1.4,2.9-2,4.5-2s1,.2,1.3.7.4,1.1.4,2,0,.6,0,.8Z"/>
        <path class="cls-25" d="M1129.5,250.2c-1.6,0-2.9-.4-3.9-1.2-1.1-.9-1.6-2.2-1.6-3.9s.4-3.5,1.3-4.8c1-1.4,2.3-2.1,3.9-2.1s2.1.2,2.9.6c.9.5,1.4,1.3,1.4,2.3s-.4,1.4-1.2,2c-.4.3-1.1.7-2.3,1.2l-4.1,2c.4.6.9,1.1,1.5,1.4.6.3,1.3.5,2.1.5s1.1,0,1.7-.3c.8-.2,1.4-.6,1.6-1,.2-.4.5-.6.8-.6s.5,0,.7.3c.2.2.3.4.3.7,0,.8-.6,1.5-1.9,2.1-1.1.5-2.1.7-3.2.7ZM1129.2,240.2c-.9,0-1.6.3-2.2,1-.6.7-1,1.7-1.3,3.1l3.3-1.6c1.3-.6,2.2-1.2,2.7-1.7-.6-.6-1.5-.9-2.6-.9Z"/>
        <path class="cls-25" d="M1143.6,241.2c-.4,0-.7-.1-.8-.4-.1-.2-.2-.6-.3-1.2-.5.1-1.4.4-2.5.8-1.1.5-1.7,1-1.7,1.7.2,0,.4.1.6.2,1.6.3,2.8.7,3.6,1.2,1.2.8,1.7,1.9,1.7,3.3s-.5,2.1-1.5,2.7c-.8.5-1.9.7-3.2.7s-1.8-.2-2.7-.5c-1.1-.4-1.6-1-1.6-1.7s.1-.6.3-.8c.2-.2.5-.3.8-.3s.5.2.9.5c.2.2.6.3,1.1.4.5,0,.9.1,1.2.1.6,0,1.1,0,1.6-.2.7-.2,1-.6,1-1,0-1-.7-1.7-2-2l-1.1-.3c-.9-.2-1.6-.5-2-.7-.6-.4-.9-1-.9-1.9,0-1.5.7-2.6,2.1-3.3.4-.2,1.1-.4,2-.7.9-.3,1.6-.5,2-.7.3-.1.6-.2.9-.2s.6.1.8.3c.2.2.3.5.3.8s0,.5.1.9c0,.4.1.7.1.9,0,.3,0,.6-.3.8s-.4.3-.8.3Z"/>
        <path class="cls-25" d="M1163.4,240c0,1.1-.1,2.2-.1,3.2,0,2.4.1,4.3.3,5.5,0,.1,0,.2,0,.3,0,.3,0,.5-.3.7s-.4.3-.7.3c-.4,0-.8-.3-1-1-.5.4-1,.7-1.6.9-.6.2-1.1.3-1.7.3-1.5,0-2.7-.5-3.7-1.5-1-1-1.5-2.4-1.5-4s.5-3.5,1.5-4.7c1-1.2,2.3-1.8,3.9-1.8s1.5.1,1.9.4l1,.8c0-3.1.2-5.2.4-6.2,0-.7.4-1,1-1s1,.4,1,1.1c0,1-.1,3.3-.4,6.8ZM1158.7,240.3c-1.2,0-2.1.4-2.7,1.1-.6.7-.9,1.8-.9,3.3s.3,1.8,1,2.4c.6.7,1.4,1,2.3,1s1.1-.1,1.5-.3c.2-.1.6-.4,1.2-.9.1,0,.2-.2.3-.3v-1.9s0-1.3,0-1.3v-1.3c-.2-.6-.6-1-1.1-1.3-.4-.3-1-.4-1.6-.4Z"/>
        <path class="cls-25" d="M1171.4,250.2c-1.6,0-2.9-.4-3.9-1.2-1.1-.9-1.6-2.2-1.6-3.9s.4-3.5,1.3-4.8c1-1.4,2.3-2.1,3.9-2.1s2.1.2,2.9.6c.9.5,1.4,1.3,1.4,2.3s-.4,1.4-1.2,2c-.4.3-1.1.7-2.3,1.2l-4.1,2c.4.6.9,1.1,1.5,1.4.6.3,1.3.5,2.1.5s1.1,0,1.7-.3c.8-.2,1.4-.6,1.6-1,.2-.4.5-.6.8-.6s.5,0,.7.3c.2.2.3.4.3.7,0,.8-.6,1.5-1.9,2.1-1.1.5-2.1.7-3.2.7ZM1171.1,240.2c-.9,0-1.6.3-2.2,1-.6.7-1,1.7-1.3,3.1l3.3-1.6c1.3-.6,2.2-1.2,2.7-1.7-.6-.6-1.5-.9-2.6-.9Z"/>
        <path class="cls-25" d="M1185.5,241.2c-.4,0-.7-.1-.8-.4-.1-.2-.2-.6-.3-1.2-.5.1-1.4.4-2.5.8-1.1.5-1.7,1-1.7,1.7.2,0,.4.1.6.2,1.6.3,2.8.7,3.6,1.2,1.2.8,1.7,1.9,1.7,3.3s-.5,2.1-1.5,2.7c-.8.5-1.9.7-3.2.7s-1.8-.2-2.7-.5c-1.1-.4-1.6-1-1.6-1.7s.1-.6.3-.8c.2-.2.5-.3.8-.3s.5.2.9.5c.2.2.6.3,1.1.4.5,0,.9.1,1.2.1.6,0,1.1,0,1.6-.2.7-.2,1-.6,1-1,0-1-.7-1.7-2-2l-1.1-.3c-.9-.2-1.6-.5-2-.7-.6-.4-.9-1-.9-1.9,0-1.5.7-2.6,2.1-3.3.4-.2,1.1-.4,2-.7.9-.3,1.6-.5,2-.7.3-.1.6-.2.9-.2s.6.1.8.3c.2.2.3.5.3.8s0,.5.1.9c0,.4.1.7.1.9,0,.3,0,.6-.3.8-.2.2-.4.3-.8.3Z"/>
        <path class="cls-25" d="M1193.8,250.4c-1.5,0-2.7-.5-3.6-1.4-1-1-1.5-2.2-1.5-3.8s.5-3,1.4-4.6c1.1-1.8,2.3-2.6,3.6-2.6s1.5.2,2.3.5c1.1.4,1.6,1,1.6,1.6s0,.5-.3.7c-.2.2-.4.3-.7.3s-.4,0-.5-.2c-.2-.1-.3-.3-.4-.4-.4-.3-1.1-.5-2.1-.5s-1.4.7-2.2,2c-.6,1.2-1,2.3-1,3.2s.3,1.7,1,2.3c.6.5,1.4.8,2.3.8s.9-.1,1.4-.4l1.2-.7c.2-.1.4-.2.5-.2.3,0,.5.1.7.3.2.2.3.5.3.7,0,.5-.5,1.1-1.6,1.6-1,.4-1.8.7-2.4.7Z"/>
        <path class="cls-25" d="M1208.5,250.4c-.1,0-.4-.2-.7-.5-.3-.3-.6-.6-.7-.8-.7.4-1.3.7-1.8.9-.5.2-1,.3-1.3.3-1.7,0-2.9-.5-3.6-1.5-.7-.9-1.1-2.3-1.1-4.2s.6-3.3,1.8-4.6c1.2-1.3,2.6-1.9,4.2-1.9s1.3.2,2.1.5c1,.4,1.4.9,1.4,1.5s0,.4-.2.5c0,.3-.1.7-.2,1.4,0,.6,0,1.5,0,2.5,0,.9,0,1.6.2,2.2,0,.3.3,1,.7,1.9,0,.1.1.3.2.6v.2c0,.3,0,.5-.2.7-.2.2-.4.3-.7.3ZM1206.2,242.8c0-.3,0-.7,0-1,0-.4,0-.8.2-1.2-.3-.1-.5-.2-.7-.3s-.3,0-.5,0c-1.1,0-2,.5-2.8,1.4-.8.9-1.2,2-1.2,3.2s.2,2.1.6,2.7c.4.6,1,.9,1.9.9s1.3-.1,1.7-.4c.3-.1.6-.4,1.1-.8-.2-1.9-.3-3.4-.3-4.4Z"/>
        <path class="cls-25" d="M1219.5,250.5c-.6,0-1-.3-1-1l-.3-2.4c0-.9-.1-1.7-.1-2.4s0-.6,0-1,0-.8,0-1c0-1.6-.3-2.4-.9-2.4s-1.6.5-2.3,1.5c-.7.9-1.2,2-1.5,3.4,0,.3,0,.6,0,1.1,0,.4,0,.7,0,1.1s0,.6,0,1c0,.4,0,.8,0,1,0,.3,0,.6-.3.8-.2.2-.4.3-.8.3s-.6-.1-.8-.3-.3-.5-.3-.8,0-.6,0-1,0-.8,0-1c0-.8,0-1.8.2-3.1s.2-2.4.2-3.1,0-.6,0-1c0-.5,0-.8,0-1s.1-.6.3-.8c.2-.2.5-.3.8-.3.7,0,1,.5,1.1,1.4v1.3c1.2-1.6,2.4-2.5,3.7-2.5s1.9.5,2.4,1.6c.3.7.5,1.7.5,3.1v2.1c0,.6,0,1.4.2,2.4.2,1,.2,1.7.2,2.4s-.1.6-.3.8c-.2.2-.5.3-.8.3Z"/>
        <path class="cls-25" d="M1229.9,241.2c-.4,0-.7-.1-.8-.4-.1-.2-.2-.6-.3-1.2-.5.1-1.4.4-2.5.8-1.1.5-1.7,1-1.7,1.7.2,0,.4.1.6.2,1.6.3,2.8.7,3.6,1.2,1.2.8,1.7,1.9,1.7,3.3s-.5,2.1-1.5,2.7c-.8.5-1.9.7-3.2.7s-1.8-.2-2.7-.5c-1.1-.4-1.6-1-1.6-1.7s.1-.6.3-.8c.2-.2.5-.3.8-.3s.5.2.9.5c.2.2.6.3,1.1.4.5,0,.9.1,1.2.1.6,0,1.1,0,1.6-.2.7-.2,1-.6,1-1,0-1-.7-1.7-2-2l-1.1-.3c-.9-.2-1.6-.5-2-.7-.6-.4-.9-1-.9-1.9,0-1.5.7-2.6,2.1-3.3.4-.2,1.1-.4,2-.7.9-.3,1.6-.5,2-.7.3-.1.6-.2.9-.2s.6.1.8.3c.2.2.3.5.3.8s0,.5.1.9c0,.4.1.7.1.9,0,.3,0,.6-.3.8-.2.2-.4.3-.8.3Z"/>
        <path class="cls-25" d="M1241.6,250.4c-.1,0-.4-.2-.7-.5-.3-.3-.6-.6-.7-.8-.7.4-1.3.7-1.8.9-.5.2-1,.3-1.3.3-1.7,0-2.9-.5-3.6-1.5-.7-.9-1.1-2.3-1.1-4.2s.6-3.3,1.8-4.6c1.2-1.3,2.6-1.9,4.2-1.9s1.3.2,2.1.5c1,.4,1.4.9,1.4,1.5s0,.4-.2.5c0,.3-.1.7-.2,1.4,0,.6,0,1.5,0,2.5,0,.9,0,1.6.2,2.2,0,.3.3,1,.7,1.9,0,.1.1.3.2.6v.2c0,.3,0,.5-.2.7-.2.2-.4.3-.7.3ZM1239.4,242.8c0-.3,0-.7,0-1,0-.4,0-.8.2-1.2-.3-.1-.5-.2-.7-.3s-.3,0-.5,0c-1.1,0-2,.5-2.8,1.4-.8.9-1.2,2-1.2,3.2s.2,2.1.6,2.7c.4.6,1,.9,1.9.9s1.3-.1,1.7-.4c.3-.1.6-.4,1.1-.8-.2-1.9-.3-3.4-.3-4.4Z"/>
        <path class="cls-25" d="M1252.8,241.6c0,.9-.4,1.4-1.1,1.4s-.9-.4-.9-1.1,0-.4,0-.8v-.9c-1.2.1-2.1.5-2.7,1-.6.5-1.2,1.2-1.6,2.2v6c0,.7-.3,1.1-1,1.1s-.9-.4-.9-1.1v-7.7c0-.2,0-.6,0-1.1,0-.5,0-.8,0-1.1,0-.7.3-1.1.9-1.1s1,.6,1.1,1.8c1.4-1.4,2.9-2,4.5-2s1,.2,1.3.7c.3.4.4,1.1.4,2s0,.6,0,.8Z"/>
        <path class="cls-25" d="M1270.8,239.9l-3.7,8.2c-.9,2-1.6,3.7-2.1,5l-.7,2.1c-.2.5-.5.8-1,.8s-.6-.1-.8-.3c-.2-.2-.3-.5-.3-.8,0-.7.8-2.9,2.3-6.4l-3.8-7.6-.5-.8c-.2-.3-.3-.6-.3-.8s.1-.6.3-.8c.2-.2.5-.3.8-.3s.6.1.8.4c1.2,1.7,2.5,4.2,3.9,7.4l1.6-3.8c.6-1.3,1.1-2.4,1.6-3.4.2-.4.5-.6.9-.6s.5.1.8.3c.2.2.3.5.3.8s0,.3-.1.6Z"/>
        <path class="cls-25" d="M1286.5,241.2c-.4,0-.7-.1-.8-.4-.1-.2-.2-.6-.3-1.2-.5.1-1.4.4-2.5.8-1.1.5-1.7,1-1.7,1.7.2,0,.4.1.6.2,1.6.3,2.8.7,3.6,1.2,1.2.8,1.7,1.9,1.7,3.3s-.5,2.1-1.5,2.7c-.8.5-1.9.7-3.2.7s-1.8-.2-2.7-.5c-1.1-.4-1.6-1-1.6-1.7s.1-.6.3-.8c.2-.2.5-.3.8-.3s.5.2.9.5c.2.2.6.3,1.1.4.5,0,.9.1,1.2.1.6,0,1.1,0,1.6-.2.7-.2,1-.6,1-1,0-1-.7-1.7-2-2l-1.1-.3c-.9-.2-1.6-.5-2-.7-.6-.4-.9-1-.9-1.9,0-1.5.7-2.6,2.1-3.3.4-.2,1.1-.4,2-.7.9-.3,1.6-.5,2-.7.3-.1.6-.2.9-.2s.6.1.8.3c.2.2.3.5.3.8s0,.5.1.9c0,.4.1.7.1.9,0,.3,0,.6-.3.8s-.4.3-.8.3Z"/>
        <path class="cls-25" d="M1294.9,250.2c-1.6,0-2.9-.4-3.9-1.2-1.1-.9-1.6-2.2-1.6-3.9s.4-3.5,1.3-4.8c1-1.4,2.3-2.1,3.9-2.1s2.1.2,2.9.6c.9.5,1.4,1.3,1.4,2.3s-.4,1.4-1.2,2c-.4.3-1.1.7-2.3,1.2l-4.1,2c.4.6.9,1.1,1.5,1.4.6.3,1.3.5,2.1.5s1.1,0,1.7-.3c.8-.2,1.4-.6,1.6-1,.2-.4.5-.6.8-.6s.5,0,.7.3c.2.2.3.4.3.7,0,.8-.6,1.5-1.9,2.1-1.1.5-2.1.7-3.2.7ZM1294.6,240.2c-.9,0-1.6.3-2.2,1-.6.7-1,1.7-1.3,3.1l3.3-1.6c1.3-.6,2.2-1.2,2.7-1.7-.6-.6-1.5-.9-2.6-.9Z"/>
        <path class="cls-25" d="M1310.2,241.6c0,.9-.4,1.4-1.1,1.4s-.9-.4-.9-1.1,0-.4,0-.8v-.9c-1.2.1-2.1.5-2.7,1-.6.5-1.2,1.2-1.6,2.2v6c0,.7-.3,1.1-1,1.1s-.9-.4-.9-1.1v-7.7c0-.2,0-.6,0-1.1,0-.5,0-.8,0-1.1,0-.7.3-1.1.9-1.1s1,.6,1.1,1.8c1.4-1.4,2.9-2,4.5-2s1,.2,1.3.7.4,1.1.4,2,0,.6,0,.8Z"/>
        <path class="cls-25" d="M1326,234.2c-1.7,0-2.7,1.2-2.9,3.7v.7c1.2,0,2-.1,2.3-.1,1.1,0,1.7.4,1.7,1.1s-.3.9-.8,1c-.2,0-.5,0-.8,0-.3,0-1.1,0-2.5.1v2.5c0,.5,0,1.1,0,2,0,.9,0,1.6,0,2,0,1.4,0,2.5-.2,3.3-.1.6-.5.9-1,.9s-.5,0-.7-.3c-.2-.2-.3-.4-.3-.7s0-.1,0-.2c.1-1,.2-2,.2-3.1v-3s0-3.2,0-3.2c-.9,0-1.4.1-1.7.1-.7,0-1.1-.4-1.1-1.1s.6-1.1,1.9-1.1h1c0-.4,0-1,.2-1.7.2-1.6.6-2.8,1.2-3.6.7-.9,1.9-1.4,3.5-1.4s1.5.4,1.5,1.1-.5,1.1-1.4,1.1Z"/>
        <path class="cls-25" d="M1334.9,250.2c-1.6,0-2.9-.4-3.9-1.2-1.1-.9-1.6-2.2-1.6-3.9s.4-3.5,1.3-4.8c1-1.4,2.3-2.1,3.9-2.1s2.1.2,2.9.6c.9.5,1.4,1.3,1.4,2.3s-.4,1.4-1.2,2c-.4.3-1.1.7-2.3,1.2l-4.1,2c.4.6.9,1.1,1.5,1.4.6.3,1.3.5,2.1.5s1.1,0,1.7-.3c.8-.2,1.4-.6,1.6-1,.2-.4.5-.6.8-.6s.5,0,.7.3c.2.2.3.4.3.7,0,.8-.6,1.5-1.9,2.1-1.1.5-2.1.7-3.2.7ZM1334.6,240.2c-.9,0-1.6.3-2.2,1-.6.7-1,1.7-1.3,3.1l3.3-1.6c1.3-.6,2.2-1.2,2.7-1.7-.6-.6-1.5-.9-2.6-.9Z"/>
        <path class="cls-25" d="M1344.6,241l-.2,5.5c0,.6,0,1.4,0,2.6,0,.7-.4,1.1-1,1.1s-1-.4-1-1.1,0-2.2.1-4,.1-3.1.1-4,0-2.5,0-4c0-1.5,0-2.8,0-4s.3-1.1,1-1.1,1.1.4,1.1,1.1c0,1.2,0,2.5,0,4,0,1.5,0,2.8,0,4Z"/>
        <path class="cls-25" d="M1350.4,244.7c0,.4,0,1.1,0,2s0,1.5,0,2,0,.6-.3.8-.4.3-.8.3-.6-.1-.8-.3c-.2-.2-.3-.5-.3-.8s0-1.1,0-2,0-1.5,0-2c0-.7,0-1.6.1-2.6,0-1,.1-1.9.1-2.6s0-.6.3-.8.4-.3.8-.3.6.1.8.3c.2.2.3.5.3.8,0,.7,0,1.6-.1,2.6s-.1,1.9-.1,2.6ZM1349.9,235.8c-.3,0-.6-.1-.9-.4s-.4-.6-.4-.9.1-.7.4-.9.5-.4.9-.4.6.1.9.4c.2.2.4.6.4.9s-.1.7-.4.9c-.2.2-.5.4-.9.4Z"/>
        <path class="cls-25" d="M1362.8,240.8c-.6.8-1.4,1.9-2.4,3.4-1.1,1.7-2,3-2.5,3.7.7,0,1.4,0,1.9,0s.7,0,1.2.2c.5.1,1,.2,1.2.2s.6.1.8.3c.2.2.3.5.3.8s0,.6-.3.8-.4.3-.8.3-.7,0-1.2-.2c-.5-.1-1-.2-1.2-.2-1.6,0-3.1.2-4.5.5-.1,0-.3,0-.4,0-.7,0-1-.3-1-.9s.2-.7.5-1.1c1.9-1.7,3.9-4.4,6-8.1-.9,0-1.6,0-2.1,0-1.1,0-2.1,0-3.2-.3-.6,0-.9-.5-.9-1.1s0-.6.3-.8.4-.3.7-.3.9,0,1.6.1,1.2.1,1.6.1,1.2,0,2.2-.1,1.7-.1,2.2-.1.9.3.9.8-.3,1.2-.8,1.9Z"/>
        <path class="cls-25" d="M1367.1,250.7c-.4,0-.7-.1-.9-.4s-.4-.6-.4-1,.1-.7.4-1,.6-.4.9-.4.7.1.9.4c.3.3.4.6.4,1s-.1.7-.4,1c-.3.3-.6.4-.9.4Z"/>
      </g>
    </g>
  </g>
</svg>