<?xml version="1.0" encoding="UTF-8"?>
<svg id="OBJECTS" xmlns="http://www.w3.org/2000/svg" xmlns:xlink="http://www.w3.org/1999/xlink" viewBox="0 0 750 500">
  <defs>
    <style>
      .cls-1 {
        fill: #fffcfa;
      }

      .cls-1, .cls-2, .cls-3, .cls-4, .cls-5, .cls-6, .cls-7, .cls-8, .cls-9, .cls-10, .cls-11, .cls-12, .cls-13, .cls-14, .cls-15, .cls-16, .cls-17, .cls-18 {
        stroke-width: 0px;
      }

      .cls-19 {
        stroke: #75aa6f;
      }

      .cls-19, .cls-5, .cls-20, .cls-21, .cls-22 {
        fill: none;
      }

      .cls-19, .cls-20, .cls-21 {
        stroke-miterlimit: 10;
      }

      .cls-19, .cls-21, .cls-22 {
        stroke-width: 2px;
      }

      .cls-2 {
        fill: #78ad60;
      }

      .cls-3 {
        fill: #d6d18e;
      }

      .cls-4 {
        fill: #b7ce82;
      }

      .cls-6 {
        fill: #5e7573;
      }

      .cls-7 {
        fill: #cccc81;
      }

      .cls-8 {
        fill: #ced39b;
      }

      .cls-9 {
        fill: #73934e;
      }

      .cls-20 {
        stroke: #fffcfa;
        stroke-width: 3px;
      }

      .cls-20, .cls-22 {
        stroke-linecap: round;
      }

      .cls-10 {
        fill: #b0d887;
      }

      .cls-11 {
        fill: #809e78;
      }

      .cls-12 {
        fill: #6a7c5d;
      }

      .cls-13 {
        fill: #296828;
      }

      .cls-14 {
        fill: #82b24f;
      }

      .cls-23 {
        clip-path: url(#clippath);
      }

      .cls-15 {
        fill: #4b7c2c;
      }

      .cls-16 {
        fill: #bfceb6;
      }

      .cls-17 {
        fill: #95bcbc;
      }

      .cls-21, .cls-22 {
        stroke: #0d420f;
      }

      .cls-18 {
        fill: #326057;
      }

      .cls-22 {
        stroke-linejoin: round;
      }
    </style>
    <clipPath id="clippath">
      <rect class="cls-5" width="750" height="500"/>
    </clipPath>
  </defs>
  <rect class="cls-16" width="750" height="500"/>
  <g class="cls-23">
    <path class="cls-7" d="M765.76,381.44c-20.65-3.3-42.47,1.42-59.91,12.96-17.23,11.39-29.74,28.71-46.33,41.02-17.58,13.06-39.29,20-61.13,21.56-25.35,1.81-50.61-3.34-75.85-6.3-25.25-2.96-51.78-3.56-75.03,6.71-23.25,10.27-42.19,33.97-39.71,59.27l366.43-.07c-2.82-45.05-5.64-90.1-8.46-135.15Z"/>
    <path class="cls-12" d="M28.91,40.43c20.99-7.4,43.76-8.27,65.95-6.61,13.6,1.02,27.54,3.1,39.31,10,24.07,14.13,33.21,46.63,25.56,73.47-4.73,16.58-14.79,31.55-17.34,48.6-1.85,12.34.38,24.87.64,37.34s-1.93,25.94-10.72,34.78c-5.15,5.18-12.09,8.24-19.12,10.23-24.57,6.95-51.22,1.91-74.67-8.19-14.91-6.42-29.16-15.02-40.05-27.06-24.96-27.58-28.23-67.43-25.87-102.87C-25.16,76.17-3.6,51.88,28.91,40.43Z"/>
    <path class="cls-18" d="M539.71,291.92c10.6-16.96,21.74-32.13,30.23-9.89,4.43,11.61,1.95,24.89,8.61,35.9,10.59,17.49,42.56,1.31,58.09,5.87,9.27,2.73,12.52,12.58,5.14,19.46-8.82,8.21-38.1,10.88-36.79,25.07,1.1,11.85,9.67,22.86,12.84,34.25,4.37,15.68-4.39,22.51-19.14,18.02-10.51-3.2-19.56-9.94-27.35-17.5-6.39-6.21-12.62-20.6-23.11-15.27-18.49,9.38-31.54,27.23-54.4,26.6-17.68-.49-13.47-17.94-9.75-29.61,4.14-12.98,16.27-30.61,1.36-40.29-8.19-5.31-19.15-11.4-25.34-19.14-21.76-27.25,52.52-6.01,59.06-7.37,5.84-1.21,13.07-14.1,20.56-26.09Z"/>
    <path class="cls-19" d="M596.22,227.88c-9.44,4.22-16.86,12.73-19.74,22.66-.9,3.1-1.36,6.5-.19,9.5,1.05,2.68,3.26,4.7,5.15,6.87,10.11,11.58,11.46,29.94,3.16,42.87-3.62,5.63-8.74,10.15-12.62,15.6-3.88,5.45-6.5,12.56-4.15,18.83,1.83,4.88,6.23,8.21,9.95,11.86,9.51,9.35,15.36,23.96,10.16,36.24-4.93,11.64-18.78,19.62-18.61,32.26.16,11.79,12.84,20.15,14.3,31.85,1.96,15.77-16.4,26.38-21.2,41.53-4.1,12.93,2.36,26.67,9.3,38.32"/>
    <path class="cls-21" d="M625.1,227.88c-9.44,4.22-16.86,12.73-19.74,22.66-.9,3.1-1.36,6.5-.19,9.5,1.05,2.68,3.26,4.7,5.15,6.87,10.11,11.58,11.46,29.94,3.16,42.87-3.62,5.63-8.74,10.15-12.62,15.6-3.88,5.45-6.5,12.56-4.15,18.83,1.83,4.88,6.24,8.21,9.95,11.86,9.51,9.35,15.36,23.96,10.16,36.24-4.93,11.64-18.78,19.62-18.61,32.26.16,11.79,12.84,20.15,14.3,31.85,1.96,15.77-16.4,26.38-21.2,41.53-4.1,12.93,2.36,26.67,9.3,38.32"/>
    <path class="cls-19" d="M652.68,227.88c-9.44,4.22-16.86,12.73-19.74,22.66-.9,3.1-1.36,6.5-.19,9.5,1.05,2.68,3.26,4.7,5.15,6.87,10.11,11.58,11.46,29.94,3.16,42.87-3.62,5.63-8.74,10.15-12.62,15.6-3.88,5.45-6.5,12.56-4.15,18.83,1.83,4.88,6.24,8.21,9.95,11.86,9.51,9.35,15.36,23.96,10.16,36.24-4.93,11.64-18.78,19.62-18.61,32.26.16,11.79,12.84,20.15,14.3,31.85,1.96,15.77-16.4,26.38-21.2,41.53-4.1,12.93,2.36,26.67,9.3,38.32"/>
    <path class="cls-21" d="M681.55,227.88c-9.44,4.22-16.86,12.73-19.74,22.66-.9,3.1-1.36,6.5-.19,9.5,1.05,2.68,3.26,4.7,5.15,6.87,10.11,11.58,11.46,29.94,3.16,42.87-3.62,5.63-8.74,10.15-12.62,15.6-3.88,5.45-6.5,12.56-4.15,18.83,1.83,4.88,6.24,8.21,9.95,11.86,9.51,9.35,15.36,23.96,10.16,36.24-4.93,11.64-18.78,19.62-18.61,32.26.16,11.79,12.84,20.15,14.3,31.85,1.96,15.77-16.4,26.38-21.2,41.53-4.1,12.93,2.36,26.67,9.3,38.32"/>
    <path class="cls-9" d="M362.84,186.34c-9.24-1.03-15.95-9.5-19.28-18.19-10.43-27.2,4.23-60.23,29.64-74.48,25.4-14.25,58.35-11.09,83.29,3.97,9.52,5.75,17.9,12.55,8.35,20.71-9.85,8.42-24.54,13.94-35.62,20.87-23.01,14.41-45.18,30.14-66.38,47.11Z"/>
    <path class="cls-3" d="M402.4,199.97c-7.38-.82-12.75-7.59-15.41-14.53-8.34-21.73,3.38-48.13,23.68-59.51,20.3-11.39,46.63-8.86,66.55,3.17,7.6,4.59,14.31,10.03,6.68,16.55-7.87,6.72-19.61,11.14-28.46,16.68-18.38,11.51-36.1,24.09-53.04,37.64Z"/>
    <path class="cls-4" d="M175.1,394.75c3.05-11.62,9-22.33,16.24-31.92,16.11-21.35,39.38-37.72,65.54-43.25,26.17-5.53,55.05.5,75.34,17.92,16.92,14.53,26.99,35.74,31.95,57.49,4.96,21.74,5.25,44.24,5.52,66.54-30.17-2.23-60.51-2.04-90.65.56-2.03-13.16,17.89-22.68,14.81-35.63-2.29-9.63-16.61-14.75-15.01-24.52.61-3.7,3.58-6.81,3.64-10.56.09-6.56-8.12-9.6-14.66-10.03-6.55-.44-14.58-1.04-17.28-7.02-.75-1.66-1.01-3.64-2.37-4.86-2.47-2.21-6.32-.26-8.99,1.7-9.42,6.92-18.84,13.84-28.26,20.77-3.13,2.3-6.64,5.57-5.7,9.34.5,2.01,2.2,3.52,2.84,5.49,2.21,6.86-9.18,12.7-6.88,19.53,1.15,3.43,5.35,5.02,6.78,8.35.66,1.53.65,3.26.63,4.93-.09,8.35-.19,66.31-.28,74.65-6.94.13-21.18.73-27.57-1.94-7.47-3.12-5.05-55.94-5.95-63.95-1.99-17.77-4.32-36.02.31-53.59Z"/>
    <path class="cls-10" d="M157.29,414.82c-20.17-.08-42.51-.17-57.56,13.26-3.49,3.12-6.48,8.56-3.49,12.17,1.22,1.47,3.13,2.15,4.98,2.65,7.94,2.16,16.28,2.21,24.51,2.21,14.07,0,28.15-.12,42.22-.36,10.67-.18,67.54-1.51,59.5-21.65-7.26-18.19-55.88-8.23-70.16-8.28Z"/>
    <path class="cls-14" d="M131.3,400.3c7.15.42,13.3,7.22,13.01,14.37-.29,7.15-6.98,13.43-14.14,13.26-7.16-.17-13.55-6.75-13.5-13.91.04-7.16,6.51-13.66,13.67-13.75"/>
    <path class="cls-18" d="M636.31,161.02c-8.55-11.6-12.27-26.2-12.99-40.59-.72-14.4,1.37-28.77,3.45-43.03,21.11,13.84,41.9,29.02,56.92,49.31,7.86,10.61,32.92,56.17,14.66,65.3-16.02,8.01-53.43-19.31-62.03-30.99Z"/>
    <path class="cls-12" d="M702.73,225.03c6-9.87,15.29-17.25,24.59-24.11,13.17-9.72,26.78-18.84,40.77-27.34-.48,14.54-1.65,29.21-5.86,43.14-4.21,13.93-11.68,27.2-23.02,36.33-8.32,6.7-28.33,16.78-38.91,9.48-10.61-7.32-2.63-29.19,2.42-37.5Z"/>
    <path class="cls-17" d="M272.72,191.09c-1.62,1.29-2.87,3.31-3.91,5.1-1.47,2.53-2.64,5.33-2.79,8.28-.23,4.65,3.21,8.93,7.83,9.55,2.31.31,4.22-.22,6.3-1.19.76-.35,1.47-.8,2.23-1.14l-1.79.76c.26-.1.51-.18.78-.23l-1.99.27c.12-.02.24-.02.36,0l-1.99-.27c.12.01.23.04.33.09l-1.79-.76c-2.01-2.54-2.73-3.24-2.15-2.09l-.76-1.79c.06.15.1.31.12.48l-.27-1.99c.06.63,0,1.25-.03,1.88-.06,1.15.07,2.25.32,3.4.53,2.47,2.83,4.64,5.24,5.24,1.54.39,3.12.41,4.69.54l-1.99-.27c.32.04.6.11.89.23l-1.79-.76c.91.47-1.3-1.27-.71-.61.51.56.32.75-.31-.52.29.59.68,1.12.95,1.72l-.76-1.79c1.05,2.55,1.58,5.2,2.73,7.73,1.53,3.35,4.17,5.78,7.63,7.01,3.7,1.32,8.37-1.49,9.23-5.24.96-4.21-1.28-7.81-5.24-9.23l-.27-.1,1.79.76c-1.34-.64.62.34.54.54-.15-.14-.3-.28-.44-.44.79,1.07,1.02,1.36.68.88-.34-.65-.74-1.24-1.04-1.92l.76,1.79c-1.25-3.02-1.63-6.36-3.5-9.13-1.6-2.37-3.57-4.34-6.38-5.22-1.47-.46-3.02-.41-4.53-.55l1.99.27c-.32-.04-.62-.1-.93-.18l5.24,5.24-.04-.21.27,1.99c-.11-1.02.1-2.05.02-3.07-.28-3.72-2.33-7.28-6.16-8.31-2.6-.69-4.88-.21-7.25.89-.79.37-1.54.83-2.34,1.19l1.79-.76c-.27.11-.54.2-.83.25l1.99-.27c-.21.02-.38.02-.58,0l1.99.27c-.13-.02-.25-.06-.36-.12l1.79.76c.86.52,1.54,1.22,2.04,2.09-.08-.12-.15-.25-.21-.38l.76,1.79c-.04-.1-.07-.21-.09-.32l.27,1.99c-.04-.33-.03-.65,0-.98l-.27,1.99c.13-.76.38-1.48.67-2.19l-.76,1.79c.51-1.16,1.12-2.27,1.83-3.32.15-.23.31-.44.47-.67.67-.95-1.28,1.53-.57.75.29-.32.56-.64.91-.91,1.4-1.12,2.2-3.6,2.2-5.3,0-1.84-.82-4.04-2.2-5.3s-3.31-2.29-5.3-2.2c-2.11.09-3.66.89-5.3,2.2h0Z"/>
    <path class="cls-6" d="M304.08,203.18c0,2.04-.17,4.22.32,6.22.61,2.49,2.23,4.57,4.45,5.83,2.04,1.16,4.63,1.5,6.94,1.27,1.23-.12,2.67-.28,3.88-.67.58-.19,1.13-.44,1.73-.59l-1.99.27c.17-.04.34-.04.51-.02l-1.99-.27c.17.03.33.07.48.14l-1.79-.76.18.11-1.52-1.17.14.13-1.17-1.52c.08.09.14.19.18.3l-.76-1.79.04.17-.27-1.99c.02.13.02.26,0,.39l.27-1.99c-.05.3-.13.58-.24.87l.76-1.79c-.83,1.96-2.1,3.74-2.54,5.87-.63,3.09-.14,6.2,2.14,8.53,1.98,2.02,4.46,2.57,7.16,2.65l-1.99-.27.25.05-1.79-.76.24.13-1.52-1.17.25.23-1.17-1.52c.09.11.16.24.21.37l-.76-1.79c.18.5.29,1.02.37,1.55l-.27-1.99c.1.73.01,1.44-.02,2.17-.05,1.15.13,2.31.45,3.4.64,2.19,2.18,4.03,4.14,5.16,1.67.97,3.35,1.23,5.24,1.37l-1.99-.27.15.03-1.79-.76c.12.04.23.1.32.19l-1.52-1.17c.16.14.3.3.43.47l-1.17-1.52c.2.28.34.54.48.85l-.76-1.79c.27.73.45,1.49.7,2.23.64,1.86,1.71,3.47,3.45,4.48,1.61.94,3.98,1.34,5.78.76,3.66-1.19,6.61-5.26,5.24-9.23-.69-1.99-1.21-3.92-2.52-5.63-.81-1.05-1.63-1.96-2.86-2.59-1.48-.75-2.87-.9-4.5-1.11l1.99.27c-.21-.04-.41-.09-.6-.17l1.79.76c-.18-.07-.35-.16-.51-.27l1.52,1.17c-.13-.1-.25-.21-.34-.34l1.17,1.52-.12-.19.76,1.79c-.09-.23-.14-.42-.18-.66l.27,1.99c-.05-.72.08-1.43.07-2.14-.01-1.22-.19-2.48-.5-3.67-.45-1.74-1.29-3.31-2.59-4.56-1.86-1.78-4.11-2.35-6.61-2.38l1.99.27c-.2-.01-.39-.05-.58-.12l1.79.76-.22-.11,1.52,1.17c-.12-.08-.23-.17-.31-.29l1.17,1.52-.1-.18.76,1.79c-.05-.13-.08-.27-.09-.41l.27,1.99c0-.15,0-.3.02-.45l-.27,1.99c.11-.65.35-1.25.59-1.86l-.76,1.79c.36-.8.86-1.54,1.21-2.34,1.28-2.9,1.94-6.16.16-9.08-1.68-2.76-4.67-4.45-7.92-4.29-2,.1-3.66.97-5.61,1.26l1.99-.27c-.78.08-1.53.09-2.31-.02l1.99.27c-.26-.05-.49-.11-.74-.19l1.79.76c-.2-.09-.36-.18-.54-.31l1.52,1.17c-.1-.08-.19-.18-.26-.29l1.17,1.52c-.08-.11-.14-.23-.18-.36l.76,1.79c-.05-.14-.09-.29-.11-.44l.27,1.99c-.18-1.37-.05-2.84-.05-4.23,0-3.92-3.44-7.68-7.5-7.5s-7.51,3.3-7.5,7.5h0Z"/>
    <path class="cls-6" d="M263.92,230.9c-1.17,3.66-.9,7.76,1.93,10.63,1,1.02,2.18,1.8,3.46,2.41.39.19.77.41,1.16.6,1.06.51-1.14-.96-.65-.49s-1.1-1.68-.5-.55l-.76-1.79c.18.43.29.83.36,1.29l-.27-1.99c.18,1.4.21,2.85.61,4.21.63,2.15,1.89,3.83,3.63,5.18,1.85,1.43,3.99,2.06,6.32,2.17,1.02.05,2.03-.09,3.04-.02l-1.99-.27c.38.06.7.14,1.06.27l-1.79-.76.23.12c-.64-.34-1.16-.81-1.54-1.41-.84-1.1-.32-.4-.16-.08l-.76-1.79c.23.55.36,1.11.46,1.7l-.27-1.99c.41,3.04.09,6.12,1.62,8.92,1.2,2.19,3.6,3.7,6,4.21,1.52.32,2.97.29,4.48.48l-1.99-.27c.12.02.24.05.35.09l-1.79-.76c.63.29.28-.01-1.07-.9-.9-1.31-1.17-1.65-.81-1.01l-.76-1.79c.22.52.32,1.05.4,1.62l-.27-1.99c.15,1.75.05,3.58.72,5.23.76,1.88,1.63,3.42,3.45,4.48,1.61.94,3.98,1.34,5.78.76s3.57-1.71,4.48-3.45,1.49-3.95.76-5.78c-.15-.37-.25-.69-.32-1.08l.27,1.99c-.41-3.53-.35-6.89-3.08-9.59-1.7-1.68-3.79-2.32-6.11-2.56-.71-.07-1.43-.06-2.15-.16l1.99.27c-.39-.07-.76-.14-1.14-.27l1.79.76c-1.79-.79,2.57,3.29,1.89,1.99l.76,1.79c-.1-.25-.14-.5-.18-.77l.27,1.99c-.36-3.32-.22-6.65-1.82-9.7-1.23-2.36-3.48-4.19-6.05-4.9-2.1-.58-4.04-.22-6.12-.43l1.99.27c-.25-.03-.49-.09-.72-.17l1.79.76c-.69-.34-.5-.13.56.6.77,1.14.97,1.39.62.74l.76,1.79c-.15-.4-.24-.79-.31-1.21l.27,1.99c-.16-1.41-.2-2.87-.63-4.22-.59-1.87-1.58-3.47-2.97-4.84-.96-.94-2.11-1.66-3.31-2.24-.38-.18-.82-.5-1.22-.62,1.09.92,1.38,1.13.87.65.86,1.25,1.12,1.57.8.95l.76,1.79c-.06-.13-.1-.27-.12-.42l.27,1.99c-.03-.24-.03-.45-.01-.7l-.27,1.99c.08-.6.25-1.17.43-1.74,1.19-3.74-1.4-8.35-5.24-9.23-4.1-.93-7.95,1.23-9.23,5.24h0Z"/>
    <path class="cls-6" d="M303.37,246.09c.9,2.96,3.07,5.15,6.03,6.05.76.23,1.57.24,2.33.51l-1.79-.76c.17.08.33.17.48.29l-1.52-1.17c.17.13.33.27.47.44l-1.17-1.52c.19.25.33.47.46.75l-.76-1.79c.18.47.28.94.36,1.44l-.27-1.99c.21,1.65.3,3.36.81,4.96.8,2.51,2.31,4.68,4.58,6.07,2.06,1.27,4.3,1.66,6.67,1.9,1.48.15,2.95-.05,4.43.04l-1.99-.27c.21.02.42.07.62.16l-1.79-.76.28.15-1.52-1.17c.16.11.3.25.41.4l-1.17-1.52c.15.22.27.43.38.67l-.76-1.79c.21.56.33,1.13.42,1.72l-.27-1.99c.25,2.23-.16,4.52.43,6.72,1.23,4.49,5.54,6.7,9.94,6.46l-1.99-.27.29.04-1.79-.76c.19.05.36.15.5.27l-1.52-1.17.17.17-1.17-1.52c.47.62.8,1.33,1.11,2.04l-.76-1.79c.45,1.16.84,2.36,1.44,3.46,1.08,1.99,3.1,3.58,5.28,4.14,3.8.96,8.31-1.23,9.23-5.24s-1.17-8.2-5.24-9.23l-.19-.05,1.79.76-.17-.1,1.52,1.17c-.12-.09-.22-.2-.3-.33l1.17,1.52c-.14-.23-.26-.45-.37-.7l.76,1.79c-.64-1.58-1.17-3.24-2.07-4.69s-2.09-2.67-3.6-3.47c-1.21-.65-2.68-1.07-4.07-1.07-.43,0-.84.06-1.27.02l1.99.27c-.26-.04-.5-.09-.75-.17l1.79.76c-.12-.05-.23-.11-.33-.19l1.52,1.17-.12-.12,1.17,1.52c-.08-.09-.13-.19-.18-.3l.76,1.79c-.05-.12-.08-.25-.1-.38l.27,1.99c-.12-1.08.01-2.18-.03-3.26-.09-2.39-.47-4.62-1.54-6.77-1.55-3.11-4.76-4.92-8.17-5.1-1.55-.08-3.08.11-4.64-.07l1.99.27c-.73-.11-1.43-.26-2.12-.54l1.79.76c-.23-.11-.44-.23-.65-.38l1.52,1.17c-.18-.15-.33-.3-.49-.48l1.17,1.52c-.19-.26-.33-.52-.45-.81l.76,1.79c-.27-.74-.41-1.5-.52-2.27l.27,1.99c-.4-3.28-.88-6.21-3.35-8.65-1.19-1.18-2.84-2.17-4.49-2.56-.67-.16-1.35-.18-1.99-.42l1.79.76c-.14-.06-.26-.13-.37-.22l1.52,1.17-.14-.15,1.17,1.52-.11-.18.76,1.79-.07-.22c-1.15-3.75-5.3-6.51-9.23-5.24s-6.47,5.21-5.24,9.23h0Z"/>
    <path class="cls-6" d="M346.02,249.83c1.13,1.97,2.78,3.5,4.17,5.27l-1.17-1.52c.36.48.66.98.91,1.53l-.76-1.79c.16.41.28.82.37,1.26l-.27-1.99c.15,1.12-.13,2.23-.12,3.35.03,2.59.85,5.2,2.77,7.02,2.72,2.59,6.37,3.15,9.94,3.22l-1.99-.27.28.08-1.79-.76.25.14-1.52-1.17c.15.11.27.24.37.4l-1.17-1.52c.1.16.18.32.24.5l-.76-1.79c.19.57.3,1.16.41,1.75l-.27-1.99c.36,2.93-.03,5.75,1.6,8.43,1.09,1.79,2.64,2.96,4.51,3.76.92.39,1.86.64,2.79.99l-1.79-.76c1.46.63,2.87,1.46,4.42,1.83l-5.24-5.24.08.39c.81,3.84,5.53,6.43,9.23,5.24,4.06-1.31,6.11-5.11,5.24-9.23l-.08-.39c-.52-2.44-2.84-4.67-5.24-5.24-.36-.09-.68-.19-1.02-.32l1.79.76c-1.75-.78-3.51-1.44-5.29-2.12l1.79.76c-.25-.12-.45-.23-.67-.39l1.52,1.17-.18-.18,1.17,1.52c-.12-.14-.22-.3-.29-.47l.76,1.79c-.12-.36-.18-.69-.23-1.06l.27,1.99c-.2-2.68-.13-5.33-1.2-7.86-.82-1.95-2.05-3.56-3.93-4.62-1.28-.72-2.89-1.17-4.37-1.11-.37.02-.72.08-1.1.04l1.99.27c-.86-.12-1.7-.31-2.51-.64l1.79.76c-.23-.11-.43-.22-.64-.35l1.52,1.17c-.11-.08-.21-.17-.3-.28l1.17,1.52c-.09-.12-.16-.24-.2-.38l.76,1.79c-.06-.17-.1-.35-.12-.53l.27,1.99c-.09-1,.09-1.98.12-2.98.07-2.14-.55-4.09-1.44-6-1.03-2.22-2.92-3.84-4.4-5.74l1.17,1.52c-.25-.34-.48-.69-.69-1.05-1.95-3.4-6.87-4.87-10.26-2.69s-4.78,6.62-2.69,10.26h0Z"/>
    <path class="cls-17" d="M308.65,290.56c.17-.03.35-.04.52-.01l-1.99-.27.2.05-1.79-.76.16.08-1.52-1.17c.1.07.19.15.26.24l-1.17-1.52c.71.95,1.35,1.97,2.24,2.75,1.52,1.33,2.95,2.11,4.83,2.81,1.24.46,2.59.66,3.91.68.78.01,1.55-.1,2.32-.04l-1.99-.27c.28.04.52.1.78.19l-1.79-.76c.15.06.29.15.42.25l-1.52-1.17c.19.16.33.32.48.51l-1.17-1.52c.19.28.34.57.48.88l-.76-1.79c.24.63.4,1.27.51,1.93l-.27-1.99c.15,1.18.22,2.39.48,3.56.4,1.78,1.31,3.14,2.45,4.5s2.71,2.33,4.12,3.4l-1.52-1.17c1.83,1.42,3.64,2.85,5.53,4.21l-1.52-1.17.22.21-1.17-1.52c.3.39.48.84.77,1.24,1.22,1.62,2.44,2.89,4.48,3.45,1.8.49,4.19.27,5.78-.76s3.01-2.57,3.45-4.48.43-4.2-.76-5.78c-.24-.32-.39-.67-.6-1.01-.65-1.08-1.38-1.81-2.33-2.54-.82-.63-1.69-1.17-2.51-1.8l1.52,1.17c-1.65-1.29-3.28-2.61-4.95-3.87l1.52,1.17c-.52-.41-1.01-.83-1.43-1.35l1.17,1.52c-.12-.16-.22-.34-.3-.52l.76,1.79c-.14-.36-.23-.71-.29-1.09l.27,1.99c-.44-3.49-.93-6.77-3.47-9.45-1.59-1.68-3.61-2.52-5.85-2.82-1.32-.18-2.57-.01-3.88-.13l1.99.27c-.47-.08-.92-.21-1.36-.38l1.79.76c-.55-.24-1.05-.52-1.52-.88l1.52,1.17c-.21-.18-.4-.36-.58-.56l1.17,1.52c-.63-.82-1.19-1.71-1.92-2.44-1.55-1.55-3.99-2.53-6.18-2.32-2.04.2-3.81.7-5.3,2.2-1.3,1.3-2.28,3.44-2.2,5.3s.72,3.95,2.2,5.3c1.38,1.27,3.36,2.39,5.3,2.2h0Z"/>
    <path class="cls-17" d="M299.4,174.25c-.08,0-.15,0-.22,0l1.99.27c-.11-.02-.2-.04-.3-.08l1.79.76c-.09-.04-.17-.09-.26-.15l1.52,1.17c-.11-.09-.2-.18-.28-.29l1.17,1.52c-.16-.21-.28-.44-.38-.68l.76,1.79c-.53-1.26-.87-2.62-1.58-3.81-.84-1.42-2.03-2.53-3.42-3.41-.92-.58-2.01-.93-3-1.34l1.79.76c-.35-.15-.68-.3-.99-.52l1.52,1.17c-.11-.09-.2-.18-.3-.28l1.17,1.52c-.21-.27-.33-.58-.47-.89-.36-.81-1.02-1.69-1.62-2.24-.64-.59-1.34-1.15-2.1-1.59-.29-.17-.59-.32-.87-.52l1.52,1.17c-.11-.09-.19-.17-.28-.27l1.17,1.52c-.04-.05-.08-.11-.1-.17l.76,1.79c-.04-.1-.06-.2-.08-.31l.27,1.99c-.03-.33,0-.66.03-.99.07-.95-.04-2.01-.27-2.9-.38-1.45-1.13-2.79-2.19-3.84-.48-.47-1.02-.92-1.62-1.24-.44-.24-1.43-.67-1.91-.8-.56-.16-1.55-.28-2.13-.3-.12,0-.23-.01-.34,0-2,.13-3.85.75-5.3,2.2-1.3,1.3-2.28,3.44-2.2,5.3s.72,3.95,2.2,5.3,3.33,2.33,5.3,2.2c.12,0,.23,0,.34,0l-1.99-.27c.06,0,.12.02.18.05l-1.79-.76c.05.02.1.05.14.08l-1.52-1.17s.08.07.11.11l-1.17-1.52c.05.07.08.13.12.2l-.76-1.79c.03.08.05.16.06.25l-.27-1.99c.05.35.02.71,0,1.06-.01.17-.03.34-.03.51,0,.08,0,.16,0,.24.02.57.14,1.61.29,2.17.38,1.48,1.23,2.96,2.38,3.98.95.84,1.79,1.26,2.76,1.93l-1.52-1.17c.11.09.21.18.31.28l-1.17-1.52c.23.31.35.64.51.99.38.82,1,1.56,1.62,2.19,1.46,1.45,2.88,1.92,4.73,2.7l-1.79-.76c.37.16.73.33,1.06.56l-1.52-1.17c.19.15.37.31.52.5l-1.17-1.52c.15.21.25.43.35.66l-.76-1.79c.5,1.24.84,2.58,1.54,3.73,1.64,2.71,4.47,4.49,7.69,4.46,1.93-.02,3.93-.82,5.3-2.2,1.3-1.3,2.28-3.44,2.2-5.3s-.72-3.95-2.2-5.3-3.28-2.22-5.3-2.2h0Z"/>
    <path class="cls-6" d="M258.68,215.85c-.07-1.01-.19-2.07-.47-3.05-.12-.42-.25-.82-.31-1.25l.27,1.99c-.02-.32,0-.62.01-.94.05-.93-.06-1.72-.26-2.69-.32-1.6-1.16-3.15-2.3-4.31-1.07-1.09-2.38-1.88-3.86-2.28-.94-.25-1.89-.24-2.84-.36l1.99.27c-.14-.02-.26-.05-.4-.1l1.79.76c-.14-.06-.25-.12-.37-.21l1.52,1.17c-.12-.11-.21-.22-.31-.34l1.17,1.52c-.72-.95-1.34-2.02-2.24-2.81-.99-.89-2.09-1.65-3.15-2.46l1.52,1.17c-1.54-1.2-2.82-2.67-4.2-4.05s-3.39-2.2-5.3-2.2-4.04.82-5.3,2.2-2.29,3.31-2.2,5.3.76,3.86,2.2,5.3c.85.85,1.66,1.74,2.52,2.58,1.25,1.22,2.67,2.24,4.06,3.3l-1.52-1.17c.42.33.86.66,1.2,1.07l-1.17-1.52c1.17,1.52,2.08,2.99,3.8,3.99s3.26,1.05,5.12,1.28l-1.99-.27c.12.02.22.05.33.09l-1.79-.76c.07.03.14.08.2.13l-1.52-1.17c.07.06.13.13.18.2l-1.17-1.52c.06.09.12.19.16.3l-.76-1.79c.08.22.13.42.17.65l-.27-1.99c.02.35-.02.7-.03,1.05-.04.93.13,1.9.31,2.8.13.63.37,1.23.47,1.87l-.27-1.99.02.22c.14,2.01.74,3.85,2.2,5.3,1.3,1.3,3.44,2.28,5.3,2.2s3.95-.72,5.3-2.2,2.34-3.33,2.2-5.3h0Z"/>
    <path class="cls-6" d="M259.41,171.59l-.14.02,1.99-.27c-.13.01-.25.02-.38,0l1.99.27c-.11-.02-.21-.05-.32-.09l1.79.76c-.1-.05-.18-.1-.27-.17l1.52,1.17c-.08-.07-.15-.15-.23-.23l1.17,1.52c-.24-.31-.4-.67-.55-1.03l.76,1.79c-.31-.75-.62-1.49-.94-2.23l.76,1.79c-.16-.39-.27-.8-.39-1.21-.29-1-.66-2.01-1.17-2.9-.38-.65-.92-1.32-1.43-1.87s-1.18-1.04-1.86-1.41c-1.23-.66-2.76-1.17-4.16-1.1-.89.04-1.79.22-2.68.36l1.99-.27c-.1.01-.2.02-.3,0l1.99.27-.15-.03,1.79.76c-.09-.03-.18-.08-.25-.13l1.52,1.17c-.1-.08-.18-.16-.26-.26l1.17,1.52c-.07-.11-.12-.21-.18-.32l.76,1.79c-.17-.42-.22-.87-.36-1.3-.35-1.1-.92-2.1-1.39-3.14l.76,1.79c-.07-.19-.13-.37-.16-.57l.27,1.99c-.08-.95-.04-1.84-.32-2.81-.4-1.4-1.22-3-2.36-3.94-.68-.73-1.48-1.25-2.41-1.55-.89-.47-1.86-.68-2.89-.65-1.03-.04-2,.18-2.89.65-.93.3-1.73.82-2.41,1.55-1.31,1.43-2.29,3.31-2.2,5.3.08,1.88.69,4.06,2.2,5.3.08.06.16.13.22.21l-1.17-1.52c.05.06.1.13.14.21l-.76-1.79c.04.11.07.21.09.32l-.27-1.99c.08,1.01.07,2.06.37,3.04.33,1.07.88,2.04,1.35,3.05l-.76-1.79c.14.33.21.67.3,1.01.04.17.09.33.14.5.25.73.55,1.51.95,2.18.23.39.93,1.29,1.24,1.62.06.06.11.12.17.17.86.83,1.66,1.28,2.71,1.72,1.12.47.82.38,2.04.54.5.07.79.14,1.22.13.84-.02,1.69-.21,2.52-.35l-1.99.27c.1-.02.2-.02.3-.01l-1.99-.27c.09,0,.17.03.25.06l-1.79-.76c.1.04.18.09.27.15l-1.52-1.17c.08.07.15.14.22.23l-1.17-1.52c.12.16.2.32.29.5l-.76-1.79c.16.38.26.77.38,1.17.28.97.7,1.87,1.1,2.8l-.76-1.79c.77,1.83,1.26,3.32,2.69,4.75,1.03,1.04,2.4,1.9,3.83,2.28,1.81.48,2.92.34,4.72.02.98-.23,1.83-.68,2.55-1.34.82-.53,1.46-1.23,1.93-2.1.55-.86.84-1.79.89-2.79.22-1,.18-1.99-.13-2.99-.59-1.81-1.71-3.57-3.45-4.48l-1.79-.76c-1.33-.36-2.66-.36-3.99,0h0Z"/>
    <path class="cls-17" d="M349.62,295.67c.92.81,1.89,1.57,2.96,2.17.6.34,1.2.65,1.77,1.05l-1.52-1.17c.29.23.56.48.8.76l-1.17-1.52c.23.3.41.61.56.96l-.76-1.79c.93,2.47,1.56,5,3.68,6.79,1.5,1.27,2.71,1.91,4.58,2.57.68.24,1.38.41,2.04.69l-1.79-.76c.35.16.67.33.98.55l-1.52-1.17c.16.13.29.26.43.42l-1.17-1.52c.2.27.35.54.48.85l-.76-1.79c.29.8.39,1.64.53,2.47.24,1.43.74,2.81,1.47,4.07,1.02,1.76,2.72,3.28,4.53,4.17,1.53.75,3.15,1.28,4.73,1.93l-1.79-.76c.16.07.32.14.47.22,1.86.88,3.73,1.32,5.78.76,1.74-.48,3.63-1.82,4.48-3.45.92-1.74,1.38-3.85.76-5.78-.57-1.77-1.7-3.66-3.45-4.48-1.5-.71-3.04-1.25-4.57-1.87l1.79.76c-.59-.25-1.14-.53-1.66-.9l1.52,1.17c-.24-.19-.44-.38-.64-.61l1.17,1.52c-.16-.22-.29-.45-.41-.7l.76,1.79c-.34-.83-.45-1.71-.59-2.58-.23-1.41-.68-2.82-1.43-4.05-1.03-1.7-2.52-3.14-4.33-3.98-1.4-.65-2.8-1.03-4.22-1.59l1.79.76c-.32-.14-.61-.3-.89-.5l1.52,1.17c-.23-.19-.42-.38-.61-.61l1.17,1.52c-.2-.28-.35-.57-.48-.88l.76,1.79c-.22-.59-.38-1.2-.58-1.79-.62-1.79-1.3-3.06-2.56-4.47-1.45-1.62-3.35-2.39-5.08-3.61l1.52,1.17c-.16-.12-.31-.24-.45-.38-1.49-1.33-3.26-2.2-5.3-2.2-1.84,0-4.04.82-5.3,2.2s-2.29,3.31-2.2,5.3.71,3.98,2.2,5.3h0Z"/>
    <path class="cls-20" d="M193.57,464.79c-2.65-5.5-5.3-10.99-7.95-16.49-.6-1.25-1.22-2.62-.93-3.97.57-2.65,3.98-3.41,5.87-5.36,3.22-3.31,1.27-8.78-.8-12.91-2.07-4.13-3.87-9.7-.51-12.86,1.66-1.56,4.49-2.4,4.7-4.67.13-1.39-.87-2.6-1.61-3.78-3.97-6.31-.19-15.99,7.01-17.94,1.72-.47,3.58-.56,5.13-1.45,2.74-1.57,3.62-5.03,4.44-8.08,2.2-8.2,8.05-17.47,16.49-16.46,2.56.3,4.92,1.57,7.47,1.92,8.14,1.12,14.4-6.91,22.07-9.86,1.05-.41,2.22-.72,3.3-.38,1.02.31,1.78,1.14,2.67,1.74,3.35,2.25,7.8.91,11.8.31,3.33-.51,6.42-.07,8.14,3.04,2.6,4.7-1.75,8.91,4.86,11.65,5.22,2.16,12.67.93,11.77,8.99-.23,2.1-1.44,4.31-.48,6.19.9,1.76,3.18,2.16,4.91,3.12,3.12,1.73,4.12,4.78,4.24,8.16.11,3.34-2.5,6.36-.15,9.43,1.26,1.65,3.16,2.65,4.87,3.82,1.53,1.05,2.95,2.31,3.88,3.92,2.13,3.71.11,8.13-.98,11.84-1.9,6.48-2.18,13.27-2.12,19.98.05,6.11-1.31,12.47,1.4,18.17,2.81,5.88-4.61,11.55-1.15,16.34.59.81,1.49,1.36,2.08,2.17,1.98,2.69-.23,6.38-2.37,8.94"/>
    <path class="cls-8" d="M516.46-77.28c-2.53-.48-5.14-.88-7.73-.92s-5.16.36-7.71.74c-4.16.63-7.97,2.17-11.81,3.83-6.61,2.86-12.37,7.09-18.01,11.52-9.45,7.41-17.63,16.67-23.91,26.91-3.41,5.55-6.15,11.55-8.32,17.68s-3.33,12.5-4,18.98-.15,13.15.89,19.72c.85,5.38,2.41,10.61,4.51,15.63,2.44,5.84,5.17,11.42,8.78,16.64s7.59,10.15,12.06,14.59c8.27,8.22,18.11,15.25,28.71,20.13,5.69,2.62,11.54,4.93,17.62,6.47,6.91,1.76,14.13,2.71,21.26,2.89,7.57.18,15.21-.67,22.62-2.14s14.24-3.91,21.09-6.83c6.44-2.75,12.18-6.36,17.54-10.88,2.23-1.88,4.25-3.96,6.05-6.24,2.52-3.18,4.85-6.37,6.53-10.08s3.21-7.61,4.17-11.65,1.51-8.26,1.95-12.41c.61-5.73.72-11.52.02-17.24-.78-6.39-1.94-12.52-4.42-18.49-1.4-3.36-2.83-6.65-4.69-9.79s-4.14-6.13-6.43-9.05c-3.62-4.6-7.81-8.77-12.31-12.5-5.26-4.36-10.83-8.44-16.97-11.49s-12.1-5.38-18.59-6.37c-3.82-.58-7.64-1.08-11.51-.92s-7.83.7-11.59,1.68c-13.46,3.49-24.5,12.4-32.3,23.7-1.49,2.16-2.8,4.44-3.91,6.81-1.52,3.25-2.94,6.62-3.87,10.1-1.9,7.13-2.05,14.21-.81,21.43.92,5.4,3.21,10.87,6.47,15.29,1.86,2.52,3.78,4.99,6.03,7.17s4.98,4.28,7.63,6.18c4.66,3.34,9.92,5.76,15.28,7.75s10.96,2.99,16.59,3.38c2.16.15,4.34.12,6.5-.12,3.18-.36,6.39-.74,9.44-1.77,6.31-2.13,12.41-5.67,16.65-10.91,1.35-1.67,2.73-3.37,3.86-5.21,1.25-2.05,2.16-4.31,3.04-6.53,1.3-3.28,1.83-6.83,2.06-10.33s-.25-7.18-1.23-10.52-2.46-6.71-4.41-9.57c-2.34-3.43-4.82-6.13-8.37-8.34-2.56-1.59-5.58-2.67-8.53-3.33-4.64-1.03-9.61-1.72-14.38-1.48-3.42.18-6.58.69-9.71,2.01-4.65,1.96-8.65,5.73-9.82,10.83-.78,3.39-.47,7,1.31,10.05,1.58,2.71,4.68,5.28,7.79,5.99,3.34.76,7.09.6,10.05-1.31,2.79-1.8,5.23-4.47,5.99-7.79.04-.18.09-.35.16-.53l-1.31,3.12c.1-.22.22-.42.36-.62l-2.04,2.64c.16-.19.33-.36.52-.52l-2.64,2.04c.38-.3.79-.52,1.23-.71l-3.12,1.31c.9-.36,1.84-.57,2.81-.71l-3.47.47c3.02-.4,6.11-.21,9.12.19l-3.47-.47c2.46.34,4.96.81,7.27,1.74l-3.12-1.31c1.02.43,1.96.97,2.84,1.64l-2.64-2.04c.82.66,1.53,1.42,2.17,2.25l-2.04-2.64c1.17,1.58,2.11,3.33,2.88,5.13l-1.31-3.12c.67,1.65,1.12,3.35,1.36,5.11l-.47-3.47c.22,1.84.2,3.67-.04,5.51l.47-3.47c-.29,1.95-.82,3.83-1.57,5.64l1.31-3.12c-.79,1.82-1.78,3.53-2.97,5.11l2.04-2.64c-1.31,1.69-2.8,3.19-4.49,4.49l2.64-2.04c-1.55,1.16-3.2,2.13-4.98,2.9l3.12-1.31c-2.32.98-4.76,1.6-7.25,1.94l3.47-.47c-3.23.41-6.49.35-9.72-.07l3.47.47c-4.34-.59-8.56-1.79-12.6-3.48l3.12,1.31c-4.03-1.71-7.84-3.88-11.32-6.54l2.64,2.04c-2.71-2.09-5.18-4.46-7.29-7.16l2.04,2.64c-1.5-1.96-2.76-4.05-3.73-6.32l1.31,3.12c-.99-2.4-1.66-4.89-2.02-7.46l.47,3.47c-.37-2.88-.35-5.78.01-8.66l-.47,3.47c.48-3.5,1.44-6.9,2.79-10.16l-1.31,3.12c1.58-3.74,3.64-7.24,6.11-10.46l-2.04,2.64c2.45-3.16,5.25-6.01,8.4-8.47l-2.64,2.04c2.84-2.18,5.92-3.97,9.22-5.38l-3.12,1.31c3.23-1.34,6.59-2.26,10.06-2.74l-3.47.47c3.58-.46,7.18-.42,10.76.04l-3.47-.47c4.36.61,8.59,1.83,12.65,3.52l-3.12-1.31c5.64,2.39,10.87,5.6,15.71,9.33l-2.64-2.04c5.46,4.25,10.5,9.1,14.75,14.57l-2.04-2.64c3.02,3.94,5.58,8.2,7.53,12.77l-1.31-3.12c1.92,4.58,3.19,9.37,3.86,14.29l-.47-3.47c.88,6.7.68,13.48-.19,20.17l.47-3.47c-.67,4.96-1.78,9.85-3.73,14.47l1.31-3.12c-1.28,2.95-2.88,5.7-4.84,8.24l2.04-2.64c-2.22,2.81-4.78,5.29-7.6,7.49l2.64-2.04c-4.1,3.14-8.61,5.58-13.36,7.6l3.12-1.31c-7.46,3.12-15.28,5.29-23.28,6.4l3.47-.47c-7.56,1.01-15.2,1.08-22.77.08l3.47.47c-7.19-.99-14.18-2.96-20.87-5.77l3.12,1.31c-7.24-3.08-14.04-7.09-20.26-11.89l2.64,2.04c-5.92-4.61-11.27-9.92-15.86-15.86l2.04,2.64c-4-5.22-7.37-10.88-9.95-16.93l1.31,3.12c-2.31-5.5-3.93-11.26-4.73-17.18l.47,3.47c-.72-5.57-.7-11.19.05-16.76l-.47,3.47c.83-5.96,2.47-11.75,4.78-17.3l-1.31,3.12c2.75-6.52,6.39-12.61,10.69-18.22l-2.04,2.64c5-6.46,10.84-12.23,17.3-17.23l-2.64,2.04c4.58-3.52,9.45-6.72,14.77-9.01l-3.12,1.31c2.93-1.22,5.96-2.14,9.11-2.57l-3.47.47c2.27-.28,4.53-.29,6.8.01l-3.47-.47c.43.07.85.14,1.28.22,3.49.67,6.89.53,10.05-1.31,2.71-1.58,5.28-4.68,5.99-7.79.76-3.34.6-7.09-1.31-10.05-1.76-2.72-4.49-5.36-7.79-5.99h0Z"/>
    <path class="cls-2" d="M37.5,430.87c2.62,0,5.12-2.3,5-5s-2.2-5-5-5c-2.62,0-5.12,2.3-5,5s2.2,5,5,5h0Z"/>
    <path class="cls-15" d="M24.02,439c2.62,0,5.12-2.3,5-5s-2.2-5-5-5c-2.62,0-5.12,2.3-5,5s2.2,5,5,5h0Z"/>
    <path class="cls-2" d="M18,455.55h.3c.69.03,1.33-.12,1.93-.43.62-.2,1.16-.55,1.61-1.03.49-.45.83-.99,1.03-1.61.31-.6.46-1.24.43-1.93l-.18-1.33c-.24-.85-.67-1.58-1.29-2.21l-1.01-.78c-.78-.45-1.62-.68-2.52-.68h-.3c-.69-.03-1.33.12-1.93.43-.62.2-1.16.55-1.61,1.03-.49.45-.83.99-1.03,1.61-.31.6-.46,1.24-.43,1.93l.18,1.33c.24.85.67,1.58,1.29,2.21l1.01.78c.78.45,1.62.68,2.52.68h0Z"/>
    <path class="cls-15" d="M18.61,474.5c2.62,0,5.12-2.3,5-5s-2.2-5-5-5c-2.62,0-5.12,2.3-5,5s2.2,5,5,5h0Z"/>
    <path class="cls-15" d="M28.84,484.43c2.62,0,5.12-2.3,5-5s-2.2-5-5-5c-2.62,0-5.12,2.3-5,5s2.2,5,5,5h0Z"/>
    <path class="cls-2" d="M50.8,487.74c2.62,0,5.12-2.3,5-5s-2.2-5-5-5c-2.62,0-5.12,2.3-5,5s2.2,5,5,5h0Z"/>
    <path class="cls-15" d="M67.95,474.73h-.3c-.69-.03-1.33.12-1.93.43-.62.2-1.16.55-1.61,1.03-.49.45-.83.99-1.03,1.61-.31.6-.46,1.24-.43,1.93l.18,1.33c.24.85.67,1.58,1.29,2.21l1.01.78c.78.45,1.62.68,2.52.68h.3c.69.03,1.33-.12,1.93-.43.62-.2,1.16-.55,1.61-1.03.49-.45.83-.99,1.03-1.61.31-.6.46-1.24.43-1.93l-.18-1.33c-.24-.85-.67-1.58-1.29-2.21l-1.01-.78c-.78-.45-1.62-.68-2.52-.68h0Z"/>
    <path class="cls-2" d="M83.48,468.9v-.3c.03-.69-.12-1.33-.43-1.93-.2-.62-.55-1.16-1.03-1.61-.45-.49-.99-.83-1.61-1.03-.6-.31-1.24-.46-1.93-.43l-1.33.18c-.85.24-1.58.67-2.21,1.29l-.78,1.01c-.45.78-.68,1.62-.68,2.52v.3c-.03.69.12,1.33.43,1.93.2.62.55,1.16,1.03,1.61.45.49.99.83,1.61,1.03.6.31,1.24.46,1.93.43l1.33-.18c.85-.24,1.58-.67,2.21-1.29l.78-1.01c.45-.78.68-1.62.68-2.52h0Z"/>
    <path class="cls-15" d="M81.49,457.35c2.62,0,5.12-2.3,5-5s-2.2-5-5-5c-2.62,0-5.12,2.3-5,5s2.2,5,5,5h0Z"/>
    <path class="cls-2" d="M74.87,442.61c2.62,0,5.12-2.3,5-5s-2.2-5-5-5c-2.62,0-5.12,2.3-5,5s2.2,5,5,5h0Z"/>
    <path class="cls-15" d="M59.53,432.08c2.62,0,5.12-2.3,5-5s-2.2-5-5-5c-2.62,0-5.12,2.3-5,5s2.2,5,5,5h0Z"/>
    <path class="cls-2" d="M50.5,460.66c2.62,0,5.12-2.3,5-5s-2.2-5-5-5c-2.62,0-5.12,2.3-5,5s2.2,5,5,5h0Z"/>
    <path class="cls-4" d="M536.1,118.57c-11.68,1.57-22.61,5.63-26.61,14.22-4.75,10.22,2.66,21.19,9.21,28.6,6.52,7.37,15.01,15.31,14.74,25.93-.26,10.47-9.63,18.73-19.56,22.03-9.94,3.3-20.65,2.99-31.03,4.37-19.86,2.64-39.73,12.36-54.56,25.73-10.32,9.3-34.29,41.19-15.02,53.46,4.05,2.57,9.24,2.16,14,1.53,15.55-2.04,31.71-4.07,45.64-11.8,13.59-7.54,21.31-21.24,32.29-31.92,24.95-24.25,51.15-32.68,82.11-46.06,11.06-4.78,19.25-13.76,21.58-25.78,1.75-8.97.33-18.33-2.62-26.99-6.33-18.58-22-29.75-40.96-32.9-7.17-1.19-18.5-1.85-29.2-.41Z"/>
    <path class="cls-14" d="M575.68,155.64c-3.45,1.28-6.74,3.18-9.16,5.94-2.42,2.77-3.9,6.48-3.46,10.14.3,2.56,1.5,4.94,2.97,7.05,3.23,4.64,8.35,8.4,14,8.33,2.9-.04,5.7-1.07,8.26-2.44,3.32-1.79,6.37-4.23,8.42-7.39,2.05-3.17,3.03-7.12,2.21-10.81-.6-2.7-2.12-5.11-3.84-7.28-4.94-6.2-12.43-6.14-19.39-3.54Z"/>
    <path class="cls-1" d="M559.83,176.38c-1.99,3.29-1.88,7.73.26,10.92,2.14,3.19,6.21,4.97,10.01,4.38,3.02-.47,5.75-2.34,7.43-4.9,1.68-2.55,2.31-5.73,1.93-8.76-1.38-11.04-14.93-9.44-19.63-1.65Z"/>
    <path class="cls-20" d="M132,147.59c-.46,8.76-2.68,17.42-6.49,25.32-4.86,10.08-12.18,18.75-18.08,28.27-8.12,13.1-13.5,27.69-18.53,42.25-9.9,28.63-18.77,59.49-11.17,88.81,3.66,14.12,13.13,28.67,27.59,30.58,9.31,1.23,18.53-3.17,25.9-9,25.4-20.09,33.28-55.2,34.26-87.57.98-32.37-3.15-65.43,5.23-96.72,4.73-17.67,25.35-55.56-1.2-65.05-10.5-3.75-25.27-1.56-32.13,7.68-7.31,9.83-4.75,24.01-5.36,35.42Z"/>
    <path class="cls-9" d="M9.16,219.32c4.46-4.68,5.65-11.62,5.42-18.08-.22-6.46-1.64-12.86-1.49-19.32.42-18.36,15.11-35.39,33.21-38.52,3.25-.56,6.92-.61,9.45,1.5,1.53,1.27,2.42,3.16,3.06,5.04,3.01,8.86,1.35,19.16-4.28,26.63-2.96,3.93-7.05,7.34-8.13,12.13-1.31,5.8,3.11,12.23,8.99,13.1,1.45.21,3,.12,4.3-.56,1.2-.63,2.11-1.69,2.97-2.74,5.95-7.37,11.33-16.12,20.22-19.4,2.63-.97,5.78-1.33,8.1.25,2.62,1.78,3.28,5.46,2.67,8.58-1.2,6.17-6.13,10.86-11.09,14.72-4.96,3.85-10.4,7.5-13.45,13-3.05,5.49-2.65,13.55,2.7,16.84,3.6,2.21,8.29,1.64,12.23.11,3.94-1.53,7.53-3.9,11.54-5.23,10.77-3.58,23.37,1.45,29.92,10.71,6.55,9.26,7.38,21.88,3.51,32.55-.77,2.12-1.78,4.28-3.59,5.64-1.8,1.36-4.13,1.76-6.37,1.96-14.85,1.33-30.19-4.38-40.55-15.11-4.73-4.89-8.43-10.72-13.32-15.45-4.89-4.73-11.52-8.4-18.25-7.39-6.33.94-11.48,5.91-14.38,11.62-1.2,2.37-2.11,5-1.87,7.65.92,10.29,17.08,13.51,18.47,23.75.24,1.79-.08,3.75-1.29,5.1-.89.99-2.14,1.54-3.35,2.09-6.02,2.71-11.99,5.83-16.63,10.52-4.65,4.69-7.84,11.18-7.23,17.75.8,8.55,8.14,15.6,16.49,17.61,8.35,2,17.3-.42,24.58-4.96,5.34-3.33,9.92-7.75,15.16-11.23,7.69-5.11,16.75-8.12,25.97-8.64,4-.22,8.27.1,11.51,2.45,3.73,2.71,5.29,7.59,5.39,12.19.26,12.06-7.85,22.76-17.13,30.46-17.82,14.79-41.54,22.26-64.62,20.37-19.73-1.62-40.37-11.52-47.88-29.83-5.96-14.53-2.48-31.48,4.97-45.3,4.83-8.97,11.49-19.05,7.59-28.47-1.54-3.73-4.57-6.63-7.8-9.05-9.11-6.81-33.34-18.98-22.49-34.37,7.76-11.01,27.01-.4,36.77-10.64Z"/>
    <path class="cls-14" d="M200.35,228.7c-11.22,25.19-15.82,53.29-13.21,80.74.2,2.14.51,4.43,1.95,6.03,1.2,1.34,3.02,1.97,4.81,2.23,6.68.95,13.07-2.66,18.85-6.14,8.73-5.25,17.45-10.5,26.18-15.75,2.93-1.76,5.95-3.61,7.91-6.41,2.37-3.4,2.86-7.76,2.82-11.91-.14-17.74-8.61-30.62-19.84-43.37-7.39-8.4-21.75-22.76-29.47-5.42Z"/>
    <path class="cls-11" d="M202.52,76.95c.52-9.99,1.92-20.85,9.03-27.89,7.94-7.87,20.3-8.45,31.45-9.15,42.38-2.64,84.21-13.83,122.25-32.7,6.23-3.09,12.56-6.45,19.48-7.12,6.92-.67,14.71,2.09,17.7,8.37,3.66,7.7-1.49,17.16-8.75,21.63-7.26,4.47-16.04,5.44-24.37,7.24-22.39,4.85-45.05,18.93-50.51,41.18-2.29,9.36-3.67,22.09-13.18,23.59-12.12,1.91-17.38-18.02-29.56-19.49-3.19-.38-6.39.63-9.29,2.01-18.11,8.6-26.51,41.98-44.72,45.53-25.79,5.03-20.22-39.83-19.53-53.2Z"/>
    <path class="cls-22" d="M211.3,84.39c-7,17.71-11.36,36.47-12.88,55.46-.45,5.59.02,12.45,5.02,15,4.39,2.24,9.66-.31,13.67-3.18,4.69-3.36,9.01-7.23,12.85-11.53,5.55-6.21,10.07-13.27,15.31-19.74,5.24-6.47,11.42-12.5,19.1-15.71,7.68-3.21,17.13-3.17,23.82,1.8,5.23,3.89,8.58,10.48,14.76,12.54,4.59,1.53,9.72.09,13.79-2.53,4.07-2.61,7.32-6.28,10.72-9.72,14.18-14.32,31.88-25.13,51.1-31.2,6.07-1.92,12.34-3.39,17.92-6.45,10.54-5.77,17.69-17.28,18.21-29.28"/>
    <path class="cls-3" d="M445.41,417.44c4.36.35,8.55,2.45,11.44,5.74,1.86-5.73-1.17-11.98-.37-17.95.21-1.56,1.24-3.45,2.78-3.14,1.1.23,1.63,1.45,1.98,2.52,1.62,4.9,3.24,9.81,4.87,14.71,1.64-.87,3.28-1.73,4.92-2.6.34-.18.73-.37,1.1-.26.6.18.72.95.73,1.58.06,10.1-3.57,19.81-7.14,29.26-.21.57-.44,1.16-.9,1.56-.44.39-1.02.55-1.59.69-10.14,2.67-8.98-1.6-11.08-9.67-.5-1.94-6.49-22.42-6.73-22.44Z"/>
    <path class="cls-13" d="M519.33,484.32c3.22,0,3.22-5,0-5s-3.22,5,0,5h0Z"/>
    <path class="cls-13" d="M508.62,484.01c3.22,0,3.22-5,0-5s-3.22,5,0,5h0Z"/>
    <path class="cls-13" d="M497.9,483.7c3.22,0,3.22-5,0-5s-3.22,5,0,5h0Z"/>
    <path class="cls-13" d="M486.88,484.62h.31c.34.01.67-.06.96-.22.31-.1.58-.27.8-.52.24-.23.42-.49.52-.8.16-.3.23-.62.22-.96l-.09-.66c-.12-.42-.33-.79-.64-1.1l-.51-.39c-.39-.23-.81-.34-1.26-.34h-.31c-.34-.01-.67.06-.96.22-.31.1-.58.27-.8.52-.24.23-.42.49-.52.8-.16.3-.23.62-.22.96l.09.66c.12.42.33.79.64,1.1l.51.39c.39.23.81.34,1.26.34h0Z"/>
    <path class="cls-13" d="M473.72,484.32c3.22,0,3.22-5,0-5s-3.22,5,0,5h0Z"/>
    <path class="cls-13" d="M460.55,485.23c3.22,0,3.22-5,0-5s-3.22,5,0,5h0Z"/>
    <path class="cls-13" d="M447.39,484.93c3.22,0,3.22-5,0-5s-3.22,5,0,5h0Z"/>
    <path class="cls-13" d="M433.92,484.62c3.22,0,3.22-5,0-5s-3.22,5,0,5h0Z"/>
    <path class="cls-13" d="M424.12,485.54c3.22,0,3.22-5,0-5s-3.22,5,0,5h0Z"/>
    <path class="cls-3" d="M705.16,294.66c-4.07,3.06-8.21,6.2-11.18,10.34-.62.86-1.21,1.89-.98,2.93.19.88.92,1.53,1.62,2.1,6.11,4.95,13.08,8.85,20.5,11.46-9.13,11.43-16.31,24.41-21.17,38.21,13.42-4.82,27.16-8.76,41.1-11.78-6.16,1.33-4.86-66.65-4.12-72.41-8.96,5.69-17.28,12.76-25.77,19.15Z"/>
    <path class="cls-1" d="M402.68,333.07c3.22,0,3.22-5,0-5s-3.22,5,0,5h0Z"/>
    <path class="cls-1" d="M386.76,334.31c-.17-.04-.33-.08-.5-.12l1.75,1.75-.12-.5c-.08-.33-.23-.61-.45-.85-.18-.27-.41-.49-.7-.64-.29-.18-.6-.28-.93-.3-.33-.07-.66-.06-1,.04l-.6.25c-.38.22-.67.52-.9.9l-.25.6c-.12.44-.12.89,0,1.33l.12.5c.12.42.33.79.64,1.1.31.31.68.52,1.1.64.17.04.33.08.5.12.33.1.66.12,1,.04.33-.02.64-.11.93-.3.29-.16.53-.37.7-.64.22-.24.37-.52.45-.85l.09-.66c0-.45-.12-.87-.34-1.26l-.39-.51c-.31-.31-.68-.52-1.1-.64h0Z"/>
    <path class="cls-1" d="M408.83,356.42c3.22,0,3.22-5,0-5s-3.22,5,0,5h0Z"/>
    <path class="cls-1" d="M359.06,334.92c3.22,0,3.22-5,0-5s-3.22,5,0,5h0Z"/>
    <path class="cls-1" d="M377.49,371.78c3.22,0,3.22-5,0-5s-3.22,5,0,5h0Z"/>
    <path class="cls-1" d="M431.56,312.18c3.22,0,3.22-5,0-5s-3.22,5,0,5h0Z"/>
    <path class="cls-1" d="M403.3,309.11c3.22,0,3.22-5,0-5s-3.22,5,0,5h0Z"/>
    <path class="cls-1" d="M216.52,185.62c3.22,0,3.22-5,0-5s-3.22,5,0,5h0Z"/>
    <path class="cls-1" d="M191.94,183.16c3.22,0,3.22-5,0-5s-3.22,5,0,5h0Z"/>
    <path class="cls-1" d="M189.49,207.74c3.22,0,3.22-5,0-5s-3.22,5,0,5h0Z"/>
    <path class="cls-1" d="M204.23,205.28c3.22,0,3.22-5,0-5s-3.22,5,0,5h0Z"/>
    <path class="cls-1" d="M175.97,348.43c3.22,0,3.22-5,0-5s-3.22,5,0,5h0Z"/>
    <path class="cls-1" d="M167.37,371.17c3.22,0,3.22-5,0-5s-3.22,5,0,5h0Z"/>
    <path class="cls-1" d="M148.94,367.48c3.22,0,3.22-5,0-5s-3.22,5,0,5h0Z"/>
    <path class="cls-1" d="M155.08,390.21c3.22,0,3.22-5,0-5s-3.22,5,0,5h0Z"/>
    <path class="cls-1" d="M132.35,383.45c3.22,0,3.22-5,0-5s-3.22,5,0,5h0Z"/>
    <path class="cls-1" d="M103.47,388.98c3.22,0,3.22-5,0-5s-3.22,5,0,5h0Z"/>
    <path class="cls-1" d="M93.71,409.76l.61.61c.23.24.49.42.8.52.3.16.62.23.96.22.34.01.67-.06.96-.22.31-.1.58-.27.8-.52l.39-.51c.23-.39.34-.81.34-1.26l-.09-.66c-.12-.42-.33-.79-.64-1.1l-.61-.61c-.23-.24-.49-.42-.8-.52-.3-.16-.62-.23-.96-.22-.34-.01-.67.06-.96.22-.31.1-.58.27-.8.52l-.39.51c-.23.39-.34.81-.34,1.26l.09.66c.12.42.33.79.64,1.1h0Z"/>
    <path class="cls-1" d="M78.89,398.2c3.22,0,3.22-5,0-5s-3.22,5,0,5h0Z"/>
    <path class="cls-1" d="M48.17,400.66c3.22,0,3.22-5,0-5s-3.22,5,0,5h0Z"/>
  </g>
  <path class="cls-11" d="M403.44,376.63c.44-2.51,1.21-5.44,3.58-6.37,2.5-.98,5.35,1.08,6.27,3.61.92,2.53.47,5.32.11,7.98-.35,2.67-.57,5.54.73,7.89,2.08,3.76,7.11,4.66,11.38,4.19,4.26-.47,8.53-1.9,12.76-1.15,4.23.75,8.31,4.95,6.83,8.98-1.39,3.77-6.29,4.6-10.31,4.64-4.02.04-8.82.3-10.88,3.75-1.51,2.53-.83,5.81.38,8.5,1.21,2.69,2.9,5.24,3.37,8.15s-.84,6.44-3.71,7.15c-3.3.82-6.2-2.42-7.51-5.56s-2.11-6.81-4.89-8.77c-3.44-2.43-8.28-1.05-11.85,1.19-3.57,2.24-6.79,5.3-10.89,6.29-4.1.99-9.45-1.43-9.38-5.65.06-3.73,4.02-6.02,7.49-7.39s7.53-3.18,8.2-6.86c.72-3.93-2.91-7.16-6.1-9.56-3.19-2.41-6.69-5.9-5.6-9.75,1.15-4.08,7.04-4.99,10.59-2.68,2.52,1.65,4.06,4.37,5.54,6.87,3.17-3.09,3.1-11.07,3.88-15.48Z"/>
</svg>