<?xml version="1.0" encoding="UTF-8"?>
<svg id="Capa_1" data-name="Capa 1" xmlns="http://www.w3.org/2000/svg" viewBox="0 0 517.74 316.59">
  <defs>
    <style>
      .cls-1 {
        fill: #416d25;
      }

      .cls-1, .cls-2, .cls-3, .cls-4, .cls-5, .cls-6, .cls-7, .cls-8, .cls-9 {
        stroke-width: 0px;
      }

      .cls-2 {
        fill: #a6c98f;
      }

      .cls-10 {
        stroke: #417235;
        stroke-miterlimit: 10;
      }

      .cls-10, .cls-8 {
        fill: #fff;
      }

      .cls-3 {
        fill: #80b25f;
      }

      .cls-4 {
        fill: #578738;
      }

      .cls-5 {
        fill: #ed8ca1;
      }

      .cls-6 {
        fill: #496b2c;
      }

      .cls-7 {
        fill: #7aa12d;
      }

      .cls-9 {
        fill: #4a6314;
      }
    </style>
  </defs>
  <path class="cls-1" d="M160.64,24.28s168.45,197.43,286.65,126.37c0,0-74.5,118.31-286.65-126.37Z"/>
  <ellipse class="cls-1" cx="176.49" cy="28.09" rx="14" ry="3.5" transform="translate(5.48 79.99) rotate(-25.93)"/>
  <ellipse class="cls-1" cx="290.49" cy="127.8" rx="14" ry="3.5" transform="translate(6.58 269.62) rotate(-50.29)"/>
  <ellipse class="cls-1" cx="273.49" cy="115.8" rx="14" ry="3.5" transform="translate(21.97 273.74) rotate(-55.08)"/>
  <ellipse class="cls-1" cx="253.49" cy="101.8" rx="14" ry="3.5" transform="translate(13.22 231.77) rotate(-50.29)"/>
  <ellipse class="cls-1" cx="235.49" cy="83.8" rx="14" ry="3.5" transform="translate(1.49 171.68) rotate(-40.17)"/>
  <ellipse class="cls-1" cx="220.49" cy="66.8" rx="14" ry="3.5" transform="translate(-7.02 103.12) rotate(-25.93)"/>
  <ellipse class="cls-1" cx="205.49" cy="53.8" rx="14" ry="3.5" transform="translate(-2.84 95.26) rotate(-25.93)"/>
  <ellipse class="cls-1" cx="189.49" cy="40.8" rx="14" ry="3.5" transform="translate(1.23 86.95) rotate(-25.93)"/>
  <ellipse class="cls-1" cx="411.84" cy="163.36" rx="14" ry="3.5" transform="translate(202.23 553.69) rotate(-83.4)"/>
  <ellipse class="cls-1" cx="387.99" cy="163.59" rx="3.5" ry="14"/>
  <ellipse class="cls-1" cx="360.84" cy="162.36" rx="14" ry="3.5" transform="translate(116.63 473.69) rotate(-76.12)"/>
  <ellipse class="cls-1" cx="334.84" cy="154.36" rx="14" ry="3.5" transform="translate(62.41 402.8) rotate(-67.11)"/>
  <ellipse class="cls-1" cx="312.84" cy="143.36" rx="14" ry="3.5" transform="translate(2.68 292.43) rotate(-50.29)"/>
  <path class="cls-3" d="M93.49.59S28.49,27.59,23.49,27.59c0,0-19,6-23,21,0,0-6,28,24,40l34,15s22,60,29,69c0,0-28.49,25.48-40.74,24.24,0,0-32.26-14.24-38.26,2.76,0,0,5,6,18,3,0,0,3,7,0,7,0,0-15,4-12,8,0,0-2,9,19-4,0,0,8-2,2,4,0,0-17,14-7,15l14-14s7,3,2,7c0,0-5.49,10.27,2.26,9.14,0,0,9.74-3.14,12.74-18.14,0,0,29,1,44-16,0,0,16,17,50,18,0,0,5,7-15,7,0,0-24-2-52,31,0,0-37.74-6-36.37,0,0,0-.63,6,11.37,6,0,0,4,8-2,8,0,0-19,1-12,8,0,0,6,6,19-3,0,0,2.62,2.92.81,4.96,0,0-11.81,11.04-5.81,13.04,0,0,1,3,11-8,0,0,13-10,12,0,0,0-9,15,4,15,0,0,6,3,15-24,0,0,24-12,59-13,0,0,27-7,28-19,0,0,34,22,109,26,0,0,61,2,103-8l18,8s2,9-3,12c0,0-19,16-17,27,0,0,9,6,16-4,0,0,10-18,13-9-1.84,9.05-.07,16.74,4.51,19.16.84.45,1.98.82,3.49.84.52-.31.99-.64,1.42-1,5.71-4.74,4.93-14.06,4.58-17,0,0,13-14,18,0,0,0,12,17,16-1-4.26-11.94-5.26-18.61-3-20,.69-.43,1.69-.36,3,.21,0,0,23,16.79,26,5.79,0,0,6-12-18-14,0,0-21,0-34-17,0,0,52-23,62-66,0,0,17-44-17-88,0,0-51-46-119-58,0,0-78-15-117,9,0,0,1,6,17,0,0,0,50-13,104,8,0,0,65.42,15,72.21,66,.56,13.5-3.12,21.97-6.41,27.06-16.22,25.07-63.69,31.17-116.8,10.94-15.14-7.3-32.17-16.75-50-29-21.69-14.9-39.22-30.27-53-44-12.49-13.19-26.01-26.75-40.62-40.5-14.78-13.91-29.3-26.72-43.38-38.5-4.35-2.24-9.62-4.49-15.75-6.25C113.89-.63,101.69-.35,93.49.59Z"/>
  <path class="cls-10" d="M83.4,53.13c3.3-.72,6.76-.97,10.1-1.05,4.35-.1,8.87-.19,13.11.85,4.68-4.37,7.7-11.29,7.7-19.09,0-13.22-8.69-23.94-19.41-23.94s-19.41,10.72-19.41,23.94c0,7.91,3.12,14.93,7.92,19.28Z"/>
  <ellipse class="cls-6" cx="94.58" cy="37.44" rx="9.55" ry="13.17"/>
  <ellipse class="cls-8" cx="98.09" cy="34.55" rx="3.4" ry="3.04"/>
  <g>
    <path class="cls-8" d="M75.48,55.44c-.66.2,21-9.03,42.01,1.15,0,0-19.09-8.28-42.01-1.15Z"/>
    <path class="cls-9" d="M95.81,51.8c-11.73,0-20.44,3.65-20.34,3.65,0,0,0,0,.01,0,6.9-2.15,13.45-2.9,19.24-2.9,13.44,0,22.77,4.04,22.77,4.04-7.49-3.63-15.07-4.79-21.68-4.79h0Z"/>
  </g>
  <g>
    <path class="cls-8" d="M81.85,12.31s12.15-14.36,27.08,0c0,0-11.81-13.17-27.08,0Z"/>
    <path class="cls-9" d="M95.27,5.92c-8.02,0-13.43,6.38-13.43,6.38,5.09-4.39,9.8-5.85,13.81-5.85,4.78,0,8.57,2.07,10.86,3.75-4.07-3.17-7.89-4.29-11.24-4.29h0ZM106.51,10.21c.79.62,1.6,1.32,2.41,2.1,0,0-.86-.96-2.41-2.1h0Z"/>
  </g>
  <path class="cls-2" d="M58.49,103.59s50,36,95,115c0,0-44-2-53-21-6.39-10.95-12.81-22.95-19-36-9.79-20.63-17.25-40.2-23-58Z"/>
  <path class="cls-4" d="M141.49,68.59c10.42,15.2,10.45,32.27,2.08,40.82-1.58,1.61-5.79,5.31-14.08,6.18-10.65,1.27-19.57,1.09-26,.62-12.1-.87-30.2-.91-45-12.62-24-19-.96-.42-.96-.42,5.71,2.98,13.08,6.16,21.98,8.46,13.69,3.54,25.64,3.61,33.98,2.96,3.85.53,9.96.86,17-1,1.14-.3,6.76-1.79,9.85-4.06,7.76-5.7,7.96-22.5,1.15-40.94Z"/>
  <ellipse class="cls-5" cx="105.99" cy="68.59" rx="11.5" ry="8"/>
  <ellipse class="cls-4" cx="15.49" cy="42.59" rx="5" ry="3" transform="translate(-29.14 34.71) rotate(-60)"/>
  <path class="cls-4" d="M.04,52.7s34.45,26.89,88.45,22.89c0,0-40.9,13.23-88.45-22.89Z"/>
  <path class="cls-4" d="M195.78,56.59s-6.29,53-29.29,56c0,0-5.96,21,17.02,11,0,0,28.51-23.27,23.24-45.64l-10.97-21.36Z"/>
  <path class="cls-4" d="M422.42,168.83s63.2,48.12,61.13,62.94l17.21-18.3s-16.57-38.88-63.42-52.38l-14.92,7.74Z"/>
  <path class="cls-4" d="M447.29,150.65l5.51-13.95s44.9-7.65,64.8,17.12c0,0-2.1,23.06-1.6,23.41s-32.91-23.53-68.7-26.58Z"/>
  <path class="cls-4" d="M453.7,123.59l-4.93-17.2s22.72-20.8,47.72-7.8l12.34,20.2s-31.92-19.2-55.13,4.8Z"/>
  <path class="cls-4" d="M466.47,76.57l-27.19,14.87-14.43-13.49s13.2-18.14,23.92-11.75l17.7,10.37Z"/>
  <path class="cls-4" d="M422.42,53.75l-17.95-6.49s-15.94,2.75-12.46,13.54l14.96,6.31s-1.61-12.2,15.45-13.36Z"/>
  <path class="cls-4" d="M352.4,49.17s-5.04-6.91,6.53-11.24l18.57,2.67s-11.98,1.23-10.49,12.11l-14.6-3.54Z"/>
  <path class="cls-4" d="M246.36,106.16s-12.88,35.43-31.88,44.43c0,0-2.88,16,20.56,0,0,0,15.39-10.82,18.41-38.41l-7.1-6.02Z"/>
  <path class="cls-4" d="M287.64,137.38l11.71,7.36s1.14,38.85-23.86,42.85c0,0-18-4,3-20,0,0,14.3-19.42,9.15-30.21Z"/>
  <path class="cls-4" d="M354.29,169.03l10.1,2.16s7.72,27.14-13.09,37.77c0,0-12.36,2.31-4.09-12.53,0,0,8.88-18.96,7.08-27.4Z"/>
  <path class="cls-7" d="M190.49,244.59s18-26,3-44c0,0,21,17-3,44Z"/>
  <path class="cls-7" d="M451.49,252.59s9.72-25.6-26.64-35.8c0,0,26.64,3.8,26.64,35.8Z"/>
  <path class="cls-3" d="M75.47,7.99s-12.7-13.73-24.84-2.07l-13.34,17.17,38.18-15.1Z"/>
  <ellipse class="cls-6" cx="123.77" cy="101.7" rx="6.62" ry="3.8"/>
  <ellipse class="cls-6" cx="124.72" cy="91.67" rx="3.78" ry="2.08"/>
  <ellipse class="cls-6" cx="134.18" cy="96.85" rx="3.78" ry="3.11"/>
  <ellipse class="cls-6" cx="106.43" cy="98.93" rx="6.94" ry="3.8"/>
</svg>