<?xml version="1.0" encoding="UTF-8"?>
<svg id="Capa_1" data-name="Capa 1" xmlns="http://www.w3.org/2000/svg" viewBox="0 0 127 129">
  <defs>
    <style>
      .cls-1 {
        fill: #82a86c;
      }

      .cls-1, .cls-2, .cls-3, .cls-4, .cls-5 {
        stroke-width: 0px;
      }

      .cls-2 {
        fill: #3d847d;
      }

      .cls-3 {
        fill: #65a7c4;
      }

      .cls-4 {
        fill: #d3bba5;
      }

      .cls-5 {
        fill: #fae9d7;
      }
    </style>
  </defs>
  <ellipse class="cls-1" cx="63.5" cy="64.5" rx="63.5" ry="64.5"/>
  <g>
    <path id="path21825" class="cls-5" d="M87.26,97.36s4.41-6.19,4.04-13.1c-.37-6.9-42.57-9.95-42.57-9.95,0,0-2.93,6.55-3.32,7.64-.39,1.09-4.46,9.17.28,11.12,4.75,1.95,41.6,5.3,41.6,5.3l-.04-1.02Z"/>
    <path id="path31468" class="cls-4" d="M91.06,88.11l-43.97-5.73-1.68-.37c-.12.31-.43,1-.78,1.91l46.14,5.58c.11-.45.21-.92.3-1.4ZM90.24,91.3l-43.88-5.72-2.15-.47c-.21.63-.4,1.3-.54,1.99l46.07,5.57c.18-.44.35-.89.51-1.37h0ZM88.97,94.38l-43.52-5.67-1.96-.43c-.07.71-.07,1.4.05,2.04l44.73,5.41c.22-.39.46-.85.7-1.35Z"/>
    <path id="path18963" class="cls-3" d="M40.44,34.5s-6.82,1.85-8.6,9.12c-1.78,7.27,8.94,47.43,11.13,50.33,2.19,2.9,44.84,6.38,44.84,6.38,0,0,1.83-1.75.38-3.34s-41.26-3.42-42.2-5.3c-.94-1.89,1.34-9.45,4.93-10.48,3.59-1.03,38.62,6.33,40.64,5.16,2.03-1.17,2.88-1.32,2.25-4.08-.63-2.76-11.22-37.61-14.11-40.8-2.9-3.19-34.27-7.44-39.26-6.99h0Z"/>
    <path id="path23149" class="cls-2" d="M41.11,35.66c-2.02,1.84,6.16,35.02,9.47,42.15-3.46,2.58-7.4,7.87-7.17,14.88,1.44-9.06,5.8-12.95,7.65-14.22,6.86,1.26,37.14,7.24,41.49,4.55,0,0-11.18-.83-17.01-1.97-5.84-1.14-22.77-3.34-24-3.84-1.23-.5-10.44-37.54-10.43-41.54Z"/>
    <path id="path31079" class="cls-2" d="M39.45,42.44c.08.31-1.66,1.42-3.19,3.62-.02.02-.03.04-.05.07-.79,1.19-1.26,2.11-1.57,3-.27.8-.34,1.38-.48,1.4-.12.02-.33-.53-.2-1.55.14-1.05.6-2.32,1.48-3.57.02-.02.03-.05.05-.07,1.78-2.6,3.86-3.27,3.95-2.9h0Z"/>
    <path id="path31083" class="cls-2" d="M46.45,74.49c.16.25-1.25,1.98-2.63,4.47-.02.03-.04.07-.06.1-.75,1.4-1.15,2.2-1.54,3.19-.32.83-.46,1.4-.6,1.4-.13,0-.24-.59-.07-1.59.18-1.06.63-2.25,1.37-3.6.02-.04.04-.07.06-.11,1.48-2.7,3.26-4.17,3.46-3.87h0Z"/>
    <path id="path31087" class="cls-2" d="M37.58,49.48s-.11.59.16.65h0c.09.07.22-.01.41-.13.3-.25.75-.77.64-1.17-.08-.4-.23-.96-.5-.86-.27-.02-.57.32-.91.73h0c-.7.95-1.36,2.41-1.14,3.64.09.58.38,1.09.8,1.38.42.3.93.42,1.5.58.42.11.87.23,1.3.48.11.06.22.13.32.21.54.44.86,1.19.91,2.03.11,1.89-.84,3.79-2.05,4.63-.55.38-1.16.5-1.67.24-.62-.38-.85-1.22-.87-1.95,0-.14-.07-.34-.11-.61-.05-.35.06-.74.29-1.03.35-.42.8-.63,1.19-.53.37.13.58.49.68.82.14.41.13.85.03,1.2-.25.81-.72.7-.72.64,0-.06.41-.19.47-.69.05-.27.01-.56-.12-.88-.11-.23-.28-.47-.51-.51-.2-.06-.47.13-.71.41-.06.05-.07.2-.05.32.03.15.11.35.14.67.06.56.23,1.2.61,1.34.29.16.71.03,1.11-.23.89-.61,1.62-2.17,1.52-3.58-.04-.57-.26-1.11-.63-1.39-.08-.06-.16-.12-.25-.17-.34-.2-.76-.31-1.18-.43-.56-.15-1.13-.31-1.66-.68-.57-.41-.94-1.11-1.06-1.93-.21-1.74.59-3.45,1.46-4.49h0c.37-.5.87-.9,1.39-.92.64.11.84.86.86,1.39.02.92-.57,1.5-.99,1.72-.24.16-.49.18-.66.04h0c-.41-.47-.05-.93,0-.92h0Z"/>
    <path id="path31095" class="cls-2" d="M39.07,64.93c0-.05.49-.73.84.04h0c.1.34.03.77-.15,1.19-.14.38-.36.82-.7,1.18-.26.28-.65.45-.99.18-.47-.45-.85-1.3-.62-2.41.21-.85.7-1.63,1.32-2.18h0c.55-.51,1.27-.89,1.99-.81.73.14,1.26.87,1.39,1.82.14.98.02,2.02-.19,3.03-.17.84-.39,1.66-.62,2.5-.08.31-.12.45-.21.75-.29,1.05-.55,2.02-.69,2.99-.11.83-.13,1.61.11,2.15.07.25.38.38.68.56.34.15.62.29.89.22h0c-.1.2-.08-.09.2-.41.44-.58.81-1.09.99-1.67.21-.55.02-1.18-.27-1.5-.07-.24-.46.09-.68.33-.33.46-.55.84-.58,1.23-.17.44.43.28.51.24.19-.11.26-.28.29-.27,0,0,.03.22-.23.45-.14.13-.83.48-.91-.38.02-.54.25-1.11.62-1.62.28-.46.83-.9,1.34-.54.43.42.71,1.25.46,2.23-.24.78-.65,1.44-1.11,2.04,0,.06-.14.44-.63.73h0c-.47.1-.88-.04-1.23-.21-.33-.12-.73-.34-.99-.86-.33-.8-.34-1.78-.2-2.72.15-1.08.42-2.11.71-3.17.07-.25.14-.5.21-.76.23-.83.44-1.62.6-2.4.19-.95.32-1.84.2-2.6-.1-.65-.43-1.2-.86-1.24-.47-.1-1.03.19-1.49.58h0c-.51.45-.91,1.01-1.06,1.61-.21.67.07,1.36.41,1.76.04.14.27.04.42-.09.26-.23.47-.59.61-.9.16-.39.27-.65.21-.88h0c.02-.46-.59-.15-.6-.2h0Z"/>
    <path id="path34561" class="cls-5" d="M49.32,40.3s-1.23-.15-1.51,1.86c-.28,2.01,1.62,12.69,3.18,13.51,1.56.82,28.61,6.43,30.27,3.75,1.66-2.68-2.29-14.02-3.92-15.05-1.63-1.02-26.54-5.05-28.02-4.06Z"/>
    <path id="path36019" class="cls-2" d="M75.76,46.02c-.5-.22-1.35-.42-2.57-.27-1,.15-2.01,1.34-2.94,1.16-.94-.09-1.71-.75-2.63-1.56-.76-.71-1.72-1.54-2.92-1.67-.49-.03-.94.12-1.36.3-.2.09-.39.18-.56.26-.69.29-1.31.57-1.89.53-.88-.02-1.73-.61-2.49-1.1-.77-.53-1.51-1.08-2.46-1.02-.68.08-1.25.52-1.68.9-.55.47-.93.83-1.4.96-1.43.51-2.35-.65-2.39-.57-.04.08.59,1.42,2.44,1.06.58-.14,1.06-.51,1.61-.95.43-.33.93-.7,1.4-.7.72-.06,1.3.48,2.12,1.02.74.53,1.66,1.17,2.76,1.24.77.03,1.49-.27,2.17-.57.2-.08.38-.17.57-.25.39-.17.74-.31,1.05-.26.96.06,1.83.83,2.61,1.49.93.83,1.85,1.51,2.97,1.61,1.4.03,2.27-1.17,3.07-1.33,1.82-.42,3.11.23,3.12.13,0-.05-.18-.23-.57-.4ZM77.1,51.86c-.13-.07-2.2.65-4.33-.88-.5-.36-1.21-1.11-2.09-1.26-1.19-.16-2.36.18-3.65.59-.9.27-1.87.6-2.76.61-.19,0-.37-.01-.55-.04-1.76-.27-3.24-.57-4.47-1.44-.79-.57-1.46-1.12-2.37-1.27-1.02-.12-2.09.5-2.7.81-1.53.71-2.42.18-2.47.27-.03.05.72.96,2.58.21.66-.25,1.71-.79,2.46-.61.75.13,1.31.68,2.13,1.28,1.34.98,2.92,1.35,4.69,1.61.21.03.43.04.64.04,1.03,0,2.05-.35,2.94-.65,1.29-.41,2.35-.77,3.4-.65.63.03,1.32.72,1.92,1.09,2.56,1.59,4.64.44,4.63.31,0,0,0,0,0,0h0ZM72.9,55.61c-.17-.06-1.27.05-2.48-.27-.73-.17-1.52-.77-2.64-1.01-.94-.19-1.9-.15-2.95-.03-.97.11-1.74.23-2.59.25-1.32.05-2.46-.67-3.41-.93-1.26-.34-2.03-.29-2.06-.18-.02.11.75.26,1.89.73.64.26,2.21,1.17,3.52,1.2.88.01,1.71-.1,2.65-.2,1.04-.12,1.93-.18,2.79-.03.96.15,1.84.7,2.68.82,1.77.23,2.59-.2,2.63-.32,0-.01,0-.02-.02-.03h0Z"/>
  </g>
</svg>