<?xml version="1.0" encoding="UTF-8"?>
<svg id="Capa_1" data-name="Capa 1" xmlns="http://www.w3.org/2000/svg" viewBox="0 0 644 614">
  <defs>
    <style>
      .cls-1 {
        fill: #416d25;
      }

      .cls-1, .cls-2, .cls-3, .cls-4, .cls-5, .cls-6, .cls-7, .cls-8, .cls-9, .cls-10, .cls-11, .cls-12 {
        stroke-width: 0px;
      }

      .cls-2 {
        fill: #a6c98f;
      }

      .cls-13 {
        stroke: #417235;
        stroke-miterlimit: 10;
      }

      .cls-13, .cls-11 {
        fill: #fff;
      }

      .cls-3 {
        fill: #346b27;
      }

      .cls-4 {
        fill: #80b25f;
      }

      .cls-5 {
        fill: #3a632f;
      }

      .cls-6 {
        fill: #578738;
      }

      .cls-7 {
        fill: #ed8ca1;
      }

      .cls-8 {
        fill: #536837;
      }

      .cls-9 {
        fill: #496b2c;
      }

      .cls-10 {
        fill: #7aa12d;
      }

      .cls-12 {
        fill: #4a6314;
      }
    </style>
  </defs>
  <g>
    <path class="cls-11" d="M322,613.5c-85.88,0-166.62-31.88-227.34-89.78C33.94,465.83.5,388.86.5,307S33.94,148.17,94.66,90.28C155.38,32.38,236.12.5,322,.5s166.62,31.88,227.34,89.78c60.72,57.89,94.16,134.85,94.16,216.72s-33.44,158.83-94.16,216.72c-60.72,57.9-141.46,89.78-227.34,89.78Z"/>
    <path class="cls-8" d="M322,1c43.34,0,85.38,8.09,124.96,24.05,38.23,15.42,72.56,37.48,102.04,65.59,29.48,28.1,52.62,60.83,68.78,97.27,16.73,37.72,25.22,77.79,25.22,119.09s-8.48,81.37-25.22,119.09c-16.16,36.44-39.31,69.16-68.78,97.27-29.48,28.11-63.81,50.17-102.04,65.59-39.58,15.96-81.62,24.05-124.96,24.05s-85.38-8.09-124.96-24.05c-38.23-15.42-72.56-37.48-102.04-65.59-29.48-28.1-52.62-60.83-68.78-97.27C9.48,388.37,1,348.3,1,307s8.48-81.37,25.22-119.09c16.16-36.44,39.31-69.16,68.78-97.27,29.48-28.11,63.81-50.17,102.04-65.59C236.62,9.09,278.66,1,322,1M322,0C144.16,0,0,137.45,0,307s144.16,307,322,307,322-137.45,322-307S499.84,0,322,0h0Z"/>
  </g>
  <g>
    <path class="cls-1" d="M226.15,167.69s168.45,197.43,286.65,126.37c0,0-74.5,118.31-286.65-126.37Z"/>
    <ellipse class="cls-1" cx="242" cy="171.5" rx="14" ry="3.5" transform="translate(-50.63 123.07) rotate(-25.93)"/>
    <ellipse class="cls-1" cx="356" cy="271.21" rx="14" ry="3.5" transform="translate(-80.09 371.8) rotate(-50.29)"/>
    <ellipse class="cls-1" cx="339" cy="259.21" rx="14" ry="3.5" transform="translate(-67.6 388.76) rotate(-55.08)"/>
    <ellipse class="cls-1" cx="319" cy="245.21" rx="14" ry="3.5" transform="translate(-73.45 333.95) rotate(-50.29)"/>
    <ellipse class="cls-1" cx="301" cy="227.21" rx="14" ry="3.5" transform="translate(-75.57 247.78) rotate(-40.17)"/>
    <ellipse class="cls-1" cx="286" cy="210.21" rx="14" ry="3.5" transform="translate(-63.12 146.2) rotate(-25.93)"/>
    <ellipse class="cls-1" cx="271" cy="197.21" rx="14" ry="3.5" transform="translate(-58.95 138.33) rotate(-25.93)"/>
    <ellipse class="cls-1" cx="255" cy="184.21" rx="14" ry="3.5" transform="translate(-54.88 130.03) rotate(-25.93)"/>
    <ellipse class="cls-1" cx="477.35" cy="306.77" rx="14" ry="3.5" transform="translate(117.75 745.7) rotate(-83.4)"/>
    <ellipse class="cls-1" cx="453.5" cy="307" rx="3.5" ry="14"/>
    <ellipse class="cls-1" cx="426.35" cy="305.77" rx="14" ry="3.5" transform="translate(27.2 646.28) rotate(-76.12)"/>
    <ellipse class="cls-1" cx="400.35" cy="297.77" rx="14" ry="3.5" transform="translate(-29.68 550.79) rotate(-67.11)"/>
    <ellipse class="cls-1" cx="378.35" cy="286.77" rx="14" ry="3.5" transform="translate(-83.99 394.61) rotate(-50.29)"/>
    <path class="cls-4" d="M159,144s-65,27-70,27c0,0-19,6-23,21,0,0-6,28,24,40l34,15s22,60,29,69c0,0-28.49,25.48-40.74,24.24,0,0-32.26-14.24-38.26,2.76,0,0,5,6,18,3,0,0,3,7,0,7,0,0-15,4-12,8,0,0-2,9,19-4,0,0,8-2,2,4,0,0-17,14-7,15l14-14s7,3,2,7c0,0-5.49,10.27,2.26,9.14,0,0,9.74-3.14,12.74-18.14,0,0,29,1,44-16,0,0,16,17,50,18,0,0,5,7-15,7,0,0-24-2-52,31,0,0-37.74-6-36.37,0,0,0-.63,6,11.37,6,0,0,4,8-2,8,0,0-19,1-12,8,0,0,6,6,19-3,0,0,2.62,2.92.81,4.96,0,0-11.81,11.04-5.81,13.04,0,0,1,3,11-8,0,0,13-10,12,0,0,0-9,15,4,15,0,0,6,3,15-24,0,0,24-12,59-13,0,0,27-7,28-19,0,0,34,22,109,26,0,0,61,2,103-8l18,8s2,9-3,12c0,0-19,16-17,27,0,0,9,6,16-4,0,0,10-18,13-9-1.84,9.05-.07,16.74,4.51,19.16.84.45,1.98.82,3.49.84.52-.31.99-.64,1.42-1,5.71-4.74,4.93-14.06,4.58-17,0,0,13-14,18,0,0,0,12,17,16-1-4.26-11.94-5.26-18.61-3-20,.69-.43,1.69-.36,3,.21,0,0,23,16.79,26,5.79,0,0,6-12-18-14,0,0-21,0-34-17,0,0,52-23,62-66,0,0,17-44-17-88,0,0-51-46-119-58,0,0-78-15-117,9,0,0,1,6,17,0,0,0,50-13,104,8,0,0,65.42,15,72.21,66,.56,13.5-3.12,21.97-6.41,27.06-16.22,25.07-63.69,31.17-116.8,10.94-15.14-7.3-32.17-16.75-50-29-21.69-14.9-39.22-30.27-53-44-12.49-13.19-26.01-26.75-40.62-40.5-14.78-13.91-29.3-26.72-43.38-38.5-4.35-2.24-9.62-4.49-15.75-6.25-13.85-3.97-26.05-3.69-34.25-2.75Z"/>
    <path class="cls-13" d="M148.91,196.54c3.3-.72,6.76-.97,10.1-1.05,4.35-.1,8.87-.19,13.11.85,4.68-4.37,7.7-11.29,7.7-19.09,0-13.22-8.69-23.94-19.41-23.94s-19.41,10.72-19.41,23.94c0,7.91,3.12,14.93,7.92,19.28Z"/>
    <ellipse class="cls-9" cx="160.09" cy="180.85" rx="9.55" ry="13.17"/>
    <ellipse class="cls-11" cx="163.6" cy="177.96" rx="3.4" ry="3.04"/>
    <g>
      <path class="cls-11" d="M140.99,198.85c-.66.2,21-9.03,42.01,1.15,0,0-19.09-8.28-42.01-1.15Z"/>
      <path class="cls-12" d="M161.32,195.21c-11.73,0-20.44,3.65-20.34,3.65,0,0,0,0,.01,0,6.9-2.15,13.45-2.9,19.24-2.9,13.44,0,22.77,4.04,22.77,4.04-7.49-3.63-15.07-4.79-21.68-4.79h0Z"/>
    </g>
    <g>
      <path class="cls-11" d="M147.36,155.72s12.15-14.36,27.08,0c0,0-11.81-13.17-27.08,0Z"/>
      <path class="cls-12" d="M160.78,149.33c-8.02,0-13.43,6.38-13.43,6.38,5.09-4.39,9.8-5.85,13.81-5.85,4.78,0,8.57,2.07,10.86,3.75-4.07-3.17-7.89-4.29-11.24-4.29h0ZM172.02,153.62c.79.62,1.6,1.32,2.41,2.1,0,0-.86-.96-2.41-2.1h0Z"/>
    </g>
    <path class="cls-2" d="M124,247s50,36,95,115c0,0-44-2-53-21-6.39-10.95-12.81-22.95-19-36-9.79-20.63-17.25-40.2-23-58Z"/>
    <path class="cls-6" d="M207,212c10.42,15.2,10.45,32.27,2.08,40.82-1.58,1.61-5.79,5.31-14.08,6.18-10.65,1.27-19.57,1.09-26,.62-12.1-.87-30.2-.91-45-12.62-24-19-.96-.42-.96-.42,5.71,2.98,13.08,6.16,21.98,8.46,13.69,3.54,25.64,3.61,33.98,2.96,3.85.53,9.96.86,17-1,1.14-.3,6.76-1.79,9.85-4.06,7.76-5.7,7.96-22.5,1.15-40.94Z"/>
    <ellipse class="cls-7" cx="171.5" cy="212" rx="11.5" ry="8"/>
    <ellipse class="cls-6" cx="81" cy="186" rx="5" ry="3" transform="translate(-120.58 163.15) rotate(-60)"/>
    <path class="cls-6" d="M65.55,196.11s34.45,26.89,88.45,22.89c0,0-40.9,13.23-88.45-22.89Z"/>
    <path class="cls-6" d="M261.29,200s-6.29,53-29.29,56c0,0-5.96,21,17.02,11,0,0,28.51-23.27,23.24-45.64l-10.97-21.36Z"/>
    <path class="cls-6" d="M487.93,312.24s63.2,48.12,61.13,62.94l17.21-18.3s-16.57-38.88-63.42-52.38l-14.92,7.74Z"/>
    <path class="cls-6" d="M512.8,294.06l5.51-13.95s44.9-7.65,64.8,17.12c0,0-2.1,23.06-1.6,23.41s-32.91-23.53-68.7-26.58Z"/>
    <path class="cls-6" d="M519.21,267l-4.93-17.2s22.72-20.8,47.72-7.8l12.34,20.2s-31.92-19.2-55.13,4.8Z"/>
    <path class="cls-6" d="M531.98,219.98l-27.19,14.87-14.43-13.49s13.2-18.14,23.92-11.75l17.7,10.37Z"/>
    <path class="cls-6" d="M487.93,197.16l-17.95-6.49s-15.94,2.75-12.46,13.54l14.96,6.31s-1.61-12.2,15.45-13.36Z"/>
    <path class="cls-6" d="M417.91,192.58s-5.04-6.91,6.53-11.24l18.57,2.67s-11.98,1.23-10.49,12.11l-14.6-3.54Z"/>
    <path class="cls-6" d="M311.88,249.57s-12.88,35.43-31.88,44.43c0,0-2.88,16,20.56,0,0,0,15.39-10.82,18.41-38.41l-7.1-6.02Z"/>
    <path class="cls-6" d="M353.15,280.79l11.71,7.36s1.14,38.85-23.86,42.85c0,0-18-4,3-20,0,0,14.3-19.42,9.15-30.21Z"/>
    <path class="cls-6" d="M419.8,312.44l10.1,2.16s7.72,27.14-13.09,37.77c0,0-12.36,2.31-4.09-12.53,0,0,8.88-18.96,7.08-27.4Z"/>
    <path class="cls-10" d="M256,388s18-26,3-44c0,0,21,17-3,44Z"/>
    <path class="cls-10" d="M517,396s9.72-25.6-26.64-35.8c0,0,26.64,3.8,26.64,35.8Z"/>
    <path class="cls-4" d="M140.98,151.4s-12.7-13.73-24.84-2.07l-13.34,17.17,38.18-15.1Z"/>
    <path class="cls-5" d="M108.91,440.86c-.39,1.36-1.3,2.37-2.73,3.03s-2.98.75-4.65.26l-.1-.03c-1.67-.49-2.93-1.41-3.76-2.77-.86-1.28-1.09-2.6-.7-3.96l8.37-28.79c.69-2.39,2.28-4.16,4.75-5.3s5.1-1.29,7.95-.45l.17.05c2.3.67,4.18,1.86,5.64,3.58,1.47,1.7,2.22,3.57,2.26,5.6l.9,23.55,13.24-19.41c1.15-1.69,2.81-2.87,5-3.55,2.11-.66,4.32-.65,6.64.02l.17.05c2.86.83,5.01,2.38,6.47,4.65,1.47,2.29,1.86,4.64,1.17,7.03l-8.37,28.79c-.39,1.36-1.3,2.35-2.71,2.97-1.44.7-2.99.81-4.67.32l-.1-.03c-1.67-.49-2.93-1.39-3.78-2.71s-1.08-2.66-.68-4.02l5.97-20.53-12.42,18.03c-.99,1.49-2.42,2.52-4.3,3.1-1.91.59-3.87.59-5.89,0l-.14-.04c-2.02-.59-3.68-1.64-4.97-3.16-1.28-1.49-1.94-3.13-1.97-4.92l-.78-21.87-5.97,20.53Z"/>
    <path class="cls-3" d="M185.3,459.39c0,1.58-.65,2.92-1.96,4.02-1.31,1.18-2.93,1.77-4.86,1.77h-.11c-1.93,0-3.56-.59-4.86-1.77-1.31-1.1-1.96-2.44-1.96-4.02v-32.7c0-1.58.65-2.92,1.96-4.02,1.31-1.18,2.93-1.77,4.86-1.77h.11c1.93,0,3.56.59,4.86,1.77,1.31,1.1,1.96,2.44,1.96,4.02v32.7Z"/>
    <path class="cls-5" d="M196.62,423.83c-.57-1.21-.49-2.4.25-3.57.82-1.27,2.02-2.04,3.62-2.31l30.09-5.04c1.62-.27,3.01.06,4.18,1,1.1.86,1.56,1.93,1.38,3.2v.06c-.1.98-.53,1.83-1.29,2.56-.81.75-1.78,1.23-2.93,1.42l-8.12,1.36,4.96,29.63c.26,1.58-.14,3.04-1.22,4.37-1.16,1.39-2.71,2.25-4.64,2.57l-.11.02c-1.91.32-3.64.01-5.19-.93-1.5-.9-2.38-2.15-2.65-3.73l-4.96-29.63-8.12,1.36c-1.12.19-2.19.06-3.19-.4-.96-.44-1.63-1.07-2.01-1.91l-.05-.06Z"/>
    <path class="cls-3" d="M274.61,403.63c7.5.61,13.57,2.96,18.21,7.05,4.86,4.26,7.29,9.82,7.29,16.67,0,6.3-2.14,11.48-6.42,15.53-4.57,4.3-10.94,6.65-19.12,7.05-.53.04-.93.06-1.2.06h-.29s-.62,0-.62,0h-.29c-.27,0-.65-.02-1.16-.06-8.2-.4-14.58-2.75-19.15-7.05-4.28-4.05-6.42-9.22-6.42-15.53,0-6.85,2.43-12.41,7.29-16.67,4.64-4.09,10.73-6.44,18.25-7.05.77-.08,1.38-.13,1.81-.13.41,0,1.02.04,1.81.13ZM272.8,440.29c3.53,0,6.57-1.29,9.11-3.86,2.61-2.66,3.92-5.88,3.92-9.68s-1.31-7.02-3.92-9.68c-2.54-2.57-5.57-3.86-9.11-3.86-3.56,0-6.59,1.29-9.11,3.86-2.64,2.66-3.95,5.88-3.95,9.68s1.32,7.02,3.95,9.68c2.52,2.57,5.55,3.86,9.11,3.86Z"/>
    <path class="cls-5" d="M318.05,418.97c-.04-1.34.5-2.39,1.64-3.18,1.25-.84,2.67-1.07,4.24-.68l29.62,7.32c1.6.39,2.74,1.25,3.44,2.58.67,1.23.67,2.39,0,3.49l-.02.06c-.49.86-1.22,1.47-2.21,1.83-1.04.37-2.12.42-3.25.14l-7.99-1.98-7.21,29.17c-.38,1.56-1.34,2.73-2.85,3.53-1.62.82-3.38.99-5.28.52l-.11-.03c-1.88-.46-3.34-1.43-4.4-2.91-1.02-1.42-1.33-2.91-.95-4.47l7.21-29.17-7.99-1.98c-1.1-.27-2.03-.82-2.77-1.63-.7-.78-1.07-1.63-1.09-2.55l-.02-.07Z"/>
    <path class="cls-3" d="M400.85,420.63c7.5.61,13.57,2.96,18.21,7.05,4.86,4.26,7.29,9.82,7.29,16.67,0,6.3-2.14,11.48-6.42,15.53-4.57,4.3-10.94,6.65-19.12,7.05-.53.04-.93.06-1.2.06h-1.2c-.27,0-.65-.02-1.16-.06-8.2-.4-14.58-2.75-19.15-7.05-4.28-4.05-6.42-9.22-6.42-15.53,0-6.85,2.43-12.41,7.29-16.67,4.64-4.09,10.73-6.44,18.25-7.05.77-.08,1.38-.13,1.81-.13.41,0,1.02.04,1.81.13ZM399.04,457.29c3.53,0,6.57-1.29,9.11-3.86,2.61-2.66,3.92-5.88,3.92-9.68s-1.31-7.02-3.92-9.68c-2.54-2.57-5.57-3.86-9.11-3.86s-6.59,1.29-9.11,3.86c-2.64,2.66-3.95,5.88-3.95,9.68s1.32,7.02,3.95,9.68c2.52,2.57,5.55,3.86,9.11,3.86Z"/>
    <path class="cls-5" d="M450.98,464.68c0,1.56-.65,2.91-1.96,4.05s-2.88,1.68-4.79,1.68h-.11c-1.91,0-3.51-.56-4.79-1.68s-1.96-2.49-1.96-4.05v-32.83c0-1.56.65-2.91,1.96-4.05s2.88-1.68,4.79-1.68h3.41c2.42,0,4.29.85,5.62,2.56l19.19,24.32v-21.16c0-1.56.64-2.89,1.92-3.99,1.33-1.16,2.94-1.74,4.82-1.74h.11c1.91,0,3.51.56,4.79,1.68s1.96,2.49,1.96,4.05v29.82c0,2.38-.99,4.44-2.97,6.17s-4.35,2.56-7.18,2.56h-.18c-3.8,0-6.67-1.39-8.63-4.17l-16-22.65v21.1ZM466.9,425.33c-.82,0-1.62-.09-2.39-.28-.82-.19-2.03-.61-3.63-1.27-1.38-.55-2.44-.82-3.19-.82s-1.72.36-2.83,1.08c-.85.51-1.74.57-2.68.19-.87-.36-1.31-.9-1.31-1.61-.07-.55.02-1.16.29-1.83.51-1.39,1.62-2.49,3.34-3.29.89-.42,2.16-.63,3.81-.63.7,0,1.43.09,2.18.28.73.15,1.77.5,3.12,1.04,1.23.48,2.1.79,2.61.92.44.11.85.16,1.23.16-.02,0,.89-.39,2.76-1.17,1.16-.51,2.2-.55,3.12-.13.85.38,1.28,1,1.31,1.87.07,1.92-1.44,3.56-4.53,4.93-.82.38-1.89.57-3.19.57Z"/>
    <path class="cls-3" d="M516.55,408.88c6.78-3.26,13.2-4.31,19.28-3.13,6.35,1.22,11.25,4.78,14.72,10.69,3.19,5.44,3.96,10.99,2.32,16.64-1.77,6.02-6.08,11.27-12.92,15.75-.44.31-.77.53-1,.66l-.25.15-.53.31-.25.15c-.23.13-.57.31-1.03.53-7.27,3.8-13.97,5-20.09,3.6-5.74-1.33-10.2-4.71-13.39-10.15-3.47-5.91-4.18-11.93-2.14-18.07,1.94-5.88,5.99-10.98,12.17-15.31.62-.46,1.13-.81,1.5-1.03.35-.21.9-.48,1.63-.81ZM533.53,441.42c3.05-1.79,5.01-4.43,5.9-7.93.91-3.61.4-7.06-1.52-10.33s-4.68-5.4-8.28-6.37c-3.49-.93-6.76-.51-9.81,1.28s-5.03,4.44-5.9,7.93c-.93,3.63-.44,7.07,1.48,10.35s4.69,5.39,8.31,6.35c3.47.95,6.74.52,9.81-1.28Z"/>
    <ellipse class="cls-9" cx="189.28" cy="245.11" rx="6.62" ry="3.8"/>
    <ellipse class="cls-9" cx="190.23" cy="235.08" rx="3.78" ry="2.08"/>
    <ellipse class="cls-9" cx="199.69" cy="240.26" rx="3.78" ry="3.11"/>
    <ellipse class="cls-9" cx="171.94" cy="242.34" rx="6.94" ry="3.8"/>
  </g>
</svg>