<?xml version="1.0" encoding="UTF-8"?>
<svg id="Capa_2" data-name="Capa 2" xmlns="http://www.w3.org/2000/svg" viewBox="0 0 278.31 274.69">
  <defs>
    <style>
      .cls-1 {
        fill: #416d25;
      }

      .cls-1, .cls-2, .cls-3, .cls-4, .cls-5, .cls-6, .cls-7, .cls-8, .cls-9, .cls-10, .cls-11, .cls-12 {
        stroke-width: 0px;
      }

      .cls-2 {
        fill: #a6c98f;
      }

      .cls-13 {
        stroke: #417235;
        stroke-miterlimit: 10;
      }

      .cls-13, .cls-11 {
        fill: #fff;
      }

      .cls-3 {
        fill: #346b27;
      }

      .cls-4 {
        fill: #80b25f;
      }

      .cls-5 {
        fill: #3a632f;
      }

      .cls-6 {
        fill: #578738;
      }

      .cls-7 {
        fill: #ed8ca1;
      }

      .cls-8 {
        fill: #536837;
      }

      .cls-9 {
        fill: #496b2c;
      }

      .cls-10 {
        fill: #7aa12d;
      }

      .cls-12 {
        fill: #4a6314;
      }
    </style>
  </defs>
  <g id="Capa_1-2" data-name="Capa 1">
    <g>
      <g>
        <path class="cls-11" d="M139.15,274.19C62.7,274.19.5,212.81.5,137.35S62.7.5,139.15.5s138.65,61.39,138.65,136.85-62.2,136.85-138.65,136.85Z"/>
        <path class="cls-8" d="M139.15,1c36.9,0,71.6,14.18,97.69,39.94,26.09,25.75,40.46,59.99,40.46,96.41s-14.37,70.66-40.46,96.41c-26.09,25.76-60.79,39.94-97.69,39.94s-71.6-14.18-97.69-39.94C15.37,208,1,173.76,1,137.35S15.37,66.69,41.46,40.94C67.55,15.18,102.25,1,139.15,1M139.15,0C62.3,0,0,61.49,0,137.35s62.3,137.35,139.15,137.35,139.15-61.49,139.15-137.35S216,0,139.15,0h0Z"/>
      </g>
      <g>
        <path class="cls-1" d="M90.81,79.05s72.79,88.33,123.88,56.54c0,0-32.2,52.93-123.88-56.54Z"/>
        <ellipse class="cls-1" cx="97.67" cy="80.75" rx="6.09" ry="1.56" transform="translate(-25.93 52.76) rotate(-26.82)"/>
        <ellipse class="cls-1" cx="146.93" cy="125.36" rx="6.18" ry="1.53" transform="translate(-42.72 161.95) rotate(-51.39)"/>
        <ellipse class="cls-1" cx="139.58" cy="119.99" rx="6.19" ry="1.53" transform="translate(-37.84 168.99) rotate(-56.12)"/>
        <ellipse class="cls-1" cx="130.94" cy="113.73" rx="6.18" ry="1.53" transform="translate(-39.64 145.08) rotate(-51.39)"/>
        <ellipse class="cls-1" cx="123.16" cy="105.68" rx="6.14" ry="1.54" transform="translate(-39.11 107.54) rotate(-41.29)"/>
        <ellipse class="cls-1" cx="116.68" cy="98.07" rx="6.09" ry="1.56" transform="translate(-31.7 63.2) rotate(-26.82)"/>
        <ellipse class="cls-1" cx="110.2" cy="92.26" rx="6.09" ry="1.56" transform="translate(-29.77 59.65) rotate(-26.82)"/>
        <ellipse class="cls-1" cx="103.28" cy="86.44" rx="6.09" ry="1.56" transform="translate(-27.89 55.91) rotate(-26.82)"/>
        <ellipse class="cls-1" cx="199.37" cy="141.27" rx="6.26" ry="1.51" transform="translate(36.92 323.8) rotate(-83.65)"/>
        <ellipse class="cls-1" cx="189.07" cy="141.37" rx="1.51" ry="6.26"/>
        <ellipse class="cls-1" cx="177.33" cy="140.82" rx="6.25" ry="1.52" transform="translate(-.68 280.78) rotate(-76.63)"/>
        <ellipse class="cls-1" cx="166.1" cy="137.24" rx="6.23" ry="1.52" transform="translate(-23.54 239.52) rotate(-67.91)"/>
        <ellipse class="cls-1" cx="156.59" cy="132.32" rx="6.18" ry="1.53" transform="translate(-44.52 172.11) rotate(-51.39)"/>
        <path class="cls-4" d="M61.8,68.45s-28.09,12.08-30.25,12.08c0,0-8.21,2.68-9.94,9.4,0,0-2.59,12.53,10.37,17.9l14.69,6.71s9.51,26.84,12.53,30.87c0,0-12.31,11.4-17.61,10.85,0,0-13.94-6.37-16.53,1.23,0,0,2.16,2.68,7.78,1.34,0,0,1.3,3.13,0,3.13,0,0-6.48,1.79-5.19,3.58,0,0-.86,4.03,8.21-1.79,0,0,3.46-.89.86,1.79,0,0-7.35,6.26-3.03,6.71l6.05-6.26s3.03,1.34.86,3.13c0,0-2.37,4.6.97,4.09,0,0,4.21-1.4,5.51-8.11,0,0,12.53.45,19.01-7.16,0,0,6.91,7.61,21.61,8.05,0,0,2.16,3.13-6.48,3.13,0,0-10.37-.89-22.47,13.87,0,0-16.31-2.68-15.72,0,0,0-.27,2.68,4.91,2.68,0,0,1.73,3.58-.86,3.58,0,0-8.21.45-5.19,3.58,0,0,2.59,2.68,8.21-1.34,0,0,1.13,1.31.35,2.22,0,0-5.1,4.94-2.51,5.83,0,0,.43,1.34,4.75-3.58,0,0,5.62-4.47,5.19,0,0,0-3.89,6.71,1.73,6.71,0,0,2.59,1.34,6.48-10.74,0,0,10.37-5.37,25.5-5.82,0,0,11.67-3.13,12.1-8.5,0,0,14.69,9.84,47.1,11.63,0,0,26.36.89,44.51-3.58l7.78,3.58s.86,4.03-1.3,5.37c0,0-8.21,7.16-7.35,12.08,0,0,3.89,2.68,6.91-1.79,0,0,4.32-8.05,5.62-4.03-.8,4.05-.03,7.49,1.95,8.57.36.2.85.37,1.51.37.23-.14.43-.29.61-.45,2.47-2.12,2.13-6.29,1.98-7.61,0,0,5.62-6.26,7.78,0,0,0,5.19,7.61,6.91-.45-1.84-5.34-2.27-8.33-1.3-8.95.3-.19.73-.16,1.3.09,0,0,9.94,7.51,11.24,2.59,0,0,2.59-5.37-7.78-6.26,0,0-9.08,0-14.69-7.61,0,0,22.47-10.29,26.79-29.53,0,0,7.35-19.68-7.35-39.37,0,0-22.04-20.58-51.43-25.95,0,0-33.71-6.71-50.56,4.03,0,0,.43,2.68,7.35,0,0,0,21.61-5.82,44.94,3.58,0,0,28.27,6.71,31.21,29.53.24,6.04-1.35,9.83-2.77,12.11-7.01,11.22-27.52,13.94-50.47,4.9-6.54-3.27-13.9-7.49-21.61-12.97-9.37-6.66-16.95-13.54-22.9-19.68-5.4-5.9-11.24-11.97-17.56-18.12-6.39-6.22-12.66-11.96-18.74-17.22-1.88-1-4.16-2.01-6.81-2.8-5.98-1.78-11.26-1.65-14.8-1.23Z"/>
        <path class="cls-13" d="M57.44,91.96c1.43-.32,2.92-.44,4.36-.47,1.88-.04,3.83-.08,5.66.38,2.02-1.96,3.33-5.05,3.33-8.54,0-5.91-3.76-10.71-8.39-10.71s-8.39,4.79-8.39,10.71c0,3.54,1.35,6.68,3.42,8.63Z"/>
        <ellipse class="cls-9" cx="62.27" cy="84.94" rx="4.13" ry="5.89"/>
        <ellipse class="cls-11" cx="63.79" cy="83.64" rx="1.47" ry="1.36"/>
        <g>
          <path class="cls-11" d="M54.02,92.99c-.28.09,9.08-4.04,18.15.51,0,0-8.25-3.7-18.15-.51Z"/>
          <path class="cls-12" d="M62.8,91.36c-5.07,0-8.84,1.63-8.79,1.63,0,0,0,0,0,0,2.98-.96,5.81-1.3,8.31-1.3,5.81,0,9.84,1.81,9.84,1.81-3.24-1.62-6.51-2.14-9.37-2.14h0Z"/>
        </g>
        <g>
          <path class="cls-11" d="M56.77,73.69s5.25-6.43,11.7,0c0,0-5.1-5.89-11.7,0Z"/>
          <path class="cls-12" d="M62.57,70.84c-3.47,0-5.8,2.86-5.8,2.86,2.2-1.96,4.23-2.62,5.97-2.62,2.06,0,3.7.93,4.69,1.68-1.76-1.42-3.41-1.92-4.86-1.92h0ZM67.43,72.75c.34.28.69.59,1.04.94,0,0-.37-.43-1.04-.94h0Z"/>
        </g>
        <path class="cls-2" d="M46.67,114.53s21.61,16.11,41.05,51.45c0,0-19.01-.89-22.9-9.4-2.76-4.9-5.54-10.27-8.21-16.11-4.23-9.23-7.46-17.98-9.94-25.95Z"/>
        <path class="cls-6" d="M82.54,98.87c4.5,6.8,4.52,14.44.9,18.26-.68.72-2.5,2.37-6.09,2.76-4.6.57-8.46.49-11.24.28-5.23-.39-13.05-.41-19.45-5.65-10.37-8.5-.41-.19-.41-.19,2.47,1.33,5.65,2.76,9.5,3.79,5.92,1.58,11.08,1.61,14.68,1.32,1.67.23,4.3.39,7.35-.45.49-.13,2.92-.8,4.26-1.82,3.35-2.55,3.44-10.07.5-18.31Z"/>
        <ellipse class="cls-7" cx="67.2" cy="98.87" rx="4.97" ry="3.58"/>
        <ellipse class="cls-6" cx="28.09" cy="87.24" rx="2.22" ry="1.31" transform="translate(-62.06 70.72) rotate(-61.77)"/>
        <path class="cls-6" d="M21.41,91.76s14.89,12.03,38.22,10.24c0,0-17.68,5.92-38.22-10.24Z"/>
        <path class="cls-6" d="M106,93.5s-2.72,23.71-12.66,25.05c0,0-2.57,9.4,7.36,4.92,0,0,12.32-10.41,10.04-20.42l-4.74-9.56Z"/>
        <path class="cls-6" d="M203.95,143.72s27.31,21.53,26.42,28.16l7.44-8.19s-7.16-17.39-27.41-23.43l-6.45,3.46Z"/>
        <path class="cls-6" d="M214.69,135.58l2.38-6.24s19.4-3.42,28,7.66c0,0-.91,10.31-.69,10.47s-14.22-10.52-29.69-11.89Z"/>
        <path class="cls-6" d="M217.46,123.48l-2.13-7.69s9.82-9.31,20.62-3.49l5.33,9.04s-13.79-8.59-23.82,2.15Z"/>
        <path class="cls-6" d="M222.98,102.44l-11.75,6.65-6.24-6.03s5.7-8.12,10.34-5.26l7.65,4.64Z"/>
        <path class="cls-6" d="M203.95,92.23l-7.76-2.9s-6.89,1.23-5.38,6.06l6.46,2.82s-.7-5.46,6.68-5.98Z"/>
        <path class="cls-6" d="M173.68,90.18s-2.18-3.09,2.82-5.03l8.02,1.19s-5.18.55-4.53,5.42l-6.31-1.58Z"/>
        <path class="cls-6" d="M127.86,115.68s-5.56,15.85-13.77,19.88c0,0-1.25,7.16,8.88,0,0,0,6.65-4.84,7.96-17.18l-3.07-2.69Z"/>
        <path class="cls-6" d="M145.7,129.65l5.06,3.29s.49,17.38-10.31,19.17c0,0-7.78-1.79,1.3-8.95,0,0,6.18-8.69,3.95-13.52Z"/>
        <path class="cls-6" d="M174.5,143.81l4.37.97s3.34,12.14-5.66,16.9c0,0-5.34,1.04-1.77-5.6,0,0,3.84-8.48,3.06-12.26Z"/>
        <path class="cls-10" d="M103.72,177.61s7.78-11.63,1.3-19.68c0,0,9.08,7.61-1.3,19.68Z"/>
        <path class="cls-10" d="M216.51,181.19s4.2-11.45-11.51-16.02c0,0,11.51,1.7,11.51,16.02Z"/>
        <path class="cls-4" d="M54.01,71.76s-5.49-6.14-10.73-.93l-5.76,7.68,16.5-6.75Z"/>
        <path class="cls-5" d="M40.15,201.26c-.17.61-.56,1.06-1.18,1.35-.62.3-1.29.33-2.01.12h-.05c-.72-.23-1.26-.64-1.63-1.25-.37-.57-.47-1.16-.3-1.77l3.62-12.88c.3-1.07.98-1.86,2.05-2.37,1.06-.51,2.2-.57,3.44-.2l.08.02c.99.3,1.81.83,2.44,1.6.64.76.96,1.6.98,2.5l.39,10.53,5.72-8.68c.49-.75,1.22-1.28,2.16-1.59.91-.3,1.87-.29,2.87,0l.08.02c1.23.37,2.17,1.06,2.8,2.08.64,1.03.81,2.07.5,3.14l-3.62,12.88c-.17.61-.56,1.05-1.17,1.33-.62.31-1.29.36-2.02.14h-.05c-.72-.23-1.27-.64-1.63-1.23-.37-.59-.47-1.19-.29-1.8l2.58-9.18-5.37,8.07c-.43.67-1.05,1.13-1.86,1.39-.82.26-1.67.26-2.55,0l-.06-.02c-.87-.26-1.59-.73-2.15-1.41-.55-.67-.84-1.4-.85-2.2l-.34-9.78-2.58,9.18Z"/>
        <path class="cls-3" d="M73.17,209.55c0,.71-.28,1.31-.85,1.8-.56.53-1.26.79-2.1.79h-.05c-.84,0-1.54-.26-2.1-.79-.56-.49-.85-1.09-.85-1.8v-14.63c0-.71.28-1.31.85-1.8.56-.53,1.26-.79,2.1-.79h.05c.84,0,1.54.26,2.1.79.56.49.85,1.09.85,1.8v14.63Z"/>
        <path class="cls-5" d="M78.06,193.64c-.25-.54-.21-1.07.11-1.6.35-.57.88-.91,1.57-1.03l13-2.25c.7-.12,1.3.03,1.8.45.48.39.67.86.6,1.43v.03c-.04.44-.23.82-.56,1.14-.35.34-.77.55-1.26.64l-3.51.61,2.14,13.26c.11.71-.06,1.36-.53,1.96-.5.62-1.17,1.01-2.01,1.15h-.05c-.82.15-1.57.01-2.24-.41-.65-.4-1.03-.96-1.14-1.67l-2.14-13.26-3.51.61c-.48.08-.94.03-1.38-.18-.41-.2-.7-.48-.87-.85l-.02-.03Z"/>
        <path class="cls-3" d="M111.76,184.61c3.24.27,5.86,1.33,7.87,3.16,2.1,1.91,3.15,4.39,3.15,7.46,0,2.82-.92,5.14-2.77,6.95-1.98,1.92-4.73,2.98-8.26,3.16-.23.02-.4.03-.52.03h-.13s-.27,0-.27,0h-.13c-.11,0-.28,0-.5-.03-3.54-.18-6.3-1.23-8.28-3.16-1.85-1.81-2.77-4.13-2.77-6.95,0-3.07,1.05-5.55,3.15-7.46,2.01-1.83,4.64-2.88,7.89-3.16.33-.04.6-.06.78-.06.18,0,.44.02.78.06ZM110.97,201.01c1.53,0,2.84-.58,3.93-1.73,1.13-1.19,1.69-2.63,1.69-4.33s-.56-3.14-1.69-4.33c-1.1-1.15-2.41-1.73-3.93-1.73s-2.85.58-3.93,1.73c-1.14,1.19-1.71,2.63-1.71,4.33s.57,3.14,1.71,4.33c1.09,1.15,2.4,1.73,3.93,1.73Z"/>
        <path class="cls-5" d="M130.53,191.47c-.02-.6.22-1.07.71-1.42.54-.38,1.15-.48,1.83-.3l12.8,3.28c.69.18,1.18.56,1.48,1.15.29.55.29,1.07,0,1.56v.03c-.22.38-.53.66-.96.82-.45.17-.92.19-1.4.06l-3.45-.88-3.12,13.05c-.17.7-.58,1.22-1.23,1.58-.7.36-1.46.44-2.28.23h-.05c-.81-.22-1.45-.65-1.9-1.31-.44-.64-.58-1.3-.41-2l3.12-13.05-3.45-.88c-.48-.12-.88-.37-1.2-.73-.3-.35-.46-.73-.47-1.14v-.03Z"/>
        <path class="cls-3" d="M166.31,192.21c3.24.27,5.86,1.33,7.87,3.16,2.1,1.91,3.15,4.39,3.15,7.46,0,2.82-.92,5.14-2.77,6.95-1.98,1.92-4.73,2.98-8.26,3.16-.23.02-.4.03-.52.03h-.52c-.11,0-.28,0-.5-.03-3.54-.18-6.3-1.23-8.28-3.16-1.85-1.81-2.77-4.13-2.77-6.95,0-3.07,1.05-5.55,3.15-7.46,2.01-1.83,4.64-2.88,7.89-3.16.33-.04.6-.06.78-.06.18,0,.44.02.78.06ZM165.53,208.61c1.53,0,2.84-.58,3.93-1.73,1.13-1.19,1.69-2.63,1.69-4.33s-.56-3.14-1.69-4.33c-1.1-1.15-2.41-1.73-3.93-1.73s-2.85.58-3.93,1.73c-1.14,1.19-1.71,2.63-1.71,4.33s.57,3.14,1.71,4.33c1.09,1.15,2.4,1.73,3.93,1.73Z"/>
        <path class="cls-5" d="M187.98,211.92c0,.7-.28,1.3-.85,1.81s-1.24.75-2.07.75h-.05c-.83,0-1.52-.25-2.07-.75s-.85-1.11-.85-1.81v-14.69c0-.7.28-1.3.85-1.81s1.24-.75,2.07-.75h1.47c1.05,0,1.86.38,2.43,1.15l8.29,10.88v-9.47c0-.7.28-1.29.83-1.78.57-.52,1.27-.78,2.09-.78h.05c.83,0,1.52.25,2.07.75s.85,1.11.85,1.81v13.34c0,1.07-.43,1.99-1.29,2.76s-1.88,1.15-3.1,1.15h-.08c-1.64,0-2.88-.62-3.73-1.87l-6.91-10.13v9.44ZM194.86,194.32c-.36,0-.7-.04-1.03-.13-.36-.08-.88-.27-1.57-.57-.6-.25-1.06-.37-1.38-.37s-.74.16-1.22.48c-.37.23-.75.25-1.16.08-.38-.16-.56-.4-.56-.72-.03-.25.01-.52.13-.82.22-.62.7-1.11,1.44-1.47.39-.19.94-.28,1.65-.28.3,0,.62.04.94.13.31.07.76.22,1.35.47.53.22.91.35,1.13.41.19.05.37.07.53.07-.01,0,.39-.17,1.19-.52.5-.23.95-.25,1.35-.06.37.17.55.45.56.83.03.86-.62,1.59-1.96,2.21-.36.17-.82.25-1.38.25Z"/>
        <path class="cls-3" d="M216.31,186.95c2.93-1.46,5.71-1.93,8.33-1.4,2.74.54,4.86,2.14,6.36,4.78,1.38,2.43,1.71,4.92,1,7.45-.76,2.69-2.63,5.04-5.58,7.05-.19.14-.33.24-.43.3l-.11.07-.23.14-.11.07c-.1.06-.25.14-.45.24-3.14,1.7-6.04,2.24-8.68,1.61-2.48-.59-4.41-2.11-5.79-4.54-1.5-2.64-1.81-5.34-.93-8.08.84-2.63,2.59-4.91,5.26-6.85.27-.21.49-.36.65-.46.15-.09.39-.21.7-.36ZM223.65,201.51c1.32-.8,2.17-1.98,2.55-3.55.39-1.62.17-3.16-.66-4.62-.83-1.46-2.02-2.41-3.58-2.85-1.51-.42-2.92-.23-4.24.57-1.33.8-2.18,1.99-2.55,3.55-.4,1.62-.19,3.17.64,4.63.83,1.46,2.03,2.41,3.59,2.84,1.5.42,2.91.23,4.24-.57Z"/>
        <ellipse class="cls-9" cx="74.88" cy="113.68" rx="2.86" ry="1.7"/>
        <ellipse class="cls-9" cx="75.29" cy="109.2" rx="1.64" ry=".93"/>
        <ellipse class="cls-9" cx="79.38" cy="111.52" rx="1.64" ry="1.39"/>
        <ellipse class="cls-9" cx="67.39" cy="112.45" rx="3" ry="1.7"/>
      </g>
    </g>
  </g>
</svg>