<?xml version="1.0" encoding="UTF-8"?>
<svg id="Capa_1" data-name="Capa 1" xmlns="http://www.w3.org/2000/svg" viewBox="0 0 501 727">
  <defs>
    <style>
      .cls-1 {
        fill: #81d5e2;
      }

      .cls-1, .cls-2, .cls-3, .cls-4, .cls-5, .cls-6, .cls-7 {
        stroke-miterlimit: 10;
      }

      .cls-1, .cls-2, .cls-4, .cls-6 {
        stroke: #2e7687;
      }

      .cls-2 {
        fill: #b3e8f4;
      }

      .cls-3 {
        fill: #c15bb7;
      }

      .cls-3, .cls-7 {
        stroke: #773174;
      }

      .cls-8 {
        fill: #429393;
      }

      .cls-8, .cls-9, .cls-10, .cls-11, .cls-12, .cls-13 {
        stroke-width: 0px;
      }

      .cls-9 {
        fill: #11000e;
      }

      .cls-10 {
        fill: none;
      }

      .cls-4 {
        fill: #6bc5dd;
      }

      .cls-5 {
        fill: #167382;
        stroke: #356060;
      }

      .cls-6 {
        fill: #76c2ce;
      }

      .cls-11 {
        fill: #fff;
      }

      .cls-7, .cls-12 {
        fill: #eda2d2;
      }

      .cls-13 {
        fill: #eaeaac;
      }
    </style>
  </defs>
  <rect class="cls-13" width="501" height="727" rx="84.32" ry="84.32"/>
  <g>
    <path class="cls-2" d="M230.22,353.82c-1.7-52.51-30.53-93.35-67.04-101.37-7.34-1.61-24.29-3.94-46.68,6.1-7.58,4.49-16.16,10.46-24.81,18.34-17.9,16.33-28.32,33.84-34.28,46.27,0,0-23.41,37.37,0,57.56,0,0,59.09,55.23,132.67,24.57l18.95,10.95s-16.72,17.52-12.26,29.57c0,0,14.49,15.1,37.35,9.19,0,0,21.74,28.04,83.06,15.99,0,0,35.68-4.38,34.56-14.24l-18.95-12.05s26.76-3.29,26.76-7.67c0,0,8.92,20.81,61.32,4.38,0,0,17.84-6.57,16.72-14.24,0,0-3.34-9.86-34.56-12.05v-3.29s39.12-16.9,34.61-47.33c0,0-29.04,21.04-52.45,15.57,0,0-7.8-24.09-47.94-43.8-2.86-1.62-47.74-26.24-84.73-4.38-10.67,6.3-17.73,14.73-22.3,21.9Z"/>
    <path class="cls-5" d="M222.41,372.43s97.4,29.52,154.06-6.59c-6.23-8.1-12.48-13.96-17.48-18.05-28.72-23.5-69.72-32.43-93.65-21.9-5.85,2.57-12.26,6.57-12.26,6.57-10.56,6.58-18.05,13.82-22.92,19.22-2.58,6.92-5.16,13.83-7.74,20.75Z"/>
    <path class="cls-1" d="M212.93,389.41s70.24,43.8,172.25-9.31c0,0-2.38-10.45-8.72-14.26-18.82,8.48-35.38,12.51-47.14,14.59-30.9,5.46-55.57,2.19-69.57.22-15.61-2.2-28.39-5.51-37.35-8.21-3.16,5.66-6.32,11.32-9.48,16.97Z"/>
    <path class="cls-7" d="M332.79,444.71s23.97-.55,26.76-7.67l-2.79-20.26s-35.68,18.62-76.93,8.76c0,0,39.02,20.81,52.96,19.16Z"/>
    <ellipse class="cls-9" cx="132.66" cy="327.53" rx="18.95" ry="22.45"/>
    <ellipse class="cls-11" cx="129.32" cy="319.32" rx="8.77" ry="6.68" transform="translate(-212.67 360.94) rotate(-74.89)"/>
    <ellipse class="cls-12" cx="160.53" cy="368.05" rx="18.95" ry="9.31"/>
    <path class="cls-12" d="M130.43,261.8s-20.07,11.07,0,6.92c0,0,13.14-11.18,34.44,0,0,0,11.98,5.65,5.49-6.92,0,0-31.02-7.15-39.94,0Z"/>
    <ellipse class="cls-12" cx="113.71" cy="277.71" rx="5.57" ry="5.48"/>
    <path class="cls-6" d="M226.98,360.19s81.71,23.64,140.59-3.96c0,0,7.99,6.3,8.9,9.61,0,0-53.72,32.87-154.06,6.59l4.57-12.24Z"/>
    <path class="cls-10" d="M244.62,337.56s34.09,12.4,35.21,45.27c0,0-44.04-6.01-57.42-10.39l7.65-22.85,14.56-12.02Z"/>
    <path class="cls-6" d="M313.56,324.86s-45.61,15.69-46.64,27.8c0,0-11.23-11.65-22.3-15.1,0,0,31.86-25.22,68.93-12.7Z"/>
    <path class="cls-6" d="M341.09,377.98s-6.63-44.83-27.54-53.11c0,0,45.28,13.58,62.91,40.98,0,0-28.19,13.29-35.38,12.13Z"/>
    <path class="cls-6" d="M351.72,342.65s-16.63-8.67-17.22,10.01c0,0-6.72-21.71-20.94-27.8,0,0,31.44,8.81,38.16,17.79Z"/>
    <path class="cls-4" d="M209.03,416.24s17.22,14.88,27.56,14.56c0,0-.76-11.39,5.91-12.97,0,0-6.71-7.29-8.38,37.18"/>
    <path class="cls-12" d="M80.26,364.99s1.85,22.2,28.14,9.74c0,0-22.04,6.73-28.14-9.74Z"/>
    <path class="cls-4" d="M190.08,405.29s17.28-6.02,22.86-15.88"/>
    <path class="cls-3" d="M313.56,428.08s12.49,1.53,12.51,16.2"/>
    <path class="cls-3" d="M340.76,422.95s9.38,8.94,9.06,19.18"/>
    <ellipse class="cls-12" cx="258.09" cy="449.64" rx="8.92" ry="7.12"/>
    <ellipse class="cls-12" cx="368.46" cy="436.5" rx="8.92" ry="7.12"/>
    <ellipse class="cls-12" cx="204.02" cy="434.31" rx="8.27" ry="4.98" transform="translate(-260.96 315.79) rotate(-50.54)"/>
    <ellipse class="cls-12" cx="301.57" cy="458.4" rx="6.69" ry="3.83"/>
    <ellipse class="cls-12" cx="390.76" cy="418.98" rx="3.34" ry="3.83"/>
    <ellipse class="cls-12" cx="417.52" cy="431.02" rx="6.69" ry="3.83"/>
    <path class="cls-6" d="M266.92,352.66l.09,14.42-40.03-6.89s4.2-14.63,17.64-22.63c0,0,22.27,10.9,22.3,15.1Z"/>
    <path class="cls-6" d="M266.92,352.66h67.57s-12.88-28.2-20.94-27.8c0,0-43.35,13.96-46.64,27.8Z"/>
    <path class="cls-6" d="M266.92,352.66c5.31.04,11.77.59,18.92,2.33,12.91,3.13,22.69,8.79,29,13.23-6.91.91-14.98,1.5-23.99,1.28-8.98-.22-17-1.19-23.84-2.42-.03-4.81-.06-9.61-.09-14.42Z"/>
    <path class="cls-6" d="M313.56,368.05s11.54,1.93,25.05-1.96l-4.12-13.44h-67.57s30.86,3.02,46.64,15.39Z"/>
    <path class="cls-6" d="M338.61,366.1s21.23-3.8,28.96-9.86l-15.85-13.58s-9.59-4.55-14.49-.07c-3.22,2.95-2.52,10.11-2.74,10.08,0,0-.07,0,0-2.67h0l4.12,16.11Z"/>
  </g>
  <g>
    <path class="cls-8" d="M235.6,695.38c-1.77.83-4.54,1.57-8.32,2.23-3.48.61-6.33.91-8.53.91-1.58,0-2.71-.24-3.4-.73-.94-.66-1.41-1.86-1.41-3.61l.47-7.76c.41-7.16.61-15.09.61-23.81,0-.67.22-1.24.67-1.71s1-.7,1.65-.7,1.23.23,1.68.7.67,1.04.67,1.71c0,8.83-.21,16.86-.63,24.09l-.3,3.56c-.12,1.3-.17,2.45-.14,3.45,4.08.05,9.23-.91,15.47-2.88.27-.08.52-.12.75-.12.67,0,1.23.27,1.69.8.39.48.59,1.04.59,1.66,0,1-.5,1.73-1.5,2.2Z"/>
    <path class="cls-8" d="M260.4,682.66c0,1.12,0,2.81.02,5.06s.02,3.94.02,5.06c0,.34.03.87.08,1.57s.08,1.23.08,1.57c0,.67-.23,1.22-.68,1.65s-1.01.64-1.66.64c-1.2,0-1.97-.74-2.3-2.23-1.95,1.02-4.2,1.52-6.75,1.52-2.05,0-3.74-.45-5.09-1.36-1.48-1-2.37-2.46-2.65-4.38-.61-4.14-.91-7.83-.91-11.06,0-2.14.23-4.58.7-7.31.22-1.36.96-2.04,2.23-2.04.67,0,1.23.21,1.69.64s.68.98.68,1.65c0,.72-.11,1.87-.34,3.45s-.34,2.78-.34,3.61c0,2.61.09,4.84.26,6.7s.43,3.35.77,4.48c.52.28,1.02.5,1.52.64s.99.22,1.48.22c2.09,0,4.3-.34,6.63-1.01l-.02-4.76-.05-4.55c0-3.38.15-6.3.45-8.79.17-1.44.93-2.16,2.27-2.16.67,0,1.23.22,1.69.66s.66.98.63,1.64l-.42,8.86Z"/>
    <path class="cls-8" d="M272.19,677.92l-.35,11.65c0,1.23-.06,3.05-.19,5.44-.16,1.56-.92,2.34-2.3,2.34-1.53,0-2.3-.8-2.3-2.39,0-1.89.09-4.73.26-8.52s.26-6.63.26-8.52c0-2.47.04-5.29.12-8.47s.12-6,.12-8.47c0-1.56.77-2.34,2.3-2.34s2.32.78,2.32,2.34c0,2.47-.04,5.29-.12,8.47s-.12,6-.12,8.47Z"/>
    <path class="cls-8" d="M284.92,685.7c0,.94.03,2.34.08,4.21s.08,3.27.08,4.21c0,.69-.21,1.25-.63,1.69s-.98.66-1.66.66-1.22-.22-1.65-.66-.64-1-.64-1.69c0-.94-.03-2.34-.08-4.21s-.08-3.27-.08-4.21c0-1.47.08-3.3.23-5.5s.23-4.03.23-5.5c0-.7.21-1.27.64-1.71s.98-.66,1.65-.66,1.22.22,1.65.66.64,1.01.64,1.71c0,1.47-.08,3.3-.23,5.5s-.23,4.03-.23,5.5ZM283.86,666.67c-.75,0-1.4-.27-1.95-.8s-.82-1.17-.82-1.92.27-1.39.82-1.92,1.2-.8,1.95-.8,1.39.27,1.93.8.81,1.17.81,1.92-.27,1.39-.81,1.92-1.18.8-1.93.8Z"/>
  </g>
</svg>