<?xml version="1.0" encoding="UTF-8"?>
<svg id="Capa_1" data-name="Capa 1" xmlns="http://www.w3.org/2000/svg" viewBox="0 0 501 727">
  <defs>
    <style>
      .cls-1 {
        fill: #b8b3e8;
      }

      .cls-1, .cls-2, .cls-3, .cls-4, .cls-5, .cls-6, .cls-7, .cls-8 {
        stroke-width: 0px;
      }

      .cls-2 {
        fill: #000;
      }

      .cls-9 {
        fill: #8474c1;
        stroke: #4f3499;
        stroke-miterlimit: 10;
      }

      .cls-3 {
        fill: #4e5b25;
      }

      .cls-4 {
        fill: #738440;
      }

      .cls-5 {
        fill: #d8d7f4;
      }

      .cls-6 {
        fill: #fff;
      }

      .cls-7 {
        fill: #9e93d8;
      }

      .cls-8 {
        fill: #461da0;
      }
    </style>
  </defs>
  <rect class="cls-5" width="501" height="727" rx="84.32" ry="84.32"/>
  <g>
    <g>
      <path class="cls-9" d="M178.39,489.58s37.97,13.28,34.84-28.78l-36.57-4.94,1.72,33.72Z"/>
      <path class="cls-9" d="M174.53,456.2s33.51,11.58,51.78,4.6l-1.18-37.27-44.62,12.68-5.97,19.99Z"/>
      <path class="cls-9" d="M250.81,383.18c36.33-14.43,75.13-8.68,98.19,14.53,15.21,15.31,19.38,33.99,20.72,43.51.74,3.23,6.17,28.45-9.32,44.2-16.04,16.32-42.55,10.29-55.41,7.36-7.35-1.67-27.11-6.44-42.21-23.02-19.78-21.72-23.93-55.31-11.97-86.57Z"/>
      <path class="cls-9" d="M239.41,398.63c5.65.14,42.98,1.59,60.33,28.27,5.98,9.2,7.71,18.5,8.7,24.11,4.44,25.2-4.22,45.78-8.79,54.88-21.53,14.57-46.81,17.35-64.72,6.5-8.19-4.96-13.35-11.87-16.55-17.71.31-7.91.41-16.21.22-24.87-.32-14.81-1.43-28.62-3-41.29,3.23-1.16,13.6-5.34,19.68-16.27,2.94-5.28,3.85-10.3,4.14-13.63Z"/>
      <path class="cls-1" d="M382.51,180.66s-95.35-15.69-84.65,97.39c0,0,5.81,59.94-42.08,84.47,0,0-30.49,14.52,7.36,34.68,0,0,65.46,59.2,146.11-50.93,0,0,86.84-116.51-26.75-165.61Z"/>
      <path class="cls-8" d="M381.64,236.21c-.79-.03-1.6-.15-2.37-.33-.78-.19-1.54-.45-2.26-.81-.72-.36-1.41-.81-2.05-1.3-.73-.56-1.39-1.18-1.96-1.89-.57-.72-1.09-1.49-1.55-2.28-.75-1.28-1.32-2.64-1.79-4.04-.25-.75-.47-1.52-.65-2.29-.14-.62-.24-1.24-.36-1.86-.11-.25-.04-.57.15-.77.28-.28.71-.25,1,0,.19.17.22.46.26.7.06.36.13.72.2,1.08,0,0,0,0,0,0,.22,1.08.52,2.14.89,3.18,0,0,0-.02,0-.03.29.81.61,1.61.99,2.39,0-.01-.01-.02-.02-.04,0,.02.02.03.02.05,0,0,0,0,0,0,0,0,0,0,0,0,.39.76.83,1.49,1.32,2.19-.02-.03-.03-.05-.05-.07.33.48.69.96,1.08,1.4-.02-.03-.04-.05-.06-.07.26.28.53.54.82.79,0,0-.01,0-.02-.01.41.35.84.68,1.29.98-.02-.01-.03-.02-.04-.03.39.26.8.5,1.22.71.31.15.63.28.96.39.45.15.91.27,1.38.37.46.09.92.15,1.38.19.54.03,1.07.02,1.61,0,.4-.04.8-.1,1.19-.18,0,0-.01,0-.02,0,.02,0,.04,0,.06-.01,0,0,.02,0,.03,0,0,0,0,0,0,0,.54-.11,1.07-.25,1.59-.42.33-.12.65-.25.96-.4,0,0-.01,0-.02,0,0,0,.02,0,.03-.01.02,0,.04-.02.05-.03,0,0-.02,0-.03.01.28-.14.55-.3.81-.47.02-.01.03-.02.05-.03-.01,0-.03.02-.04.03.3-.2.59-.42.86-.66,0,0-.01.01-.02.02.18-.16.35-.33.51-.51,0,0,0,0,0,0,0,0,0,0,0-.01.02-.02.03-.04.05-.05-.01.01-.02.02-.03.03.23-.27.46-.55.66-.85-.01.03-.03.05-.05.08.31-.45.58-.92.83-1.4,0,0,0,0,0,.01,0-.02.02-.03.02-.05,0-.01.01-.02.02-.03,0,0,0,0,0,.01.25-.52.46-1.05.66-1.59,0,.02-.01.03-.02.05.21-.61.37-1.22.5-1.84,0,0,0,0,0,0,.16-.77.26-1.54.32-2.32,0,0,0,.02,0,.03.05-.8.05-1.61,0-2.41,0,0,0,.01,0,.02-.08-1.02-.23-2.03-.44-3.04,0,.03.01.06.02.09-.14-.68-.3-1.35-.48-2.01-.1-.37.12-.76.49-.86.37-.1.77.12.87.49.36,1.37.66,2.76.84,4.16.22,1.76.19,3.55-.08,5.31-.24,1.55-.69,3.1-1.4,4.51-.37.73-.78,1.43-1.28,2.08-.52.67-1.12,1.24-1.81,1.73-.07.05-.15.1-.22.15,0,0,.01,0,.02-.01-.02.01-.04.02-.06.04,0,0-.01,0-.02.01,0,0,0,0,.01,0-.64.42-1.34.76-2.06,1.01-.76.26-1.54.44-2.33.58-.6.11-1.22.15-1.84.15-.19,0-.38,0-.56-.01Z"/>
      <path class="cls-8" d="M351.21,222.22c.44,5.55-1.84,10.25-5.1,10.5-.09,0-.18.01-.27.01-3.15,0-5.99-4.21-6.42-9.6-.44-5.55,1.84-10.25,5.1-10.5,3.26-.25,6.25,4.04,6.69,9.59Z"/>
      <path class="cls-6" d="M342.7,215.98c.84.04,1.48,1.23,1.42,2.67-.06,1.42-.77,2.55-1.61,2.55h-.04c-.84-.04-1.48-1.23-1.42-2.67.06-1.44.8-2.58,1.64-2.55Z"/>
      <path class="cls-8" d="M415.39,212.26c.79,5.12-.72,9.64-3.37,10.09-.07.01-.15.02-.22.03-2.58.21-5.24-3.51-6-8.49-.79-5.12.72-9.64,3.37-10.09,2.65-.45,5.44,3.34,6.23,8.46Z"/>
      <path class="cls-6" d="M408.02,206.93c.69.03,1.21,1.02,1.17,2.22-.05,1.18-.64,2.12-1.32,2.12h-.03c-.69-.03-1.21-1.02-1.17-2.22.05-1.2.65-2.15,1.35-2.12Z"/>
      <g>
        <path class="cls-2" d="M97.99,376.17c.28-.26.27-.72,0-.99-.27-.27-.71-.26-.99-.01-.72.61-1.43,1.21-2.1,1.86-.8.78-1.56,1.61-2.28,2.47-1.09,1.3-2.09,2.66-2.98,4.11-.85,1.4-1.61,2.86-2.27,4.35-.15.35.03.77.39.91.09.03.17.05.26.05.28,0,.54-.17.66-.43.24-.54.48-1.07.74-1.59.68-1.35,1.44-2.65,2.28-3.89,0,.01-.01.02-.02.03.84-1.23,1.77-2.4,2.77-3.51.89-.99,1.83-1.93,2.85-2.79.22-.19.46-.37.68-.57Z"/>
        <path class="cls-2" d="M97.01,375.17s0,0,0,0c0,0,0,0,.01-.01,0,0,0,0-.01.01Z"/>
        <path class="cls-2" d="M96.96,375.22s.04-.03.06-.05c0,0,0,0,0,0-.01.01-.03.03-.05.04Z"/>
        <path class="cls-2" d="M105.61,390.41s.04-.04.06-.07c-.14.16-.3.29-.45.45-.37.38-.72.77-1.07,1.16-.64.74-1.25,1.51-1.81,2.3-1.02,1.43-1.93,2.94-2.74,4.5-.72,1.39-1.35,2.82-1.87,4.3-.13.36.02.76.39.91.08.03.17.05.26.05.28,0,.57-.16.66-.43.45-1.26.97-2.49,1.57-3.69.71-1.42,1.5-2.81,2.39-4.13,0,.01-.01.02-.02.03.79-1.15,1.64-2.25,2.57-3.3,0,0,0,0-.01.01.02-.02.04-.04.06-.06,0,0,0,0,0,0,0,0,0,0,0,0,.26-.29.52-.57.79-.84.11-.11.23-.22.33-.33.26-.29.17-.76-.12-.98-.32-.24-.73-.16-.99.12Z"/>
        <path class="cls-2" d="M119.64,403.95c-.13.14-.24.31-.34.46-.27.38-.53.77-.78,1.17-.44.69-.83,1.42-1.22,2.14-.75,1.43-1.39,2.92-1.94,4.43-.53,1.44-.98,2.89-1.36,4.37-.09.37.13.75.5.85.06.01.11.02.17.02.31,0,.61-.21.69-.52.26-1.04.56-2.07.9-3.09,0,0,0,.01,0,.02,0,0,0-.02,0-.03,0,0,0,0,0,0,0,0,0,0,0,0,.56-1.65,1.21-3.27,1.98-4.84.6-1.19,1.26-2.35,2.01-3.46.16-.23.31-.48.5-.68.25-.29.17-.76-.12-.98-.32-.24-.73-.16-.99.12Z"/>
        <path class="cls-2" d="M138.88,412.58c-.04.08-.09.15-.13.23-.14.25-.28.5-.4.75-.29.57-.56,1.15-.81,1.75-.69,1.65-1.31,3.32-1.78,5.04-.43,1.57-.76,3.18-.97,4.79-.05.38.23.73.61.78.03,0,.06,0,.09,0,.35,0,.66-.26.7-.61.09-.69.2-1.38.33-2.06.29-1.45.66-2.88,1.12-4.28,0,0,0,.01,0,.02,0-.02.01-.03.02-.05,0-.01,0-.02.01-.04,0,0,0,0,0,.01.54-1.58,1.16-3.16,1.91-4.65.12-.24.25-.49.39-.73.05-.08.11-.17.15-.25.17-.34.09-.75-.26-.95-.32-.18-.79-.08-.97.25Z"/>
        <path class="cls-2" d="M163.12,416.74c.11-.36-.12-.75-.49-.86-.37-.1-.76.12-.87.49-.33,1.15-.58,2.33-.81,3.51-.36,1.82-.62,3.67-.81,5.51-.16,1.59-.26,3.18-.26,4.78,0,.38.32.7.71.7s.7-.32.71-.7c0-.97.04-1.94.1-2.91.19-2.64.56-5.27,1.09-7.86.19-.89.39-1.79.64-2.66Z"/>
        <path class="cls-2" d="M190.41,429.35c-.46-2.24-.78-4.51-.94-6.8-.11-1.71-.13-3.42-.01-5.13,0,0,0,0,0,0,.02-.33.05-.66.09-.99.01-.13.04-.27.04-.41,0-.38-.32-.7-.71-.7s-.71.32-.71.7h0s0,0,0,0c-.02.19-.04.37-.06.56-.04.45-.07.91-.1,1.37-.04.77-.05,1.54-.04,2.31.05,3.68.56,7.35,1.42,10.93.07.31.38.51.69.51.06,0,.12,0,.18-.02.38-.1.58-.49.49-.86-.12-.5-.23-1-.34-1.5,0,0,0,0,0,.01Z"/>
        <path class="cls-2" d="M213.19,412.84c-.35-.81-.72-1.62-1.11-2.41-.22-.44-.43-.89-.69-1.3-.2-.32-.62-.45-.96-.25-.33.19-.46.63-.25.95.16.26.3.52.43.79,0,0,0,0,0,0,1.06,2.08,1.94,4.25,2.72,6.45.65,1.88,1.21,3.78,1.67,5.72.07.31.38.51.69.51.06,0,.12,0,.18-.02.38-.11.58-.49.49-.86-.42-1.77-.92-3.52-1.51-5.24-.5-1.47-1.05-2.92-1.66-4.34Z"/>
        <path class="cls-2" d="M227.75,393.81c-.52-.59-1.05-1.17-1.62-1.71-.28-.27-.57-.53-.87-.78-.14-.12-.28-.25-.44-.34-.33-.19-.77-.08-.96.25-.19.32-.09.74.23.94,0,0,0,0,0,0,0,0,0,0,.01,0,0,0,0,0-.01,0,.19.14.37.3.55.46.67.6,1.3,1.24,1.89,1.91,1.18,1.34,2.27,2.75,3.28,4.22,1.06,1.56,2.03,3.17,2.89,4.85,0,0,0,0,0-.01.01.02.02.04.03.06,0,0,0,.01.01.02,0,0,0,0,0,0,.46.91.89,1.83,1.29,2.77.11.26.38.42.65.42.09,0,.18-.02.27-.05.36-.15.53-.56.38-.91-1.21-2.82-2.69-5.51-4.43-8.04-.97-1.41-2.01-2.78-3.15-4.06Z"/>
        <path class="cls-2" d="M224.09,392.18s0,0,0,0c-.02-.01-.03-.02-.05-.03.02.01.03.03.05.04Z"/>
        <path class="cls-2" d="M240.77,378.21c-.86-1.33-1.82-2.6-2.84-3.82-1.11-1.32-2.31-2.58-3.58-3.76-.65-.61-1.33-1.19-2.02-1.75-.5-.41-1.01-.8-1.55-1.16-.28-.21-.68-.21-.94.05s-.28.73,0,.98c.06.05.12.1.19.14,0,0,0,0-.01,0,.41.28.8.58,1.19.89.44.35.88.72,1.31,1.09,0,0,0,0,0,0,0,0,0,0,.01.01,0,0,0,0-.01,0,1.29,1.13,2.5,2.35,3.64,3.63,1.06,1.21,2.05,2.48,2.97,3.8.86,1.26,1.63,2.57,2.33,3.93.73,1.45,1.37,2.94,1.94,4.45.1.27.38.42.65.42.09,0,.18-.02.27-.05.37-.15.51-.56.38-.91-.39-1.02-.79-2.03-1.25-3.02-.78-1.69-1.66-3.33-2.68-4.9Z"/>
        <path class="cls-2" d="M230.78,367.7s0,0,0,0c-.03-.02-.05-.03-.07-.05.03.02.05.04.08.06,0,0,0,0,0,0,0,0,0,0-.01-.01Z"/>
        <path class="cls-2" d="M249.04,355.29c-2.01-2.94-4.42-5.57-7.05-7.97-1.36-1.24-2.77-2.45-4.29-3.48-.36-.24-.71-.48-1.09-.69-.07-.04-.15-.08-.22-.12-.14-.08-.29-.14-.43-.19-.36-.14-.77.01-.93.37-.15.34.02.78.37.91.1.04.2.08.3.13-.01,0-.02-.01-.03-.02.01,0,.02.01.04.02.01,0,.02.01.04.02,0,0,0,0,0,0,0,0-.02,0-.03-.01.03.01.06.03.08.04.27.14.53.3.79.46,0,0,0,0,0,0,0,0,.01,0,.02.01.02.01.04.02.06.04,0,0-.01,0-.02,0,1.17.79,2.27,1.67,3.33,2.59,0,0,0,0-.01-.01,0,0,.02.02.03.03,0,0,0,0,0,0,0,0,0,0,0,0,1.7,1.49,3.32,3.06,4.82,4.74,1.12,1.26,2.15,2.58,3.1,3.98,0,0,0,0,0-.01,0,0,0,.01.01.02,0,0,0,0,0,0,.96,1.43,1.83,2.9,2.61,4.43,0,0,0-.02-.02-.03,0,.02.02.04.03.05,0,0,0,.02.01.03,0,0,0,0,0,0,.12.24.24.48.35.72.12.26.38.42.65.42.09,0,.18-.02.27-.05.35-.14.54-.57.38-.91-.92-1.91-1.97-3.74-3.17-5.49Z"/>
        <path class="cls-2" d="M254.48,327.61c-.97-1.51-1.99-3-3.07-4.43-.95-1.26-1.94-2.51-3.13-3.55,0,0,0,0,0,0,0,0,0,0,0,0,0,0-.02-.02-.03-.02,0,0,.02.02.03.03.01.02.03.04.04.05-.22-.26-.59-.35-.9-.17-.32.19-.47.64-.25.95.1.15.24.25.37.37-.02-.02-.04-.04-.07-.06.38.33.72.7,1.05,1.07,1.3,1.48,2.45,3.08,3.57,4.7-.01-.03-.03-.05-.05-.08,1.36,1.99,2.62,4.05,3.72,6.19,0,0,0-.02-.01-.03,0,.01.01.03.02.04,0,.01.01.02.02.04,0,0,0,0,0-.01.94,1.88,1.78,3.81,2.48,5.79.1.27.38.42.66.42.09,0,.18-.02.27-.05.37-.15.5-.56.37-.91-.22-.61-.45-1.22-.69-1.83-1.18-2.96-2.66-5.81-4.39-8.5Z"/>
        <path class="cls-2" d="M276.76,325.38c-.2-3.57-.73-7.12-1.62-10.58-.42-1.64-.91-3.28-1.49-4.87-.3-.83-.63-1.65-1.01-2.45-.28-.61-.59-1.22-.97-1.77-.19-.26-.53-.39-.85-.25-.34.14-.54.57-.37.91.04.07.08.13.12.2-.02-.02-.03-.05-.05-.07.22.31.39.65.57.99.55,1.1,1,2.24,1.41,3.39.75,2.17,1.36,4.38,1.82,6.62,0,0,0,0,0,0,.49,2.39.82,4.81.99,7.24.09,1.33.13,2.67.13,4,0,.38.32.7.71.7s.71-.32.71-.7c0-1.12-.02-2.24-.09-3.36Z"/>
        <path class="cls-2" d="M271.66,305.67s.01.02.02.03c0,0,0,0,0,0,0-.01-.01-.02-.02-.04Z"/>
      </g>
      <path class="cls-8" d="M346.01,194.4c.84,1.63-1.76,4.61-5.81,6.66-2.33,1.18-4.64,1.8-6.34,1.8-1.25,0-2.17-.33-2.53-1.02-.84-1.63,1.76-4.61,5.81-6.66,4.05-2.05,8.02-2.4,8.86-.77Z"/>
      <path class="cls-8" d="M399.91,189.01c-.53,1.5,2.07,3.78,5.81,5.07,2.15.75,4.22,1.01,5.68.82,1.08-.14,1.83-.54,2.06-1.18.53-1.5-2.07-3.78-5.81-5.07-3.74-1.3-7.21-1.14-7.74.36Z"/>
      <g>
        <path class="cls-8" d="M316.88,227.29c3.89.32,6.65,5.26,6.16,11.04-.47,5.57-3.8,9.89-7.53,9.89-.13,0-.26,0-.4-.02-3.89-.32-6.65-5.26-6.16-11.04.49-5.77,4.04-10.19,7.93-9.87Z"/>
        <path class="cls-8" d="M317.13,262.25c4.99.35,8.53,5.75,7.9,12.07-.6,6.09-4.87,10.81-9.65,10.81-.17,0-.34,0-.51-.02-4.99-.35-8.53-5.75-7.9-12.07.63-6.31,5.18-11.14,10.17-10.79Z"/>
        <path class="cls-8" d="M325.62,252.3c2.14-.39,4.12,1.18,4.43,3.51.3,2.25-1.08,4.39-3.1,4.88-.07.02-.14.03-.22.05-2.14.39-4.12-1.18-4.43-3.51-.31-2.33,1.18-4.54,3.32-4.93Z"/>
        <path class="cls-8" d="M309.71,292.23c1.68-.2,3,1.56,2.95,3.92-.05,2.28-1.36,4.29-2.97,4.6-.06.01-.11.02-.17.03-1.68.2-3-1.56-2.95-3.92.05-2.36,1.46-4.43,3.14-4.63Z"/>
      </g>
      <path class="cls-2" d="M101.99,418.73c-1.76-1.85-3.47-3.76-5.12-5.7-1.7-2-3.3-4.09-4.84-6.22-.53-.73-1.05-1.47-1.56-2.22.07.07.14.15.21.21.3.31.6.62.91.92.4.39.79.79,1.19,1.16.42.38.84.77,1.26,1.15.38.35.79.68,1.19,1.01.39.33.8.62,1.2.94.18.13.36.26.54.38.19.13.38.28.57.4.35.23.71.46,1.07.68,1.31,1.55,2.66,3.05,4.03,4.54,0,0-.02-.02-.03-.03,1.63,1.75,3.3,3.46,5.02,5.13-.15.19-.29.37-.43.56-.34.44-.66.88-.98,1.34-1.44-1.39-2.84-2.81-4.22-4.26Z"/>
      <g>
        <path class="cls-3" d="M174.06,315.84c-.25-5.37-.55-10.71-1.06-16.06-.41-4.41-.96-8.82-1.76-13.19-.45-2.37-.98-4.74-1.72-7.07-.02-.04-.03-.08-.04-.12-.05-.11-.07-.23-.11-.34-.05-.14-.1-.29-.15-.43-.09-.26-.18-.52-.28-.78-.25-.64-.52-1.27-.82-1.89-.54-1.11-1.16-2.19-1.82-3.24-.67-1.02-1.4-2-2.18-2.95-1.01-1.19-2.1-2.29-3.25-3.34-1.88-1.73-3.92-3.29-6.01-4.77h0c-1.92-1.34-3.87-2.65-5.86-3.9-2.36-1.47-4.76-2.88-7.21-4.17-1.92-1.01-3.88-1.96-5.87-2.84-1.93-.84-3.89-1.62-5.88-2.36h0s-.03-.02-.05-.02c-1.43-.52-2.85-1.01-4.3-1.42-1.34-.38-2.68-.71-4.04-1.02-1.11-.24-2.23-.46-3.35-.67-.16-.03-.33-.04-.48-.07-2.46,2.28-4.83,4.64-7.07,7.14-1.97,2.23-3.81,4.54-5.49,6.98-1.43,2.1-2.74,4.28-3.9,6.53-1.01,2.02-1.89,4.11-2.66,6.23-1.16,3.29-2.01,6.67-2.73,10.08-.6,2.91-1.06,5.85-1.46,8.8-.4,2.92-.73,5.84-.93,8.79-.52,7.82-.44,15.66.03,23.48.04.57.07,1.12.11,1.68.26,3.87.66,7.73,1.11,11.59.54,4.55,1.16,9.09,1.94,13.6.4,2.27.83,4.53,1.29,6.79.48,2.33.97,4.65,1.57,6.94.57,2.17,1.27,4.3,2.01,6.41.62,1.73,1.3,3.43,2.02,5.12.68,1.6,1.4,3.2,2.18,4.76.62,1.22,1.28,2.43,1.97,3.61,2.87-.44,5.73-.88,8.59-1.38,5.71-1.02,11.4-2.25,17.02-3.68,2.47-.63,4.93-1.3,7.37-2.07,2.27-.72,4.49-1.52,6.7-2.38,2.14-.84,4.27-1.71,6.36-2.66,2.24-1.04,4.44-2.2,6.54-3.51,1.43-.9,2.8-1.89,4.1-2.96.94-.78,1.84-1.58,2.68-2.45.73-.78,1.41-1.61,2.05-2.47.02-.02.03-.03.04-.05.55-.77,1.05-1.58,1.51-2.41.6-1.12,1.13-2.28,1.59-3.47.24-.63.45-1.27.64-1.91.2-.66.35-1.32.51-1.98.33-1.47.6-2.95.74-4.44.2-2.3.26-4.61.28-6.91.02-2.44,0-4.88-.02-7.32-.05-5.29-.19-10.56-.45-15.84ZM177.65,260.73c1.03-.37,2.03-.83,3.02-1.29,1.12-.52,2.22-1.08,3.32-1.64,4.19-2.18,8.31-4.5,12.47-6.73,2.61-1.39,5.24-2.77,7.87-4.13.03-.02.05-.03.08-.04h.02c2.03-1.05,4.08-2.09,6.13-3.11,4.59-2.28,9.24-4.48,13.86-6.73,1.35-.66,2.69-1.32,4.04-2.01h0c1.76-.92,3.51-1.85,5.22-2.86,1.78-1.04,3.52-2.18,5.21-3.34,1.89-1.32,3.76-2.69,5.47-4.22.56-.51,1.11-1.04,1.61-1.62,0,0,0-.02.02-.03l.03-.03c.46-.57.88-1.14,1.29-1.75.45-.69.87-1.4,1.25-2.14.35-.72.65-1.46.9-2.21.09-.3.15-.6.25-.9-.25-.04-.49-.12-.73-.16-3.37-.67-6.75-1.21-10.16-1.63-3.46-.42-6.93-.72-10.42-.95-8.34-.53-16.7-.62-25.05-.19-.99.05-1.97.12-2.96.18-7.16.49-14.3,1.35-21.33,2.74-6.52,1.32-12.97,2.98-19.26,5.15-2.47.86-4.9,1.79-7.33,2.77-2.98,1.21-5.93,2.51-8.83,3.93-4.76,2.37-9.38,5.02-13.82,7.96-.03,0-.04.03-.06.04l-.03.03h0c-.5.34-.97.7-1.47,1.04.34.19.67.37,1.01.55,4.78,2.64,9.44,5.49,14.13,8.29,4.39,2.62,8.73,5.29,13.13,7.89,1.76,1.04,3.53,2.09,5.29,3.12,1,.58,2.01,1.16,3.02,1.73.86.48,1.73.95,2.61,1.38.84.39,1.69.73,2.57,1.02.55.18,1.12.33,1.68.44.52.1,1.05.16,1.57.2.4,0,.79,0,1.19-.02.5-.04,1-.12,1.49-.22.58-.13,1.15-.3,1.7-.49ZM184.18,381.39s-.09-.04-.13-.05c-1.24-.49-2.5-.93-3.78-1.27-1.11-.29-2.23-.49-3.36-.65,0,0,.02,0,.02,0-1.71-.21-3.43-.27-5.16-.26-1.28,0-2.57.09-3.84.22-1.31.13-2.61.29-3.91.47-2.09.3-4.18.68-6.24,1.13-2.02.43-4.02.93-6.01,1.46-3.45.9-6.89,1.83-10.33,2.79-3.98,1.11-7.94,2.29-11.87,3.58-3.95,1.3-7.87,2.7-11.75,4.18-.76.3-1.52.6-2.28.9.69.68,1.34,1.39,2.07,2.03,1.32,1.13,2.7,2.18,4.15,3.16,1.75,1.14,3.58,2.18,5.45,3.12h0c1.47.73,2.97,1.4,4.48,2.02,1.28.53,2.59,1,3.9,1.46,0,0,.02,0,.02,0,.04.02.07.03.11.04,4.04,1.37,8.17,2.45,12.35,3.32,2.38.48,4.79.89,7.19,1.22,2.28.31,4.59.53,6.9.69,3.23.21,6.47.26,9.7.21,2.99-.04,5.99-.14,8.97-.33,3.38-.23,6.74-.61,10.07-1.26,2.08-.43,4.14-.97,6.16-1.64.05-.02.09-.03.14-.04.07-.02.15-.04.22-.07,1.29-.46,2.57-.99,3.8-1.59,1.14-.57,2.24-1.2,3.31-1.91.54-.36,1.04-.79,1.56-1.19-.2-.31-.39-.62-.59-.93-1.11-1.73-2.27-3.42-3.45-5.1-.7-.98-1.43-1.95-2.17-2.89-.77-.98-1.56-1.94-2.37-2.88-.77-.89-1.59-1.74-2.43-2.58-1.12-1.1-2.29-2.13-3.53-3.1h0s-.02,0-.03-.02h0c-1.26-.95-2.58-1.84-3.97-2.64-1.07-.59-2.19-1.14-3.33-1.61h0ZM295.16,240.73c-1.25-1.39-2.56-2.74-3.88-4.05-1.19-1.18-2.41-2.33-3.67-3.44,0,0-.02,0-.03-.02h0c-1.91-1.64-3.92-3.16-6-4.57-2.87-1.91-5.89-3.62-8.98-5.18-1.9-.93-3.83-1.81-5.81-2.6-.9-.36-1.82-.7-2.75-1.03-.25-.09-.51-.18-.76-.27-.04-.02-.08-.03-.12-.04,0,0-.03,0-.04,0-.23-.08-.45-.15-.69-.23-.49-.16-.98-.32-1.48-.49-.41-.13-.83-.22-1.25-.34-.08.15-.18.3-.25.45,0,0,0,.02,0,.02-.3.6-.56,1.21-.8,1.85-.2.58-.36,1.17-.5,1.78,0,.03-.02.04-.02.07h0c-.13.64-.21,1.29-.25,1.92-.04.58-.04,1.16,0,1.74.05.58.12,1.15.23,1.72,0,.02,0,.03,0,.04v.04s0,.02,0,.02c.11.51.25,1.02.42,1.5.19.5.4,1.01.64,1.48,0,0,0,.03.02.04,0,0,0,0,0,.02h0c.38.75.83,1.45,1.29,2.14.89,1.29,1.89,2.53,2.9,3.74,1.15,1.39,2.29,2.79,3.35,4.25.47.64.93,1.29,1.38,1.96h0s0,.02,0,.03c.95,1.38,1.86,2.8,2.7,4.23.96,1.62,1.83,3.27,2.67,4.94,1.64,3.22,3.1,6.52,4.34,9.91,1.34,3.64,2.43,7.36,3.38,11.12.95,3.75,1.73,7.53,2.38,11.33.63,3.6,1.14,7.22,1.56,10.84.15,0,.28-.04.43-.05,2.36-.17,4.71-.22,7.07-.23,1.97,0,3.95.05,5.91.22,0,0,0,0,0,.02-.12.55-.22,1.11-.32,1.66,0-.04,0-.06,0-.1-.05.24-.09.48-.14.72-.15-.02-.3-.03-.45-.04-1.85-.12-3.69-.17-5.55-.15-1.95.02-3.88.06-5.83.19-3.71.28-7.39.77-11.04,1.51-1.65.34-3.28.72-4.9,1.15-1.59.43-3.16.92-4.72,1.45-2.74.96-5.43,2.05-8.04,3.33-1.04.51-2.07,1.06-3.07,1.64-.9.53-1.78,1.1-2.66,1.67,0,0-.02,0-.03.02-2.22,1.49-4.35,3.1-6.37,4.85-1.72,1.54-3.34,3.17-4.89,4.88-1.77,2-3.43,4.09-4.94,6.29-1.27,1.89-2.43,3.83-3.48,5.85-.54,1.06-1.06,2.13-1.53,3.23-.54,1.25-1.02,2.52-1.47,3.8-1.33,3.84-2.36,7.78-3.2,11.76-.9,4.4-1.53,8.86-2.04,13.33-.48,4.2-.83,8.41-1.39,12.6-.25,1.91-.56,3.8-.93,5.69-.39,2.06-.84,4.11-1.43,6.11-1.23,4.11-3.32,7.94-5.96,11.33-2.74,3.5-6.07,6.57-9.92,8.84-1.79,1.07-3.69,1.91-5.66,2.63-.2.08-.41.16-.62.22-.1.04-.21.07-.31.11-.23.08-.45.15-.67.22-.49.15-.98.3-1.47.44-.97.28-1.97.52-2.95.75-2.19.49-4.41.84-6.64,1.11-3.98.49-7.99.66-11.99.76-1.46.04-2.91.06-4.38.06-3.18,0-6.36-.11-9.53-.4-2.31-.21-4.62-.45-6.92-.81-2.44-.37-4.86-.83-7.27-1.36-8.28-1.81-16.47-4.52-23.74-8.87-3.27-1.95-6.28-4.34-8.92-7.07-1.27-1.32-2.47-2.71-3.58-4.17-.27-.35-.52-.71-.77-1.07-.13-.17-.26-.36-.38-.54l-.11-.16s-.05-.07-.07-.11c-.15-.19-.29-.42-.43-.63-.55-.81-1.06-1.64-1.56-2.47-1.08-1.82-2.1-3.69-3.03-5.59-.93-1.91-1.76-3.88-2.57-5.86-.78-1.91-1.47-3.85-2.12-5.82-.63-1.91-1.18-3.85-1.65-5.82-.28-1.18-.53-2.37-.78-3.57-1.02.67-2.06,1.31-3.02,2.06-1.05.81-2.06,1.68-2.99,2.62-.93.95-1.77,1.95-2.58,3h0c-.59.81-1.16,1.64-1.66,2.5-.64,1.15-1.17,2.36-1.66,3.59-.44,1.13-.82,2.28-1.12,3.45-.33,1.35-.57,2.71-.74,4.08-.12,1.15-.16,2.3-.15,3.46v.08c.04,1.24.12,2.47.3,3.69.12.67.26,1.32.44,1.98,0,0,0,.02,0,.03,0,0,0,.02,0,.03s0,.02,0,.02c0,0,0,.03,0,.04h0c.3.98.66,1.91,1.06,2.84.84,1.87,1.83,3.69,2.87,5.46.8,1.33,1.66,2.61,2.61,3.83,1.26,1.57,2.6,3.04,4.05,4.44,2.72,2.62,5.59,5.06,8.62,7.32,3.35,2.46,6.86,4.7,10.49,6.72.03.02.06.04.1.05,4.39,2.4,8.92,4.48,13.57,6.28,5.46,2.1,11.04,3.91,16.73,5.29h0s.04,0,.06.02c.02,0,.05,0,.06.02h0c6.32,1.5,12.8,2.38,19.26,3.07,5.34.56,10.73.93,16.09.82h.05s.06,0,.09,0c4.23-.12,8.42-.57,12.6-1.2,4.03-.64,8.01-1.53,11.94-2.63,3.79-1.08,7.55-2.31,11.18-3.85,2.54-1.1,5.01-2.32,7.41-3.71,2.27-1.34,4.46-2.79,6.54-4.39,2.17-1.67,4.22-3.48,6.15-5.41,1.9-1.94,3.68-3.98,5.31-6.15,0,0,.02-.02.03-.04,1.36-1.81,2.6-3.68,3.71-5.64,1.33-2.38,2.47-4.85,3.48-7.39,0,0,0-.02,0-.04,0,0,0,0,0-.02,1.55-3.97,2.67-8.06,3.69-12.19,0,0,0-.03,0-.04,0-.04.02-.06.03-.1.94-3.83,1.76-7.68,2.71-11.51.43-1.73.86-3.46,1.36-5.18.4-1.38.85-2.77,1.3-4.14.86-2.57,1.79-5.11,2.97-7.57,1.09-2.27,2.39-4.47,3.84-6.53,1.7-2.44,3.62-4.73,5.81-6.76,1.22-1.13,2.52-2.2,3.89-3.16,1.39-.96,2.86-1.81,4.37-2.55.43-.21.86-.41,1.3-.61-.1.12-.19.22-.28.34-.33.4-.62.83-.93,1.23-.55.74-1.06,1.5-1.57,2.27-.08.13-.15.25-.24.38-.84.52-1.65,1.08-2.43,1.67-1.29,1.01-2.52,2.09-3.68,3.25-1.2,1.22-2.31,2.53-3.34,3.89-1.26,1.68-2.38,3.43-3.42,5.26,0,0,0,.02-.02.03s0,.03-.02.04c-.94,1.68-1.76,3.42-2.47,5.21-1.71,4.33-3.02,8.82-4.14,13.34-.96,3.87-1.8,7.78-2.76,11.64-.91,3.7-1.87,7.41-3.19,10.98-1.4,3.84-3.11,7.58-5.25,11.07-1.11,1.82-2.37,3.55-3.68,5.24-1.31,1.66-2.69,3.25-4.16,4.77-5.71,5.96-12.65,10.7-20.21,14.09-3.52,1.58-7.17,2.85-10.87,3.96-3.49,1.04-7.02,1.94-10.61,2.63-3.54.68-7.13,1.16-10.72,1.48-1.74.15-3.48.26-5.21.32-.78.03-1.56.04-2.35.04-1.06,0-2.13-.02-3.19-.05-3.68-.11-7.35-.37-11.01-.75-3.97-.41-7.93-.92-11.86-1.56-2.15-.36-4.29-.76-6.42-1.22-1.83-.4-3.66-.86-5.46-1.36-3.56-.97-7.06-2.13-10.53-3.37-6.65-2.38-13.14-5.31-19.2-8.9-3.15-1.86-6.18-3.87-9.1-6.07-2.89-2.18-5.63-4.55-8.22-7.07-1.53-1.47-2.96-3.03-4.25-4.69-1.29-1.65-2.4-3.42-3.43-5.23-1.76-3.1-3.42-6.4-3.98-9.95-.27-1.79-.36-3.62-.32-5.43.05-1.69.24-3.36.55-5.02.29-1.5.69-2.98,1.2-4.43.34-.94.72-1.88,1.14-2.8s.86-1.82,1.39-2.69c1.04-1.71,2.29-3.31,3.66-4.78,1.35-1.46,2.87-2.73,4.45-3.94,1.06-.81,2.22-1.48,3.37-2.18-.02-.12-.05-.22-.07-.33-.92-4.54-1.68-9.11-2.32-13.7-1.13-8.12-1.93-16.28-2.23-24.48-.3-8.06-.2-16.14.72-24.17.45-4.03,1.03-8.06,1.85-12.04.9-4.4,2.04-8.75,3.71-12.92.79-1.99,1.69-3.93,2.72-5.81.98-1.82,2.09-3.57,3.26-5.29,2.47-3.63,5.34-6.98,8.37-10.16,2.89-3.04,5.99-5.91,9.26-8.55s6.74-5.05,10.31-7.29c4.04-2.55,8.24-4.86,12.55-6.95,2.18-1.05,4.41-2.02,6.65-2.95,1.85-.76,3.69-1.49,5.56-2.19,3.78-1.41,7.64-2.63,11.54-3.7,4-1.1,8.04-2.05,12.12-2.83,8.42-1.62,16.96-2.47,25.51-2.86,8.4-.38,16.82-.22,25.19.41,4.39.32,8.76.75,13.1,1.41,4.28.67,8.53,1.54,12.73,2.61,2.58.65,5.13,1.41,7.65,2.27,0,0,.02,0,.03,0,1.43.49,2.84,1.01,4.24,1.56,3.88,1.55,7.59,3.46,11.17,5.57,3.74,2.2,7.3,4.7,10.53,7.58,1.66,1.47,3.23,3.04,4.79,4.62,1.66,1.68,3.23,3.47,4.72,5.31.48.58.95,1.19,1.39,1.79,0,.07-.03.14-.04.22-.09.71-.15,1.42-.12,2.13.02.55.06,1.09.12,1.63-.13-.19-.25-.37-.37-.56-1.56-2.26-3.28-4.38-5.09-6.44ZM283.76,295.8c-.11-.98-.22-1.96-.35-2.94-.51-3.84-1.12-7.66-1.85-11.46l-.33-1.64c-.8-3.86-1.76-7.69-2.88-11.48-.42-1.43-.88-2.83-1.37-4.23-1.2-3.38-2.59-6.69-4.18-9.91-.15-.3-.3-.6-.45-.91,0,0,0,0,0,0,0,0,0-.03-.02-.04,0,0,0,0,0-.02-.85-1.64-1.7-3.27-2.64-4.87-.86-1.45-1.76-2.86-2.7-4.25-.05-.05-.08-.12-.12-.17-.99-1.44-2.04-2.85-3.13-4.22-1.06-1.32-2.17-2.61-3.21-3.95-.95-1.23-1.86-2.51-2.56-3.9-.7-1.36-1.16-2.79-1.38-4.3-.24-1.59-.19-3.23.1-4.81.15-.84.39-1.68.68-2.5.26-.74.6-1.43.96-2.12-1.25-.35-2.47-.73-3.73-1.04-1.16-.29-2.32-.52-3.48-.77-.06.21-.1.42-.16.64-.34,1.05-.74,2.09-1.26,3.07-.55,1.04-1.17,2.04-1.87,2.99-1.54,2.09-3.6,3.73-5.67,5.29-1.99,1.5-4.08,2.9-6.2,4.22-4.18,2.6-8.62,4.76-13.05,6.89-4.64,2.24-9.29,4.46-13.89,6.77-1.06.53-2.11,1.07-3.17,1.61l-.79.4s-.04.02-.05.03c-.04.02-.07.04-.11.06-.35.17-.68.35-1.03.52-.64.33-1.28.67-1.93,1.01-1.25.66-2.48,1.3-3.73,1.97-2.24,1.2-4.47,2.41-6.7,3.62-1.99,1.09-3.98,2.18-5.98,3.22-1.2.63-2.41,1.25-3.63,1.83-1.14.56-2.29,1.1-3.48,1.54-1.05.39-2.13.69-3.24.83-.48.06-.96.1-1.46.1-.55,0-1.1-.04-1.65-.12-2.36-.34-4.59-1.3-6.67-2.42-1.24-.66-2.45-1.36-3.67-2.06-1.13-.65-2.26-1.31-3.38-1.98-4.38-2.57-8.71-5.2-13.05-7.82-2.28-1.38-4.57-2.74-6.86-4.11-2.35-1.41-4.71-2.8-7.09-4.17-1.46-.83-2.93-1.63-4.39-2.43-2.38,1.7-4.71,3.45-6.92,5.36-.33.29-.64.6-.96.89.06.02.13.03.19.04,2.53.48,5.04,1.06,7.51,1.78,1.38.41,2.75.91,4.11,1.4,1.3.49,2.59,1,3.88,1.53,2.52,1.04,4.99,2.21,7.41,3.47,2.59,1.35,5.12,2.84,7.6,4.39,2.12,1.32,4.19,2.72,6.22,4.16,4.09,2.91,8.01,6.21,10.9,10.34,1.56,2.23,2.82,4.67,3.7,7.23.05.14.09.29.15.43l.08.24c.04.12.06.23.1.34.11.32.21.64.3.96.2.68.38,1.38.55,2.08.63,2.53,1.06,5.09,1.46,7.65.38,2.5.68,5.01.95,7.52.55,5.3.89,10.64,1.16,15.96.28,5.37.45,10.73.53,16.11.04,2.5.05,5,.05,7.5,0,2.31-.02,4.63-.15,6.95-.06,1.2-.16,2.42-.35,3.61-.21,1.38-.5,2.73-.84,4.09-.65,2.61-1.73,5.14-3.1,7.46-.67,1.13-1.45,2.19-2.28,3.2-.91,1.1-1.93,2.09-3,3.02-1.1.96-2.26,1.86-3.47,2.7-1.11.77-2.27,1.48-3.45,2.16-2.37,1.35-4.81,2.52-7.32,3.59-1.22.52-2.46,1.02-3.69,1.5-1.36.53-2.73,1.05-4.11,1.54-2.61.92-5.28,1.73-7.96,2.44-2.77.74-5.56,1.42-8.36,2.06-2.77.62-5.54,1.2-8.33,1.73-2.83.54-5.66,1.02-8.51,1.47-.8.13-1.61.25-2.41.38.52.86,1.04,1.73,1.61,2.57.04.05.07.12.12.17,0,.02.02.03.02.04,1.05,1.52,2.19,2.98,3.43,4.36.21.23.45.43.67.67,1.13-.45,2.25-.91,3.38-1.34,3.88-1.47,7.78-2.85,11.73-4.13,3.92-1.29,7.89-2.46,11.88-3.56,4-1.11,8.01-2.2,12.03-3.22,1.97-.49,3.95-.95,5.94-1.35,2.07-.41,4.17-.74,6.28-.99,2-.24,4.01-.45,6.03-.48,1.06,0,2.12.03,3.18.09,1,.06,2.01.14,3,.3,1.16.18,2.3.42,3.43.76,1.1.32,2.19.7,3.26,1.13,1.02.42,2.03.87,3,1.39.89.48,1.76,1.01,2.6,1.56,1.67,1.11,3.26,2.34,4.74,3.69,1.48,1.37,2.87,2.83,4.18,4.37,1.36,1.59,2.65,3.24,3.87,4.94,1.48,2.05,2.84,4.17,4.19,6.3.12-.1.25-.18.37-.28,1.2-1.06,2.34-2.19,3.4-3.39.64-.73,1.2-1.51,1.78-2.27-.37-.28-.74-.55-1.1-.83-2.38-1.81-4.72-3.66-7.07-5.51-4.55-3.57-9.16-7.1-13.21-11.22-.53-.53-1.02-1.08-1.51-1.64-.55-.62-1.04-1.28-1.51-1.95-.76-1.11-1.39-2.27-1.93-3.49-.59-1.3-1.09-2.66-1.49-4.04-.4-1.4-.59-2.87-.73-4.31-.3-3.1-.31-6.22-.31-9.33,0-2.8.02-5.59.03-8.39,0-2.89.02-5.77,0-8.67-.02-3.13-.09-6.27-.22-9.4-.2-4.89-.46-9.78-.77-14.67v.09c-.4-6.21-.89-12.41-1.46-18.61-.26-2.93-.56-5.86-.74-8.8-.09-1.47-.14-2.97-.05-4.44.09-1.46.35-2.91.68-4.33.15-.65.33-1.29.54-1.93.2-.61.41-1.22.67-1.82.61-1.37,1.39-2.64,2.24-3.87.89-1.28,1.86-2.49,2.93-3.62,1.04-1.09,2.18-2.09,3.35-3.03,2.35-1.9,4.79-3.68,7.27-5.39,1.33-.92,2.68-1.8,4.07-2.63,1.48-.9,2.99-1.77,4.51-2.62,1.46-.82,2.95-1.63,4.44-2.4,1.38-.71,2.78-1.39,4.19-2.06,3.18-1.49,6.38-2.89,9.61-4.25,2.96-1.23,5.94-2.42,8.95-3.51,2.77-1.01,5.65-1.87,8.61-2.12,1.48-.12,2.99-.1,4.48.11,1.43.2,2.83.56,4.18,1.06,1.39.52,2.72,1.19,3.95,2,1.16.78,2.18,1.73,3.16,2.71,1.04,1.05,1.96,2.23,2.8,3.43.9,1.3,1.73,2.64,2.49,4.04,1.59,2.87,2.95,5.85,4.18,8.9,2.27,5.66,3.94,11.55,5.42,17.46,1.53,6.09,2.78,12.24,3.74,18.44.05.31.09.63.14.94.42-.07.83-.18,1.25-.24,1.76-.28,3.52-.45,5.28-.62ZM275.82,296.95c-.37-2.49-.76-4.97-1.22-7.44-.14-.69-.26-1.38-.4-2.09,0-.02,0-.04-.02-.06h0v-.02c-1.26-6.18-2.75-12.31-4.56-18.36-.42-1.41-.88-2.81-1.36-4.22-1.29-3.73-2.77-7.38-4.54-10.9-1.04-2.03-2.15-4.01-3.42-5.9,0,0,0-.02-.02-.03,0,0,0,0-.02-.02-.7-1.02-1.46-2-2.28-2.93-.66-.71-1.35-1.38-2.08-2.01l-.04-.04c-.53-.43-1.06-.84-1.63-1.21-.64-.4-1.3-.76-1.98-1.1-.74-.33-1.48-.62-2.25-.87-.71-.22-1.42-.41-2.15-.55-.7-.13-1.41-.22-2.13-.27-.89-.05-1.77-.05-2.67,0-.88.07-1.76.2-2.64.36-1.45.29-2.87.69-4.28,1.16-2.97,1-5.9,2.17-8.81,3.35-3.25,1.33-6.47,2.73-9.66,4.2-1.31.59-2.61,1.21-3.9,1.84-2.32,1.15-4.6,2.39-6.85,3.66-2.36,1.34-4.69,2.71-6.92,4.22-1.68,1.14-3.35,2.33-4.99,3.54-1.59,1.19-3.17,2.41-4.66,3.72,0,0,0,0,0,0l-.04.04c-.87.78-1.69,1.62-2.47,2.5-.86,1.02-1.66,2.09-2.39,3.19-.54.83-1.03,1.66-1.46,2.54-.26.58-.49,1.16-.7,1.77,0,0,0,.02,0,.03s0,.03-.02.04v.02c-.32.98-.57,1.97-.78,2.98-.21,1.03-.35,2.09-.44,3.13-.1,1.64-.03,3.3.07,4.95v-.09c.19,2.9.49,5.81.75,8.71.27,2.96.52,5.92.76,8.89.46,6.04.87,12.1,1.17,18.16.15,2.92.28,5.85.37,8.78.11,3.16.12,6.32.13,9.48,0,2.76,0,5.52-.02,8.29,0,2.81-.03,5.64,0,8.45.02,1.5.05,3,.14,4.49.11,1.6.26,3.21.55,4.79.16.78.38,1.55.64,2.3,0,0,0,0,0,.02.44,1.27.93,2.51,1.53,3.7.4.78.84,1.55,1.34,2.27.33.49.67.96,1.05,1.41.33.4.68.79,1.03,1.18.91,1,1.89,1.93,2.88,2.86,1.07.99,2.16,1.95,3.28,2.89,2.2,1.85,4.47,3.63,6.73,5.41,2.33,1.82,4.64,3.67,6.99,5.47.71.54,1.43,1.08,2.15,1.62.02-.04.05-.06.07-.1.85-1.24,1.58-2.52,2.27-3.86.6-1.2,1.12-2.42,1.57-3.68.62-1.82,1.08-3.69,1.48-5.57.76-3.78,1.3-7.58,1.72-11.4.48-4.44.9-8.88,1.5-13.31.61-4.43,1.44-8.83,2.52-13.17,1.08-4.28,2.42-8.54,4.28-12.55,3.42-7.39,8.42-14.04,14.48-19.51,1.47-1.32,3.02-2.54,4.61-3.72,1.62-1.2,3.32-2.34,5.07-3.36,3.84-2.24,7.95-3.97,12.16-5.4,3.41-1.17,6.94-2,10.49-2.67Z"/>
        <path class="cls-8" d="M283.4,292.86c.14.98.25,1.96.35,2.94-1.76.17-3.52.34-5.28.62-.42.06-.83.17-1.25.24-.05-.31-.08-.63-.14-.94-.96-6.2-2.21-12.36-3.74-18.44-1.48-5.91-3.15-11.79-5.42-17.46-1.23-3.05-2.58-6.03-4.18-8.9-.76-1.39-1.59-2.73-2.49-4.04-.85-1.2-1.76-2.38-2.8-3.43-.97-.98-2-1.92-3.16-2.71-1.23-.82-2.56-1.48-3.95-2-1.36-.5-2.76-.86-4.18-1.06-1.48-.21-2.99-.22-4.48-.11-2.96.25-5.83,1.11-8.61,2.12-3.01,1.1-6,2.28-8.95,3.51-3.23,1.36-6.43,2.76-9.61,4.25-1.41.67-2.81,1.35-4.19,2.06-1.49.77-2.97,1.58-4.44,2.4-1.52.85-3.03,1.73-4.51,2.62-1.38.84-2.74,1.72-4.07,2.63-2.48,1.72-4.92,3.5-7.27,5.39-1.16.94-2.31,1.94-3.35,3.03-1.06,1.13-2.04,2.35-2.93,3.62-.85,1.22-1.63,2.5-2.24,3.87-.26.59-.47,1.2-.67,1.82-.21.64-.38,1.29-.54,1.93-.34,1.42-.59,2.88-.68,4.33-.09,1.47-.05,2.97.05,4.44.17,2.94.47,5.87.74,8.8.56,6.19,1.06,12.4,1.46,18.61v-.09c.31,4.89.57,9.78.77,14.67.13,3.14.2,6.27.22,9.4.03,2.89.02,5.78,0,8.67,0,2.8-.03,5.59-.03,8.39,0,3.11,0,6.23.31,9.33.14,1.45.33,2.91.73,4.31.4,1.38.9,2.73,1.49,4.04.54,1.21,1.17,2.38,1.93,3.49.47.67.96,1.33,1.51,1.95.49.56.98,1.11,1.51,1.64,4.05,4.12,8.66,7.65,13.21,11.22,2.35,1.85,4.69,3.7,7.07,5.51.36.28.73.55,1.1.83-.58.76-1.15,1.55-1.78,2.27-1.06,1.2-2.2,2.33-3.4,3.39-.12.1-.25.18-.37.28-1.36-2.13-2.71-4.25-4.19-6.3-1.22-1.7-2.51-3.35-3.87-4.94-1.3-1.54-2.69-3-4.18-4.37-1.48-1.36-3.07-2.59-4.74-3.69-.85-.56-1.71-1.09-2.6-1.56-.97-.52-1.98-.97-3-1.39-1.06-.43-2.16-.81-3.26-1.13-1.13-.33-2.27-.58-3.43-.76-.99-.15-2-.23-3-.3-1.06-.06-2.11-.09-3.18-.09-2.02.03-4.03.23-6.03.48-2.11.25-4.2.58-6.28.99-1.99.4-3.97.85-5.94,1.35-4.02,1.02-8.02,2.11-12.03,3.22-3.99,1.1-7.96,2.27-11.88,3.56-3.95,1.29-7.85,2.67-11.73,4.13-1.13.43-2.25.89-3.38,1.34-.22-.23-.46-.43-.67-.67-1.24-1.38-2.38-2.84-3.43-4.36,0,0,0-.02-.02-.04-.05-.05-.08-.12-.12-.17-.57-.84-1.09-1.71-1.61-2.57.8-.13,1.61-.24,2.41-.38,2.85-.45,5.68-.93,8.51-1.47,2.79-.53,5.57-1.11,8.33-1.73,2.8-.64,5.59-1.32,8.36-2.06,2.68-.72,5.35-1.53,7.96-2.44,1.38-.49,2.75-1.01,4.11-1.54,1.24-.49,2.47-.98,3.69-1.5,2.51-1.07,4.96-2.24,7.32-3.59,1.18-.67,2.34-1.38,3.45-2.16,1.21-.84,2.37-1.73,3.47-2.7,1.07-.93,2.09-1.92,3-3.02.84-1.01,1.61-2.07,2.28-3.2,1.37-2.32,2.46-4.85,3.1-7.46.34-1.36.63-2.71.84-4.09.18-1.2.28-2.41.35-3.61.14-2.32.15-4.64.15-6.95,0-2.5-.02-5-.05-7.5-.07-5.38-.25-10.74-.53-16.11-.27-5.32-.61-10.66-1.16-15.96-.26-2.52-.56-5.02-.95-7.52-.39-2.56-.83-5.12-1.46-7.65-.17-.69-.35-1.39-.55-2.08-.09-.32-.19-.64-.3-.96-.04-.11-.06-.22-.1-.34l-.08-.24c-.05-.14-.1-.29-.15-.43-.88-2.56-2.15-5-3.7-7.23-2.88-4.13-6.8-7.42-10.9-10.34-2.03-1.44-4.1-2.84-6.22-4.16-2.47-1.55-5-3.04-7.6-4.39-2.42-1.26-4.89-2.43-7.41-3.47-1.28-.53-2.57-1.04-3.88-1.53-1.36-.49-2.73-.99-4.11-1.4-2.47-.72-4.99-1.3-7.51-1.78-.06,0-.13-.02-.19-.04.32-.29.63-.6.96-.89,2.21-1.91,4.54-3.66,6.92-5.36,1.46.8,2.94,1.6,4.39,2.43,2.37,1.37,4.74,2.76,7.09,4.17,2.29,1.37,4.58,2.73,6.86,4.11,4.35,2.62,8.68,5.25,13.05,7.82,1.12.67,2.25,1.33,3.38,1.98,1.22.7,2.43,1.4,3.67,2.06,2.08,1.11,4.31,2.08,6.67,2.42.55.07,1.1.12,1.65.12.49,0,.97-.04,1.46-.1,1.11-.13,2.19-.44,3.24-.83,1.19-.44,2.35-.98,3.48-1.54,1.22-.58,2.43-1.2,3.63-1.83,2-1.04,3.98-2.13,5.98-3.22,2.23-1.21,4.46-2.43,6.7-3.62,1.25-.67,2.48-1.31,3.73-1.97.65-.33,1.29-.67,1.93-1.01.35-.17.68-.35,1.03-.52.04-.02.07-.04.11-.06.02,0,.04,0,.05-.03l.79-.4c1.06-.54,2.11-1.08,3.17-1.61,4.6-2.31,9.25-4.53,13.89-6.77,4.42-2.14,8.86-4.3,13.05-6.89,2.12-1.32,4.2-2.72,6.2-4.22,2.07-1.56,4.13-3.2,5.67-5.29.7-.95,1.33-1.95,1.87-2.99.52-.97.92-2.01,1.26-3.07.06-.22.1-.43.16-.64,1.16.25,2.32.49,3.48.77,1.26.31,2.48.69,3.73,1.04-.36.69-.7,1.38-.96,2.12-.29.82-.53,1.65-.68,2.5-.29,1.58-.34,3.22-.1,4.81.23,1.51.68,2.94,1.38,4.3.7,1.39,1.61,2.67,2.56,3.9,1.04,1.34,2.15,2.62,3.21,3.95,1.09,1.37,2.14,2.78,3.13,4.22.04.05.07.12.12.17.94,1.39,1.85,2.8,2.7,4.25.94,1.6,1.79,3.24,2.64,4.87,0,0,0,.02,0,.02,0,.02,0,.04.02.04,0,0,0,0,0,0,.15.31.3.61.45.91,1.58,3.23,2.97,6.53,4.18,9.91.49,1.4.96,2.8,1.37,4.23,1.13,3.78,2.08,7.62,2.88,11.48l.33,1.64c.73,3.8,1.34,7.62,1.85,11.46Z"/>
        <path class="cls-7" d="M274.6,289.51c.46,2.47.85,4.95,1.22,7.44-3.55.67-7.08,1.5-10.49,2.67-4.21,1.43-8.32,3.16-12.16,5.4-1.75,1.02-3.45,2.17-5.07,3.36-1.59,1.18-3.14,2.4-4.61,3.72-6.07,5.47-11.06,12.13-14.48,19.51-1.86,4.01-3.2,8.27-4.28,12.55-1.08,4.34-1.91,8.74-2.52,13.17-.6,4.43-1.02,8.87-1.5,13.31-.42,3.82-.96,7.62-1.72,11.4-.4,1.89-.86,3.75-1.48,5.57-.45,1.26-.97,2.48-1.57,3.68-.69,1.34-1.43,2.62-2.27,3.86-.02.04-.05.06-.07.1-.72-.54-1.44-1.08-2.15-1.62-2.35-1.8-4.66-3.64-6.99-5.47-2.27-1.78-4.53-3.56-6.73-5.41-1.12-.94-2.2-1.91-3.28-2.89-.99-.93-1.97-1.86-2.88-2.86-.35-.39-.7-.77-1.03-1.18-.37-.45-.72-.93-1.05-1.41-.5-.72-.94-1.48-1.34-2.27-.6-1.2-1.09-2.44-1.53-3.7,0,0,0-.02,0-.02-.25-.76-.47-1.52-.64-2.3-.29-1.58-.45-3.19-.55-4.79-.08-1.49-.12-2.99-.14-4.49-.02-2.81,0-5.64,0-8.45,0-2.77.02-5.53.02-8.29,0-3.16-.02-6.33-.13-9.48-.09-2.93-.23-5.86-.37-8.78-.3-6.06-.71-12.12-1.17-18.16-.24-2.97-.48-5.93-.76-8.89-.25-2.9-.55-5.81-.75-8.71v.09c-.1-1.65-.17-3.31-.07-4.95.08-1.04.23-2.09.44-3.13.21-1.01.46-2,.78-2.98v-.02s.02-.03.02-.04,0-.02,0-.03c.21-.61.44-1.2.7-1.77.43-.88.92-1.72,1.46-2.54.74-1.11,1.53-2.18,2.39-3.19.77-.88,1.59-1.72,2.47-2.5l.04-.04s0,0,0,0c1.49-1.31,3.07-2.53,4.66-3.72,1.64-1.21,3.3-2.4,4.99-3.54,2.24-1.51,4.57-2.88,6.92-4.22,2.25-1.27,4.53-2.51,6.85-3.66,1.29-.63,2.59-1.25,3.9-1.84,3.19-1.47,6.41-2.87,9.66-4.2,2.91-1.19,5.83-2.36,8.81-3.35,1.41-.47,2.84-.87,4.28-1.16.88-.16,1.76-.29,2.64-.36.89-.05,1.77-.05,2.67,0,.72.04,1.43.14,2.13.27.73.13,1.44.32,2.15.55.76.25,1.51.54,2.25.87.68.33,1.35.69,1.98,1.1.56.38,1.1.78,1.63,1.21l.04.04c.74.63,1.43,1.3,2.08,2.01.82.93,1.58,1.91,2.28,2.93,0,0,0,.02.02.02,0,0,0,.03.02.03,1.27,1.89,2.38,3.87,3.42,5.9,1.76,3.52,3.25,7.17,4.54,10.9.47,1.4.94,2.8,1.36,4.22,1.81,6.05,3.3,12.18,4.56,18.36h0v.02s.02.04.02.06c.14.7.26,1.39.4,2.09Z"/>
        <path class="cls-7" d="M249.72,215.94c-.09.3-.15.6-.25.9-.25.76-.55,1.49-.9,2.21-.37.74-.8,1.45-1.25,2.14-.41.61-.83,1.19-1.29,1.75l-.03.03s0,.02-.02.03c-.5.58-1.05,1.11-1.61,1.62-1.71,1.54-3.58,2.9-5.47,4.22-1.69,1.17-3.43,2.3-5.21,3.34-1.71,1.01-3.46,1.94-5.22,2.86l.02-.02s0,0-.02.02h0c-1.35.69-2.69,1.36-4.04,2.01-4.62,2.26-9.27,4.45-13.86,6.73-2.06,1.02-4.1,2.06-6.13,3.11h-.02s-.05.03-.08.04c-2.63,1.36-5.26,2.73-7.87,4.13-4.17,2.23-8.28,4.56-12.47,6.73-1.1.56-2.2,1.11-3.32,1.64-.99.47-1.99.93-3.02,1.29-.55.19-1.12.36-1.7.49-.49.11-.99.18-1.49.22-.4.03-.79.03-1.19.02-.53-.04-1.06-.1-1.57-.2-.56-.11-1.13-.26-1.68-.44-.87-.29-1.73-.63-2.57-1.02-.88-.43-1.76-.91-2.61-1.38-1.01-.57-2.02-1.14-3.02-1.73-1.76-1.02-3.54-2.08-5.29-3.12-4.39-2.6-8.74-5.27-13.13-7.89-4.69-2.8-9.35-5.64-14.13-8.29-.34-.18-.67-.36-1.01-.55.5-.34.97-.7,1.47-1.04h0l.03-.03s.04-.03.06-.04c4.44-2.94,9.06-5.59,13.82-7.96,2.9-1.42,5.85-2.71,8.83-3.93,2.43-.98,4.87-1.91,7.33-2.77,6.29-2.17,12.74-3.83,19.26-5.15,7.03-1.39,14.17-2.25,21.33-2.74.98-.06,1.97-.13,2.96-.18,8.35-.43,16.71-.34,25.05.19,3.48.23,6.96.53,10.42.95,3.41.41,6.8.95,10.16,1.63.24.04.48.12.73.16Z"/>
        <path class="cls-3" d="M228.5,235.02l-.02.02s0-.02.02-.02Z"/>
        <path class="cls-7" d="M205.48,402.2c.2.31.39.62.59.93-.52.4-1.02.83-1.56,1.19-1.07.7-2.17,1.34-3.31,1.91-1.24.6-2.51,1.13-3.8,1.59-.07.03-.15.05-.22.07-.05.02-.09.03-.14.04-2.02.67-4.08,1.2-6.16,1.64-3.33.65-6.7,1.02-10.07,1.26-2.98.19-5.98.3-8.97.33-3.23.05-6.47,0-9.7-.21-2.3-.16-4.61-.39-6.9-.69-2.4-.33-4.8-.75-7.19-1.22-4.18-.86-8.31-1.95-12.35-3.32-.04,0-.07-.02-.11-.04,0,0,0,0-.02,0-1.31-.46-2.62-.93-3.9-1.46-1.51-.62-3-1.29-4.48-2.02h0c-1.87-.94-3.7-1.98-5.45-3.12-1.45-.98-2.83-2.02-4.15-3.16-.74-.64-1.38-1.35-2.07-2.03.76-.3,1.52-.6,2.28-.9,3.88-1.48,7.81-2.88,11.75-4.18,3.93-1.29,7.89-2.47,11.87-3.58,3.44-.95,6.88-1.89,10.33-2.79,1.99-.52,3.99-1.02,6.01-1.46,2.07-.45,4.15-.84,6.24-1.13,1.3-.18,2.6-.33,3.91-.47,1.27-.13,2.56-.22,3.84-.22,1.73,0,3.45.05,5.16.26,0,0-.02,0-.02,0,1.13.15,2.25.36,3.36.65,1.28.34,2.55.77,3.78,1.27.04.02.08.04.13.05h0c1.14.47,2.26,1.02,3.33,1.61,1.38.8,2.7,1.69,3.97,2.63h0s.02.03.03.04h0c1.24.96,2.41,2,3.53,3.09.84.84,1.66,1.69,2.43,2.58.82.93,1.6,1.9,2.37,2.88.75.94,1.47,1.91,2.17,2.89,1.18,1.67,2.34,3.37,3.45,5.1Z"/>
        <path class="cls-7" d="M174.5,331.68c.02,2.44.04,4.87.02,7.32-.02,2.3-.08,4.61-.28,6.91-.14,1.49-.41,2.98-.74,4.44-.15.66-.31,1.32-.51,1.98-.18.65-.4,1.29-.64,1.91-.46,1.19-.99,2.35-1.59,3.47-.46.83-.96,1.64-1.51,2.41,0,.03-.02.04-.04.05-.64.86-1.32,1.69-2.05,2.47-.85.87-1.75,1.67-2.68,2.45-1.3,1.07-2.67,2.06-4.1,2.96-2.1,1.3-4.3,2.46-6.54,3.51-2.09.95-4.22,1.82-6.36,2.66-2.21.86-4.44,1.66-6.7,2.38-2.44.76-4.89,1.44-7.37,2.07-5.62,1.43-11.31,2.65-17.02,3.68-2.86.5-5.72.94-8.59,1.38-.68-1.19-1.35-2.39-1.97-3.61-.78-1.56-1.5-3.16-2.18-4.76-.72-1.69-1.4-3.39-2.02-5.12-.74-2.11-1.44-4.24-2.01-6.41-.6-2.29-1.09-4.61-1.57-6.94-.46-2.26-.89-4.51-1.29-6.79-.77-4.51-1.4-9.05-1.94-13.6-.45-3.86-.85-7.71-1.11-11.59-.04-.56-.07-1.11-.11-1.68-.46-7.82-.55-15.66-.03-23.48.2-2.95.53-5.87.93-8.79.4-2.95.86-5.89,1.46-8.8.72-3.41,1.57-6.79,2.73-10.08.76-2.12,1.65-4.21,2.66-6.23,1.16-2.26,2.47-4.43,3.9-6.53,1.67-2.44,3.52-4.75,5.49-6.98,2.24-2.5,4.61-4.85,7.07-7.14.15.04.32.04.48.07,1.12.21,2.24.42,3.35.67,1.36.31,2.7.64,4.04,1.02,1.46.41,2.87.9,4.3,1.42.02,0,.04,0,.05.02h0c1.98.74,3.95,1.51,5.88,2.36,1.99.88,3.95,1.83,5.87,2.84,2.46,1.29,4.86,2.71,7.21,4.17,1.99,1.25,3.94,2.56,5.86,3.91h0c2.09,1.47,4.13,3.04,6.01,4.76,1.15,1.05,2.24,2.16,3.25,3.34.78.94,1.51,1.92,2.18,2.95.66,1.04,1.28,2.12,1.82,3.24.3.62.57,1.25.82,1.89.1.26.19.52.28.78.05.14.1.29.15.43.04.11.05.23.11.34,0,.04.02.08.04.12.74,2.33,1.27,4.69,1.72,7.07.79,4.37,1.35,8.77,1.76,13.19.51,5.35.82,10.7,1.06,16.06.25,5.28.39,10.55.45,15.84Z"/>
      </g>
      <path class="cls-7" d="M300.51,246.1l-1.94,49.48-14.81.22s-7.14-49.02-23.26-60.1c0,0-14.51-27.16,6.28-14.82,0,0,28.3,11.33,33.73,25.23Z"/>
      <path class="cls-4" d="M300.51,246.1l-1.94,49.48,1.94-49.48Z"/>
      <path class="cls-8" d="M298.57,295.58s-66.32-16.31-77.87,75.07c.3,10.04-2.52,16.74-4.78,20.65-10.64,18.39-38.81,26.67-70.04,19.64,0,0-41.98-5.03-50.25-54.15,0,0-31.72,19.93-3.79,51.15,7.25,6.74,17.42,14.47,30.86,20.39,38.45,16.92,75.36,6.52,87.16,2.65,6.11-2.32,14.99-6.61,23.49-14.57,15.97-14.95,20.22-33.11,21.48-40.18,0,0,22.69-22.09,31.03-42.6,0,0,16.34-28.37,12.69-38.07Z"/>
      <path class="cls-8" d="M82.9,391.6s-28.29,4.4-23.65,9.2c0,0,12.26,17.95,43.63,17.26,0,0-12.05-11.35-19.99-26.46Z"/>
      <path class="cls-9" d="M107.88,418.19s-32.58,44.33-2.93,87.67c0,0,48.11,17.72,76.27-11,0,0-1.83-56.77,3.18-56.91,0,0-47.74,2.87-76.52-19.75Z"/>
      <path class="cls-8" d="M104.95,505.85s6.93-17.82,17.32,4.19c0,0-15.46-1.34-17.32-4.19Z"/>
      <path class="cls-8" d="M141.18,511.18c-.49.95-3.46.6-9.4-.1-4-.47-7.28-1.12-9.51-1.62.04-.77.39-6.95,4.11-8.74,6.03-2.9,16.04,8.06,14.81,10.46Z"/>
      <path class="cls-8" d="M299.64,505.9s-8.74-16.5-12.02,6.75c0,0-12.27-16.87-11.8,4.22,0,0,17.06-3.28,23.82-10.97Z"/>
    </g>
    <path class="cls-8" d="M210.08,481.41s-6.01-14.07-9.66,8.54c0,0-7.07-11.28-8.01,1.58,0,0,13.75.05,17.67-10.13Z"/>
    <path class="cls-8" d="M369.97,467.23s-10.43-7.36-7.35,15.69c0,0-14.55-12.54-9.3,7.98,0,0,13.34-5.42,16.65-23.68Z"/>
  </g>
  <g>
    <path class="cls-8" d="M222.53,694.13c-1.77.83-4.54,1.57-8.32,2.23-3.48.61-6.33.91-8.53.91-1.58,0-2.71-.24-3.4-.73-.94-.66-1.41-1.86-1.41-3.61l.47-7.76c.41-7.16.61-15.09.61-23.81,0-.67.22-1.24.67-1.71s1-.7,1.65-.7,1.23.23,1.68.7.67,1.04.67,1.71c0,8.83-.21,16.86-.63,24.09l-.3,3.56c-.12,1.3-.17,2.45-.14,3.45,4.08.05,9.23-.91,15.47-2.88.27-.08.52-.12.75-.12.67,0,1.23.27,1.69.8.39.48.59,1.04.59,1.66,0,1-.5,1.73-1.5,2.2Z"/>
    <path class="cls-8" d="M247.33,681.4c0,1.12,0,2.81.02,5.06s.02,3.94.02,5.06c0,.34.03.87.08,1.57s.08,1.23.08,1.57c0,.67-.23,1.22-.68,1.65s-1.01.64-1.66.64c-1.2,0-1.97-.74-2.3-2.23-1.95,1.02-4.2,1.52-6.75,1.52-2.05,0-3.74-.45-5.09-1.36-1.48-1-2.37-2.46-2.65-4.38-.61-4.14-.91-7.83-.91-11.06,0-2.14.23-4.58.7-7.31.22-1.36.96-2.04,2.23-2.04.67,0,1.23.21,1.69.64s.68.98.68,1.65c0,.72-.11,1.87-.34,3.45s-.34,2.78-.34,3.61c0,2.61.09,4.84.26,6.7s.43,3.35.77,4.48c.52.28,1.02.5,1.52.64s.99.22,1.48.22c2.09,0,4.3-.34,6.63-1.01l-.02-4.76-.05-4.55c0-3.38.15-6.3.45-8.79.17-1.44.93-2.16,2.27-2.16.67,0,1.23.22,1.69.66s.66.98.63,1.64l-.42,8.86Z"/>
    <path class="cls-8" d="M259.11,676.67l-.35,11.65c0,1.23-.06,3.05-.19,5.44-.16,1.56-.92,2.34-2.3,2.34-1.53,0-2.3-.8-2.3-2.39,0-1.89.09-4.73.26-8.52s.26-6.63.26-8.52c0-2.47.04-5.29.12-8.47s.12-6,.12-8.47c0-1.56.77-2.34,2.3-2.34s2.32.78,2.32,2.34c0,2.47-.04,5.29-.12,8.47s-.12,6-.12,8.47Z"/>
    <path class="cls-8" d="M285.44,681.4c0,1.12,0,2.81.02,5.06s.02,3.94.02,5.06c0,.34.03.87.08,1.57s.08,1.23.08,1.57c0,.67-.23,1.22-.68,1.65s-1.01.64-1.66.64c-1.2,0-1.97-.74-2.3-2.23-1.95,1.02-4.2,1.52-6.75,1.52-2.05,0-3.74-.45-5.09-1.36-1.48-1-2.37-2.46-2.65-4.38-.61-4.14-.91-7.83-.91-11.06,0-2.14.23-4.58.7-7.31.22-1.36.96-2.04,2.23-2.04.67,0,1.23.21,1.69.64s.68.98.68,1.65c0,.72-.11,1.87-.34,3.45s-.34,2.78-.34,3.61c0,2.61.09,4.84.26,6.7s.43,3.35.77,4.48c.52.28,1.02.5,1.52.64s.99.22,1.48.22c2.09,0,4.3-.34,6.63-1.01l-.02-4.76-.05-4.55c0-3.38.15-6.3.45-8.79.17-1.44.93-2.16,2.27-2.16.67,0,1.23.22,1.69.66s.66.98.63,1.64l-.42,8.86Z"/>
  </g>
</svg>