<?xml version="1.0" encoding="UTF-8"?>
<svg id="Capa_1" data-name="Capa 1" xmlns="http://www.w3.org/2000/svg" xmlns:xlink="http://www.w3.org/1999/xlink" viewBox="0 0 644.62 397.66">
  <defs>
    <style>
      .cls-1 {
        fill: #547242;
      }

      .cls-1, .cls-2, .cls-3, .cls-4, .cls-5, .cls-6, .cls-7, .cls-8, .cls-9, .cls-10, .cls-11, .cls-12, .cls-13, .cls-14, .cls-15, .cls-16, .cls-17, .cls-18, .cls-19, .cls-20, .cls-21, .cls-22, .cls-23, .cls-24, .cls-25, .cls-26, .cls-27, .cls-28, .cls-29, .cls-30, .cls-31 {
        stroke-width: 0px;
      }

      .cls-2 {
        fill: #018400;
      }

      .cls-3 {
        fill: #000;
      }

      .cls-4 {
        fill: #e8bfe6;
      }

      .cls-5 {
        fill: #005627;
      }

      .cls-6 {
        fill: #6d5750;
        opacity: .62;
      }

      .cls-7 {
        fill: #602c15;
      }

      .cls-32 {
        opacity: .11;
      }

      .cls-32, .cls-33, .cls-34, .cls-35, .cls-36, .cls-37 {
        stroke-miterlimit: 10;
      }

      .cls-32, .cls-37 {
        fill: #cadbcf;
        stroke: #45544a;
      }

      .cls-8 {
        fill: #365c00;
      }

      .cls-9 {
        fill: #b2ebf9;
      }

      .cls-38 {
        clip-path: url(#clippath-2);
      }

      .cls-33 {
        stroke-width: .08px;
      }

      .cls-33, .cls-13, .cls-36 {
        fill: none;
      }

      .cls-33, .cls-36 {
        stroke: #a860a8;
      }

      .cls-10 {
        fill: #c68fc9;
      }

      .cls-39 {
        clip-path: url(#clippath-6);
      }

      .cls-11 {
        fill: #c9d594;
      }

      .cls-12 {
        fill: #327c3c;
      }

      .cls-34 {
        fill: #77b788;
      }

      .cls-34, .cls-35 {
        stroke: #455889;
      }

      .cls-40 {
        clip-path: url(#clippath-7);
      }

      .cls-14 {
        fill: #3c841e;
      }

      .cls-35 {
        fill: #8caaed;
      }

      .cls-41 {
        clip-path: url(#clippath-1);
      }

      .cls-42 {
        clip-path: url(#clippath-4);
      }

      .cls-15 {
        fill: #765eb5;
      }

      .cls-16 {
        fill: #81cc00;
      }

      .cls-17 {
        fill: #296026;
      }

      .cls-18 {
        fill: #29608e;
      }

      .cls-19 {
        fill: #274300;
      }

      .cls-43 {
        opacity: .32;
      }

      .cls-20 {
        fill: #4d6d19;
      }

      .cls-21 {
        fill: #279626;
      }

      .cls-36 {
        stroke-width: .06px;
      }

      .cls-44 {
        clip-path: url(#clippath);
      }

      .cls-45 {
        clip-path: url(#clippath-3);
      }

      .cls-22 {
        fill: #bc6947;
      }

      .cls-23 {
        fill: #1e330b;
      }

      .cls-46 {
        clip-path: url(#clippath-5);
      }

      .cls-24 {
        fill: #507400;
      }

      .cls-25 {
        fill: #69932e;
      }

      .cls-26 {
        fill: #99b862;
      }

      .cls-27 {
        fill: #5e69bc;
      }

      .cls-28 {
        fill: #52a400;
      }

      .cls-29 {
        fill: #648950;
      }

      .cls-30 {
        fill: #7c4127;
      }

      .cls-31 {
        fill: #395117;
      }
    </style>
    <clipPath id="clippath">
      <rect class="cls-13" x="468.92" y="215.31" width="175.71" height="181.82"/>
    </clipPath>
    <clipPath id="clippath-1">
      <path class="cls-13" d="M629.66,331.73c-2.18-1.97-4.7-3.54-7.41-4.59-1.1-.43-2.52-.7-3.31.2,3.71,3.31,7.42,6.61,11.13,9.92-2.47-1.22-5.17-1.93-7.9-2.09-.18.93.61,1.73,1.33,2.32,2.87,2.35,5.87,4.53,8.98,6.53-2.42-1.11-4.92-2.02-7.47-2.74,3.06,4.51,8.81,6.02,12.84,9.63-1.87-.22-3.72-.7-5.47-1.42,2.03,1.6,4.39,2.75,6.87,3.34l4.93-3.88c-.93-5.16-1.39-10.4-1.38-15.64-.78,2.57-1.14,5.27-1.08,7.96-.62-7.4-2.32-14.85-6.62-20.74.86,3.94,1.81,7.86,2.82,11.76-1.48-5.16-3.2-10.24-5.15-15.23.06,4.69.81,9.36,2.22,13.82-.95-2.97-1.66-6.03-2.68-8.98-1.27-3.66-3.12-7.26-6.11-9.62,2.39,5.9,4.79,11.81,7.18,17.71-2.79-6.32-5.91-12.48-9.34-18.45,2.17,6.79,4.77,13.42,7.78,19.86-3.14-5.44-6.97-10.47-11.35-14.9,1.61,5.83,4.83,11.17,9.17,15.24ZM635.34,331.89c-.07-.21-.14-.41-.21-.62.07.21.14.41.21.62Z"/>
    </clipPath>
    <clipPath id="clippath-2">
      <rect class="cls-13" x="0" y="215.31" width="175.71" height="181.82" transform="translate(175.71 612.44) rotate(-180)"/>
    </clipPath>
    <clipPath id="clippath-3">
      <path class="cls-13" d="M24.14,316.49c-4.38,4.43-8.21,9.45-11.35,14.9,3.01-6.43,5.61-13.07,7.78-19.86-3.43,5.97-6.55,12.13-9.34,18.45,2.39-5.9,4.79-11.81,7.18-17.71-2.99,2.36-4.84,5.96-6.11,9.62-1.02,2.95-1.73,6.01-2.68,8.98,1.41-4.46,2.16-9.13,2.22-13.82-1.95,4.99-3.66,10.07-5.15,15.23,1.02-3.9,1.96-7.82,2.82-11.76-4.3,5.89-6,13.34-6.62,20.74.06-2.69-.3-5.39-1.08-7.96,0,5.24-.45,10.49-1.38,15.64l4.93,3.88c2.48-.6,4.84-1.74,6.87-3.34-1.75.73-3.59,1.21-5.47,1.42,4.02-3.6,9.78-5.12,12.84-9.63-2.55.72-5.05,1.63-7.47,2.74,3.11-2,6.11-4.18,8.98-6.53.72-.59,1.51-1.39,1.33-2.32-2.73.15-5.43.87-7.9,2.09,3.71-3.31,7.42-6.61,11.13-9.92-.8-.9-2.21-.62-3.31-.2-2.71,1.05-5.23,2.62-7.41,4.59,4.34-4.07,7.56-9.42,9.17-15.24ZM9.49,331.27c-.07.21-.14.41-.21.62.07-.21.14-.41.21-.62Z"/>
    </clipPath>
    <clipPath id="clippath-4">
      <rect class="cls-13" x="361.71" y="162.45" width="92.08" height="72.93"/>
    </clipPath>
    <clipPath id="clippath-5">
      <rect class="cls-13" x="361.71" y="162.45" width="92.08" height="72.93"/>
    </clipPath>
    <clipPath id="clippath-6">
      <rect class="cls-13" x="229.89" y="193.72" width="140.54" height="85.68"/>
    </clipPath>
    <clipPath id="clippath-7">
      <rect class="cls-13" x="229.89" y="193.72" width="140.54" height="85.68"/>
    </clipPath>
  </defs>
  <rect class="cls-9" x=".02" width="643.64" height="397.33"/>
  <rect class="cls-29" x=".21" y="261.57" width="644" height="136.09"/>
  <g>
    <path class="cls-16" d="M286.28,170.9s-7.08-14.23-15.8,1.36v4.48s-7.63,1.85-7.08,7.27l-.03,8.31s-6.51-1.53-8.42,6.6c0,0,0,11.75,1.91,14,0,0-6.54.23-5.18,6.55,0,0,11.17,20.1,23.7,30.49h8.2s26.94-24.62,24.49-39.53c0,0,1.09-5.65-6.54-7.23,0,0,5.99-11.75-3.81-11.52,0,0,1.63-15.36-1.63-16.94,0,0-3.81-5.19-9.81-3.84Z"/>
    <path class="cls-7" d="M283.28,185.13l-3.42,18.31-3.39-13.11s-1.36,14.46,2.18,18.52c0,0-3,11.52-1.09,13.1,0,0-10.22-15.13-10.29-18.41,0,0,1.3,13.66,10.01,23.83l-.82,10.62s-8.17-17.62-14.71-16.94c0,0,11.99,13.1,14.44,23.72,0,0-1.36,20.55-4.9,21.46,0,0,12.38-1.13,15.18,0l-3.47-22.59,14.71-20.55-14.44,15.58-.54-9.49,8.99-14-9.59,10.5.32-9.15s8.17-15.36,7.9-18.75c0,0-5.45,12.87-8.17,13.33,0,0,3.81-24.62,1.09-25.97Z"/>
    <path class="cls-21" d="M269.66,189.42s-3-.45-2.18-2.94c0,0,2.45-1.36,2.18,2.94Z"/>
    <path class="cls-21" d="M299.32,198.89s1.79,1.94-3.39,2c0,0,.34-2.51,3.39-2"/>
    <path class="cls-21" d="M283.38,179.22s3.84-.99,1.15,4.76c0,0-3.54-1.66-1.15-4.76"/>
    <path class="cls-21" d="M271.42,204.66s3.2-2.03,2.84,4.41c0,0-3.91-.68-2.84-4.41"/>
    <path class="cls-21" d="M258.85,215.86s2.45-1.36,2.18,2.94c0,0-3-.45-2.18-2.94"/>
    <path class="cls-21" d="M296.1,210.46s2.5,1.3-2.33,2.85c0,0-.74-2.45,2.33-2.85"/>
    <path class="cls-21" d="M291.68,208.13s1.83,1.92-3.35,2.04c0,0,.3-2.51,3.35-2.04"/>
    <path class="cls-21" d="M259.66,201.18s2.45-1.36,2.18,2.94c0,0-3-.45-2.18-2.94"/>
    <path class="cls-21" d="M285.26,215.03s2.89-.48.66,3.4c0,0-2.56-1.37-.66-3.4"/>
    <path class="cls-21" d="M276.11,175.5s2.45-1.35,2.18,2.94c0,0-3-.45-2.18-2.94"/>
    <path class="cls-21" d="M294.52,219.52s1.79,1.94-3.39,2c0,0,.34-2.51,3.39-2"/>
    <path class="cls-21" d="M292.61,177.05s1.79,1.94-3.39,2c0,0,.34-2.51,3.39-2"/>
  </g>
  <g>
    <path class="cls-2" d="M461.21,205.69s.45-3,7.34,5.61c0,0,21.22,5.56,21.58-5.61,0,0-9.19-6.86-3.09-9.01,0,0,3.87-6.71-1.83-8.38,0,0,5.9-7.9-6.71-11.5,0,0,8.75-5.03,2.64-12.22,0,0-9.15-9.58-12.61-6.95,0,0-13.63-15.09-22.99,1.44,0,0-9.36-2.63-9.15,9.1,0,0-8.75,6.65-.81,9.91,0,0-2.06,3.27.6,5.54,0,0-12.78.64-7.4,8.76,0,0-1.54,6.68,1.31,8.84,0,0-4.34,8.06,9.02,11.45,0,0,11.45-1.06,14.03-5.9,0,0,6.65,1.93,8.07-1.1Z"/>
    <path class="cls-5" d="M440.48,189.66s-2.24-.48-1.63-3.11c0,0,1.83-1.44,1.63,3.11Z"/>
    <path class="cls-5" d="M451.35,177.15s-2.24-.48-1.63-3.11c0,0,1.83-1.44,1.63,3.11Z"/>
    <path class="cls-5" d="M479.71,196.21s.63-2.57,2.79-1.6c0,0,1.03,2.29-2.79,1.6Z"/>
    <path class="cls-5" d="M473.44,193.94s-1.47-2.05.43-3.62c0,0,2.19.26-.43,3.62Z"/>
    <path class="cls-5" d="M439.73,192.62s-1.61,1.89-3.1-.21c0,0,.05-2.59,3.1.21Z"/>
    <path class="cls-5" d="M447.69,193.92s-2.24-.48-1.63-3.11c0,0,1.83-1.44,1.63,3.11Z"/>
    <path class="cls-5" d="M462.88,171.2s-1.47-2.05.43-3.62c0,0,2.19.26-.43,3.62Z"/>
    <path class="cls-5" d="M463.69,183.65s-1.47-2.05.43-3.62c0,0,2.19.26-.43,3.62Z"/>
    <path class="cls-5" d="M451.54,176.55s-2.26.32-2.34-2.4c0,0,1.39-2.01,2.34,2.4Z"/>
    <path class="cls-5" d="M442.8,183.01s-2.26.32-2.34-2.4c0,0,1.39-2.01,2.34,2.4Z"/>
    <path class="cls-5" d="M451.54,160.97s-2.26.32-2.34-2.4c0,0,1.39-2.01,2.34,2.4Z"/>
    <path class="cls-5" d="M447.07,175.82s-2.26.32-2.34-2.4c0,0,1.39-2.01,2.34,2.4Z"/>
    <path class="cls-5" d="M473.24,179.4s-2.15.88-2.72-1.77c0,0,1-2.31,2.72,1.77Z"/>
    <path class="cls-5" d="M467.26,172.97s.1-2.68,2.4-2.32c0,0,1.46,1.94-2.4,2.32Z"/>
    <path class="cls-5" d="M467.5,165.53s-1.47-2.05.43-3.62c0,0,2.19.26-.43,3.62Z"/>
    <path class="cls-5" d="M476.66,180.44s-.28-2.66,2.04-2.76c0,0,1.71,1.63-2.04,2.76Z"/>
    <path class="cls-5" d="M477.37,183.75s1.89-1.48,3.01.91c0,0-.47,2.53-3.01-.91Z"/>
    <path class="cls-5" d="M459.97,158.82s-1.47-2.05.43-3.62c0,0,2.19.26-.43,3.62Z"/>
    <path class="cls-5" d="M458.11,160.82s-2.24-.44-1.67-3.08c0,0,1.81-1.47,1.67,3.08Z"/>
    <path class="cls-5" d="M461.54,162.38s.34-2.65,2.6-2c0,0,1.27,2.11-2.6,2Z"/>
    <path class="cls-5" d="M451.3,161.33s-2.24-.44-1.67-3.08c0,0,1.81-1.47,1.67,3.08Z"/>
    <path class="cls-5" d="M448.54,166.51s-.32,2.65-2.58,2.03c0,0-1.29-2.1,2.58-2.03Z"/>
    <path class="cls-5" d="M446.98,163.55s-2.12.97-2.77-1.65c0,0,.92-2.35,2.77,1.65Z"/>
    <path class="cls-30" d="M456.73,269.49h5.96v-33.5l1.77-3.39h-2.54l-.71-16,6.26-.05v-2.5l-6.26,1.44v-18.53s2.44-3.16,20.95,3.54c0,0-11.93-9.8-21.63-6.46l-.14-5.28s16.7-4.82,16.79-6.36l-16.59,3.73-.84-5.39s6.53-8.5,8.16-14.25c0,0-6.31,10.3-7.73,10.54l-.81-15.09s-1.63-1.2-1.63,5.51l.41,4.07s-6.1-4.31-6.51-8.62c0,0,.2,7.9,5.7,11.26l.11,8.25s-12.52-8.73-17.19-7.29c0,0,3.66,1.92,8.54,4.31l3.66,2.16s-7.9-1.49-8.73,2.49c-.16.78-.45,1.95-.36,1.99.1.04.31-1.39,1.16-2.32.61-.67,1.25-.75,3.87-.96,3.89-.32,4.52-.31,5.29.24.28.2.91.77,1.63,2.16,2.52,4.9,1.92,10.89,1.42,13.89,0,0-4.07-2.63-6.92-2.4-2.35-1.68-4.72-3.36-7.12-5.03-.81-.57-1.63-1.13-2.44-1.7,0,0-.61,2.18,7.32,7.44l-12,4.55s20.55-7.43,21.16,3.11l.1,18.48-5.86-3.99s2.53-2.93,4.17-2.01c1.75.98,1.35,5.95,1.23,7.66-.5,7.09-.5,20.47.36,44.29Z"/>
  </g>
  <g>
    <path class="cls-2" d="M265.21,171.04s.73-4.61,12.01,8.63c0,0,34.7,8.54,35.29-8.63,0,0-15.04-10.54-5.06-13.85,0,0,6.32-10.31-2.99-12.89,0,0,9.65-12.15-10.98-17.67,0,0,14.3-7.73,4.32-18.78,0,0-14.97-14.73-20.62-10.68,0,0-22.29-23.2-37.59,2.21,0,0-15.3-4.05-14.97,13.99,0,0-14.3,10.23-1.33,15.24,0,0-3.37,5.03.98,8.52,0,0-20.9.98-12.1,13.47,0,0-2.51,10.27,2.14,13.59,0,0-7.09,12.38,14.75,17.61,0,0,18.72-1.63,22.94-9.07,0,0,10.88,2.96,13.2-1.68Z"/>
    <path class="cls-5" d="M231.31,146.41s-3.66-.74-2.66-4.79c0,0,2.99-2.21,2.66,4.79Z"/>
    <path class="cls-5" d="M249.08,127.17s-3.66-.74-2.66-4.79c0,0,2.99-2.21,2.66,4.79Z"/>
    <path class="cls-5" d="M295.47,156.47s1.02-3.96,4.57-2.46c0,0,1.69,3.52-4.57,2.46Z"/>
    <path class="cls-5" d="M285.21,152.98s-2.4-3.14.7-5.57c0,0,3.58.4-.7,5.57Z"/>
    <path class="cls-5" d="M230.09,150.95s-2.64,2.9-5.07-.32c0,0,.08-3.98,5.07.32Z"/>
    <path class="cls-5" d="M243.1,152.95s-3.66-.74-2.66-4.79c0,0,2.99-2.21,2.66,4.79Z"/>
    <path class="cls-5" d="M267.94,118.02s-2.4-3.14.7-5.57c0,0,3.58.4-.7,5.57Z"/>
    <path class="cls-5" d="M269.27,137.17s-2.4-3.14.7-5.57c0,0,3.58.4-.7,5.57Z"/>
    <path class="cls-5" d="M249.4,126.25s-3.69.5-3.82-3.7c0,0,2.27-3.09,3.82,3.7Z"/>
    <path class="cls-5" d="M235.1,136.18s-3.69.5-3.82-3.7c0,0,2.27-3.09,3.82,3.7Z"/>
    <path class="cls-5" d="M249.4,102.3s-3.69.5-3.82-3.7c0,0,2.27-3.09,3.82,3.7Z"/>
    <path class="cls-5" d="M242.09,125.13s-3.69.5-3.82-3.7c0,0,2.27-3.09,3.82,3.7Z"/>
    <path class="cls-5" d="M284.89,130.64s-3.51,1.35-4.44-2.72c0,0,1.63-3.55,4.44,2.72Z"/>
    <path class="cls-5" d="M275.11,120.75s.17-4.11,3.93-3.57c0,0,2.38,2.99-3.93,3.57Z"/>
    <path class="cls-5" d="M275.49,109.3s-2.4-3.14.7-5.57c0,0,3.58.4-.7,5.57Z"/>
    <path class="cls-5" d="M290.47,132.23s-.46-4.09,3.33-4.24c0,0,2.8,2.5-3.33,4.24Z"/>
    <path class="cls-5" d="M291.64,137.31s3.1-2.28,4.92,1.41c0,0-.77,3.89-4.92-1.41Z"/>
    <path class="cls-5" d="M263.18,98.99s-2.4-3.14.7-5.57c0,0,3.58.4-.7,5.57Z"/>
    <path class="cls-5" d="M260.15,102.07s-3.67-.67-2.73-4.74c0,0,2.96-2.26,2.73,4.74Z"/>
    <path class="cls-5" d="M265.75,104.48s.56-4.07,4.25-3.08c0,0,2.08,3.25-4.25,3.08Z"/>
    <path class="cls-5" d="M249,102.85s-3.67-.67-2.73-4.74c0,0,2.96-2.26,2.73,4.74Z"/>
    <path class="cls-5" d="M244.5,110.82s-.53,4.07-4.22,3.12c0,0-2.1-3.23,4.22-3.12Z"/>
    <path class="cls-5" d="M241.94,106.27s-3.46,1.5-4.53-2.53c0,0,1.5-3.62,4.53,2.53Z"/>
    <path class="cls-30" d="M257.89,269.12h9.74v-51.49l2.9-5.21h-4.16l-1.17-24.59,10.24-.08v-3.84l-10.24,2.21v-28.49s3.99-4.86,34.26,5.45c0,0-19.5-15.06-35.36-9.92l-.23-8.12s27.3-7.42,27.45-9.78l-27.12,5.73-1.37-8.29s10.68-13.06,13.34-21.9c0,0-10.31,15.83-12.64,16.2l-1.33-23.2s-2.66-1.84-2.66,8.47l.67,6.26s-9.98-6.63-10.64-13.26c0,0,.33,12.15,9.31,17.31l.18,12.68s-20.47-13.41-28.12-11.2c0,0,5.99,2.95,13.97,6.63l5.99,3.31s-12.92-2.3-14.28,3.82c-.27,1.2-.74,3-.59,3.06.16.06.5-2.13,1.9-3.57,1-1.03,2.04-1.15,6.32-1.47,6.36-.48,7.39-.47,8.65.37.46.31,1.5,1.18,2.66,3.31,4.12,7.53,3.14,16.73,2.33,21.36,0,0-6.65-4.05-11.31-3.68-3.84-2.58-7.72-5.16-11.64-7.73-1.33-.87-2.66-1.74-3.99-2.61,0,0-1,3.34,11.97,11.44l-19.63,7s33.6-11.41,34.59,4.79l.16,28.41-9.58-6.14s4.13-4.5,6.81-3.09c2.87,1.51,2.21,9.14,2.01,11.78-.82,10.9-.81,31.46.59,68.08Z"/>
  </g>
  <ellipse class="cls-6" cx="332.32" cy="277.81" rx="178.62" ry="36.64"/>
  <g class="cls-44">
    <g class="cls-41">
      <path class="cls-11" d="M629.66,331.73c-2.18-1.97-4.7-3.54-7.41-4.59-1.1-.43-2.52-.7-3.31.2,3.71,3.31,7.42,6.61,11.13,9.92-2.47-1.22-5.17-1.93-7.9-2.09-.18.93.61,1.73,1.33,2.32,2.87,2.35,5.87,4.53,8.98,6.53-2.42-1.11-4.92-2.02-7.47-2.74,3.06,4.51,8.81,6.02,12.84,9.63-1.87-.22-3.72-.7-5.47-1.42,2.03,1.6,4.39,2.75,6.87,3.34l4.93-3.88c-.93-5.16-1.39-10.4-1.38-15.64-.78,2.57-1.14,5.27-1.08,7.96-.62-7.4-2.32-14.85-6.62-20.74.86,3.94,1.81,7.86,2.82,11.76-1.48-5.16-3.2-10.24-5.15-15.23.06,4.69.81,9.36,2.22,13.82-.95-2.97-1.66-6.03-2.68-8.98-1.27-3.66-3.12-7.26-6.11-9.62,2.39,5.9,4.79,11.81,7.18,17.71-2.79-6.32-5.91-12.48-9.34-18.45,2.17,6.79,4.77,13.42,7.78,19.86-3.14-5.44-6.97-10.47-11.35-14.9,1.61,5.83,4.83,11.17,9.17,15.24ZM635.34,331.89c-.07-.21-.14-.41-.21-.62.07.21.14.41.21.62Z"/>
      <g>
        <path class="cls-26" d="M643.34,353.19c-.15-.33-.51-.64-.66-1.01-.23-.51-.47-1.02-.78-1.48-1.34-1.95-2.56-3.96-3.66-6.04-.56-1.02-.89-2.15-1.41-3.19-.88-1.73-1.8-3.43-2.76-5.11-.64-1.11-1.42-2.15-2.06-3.27-1.04-1.8-2.03-3.62-2.86-5.54-.64-1.49-1.16-3.03-1.78-4.53-.09-.21-.2-.41-.28-.62-.05-.13-.11-.27-.14-.38-.02-.08-.06-.17-.06-.16,0,0,.07.12.13.2.04.06.09.15.14.22.8,1.27,1.47,2.6,2.14,3.93.44.86.99,1.67,1.47,2.5.25.43.37.91.62,1.33.62,1.02,1.31,2,1.95,3,.12.19.08.47.2.66.83,1.29,1.76,2.53,2.52,3.85.63,1.1,1.1,2.28,1.64,3.42l1.65,3.55c.5,1.1.96,2.21,1.49,3.29.26.52.61.98.87,1.49.39.76.73,1.55,1.05,2.35.14.32.26.65.38.99.05.15.1.3.18.52Z"/>
        <path class="cls-26" d="M638.52,344.64c.03-.33-.14-.74-.1-1.09.04-.51.07-1.02,0-1.52-.28-2.14-.52-4.26-.69-6.38-.09-1.05.03-2.11-.06-3.16-.18-1.75-.43-3.49-.81-5.21-.24-1.14-.66-2.25-.95-3.37-.46-1.82-.95-3.63-1.29-5.48-.27-1.44-.44-2.92-.78-4.36-.05-.2-.11-.4-.16-.6-.03-.12-.05-.26-.07-.37,0-.08-.03-.16-.03-.15,0,0,.05.12.09.2.03.06.06.14.1.22.56,1.25.93,2.56,1.3,3.88.23.85.58,1.67.83,2.52.13.43.14.89.26,1.32.34,1.03.69,2.07,1.04,3.11.07.2-.06.44,0,.64.41,1.35.88,2.69,1.16,4.07.23,1.14.24,2.32.32,3.48.06,1.2.12,2.39.13,3.59,0,1.1-.03,2.21-.03,3.31,0,.53.13,1.05.12,1.58-.02.78-.04,1.57-.15,2.35-.03.32-.08.64-.14.95-.03.14-.06.28-.08.5Z"/>
        <path class="cls-26" d="M639.36,346.13c.08-.12,0-.34.1-.46.13-.17.25-.35.28-.57.13-.93.38-1.79.7-2.62.15-.41.52-.73.7-1.14.28-.68.51-1.38.67-2.1.11-.48.05-1,.14-1.48.14-.77.31-1.53.64-2.26.25-.57.67-1.1.89-1.69.03-.08.05-.17.09-.25.02-.05.05-.1.08-.14.02-.03.03-.06.03-.06,0,0,0,.05,0,.09,0,.03,0,.07,0,.1,0,.58-.14,1.14-.28,1.7-.1.36-.07.75-.13,1.12-.03.19-.18.34-.2.53-.04.46-.02.94-.05,1.41,0,.09-.19.13-.2.22-.04.6,0,1.24-.12,1.83-.11.48-.41.9-.63,1.34-.24.45-.48.9-.74,1.33-.25.4-.52.79-.75,1.19-.11.19-.1.44-.21.64-.17.29-.36.56-.58.82-.08.11-.18.21-.29.3-.05.04-.1.08-.16.15Z"/>
        <path class="cls-26" d="M636.96,342.17c.01-.31-.17-.67-.15-1,.02-.47.02-.94-.07-1.4-.38-1.95-.69-3.88-.92-5.83-.12-.96-.03-1.94-.14-2.9-.22-1.6-.5-3.19-.89-4.76-.26-1.04-.68-2.04-.98-3.07-.47-1.66-.95-3.32-1.28-5.02-.25-1.32-.41-2.68-.72-4.01-.04-.18-.11-.36-.14-.55-.03-.11-.05-.24-.06-.34,0-.07-.02-.15-.02-.14,0,0,.05.11.09.18.03.05.06.13.09.2.53,1.14.88,2.34,1.23,3.55.22.78.56,1.52.81,2.3.13.39.13.82.26,1.21.34.94.69,1.89,1.04,2.83.07.18-.06.41,0,.59.41,1.22.91,2.44,1.2,3.7.24,1.04.28,2.12.38,3.19.09,1.1.18,2.19.23,3.29l.08,3.04c.02.48.17.96.18,1.44.02.72.02,1.44-.05,2.16-.02.29-.05.59-.1.88-.02.13-.05.26-.06.46Z"/>
        <path class="cls-26" d="M634.87,337.8c0-.26-.2-.55-.19-.82,0-.39-.01-.78-.12-1.16-.45-1.6-.81-3.2-1.08-4.81-.14-.79-.06-1.62-.18-2.42-.23-1.33-.52-2.65-.9-3.94-.25-.86-.66-1.67-.94-2.52-.44-1.37-.88-2.74-1.16-4.16-.21-1.11-.33-2.25-.58-3.36-.04-.15-.09-.3-.12-.46-.02-.09-.04-.2-.05-.29,0-.06-.02-.12-.02-.12,0,0,.04.09.08.15.03.04.05.11.08.16.47.94.78,1.94,1.08,2.94.19.65.51,1.26.74,1.9.12.32.11.68.23,1.01.3.78.67,1.54.98,2.32.06.15-.06.35,0,.49.4,1,.88,2,1.17,3.04.24.86.29,1.76.4,2.65.11.91.21,1.82.27,2.74.05.84.1,1.69.15,2.53.03.4.19.79.22,1.19.05.6.07,1.2.03,1.81,0,.25-.03.49-.06.74-.01.11-.03.22-.04.39Z"/>
        <path class="cls-26" d="M638.26,343.88c-.16-.12-.44-.08-.61-.2-.24-.16-.5-.3-.8-.36-1.23-.2-2.47-.39-3.65-.88-.59-.22-1.06-.68-1.61-.96-.92-.48-1.83-.95-2.75-1.43-.61-.32-1.29-.53-1.88-.9-.96-.59-1.85-1.29-2.57-2.16-.56-.68-.98-1.48-1.46-2.2-.07-.1-.15-.19-.21-.29-.04-.06-.08-.13-.1-.19-.02-.04-.04-.08-.04-.08,0,0,.06.05.1.08.03.02.07.06.11.09.61.51,1.13,1.09,1.68,1.65.36.36.81.62,1.22.92.2.15.33.41.55.55.53.34,1.11.59,1.68.85.11.05.11.26.21.31.74.33,1.53.56,2.24.88.59.28,1.1.69,1.66,1.03.58.34,1.17.66,1.77.98.55.29,1.11.6,1.7.83.28.11.61.11.89.24.42.17.84.4,1.21.68.16.11.3.23.44.37.06.06.12.13.21.21Z"/>
        <path class="cls-26" d="M636.41,339.97c-.19-.12-.5-.09-.7-.22-.29-.18-.58-.35-.9-.46-1.39-.42-2.7-1.05-3.89-1.86-.6-.38-1.03-.99-1.58-1.43-.92-.74-1.83-1.47-2.76-2.21-.61-.49-1.32-.88-1.9-1.41-.96-.84-1.83-1.79-2.51-2.87-.52-.85-.92-1.79-1.36-2.67-.06-.12-.14-.23-.2-.36-.04-.08-.07-.16-.1-.23-.02-.05-.04-.1-.04-.09,0,0,.05.07.1.11.03.03.07.08.11.12.61.67,1.11,1.41,1.65,2.13.35.46.8.85,1.21,1.26.21.21.31.51.53.71.53.48,1.13.89,1.71,1.32.11.08.08.3.2.38.75.54,1.58.98,2.31,1.51.6.45,1.1,1.02,1.66,1.52.58.51,1.17,1.02,1.77,1.51.55.46,1.1.93,1.71,1.33.29.19.64.28.93.46.44.25.86.56,1.28.87.17.12.34.26.5.4.07.06.14.13.26.22Z"/>
        <path class="cls-26" d="M634.28,335.54c-.19-.21-.56-.31-.76-.54-.3-.32-.6-.62-.94-.89-1.51-1.06-2.85-2.33-4.04-3.72-.61-.67-.98-1.53-1.52-2.24-.91-1.19-1.82-2.38-2.73-3.58-.61-.79-1.35-1.49-1.93-2.29-.97-1.29-1.85-2.64-2.58-4.08-.55-1.13-.99-2.32-1.53-3.45-.08-.16-.17-.31-.24-.47-.04-.1-.09-.21-.12-.3-.02-.06-.05-.13-.05-.12,0,0,.06.09.12.15.04.04.08.1.12.16.71.92,1.28,1.92,1.88,2.9.38.64.88,1.21,1.31,1.82.22.31.32.69.56.99.56.73,1.19,1.41,1.78,2.11.11.13.07.37.19.51.78.9,1.64,1.72,2.38,2.63.61.75,1.09,1.6,1.63,2.4.57.82,1.15,1.63,1.74,2.44.54.75,1.08,1.51,1.69,2.2.3.33.67.58.97.91.46.47.87.98,1.3,1.49.18.2.34.42.5.64.07.1.14.2.26.34Z"/>
        <path class="cls-26" d="M639.06,345.16c-.17-.03-.37.14-.55.1-.25-.04-.51-.07-.77-.02-1.09.25-2.18.34-3.27.25-.54-.02-1.05-.31-1.58-.39-.89-.13-1.77-.26-2.67-.39-.59-.09-1.23-.03-1.82-.17-.96-.21-1.91-.56-2.73-1.14-.63-.46-1.16-1.07-1.68-1.62-.08-.07-.16-.14-.23-.22-.04-.05-.09-.11-.12-.15-.02-.04-.05-.06-.05-.06,0,0,.06.03.1.05.03.01.07.03.11.05.62.31,1.16.7,1.75,1.04.38.23.83.31,1.24.46.21.07.37.27.59.32.53.13,1.08.16,1.62.21.1,0,.15.2.26.21.7.05,1.42-.03,2.09.03.56.05,1.1.27,1.65.39l1.73.37c.54.11,1.08.25,1.62.31.26.03.53-.06.79-.04.39.03.78.1,1.17.2.16.04.32.09.47.14.07.03.14.06.25.09Z"/>
      </g>
    </g>
    <g>
      <path class="cls-8" d="M672.5,331.05c-.19-1.46-.53-3.11-1.77-3.83-1.39-.81-3.18.03-4.29,1.22-1.11,1.19-1.89,2.71-3.15,3.72.53-1.08,1.07-2.22,1-3.43s-1.01-2.45-2.18-2.35c-.56.05-1.06.38-1.5.74-2.08,1.69-3.55,4.16-4.07,6.84-.39-2.55-1.5-4.98-3.17-6.9-2.47,2.11-3.28,6.04-1.87,9.01-2.46-1.49-5.56-1.78-8.24-.79.65,2.41,1.6,4.72,2.84,6.87-1.16-.21-2.37-.04-3.46.44-.32-.9-.73-1.77-1.22-2.59-.18-.3-.38-.6-.7-.73-.74-.29-1.41.59-1.66,1.36-.45,1.39-.53,2.89-.23,4.32-1.23-2.12-2.81-4.02-4.65-5.59-.43-.37-.92-.73-1.48-.72-1,.03-1.56,1.2-1.78,2.21-.7,3.3-.09,6.87,1.67,9.72-3.92-3.12-9.9-3.07-13.77.1,2.46,1.25,4.78,2.78,6.92,4.55-4.83.58-10.24,1.49-13.06,5.59,1.92.49,3.83.99,5.75,1.48l-.29.23-2.19,1.53c.3-.17.6-.33.9-.49l-2.77,2.22c0-.13,0-.27-.03-.4l1.9-1.33c-.66.38-1.31.78-1.94,1.2-.04-.15-.1-.3-.2-.42-.39-.47-1.11-.4-1.69-.24-2.35.66-4.48,2.16-5.94,4.18,1.26-3.33,1.7-7,1.25-10.55-3.46,1.44-6.1,4.81-6.74,8.61.13-3.8-1.22-7.63-3.69-10.45-3.49,3.48-4.5,9.34-2.38,13.85-2.27-2.82-5.24-5.02-8.54-6.35-1.33,2.04-1.3,4.77-.51,7.09.79,2.32,2.24,4.32,3.68,6.28-2.85-.12-5.74.99-7.82,3.02,2.7,1.56,5.23,3.45,7.52,5.6l-.35.28c-1.03.58-1.97,1.33-2.77,2.21l-2.74,2.2c.06-.63-.01-1.31-.49-1.67-.35-.26-.82-.27-1.25-.24-2.09.15-4.12,1.08-5.64,2.58.64-2.7.23-5.66-1.14-8.06-3.44,2.52-5.5,6.95-5.24,11.3-1.98-2.66-5.32-4.16-8.55-3.84,1.27,2.86,2.68,5.66,4.23,8.37-3.01-2.43-7.49-2.7-10.75-.64,1.98,3.21,4.8,5.87,8.07,7.63-3.29-1.11-7.11-.36-9.77,1.93,1.93.49,3.86.98,5.78,1.46-2.9-.1-5.76,1.87-6.81,4.67-.6.22-1.18.53-1.69.93,3.36,3.92,8.99,4.44,14.05,4.7,9.73.5,19.47.99,29.2,1.49,21,1.07,42.2,2.13,62.94-1.44,2.17-.37,4.4-.83,6.2-2.13,3.15-2.27,4.24-6.5,5.05-10.39,5.25-25.02,8.53-50.85,5.2-76.22ZM552.16,413.91l6.29-3.57-4.23,3.38c-.69-.06-1.39.01-2.06.18Z"/>
      <g>
        <path class="cls-19" d="M610.61,372.11c.17.55.1,1.23.17,1.8.08.61.16,1.21.37,1.79.46,1.3.98,2.66,2.26,3.28,1.09.52,2.21-.22,2.47-1.35.36-1.55-.68-3.06-1.69-4.12-.42-.44-.9-.75-1.43-1.05-.56-.32-1.2-.41-1.75-.74-.24-.14-.49.16-.41.39h0Z"/>
        <path class="cls-19" d="M618.33,371.39c-.36.83-1.05,1.46-1.4,2.32-.38.91-.61,1.9-.55,2.89.04.71.51,1.35,1.12,1.65.51.24.93.23,1.46.06.67-.21,1.12-.87,1.25-1.55.19-.96.05-1.98-.21-2.92-.24-.87-.81-1.58-1.06-2.43-.08-.29-.5-.29-.61-.03h0Z"/>
        <path class="cls-19" d="M611.48,394.43c.16.31.23.67.44.97.32.46.83.85,1.25,1.22,1.04.92,2.27,1.09,3.57.78.69-.17,1.19-1.24.87-1.9-.71-1.47-1.82-2.23-3.4-2.28-.53-.02-1.11-.09-1.63.08-.1.05-.21.11-.31.16.16-.06.11-.05-.15.02-.15.08-.29.23-.43.29-.26.13-.34.4-.2.66h0Z"/>
        <path class="cls-19" d="M633.92,363.56c1.72,1.74,2.56,6.4,5.73,5.89.97-.16,1.82-.84,1.98-1.89.35-2.21-1.49-3.36-3.2-4.12-1.41-.63-2.75-.36-4.22-.55-.38-.05-.56.41-.3.67h0Z"/>
        <path class="cls-19" d="M638.35,395.25c.04.42-.5,1.55-.64,2.02-.22.77-.39,1.39-.42,2.2-.05,1.76.36,3.16,1.22,4.67,1.36,2.39,4.36.59,4.41-1.64.03-1.67-.43-3.23-1.35-4.62-.39-.59-.89-1.07-1.4-1.54-.41-.38-1.08-.67-1.3-1.2-.12-.28-.56-.21-.53.12h0Z"/>
        <path class="cls-19" d="M646.29,395.98c-.88.13-1.5,1.01-1.87,1.79-.56,1.17-.87,2.51-.35,3.75.45,1.09,1.66,1.26,2.45.45.99-1.01,1.18-2.63.96-4-.08-.48-.43-2.1-1.18-1.99h0Z"/>
        <path class="cls-19" d="M597.86,381.98c.19.43.04.94.08,1.4.05.56.22,1.12.44,1.64.54,1.27,1.55,2.4,2.96,2.5.62.04,1.43-.2,1.65-.9.49-1.54.05-3.03-1.19-4.06-.49-.41-1.05-.73-1.65-.92-.52-.17-1.16-.03-1.64-.27-.35-.17-.83.22-.65.62h0Z"/>
        <path class="cls-19" d="M605.79,381.07c-1.11,1.31-2.35,3.51-1.49,5.25.34.69,1.4,1.19,1.94.36,1.01-1.57.59-3.58.33-5.35-.06-.39-.52-.57-.78-.26h0Z"/>
        <path class="cls-19" d="M595.93,390.53c.31.07.61.4.87.58.33.24.66.48,1.02.67.92.47,1.73.49,2.66.07.9-.4,1.27-1.46.73-2.33-.69-1.12-1.76-1.57-3.02-1.3-.47.1-.87.26-1.29.51-.39.23-.67.64-1.06.84-.42.22-.42.84.08.96h0Z"/>
        <path class="cls-19" d="M643.87,375.42c.93.26,1.39.93,2.09,1.51.84.7,1.67.86,2.72.77,1.1-.09,1.74-1.46,1.09-2.4-.74-1.07-1.7-1.63-3-1.51-.97.09-1.89.57-2.87.71-.52.07-.52.78-.04.91h0Z"/>
        <path class="cls-24" d="M629.11,370.99c-.53,1.87-1.81,4.36-.37,6.11,1.04,1.27,2.93,1.28,3.7-.33,1.14-2.42-1.02-4.61-2.68-6.02-.25-.21-.56-.05-.64.24h0Z"/>
        <path class="cls-24" d="M636.3,372.84c-.61.24-1.15.76-1.49,1.33-.16.26-.36.54-.48.82-.19.42-.22.92-.3,1.36-.28,1.5,1.82,2.64,2.73,1.31.25-.37.55-.76.72-1.18.19-.46.23-1.07.21-1.57-.02-.72-.29-1.46-.81-1.96-.15-.14-.39-.18-.58-.11h0Z"/>
        <path class="cls-24" d="M601.86,397.83c.02.95-.04,1.89-.05,2.84-.01.93.26,1.62.67,2.42.37.72,1.67.44,1.7-.39.04-.91,0-1.65-.39-2.48-.4-.86-.86-1.68-1.23-2.55-.16-.39-.71-.27-.69.16h0Z"/>
      </g>
    </g>
    <g>
      <path class="cls-25" d="M588.04,373.34c.12-.1.24-.2.36-.3-.03-.26-.35.03-.36.3Z"/>
      <path class="cls-25" d="M621.01,406.85c3.84-1.44,6.16-5.51,7.46-9.52-3.27,3.05-8.63,2.51-11.96,5.48,1.76-2.36,3.36-4.86,4.76-7.47-1.39-1.02-3.35-.36-4.74.65-1.33.96-2.45,2.23-3.27,3.67.55-1.45.78-3.03.65-4.58-.15-1.75-.74-3.44-.88-5.19-.14-1.75.3-3.73,1.71-4.7-2.27.17-4.3,1.65-5.72,3.49-.76.99-1.37,2.09-1.91,3.23,0-.1,0-.19.01-.29.05-2.9-.79-5.72-1.65-8.48-2.3,1.68-4.25,3.99-5.11,6.76-.86,2.77-.5,6.03,1.31,8.26-1.54-.53-3.02-1.27-4.36-2.21-.16-.11-.32-.23-.42-.4-.35-.58.18-1.29.63-1.78,2.9-3.15,4.21-7.79,3.42-12.06-1.75,1.78-3.53,3.59-4.7,5.83-1.17,2.23-1.67,4.98-.73,7.33-1.3-.89-2.61-1.78-3.91-2.67-.31-.21-.63-.43-.79-.78-.43-.93.52-1.86,1.29-2.52,3.34-2.87,4.94-7.74,3.98-12.12-2.16,1.79-4.36,3.62-5.87,6.01-1.51,2.4-2.24,5.5-1.22,8.16-1.19-1.42-2.21-2.99-3.05-4.67-.15-.3-.3-.62-.29-.96.01-.4.24-.75.47-1.07,1.26-1.7,3.06-3.23,3.24-5.37.16-1.89-1.02-3.62-1.32-5.5,0-.02,0-.04,0-.06-1.71,1.39-3.21,3.1-4.07,5.16-.92,2.21-1.04,4.84.04,6.97-1.24-1.08-1.85-2.89-1.52-4.53.22-1.09.8-2.07,1-3.16.41-2.18-.76-4.31-1.88-6.2-1.81,2.44-2.3,5.86-1.24,8.73-.93-1.03-.79-2.52-1.28-3.78-.48-1.26-1.18-2.44-2.03-3.47-.86-1.03-1.88-1.92-3.01-2.6-.32-.19-3.35-1.3-3.36-1.35.89,4.86,4.19,9.18,8.56,11.19-2.59-1.37-5.42-2.26-8.31-2.61-.41,2.08,1.04,4.36,3.05,4.77,1.06.22,2.15-.02,3.23-.01,2.26.01,4.49,1.17,5.84,3.04-3.35-2.36-8.19-2.15-11.34.5,2.44,2.98,7.03,3.02,10.46,1.36.53-.25,1.1-.55,1.66-.4.41.11.73.43,1.03.74,1.07,1.12,2.14,2.24,3.22,3.35-2.02-1.15-4.55-.95-6.69-.05-2.13.9-3.95,2.43-5.74,3.94,3.26,1.81,7.38,1.83,10.66.05.8-.44,1.6-.98,2.5-1.02.61-.02,1.21.19,1.78.41,1.36.51,2.72,1.02,4.09,1.53-2.28-.31-4.72-.6-6.8.41-1.26.61-2.28,1.65-3.27,2.67-1.37,1.41-2.73,2.82-4.1,4.23,4.21.04,8.92-.12,11.87-3.24.5-.53.95-1.14,1.61-1.42.65-.28,1.38-.18,2.08-.06,1.7.3,3.38.72,5.02,1.26-2.84-.55-5.79.63-8.07,2.47-2.28,1.85-3.99,4.31-5.68,6.74,4.12.49,8.36-.5,11.93-2.67-2.23,2.06-4.04,4.47-4.43,7.46,6.8-1.37,13.41-3.76,19.55-7.09-1.77,1.22-3.46,2.56-5.06,4.01,3.75.18,7.54-.6,10.93-2.25l14.88,3.16c-3.21-4.33-9.09-6.31-14.14-4.76ZM603.7,399.22c.41-.3.78-.64,1.11-1.02-.05.42-.07.85-.03,1.28-.36-.09-.72-.17-1.09-.26Z"/>
    </g>
  </g>
  <g class="cls-38">
    <g class="cls-45">
      <path class="cls-11" d="M24.14,316.49c-4.38,4.43-8.21,9.45-11.35,14.9,3.01-6.43,5.61-13.07,7.78-19.86-3.43,5.97-6.55,12.13-9.34,18.45,2.39-5.9,4.79-11.81,7.18-17.71-2.99,2.36-4.84,5.96-6.11,9.62-1.02,2.95-1.73,6.01-2.68,8.98,1.41-4.46,2.16-9.13,2.22-13.82-1.95,4.99-3.66,10.07-5.15,15.23,1.02-3.9,1.96-7.82,2.82-11.76-4.3,5.89-6,13.34-6.62,20.74.06-2.69-.3-5.39-1.08-7.96,0,5.24-.45,10.49-1.38,15.64l4.93,3.88c2.48-.6,4.84-1.74,6.87-3.34-1.75.73-3.59,1.21-5.47,1.42,4.02-3.6,9.78-5.12,12.84-9.63-2.55.72-5.05,1.63-7.47,2.74,3.11-2,6.11-4.18,8.98-6.53.72-.59,1.51-1.39,1.33-2.32-2.73.15-5.43.87-7.9,2.09,3.71-3.31,7.42-6.61,11.13-9.92-.8-.9-2.21-.62-3.31-.2-2.71,1.05-5.23,2.62-7.41,4.59,4.34-4.07,7.56-9.42,9.17-15.24ZM9.49,331.27c-.07.21-.14.41-.21.62.07-.21.14-.41.21-.62Z"/>
      <g>
        <path class="cls-26" d="M1.28,353.19c.19-.32.24-.79.46-1.12.29-.48.57-.96.77-1.48.85-2.21,1.81-4.37,2.9-6.45.52-1.04,1.27-1.95,1.82-2.97.93-1.7,1.8-3.43,2.64-5.17.56-1.16.97-2.39,1.52-3.55.89-1.87,1.83-3.73,2.94-5.49.86-1.37,1.84-2.68,2.72-4.05.12-.19.22-.39.35-.58.07-.12.16-.24.24-.34.05-.07.1-.14.1-.14,0,0-.06.13-.09.22-.02.07-.07.16-.1.24-.59,1.38-1.31,2.68-2.02,4-.46.85-.81,1.76-1.23,2.63-.21.44-.54.83-.75,1.27-.49,1.08-.9,2.21-1.36,3.31-.09.21-.34.33-.43.54-.59,1.42-1.09,2.88-1.74,4.27-.54,1.15-1.25,2.2-1.89,3.3l-1.99,3.37c-.62,1.03-1.27,2.05-1.86,3.1-.28.5-.46,1.06-.74,1.57-.41.75-.86,1.48-1.34,2.2-.19.29-.39.58-.6.87-.09.13-.19.25-.33.45Z"/>
        <path class="cls-26" d="M6.11,344.64c.02-.33-.16-.73-.13-1.09.02-.51.04-1.02-.01-1.53-.28-2.15-.33-4.32-.17-6.47.05-1.06.4-2.1.52-3.15.23-1.76.45-3.51.68-5.27.15-1.16.16-2.36.37-3.52.3-1.88.74-3.75,1.4-5.54.53-1.39,1.2-2.73,1.8-4.08.08-.19.15-.39.24-.57.05-.11.11-.24.17-.34.04-.07.07-.14.07-.14,0,0-.03.13-.05.21-.01.07-.04.15-.05.23-.32,1.33-.77,2.61-1.16,3.91-.26.84-.39,1.72-.57,2.58-.09.44-.32.84-.39,1.28-.19,1.07-.27,2.15-.38,3.23-.02.2-.23.37-.25.58-.13,1.39-.13,2.79-.27,4.17-.12,1.14-.4,2.25-.58,3.39-.18,1.16-.36,2.33-.51,3.51-.15,1.08-.31,2.17-.38,3.26-.03.52.05,1.05.03,1.57-.02.78-.1,1.55-.17,2.34-.03.32-.07.64-.12.95-.02.14-.05.28-.07.5Z"/>
        <path class="cls-26" d="M5.27,346.13c-.04-.14-.27-.21-.31-.36-.07-.21-.14-.41-.28-.57-.66-.68-1.15-1.47-1.51-2.3-.19-.41-.14-.91-.28-1.33-.23-.71-.51-1.4-.81-2.09-.2-.46-.55-.87-.73-1.34-.3-.75-.53-1.53-.56-2.35-.03-.64.13-1.31.12-1.93,0-.09-.02-.17,0-.26,0-.05.01-.11.02-.16.01-.03.01-.07.01-.07,0,0,.02.05.04.09.02.02.03.06.04.09.22.54.3,1.1.41,1.66.06.36.26.7.39,1.04.06.18,0,.39.07.56.19.42.46.81.69,1.21.04.08-.1.21-.05.28.3.52.71.99.95,1.51.2.43.24.92.36,1.39l.37,1.44c.11.45.2.9.36,1.34.08.21.27.36.34.57.12.3.2.63.28.95.04.13.06.27.07.41,0,.06,0,.13.03.22Z"/>
        <path class="cls-26" d="M7.66,342.17c.03-.31-.12-.68-.08-1.01.05-.47.09-.93.06-1.4-.19-1.98-.16-3.97.06-5.94.08-.97.46-1.91.61-2.87.26-1.61.51-3.21.77-4.82.17-1.07.18-2.17.39-3.23.31-1.72.74-3.43,1.38-5.06.51-1.27,1.16-2.49,1.73-3.72.08-.17.14-.35.22-.52.05-.1.11-.22.16-.31.04-.06.07-.13.07-.12,0,0-.03.11-.04.2,0,.06-.03.14-.05.21-.29,1.22-.72,2.39-1.1,3.58-.25.77-.37,1.58-.54,2.37-.09.4-.32.76-.39,1.17-.18.98-.27,1.98-.39,2.96-.02.19-.23.34-.25.52-.14,1.28-.16,2.57-.32,3.83-.14,1.04-.43,2.06-.65,3.09l-.6,3.2c-.18.99-.38,1.97-.49,2.97-.05.48.01.96-.03,1.44-.05.71-.16,1.42-.27,2.13-.04.29-.1.58-.16.87-.03.13-.06.26-.09.46Z"/>
        <path class="cls-26" d="M9.75,337.8c.05-.25-.1-.57-.04-.84.07-.39.13-.77.11-1.16-.11-1.67-.03-3.33.23-4.96.1-.81.48-1.57.65-2.36.29-1.33.53-2.66.77-4,.16-.89.17-1.81.36-2.7.29-1.43.68-2.85,1.26-4.2.47-1.04,1.07-2.04,1.58-3.05.07-.14.12-.29.2-.43.04-.09.1-.18.15-.25.04-.05.06-.11.06-.1,0,0-.03.1-.04.16,0,.05-.03.12-.04.18-.24,1.02-.61,1.99-.95,2.98-.22.64-.32,1.31-.47,1.97-.08.33-.29.63-.36.96-.16.82-.23,1.65-.33,2.48-.02.16-.22.27-.24.43-.13,1.07-.14,2.15-.3,3.2-.14.87-.44,1.7-.66,2.55l-.65,2.64c-.2.81-.42,1.63-.56,2.45-.06.4-.02.81-.08,1.2-.08.59-.21,1.18-.35,1.76-.05.24-.12.48-.2.71-.03.11-.07.21-.11.37Z"/>
        <path class="cls-26" d="M6.37,343.88c.18-.08.3-.34.5-.41.28-.11.56-.2.81-.37,1.06-.74,2.22-1.21,3.33-1.68.54-.24,1.19-.27,1.74-.51.92-.41,1.8-.93,2.62-1.52.55-.39.98-.94,1.48-1.36.82-.7,1.62-1.39,2.51-1.99.7-.46,1.47-.88,2.15-1.41.09-.08.17-.16.27-.24.06-.04.13-.09.18-.12.04-.02.08-.05.08-.05,0,0-.05.06-.07.11-.02.04-.05.08-.08.12-.43.68-1.01,1.22-1.59,1.75-.38.34-.68.77-1.05,1.13-.18.19-.46.26-.64.45-.44.46-.85.96-1.31,1.41-.09.09-.28.02-.37.11-.6.57-1.16,1.23-1.85,1.69-.57.39-1.25.59-1.88.83-.66.25-1.33.48-2.01.66-.63.17-1.27.28-1.87.46-.29.08-.54.28-.83.37-.42.14-.85.25-1.29.36-.18.05-.36.09-.54.13-.08.02-.17.03-.29.08Z"/>
        <path class="cls-26" d="M8.22,339.97c.21-.08.37-.35.59-.43.31-.12.63-.25.89-.47,1.12-.91,2.23-1.77,3.38-2.56.56-.4,1.25-.63,1.82-1.02.93-.69,1.82-1.44,2.62-2.28.53-.55.95-1.23,1.44-1.81.81-.93,1.6-1.87,2.5-2.72.7-.66,1.5-1.27,2.16-1.99.09-.1.17-.21.27-.31.06-.06.13-.12.18-.17.04-.03.08-.07.08-.07,0,0-.04.07-.06.13-.02.04-.05.09-.07.14-.41.81-.98,1.52-1.55,2.22-.38.45-.65.98-1.01,1.44-.18.24-.46.39-.64.63-.42.58-.81,1.21-1.25,1.8-.08.11-.3.09-.38.2-.57.75-1.1,1.56-1.77,2.22-.56.55-1.25.93-1.9,1.36-.68.43-1.35.86-2.06,1.24-.65.36-1.32.66-1.96,1-.31.16-.56.44-.87.59-.47.23-.94.45-1.45.6-.2.07-.41.12-.62.17-.09.02-.19.04-.33.08Z"/>
        <path class="cls-26" d="M10.34,335.54c.22-.18.36-.53.6-.71.34-.27.67-.54.93-.89,1.1-1.46,2.21-2.88,3.36-4.26.56-.68,1.29-1.24,1.86-1.92.93-1.16,1.8-2.37,2.6-3.63.53-.84.91-1.77,1.42-2.61.81-1.37,1.65-2.73,2.63-4,.77-.98,1.64-1.91,2.42-2.89.11-.14.2-.29.31-.42.07-.08.14-.17.21-.24.05-.05.09-.1.09-.1,0,0-.05.1-.08.17-.02.05-.06.12-.09.18-.5,1.05-1.14,2.01-1.76,2.98-.41.62-.71,1.32-1.08,1.97-.19.33-.49.59-.67.92-.43.81-.81,1.66-1.23,2.49-.08.16-.32.21-.4.37-.55,1.06-1.03,2.17-1.68,3.17-.54.83-1.24,1.54-1.89,2.28-.68.76-1.36,1.51-2.07,2.23-.66.67-1.36,1.29-2.02,1.95-.32.31-.55.71-.88,1.02-.49.45-.99.9-1.54,1.28-.22.16-.45.31-.68.45-.1.06-.21.12-.36.23Z"/>
        <path class="cls-26" d="M5.56,345.16c.17.02.36-.16.55-.13.26.02.51.04.76-.03,1.07-.32,2.13-.51,3.19-.6.52-.06,1.06.12,1.59.07.88-.08,1.74-.25,2.58-.51.56-.17,1.06-.52,1.58-.73.85-.36,1.68-.71,2.56-.98.69-.2,1.44-.35,2.12-.66.1-.04.18-.11.27-.15.06-.03.12-.05.18-.07.04-.01.07-.03.07-.03,0,0-.05.04-.07.08-.02.03-.05.06-.08.09-.48.51-1.09.86-1.7,1.17-.4.2-.75.5-1.15.72-.2.11-.46.09-.66.2-.48.27-.96.6-1.46.86-.1.05-.25-.08-.34-.03-.65.33-1.3.72-2,.92-.58.16-1.19.12-1.79.13-.61.01-1.22.02-1.83-.01-.56-.02-1.12-.1-1.67-.1-.27,0-.53.11-.79.11-.39,0-.79-.04-1.18-.12-.16-.02-.32-.07-.48-.11-.07-.02-.14-.05-.25-.07Z"/>
      </g>
    </g>
    <g>
      <path class="cls-8" d="M-22.68,407.27c.81,3.88,1.9,8.12,5.05,10.39,1.8,1.3,4.03,1.75,6.2,2.13,20.74,3.57,41.94,2.51,62.94,1.44,9.73-.5,19.47-.99,29.2-1.49,5.06-.26,10.69-.79,14.05-4.7-.51-.4-1.09-.7-1.69-.93-1.05-2.8-3.91-4.77-6.81-4.67,1.93-.49,3.86-.98,5.78-1.46-2.66-2.29-6.48-3.05-9.77-1.93,3.27-1.75,6.09-4.41,8.07-7.63-3.26-2.05-7.74-1.78-10.75.64,1.55-2.71,2.96-5.51,4.23-8.37-3.23-.33-6.57,1.17-8.55,3.84.26-4.36-1.8-8.78-5.24-11.3-1.36,2.4-1.78,5.36-1.14,8.06-1.52-1.5-3.55-2.43-5.64-2.58-.43-.03-.9-.02-1.25.24-.48.36-.55,1.03-.49,1.67l-2.74-2.2c-.8-.88-1.74-1.64-2.77-2.21l-.35-.28c2.29-2.16,4.82-4.04,7.52-5.6-2.08-2.03-4.96-3.14-7.82-3.02,1.43-1.96,2.89-3.96,3.68-6.28.79-2.32.81-5.05-.51-7.09-3.3,1.32-6.28,3.53-8.54,6.35,2.12-4.51,1.11-10.37-2.38-13.85-2.47,2.82-3.82,6.65-3.69,10.45-.64-3.8-3.28-7.18-6.74-8.61-.45,3.55-.01,7.22,1.25,10.55-1.46-2.02-3.59-3.52-5.94-4.18-.58-.16-1.3-.24-1.69.24-.1.12-.16.27-.2.42-.63-.42-1.28-.82-1.94-1.2l1.9,1.33c-.02.13-.03.26-.03.4l-2.77-2.22c.3.16.6.32.9.49l-2.19-1.53-.29-.23c1.92-.49,3.83-.99,5.75-1.48-2.82-4.1-8.23-5.01-13.06-5.59,2.14-1.77,4.46-3.3,6.92-4.55-3.88-3.18-9.85-3.22-13.77-.1,1.75-2.85,2.37-6.42,1.67-9.72-.21-1.01-.78-2.19-1.78-2.21-.56-.01-1.05.35-1.48.72-1.85,1.57-3.43,3.47-4.65,5.59.3-1.43.22-2.94-.23-4.32-.25-.78-.92-1.66-1.66-1.36-.31.12-.52.43-.7.73-.49.82-.89,1.69-1.22,2.59-1.09-.48-2.29-.65-3.46-.44,1.23-2.15,2.19-4.47,2.84-6.87-2.68-.99-5.78-.7-8.24.79,1.41-2.97.6-6.9-1.87-9.01-1.67,1.92-2.78,4.35-3.17,6.9-.53-2.68-2-5.15-4.07-6.84-.44-.36-.94-.7-1.5-.74-1.16-.1-2.11,1.14-2.18,2.35s.47,2.35,1,3.43c-1.26-1.02-2.04-2.54-3.15-3.72-1.11-1.19-2.9-2.03-4.29-1.22-1.24.72-1.57,2.37-1.77,3.83-3.33,25.37-.05,51.2,5.2,76.22ZM90.4,413.73l-4.23-3.38,6.29,3.57c-.67-.17-1.37-.24-2.06-.18Z"/>
      <g>
        <path class="cls-19" d="M34.01,372.11c-.17.55-.1,1.23-.17,1.8-.08.61-.16,1.21-.37,1.79-.46,1.3-.98,2.66-2.26,3.28-1.09.52-2.21-.22-2.47-1.35-.36-1.55.68-3.06,1.69-4.12.42-.44.9-.75,1.43-1.05.56-.32,1.2-.41,1.75-.74.24-.14.49.16.41.39h0Z"/>
        <path class="cls-19" d="M26.29,371.39c.36.83,1.05,1.46,1.4,2.32.38.91.61,1.9.55,2.89-.04.71-.51,1.35-1.12,1.65-.51.24-.93.23-1.46.06-.67-.21-1.12-.87-1.25-1.55-.19-.96-.05-1.98.21-2.92.24-.87.81-1.58,1.06-2.43.08-.29.5-.29.61-.03h0Z"/>
        <path class="cls-19" d="M33.14,394.43c-.16.31-.23.67-.44.97-.32.46-.83.85-1.25,1.22-1.04.92-2.27,1.09-3.57.78-.69-.17-1.19-1.24-.87-1.9.71-1.47,1.82-2.23,3.4-2.28.53-.02,1.11-.09,1.63.08.1.05.21.11.31.16-.16-.06-.11-.05.15.02.15.08.29.23.43.29.26.13.34.4.2.66h0Z"/>
        <path class="cls-19" d="M10.71,363.56c-1.72,1.74-2.56,6.4-5.73,5.89-.97-.16-1.82-.84-1.98-1.89-.35-2.21,1.49-3.36,3.2-4.12,1.41-.63,2.75-.36,4.22-.55.38-.05.56.41.3.67h0Z"/>
        <path class="cls-19" d="M6.27,395.25c-.04.42.5,1.55.64,2.02.22.77.39,1.39.42,2.2.05,1.76-.36,3.16-1.22,4.67-1.36,2.39-4.36.59-4.41-1.64-.03-1.67.43-3.23,1.35-4.62.39-.59.89-1.07,1.4-1.54.41-.38,1.08-.67,1.3-1.2.12-.28.56-.21.53.12h0Z"/>
        <path class="cls-19" d="M-1.66,395.98c.88.13,1.5,1.01,1.87,1.79.56,1.17.87,2.51.35,3.75-.45,1.09-1.66,1.26-2.45.45-.99-1.01-1.18-2.63-.96-4,.08-.48.43-2.1,1.18-1.99h0Z"/>
        <path class="cls-19" d="M46.77,381.98c-.19.43-.04.94-.08,1.4-.05.56-.22,1.12-.44,1.64-.54,1.27-1.55,2.4-2.96,2.5-.62.04-1.43-.2-1.65-.9-.49-1.54-.05-3.03,1.19-4.06.49-.41,1.05-.73,1.65-.92.52-.17,1.16-.03,1.64-.27.35-.17.83.22.65.62h0Z"/>
        <path class="cls-19" d="M38.83,381.07c1.11,1.31,2.35,3.51,1.49,5.25-.34.69-1.4,1.19-1.94.36-1.01-1.57-.59-3.58-.33-5.35.06-.39.52-.57.78-.26h0Z"/>
        <path class="cls-19" d="M48.7,390.53c-.31.07-.61.4-.87.58-.33.24-.66.48-1.02.67-.92.47-1.73.49-2.66.07-.9-.4-1.27-1.46-.73-2.33.69-1.12,1.76-1.57,3.02-1.3.47.1.87.26,1.29.51.39.23.67.64,1.06.84.42.22.42.84-.08.96h0Z"/>
        <path class="cls-19" d="M.76,375.42c-.93.26-1.39.93-2.09,1.51-.84.7-1.67.86-2.72.77-1.1-.09-1.74-1.46-1.09-2.4.74-1.07,1.7-1.63,3-1.51.97.09,1.89.57,2.87.71.52.07.52.78.04.91h0Z"/>
        <path class="cls-24" d="M15.52,370.99c.53,1.87,1.81,4.36.37,6.11-1.04,1.27-2.93,1.28-3.7-.33-1.14-2.42,1.02-4.61,2.68-6.02.25-.21.56-.05.64.24h0Z"/>
        <path class="cls-24" d="M8.33,372.85c.61.24,1.15.76,1.49,1.33.16.26.36.54.48.82.19.42.22.92.3,1.36.28,1.5-1.82,2.64-2.73,1.31-.25-.37-.55-.76-.72-1.18-.19-.46-.23-1.07-.21-1.57.02-.72.29-1.46.81-1.96.15-.14.39-.18.58-.11h0Z"/>
        <path class="cls-24" d="M42.76,397.83c-.02.95.04,1.89.05,2.84.01.93-.26,1.62-.67,2.42-.37.72-1.67.44-1.7-.39-.04-.91,0-1.65.39-2.48.4-.86.86-1.68,1.23-2.55.16-.39.71-.27.69.16h0Z"/>
      </g>
    </g>
    <g>
      <path class="cls-23" d="M56.59,373.34c-.12-.1-.24-.2-.36-.3.03-.26.35.03.36.3Z"/>
      <path class="cls-23" d="M9.47,411.62l14.88-3.16c3.39,1.65,7.18,2.43,10.93,2.25-1.6-1.45-3.29-2.79-5.06-4.01,6.14,3.33,12.75,5.73,19.55,7.09-.38-3-2.2-5.41-4.43-7.46,3.57,2.16,7.81,3.15,11.93,2.67-1.69-2.43-3.4-4.89-5.68-6.74-2.28-1.85-5.22-3.02-8.07-2.47,1.64-.54,3.32-.97,5.02-1.26.69-.12,1.43-.22,2.08.06.66.28,1.11.9,1.61,1.42,2.95,3.11,7.66,3.28,11.87,3.24-1.37-1.41-2.73-2.82-4.1-4.23-.99-1.02-2-2.06-3.27-2.67-2.09-1.01-4.52-.72-6.8-.41,1.36-.51,2.72-1.02,4.09-1.53.58-.22,1.17-.43,1.78-.41.9.03,1.7.58,2.5,1.02,3.27,1.78,7.4,1.76,10.66-.05-1.79-1.51-3.61-3.04-5.74-3.94-2.13-.9-4.67-1.1-6.69.05,1.07-1.12,2.14-2.24,3.22-3.35.3-.31.62-.63,1.03-.74.56-.15,1.13.15,1.66.4,3.42,1.65,8.01,1.62,10.46-1.36-3.14-2.65-7.99-2.87-11.34-.5,1.35-1.87,3.58-3.03,5.84-3.04,1.08,0,2.17.23,3.23.01,2.01-.42,3.47-2.7,3.05-4.77-2.89.35-5.72,1.24-8.31,2.61,4.37-2.01,7.67-6.33,8.56-11.19,0,.05-3.04,1.15-3.36,1.35-1.13.69-2.15,1.58-3.01,2.6-.86,1.03-1.55,2.2-2.03,3.47-.48,1.27-.34,2.76-1.28,3.78,1.06-2.87.57-6.3-1.24-8.73-1.12,1.89-2.28,4.02-1.88,6.2.2,1.09.79,2.07,1,3.16.33,1.64-.28,3.45-1.52,4.53,1.08-2.13.96-4.77.04-6.97-.86-2.06-2.36-3.77-4.07-5.16,0,.02,0,.04,0,.06-.3,1.88-1.48,3.6-1.32,5.5.18,2.14,1.98,3.66,3.24,5.37.23.32.46.67.47,1.07.01.34-.14.66-.29.96-.83,1.67-1.86,3.24-3.05,4.67,1.02-2.66.29-5.77-1.22-8.16-1.51-2.4-3.71-4.23-5.87-6.01-.96,4.38.64,9.25,3.98,12.12.77.66,1.72,1.59,1.29,2.52-.16.34-.48.57-.79.78-1.3.89-2.61,1.78-3.91,2.67.94-2.35.44-5.1-.73-7.33-1.17-2.23-2.95-4.05-4.7-5.83-.79,4.28.53,8.91,3.42,12.06.46.5.99,1.2.63,1.78-.1.17-.26.29-.42.4-1.35.94-2.82,1.68-4.36,2.21,1.81-2.23,2.17-5.48,1.31-8.26-.86-2.77-2.81-5.08-5.11-6.76-.86,2.76-1.7,5.58-1.65,8.48,0,.1,0,.19.01.29-.54-1.14-1.15-2.24-1.91-3.23-1.42-1.85-3.45-3.32-5.72-3.49,1.41.98,1.85,2.95,1.71,4.7-.14,1.75-.73,3.44-.88,5.19-.13,1.55.1,3.13.65,4.58-.83-1.44-1.95-2.71-3.27-3.67-1.39-1.01-3.35-1.67-4.74-.65,1.4,2.61,2.99,5.11,4.76,7.47-3.33-2.97-8.69-2.44-11.96-5.48,1.3,4.01,3.62,8.07,7.46,9.52-5.05-1.54-10.93.44-14.14,4.76ZM39.84,399.48c.04-.43.03-.85-.03-1.28.33.38.7.72,1.11,1.02-.36.09-.72.17-1.09.26Z"/>
    </g>
  </g>
  <path class="cls-14" d="M422.27,209.58s.27-3.1-3.34-8.83l3.35,6.68s0-12.86-1.67-14.27c0,0,3.74,9.23,3.74,12.51v-12.51s4.52,8.41,4.52,12.51c0,0,0-11.46,1.81-11.46,0,0-.9,9.01.9,11.46,0,0,2.74-3.45,3.18-7.87,0,0,.55,6.38-1.31,9.17l4.46-7.85-1.62,10.33-14,.14Z"/>
  <g>
    <path class="cls-16" d="M510.99,116.25s-8.65-23.2-19.29,2.21v7.3s-9.31,3.01-8.65,11.85l-.03,13.55s-7.95-2.5-10.28,10.76c0,0,0,19.15,2.33,22.83,0,0-7.98.37-6.32,10.68,0,0,13.64,32.77,28.94,49.71h10.02s32.89-40.13,29.9-64.44c0,0,1.33-9.21-7.98-11.78,0,0,7.32-19.15-4.66-18.78,0,0,2-25.04-2-27.62,0,0-4.66-8.47-11.97-6.26Z"/>
    <path class="cls-7" d="M507.33,139.45l-4.18,29.84-4.14-21.38s-1.66,23.57,2.66,30.19c0,0-3.66,18.78-1.33,21.36,0,0-12.48-24.67-12.56-30.01,0,0,1.58,22.28,12.23,38.85l-1,17.31s-9.98-28.72-17.96-27.62c0,0,14.64,21.36,17.63,38.66,0,0-1.66,33.51-5.99,34.98,0,0,15.12-1.84,18.54,0l-4.23-36.82,17.96-33.51-17.63,25.41-.67-15.46,10.98-22.83-11.71,17.12.4-14.91s9.98-25.04,9.65-30.56c0,0-6.65,20.99-9.98,21.72,0,0,4.66-40.13,1.33-42.34Z"/>
    <path class="cls-21" d="M490.7,146.44s-3.66-.74-2.66-4.79c0,0,2.99-2.21,2.66,4.79Z"/>
    <path class="cls-21" d="M526.92,161.88s2.19,3.16-4.14,3.26c0,0,.42-4.09,4.14-3.26"/>
    <path class="cls-21" d="M507.46,129.81s4.69-1.62,1.4,7.77c0,0-4.32-2.71-1.4-7.77"/>
    <path class="cls-21" d="M492.85,171.29s3.9-3.31,3.47,7.18c0,0-4.77-1.1-3.47-7.18"/>
    <path class="cls-21" d="M477.5,189.54s2.99-2.21,2.66,4.79c0,0-3.66-.74-2.66-4.79"/>
    <path class="cls-21" d="M522.98,180.75s3.05,2.11-2.85,4.65c0,0-.9-3.99,2.85-4.65"/>
    <path class="cls-21" d="M517.58,176.94s2.23,3.12-4.09,3.32c0,0,.37-4.1,4.09-3.32"/>
    <path class="cls-21" d="M478.5,165.61s2.99-2.21,2.66,4.79c0,0-3.66-.74-2.66-4.79"/>
    <path class="cls-21" d="M509.75,188.19s3.53-.78.81,5.55c0,0-3.13-2.23-.81-5.55"/>
    <path class="cls-21" d="M498.58,123.75s2.99-2.21,2.66,4.79c0,0-3.66-.74-2.66-4.79"/>
    <path class="cls-21" d="M521.05,195.51s2.19,3.16-4.14,3.26c0,0,.42-4.09,4.14-3.26"/>
    <path class="cls-21" d="M518.72,126.29s2.19,3.16-4.14,3.26c0,0,.42-4.09,4.14-3.26"/>
  </g>
  <g>
    <g>
      <polygon class="cls-13" points="254.12 149.72 308.4 104.56 235.71 127.72 254.12 149.72"/>
      <polygon class="cls-13" points="284.17 105.72 235.71 127.72 308.4 104.56 284.17 105.72"/>
      <polygon class="cls-13" points="351.05 98.77 308.4 104.56 387.85 118.37 351.05 98.77"/>
      <polygon class="cls-13" points="468.33 237.71 453.79 167.08 418.89 168.24 468.33 237.71"/>
      <polygon class="cls-13" points="395.63 233.08 418.89 168.24 468.33 237.71 395.63 233.08"/>
      <polygon class="cls-13" points="344.26 149.37 418.89 168.24 395.63 233.08 344.26 149.37"/>
      <polygon class="cls-13" points="290.96 228.45 344.26 149.37 253.16 153.19 290.96 228.45"/>
      <polygon class="cls-13" points="195.97 178.66 202.75 240.03 165.92 240.03 195.97 178.66"/>
      <g>
        <path class="cls-35" d="M244.28,187.56s-4.89-15.96,3.91-20.9c0,0-2.55,1.95-.46,6.23,0,0,1.68.06,2.2,2.38,0,0,4.69-9.03,13.89-8.61,0,0-5.44,3.66-6.08,8.42,0,0,1.79,1.77.46,4.33,0,0,1.97,1.95.87,3.3,0,0,4.46,3.6-3.7,6.1,0,0,.93.12,1.39,3.66,0,0,.35.79,1.16.49,0,0-1.5,3.72.06,5.07,0,0,5.67,5,5.09,7.26,0,0-.06-.98-10.82-6.1,0,0-5.9-4.21-6.6-6.35l-1.36-5.28Z"/>
        <ellipse class="cls-18" cx="255.83" cy="172.24" rx="2.41" ry="1.13" transform="translate(-44.15 243.85) rotate(-47.38)"/>
        <ellipse class="cls-18" cx="255.45" cy="198.62" rx="1.14" ry="2.39" transform="translate(-59.43 273.12) rotate(-51.18)"/>
        <ellipse class="cls-27" cx="255.1" cy="193.85" rx=".74" ry="1.45" transform="translate(-56.08 270.13) rotate(-51)"/>
        <ellipse class="cls-27" cx="256.38" cy="177.44" rx="1.46" ry=".73" transform="translate(-50.8 230.87) rotate(-44.55)"/>
        <ellipse class="cls-27" cx="258" cy="185.01" rx="1.46" ry=".73" transform="translate(-55.64 234.18) rotate(-44.55)"/>
        <ellipse class="cls-18" cx="256.96" cy="181.77" rx="1.46" ry=".73" transform="translate(-53.67 232.52) rotate(-44.55)"/>
        <ellipse class="cls-13" cx="250.1" cy="182.58" rx="2.11" ry="1.11" transform="translate(-56.11 228.63) rotate(-44.68)"/>
        <path class="cls-18" d="M243.22,174.51s2.59-2.43,3.06,1.36c0,0,1.91-1.77,2.49.92l-4.49,10.77s-2.03-9.4-1.06-13.05Z"/>
        <path class="cls-18" d="M244.28,187.56s1.94,7.84,6.11,9.61c0,0,3.24.18,1.62-2.62,0,0,2.64-1.68.45-2.98,0,0,2.27-1.6-.11-2.39,0,0-8.04.24-8.07-1.62Z"/>
        <path class="cls-27" d="M244.28,187.56s3.5-15.17,8.83-8.27c0,0,4.17-.49,1.56,3.66,0,0,5.38,7.2-10.39,4.61Z"/>
        <path class="cls-3" d="M244.36,187.85s.3,1.09-.51.9c0,0-1.27,4.58,1.79,4.09l-1.29-4.99Z"/>
        <ellipse class="cls-3" cx="243.59" cy="188.38" rx=".95" ry=".79"/>
        <path class="cls-3" d="M243.33,187.65s-2.48-4.38-1.74-5.33c0,0-.35,1.85,2.17,5.33h-.43Z"/>
        <path class="cls-3" d="M242.53,188.14s-2.48-4.38-1.74-5.33c0,0-.35,1.85,2.17,5.33h-.43Z"/>
      </g>
      <g>
        <path class="cls-34" d="M321.45,148.91s-6.44-17.41,5.14-22.8c0,0-3.35,2.13-.61,6.79,0,0,2.21.07,2.9,2.6,0,0,6.17-9.85,18.29-9.38,0,0-7.16,3.99-8,9.19,0,0,2.36,1.93.61,4.73,0,0,2.59,2.13,1.14,3.59,0,0,5.87,3.93-4.88,6.66,0,0,1.22.13,1.83,3.99,0,0,.46.87,1.52.53,0,0-1.98,4.06.08,5.52,0,0,7.47,5.46,6.71,7.92,0,0-.08-1.06-14.25-6.66,0,0-7.77-4.59-8.69-6.92l-1.79-5.76Z"/>
        <path class="cls-17" d="M335.63,131.3c-1.21,1.05-1.72,2.31-1.16,2.8s2,.04,3.21-1.01c1.21-1.05,1.72-2.31,1.16-2.8s-2-.04-3.21,1.01Z"/>
        <ellipse class="cls-17" cx="336.16" cy="160.96" rx="1.32" ry="2.96" transform="translate(24.95 366.06) rotate(-58.97)"/>
        <ellipse class="cls-12" cx="335.69" cy="155.76" rx=".86" ry="1.79" transform="translate(30.48 365.04) rotate(-59.33)"/>
        <ellipse class="cls-12" cx="337.38" cy="137.87" rx="1.77" ry=".87" transform="translate(-17 223.01) rotate(-35.74)"/>
        <ellipse class="cls-12" cx="339.51" cy="146.12" rx="1.77" ry=".87" transform="translate(-21.41 225.81) rotate(-35.74)"/>
        <ellipse class="cls-17" cx="338.14" cy="142.59" rx="1.77" ry=".87" transform="translate(-19.61 224.35) rotate(-35.74)"/>
        <path class="cls-13" d="M328.16,142.55c-1.11.88-1.59,2-1.06,2.51s1.86.21,2.97-.66,1.59-2,1.06-2.51-1.86-.21-2.97.66Z"/>
        <path class="cls-17" d="M320.06,134.68s3.41-2.65,4.02,1.48c0,0,2.51-1.93,3.28,1l-5.91,11.75s-2.67-10.25-1.39-14.23Z"/>
        <path class="cls-17" d="M321.45,148.91s2.55,8.55,8.04,10.48c0,0,4.27.2,2.13-2.86,0,0,3.48-1.83.6-3.25,0,0,2.98-1.75-.14-2.61,0,0-10.59.27-10.63-1.76Z"/>
        <path class="cls-12" d="M321.45,148.91s4.61-16.54,11.62-9.02c0,0,5.49-.53,2.06,3.99,0,0,7.09,7.85-13.68,5.03Z"/>
        <path class="cls-3" d="M321.55,149.22s.4,1.19-.67.99c0,0-1.68,4.99,2.36,4.46l-1.69-5.45Z"/>
        <ellipse class="cls-3" cx="320.54" cy="149.8" rx="1.26" ry=".87"/>
        <path class="cls-3" d="M320.2,149.01s-3.27-4.77-2.29-5.81c0,0-.46,2.02,2.85,5.81h-.57Z"/>
        <path class="cls-3" d="M319.14,149.54s-3.27-4.77-2.29-5.81c0,0-.46,2.02,2.85,5.81h-.57Z"/>
      </g>
      <g class="cls-42">
        <g class="cls-46">
          <path class="cls-4" d="M415.49,201.93s4.05-17.66-3.24-23.13c0,0,2.11,2.16.38,6.89,0,0-1.39.07-1.82,2.63,0,0-3.88-9.99-11.51-9.52,0,0,4.51,4.05,5.04,9.32,0,0-1.49,1.96-.38,4.79,0,0-1.63,2.16-.72,3.65,0,0-3.69,3.98,3.07,6.75,0,0-.77.14-1.15,4.05,0,0-.29.88-.96.54,0,0,1.25,4.12-.05,5.61,0,0-4.7,5.54-4.22,8.04,0,0,.05-1.08,8.97-6.75,0,0,4.89-4.66,5.47-7.02l1.13-5.84Z"/>
          <path class="cls-36" d="M415.49,201.93s4.05-17.66-3.24-23.13c0,0,2.11,2.16.38,6.89,0,0-1.39.07-1.82,2.63,0,0-3.88-9.99-11.51-9.52,0,0,4.51,4.05,5.04,9.32,0,0-1.49,1.96-.38,4.79,0,0-1.63,2.16-.72,3.65,0,0-3.69,3.98,3.07,6.75,0,0-.77.14-1.15,4.05,0,0-.29.88-.96.54,0,0,1.25,4.12-.05,5.61,0,0-4.7,5.54-4.22,8.04,0,0,.05-1.08,8.97-6.75,0,0,4.89-4.66,5.47-7.02l1.13-5.84Z"/>
          <path class="cls-15" d="M406.57,184.07c.76,1.07,1.09,2.34.73,2.84s-1.26.04-2.02-1.03c-.76-1.07-1.09-2.34-.73-2.84.36-.5,1.26-.04,2.02,1.03"/>
          <path class="cls-15" d="M405.7,213.13c.86-.9,1.8-1.17,2.1-.6.3.57-.16,1.76-1.02,2.66-.86.9-1.8,1.17-2.1.6-.3-.57.16-1.76,1.02-2.66"/>
          <path class="cls-10" d="M406.18,208.21c.52-.54,1.1-.69,1.3-.32.19.37-.07,1.11-.59,1.65-.52.54-1.1.69-1.3.32-.19-.37.07-1.11.59-1.65"/>
          <path class="cls-10" d="M405.87,190.11c.48.61.7,1.39.48,1.73-.22.34-.79.12-1.27-.49-.48-.61-.7-1.39-.48-1.73.22-.34.79-.12,1.27.49"/>
          <path class="cls-10" d="M404.52,198.48c.48.61.7,1.39.48,1.73-.22.34-.79.12-1.27-.49-.48-.61-.7-1.39-.48-1.73.22-.34.79-.12,1.27.49"/>
          <path class="cls-15" d="M405.39,194.9c.48.61.7,1.39.48,1.73-.22.34-.79.12-1.27-.49-.48-.61-.7-1.39-.48-1.73.22-.34.79-.12,1.27.49"/>
          <path class="cls-15" d="M416.37,187.49s-2.15-2.68-2.53,1.5c0,0-1.58-1.96-2.06,1.01l3.72,11.92s1.68-10.4.88-14.44"/>
          <path class="cls-15" d="M415.49,201.93s-1.61,8.68-5.06,10.64c0,0-2.69.2-1.34-2.9,0,0-2.19-1.86-.38-3.29,0,0-1.88-1.77.09-2.65,0,0,6.67.27,6.69-1.79"/>
          <path class="cls-10" d="M415.49,201.93s-2.9-16.78-7.31-9.15c0,0-3.45-.54-1.29,4.05,0,0-4.46,7.97,8.61,5.1"/>
          <path class="cls-3" d="M415.43,202.24s-.25,1.2.42,1c0,0,1.06,5.06-1.49,4.52l1.07-5.52Z"/>
          <path class="cls-3" d="M415.28,202.84c0,.48.35.88.79.88s.79-.39.79-.88-.35-.88-.79-.88-.79.39-.79.88"/>
          <path class="cls-3" d="M416.28,202.03s2.06-4.84,1.44-5.9c0,0,.29,2.05-1.79,5.9h.36Z"/>
          <path class="cls-3" d="M416.95,202.57s2.06-4.84,1.44-5.9c0,0,.29,2.05-1.79,5.9h.36Z"/>
        </g>
      </g>
      <g>
        <path class="cls-34" d="M450.81,275.45s5.56-12.93-4.44-16.93c0,0,2.9,1.58.53,5.04,0,0-1.91.05-2.5,1.93,0,0-5.33-7.32-15.8-6.97,0,0,6.19,2.97,6.91,6.82,0,0-2.04,1.43-.53,3.51,0,0-2.24,1.58-.99,2.67,0,0-5.07,2.92,4.21,4.94,0,0-1.05.1-1.58,2.97,0,0-.4.64-1.32.4,0,0,1.71,3.02-.07,4.1,0,0-6.45,4.05-5.79,5.88,0,0,.07-.79,12.31-4.94,0,0,6.72-3.41,7.51-5.14l1.55-4.28Z"/>
        <path class="cls-17" d="M438.56,262.38c1.04.78,1.49,1.71,1,2.08s-1.73.03-2.77-.75-1.49-1.71-1-2.08,1.73-.03,2.77.75Z"/>
        <path class="cls-17" d="M437.36,283.65c1.18-.66,2.48-.85,2.89-.44s-.22,1.29-1.4,1.95-2.48.85-2.89.44.22-1.29,1.4-1.95Z"/>
        <path class="cls-12" d="M438.02,280.05c.72-.4,1.51-.5,1.78-.23s-.1.81-.81,1.21-1.51.5-1.78.23.1-.81.81-1.21Z"/>
        <path class="cls-12" d="M437.59,266.8c.66.45.96,1.01.66,1.26s-1.08.09-1.74-.36-.96-1.01-.66-1.26,1.08-.09,1.74.36Z"/>
        <path class="cls-12" d="M435.75,272.93c.66.45.96,1.01.66,1.26s-1.08.09-1.74-.36-.96-1.01-.66-1.26,1.08-.09,1.74.36Z"/>
        <path class="cls-17" d="M436.93,270.31c.66.45.96,1.01.66,1.26s-1.08.09-1.74-.36-.96-1.01-.66-1.26,1.08-.09,1.74.36Z"/>
        <path class="cls-13" d="M445.02,270.73c.96.65,1.37,1.49.92,1.87s-1.6.16-2.57-.49-1.37-1.49-.92-1.87,1.6-.16,2.57.49Z"/>
        <path class="cls-17" d="M452.02,264.89s-2.95-1.96-3.48,1.1c0,0-2.17-1.43-2.83.74l5.1,8.72s2.31-7.61,1.2-10.57Z"/>
        <path class="cls-17" d="M450.81,275.45s-2.21,6.35-6.95,7.79c0,0-3.69.15-1.84-2.13,0,0-3.01-1.36-.52-2.41,0,0-2.58-1.3.12-1.94,0,0,9.15.2,9.19-1.31Z"/>
        <path class="cls-12" d="M450.81,275.45s-3.98-12.28-10.04-6.7c0,0-4.74-.4-1.78,2.97,0,0-6.12,5.83,11.82,3.73Z"/>
        <path class="cls-3" d="M450.73,275.68s-.34.88.58.73c0,0,1.45,3.71-2.04,3.31l1.46-4.04Z"/>
        <ellipse class="cls-3" cx="451.6" cy="276.12" rx="1.09" ry=".64"/>
        <path class="cls-3" d="M451.89,275.53s2.83-3.55,1.98-4.32c0,0,.4,1.5-2.46,4.32h.49Z"/>
        <path class="cls-3" d="M452.8,275.92s2.83-3.55,1.98-4.32c0,0,.4,1.5-2.46,4.32h.49Z"/>
      </g>
      <g class="cls-39">
        <g class="cls-40">
          <path class="cls-4" d="M288.34,240.09s-6.19-20.75,4.94-27.17c0,0-3.22,2.54-.59,8.09,0,0,2.12.08,2.78,3.09,0,0,5.93-11.74,17.57-11.19,0,0-6.88,4.76-7.69,10.95,0,0,2.27,2.3.59,5.63,0,0,2.49,2.54,1.1,4.28,0,0,5.64,4.68-4.68,7.93,0,0,1.17.16,1.76,4.76,0,0,.44,1.03,1.46.63,0,0-1.9,4.84.07,6.58,0,0,7.17,6.51,6.44,9.44,0,0-.07-1.27-13.69-7.93,0,0-7.47-5.47-8.34-8.25l-1.72-6.86Z"/>
          <path class="cls-33" d="M288.34,240.09s-6.19-20.75,4.94-27.17c0,0-3.22,2.54-.59,8.09,0,0,2.12.08,2.78,3.09,0,0,5.93-11.74,17.57-11.19,0,0-6.88,4.76-7.69,10.95,0,0,2.27,2.3.59,5.63,0,0,2.49,2.54,1.1,4.28,0,0,5.64,4.68-4.68,7.93,0,0,1.17.16,1.76,4.76,0,0,.44,1.03,1.46.63,0,0-1.9,4.84.07,6.58,0,0,7.17,6.51,6.44,9.44,0,0-.07-1.27-13.69-7.93,0,0-7.47-5.47-8.34-8.25l-1.72-6.86Z"/>
          <path class="cls-15" d="M301.96,219.11c-1.16,1.25-1.66,2.75-1.11,3.34s1.92.05,3.08-1.21c1.16-1.25,1.66-2.75,1.11-3.34-.54-.59-1.92-.05-3.08,1.21"/>
          <path class="cls-15" d="M303.3,253.25c-1.32-1.06-2.75-1.37-3.21-.7-.46.67.24,2.07,1.56,3.12,1.32,1.06,2.75,1.37,3.21.7.46-.67-.24-2.07-1.56-3.12"/>
          <path class="cls-10" d="M302.56,247.47c-.8-.64-1.68-.81-1.98-.37-.3.43.11,1.3.91,1.94.8.64,1.68.81,1.98.37.3-.43-.11-1.3-.91-1.94"/>
          <path class="cls-10" d="M303.04,226.2c-.74.72-1.06,1.63-.73,2.03.33.4,1.2.14,1.94-.57.74-.72,1.06-1.63.73-2.03-.33-.4-1.2-.14-1.94.57"/>
          <path class="cls-10" d="M305.09,236.04c-.74.72-1.06,1.63-.73,2.03.33.4,1.2.14,1.94-.57.74-.72,1.06-1.63.73-2.03-.33-.4-1.2-.14-1.94.57"/>
          <path class="cls-15" d="M303.77,231.84c-.74.72-1.06,1.63-.73,2.03.33.4,1.2.14,1.94-.57.74-.72,1.06-1.63.73-2.03-.33-.4-1.2-.14-1.94.57"/>
          <path class="cls-15" d="M287,223.13s3.28-3.15,3.86,1.77c0,0,2.42-2.3,3.15,1.19l-5.67,14s-2.57-12.22-1.34-16.96"/>
          <path class="cls-15" d="M288.34,240.09s2.45,10.19,7.72,12.49c0,0,4.1.24,2.05-3.41,0,0,3.34-2.19.57-3.87,0,0,2.87-2.08-.13-3.11,0,0-10.17.32-10.21-2.1"/>
          <path class="cls-10" d="M288.34,240.09s4.43-19.71,11.16-10.75c0,0,5.27-.63,1.98,4.76,0,0,6.81,9.36-13.14,5.99"/>
          <path class="cls-3" d="M288.44,240.46s.38,1.41-.64,1.17c0,0-1.61,5.95,2.27,5.32l-1.63-6.49Z"/>
          <path class="cls-3" d="M288.67,241.16c0,.57-.54,1.03-1.21,1.03s-1.21-.46-1.21-1.03.54-1.03,1.21-1.03,1.21.46,1.21,1.03"/>
          <path class="cls-3" d="M287.14,240.21s-3.14-5.69-2.2-6.93c0,0-.45,2.41,2.74,6.93h-.54Z"/>
          <path class="cls-3" d="M286.13,240.84s-3.14-5.69-2.2-6.93c0,0-.45,2.41,2.74,6.93h-.54Z"/>
        </g>
      </g>
      <g class="cls-43">
        <polygon class="cls-37" points="353.96 125.4 405.33 211.08 428.59 146.24 353.96 125.4"/>
        <g>
          <path class="cls-37" d="M159.14,302.55s16.48-125.04,33.92-147.04l52.34-49.79,50.4-20.84,22.29-2.32,42.65-5.79,63,30.1,39.74,38.21s44.58,57.89,48.46,167.88c-66.12,4.39-137.95,5.59-214.69,1.74-48.32-2.43-94.42-6.65-138.12-12.16Z"/>
          <polygon class="cls-37" points="245.4 105.72 205.66 156.66 193.06 155.51 245.4 105.72"/>
          <polygon class="cls-37" points="353.96 125.4 318.09 82.56 397.54 96.37 353.96 125.4"/>
          <polygon class="cls-37" points="428.59 146.24 397.54 96.37 353.96 125.4 428.59 146.24"/>
          <polygon class="cls-37" points="463.48 145.08 397.54 96.37 428.59 146.24 463.48 145.08"/>
          <polygon class="cls-37" points="205.66 156.66 263.82 127.72 211.48 222.66 205.66 156.66"/>
          <path class="cls-37" d="M243.95,311.23c-10.82-29.52-21.65-59.05-32.47-88.57l89.17-16.21-49.43,105.36c-2.42-.19-4.85-.39-7.27-.58Z"/>
          <path class="cls-37" d="M349.59,315.86h4.85c16.96-34.93,33.92-69.85,50.88-104.78l-104.68-4.63c16.32,36.47,32.63,72.94,48.95,109.41Z"/>
          <path class="cls-37" d="M478.02,215.71l-72.69-4.63c14.7,34.93,29.4,69.85,44.1,104.78h4.85c7.92-33.38,15.83-66.77,23.75-100.15Z"/>
          <polygon class="cls-37" points="428.59 146.24 463.48 145.08 478.02 215.71 428.59 146.24"/>
          <path class="cls-37" d="M301.13,207.03c-12.44-26.44-24.88-52.87-37.32-79.31l90.14-2.32c-17.61,27.21-35.22,54.42-52.82,81.63Z"/>
          <path class="cls-37" d="M211.48,222.66c-9.85,27.59-19.71,55.19-29.56,82.78-7.59-.96-15.18-1.93-22.78-2.89,0,0,20.84-141.83,33.92-147.04l12.6,1.16,5.82,66Z"/>
          <path class="cls-37" d="M173.25,220.39l32.41-63.73-12.6-1.16s-11.03,9.94-19.81,64.89Z"/>
          <path class="cls-37" d="M478.02,215.71l17.93.58s-23.26-67.15-32.47-71.21l14.54,70.63Z"/>
          <polygon class="cls-37" points="263.82 127.72 318.09 82.56 295.8 84.88 245.4 105.72 263.82 127.72"/>
        </g>
      </g>
    </g>
    <polygon class="cls-32" points="353.96 125.4 405.33 211.08 428.59 146.24 353.96 125.4"/>
  </g>
  <g>
    <path class="cls-2" d="M596.72,170.92s.73-4.61,12.01,8.63c0,0,34.7,8.54,35.29-8.63,0,0-15.04-10.54-5.06-13.85,0,0,6.32-10.31-2.99-12.89,0,0,9.65-12.15-10.98-17.67,0,0,14.3-7.73,4.32-18.78,0,0-14.97-14.73-20.62-10.68,0,0-22.29-23.2-37.59,2.21,0,0-15.3-4.05-14.97,13.99,0,0-14.3,10.23-1.33,15.24,0,0-3.37,5.03.98,8.52,0,0-20.9.98-12.1,13.47,0,0-2.51,10.27,2.14,13.59,0,0-7.09,12.38,14.75,17.61,0,0,18.72-1.63,22.94-9.07,0,0,10.88,2.96,13.2-1.68Z"/>
    <path class="cls-5" d="M562.82,146.28s-3.66-.74-2.66-4.79c0,0,2.99-2.21,2.66,4.79Z"/>
    <path class="cls-5" d="M580.6,127.05s-3.66-.74-2.66-4.79c0,0,2.99-2.21,2.66,4.79Z"/>
    <path class="cls-5" d="M626.98,156.34s1.02-3.96,4.57-2.46c0,0,1.69,3.52-4.57,2.46Z"/>
    <path class="cls-5" d="M616.73,152.86s-2.4-3.14.7-5.57c0,0,3.58.4-.7,5.57Z"/>
    <path class="cls-5" d="M561.6,150.82s-2.64,2.9-5.07-.32c0,0,.08-3.98,5.07.32Z"/>
    <path class="cls-5" d="M574.61,152.82s-3.66-.74-2.66-4.79c0,0,2.99-2.21,2.66,4.79Z"/>
    <path class="cls-5" d="M599.45,117.9s-2.4-3.14.7-5.57c0,0,3.58.4-.7,5.57Z"/>
    <path class="cls-5" d="M600.78,137.05s-2.4-3.14.7-5.57c0,0,3.58.4-.7,5.57Z"/>
    <path class="cls-5" d="M580.91,126.13s-3.69.5-3.82-3.7c0,0,2.27-3.09,3.82,3.7Z"/>
    <path class="cls-5" d="M566.61,136.05s-3.69.5-3.82-3.7c0,0,2.27-3.09,3.82,3.7Z"/>
    <path class="cls-5" d="M580.92,102.18s-3.69.5-3.82-3.7c0,0,2.27-3.09,3.82,3.7Z"/>
    <path class="cls-5" d="M573.6,125.01s-3.69.5-3.82-3.7c0,0,2.27-3.09,3.82,3.7Z"/>
    <path class="cls-5" d="M616.4,130.51s-3.51,1.35-4.44-2.72c0,0,1.63-3.55,4.44,2.72Z"/>
    <path class="cls-5" d="M606.62,120.62s.17-4.11,3.93-3.57c0,0,2.38,2.99-3.93,3.57Z"/>
    <path class="cls-5" d="M607,109.18s-2.4-3.14.7-5.57c0,0,3.58.4-.7,5.57Z"/>
    <path class="cls-5" d="M621.98,132.1s-.46-4.09,3.33-4.24c0,0,2.8,2.5-3.33,4.24Z"/>
    <path class="cls-5" d="M623.15,137.19s3.1-2.28,4.92,1.41c0,0-.77,3.89-4.92-1.41Z"/>
    <path class="cls-5" d="M594.7,98.87s-2.4-3.14.7-5.57c0,0,3.58.4-.7,5.57Z"/>
    <path class="cls-5" d="M591.66,101.94s-3.67-.67-2.73-4.74c0,0,2.96-2.26,2.73,4.74Z"/>
    <path class="cls-5" d="M597.26,104.35s.56-4.07,4.25-3.08c0,0,2.08,3.25-4.25,3.08Z"/>
    <path class="cls-5" d="M580.51,102.72s-3.67-.67-2.73-4.74c0,0,2.96-2.26,2.73,4.74Z"/>
    <path class="cls-5" d="M576.01,110.69s-.53,4.07-4.22,3.12c0,0-2.1-3.23,4.22-3.12Z"/>
    <path class="cls-5" d="M573.46,106.14s-3.46,1.5-4.53-2.53c0,0,1.5-3.62,4.53,2.53Z"/>
    <path class="cls-30" d="M589.4,269h9.74v-51.49l2.9-5.21h-4.16l-1.17-24.59,10.24-.08v-3.84l-10.24,2.21v-28.49s3.99-4.86,34.26,5.45c0,0-19.5-15.06-35.36-9.92l-.23-8.12s27.3-7.42,27.45-9.78l-27.12,5.73-1.37-8.29s10.68-13.06,13.34-21.9c0,0-10.31,15.83-12.64,16.2l-1.33-23.2s-2.66-1.84-2.66,8.47l.67,6.26s-9.98-6.63-10.64-13.26c0,0,.33,12.15,9.31,17.31l.18,12.68s-20.47-13.41-28.12-11.2c0,0,5.99,2.95,13.97,6.63l5.99,3.31s-12.92-2.3-14.28,3.82c-.27,1.2-.74,3-.59,3.06.16.06.5-2.13,1.9-3.57,1-1.03,2.04-1.15,6.32-1.47,6.36-.48,7.39-.47,8.65.37.46.31,1.5,1.18,2.66,3.31,4.12,7.53,3.14,16.73,2.33,21.36,0,0-6.65-4.05-11.31-3.68-3.84-2.58-7.72-5.16-11.64-7.73-1.33-.87-2.66-1.74-3.99-2.61,0,0-1,3.34,11.97,11.44l-19.63,7s33.6-11.41,34.59,4.79l.16,28.41-9.58-6.14s4.13-4.5,6.81-3.09c2.87,1.51,2.21,9.14,2.01,11.78-.82,10.9-.81,31.46.59,68.08Z"/>
  </g>
  <g>
    <path class="cls-28" d="M30.56,125.66s-28.82,1.6-23.65,29.87l7.21,16.08s-11.7,5.65-5.29,20.86c0,0,17.11,30.04,36.44,46.5l5.68-.21s38.1-29.88,26.41-40.33c0,0,22.15-16.9,19.68-30.54,0,0,2.45-23.82-28.04-24.8,0,0,6.84-21.96-8.12-27.38,0,0-21.36-11.8-30.32,9.96Z"/>
    <path class="cls-22" d="M45.34,273.05h7.21s-1.12-44.76,0-52.04c0,0,2.53-12.2,10.29-10.31,0,0-5.87-1.98-8.75,1.66l5.93-11.9-8.8,11.9-.72-21.37,3.59-8.47,18.27-1.38s-11.99-3.79-15.16-2.27l9.52-7.96s8.24,6.06,15.23,0c0,0-7.47,3.03-11-1.52l6.7-6.82-16.22,9.85s2.47-8.34,3.88-10.99c0,0-8.46,9.47-7.76,13.26,0,0-7.76,8.34-7.76,10.23s0-1.89,0-1.89c0,0-2.12-37.9,11.28-50.4,0,0-10.93,10.23-11.63,16.67,0,0-5.99-12.88-8.46-12.88,0,0,6.35,8.72,6.35,17.43l-1.41,23.12-6.35-10.99-3.17-14.4v9.69s-11.99-11.21-13.75-11.21c0,0,8.46,7.58,10.22,10.99,0,0-7.4-.76-7.4,2.65,0,0,10.93-7.58,19.74,20.46l.66,18.67-9.83-10.71s-2.06-9.42-9.32-12.48c0,0,8.26,7.17,6.85,10.2l-15.16-4.93s14.81,5.68,16.92,10.23c0,0,5.64,1.89,9.87,12.51l.13,65.38Z"/>
    <path class="cls-16" d="M34.96,152.76s-5.19,3.22-8.8-3.58c0,0,.93-6.54,8.8,3.58Z"/>
    <path class="cls-16" d="M26.71,180.56s-5.82-1.55-4.03-9.14c0,0,4.89-4.02,4.03,9.14Z"/>
    <path class="cls-16" d="M24.74,189.53s-.27,6.44-7.54,6.05c0,0-4.63-4.36,7.54-6.05Z"/>
    <path class="cls-16" d="M17.64,183.68s-5.19,3.22-8.8-3.58c0,0,.93-6.54,8.8,3.58Z"/>
    <path class="cls-16" d="M22.92,160.18s-5.19,3.22-8.8-3.58c0,0,.93-6.54,8.8,3.58Z"/>
    <path class="cls-16" d="M60.91,199.86s-.79-6.39,6.43-7.39c0,0,5.28,3.41-6.43,7.39Z"/>
    <path class="cls-16" d="M64.47,210.64s1.53-6.23,8.56-4.21c0,0,3.68,5.31-8.56,4.21Z"/>
    <path class="cls-16" d="M56.67,170.04s-4.8-3.85-.43-10.1c0,0,5.96-1.68.43,10.1Z"/>
    <path class="cls-16" d="M56.48,149.44s1.53-6.23,8.56-4.21c0,0,3.68,5.31-8.56,4.21Z"/>
    <path class="cls-16" d="M72.62,179.14s3.36-5.33,9.37-.92c0,0,1.83,6.32-9.37.92Z"/>
    <path class="cls-16" d="M54.47,204.3s-4.8-3.85-.43-10.1c0,0,5.96-1.68.43,10.1Z"/>
    <path class="cls-16" d="M49.54,136.47s-4.8-3.85-.43-10.1c0,0,5.96-1.68.43,10.1Z"/>
    <path class="cls-16" d="M39.84,135.61s-5.86,1.34-7.35-6.32c0,0,2.76-5.92,7.35,6.32Z"/>
    <path class="cls-16" d="M83.79,165.03s3.36-5.33,9.37-.92c0,0,1.83,6.32-9.37.92Z"/>
  </g>
  <path class="cls-1" d="M524.64,282.47c-1.24-2-4.76-2.57-6.76-1.1-.07-1.22.83-2.3,1.22-3.47.4-1.17-.11-2.82-1.52-2.89-.62-.03-1.19.26-1.71.55-1.38.75-2.76,1.51-4.15,2.26.59-.95.58-2.15-.01-3.1-1.73.19-3.35,1.08-4.28,2.36.41-1.08.08-2.35-.84-3.17-1.98.73-3.64,2.08-4.61,3.73.16-1.41-.48-2.88-1.69-3.85-.9,1.41-1.79,2.82-2.69,4.23-.72-2-1.85-3.89-3.31-5.56-1.93,2.26-2.5,5.34-1.48,8.01-1.44-1.82-4.32-2.69-6.76-2.05.68,2.54,1.61,5.02,2.77,7.43-2.84-.78-5.95-.82-8.82-.13,1.59,2.09,3.18,4.19,4.77,6.28-4.73.42-9.45.83-14.18,1.25-1.68-.9-4-.8-5.58.22,1.5-.91,2.76-2.13,3.63-3.52-3.46-.46-7.15.64-9.54,2.85,1.61-1.39,1.59-3.92-.04-5.29-2.08,1.76-4.15,3.53-6.23,5.29,1.11-1.05,1.32-2.73.5-3.96-1.29.49-2.43,1.27-3.3,2.22.15-.68.26-1.38.3-2.07.03-.45.02-.95-.32-1.3-.84-.88-2.44.04-3.28.92.02-.78.52-1.49.68-2.26.16-.77-.25-1.77-1.15-1.82-.38-.02-.74.13-1.06.3-1.21.64-2.18,1.63-2.71,2.77-.15-1.46-.69-2.9-1.56-4.17-.16-.23-.37-.48-.67-.51-.38-.04-.68.26-.88.55-.85,1.23-1.19,2.72-.92,4.13-.95-1.17-1.93-2.36-3.24-3.22-1.32-.87-3.06-1.37-4.66-.99.97,1.43,2.09,2.77,3.34,4.02-2.39-2.76-7.44-3.45-10.7-1.45.45.6,1.09,1.09,1.83,1.4-.35-.06-.71-.06-1.06-.02-1.65-.63-3.22-1.42-4.65-2.36-1.38,1.48-.87,3.97,1.02,4.95-1.66-.56-3.49-.74-5.25-.53-.37.05-.76.12-1.02.35-.27.23-.34.58-.36.91-.1,1.68.99,3.38,2.7,4.19-1.14.2-2.24.52-3.3.93-.36.14-.72.3-.96.57-.5.57-.24,1.43.35,1.93.16.14.35.26.54.36-2.39-.28-4.78-.55-7.17-.83-.48-.06-.98-.11-1.44.01-1.78.47-1.44,2.73-.72,4.21-1.7-.49-3.63-.96-5.23-.26-1.6.7-1.98,3.16-.26,3.62-2.02-.06-4.04.71-5.36,2.02-.47.46-.4,1.53.26,1.31-2.14.3-4.08,1.51-5.08,3.17-2.57.21-5.16.3-7.74.25,1.02,2.73,4.32,4.65,7.62,4.58-1.11.42-1.61,2.11-.58,2.91,1.26.98,3.44.45,4.45-.73.67,1.33,2.53,1.98,4.21,1.88,1.68-.1,3.23-.78,4.73-1.45-1.08,1.23.74,3.29,2.41,2.73.44-.15.87-.44,1.34-.35.72.13.87.99,1.48,1.34.76.44,1.74-.07,2.58-.38,2.95-1.06,7.18.42,9.06-1.81l33.17,3.91c18.11-1.06,36.14-3.15,53.94-6.23,2.01-.35,4.09-.74,5.7-1.82,1.94-1.3,2.89-3.38,3.75-5.36,3.31-7.55,6.61-15.1,9.92-22.64.88-2.02,1.75-4.34.57-6.24ZM414.48,299.2v-.03c.07.02.14.04.21.06-.07-.01-.14-.02-.21-.03Z"/>
  <g>
    <path class="cls-16" d="M80,149.23s-6.79-17.64-15.15,1.68v5.55s-7.32,2.29-6.79,9.01l-.03,10.3s-6.24-1.9-8.07,8.18c0,0,0,14.56,1.83,17.36,0,0-6.27.28-4.96,8.12,0,0,10.71,24.93,22.73,37.81h7.87s25.83-30.53,23.48-49.01c0,0,1.05-7-6.27-8.96,0,0,5.75-14.56-3.66-14.28,0,0,1.57-19.05-1.57-21.01,0,0-3.66-6.44-9.41-4.76Z"/>
    <path class="cls-7" d="M77.13,166.88l-3.28,22.7-3.25-16.26s-1.31,17.92,2.09,22.97c0,0-2.87,14.28-1.05,16.24,0,0-9.8-18.77-9.86-22.83,0,0,1.24,16.94,9.6,29.55l-.78,13.16s-7.84-21.85-14.11-21.01c0,0,11.5,16.24,13.85,29.41,0,0-1.31,25.49-4.7,26.61,0,0,11.88-1.4,14.56,0l-3.32-28.01,14.11-25.49-13.85,19.33-.52-11.76,8.62-17.36-9.19,13.02.31-11.34s7.84-19.05,7.58-23.25c0,0-5.23,15.96-7.84,16.52,0,0,3.66-30.53,1.05-32.21Z"/>
    <path class="cls-21" d="M64.06,172.2s-2.87-.56-2.09-3.64c0,0,2.35-1.68,2.09,3.64Z"/>
    <path class="cls-21" d="M92.51,183.94s1.72,2.4-3.25,2.48c0,0,.33-3.11,3.25-2.48"/>
    <path class="cls-21" d="M77.23,159.55s3.68-1.23,1.1,5.91c0,0-3.4-2.06-1.1-5.91"/>
    <path class="cls-21" d="M65.75,191.1s3.06-2.52,2.72,5.46c0,0-3.75-.84-2.72-5.46"/>
    <path class="cls-21" d="M53.69,204.98s2.35-1.68,2.09,3.64c0,0-2.87-.56-2.09-3.64"/>
    <path class="cls-21" d="M89.42,198.29s2.4,1.61-2.24,3.54c0,0-.71-3.04,2.24-3.54"/>
    <path class="cls-21" d="M85.18,195.4s1.75,2.38-3.22,2.53c0,0,.29-3.12,3.22-2.53"/>
    <path class="cls-21" d="M54.48,186.77s2.35-1.68,2.09,3.64c0,0-2.87-.56-2.09-3.64"/>
    <path class="cls-21" d="M79.03,203.96s2.77-.59.64,4.22c0,0-2.46-1.69-.64-4.22"/>
    <path class="cls-21" d="M70.25,154.94s2.35-1.68,2.09,3.64c0,0-2.87-.56-2.09-3.64"/>
    <path class="cls-21" d="M87.9,209.52s1.72,2.4-3.25,2.48c0,0,.33-3.11,3.25-2.48"/>
    <path class="cls-21" d="M86.07,156.87s1.72,2.4-3.25,2.48c0,0,.33-3.11,3.25-2.48"/>
  </g>
  <g>
    <path class="cls-28" d="M130.66,138.36s-25.77,1.38-21.15,25.73l6.45,13.86s-10.47,4.87-4.73,17.97c0,0,15.3,25.88,32.59,40.05l5.08-.18s34.07-25.74,23.61-34.75c0,0,19.81-14.56,17.6-26.31,0,0,2.19-20.52-25.07-21.36,0,0,6.12-18.91-7.26-23.59,0,0-19.1-10.16-27.12,8.58Z"/>
    <path class="cls-22" d="M143.88,265.33h6.45s-1-38.56,0-44.83c0,0,2.26-10.51,9.2-8.88,0,0-5.25-1.7-7.83,1.43l5.3-10.25-7.87,10.25-.64-18.41,3.21-7.3,16.34-1.19s-10.72-3.26-13.56-1.96l8.51-6.86s7.37,5.22,13.62,0c0,0-6.68,2.61-9.83-1.31l5.99-5.88-14.5,8.49s2.21-7.18,3.47-9.47c0,0-7.57,8.16-6.94,11.43,0,0-6.94,7.18-6.94,8.81s0-1.63,0-1.63c0,0-1.89-32.65,10.09-43.42,0,0-9.77,8.81-10.4,14.36,0,0-5.36-11.1-7.57-11.1,0,0,5.67,7.51,5.67,15.02l-1.26,19.91-5.67-9.47-2.84-12.41v8.35s-10.72-9.65-12.3-9.65c0,0,7.57,6.53,9.14,9.47,0,0-6.62-.65-6.62,2.29,0,0,9.77-6.53,17.66,17.63l.59,16.08-8.79-9.22s-1.84-8.11-8.33-10.75c0,0,7.38,6.18,6.12,8.79l-13.56-4.24s13.24,4.9,15.13,8.81c0,0,5.04,1.63,8.83,10.77l.11,56.32Z"/>
    <path class="cls-16" d="M134.6,161.7s-4.64,2.77-7.87-3.08c0,0,.83-5.64,7.87,3.08Z"/>
    <path class="cls-16" d="M127.22,185.65s-5.2-1.34-3.61-7.87c0,0,4.37-3.47,3.61,7.87Z"/>
    <path class="cls-16" d="M125.46,193.38s-.24,5.54-6.74,5.21c0,0-4.14-3.76,6.74-5.21Z"/>
    <path class="cls-16" d="M119.1,188.33s-4.64,2.77-7.87-3.08c0,0,.83-5.64,7.87,3.08Z"/>
    <path class="cls-16" d="M123.83,168.09s-4.64,2.77-7.87-3.08c0,0,.83-5.64,7.87,3.08Z"/>
    <path class="cls-16" d="M157.8,202.28s-.71-5.5,5.75-6.36c0,0,4.72,2.94-5.75,6.36Z"/>
    <path class="cls-16" d="M160.99,211.56s1.36-5.37,7.65-3.63c0,0,3.29,4.58-7.65,3.63Z"/>
    <path class="cls-16" d="M154.01,176.59s-4.3-3.32-.38-8.7c0,0,5.33-1.45.38,8.7Z"/>
    <path class="cls-16" d="M153.84,158.84s1.36-5.37,7.65-3.63c0,0,3.29,4.58-7.65,3.63Z"/>
    <path class="cls-16" d="M168.27,184.42s3.01-4.59,8.38-.79c0,0,1.64,5.45-8.38.79Z"/>
    <path class="cls-16" d="M152.05,206.1s-4.3-3.32-.38-8.7c0,0,5.33-1.45.38,8.7Z"/>
    <path class="cls-16" d="M147.63,147.67s-4.3-3.32-.38-8.7c0,0,5.33-1.45.38,8.7Z"/>
    <path class="cls-16" d="M138.96,146.93s-5.24,1.16-6.57-5.44c0,0,2.46-5.1,6.57,5.44Z"/>
    <path class="cls-16" d="M178.26,172.27s3.01-4.59,8.38-.79c0,0,1.64,5.45-8.38.79Z"/>
  </g>
  <g>
    <path class="cls-28" d="M557,136.36s-23.08,1.45-18.95,27.03l5.78,14.56s-9.37,5.12-4.24,18.87c0,0,13.71,27.19,29.19,42.08l4.55-.19s30.52-27.04,21.15-36.5c0,0,17.74-15.29,15.76-27.64,0,0,1.96-21.56-22.46-22.44,0,0,5.48-19.87-6.51-24.78,0,0-17.11-10.68-24.29,9.01Z"/>
    <path class="cls-22" d="M568.84,269.75h5.78s-.9-40.51,0-47.1c0,0,2.03-11.04,8.24-9.33,0,0-4.7-1.79-7.01,1.51l4.75-10.77-7.05,10.77-.57-19.34,2.87-7.66,14.63-1.25s-9.6-3.43-12.14-2.06l7.62-7.2s6.6,5.49,12.2,0c0,0-5.98,2.74-8.81-1.37l5.37-6.17-12.99,8.92s1.98-7.55,3.11-9.95c0,0-6.78,8.57-6.21,12,0,0-6.21,7.55-6.21,9.26s0-1.71,0-1.71c0,0-1.69-34.3,9.04-45.61,0,0-8.75,9.26-9.32,15.09,0,0-4.8-11.66-6.78-11.66,0,0,5.08,7.89,5.08,15.78l-1.13,20.92-5.08-9.95-2.54-13.03v8.77s-9.6-10.14-11.01-10.14c0,0,6.78,6.86,8.19,9.95,0,0-5.93-.69-5.93,2.4,0,0,8.75-6.86,15.81,18.52l.53,16.89-7.87-9.69s-1.65-8.52-7.46-11.29c0,0,6.61,6.49,5.48,9.23l-12.14-4.46s11.86,5.14,13.56,9.26c0,0,4.52,1.71,7.91,11.32l.1,59.17Z"/>
    <path class="cls-16" d="M560.52,160.88s-4.16,2.91-7.05-3.24c0,0,.74-5.92,7.05,3.24Z"/>
    <path class="cls-16" d="M553.91,186.04s-4.66-1.41-3.23-8.27c0,0,3.92-3.64,3.23,8.27Z"/>
    <path class="cls-16" d="M552.34,194.16s-.22,5.82-6.04,5.48c0,0-3.71-3.95,6.04-5.48Z"/>
    <path class="cls-16" d="M546.64,188.86s-4.16,2.91-7.05-3.24c0,0,.74-5.92,7.05,3.24Z"/>
    <path class="cls-16" d="M550.88,167.59s-4.16,2.91-7.05-3.24c0,0,.74-5.92,7.05,3.24Z"/>
    <path class="cls-16" d="M581.3,203.5s-.63-5.78,5.15-6.68c0,0,4.23,3.09-5.15,6.68Z"/>
    <path class="cls-16" d="M584.16,213.26s1.22-5.64,6.85-3.81c0,0,2.95,4.81-6.85,3.81Z"/>
    <path class="cls-16" d="M577.91,176.52s-3.85-3.49-.34-9.14c0,0,4.77-1.52.34,9.14Z"/>
    <path class="cls-16" d="M577.75,157.87s1.22-5.64,6.85-3.81c0,0,2.95,4.81-6.85,3.81Z"/>
    <path class="cls-16" d="M590.68,184.75s2.69-4.83,7.51-.83c0,0,1.47,5.72-7.51.83Z"/>
    <path class="cls-16" d="M576.15,207.53s-3.85-3.49-.34-9.14c0,0,4.77-1.52.34,9.14Z"/>
    <path class="cls-16" d="M572.2,146.14s-3.85-3.49-.34-9.14c0,0,4.77-1.52.34,9.14Z"/>
    <path class="cls-16" d="M564.43,145.36s-4.7,1.21-5.89-5.72c0,0,2.21-5.36,5.89,5.72Z"/>
    <path class="cls-16" d="M599.63,171.98s2.69-4.83,7.51-.83c0,0,1.47,5.72-7.51.83Z"/>
  </g>
  <path class="cls-31" d="M183.02,273.75c-1.24-2-4.76-2.57-6.76-1.1-.07-1.22.83-2.3,1.22-3.47.4-1.17-.11-2.82-1.52-2.89-.62-.03-1.19.26-1.71.55-1.38.75-2.76,1.51-4.15,2.26.59-.95.58-2.15-.01-3.1-1.73.19-3.35,1.08-4.28,2.36.41-1.08.08-2.35-.84-3.17-1.98.73-3.64,2.08-4.61,3.73.16-1.41-.48-2.88-1.69-3.85-.9,1.41-1.79,2.82-2.69,4.23-.72-2-1.85-3.89-3.31-5.56-1.93,2.26-2.5,5.34-1.48,8.01-1.44-1.82-4.32-2.69-6.76-2.05.68,2.54,1.61,5.02,2.77,7.43-2.84-.78-5.95-.82-8.82-.13,1.59,2.09,3.18,4.19,4.77,6.28-4.73.42-9.45.83-14.18,1.25-1.68-.9-4-.8-5.58.22,1.5-.91,2.76-2.13,3.63-3.52-3.46-.46-7.15.64-9.54,2.85,1.61-1.39,1.59-3.92-.04-5.29-2.08,1.76-4.15,3.53-6.23,5.29,1.11-1.05,1.32-2.73.5-3.96-1.29.49-2.43,1.27-3.3,2.22.15-.68.26-1.38.3-2.07.03-.45.02-.95-.32-1.3-.84-.88-2.44.04-3.28.92.02-.78.52-1.49.68-2.26.16-.77-.25-1.77-1.15-1.82-.38-.02-.74.13-1.06.3-1.21.64-2.18,1.63-2.71,2.77-.15-1.46-.69-2.9-1.56-4.17-.16-.23-.37-.48-.67-.51-.38-.04-.68.26-.88.55-.85,1.23-1.19,2.72-.92,4.13-.95-1.17-1.93-2.36-3.24-3.22-1.32-.87-3.06-1.37-4.66-.99.97,1.43,2.09,2.77,3.34,4.02-2.39-2.76-7.44-3.45-10.7-1.45.45.6,1.09,1.09,1.83,1.4-.35-.06-.71-.06-1.06-.02-1.65-.63-3.22-1.42-4.65-2.36-1.38,1.48-.87,3.97,1.02,4.95-1.66-.56-3.49-.74-5.25-.53-.37.05-.76.12-1.02.35-.27.23-.34.58-.36.91-.1,1.68.99,3.38,2.7,4.19-1.14.2-2.24.52-3.3.93-.36.14-.72.3-.96.57-.5.57-.24,1.43.35,1.93.16.14.35.26.54.36-2.39-.28-4.78-.55-7.17-.83-.48-.06-.98-.11-1.44.01-1.78.47-1.44,2.73-.72,4.21-1.7-.49-3.63-.96-5.23-.26-1.6.7-1.98,3.16-.26,3.62-2.02-.06-4.04.71-5.36,2.02-.47.46-.4,1.53.26,1.31-2.14.3-4.08,1.51-5.08,3.17-2.57.21-5.16.3-7.74.25,1.02,2.73,4.32,4.65,7.62,4.58-1.11.42-1.61,2.11-.58,2.91,1.26.98,3.44.45,4.45-.73.67,1.33,2.53,1.98,4.21,1.88,1.68-.1,3.23-.78,4.73-1.45-1.08,1.23.74,3.29,2.41,2.73.44-.15.87-.44,1.34-.35.72.13.87.99,1.48,1.34.76.44,1.74-.07,2.58-.38,2.95-1.06,7.18.42,9.06-1.81l33.17,3.91c18.11-1.06,36.14-3.15,53.94-6.23,2.01-.35,4.09-.74,5.7-1.82,1.94-1.3,2.89-3.38,3.75-5.36,3.31-7.55,6.61-15.1,9.92-22.64.88-2.02,1.75-4.34.57-6.24ZM72.87,290.48v-.03c.07.02.14.04.21.06-.07-.01-.14-.02-.21-.03Z"/>
  <path class="cls-20" d="M185.34,289.13c-.69-1.16-2.65-1.49-3.76-.64-.04-.71.46-1.34.68-2.01.22-.68-.06-1.64-.84-1.68-.34-.02-.66.15-.95.32l-2.31,1.31c.33-.55.33-1.25,0-1.8-.96.11-1.86.63-2.38,1.37.23-.63.04-1.36-.46-1.84-1.1.43-2.02,1.21-2.56,2.17.09-.82-.27-1.67-.94-2.24-.5.82-1,1.64-1.5,2.46-.4-1.16-1.03-2.26-1.84-3.23-1.07,1.31-1.39,3.1-.82,4.65-.8-1.06-2.4-1.57-3.76-1.19.38,1.47.89,2.92,1.54,4.31-1.58-.45-3.31-.48-4.91-.08.88,1.22,1.77,2.43,2.65,3.65-2.63.24-5.26.48-7.88.73-.94-.52-2.22-.47-3.1.13.84-.53,1.53-1.24,2.02-2.05-1.93-.27-3.98.37-5.3,1.66.89-.81.88-2.28-.02-3.07-1.15,1.03-2.31,2.05-3.46,3.08.62-.61.74-1.59.28-2.3-.72.29-1.35.74-1.84,1.29.08-.4.14-.8.17-1.2.02-.26.01-.55-.18-.76-.47-.51-1.36.02-1.82.53.01-.45.29-.87.38-1.31.09-.45-.14-1.03-.64-1.06-.21-.01-.41.07-.59.17-.67.37-1.21.95-1.5,1.61-.09-.85-.38-1.68-.87-2.42-.09-.13-.2-.28-.37-.3-.21-.02-.38.15-.49.32-.47.71-.66,1.58-.51,2.4-.53-.68-1.07-1.37-1.8-1.87-.73-.5-1.7-.8-2.59-.58.54.83,1.16,1.61,1.86,2.34-1.33-1.6-4.14-2-5.95-.84.25.35.6.63,1.02.81-.19-.03-.39-.03-.59-.01-.92-.36-1.79-.82-2.59-1.37-.77.86-.48,2.31.57,2.88-.92-.33-1.94-.43-2.92-.31-.2.03-.42.07-.56.2-.15.14-.19.34-.2.53-.06.98.55,1.96,1.5,2.44-.63.12-1.25.3-1.83.54-.2.08-.4.18-.53.33-.28.33-.13.83.19,1.12.09.08.19.15.3.21-1.33-.16-2.66-.32-3.99-.48-.27-.03-.54-.06-.8,0-.99.28-.8,1.58-.4,2.45-.95-.28-2.02-.56-2.91-.15-.89.41-1.1,1.83-.15,2.1-1.12-.03-2.25.41-2.98,1.17-.26.27-.22.89.14.76-1.19.17-2.27.88-2.83,1.84-1.43.12-2.87.17-4.3.15.57,1.58,2.4,2.7,4.24,2.66-.61.24-.89,1.23-.32,1.69.7.57,1.91.26,2.47-.43.37.77,1.41,1.15,2.34,1.09.93-.06,1.8-.45,2.63-.84-.6.71.41,1.91,1.34,1.59.25-.09.48-.25.74-.21.4.07.49.57.82.78.42.26.97-.04,1.44-.22,1.64-.61,3.99.24,5.04-1.05l18.44,2.27c10.07-.62,20.09-1.83,29.99-3.62,1.12-.2,2.27-.43,3.17-1.06,1.08-.76,1.61-1.96,2.09-3.11,1.84-4.38,3.68-8.77,5.52-13.15.49-1.17.97-2.52.32-3.63ZM124.09,298.85v-.02s.08.02.12.03c-.04,0-.08-.01-.12-.02Z"/>
</svg>