<?xml version="1.0" encoding="UTF-8"?>
<svg id="Capa_1" data-name="Capa 1" xmlns="http://www.w3.org/2000/svg" xmlns:xlink="http://www.w3.org/1999/xlink" viewBox="0 0 501 727">
  <defs>
    <style>
      .cls-1 {
        fill: url(#Degradado_sin_nombre_17);
      }

      .cls-1, .cls-2, .cls-3, .cls-4, .cls-5, .cls-6, .cls-7, .cls-8, .cls-9, .cls-10, .cls-11, .cls-12, .cls-13, .cls-14, .cls-15, .cls-16, .cls-17, .cls-18, .cls-19, .cls-20, .cls-21, .cls-22, .cls-23, .cls-24 {
        stroke-width: 0px;
      }

      .cls-2 {
        fill: #a6c8dd;
      }

      .cls-3 {
        fill: #416d25;
      }

      .cls-4 {
        fill: #8ab270;
      }

      .cls-5 {
        fill: #a6c98f;
      }

      .cls-6 {
        fill: #000;
      }

      .cls-7 {
        fill: #192047;
      }

      .cls-8 {
        fill: #252e51;
      }

      .cls-9 {
        fill: #9a67b7;
      }

      .cls-10 {
        fill: #2c4919;
      }

      .cls-25 {
        stroke: #417235;
      }

      .cls-25, .cls-26, .cls-27, .cls-28, .cls-29 {
        stroke-miterlimit: 10;
      }

      .cls-25, .cls-21 {
        fill: #fff;
      }

      .cls-26 {
        fill: #e5b3db;
      }

      .cls-26, .cls-27, .cls-28, .cls-29 {
        stroke: #000;
      }

      .cls-11 {
        fill: #74a555;
      }

      .cls-12 {
        fill: #11000e;
      }

      .cls-27 {
        fill: none;
      }

      .cls-13 {
        fill: #b0ae6e;
      }

      .cls-28 {
        fill: #d375cc;
      }

      .cls-14 {
        fill: #80b25f;
      }

      .cls-15 {
        fill: #578738;
      }

      .cls-16 {
        fill: #bbd8a9;
      }

      .cls-29 {
        fill: #b679cc;
      }

      .cls-17 {
        fill: #496b2c;
      }

      .cls-18 {
        fill: #759e5a;
      }

      .cls-19 {
        fill: #5088aa;
      }

      .cls-20 {
        fill: #639cc6;
      }

      .cls-22 {
        fill: #d5d6a1;
      }

      .cls-23 {
        fill: #e57fca;
      }

      .cls-24 {
        fill: #e889d2;
      }
    </style>
    <radialGradient id="Degradado_sin_nombre_17" data-name="Degradado sin nombre 17" cx="502.82" cy="733.49" fx="502.82" fy="733.49" r="200.51" gradientTransform="translate(-47.4 -203.35) scale(.59 .57)" gradientUnits="userSpaceOnUse">
      <stop offset=".62" stop-color="#82b362"/>
      <stop offset=".92" stop-color="#a4c88d"/>
    </radialGradient>
  </defs>
  <rect class="cls-16" width="501" height="727" rx="84.32" ry="84.32"/>
  <g>
    <g>
      <ellipse class="cls-10" cx="303.27" cy="351.26" rx="4.62" ry="5.23" transform="translate(-140.24 214.69) rotate(-32.08)"/>
      <ellipse class="cls-10" cx="309.06" cy="355.24" rx="4.62" ry="5.23" transform="translate(-141.47 218.37) rotate(-32.08)"/>
      <ellipse class="cls-10" cx="308.17" cy="361.1" rx="4.62" ry="5.23" transform="translate(-144.72 218.79) rotate(-32.08)"/>
    </g>
    <g>
      <ellipse class="cls-10" cx="201.04" cy="353.14" rx="5.23" ry="4.62" transform="translate(-204.95 335.94) rotate(-57.92)"/>
      <ellipse class="cls-10" cx="195.25" cy="357.12" rx="5.23" ry="4.62" transform="translate(-211.04 332.91) rotate(-57.92)"/>
      <ellipse class="cls-10" cx="196.14" cy="362.99" rx="5.23" ry="4.62" transform="translate(-215.59 336.41) rotate(-57.92)"/>
    </g>
    <ellipse class="cls-3" cx="363.5" cy="261.81" rx="39.55" ry="49.96"/>
    <ellipse class="cls-3" cx="148.18" cy="269.28" rx="39.55" ry="49.96"/>
    <ellipse class="cls-3" cx="125.58" cy="215.01" rx="35.99" ry="33.6"/>
    <g>
      <g>
        <path id="P1_cola" data-name="P1 cola" class="cls-18" d="M253.67,471.32c-.91,3.25-1.82,7.13-2.49,11.52-.96,6.36-1.42,13.79-.64,21.94,2.42,25.33,15.27,42.19,21.44,49.27,0,0,39.2,41.36,66.19,27.59,2.71-2.16,20.25-16.26,17.45-21.06-1.82-3.11-12.55-2.89-18.4-1.38-.68.18-2.03.56-4.08.98-7.49,1.55-14.06,1.53-19.1,1.07-8.29-3.32-26.85-12.14-39.92-32.26-8.02-12.35-11.02-24.39-12.25-32.28.23-3.26.9-7.7,2.69-12.75,1.75-4.91,4-8.79,5.87-11.54-5.59-.36-11.18-.73-16.77-1.09Z"/>
        <path class="cls-10" d="M252.59,475.54c.72,1,2.51,3.16,5.75,4.46,3.41,1.36,6.51,1,7.8.78-.84,2.06-1.69,4.12-2.53,6.18-4.26-.54-8.51-1.07-12.77-1.61.58-3.27,1.17-6.54,1.75-9.81Z"/>
        <path class="cls-10" d="M250.15,495.5s8.64-2.67,11.85-.21c0,0,.08,5.82.91,6.88,0,0-10.63-3.5-12.65-1.24l-.11-5.43Z"/>
        <path class="cls-10" d="M251.87,513.73s2.88-6.46,14.18-.88c0,0,1.2,3.18,1.97,4.88,0,0-12.83-1.72-14.84,1.5l-1.31-5.5Z"/>
        <path class="cls-10" d="M257.2,530.67s6.69-7.09,14.79-5.15c0,0,2.74,4.45,3.69,5.78,0,0-12.44-1.47-15.28,6.01l-3.2-6.63Z"/>
        <path class="cls-10" d="M266.84,547.58s3.74-9.61,14.97-8.59c0,0,4.77,4.86,5.51,5.55,0,0-16.53,1.86-15.96,8.78l-4.52-5.74Z"/>
        <path class="cls-10" d="M294.82,550.66s-13.4,4.8-9.42,15.17l6.56,5.15s.2-13.47,9.57-15.91l-6.71-4.41Z"/>
        <path class="cls-10" d="M310.33,559.66s-11.58,5.83-7.65,17.93l8.09,3.71s-4.23-13.02,4.86-19.94l-5.29-1.71Z"/>
        <path class="cls-10" d="M328.08,561.01s-17.53,6.86-3.25,23.41l7.29-.63s-6.04-11.93,2.4-23.92l-6.44,1.14Z"/>
      </g>
      <path class="cls-10" d="M344.16,558.18c1.19,4.97,2.38,9.93,3.57,14.9,1.33-1.09,3.11-2.75,4.84-5.07,1.9-2.55,4.1-5.49,3.06-7.43-.55-1.02-1.77-1.35-3.87-1.88-3.05-.77-5.73-.72-7.6-.52Z"/>
    </g>
    <ellipse class="cls-15" cx="215.99" cy="321.25" rx="21.12" ry="20.39"/>
    <ellipse class="cls-15" cx="320.08" cy="309.19" rx="21.12" ry="20.39"/>
    <ellipse class="cls-3" cx="316.51" cy="302.87" rx="25.28" ry="21.54"/>
    <ellipse class="cls-3" cx="215.99" cy="310.91" rx="25.28" ry="21.54"/>
    <ellipse class="cls-15" cx="182.09" cy="306.32" rx="21.12" ry="20.39"/>
    <ellipse class="cls-15" cx="283.8" cy="318.38" rx="21.12" ry="20.39"/>
    <ellipse class="cls-15" cx="149.37" cy="161.02" rx="35.99" ry="33.6"/>
    <ellipse class="cls-15" cx="359.93" cy="262.96" rx="39.55" ry="49.96"/>
    <ellipse class="cls-15" cx="367.07" cy="206.39" rx="35.99" ry="33.6"/>
    <ellipse class="cls-15" cx="362.91" cy="160.45" rx="35.99" ry="33.6"/>
    <ellipse class="cls-15" cx="323.65" cy="123.12" rx="38.96" ry="37.62"/>
    <ellipse class="cls-15" cx="257.63" cy="119.68" rx="35.99" ry="33.6"/>
    <ellipse class="cls-15" cx="182.68" cy="116.8" rx="35.99" ry="33.6"/>
    <ellipse class="cls-15" cx="150.56" cy="263.53" rx="39.55" ry="49.96"/>
    <ellipse class="cls-15" cx="124.99" cy="206.39" rx="35.99" ry="33.6"/>
    <ellipse class="cls-15" cx="232.64" cy="103.6" rx="35.99" ry="33.6"/>
    <ellipse class="cls-15" cx="280.82" cy="104.17" rx="35.99" ry="33.6"/>
    <path class="cls-15" d="M371.85,220.51c-.13,1.74-4.8,19.1-14.14,53.83-4.53,16.85-7.3,26.57-16.71,34.69-4.79,4.13-10.33,7.01-29.56,11.96-30,7.72-45,11.58-62.98,10.77-22.6-1.03-38.69-7.25-53.99-13.16-15.54-6.01-26.01-10.19-34.7-20.34-6.53-7.62-8.62-14.59-12.85-28.71-15.42-51.42-15.41-51.33-15.42-51.44-5.13-38.07,40.83-114.63,120.82-114.24,79.06.39,122.51,75.61,119.54,116.63Z"/>
    <path class="cls-5" d="M182.17,436.02h0c-5.98-1.9-9.26-8.17-7.3-13.95l20.94-61.49c1.97-5.77,8.47-8.94,14.44-7.04h0c5.98,1.9,9.26,8.17,7.3,13.95l-20.94,61.49c-1.97,5.77-8.47,8.94-14.44,7.04Z"/>
    <path class="cls-5" d="M183.07,507.42h0c-6.3-.05-11.4-5.17-11.34-11.37l.6-64.28c.06-6.2,5.25-11.22,11.54-11.17h0c6.3.05,11.4,5.17,11.34,11.37l-.6,64.28c-.06,6.2-5.25,11.22-11.54,11.17Z"/>
    <path class="cls-5" d="M319.63,434.86h0c6-1.85,9.34-8.09,7.43-13.88l-20.37-61.67c-1.91-5.79-8.38-9.02-14.38-7.17h0c-6,1.85-9.34,8.09-7.43,13.88l20.37,61.67c1.91,5.79,8.38,9.02,14.38,7.17Z"/>
    <rect class="cls-5" x="306.62" y="419.43" width="22.89" height="86.82" rx="10.07" ry="10.07" transform="translate(636.12 925.69) rotate(180)"/>
    <path class="cls-1" d="M371.98,220.52c-.13,1.74-4.8,19.1-14.14,53.83-4.53,16.85-7.3,26.57-16.71,34.69-4.79,4.13-10.33,7.01-29.56,11.96-30,7.72-45,11.58-62.98,10.77-22.6-1.03-38.69-7.25-53.99-13.16-15.54-6.01-26.01-10.19-34.7-20.34-6.53-7.62-8.62-14.59-12.85-28.71-15.42-51.42-15.41-51.33-15.42-51.44-5.13-38.07,40.83-114.63,120.82-114.24,79.06.39,122.51,75.61,119.54,116.63Z"/>
    <rect class="cls-5" x="230.56" y="320.96" width="42.83" height="28.71" rx="12" ry="12"/>
    <rect class="cls-5" x="192.5" y="343.93" width="118.37" height="143" rx="49.71" ry="49.71"/>
    <path class="cls-5" d="M307.94,361.84c1.96,7.21-2.5,14.59-9.97,16.48-7.47,1.89-15.11-2.42-17.07-9.63s2.5-14.59,9.97-16.48c7.47-1.89,15.11,2.42,17.07,9.63Z"/>
    <path class="cls-5" d="M221.09,362.97c1.96,7.21-2.5,14.59-9.97,16.48-7.47,1.89-15.11-2.42-17.07-9.63-1.96-7.21,2.5-14.59,9.97-16.48,7.47-1.89,15.11,2.42,17.07,9.63Z"/>
    <path class="cls-5" d="M228.14,567.48h0c-9.02-.08-16.34-7.42-16.26-16.3l.61-65.92c.08-8.88,7.53-16.09,16.55-16.01h0c9.02.08,16.34,7.42,16.26,16.3l-.61,65.92c-.08,8.88-7.53,16.09-16.55,16.01Z"/>
    <path class="cls-5" d="M227.4,643.28h0c-9.02-.08-16.34-7.42-16.26-16.3l.61-65.92c.08-8.88,7.53-16.09,16.55-16.01h0c9.02.08,16.34,7.42,16.26,16.3l-.61,65.92c-.08,8.88-7.53,16.09-16.55,16.01Z"/>
    <path class="cls-5" d="M278.93,565.75h0c-9.02-.08-16.34-7.42-16.26-16.3l.61-65.92c.08-8.88,7.53-16.09,16.55-16.01h0c9.02.08,16.34,7.42,16.26,16.3l-.61,65.92c-.08,8.88-7.53,16.09-16.55,16.01Z"/>
    <path class="cls-5" d="M278.18,641.55h0c-9.02-.08-16.34-7.42-16.26-16.3l.61-65.92c.08-8.88,7.53-16.09,16.55-16.01h0c9.02.08,16.34,7.42,16.26,16.3l-.61,65.92c-.08,8.88-7.53,16.09-16.55,16.01Z"/>
    <rect class="cls-5" x="182.68" y="614.71" width="60.67" height="29.29" rx="13.08" ry="13.08"/>
    <ellipse class="cls-5" cx="226.99" cy="629.07" rx="16.36" ry="14.36"/>
    <rect class="cls-5" x="262.98" y="612.41" width="60.67" height="29.29" rx="13.08" ry="13.08" transform="translate(586.63 1254.12) rotate(180)"/>
    <ellipse class="cls-5" cx="279.34" cy="626.77" rx="16.36" ry="14.36"/>
    <path class="cls-5" d="M161.9,300.37c-2.45.75-5.04,1.2-7.73,1.28-16.4.52-30.14-12.44-30.71-28.95-.41-12.07,6.34-22.7,16.4-27.75"/>
    <path class="cls-5" d="M365.59,245.38c2.41.87,4.73,2.06,6.9,3.6,13.23,9.36,15.77,27.75,5.66,41.08-7.39,9.75-19.5,14.09-30.64,12.06"/>
    <ellipse class="cls-25" cx="196.96" cy="235.68" rx="33.9" ry="32.73"/>
    <ellipse class="cls-25" cx="300.45" cy="236.26" rx="33.9" ry="32.73"/>
    <ellipse class="cls-17" cx="202.61" cy="241.14" rx="17.25" ry="16.65"/>
    <ellipse class="cls-21" cx="210.64" cy="236.26" rx="5.06" ry="4.88"/>
    <ellipse class="cls-17" cx="293.61" cy="241.14" rx="17.25" ry="16.65"/>
    <ellipse class="cls-21" cx="286.18" cy="236.26" rx="5.06" ry="4.88"/>
    <path class="cls-17" d="M218.54,190.01c-4.68-1.23-8.62-1.58-11.38-1.66-4.66-.13-19.62-.56-29.79,9.9-1.85,1.9-3.12,3.73-3.9,4.98,1.44-.79,11.06-6.04,19.94-8.6,1.99-.57,7-1.98,12.41-1.87.51.01.85.05,1.35.05,3.06,0,6.39.56,9.69,1.41,1.49.35,2.82-.65,2.99-1.85.12-.89-.4-1.86-1.3-2.36Z"/>
    <path class="cls-17" d="M277.58,189.96c4.68-1.23,8.62-1.58,11.38-1.66,4.66-.13,19.62-.56,29.79,9.9,1.85,1.9,3.12,3.73,3.9,4.98-1.44-.79-11.06-6.04-19.94-8.6-1.99-.57-7-1.98-12.41-1.87-.51.01-.85.05-1.35.05-3.06,0-6.39.56-9.69,1.41-1.49.35-2.82-.65-2.99-1.85-.12-.89.4-1.86,1.3-2.36Z"/>
    <path class="cls-17" d="M247.93,296.58c1.23.13,5.38.51,10.76-.47,11.43-2.07,18.94-8.54,22.26-11.82-8.8,3.74-16.1,5.78-21.17,6.95-4.38,1.01-7.68,1.5-11.59,1.33-.93-.04-4.61-.23-10.01-1.79-8.96-2.58-13.71-6.34-13.89-6.06-.28.41,9.26,10.32,23.63,11.86Z"/>
    <path class="cls-17" d="M286.98,281.65c-.04-.15-.19-.64-.57-1.2-.81-1.2-2.02-1.73-2.61-1.95.91.82,1.52,1.55,1.92,2.07.34.45.56.8.72,1.25.04.11.19.54.23,1.23.08,1.15-.19,1.87-.15,1.88.07.01.93-1.56.46-3.28Z"/>
    <path class="cls-17" d="M220.08,280.67c-.09.11-.36.48-.5,1.09-.3,1.29.26,2.58.58,3.18-.09-1.18,0-2.07.09-2.66.08-.51.19-.88.42-1.25.06-.09.28-.43.8-.83.86-.66,1.67-.81,1.64-.85-.05-.06-2.03.03-3.02,1.31Z"/>
    <ellipse class="cls-14" cx="330.19" cy="280.19" rx="6.25" ry="6.32"/>
    <ellipse class="cls-14" cx="340.01" cy="244.87" rx="4.16" ry="3.16"/>
    <ellipse class="cls-11" cx="342.68" cy="257.22" rx="6.34" ry="4.44" transform="translate(-21.76 482.54) rotate(-68.62)"/>
    <ellipse class="cls-14" cx="331.08" cy="263.53" rx="3.57" ry="3.45"/>
    <ellipse class="cls-14" cx="340.01" cy="272.15" rx="3.57" ry="5.17"/>
    <ellipse class="cls-14" cx="353.98" cy="236.26" rx="4.91" ry="3.25" transform="translate(-9.7 457.3) rotate(-65.01)"/>
    <ellipse class="cls-11" cx="350.12" cy="264.97" rx="4.1" ry="3.21" transform="translate(-88.07 293.01) rotate(-40.78)"/>
    <ellipse class="cls-11" cx="345.96" cy="237.69" rx="2.97" ry="2.87"/>
    <ellipse class="cls-14" cx="350.71" cy="246.59" rx="4.11" ry="3.2" transform="translate(-78.01 246.93) rotate(-35.16)"/>
    <ellipse class="cls-14" cx="353.39" cy="255.49" rx="4.05" ry="2.07" transform="translate(-34.64 454.48) rotate(-63.01)"/>
    <ellipse class="cls-11" cx="313.84" cy="275.59" rx="6.54" ry="6.32"/>
    <ellipse class="cls-14" cx="167.87" cy="281.32" rx="6.25" ry="6.32"/>
    <ellipse class="cls-14" cx="158.05" cy="246" rx="4.16" ry="3.16"/>
    <ellipse class="cls-11" cx="155.38" cy="258.35" rx="4.44" ry="6.34" transform="translate(-83.49 74.43) rotate(-21.38)"/>
    <ellipse class="cls-14" cx="166.97" cy="264.67" rx="3.57" ry="3.45"/>
    <ellipse class="cls-14" cx="158.05" cy="273.28" rx="3.57" ry="5.17"/>
    <ellipse class="cls-14" cx="144.07" cy="237.39" rx="3.25" ry="4.91" transform="translate(-86.8 83.09) rotate(-24.99)"/>
    <ellipse class="cls-11" cx="147.94" cy="266.1" rx="3.21" ry="4.1" transform="translate(-150.19 204.32) rotate(-49.22)"/>
    <ellipse class="cls-11" cx="152.1" cy="238.82" rx="2.97" ry="2.87"/>
    <ellipse class="cls-14" cx="147.35" cy="247.73" rx="3.2" ry="4.11" transform="translate(-140.03 225.55) rotate(-54.84)"/>
    <ellipse class="cls-14" cx="144.67" cy="256.63" rx="2.07" ry="4.05" transform="translate(-100.7 93.58) rotate(-26.99)"/>
    <ellipse class="cls-11" cx="184.22" cy="276.73" rx="6.54" ry="6.32"/>
    <path class="cls-4" d="M230.56,329.72c6.14,1.48,11.27,1.98,14.87,2.15,5.09.24,9.04-.07,15.46-.57,5.21-.41,9.5-.92,12.49-1.32v10.47l-42.83.27v-11Z"/>
    <rect class="cls-20" x="192.5" y="343.93" width="118.37" height="143" rx="49.71" ry="49.71"/>
    <path class="cls-19" d="M220.8,360.96c1.96,7.21-2.5,14.59-9.97,16.48-7.47,1.89-15.11-2.42-17.07-9.63-1.96-7.21,2.5-14.59,9.97-16.48,7.47-1.89,15.11,2.42,17.07,9.63Z"/>
    <path class="cls-19" d="M181.68,437.22h0c-5.98-1.9-9.26-8.17-7.3-13.95l20.94-61.49c1.97-5.77,8.47-8.94,14.44-7.04h0c5.98,1.9,9.26,8.17,7.3,13.95l-20.94,61.49c-1.97,5.77-8.47,8.94-14.44,7.04Z"/>
    <path class="cls-19" d="M283,360.97c-1.96,7.21,2.5,14.59,9.97,16.48,7.47,1.89,15.11-2.42,17.07-9.63,1.96-7.21-2.5-14.59-9.97-16.48s-15.11,2.42-17.07,9.63Z"/>
    <path class="cls-19" d="M322.11,437.22h0c5.98-1.9,9.26-8.17,7.3-13.95l-20.94-61.49c-1.97-5.77-8.47-8.94-14.44-7.04h0c-5.98,1.9-9.26,8.17-7.3,13.95l20.94,61.49c1.97,5.77,8.47,8.94,14.44,7.04Z"/>
    <path class="cls-22" d="M227.91,569.29h0c-9.02-.08-16.34-7.42-16.26-16.3l.61-65.92c.08-8.88,7.53-16.09,16.55-16.01h0c9.02.08,16.34,7.42,16.26,16.3l-.61,65.92c-.08,8.88-7.53,16.09-16.55,16.01Z"/>
    <path class="cls-22" d="M278.47,569.29h0c-9.02-.08-16.34-7.42-16.26-16.3l.61-65.92c.08-8.88,7.53-16.09,16.55-16.01h0c9.02.08,16.34,7.42,16.26,16.3l-.61,65.92c-.08,8.88-7.53,16.09-16.55,16.01Z"/>
    <rect class="cls-13" x="237.18" y="413.85" width="27.02" height="119.15" rx="12.07" ry="12.07" transform="translate(-222.73 724.12) rotate(-90)"/>
    <rect class="cls-7" x="263.28" y="612.7" width="60.67" height="29.29" rx="13.08" ry="13.08"/>
    <ellipse class="cls-15" cx="273.69" cy="116.23" rx="35.99" ry="33.6"/>
    <ellipse class="cls-3" cx="210.64" cy="109.91" rx="35.99" ry="33.6"/>
    <ellipse class="cls-3" cx="133.31" cy="173.08" rx="35.99" ry="33.6"/>
    <ellipse class="cls-3" cx="161.86" cy="143.8" rx="35.99" ry="33.6"/>
    <ellipse class="cls-3" cx="354.58" cy="167.92" rx="35.99" ry="33.6"/>
    <ellipse class="cls-3" cx="322.46" cy="134.03" rx="35.99" ry="33.6"/>
    <ellipse class="cls-15" cx="213.02" cy="116.23" rx="35.99" ry="33.6"/>
    <ellipse class="cls-15" cx="183.28" cy="119.68" rx="35.99" ry="33.6"/>
    <ellipse class="cls-15" cx="135.69" cy="179.98" rx="35.99" ry="33.6"/>
    <ellipse class="cls-15" cx="351.01" cy="172.51" rx="35.99" ry="33.6"/>
    <ellipse class="cls-15" cx="318.3" cy="138.05" rx="35.99" ry="33.6"/>
    <ellipse class="cls-15" cx="167.22" cy="144.37" rx="35.99" ry="33.6"/>
    <ellipse class="cls-15" cx="362.31" cy="203.52" rx="21.12" ry="20.39"/>
    <ellipse class="cls-15" cx="131.53" cy="211.56" rx="21.12" ry="20.39"/>
    <ellipse class="cls-10" cx="171.98" cy="486.65" rx="5.65" ry="5.46"/>
    <ellipse class="cls-10" cx="167.81" cy="492.96" rx="5.65" ry="5.46"/>
    <ellipse class="cls-10" cx="171.98" cy="498.13" rx="5.65" ry="5.46"/>
    <ellipse class="cls-10" cx="328.41" cy="486.65" rx="5.65" ry="5.46"/>
    <ellipse class="cls-10" cx="332.57" cy="492.96" rx="5.65" ry="5.46"/>
    <ellipse class="cls-10" cx="328.41" cy="498.13" rx="5.65" ry="5.46"/>
    <path class="cls-5" d="M199.82,489l.08,1.46c.14,2.61-1.98,4.85-4.71,4.99-.13,0-.26,0-.38,0l.19,3.66c.26,4.81-3.66,8.95-8.7,9.2l-4.58.23c-5.04.25-9.37-3.48-9.63-8.3l-.43-8.02c-.26-4.81,3.66-8.95,8.7-9.2l4.58-.23c2.72-.13,5.23.89,7,2.61.75-.52,1.66-.85,2.65-.9,1.37-.07,2.64.4,3.58,1.22.95.81,1.57,1.97,1.64,3.27Z"/>
    <path class="cls-5" d="M302.57,487.37l-.08,1.43c-.14,2.57,1.94,4.77,4.62,4.9.13,0,.25,0,.38,0l-.19,3.6c-.25,4.73,3.58,8.81,8.53,9.05l4.49.22c4.94.25,9.19-3.43,9.44-8.16l.42-7.89c.25-4.73-3.58-8.81-8.53-9.05l-4.49-.22c-2.67-.13-5.13.87-6.87,2.57-.73-.51-1.63-.84-2.6-.88-1.34-.07-2.59.4-3.51,1.2-.93.8-1.54,1.94-1.61,3.22Z"/>
    <rect class="cls-7" x="182.38" y="614.42" width="60.67" height="29.29" rx="13.08" ry="13.08"/>
    <path class="cls-8" d="M228.33,614.42h-7.72c.33,2.11.45,4.25.32,6.36-.44,7.28-3.85,13.17-9.49,17.93-2.34,1.97-4.85,3.6-7.47,4.99h24.36c8.34,0,15.17-6.59,15.17-14.64h0c0-8.05-6.83-14.64-15.17-14.64Z"/>
    <g>
      <path class="cls-2" d="M249.03,409.66s-6.47-19.79-21.22-8.08c0,0-10.38,8.9-5.6,15.69,0,0,10.15,9.18,20.13,4.09l1.04.98s-2.88,5.17.92,5.49c0,0,2.69,1.12,3.67.53s-.61,0-.61,0c0,0,9.38,5.87,17.72.78,0,0,2.3-1.48,1.1-2.54h1.25s6.41,1.61,9.78-1.95c0,0,3.1-2.56-2.88-3.25,0,0,6.6-4.76,3.68-8.48,0,0-3.64,3.2-7.92,3.08,0,0-6.62-12.59-21.07-6.35Z"/>
      <g>
        <path class="cls-26" d="M247.98,412.84c-.24-7.31-4.29-13-9.43-14.12-1.03-.22-3.42-.55-6.57.85-1.07.63-2.27,1.46-3.49,2.55-2.52,2.27-3.98,4.71-4.82,6.44,0,0-3.29,5.21,0,8.02,0,0,8.31,7.69,18.66,3.42l2.67,1.53s-2.35,2.44-1.73,4.12c0,0,2.04,2.1,5.25,1.28,0,0,3.06,3.91,11.68,2.23,0,0,5.02-.61,4.86-1.98l-2.67-1.68s3.76-.46,3.76-1.07c0,0,1.25,2.9,8.63.61,0,0,2.51-.92,2.35-1.98,0,0-.47-1.37-4.86-1.68v-.46s5.5-2.35,4.87-6.59c0,0-4.08,2.93-7.38,2.17,0,0-1.1-3.36-6.74-6.1-.4-.23-6.72-3.65-11.92-.61-1.5.88-2.49,2.05-3.14,3.05Z"/>
        <path class="cls-29" d="M246.88,415.43s13.7,4.11,21.67-.92c-.88-1.13-1.76-1.94-2.46-2.51-4.04-3.27-9.81-4.52-13.17-3.05-.82.36-1.73.92-1.73.92-1.49.92-2.54,1.92-3.22,2.68-.36.96-.73,1.93-1.09,2.89Z"/>
        <path class="cls-28" d="M245.55,417.8s9.88,6.1,24.23-1.3c0,0-.34-1.46-1.23-1.99-2.65,1.18-4.98,1.74-6.63,2.03-4.35.76-7.82.3-9.79.03-2.2-.31-3.99-.77-5.25-1.14-.44.79-.89,1.58-1.33,2.36Z"/>
        <path class="cls-28" d="M262.41,425.5s3.37-.08,3.76-1.07l-.39-2.82s-5.02,2.59-10.82,1.22c0,0,5.49,2.9,7.45,2.67Z"/>
        <ellipse class="cls-12" cx="234.26" cy="409.18" rx="2.67" ry="3.13"/>
        <ellipse class="cls-21" cx="233.79" cy="408.04" rx="1.22" ry=".94" transform="translate(-222.21 523) rotate(-74.34)"/>
        <ellipse class="cls-23" cx="238.18" cy="414.82" rx="2.67" ry="1.3"/>
        <path class="cls-24" d="M233.95,400.02s-2.82,1.54,0,.96c0,0,1.85-1.56,4.85,0,0,0,1.69.79.77-.96,0,0-4.36-1-5.62,0Z"/>
        <ellipse class="cls-24" cx="231.59" cy="402.24" rx=".78" ry=".76"/>
        <path class="cls-9" d="M247.53,413.73s11.49,3.29,19.78-.55c0,0,1.12.88,1.25,1.34,0,0-7.56,4.58-21.67.92l.64-1.71Z"/>
        <path class="cls-27" d="M250.01,410.58s4.8,1.73,4.95,6.31c0,0-6.19-.84-8.08-1.45l1.08-3.18,2.05-1.67Z"/>
        <path class="cls-27" d="M259.71,408.81s-6.42,2.19-6.56,3.87c0,0-1.58-1.62-3.14-2.1,0,0,4.48-3.51,9.7-1.77Z"/>
        <path class="cls-27" d="M263.58,416.21s-.93-6.24-3.87-7.4c0,0,6.37,1.89,8.85,5.71,0,0-3.97,1.85-4.98,1.69Z"/>
        <path class="cls-27" d="M265.07,411.29s-2.34-1.21-2.42,1.39c0,0-.95-3.02-2.95-3.87,0,0,4.42,1.23,5.37,2.48Z"/>
        <path class="cls-27" d="M245,421.54s2.42,2.07,3.88,2.03c0,0-.11-1.59.83-1.81,0,0-.94-1.02-1.18,5.18"/>
        <path class="cls-6" d="M226.89,414.4s.26,3.09,3.96,1.36c0,0-3.1.94-3.96-1.36Z"/>
        <path class="cls-27" d="M242.34,420.01s2.43-.84,3.22-2.21"/>
        <path class="cls-27" d="M259.71,423.19s1.76.21,1.76,2.26"/>
        <path class="cls-27" d="M263.53,422.47s1.32,1.25,1.28,2.67"/>
        <ellipse class="cls-23" cx="251.9" cy="426.19" rx="1.25" ry=".99"/>
        <ellipse class="cls-23" cx="267.43" cy="424.36" rx="1.25" ry=".99"/>
        <ellipse class="cls-23" cx="244.3" cy="424.05" rx="1.16" ry=".7" transform="translate(-237.49 338.14) rotate(-49.94)"/>
        <ellipse class="cls-23" cx="258.02" cy="427.41" rx=".94" ry=".53"/>
        <ellipse class="cls-23" cx="270.57" cy="421.92" rx=".47" ry=".53"/>
        <ellipse class="cls-23" cx="274.33" cy="423.59" rx=".94" ry=".53"/>
      </g>
    </g>
    <g>
      <ellipse class="cls-2" cx="279.77" cy="405.64" rx="3.73" ry="3.16"/>
      <ellipse class="cls-21" cx="281.78" cy="403.94" rx=".57" ry=".49"/>
      <ellipse class="cls-21" cx="282.63" cy="405.88" rx=".22" ry=".08" transform="translate(-93.76 85.03) rotate(-14.7)"/>
      <ellipse class="cls-21" cx="282.42" cy="405.11" rx=".51" ry=".29"/>
    </g>
    <g>
      <ellipse class="cls-2" cx="225.81" cy="391.1" rx="3.48" ry="2.75"/>
      <ellipse class="cls-21" cx="227.68" cy="389.62" rx=".54" ry=".42"/>
      <ellipse class="cls-21" cx="228.47" cy="391.31" rx=".21" ry=".07" transform="translate(-84.76 63.88) rotate(-13.45)"/>
      <ellipse class="cls-21" cx="228.28" cy="390.64" rx=".48" ry=".25"/>
    </g>
    <g>
      <ellipse class="cls-2" cx="283.72" cy="416.39" rx="1.57" ry="1.37"/>
      <ellipse class="cls-21" cx="284.56" cy="415.65" rx=".24" ry=".21"/>
      <ellipse class="cls-21" cx="284.92" cy="416.5" rx=".09" ry=".04" transform="translate(-99.83 89.97) rotate(-15.3)"/>
      <ellipse class="cls-21" cx="284.83" cy="416.16" rx=".22" ry=".13"/>
    </g>
    <g>
      <ellipse class="cls-2" cx="227.16" cy="433.93" rx="2.81" ry="2.47"/>
      <ellipse class="cls-21" cx="228.67" cy="432.6" rx=".43" ry=".38"/>
      <ellipse class="cls-21" cx="229.31" cy="434.12" rx=".17" ry=".06" transform="translate(-106.9 76.34) rotate(-15.38)"/>
      <ellipse class="cls-21" cx="229.15" cy="433.51" rx=".39" ry=".23"/>
    </g>
    <path class="cls-8" d="M276.88,612.13h7.72c-.33,2.11-.45,4.25-.32,6.36.44,7.28,3.85,13.17,9.49,17.93,2.34,1.97,4.85,3.6,7.47,4.99h-24.36c-8.34,0-15.17-6.59-15.17-14.64h0c0-8.05,6.83-14.64,15.17-14.64Z"/>
  </g>
  <g>
    <path class="cls-3" d="M183.15,701.54c-.84,0-1.54-.44-2.09-1.31-.47-.75-.89-2-1.27-3.75l-.84-4.03c-.64-2.5-1.66-8.02-3.05-16.55l-4.69,14.13-1.38,4.45c-.56,1.77-1.15,3.21-1.76,4.34-.66,1.19-1.54,1.78-2.65,1.78-.92,0-1.65-.5-2.18-1.5-.34-.66-.66-1.49-.94-2.51l-.68-2.6c-1.58-5.52-2.97-11.42-4.17-17.72l-.84,4.2-3.02,12.38c-.12,1.45-.52,3.6-1.17,6.45-.47,1.22-1.24,1.83-2.32,1.83-.77,0-1.38-.27-1.83-.82-.39-.47-.59-1.05-.59-1.73,0-2.61.54-5.81,1.62-9.61l2.58-9.45,1.36-7.38c.69-3.45,1.41-5.71,2.18-6.77.62-.91,1.4-1.36,2.32-1.36,1.02,0,1.77.58,2.27,1.73.61,1.39,1.27,4.23,1.97,8.51.83,5.14,2.12,10.7,3.87,16.69,2.31-6.02,4.31-12.28,6-18.8l.7-3.42c.28-1.38.65-2.48,1.1-3.33.61-1.16,1.45-1.73,2.51-1.73,1.34,0,2.37,1.3,3.07,3.89.25.89.55,2.73.91,5.53.92,7.06,2.07,13.09,3.45,18.09l1.15,4.03c.59,2.16.89,3.48.89,3.98,0,.67-.25,1.23-.76,1.69s-1.08.68-1.72.68Z"/>
    <path class="cls-3" d="M196.23,688.96c0,.94.03,2.34.08,4.21s.08,3.27.08,4.21c0,.69-.21,1.25-.63,1.69s-.98.66-1.66.66-1.22-.22-1.65-.66-.64-1-.64-1.69c0-.94-.03-2.34-.08-4.21s-.08-3.27-.08-4.21c0-1.47.08-3.3.23-5.5s.23-4.03.23-5.5c0-.7.21-1.27.64-1.71s.98-.66,1.65-.66,1.22.22,1.65.66.64,1.01.64,1.71c0,1.47-.08,3.3-.23,5.5s-.23,4.03-.23,5.5ZM195.17,669.92c-.75,0-1.4-.27-1.95-.8s-.82-1.17-.82-1.92.27-1.39.82-1.92,1.2-.8,1.95-.8,1.39.27,1.93.8.81,1.17.81,1.92-.27,1.39-.81,1.92-1.18.8-1.93.8Z"/>
    <path class="cls-3" d="M219.83,679.63c-.33,0-.71-.02-1.16-.05s-.83-.05-1.16-.05c-.36,0-1.42.12-3.19.35l.45,13.85.02,1.03.02,1.2c.06,3.42-.76,5.13-2.46,5.13-.62,0-1.17-.2-1.63-.61s-.69-.91-.69-1.52.02-1.48.07-2.67.07-2.08.07-2.67l-.47-13.69c-1.14-.05-2.88-.18-5.2-.4-1.39-.19-2.09-.96-2.09-2.32,0-.69.21-1.26.63-1.71s.96-.68,1.62-.68l4.92.4c0-.8-.04-1.86-.11-3.2s-.11-2.3-.11-2.89c0-.66.23-1.2.68-1.63s1.01-.64,1.66-.64c1.41,0,2.23,1.15,2.46,3.45.05.58.07,1.27.07,2.09l-.05,1.36-.02,1.45c1.94-.25,3.05-.38,3.33-.38,1.62,0,2.69.08,3.19.23.95.31,1.43,1.05,1.43,2.2,0,.69-.21,1.25-.64,1.7s-.98.67-1.65.67Z"/>
    <path class="cls-3" d="M235.56,700.98c-2.62,0-4.88-.97-6.77-2.91-2.11-2.16-3.22-5.05-3.33-8.7-.09-3.53.8-6.64,2.67-9.33,2.19-3.17,5.23-4.76,9.14-4.76,3.12,0,5.49,1.43,7.1,4.29,1.28,2.31,1.9,5.09,1.85,8.34-.05,3.47-.95,6.43-2.72,8.88-2,2.78-4.65,4.17-7.95,4.17ZM236.96,680.05c-2.3-.02-4.09,1.08-5.37,3.28-1.02,1.77-1.52,3.78-1.52,6.05s.62,4.03,1.85,5.3c1.03,1.05,2.24,1.57,3.63,1.57,1.62,0,3.02-.59,4.2-1.78,1.33-1.31,2.03-3.09,2.11-5.32.22-6.05-1.41-9.08-4.9-9.09Z"/>
    <path class="cls-3" d="M267.69,679.63c-.33,0-.71-.02-1.16-.05s-.83-.05-1.16-.05c-.36,0-1.42.12-3.19.35l.45,13.85.02,1.03.02,1.2c.06,3.42-.76,5.13-2.46,5.13-.62,0-1.17-.2-1.63-.61s-.69-.91-.69-1.52.02-1.48.07-2.67.07-2.08.07-2.67l-.47-13.69c-1.14-.05-2.88-.18-5.2-.4-1.39-.19-2.09-.96-2.09-2.32,0-.69.21-1.26.63-1.71s.96-.68,1.62-.68l4.92.4c0-.8-.04-1.86-.11-3.2s-.11-2.3-.11-2.89c0-.66.23-1.2.68-1.63s1.01-.64,1.66-.64c1.41,0,2.23,1.15,2.46,3.45.05.58.07,1.27.07,2.09l-.05,1.36-.02,1.45c1.94-.25,3.05-.38,3.33-.38,1.62,0,2.69.08,3.19.23.95.31,1.43,1.05,1.43,2.2,0,.69-.21,1.25-.64,1.7s-.98.67-1.65.67Z"/>
    <path class="cls-3" d="M283.41,700.98c-2.62,0-4.88-.97-6.77-2.91-2.11-2.16-3.22-5.05-3.33-8.7-.09-3.53.8-6.64,2.67-9.33,2.19-3.17,5.23-4.76,9.14-4.76,3.12,0,5.49,1.43,7.1,4.29,1.28,2.31,1.9,5.09,1.85,8.34-.05,3.47-.95,6.43-2.72,8.88-2,2.78-4.65,4.17-7.95,4.17ZM284.82,680.05c-2.3-.02-4.09,1.08-5.37,3.28-1.02,1.77-1.52,3.78-1.52,6.05s.62,4.03,1.85,5.3c1.03,1.05,2.24,1.57,3.63,1.57,1.62,0,3.02-.59,4.2-1.78,1.33-1.31,2.03-3.09,2.11-5.32.22-6.05-1.41-9.08-4.9-9.09Z"/>
    <path class="cls-3" d="M317.84,701.26c-1.34,0-2.1-.73-2.27-2.2l-.66-5.13c-.22-1.83-.33-3.54-.33-5.13,0-.44.03-1.18.08-2.23s.08-1.79.08-2.23c0-3.38-.62-5.06-1.88-5.06-1.75,0-3.42,1.04-5.02,3.12-1.44,1.89-2.56,4.28-3.38,7.17-.03.61-.1,1.38-.21,2.3-.09.78-.14,1.54-.14,2.27,0,.47.05,1.17.14,2.11s.14,1.64.14,2.11c0,.7-.21,1.27-.64,1.71s-.98.66-1.65.66-1.24-.22-1.66-.66-.63-1.01-.63-1.71c0-.47-.05-1.17-.15-2.11s-.15-1.64-.15-2.11c0-1.61.11-3.84.34-6.69s.34-5.08.34-6.69c0-.5-.03-1.24-.08-2.23s-.08-1.73-.08-2.23c0-.67.22-1.22.67-1.65s1-.64,1.65-.64c1.44,0,2.23,1.02,2.37,3.05l.07,2.74c2.62-3.5,5.32-5.25,8.09-5.25,2.5,0,4.24,1.1,5.23,3.3.67,1.47,1.04,3.64,1.1,6.52v2.37l-.02,2.18c0,1.3.17,2.97.5,5.03s.5,3.72.5,5c0,.69-.22,1.25-.67,1.68s-1,.64-1.68.64ZM306.73,663.17c1.56,0,2.82.45,3.77,1.36l1.95,2.48c.73.91,1.61,1.36,2.62,1.36.89,0,1.55-.29,1.99-.87l1.08-2.06.47-1.38c.22-.45.69-.68,1.41-.68,1.17,0,1.76.58,1.76,1.73,0,.56-.34,1.51-1.01,2.84-.62,1.25-1.16,2.11-1.62,2.58-.88.89-1.99,1.34-3.35,1.34-2.05,0-3.65-.45-4.8-1.34-.42-.33-1.11-1.16-2.06-2.51-.66-.89-1.39-1.34-2.2-1.34-.48,0-.92.09-1.3.27s-.71.45-1,.81l-1.03,1.99c-.39.7-.9,1.05-1.52,1.05-.48,0-.91-.16-1.27-.48s-.54-.72-.54-1.21c0-.17.02-.35.07-.54.44-1.59,1.23-2.88,2.37-3.87,1.22-1.03,2.62-1.55,4.22-1.55Z"/>
    <path class="cls-3" d="M333.78,700.98c-2.62,0-4.88-.97-6.77-2.91-2.11-2.16-3.22-5.05-3.33-8.7-.09-3.53.8-6.64,2.67-9.33,2.19-3.17,5.23-4.76,9.14-4.76,3.12,0,5.49,1.43,7.1,4.29,1.28,2.31,1.9,5.09,1.85,8.34-.05,3.47-.95,6.43-2.72,8.88-2,2.78-4.65,4.17-7.95,4.17ZM335.19,680.05c-2.3-.02-4.09,1.08-5.37,3.28-1.02,1.77-1.52,3.78-1.52,6.05s.62,4.03,1.85,5.3c1.03,1.05,2.24,1.57,3.63,1.57,1.62,0,3.02-.59,4.2-1.78,1.33-1.31,2.03-3.09,2.11-5.32.22-6.05-1.41-9.08-4.9-9.09Z"/>
  </g>
</svg>