<?xml version="1.0" encoding="UTF-8"?>
<svg id="Capa_1" data-name="Capa 1" xmlns="http://www.w3.org/2000/svg" viewBox="0 0 561.29 157.59">
  <defs>
    <style>
      .cls-1 {
        fill: #548236;
      }

      .cls-1, .cls-2 {
        stroke-width: 0px;
      }

      .cls-2 {
        fill: #fff;
      }
    </style>
  </defs>
  <g>
    <path class="cls-1" d="M64.73,44.19h.6c.57,0,2.25,1.17,5.04,3.51,4.3,3.07,6.45,5.21,6.45,6.43v2.63c0,1.41-.07,2.48-.2,3.21.13,1.27.2,2.53.2,3.8v5.55c0,1.8-.07,3.46-.2,4.97.13,1.02.2,2.19.2,3.51,0,1.61-.07,3.17-.2,4.68,0,.1.07,1.36.2,3.8-.13,5.21-.2,8.43-.2,9.64s.07,2.53.2,3.8c-.13,2.19-.2,4.72-.2,7.6v4.09c0,2.05.07,3.7.2,4.97-.13,1.41-.2,3.17-.2,5.26v6.14c0,1.22.07,2.68.2,4.38-.13.73-.2,1.61-.2,2.63.13,3.41.2,5.55.2,6.43,0,2.44-1.41,3.8-4.23,4.09-2.92.98-6.69,1.66-11.29,2.05-5.51-4.09-8.4-6.14-8.67-6.14h-.2c-.3.05-.77,2.48-1.41,7.31,0,1.32-4.84,2.58-14.52,3.8-2.32-1.95-5.41-4.19-9.28-6.72h-.2c-.27.05-.4.24-.4.58v4.38c0,3.31-1.28,4.97-3.83,4.97l-10.89,2.05h-.6c-2.22-1.12-4.5-2.87-6.86-5.26-2.82-.97-4.23-2.92-4.23-5.85l-.2-2.92c.13-5.26.2-8.38.2-9.35,0-1.85-.07-3.7-.2-5.55.27-12.81.4-26.06.4-39.75-.13-3.36-.2-5.31-.2-5.85l.4-3.21c-.13-1.17-.27-1.75-.4-1.75l.2-2.92c0-2.53-.07-4.48-.2-5.85.13-1.36.2-3.31.2-5.85v-.88l-.2-1.75c0-3.31,2.35-4.97,7.06-4.97,5.68-1.36,11.26-2.44,16.74-3.21h.6c.94,0,2.76,1.36,5.44,4.09,4.17,1.9,6.25,4.82,6.25,8.77,0,.98.4,3.02,1.21,6.14h.6c2.02-13.05,3.29-20.36,3.83-21.92,0-1.22,5.11-2.48,15.33-3.8,1.31-.54,3.8-1.12,7.46-1.75ZM43.15,109.95c-1.34,0-2.22-2.73-2.62-8.18-.54-2.09-1.95-10.38-4.23-24.84-.24,0-.77-3.31-1.61-9.94-.54-2.44-1.01-3.8-1.41-4.09-13.01,2.14-20.2,3.61-21.58,4.38l-.2,1.46v14.32c0,.93.07,1.9.2,2.92-.13.73-.2,1.61-.2,2.63v3.21c0,3.12.07,6.14.2,9.06-.13,1.27-.2,2.53-.2,3.8,0,.63.07,1.12.2,1.46-.13,1.66-.2,3.02-.2,4.09v1.75c0,2.83-.07,6.04-.2,9.64l.4,3.51-.4,11.11.2,2.05c-.13,1.51-.2,3.07-.2,4.68l.2.58-.2.58c.13,4.04.2,7.36.2,9.94.34.39.6.58.81.58,8.2-1.27,12.3-2.34,12.3-3.21.13-.34.2-.73.2-1.17v-1.46c0-2.09-.07-3.75-.2-4.97.13-1.41.2-3.17.2-5.26v-2.63c0-1.12-.07-1.8-.2-2.05.13-1.07.2-1.95.2-2.63v-8.77c0-1.02.07-1.9.2-2.63-.13-1.02-.2-2-.2-2.92v-7.89c0-.83.07-1.61.2-2.34-.13-.78-.2-1.56-.2-2.34v-1.75c0-.83.07-1.9.2-3.21-.13-.34-.2-.83-.2-1.46.17-1.75.77-2.63,1.81-2.63,1.31,0,2.18,2.92,2.62,8.77.37.73,1.24,5.89,2.62,15.49.23.44.91,4.43,2.02,11.98.5,2.19,1.38,7.45,2.62,15.78.34,1.22.81,2,1.41,2.34,3.86-.97,7.36-1.65,10.49-2.05.81,0,1.55-3.31,2.22-9.94.81-4.43,3.36-20.21,7.66-47.35.4-1.17.94-1.75,1.61-1.75h.6c.67.49,1.01,1.27,1.01,2.34l-.2,1.75.4,4.09-.2,1.46c.13,2.44.2,3.9.2,4.38,0,.93-.07,3.17-.2,6.72,0,.44.07,1.51.2,3.21-.13,2.58-.2,5.31-.2,8.18,0,.49.07,1.27.2,2.34-.27,1.66-.4,3.8-.4,6.43v7.01c0,5.26.34,7.89,1.01,7.89,6.35-.97,10.39-1.85,12.1-2.63l.4-.88c0-.92-.07-4.24-.2-9.94.13-6.23.2-9.84.2-10.81-.27-1.46-.4-2.34-.4-2.63.27-.73.4-1.61.4-2.63,0-3.65-.07-8.04-.2-13.15.13-3.7.27-6.14.4-7.31-.27-1.85-.4-3.31-.4-4.38.13-3.55.27-5.41.4-5.55-.13-.34-.2-.83-.2-1.46,0-.58.07-1.27.2-2.05,0-.44-.07-.83-.2-1.17.13-2.53.2-4.58.2-6.14v-4.09c0-2.09-.07-3.85-.2-5.26.13-1.27.2-2.92.2-4.97v-1.46c0-2.34-.27-3.51-.81-3.51h-.81l-18.35,3.8c-2.02,0-3.02,1.56-3.02,4.68-2.02,11.25-4.23,25.57-6.65,42.96-.6,2.73-1.34,4.09-2.22,4.09Z"/>
    <path class="cls-1" d="M106.32,53.54c1.08,0,4.84,2.83,11.29,8.48.23.49.5,1.27.81,2.34l-.2,2.92v2.34c0,2.09.07,3.56.2,4.38-.13,2.68-.34,11.35-.6,26.01l.2,1.17c-.13,1.71-.2,3.17-.2,4.38v2.92c0,2.14.07,3.51.2,4.09-.13,1.85-.2,3.61-.2,5.26v19.87c0,2.19.13,4.82.4,7.89,0,6.04-.81,9.06-2.42,9.06-5.61,1.36-10.86,2.34-15.73,2.92h-.6c-.67,0-2.62-1.46-5.85-4.38-3.5-2.14-5.24-3.99-5.24-5.55v-4.97c0-3.6-.07-6.53-.2-8.77.13-3.31.27-9.25.4-17.83,0-.68-.07-1.56-.2-2.63.13-2.73.2-5.36.2-7.89v-11.11c0-2.29-.07-4.63-.2-7.01.13-.83.2-2.48.2-4.97,0-.88-.07-1.46-.2-1.75.13-1.32.2-2.39.2-3.21v-3.51c0-2.09-.07-3.75-.2-4.97.13-1.41.2-3.17.2-5.26v-3.8c0-2.19,2.08-3.55,6.25-4.09,3.7-.58,7.53-1.36,11.49-2.34ZM99.26,74.59c0,.58.2,10.04.6,28.35,0,.49-.07,1.95-.2,4.38.13,2,.2,3.56.2,4.68-.27,4.58-.4,7.11-.4,7.6.27,3.26.4,5.11.4,5.55-.1,2.53-.24,3.8-.4,3.8l.2.58v8.77c0,.44-.07.83-.2,1.17,0,.19.07.29.2.29-.13,3.21-.2,5.65-.2,7.31v5.26c0,1.46.27,2.24.81,2.34,2.82-.24,5.98-.92,9.48-2.05.27.19.47.29.6.29,3.9-.34,5.85-1.41,5.85-3.21-.13-3.6-.2-6.62-.2-9.06v-1.75c0-1.02.07-1.9.2-2.63-.13-1.02-.2-2-.2-2.92v-2.92c0-1.07.07-2.44.2-4.09l-.2-.58c.13-1.07.2-1.95.2-2.63v-.88c0-1.8-.07-3.46-.2-4.97l.2-1.46c0-.58-.07-2.44-.2-5.55,0-2.78.07-7.65.2-14.61-.13-5.65-.2-10.33-.2-14.03l.2-2.63-.2-1.46c.13-1.65.2-3.02.2-4.09l-.2-1.46c.13-.78.2-1.56.2-2.34v-1.46c0-.44-.07-.83-.2-1.17.13-.34.2-.73.2-1.17v-.88c0-.29-.2-.58-.6-.88h-1.01c-6.69,1.36-10.92,2.05-12.7,2.05-1.61.49-2.42,2.53-2.42,6.14,0,.49-.07,1.27-.2,2.34Z"/>
    <path class="cls-1" d="M180.68,49.74c7.19,4.92,10.89,8.14,11.09,9.64.13,1.32.2,2.39.2,3.21v2.05c0,1.02-.07,1.9-.2,2.63.13,1.02.2,2,.2,2.92v2.92c0,.93-.07,1.9-.2,2.92.13.78.2,1.46.2,2.05,0,3.51-1.41,5.26-4.23,5.26l-13.31,2.92-.4.88c0,.58-.07,2.44-.2,5.55,0,.88.07,1.46.2,1.75-.13,2-.2,3.56-.2,4.68v16.95c0,2-.07,3.56-.2,4.68.13,1.12.2,2.68.2,4.68v17.24c0,1.12-.07,2.68-.2,4.68.13.29.2.88.2,1.75,0,3.7-1.21,5.55-3.63,5.55l-14.72,2.92c-.64,0-3.73-2.34-9.28-7.01-.91,0-1.65-1.46-2.22-4.38v-14.91c0-2.44.07-5.45.2-9.06,0-.19-.07-.29-.2-.29l.2-1.46v-3.21c0-1.12.07-1.8.2-2.05-.13-1.07-.2-1.95-.2-2.63v-11.4c0-1.56-.07-3.6-.2-6.14.13-.39.2-.68.2-.88-.07-.97-.47-1.46-1.21-1.46-2.92.58-4.87.88-5.85.88l-8.47-6.43c-1.75-.83-2.62-2.48-2.62-4.97v-2.05c0-.19.07-.29.2-.29l-.2-.58v-1.17c0-.58.07-.88.2-.88l-.2-1.46v-4.68c0-1.95.07-4.87.2-8.77,0-.92,1.88-1.9,5.65-2.92.87,0,16.6-3.12,47.19-9.35.13-.19.67-.29,1.61-.29ZM137.12,75.17c.27,1.85.4,3.02.4,3.51-.07,1.95-.2,2.92-.4,2.92l.2,2.92v4.38c0,1.02.34,1.71,1.01,2.05,1.38-.58,4.67-1.46,9.88-2.63v.29l5.44-1.17c1.08,0,1.61,1.85,1.61,5.55,0,5.7.13,10.47.4,14.32-.13,2.73-.27,4.19-.4,4.38,0,.19.07.49.2.88-.13,10.04-.27,16.85-.4,20.46.13,14.22.4,21.34.81,21.34l.4.29,15.12-3.21c.54-2.44.81-11.88.81-28.35v-1.17c0-7.99-.2-13.35-.6-16.07.13-1.02.2-2,.2-2.92v-.29c0-.68-.07-1.56-.2-2.63.27-.97.4-1.65.4-2.05-.27-1.95-.4-3.9-.4-5.85v-3.51c0-3.51.87-5.26,2.62-5.26l15.33-3.21c.27-.68.47-2.05.6-4.09,0-1.07-.07-2.44-.2-4.09.13-3.07.2-5.99.2-8.77,0-2.14-.54-3.21-1.61-3.21-9.68,2.14-26.42,5.55-50.21,10.23-.57,0-.98,1.66-1.21,4.97Z"/>
    <path class="cls-1" d="M226.81,52.08c8.7,0,14.75,2.24,18.15,6.72,6.92,3.65,12.03,9.01,15.33,16.07,2.96,7.89,4.44,17.34,4.44,28.35l-1.21,14.91c-1.04,6.62-2.79,12.67-5.24,18.12-2.86,6.48-6.76,11.45-11.7,14.91-2.45,2.39-6.28,4.14-11.49,5.26-1.95.58-4.17.98-6.65,1.17-7.19,0-13.31-2.73-18.35-8.18-6.86-4.63-11.02-9.6-12.5-14.91-2.96-6.48-4.44-15.05-4.44-25.72v-4.38c0-5.41.67-11.25,2.02-17.54,2.79-9.89,5.07-15.83,6.86-17.83,5.41-8.18,11.53-13.25,18.35-15.2l6.45-1.75ZM204.02,114.92c.4,8.18,1.08,14.32,2.02,18.41,1.48,5.6,3.63,10.38,6.45,14.32,4.23,4.68,8.47,7.01,12.7,7.01h3.63c9.44,0,17.71-4.77,24.8-14.32,3.86-6.04,6.42-13.35,7.66-21.92.81-5.16,1.21-8.87,1.21-11.11,0-.58-.07-1.27-.2-2.05l.4-3.51c0-10.28-1.55-19.14-4.64-26.6-3.33-5.94-6.28-9.25-8.87-9.94,0-.78-2.96-1.75-8.87-2.92-12.77,0-21.98,5.46-27.63,16.37-2.02,3.36-3.02,5.21-3.02,5.55-3.76,10.23-5.65,20.46-5.65,30.69ZM219.35,113.17c0,7.26,1.41,13.59,4.23,19,2.35,3.31,4.97,4.97,7.86,4.97,4.91,0,8.94-2.92,12.1-8.77,2.55-4.77,3.83-12.57,3.83-23.38-.64-9.74-1.24-14.61-1.81-14.61,0-2.14-1.68-4.87-5.04-8.18-1.98-1.36-3.73-2.05-5.24-2.05-1.78,0-4.13.88-7.06,2.63-4.44,4.77-6.65,8.77-6.65,11.98-1.48,5.7-2.22,11.84-2.22,18.41Z"/>
    <path class="cls-1" d="M323.75,49.74c7.19,4.92,10.89,8.14,11.09,9.64.13,1.32.2,2.39.2,3.21v2.05c0,1.02-.07,1.9-.2,2.63.13,1.02.2,2,.2,2.92v2.92c0,.93-.07,1.9-.2,2.92.13.78.2,1.46.2,2.05,0,3.51-1.41,5.26-4.23,5.26l-13.31,2.92-.4.88c0,.58-.07,2.44-.2,5.55,0,.88.07,1.46.2,1.75-.13,2-.2,3.56-.2,4.68v16.95c0,2-.07,3.56-.2,4.68.13,1.12.2,2.68.2,4.68v17.24c0,1.12-.07,2.68-.2,4.68.13.29.2.88.2,1.75,0,3.7-1.21,5.55-3.63,5.55l-14.72,2.92c-.64,0-3.73-2.34-9.28-7.01-.91,0-1.65-1.46-2.22-4.38v-14.91c0-2.44.07-5.45.2-9.06,0-.19-.07-.29-.2-.29l.2-1.46v-3.21c0-1.12.07-1.8.2-2.05-.13-1.07-.2-1.95-.2-2.63v-11.4c0-1.56-.07-3.6-.2-6.14.13-.39.2-.68.2-.88-.07-.97-.47-1.46-1.21-1.46-2.92.58-4.87.88-5.85.88l-8.47-6.43c-1.75-.83-2.62-2.48-2.62-4.97v-2.05c0-.19.07-.29.2-.29l-.2-.58v-1.17c0-.58.07-.88.2-.88l-.2-1.46v-4.68c0-1.95.07-4.87.2-8.77,0-.92,1.88-1.9,5.65-2.92.87,0,16.6-3.12,47.19-9.35.13-.19.67-.29,1.61-.29ZM280.19,75.17c.27,1.85.4,3.02.4,3.51-.07,1.95-.2,2.92-.4,2.92l.2,2.92v4.38c0,1.02.34,1.71,1.01,2.05,1.38-.58,4.67-1.46,9.88-2.63v.29l5.44-1.17c1.08,0,1.61,1.85,1.61,5.55,0,5.7.13,10.47.4,14.32-.13,2.73-.27,4.19-.4,4.38,0,.19.07.49.2.88-.13,10.04-.27,16.85-.4,20.46.13,14.22.4,21.34.81,21.34l.4.29,15.12-3.21c.54-2.44.81-11.88.81-28.35v-1.17c0-7.99-.2-13.35-.6-16.07.13-1.02.2-2,.2-2.92v-.29c0-.68-.07-1.56-.2-2.63.27-.97.4-1.65.4-2.05-.27-1.95-.4-3.9-.4-5.85v-3.51c0-3.51.87-5.26,2.62-5.26l15.33-3.21c.27-.68.47-2.05.6-4.09,0-1.07-.07-2.44-.2-4.09.13-3.07.2-5.99.2-8.77,0-2.14-.54-3.21-1.61-3.21-9.68,2.14-26.42,5.55-50.21,10.23-.57,0-.98,1.66-1.21,4.97Z"/>
    <path class="cls-1" d="M369.88,52.08c8.7,0,14.75,2.24,18.15,6.72,6.92,3.65,12.03,9.01,15.33,16.07,2.96,7.89,4.44,17.34,4.44,28.35l-1.21,14.91c-1.04,6.62-2.79,12.67-5.24,18.12-2.86,6.48-6.76,11.45-11.7,14.91-2.45,2.39-6.28,4.14-11.49,5.26-1.95.58-4.17.98-6.65,1.17-7.19,0-13.31-2.73-18.35-8.18-6.86-4.63-11.02-9.6-12.5-14.91-2.96-6.48-4.44-15.05-4.44-25.72v-4.38c0-5.41.67-11.25,2.02-17.54,2.79-9.89,5.07-15.83,6.86-17.83,5.41-8.18,11.53-13.25,18.35-15.2l6.45-1.75ZM347.09,114.92c.4,8.18,1.08,14.32,2.02,18.41,1.48,5.6,3.63,10.38,6.45,14.32,4.23,4.68,8.47,7.01,12.7,7.01h3.63c9.44,0,17.71-4.77,24.8-14.32,3.86-6.04,6.42-13.35,7.66-21.92.81-5.16,1.21-8.87,1.21-11.11,0-.58-.07-1.27-.2-2.05l.4-3.51c0-10.28-1.55-19.14-4.64-26.6-3.33-5.94-6.28-9.25-8.87-9.94,0-.78-2.96-1.75-8.87-2.92-12.77,0-21.98,5.46-27.63,16.37-2.02,3.36-3.02,5.21-3.02,5.55-3.76,10.23-5.65,20.46-5.65,30.69ZM362.42,113.17c0,7.26,1.41,13.59,4.23,19,2.35,3.31,4.97,4.97,7.86,4.97,4.91,0,8.94-2.92,12.1-8.77,2.55-4.77,3.83-12.57,3.83-23.38-.64-9.74-1.24-14.61-1.81-14.61,0-2.14-1.68-4.87-5.04-8.18-1.98-1.36-3.73-2.05-5.24-2.05-1.78,0-4.13.88-7.06,2.63-4.44,4.77-6.65,8.77-6.65,11.98-1.48,5.7-2.22,11.84-2.22,18.41Z"/>
    <path class="cls-1" d="M472.17,46.24c4.94,4.19,8.17,6.72,9.68,7.6.4.44.67,2,.81,4.68,0,.68-.07,1.56-.2,2.63.13,4.48.2,8.57.2,12.28,0,2.83-.07,6.62-.2,11.4.13.34.2.83.2,1.46l-.2.58c0,.44.07.83.2,1.17-.13,3.61-.2,6.62-.2,9.06v1.75c0,2.14.07,3.51.2,4.09-.13,1.85-.2,3.61-.2,5.26v14.91c0,1.32-.07,2.48-.2,3.51.13,1.02.2,2.19.2,3.51v14.03c0,2.19-2.96,3.56-8.87,4.09-1.78.58-4.34.98-7.66,1.17,0,.24-.27.44-.81.58-.84,0-3.53-1.95-8.07-5.85-1.88,0-4.44-4.09-7.66-12.28-1.61-2.92-2.96-5.85-4.03-8.77h-.81l-.2,2.05v10.23c0,.63-.07,1.12-.2,1.46l.2,1.75v2.92c0,8.57-.54,12.86-1.61,12.86-6.25,1.56-10.15,2.34-11.7,2.34-.71.58-1.65.88-2.82.88h-1.01c-1.11,0-4.87-2.92-11.29-8.77-.13-.34-.2-.73-.2-1.17v-6.43c0-1.61-.07-2.87-.2-3.8.13-1.22.2-2.58.2-4.09v-2.34c0-3.31.07-7.11.2-11.4-.13-1.07-.2-2.14-.2-3.21,0-.15.07-.73.2-1.75,0-.44-.07-.83-.2-1.17.13-3.6.2-6.62.2-9.06v-1.46c0-3.55-.07-8.52-.2-14.91,0-.19.07-.29.2-.29l-.2-1.46v-8.48c0-2.92.07-5.36.2-7.31-.13-1.36-.2-3.6-.2-6.72v-2.63c0-3.12,1.21-4.68,3.63-4.68,4.97-1.17,9.48-2.05,13.51-2.63h.2c1.01,0,4.71,2.63,11.09,7.89,5.04,10.86,8.13,17.2,9.28,19,.2,0,.4-.39.6-1.17-.13-1.41-.2-2.19-.2-2.34.27-2.92.4-4.97.4-6.14-.27-3.7-.4-5.85-.4-6.43.07-2.53.2-3.8.4-3.8l-.2-.58v-5.85c0-3.9,1.01-5.85,3.02-5.85l1.01.29c6.05-1.75,10.75-2.63,14.12-2.63ZM475.39,57.34c-.3,0-.57-.1-.81-.29-6.02,1.36-9.11,2.24-9.28,2.63l-.2,2.05v12.57c0,1.71.07,3.65.2,5.85-.13.73-.2,1.51-.2,2.34.13,1.71.2,2.78.2,3.21l-.2,2.05c0,.44.07.83.2,1.17-.13,2.53-.2,4.58-.2,6.14v8.18c-.44,1.36-1.04,2.05-1.81,2.05-1.51-1.17-3.06-3.8-4.64-7.89-.2,0-1.14-2.14-2.82-6.43-1.65-2.92-4.87-9.55-9.68-19.87-2.15-4.87-3.63-7.31-4.44-7.31-4.23,1.17-8.94,2.14-14.12,2.92-.34,0-.6,2.24-.81,6.72.13,2.48.27,8.62.4,18.41-.13,3.9-.2,6.82-.2,8.77,0,.15.07.73.2,1.75-.13.73-.2,1.51-.2,2.34l.2,1.46c-.27,1.56-.4,3.41-.4,5.55v5.85c0,2.53.13,4.29.4,5.26-.27,5.26-.4,9.64-.4,13.15l.2,3.51c-.13,1.36-.2,2.53-.2,3.51.13,3.36.27,5.11.4,5.26-.13,0-.27,1.56-.4,4.68.2,1.36.47,2.05.81,2.05,8.47-1.95,12.97-2.92,13.51-2.92.94,0,1.41-1.56,1.41-4.68v-12.86c0-4.14-.07-8.82-.2-14.03.13-1.27.2-2.92.2-4.97,0-.49-.13-1.85-.4-4.09.47-3.7,1.01-5.55,1.61-5.55h.6c1.48,1.66,3.5,5.36,6.05,11.11,1.31,3.07,3.26,7.16,5.85,12.28,3.66,8.28,6.49,14.13,8.47,17.54l2.82.29c7.26-1.8,11.49-2.97,12.7-3.51.34,0,.54-4.48.6-13.44-.13-3.41-.2-5.55-.2-6.43l.2-1.17-.2-1.46c.13-3.6.2-5.85.2-6.72-.27-3.21-.4-5.75-.4-7.6v-2.05c0-3.95.07-8.13.2-12.57-.13-1.36-.2-2.53-.2-3.51.13-2.53.27-3.99.4-4.38l-.2-1.75v-.58c0-1.27.07-2.53.2-3.8-.17-1.75-.3-2.82-.4-3.21l.4-3.51c0-.15-.07-.73-.2-1.75.13-2.87.2-4.82.2-5.85-.27-2.87-.4-5.02-.4-6.43v-.29c0-.39-.2-.58-.6-.58-1.08,0-2.55.29-4.44.88Z"/>
    <path class="cls-1" d="M523.38,52.08c8.7,0,14.75,2.24,18.15,6.72,6.92,3.65,12.03,9.01,15.33,16.07,2.96,7.89,4.44,17.34,4.44,28.35l-1.21,14.91c-1.04,6.62-2.79,12.67-5.24,18.12-2.86,6.48-6.76,11.45-11.7,14.91-2.45,2.39-6.28,4.14-11.49,5.26-1.95.58-4.17.98-6.65,1.17-7.19,0-13.31-2.73-18.35-8.18-6.86-4.63-11.02-9.6-12.5-14.91-2.96-6.48-4.44-15.05-4.44-25.72v-4.38c0-5.41.67-11.25,2.02-17.54,2.79-9.89,5.07-15.83,6.86-17.83,5.41-8.18,11.53-13.25,18.35-15.2l6.45-1.75ZM500.6,114.92c.4,8.18,1.08,14.32,2.02,18.41,1.48,5.6,3.63,10.38,6.45,14.32,4.23,4.68,8.47,7.01,12.7,7.01h3.63c9.44,0,17.71-4.77,24.8-14.32,3.86-6.04,6.42-13.35,7.66-21.92.81-5.16,1.21-8.87,1.21-11.11,0-.58-.07-1.27-.2-2.05l.4-3.51c0-10.28-1.55-19.14-4.64-26.6-3.33-5.94-6.28-9.25-8.87-9.94,0-.78-2.96-1.75-8.87-2.92-12.77,0-21.98,5.46-27.63,16.37-2.02,3.36-3.02,5.21-3.02,5.55-3.76,10.23-5.65,20.46-5.65,30.69ZM515.92,113.17c0,7.26,1.41,13.59,4.23,19,2.35,3.31,4.97,4.97,7.86,4.97,4.91,0,8.94-2.92,12.1-8.77,2.55-4.77,3.83-12.57,3.83-23.38-.64-9.74-1.24-14.61-1.81-14.61,0-2.14-1.68-4.87-5.04-8.18-1.98-1.36-3.73-2.05-5.24-2.05-1.78,0-4.13.88-7.06,2.63-4.44,4.77-6.65,8.77-6.65,11.98-1.48,5.7-2.22,11.84-2.22,18.41Z"/>
  </g>
  <g>
    <path class="cls-1" d="M420.57,20.27s8.31-21.51,29.71-6.39c0,0,20.71,6.2,23.76-13.88,0,0,.76,33.89-21.38,25.79,0,0-9-20.12-32.09-5.52Z"/>
    <path class="cls-2" d="M422.09,18.93c1.61-1.07,3.41-2.04,5.39-2.79,10.1-3.86,19.09.03,23.86,2.79,1.42,1.79,4.57,5.19,8.6,4.99,6.31-.32,12.46-9.35,13.77-22.45,2.04,10.65-.68,21.62-6.42,26.96-6.29,5.85-13.33,2.28-14.2,1.82-1.76-2.7-4.18-5.74-7.39-8.23-10.08-7.83-20.41-4.37-23.61-3.09Z"/>
  </g>
</svg>