<?xml version="1.0" encoding="UTF-8"?>
<svg id="Capa_2" data-name="Capa 2" xmlns="http://www.w3.org/2000/svg" xmlns:xlink="http://www.w3.org/1999/xlink" viewBox="0 0 370.96 334.07">
  <defs>
    <style>
      .cls-1 {
        fill: #0c730e;
      }

      .cls-1, .cls-2, .cls-3, .cls-4, .cls-5, .cls-6, .cls-7, .cls-8, .cls-9 {
        stroke-width: 0px;
      }

      .cls-2 {
        fill: #1f891f;
      }

      .cls-3 {
        fill: #0c510c;
      }

      .cls-10 {
        fill: #bb6e3d;
      }

      .cls-10, .cls-11, .cls-12, .cls-13, .cls-14, .cls-15, .cls-16 {
        stroke-miterlimit: 10;
      }

      .cls-10, .cls-13 {
        stroke: #e5d8d1;
      }

      .cls-4 {
        fill: #3a2103;
      }

      .cls-17 {
        opacity: .28;
      }

      .cls-11 {
        fill: #674928;
        stroke: #f2e6da;
      }

      .cls-5 {
        fill: #5b4216;
      }

      .cls-6 {
        fill: none;
      }

      .cls-7 {
        fill: #267226;
      }

      .cls-12 {
        fill: #9b5c23;
        stroke: #ccb59e;
      }

      .cls-8 {
        fill: #045906;
      }

      .cls-13 {
        fill: #c18668;
      }

      .cls-14 {
        fill: #9dd4e0;
      }

      .cls-14, .cls-15, .cls-16 {
        stroke: #000;
      }

      .cls-15 {
        fill: #5f8589;
      }

      .cls-18 {
        mask: url(#mask);
      }

      .cls-9 {
        fill: #353524;
      }

      .cls-16 {
        fill: #383528;
      }
    </style>
    <mask id="mask" x="1.15" y="-9" width="370.38" height="343.07" maskUnits="userSpaceOnUse">
      <rect class="cls-14" x="1.65" y="-8.5" width="369.38" height="333.76"/>
    </mask>
  </defs>
  <g id="Capa_1-2" data-name="Capa 1">
    <g>
      <rect class="cls-15" x=".5" y="2.9" width="369.38" height="329.49"/>
      <g class="cls-18">
        <image class="cls-17" width="1706" height="960" transform="translate(1.56) scale(.22 .35)" xlink:href="../../../../../../Downloads/curiosidades_494961313_153077108_1706x960.jpg"/>
      </g>
      <g>
        <path class="cls-4" d="M23.35,192.71s.19-2.06,1.53-.82c0,0,6.49,28.86,7.44,28.86,0,0,2.48,3.71.57-40.41l4.58-10.31s-1.91,27.21-1.14,29.69c0,0,2.1-1.65,3.43-22.68l2.29-.41s-1.09,18.63-1.5,18.8c-.41.17.41-.17.41-.17l9.49-13.27,1.14,2.89s-14.69,10.31-15.83,39.58c0,0,1.34,101.43.76,101.84,0,0-3.62,2.89-3.43-4.54,0,0-1.34-85.35-.95-85.35,0,0-2.1-20.2-8.78-43.7Z"/>
        <path class="cls-8" d="M17.43,140.35s-5.72-2.47-7.82,3.71c0,0-6.49,0-5.72,7.01,0,0-4.96.82-1.14,9.48,0,0-1.14,9.48,2.67,6.18,0,0,3.62,9.48,9.16,3.3,0,0,3.43,10.31,8.97-1.24,0,0,3.82,4.12,7.25-5.36,0,0-.3.47,2.29-2.89.95-1.24,1.91,1.83,2.48-5.27,0,0,6.3-7.51,3.82-13.7,0,0-.19-11.96-4.77-8.66,0,0-7.25-8.25-9.35,2.47,0,0-5.34-6.6-7.82,4.95Z"/>
        <path class="cls-5" d="M33.27,244.66v40.65s2.67-34.88,0-40.65Z"/>
        <path class="cls-5" d="M36.7,203.02s-2.78,12.37-2.25,24.33c0,0,1.1-21.03,2.25-24.33Z"/>
        <path class="cls-5" d="M35.94,306.92s.57,17.73-1.14,17.73c0,0,2.67,4.54,1.14-17.73Z"/>
        <path class="cls-7" d="M18.43,140.5s-3.87-1.97-5.29,2.96c0,0-4.38,0-3.87,5.59,0,0-3.35.66-.77,7.56,0,0-.77,7.56,1.81,4.93,0,0,2.45,7.56,6.19,2.63,0,0,2.32,8.22,6.06-.99,0,0,2.58,3.29,4.9-4.28,0,0-.2.37,1.55-2.3.64-.99,1.29,1.46,1.68-4.2,0,0,4.26-5.99,2.58-10.93,0,0-.13-9.54-3.22-6.91,0,0-4.9-6.58-6.32,1.97,0,0-3.61-5.26-5.29,3.95Z"/>
        <path class="cls-8" d="M52.87,166.01s-3.79-9.59-7.21-7.54c0,0-5.1-8.67-6.5-2.14,0,0-4.13-5.98-3.61,5.92,0,0-3.61,5.92.33,8.43,0,0,.14,12.3,6.25,14.83,0,0-.25,12.69,7.4,11.01,0,0,1.82,8.34,7.23,5.48,0,0-.37-.03,2.62.79,1.1.3.98,3.99,3.46-.83,0,0,7.1,2.51,6.92-5.67,0,0,3.27-9.65-1.27-13.18,0,0-3.34-16.17-8.05-10.55,0,0-2.31-12.32-7.56-6.56Z"/>
        <path class="cls-3" d="M53.61,171.52s-2.86-5.9-5.15-3.7c0,0-3.74-4.96-4.52-.06,0,0-3-3.29-2.32,4.97,0,0-2.32,4.97.45,5.85,0,0,.43,8.62,4.7,9.04,0,0,.17,8.98,5.38,6.1,0,0,1.47,5.46,5.11,2.24,0,0-.25.06,1.82-.03.77-.03.78,2.59,2.35-1.35,0,0,4.94.19,4.6-5.52,0,0,1.99-7.51-1.23-8.98,0,0-2.73-10.63-5.82-5.63,0,0-1.92-8.15-5.37-2.94Z"/>
        <path class="cls-1" d="M51.84,134.14s-4.46-8.13-7.68-4.89c0,0-5.68-6.75-6.58.18,0,0-4.53-4.44-3.12,7.12,0,0-3.12,7.12.96,8.2,0,0,1.06,12.08,7.29,12.42,0,0,.71,12.61,8.13,8.25,0,0,2.42,7.59,7.55,2.85,0,0-.36.1,2.65-.15,1.11-.09,1.26,3.59,3.35-2.04,0,0,7.19-.03,6.4-8.03,0,0,2.5-10.68-2.25-12.55,0,0-4.51-14.77-8.74-7.56,0,0-3.21-11.34-7.96-3.81Z"/>
        <path class="cls-2" d="M51.89,141.85s-2.43-5.77-4.72-3.35c0,0-3.31-4.75-4.3.31,0,0-2.69-3.1-2.45,5.24,0,0-2.45,5.24.14,5.92,0,0-.02,8.73,4.02,8.82,0,0-.28,9.12,4.81,5.77,0,0,1.13,5.44,4.75,1.87,0,0-.24.08,1.74-.18.73-.09.61,2.57,2.3-1.56,0,0,4.69-.21,4.64-5.99,0,0,2.26-7.81-.72-9.04,0,0-2.07-10.59-5.25-5.26,0,0-1.42-8.14-4.96-2.55Z"/>
        <path class="cls-1" d="M16.21,173.12s-5.72-2.47-7.82,3.71c0,0-6.49,0-5.72,7.01,0,0-4.96.82-1.14,9.48,0,0-1.14,9.48,2.67,6.18,0,0,3.62,9.48,9.16,3.3,0,0,3.43,10.31,8.97-1.24,0,0,3.82,4.12,7.25-5.36,0,0-.3.47,2.29-2.89.95-1.24,1.91,1.83,2.48-5.27,0,0,6.3-7.51,3.82-13.7,0,0-.19-11.96-4.77-8.66,0,0-7.25-8.25-9.35,2.47,0,0-5.34-6.6-7.82,4.95Z"/>
      </g>
      <g>
        <path class="cls-4" d="M121.41,240.91s.13-1.06,1.01-.42c0,0,4.28,14.81,4.91,14.81,0,0,1.64,1.9.38-20.73l3.02-5.29s-1.26,13.96-.76,15.23c0,0,1.39-.85,2.27-11.63l1.51-.21s-.72,9.56-.99,9.64c-.27.09.27-.09.27-.09l6.26-6.81.76,1.48s-9.7,5.29-10.46,20.3c0,0,.88,52.03.5,52.24,0,0-2.39,1.48-2.27-2.33,0,0-.88-43.78-.63-43.78,0,0-1.39-10.36-5.79-22.42Z"/>
        <path class="cls-8" d="M117.5,214.05s-3.78-1.27-5.16,1.9c0,0-4.28,0-3.78,3.6,0,0-3.28.42-.76,4.86,0,0-.76,4.86,1.76,3.17,0,0,2.39,4.86,6.05,1.69,0,0,2.27,5.29,5.92-.63,0,0,2.52,2.12,4.79-2.75,0,0-.2.24,1.51-1.48.63-.63,1.26.94,1.64-2.7,0,0,4.16-3.85,2.52-7.03,0,0-.13-6.13-3.15-4.44,0,0-4.79-4.23-6.17,1.27,0,0-3.53-3.38-5.16,2.54Z"/>
        <path class="cls-5" d="M127.96,267.56v20.85s1.76-17.89,0-20.85Z"/>
        <path class="cls-5" d="M130.22,246.2s-1.83,6.35-1.48,12.48c0,0,.73-10.79,1.48-12.48Z"/>
        <path class="cls-5" d="M129.72,299.5s.38,9.09-.76,9.09c0,0,1.76,2.33.76-9.09Z"/>
        <path class="cls-7" d="M118.16,214.13s-2.55-1.01-3.49,1.52c0,0-2.9,0-2.55,2.87,0,0-2.21.34-.51,3.88,0,0-.51,3.88,1.19,2.53,0,0,1.62,3.88,4.09,1.35,0,0,1.53,4.22,4-.51,0,0,1.7,1.69,3.24-2.19,0,0-.13.19,1.02-1.18.43-.51.85.75,1.11-2.16,0,0,2.81-3.07,1.7-5.6,0,0-.09-4.89-2.13-3.54,0,0-3.24-3.37-4.17,1.01,0,0-2.38-2.7-3.49,2.02Z"/>
        <path class="cls-8" d="M140.9,227.22s-2.5-4.92-4.76-3.87c0,0-3.37-4.45-4.29-1.1,0,0-2.73-3.07-2.39,3.04,0,0-2.39,3.04.22,4.32,0,0,.09,6.31,4.13,7.61,0,0-.17,6.51,4.89,5.65,0,0,1.2,4.28,4.77,2.81,0,0-.24-.02,1.73.41.73.16.64,2.05,2.28-.42,0,0,4.69,1.29,4.57-2.91,0,0,2.16-4.95-.84-6.76,0,0-2.2-8.29-5.32-5.41,0,0-1.53-6.32-4.99-3.37Z"/>
        <path class="cls-3" d="M141.39,230.04s-1.89-3.03-3.4-1.9c0,0-2.47-2.55-2.99-.03,0,0-1.98-1.69-1.53,2.55,0,0-1.53,2.55.3,3,0,0,.28,4.42,3.1,4.64,0,0,.11,4.61,3.55,3.13,0,0,.97,2.8,3.38,1.15,0,0-.17.03,1.2-.01.51-.02.51,1.33,1.55-.69,0,0,3.26.1,3.04-2.83,0,0,1.31-3.85-.81-4.61,0,0-1.8-5.45-3.84-2.89,0,0-1.27-4.18-3.55-1.51Z"/>
        <path class="cls-1" d="M140.22,210.87s-2.95-4.17-5.07-2.51c0,0-3.75-3.46-4.34.09,0,0-2.99-2.28-2.06,3.65,0,0-2.06,3.65.64,4.21,0,0,.7,6.2,4.81,6.37,0,0,.47,6.47,5.37,4.23,0,0,1.6,3.89,4.98,1.46,0,0-.24.05,1.75-.07.73-.05.83,1.84,2.21-1.04,0,0,4.75-.02,4.22-4.12,0,0,1.65-5.48-1.49-6.44,0,0-2.98-7.58-5.77-3.88,0,0-2.12-5.82-5.25-1.95Z"/>
        <path class="cls-2" d="M140.25,214.82s-1.6-2.96-3.11-1.72c0,0-2.18-2.44-2.84.16,0,0-1.78-1.59-1.62,2.69,0,0-1.62,2.69.09,3.04,0,0-.01,4.48,2.65,4.52,0,0-.19,4.68,3.18,2.96,0,0,.75,2.79,3.14.96,0,0-.16.04,1.15-.09.48-.05.4,1.32,1.52-.8,0,0,3.1-.11,3.07-3.07,0,0,1.49-4-.48-4.64,0,0-1.37-5.43-3.47-2.7,0,0-.94-4.18-3.28-1.31Z"/>
        <path class="cls-1" d="M116.7,230.86s-3.78-1.27-5.16,1.9c0,0-4.28,0-3.78,3.6,0,0-3.28.42-.76,4.86,0,0-.76,4.86,1.76,3.17,0,0,2.39,4.86,6.05,1.69,0,0,2.27,5.29,5.92-.63,0,0,2.52,2.12,4.79-2.75,0,0-.2.24,1.51-1.48.63-.63,1.26.94,1.64-2.7,0,0,4.16-3.85,2.52-7.03,0,0-.13-6.13-3.15-4.44,0,0-4.79-4.23-6.17,1.27,0,0-3.53-3.38-5.16,2.54Z"/>
      </g>
      <g>
        <path class="cls-4" d="M247.84,244.7s.11-.94.9-.38c0,0,3.81,13.14,4.38,13.14,0,0,1.46,1.69.34-18.39l2.69-4.69s-1.12,12.39-.67,13.51c0,0,1.23-.75,2.02-10.32l1.35-.19s-.64,8.48-.88,8.56.24-.08.24-.08l5.58-6.04.67,1.31s-8.64,4.69-9.31,18.02c0,0,.79,46.17.45,46.35,0,0-2.13,1.31-2.02-2.06,0,0-.79-38.85-.56-38.85,0,0-1.23-9.2-5.16-19.89Z"/>
        <path class="cls-8" d="M244.36,220.87s-3.37-1.13-4.6,1.69c0,0-3.81,0-3.37,3.19,0,0-2.92.38-.67,4.32,0,0-.67,4.32,1.57,2.81,0,0,2.13,4.32,5.39,1.5,0,0,2.02,4.69,5.27-.56,0,0,2.24,1.88,4.26-2.44,0,0-.17.21,1.35-1.31.56-.56,1.12.83,1.46-2.4,0,0,3.7-3.42,2.24-6.23,0,0-.11-5.44-2.8-3.94,0,0-4.26-3.75-5.5,1.13,0,0-3.14-3-4.6,2.25Z"/>
        <path class="cls-5" d="M253.67,268.34v18.5s1.57-15.87,0-18.5Z"/>
        <path class="cls-5" d="M255.69,249.39s-1.63,5.63-1.32,11.07c0,0,.65-9.57,1.32-11.07Z"/>
        <path class="cls-5" d="M255.24,296.68s.34,8.07-.67,8.07c0,0,1.57,2.06.67-8.07Z"/>
        <path class="cls-7" d="M244.94,220.94s-2.28-.9-3.11,1.35c0,0-2.58,0-2.28,2.54,0,0-1.97.3-.46,3.44,0,0-.46,3.44,1.06,2.25,0,0,1.44,3.44,3.64,1.2,0,0,1.37,3.74,3.56-.45,0,0,1.52,1.5,2.88-1.95,0,0-.12.17.91-1.05.38-.45.76.66.99-1.91,0,0,2.5-2.73,1.52-4.97,0,0-.08-4.34-1.9-3.14,0,0-2.88-2.99-3.72.9,0,0-2.12-2.4-3.11,1.8Z"/>
        <path class="cls-8" d="M265.2,232.55s-2.23-4.37-4.24-3.43c0,0-3-3.95-3.82-.97,0,0-2.43-2.72-2.12,2.7,0,0-2.12,2.7.19,3.84,0,0,.08,5.6,3.68,6.75,0,0-.15,5.78,4.35,5.01,0,0,1.07,3.8,4.25,2.49,0,0-.22-.01,1.54.36.65.14.57,1.82,2.03-.38,0,0,4.17,1.14,4.07-2.58,0,0,1.92-4.39-.75-6,0,0-1.96-7.36-4.74-4.8,0,0-1.36-5.61-4.45-2.99Z"/>
        <path class="cls-3" d="M265.64,235.06s-1.68-2.69-3.03-1.68c0,0-2.2-2.26-2.66-.03,0,0-1.76-1.5-1.37,2.26,0,0-1.37,2.26.27,2.66,0,0,.25,3.92,2.76,4.11,0,0,.1,4.09,3.16,2.78,0,0,.87,2.49,3.01,1.02,0,0-.15.03,1.07-.01.45-.01.46,1.18,1.38-.61,0,0,2.91.09,2.7-2.51,0,0,1.17-3.42-.72-4.09,0,0-1.61-4.84-3.42-2.56,0,0-1.13-3.71-3.16-1.34Z"/>
        <path class="cls-1" d="M264.59,218.04s-2.63-3.7-4.52-2.23c0,0-3.34-3.07-3.87.08,0,0-2.66-2.02-1.83,3.24,0,0-1.83,3.24.57,3.73,0,0,.62,5.5,4.29,5.65,0,0,.42,5.74,4.78,3.76,0,0,1.43,3.45,4.44,1.3,0,0-.21.05,1.56-.07.65-.04.74,1.63,1.97-.93,0,0,4.23-.01,3.76-3.66,0,0,1.47-4.86-1.32-5.71,0,0-2.66-6.72-5.14-3.44,0,0-1.89-5.16-4.68-1.73Z"/>
        <path class="cls-2" d="M264.62,221.55s-1.43-2.63-2.77-1.52c0,0-1.94-2.16-2.53.14,0,0-1.58-1.41-1.44,2.39,0,0-1.44,2.39.08,2.69,0,0-.01,3.97,2.36,4.01,0,0-.17,4.15,2.83,2.63,0,0,.67,2.47,2.79.85,0,0-.14.04,1.02-.08.43-.04.36,1.17,1.35-.71,0,0,2.76-.1,2.73-2.73,0,0,1.33-3.55-.43-4.12,0,0-1.22-4.82-3.09-2.39,0,0-.84-3.7-2.92-1.16Z"/>
        <path class="cls-1" d="M243.64,235.78s-3.37-1.13-4.6,1.69c0,0-3.81,0-3.37,3.19,0,0-2.92.38-.67,4.32,0,0-.67,4.32,1.57,2.81,0,0,2.13,4.32,5.39,1.5,0,0,2.02,4.69,5.27-.56,0,0,2.24,1.88,4.26-2.44,0,0-.17.21,1.35-1.31.56-.56,1.12.83,1.46-2.4,0,0,3.7-3.42,2.24-6.23,0,0-.11-5.44-2.8-3.94,0,0-4.26-3.75-5.5,1.13,0,0-3.14-3-4.6,2.25Z"/>
      </g>
      <g>
        <path class="cls-4" d="M167.53,248.06s.14-.93,1.13-.37c0,0,4.81,13,5.51,13,0,0,1.84,1.67.42-18.21l3.39-4.64s-1.41,12.26-.85,13.38c0,0,1.56-.74,2.55-10.22l1.7-.19s-.81,8.39-1.11,8.47.3-.08.3-.08l7.03-5.98.85,1.3s-10.89,4.64-11.74,17.84c0,0,.99,45.7.57,45.89,0,0-2.69,1.3-2.55-2.04,0,0-.99-38.46-.71-38.46,0,0-1.56-9.1-6.5-19.69Z"/>
        <path class="cls-8" d="M163.14,224.46s-4.24-1.11-5.8,1.67c0,0-4.81,0-4.24,3.16,0,0-3.68.37-.85,4.27,0,0-.85,4.27,1.98,2.79,0,0,2.69,4.27,6.79,1.49,0,0,2.55,4.64,6.65-.56,0,0,2.83,1.86,5.37-2.42,0,0-.22.21,1.7-1.3.71-.56,1.41.83,1.84-2.37,0,0,4.67-3.39,2.83-6.17,0,0-.14-5.39-3.53-3.9,0,0-5.37-3.72-6.93,1.11,0,0-3.96-2.97-5.8,2.23Z"/>
        <path class="cls-5" d="M174.88,271.47v18.32s1.98-15.72,0-18.32Z"/>
        <path class="cls-5" d="M177.42,252.7s-2.06,5.57-1.67,10.96c0,0,.82-9.47,1.67-10.96Z"/>
        <path class="cls-5" d="M176.86,299.52s.42,7.99-.85,7.99c0,0,1.98,2.04.85-7.99Z"/>
        <path class="cls-7" d="M163.88,224.53s-2.87-.89-3.92,1.33c0,0-3.25,0-2.87,2.52,0,0-2.49.3-.57,3.41,0,0-.57,3.41,1.34,2.22,0,0,1.82,3.41,4.59,1.19,0,0,1.72,3.7,4.49-.44,0,0,1.91,1.48,3.63-1.93,0,0-.15.17,1.15-1.04.48-.44.96.66,1.24-1.89,0,0,3.15-2.7,1.91-4.92,0,0-.1-4.3-2.39-3.11,0,0-3.63-2.96-4.68.89,0,0-2.68-2.37-3.92,1.78Z"/>
        <path class="cls-8" d="M189.41,236.03s-2.81-4.32-5.34-3.4c0,0-3.78-3.91-4.82-.96,0,0-3.06-2.69-2.68,2.67,0,0-2.68,2.67.24,3.8,0,0,.1,5.54,4.63,6.68,0,0-.19,5.72,5.49,4.96,0,0,1.35,3.76,5.36,2.47,0,0-.27-.01,1.95.36.82.14.72,1.8,2.56-.37,0,0,5.26,1.13,5.13-2.55,0,0,2.42-4.35-.94-5.94,0,0-2.47-7.29-5.97-4.75,0,0-1.71-5.55-5.61-2.96Z"/>
        <path class="cls-3" d="M189.96,238.51s-2.12-2.66-3.82-1.67c0,0-2.77-2.24-3.35-.03,0,0-2.22-1.48-1.72,2.24,0,0-1.72,2.24.34,2.64,0,0,.32,3.88,3.48,4.07,0,0,.13,4.05,3.99,2.75,0,0,1.09,2.46,3.79,1.01,0,0-.19.03,1.35-.01.57-.01.58,1.17,1.74-.61,0,0,3.66.08,3.41-2.49,0,0,1.47-3.39-.91-4.05,0,0-2.02-4.79-4.31-2.54,0,0-1.42-3.67-3.98-1.32Z"/>
        <path class="cls-1" d="M188.65,221.67s-3.31-3.66-5.69-2.2c0,0-4.21-3.04-4.88.08,0,0-3.36-2-2.31,3.21,0,0-2.31,3.21.71,3.7,0,0,.79,5.44,5.4,5.6,0,0,.53,5.68,6.03,3.72,0,0,1.8,3.42,5.59,1.28,0,0-.27.05,1.96-.07.82-.04.94,1.62,2.48-.92,0,0,5.33-.01,4.74-3.62,0,0,1.85-4.81-1.67-5.66,0,0-3.35-6.66-6.48-3.41,0,0-2.38-5.11-5.9-1.72Z"/>
        <path class="cls-2" d="M188.68,225.14s-1.8-2.6-3.5-1.51c0,0-2.45-2.14-3.19.14,0,0-1.99-1.4-1.82,2.36,0,0-1.82,2.36.11,2.67,0,0-.02,3.94,2.98,3.97,0,0-.21,4.11,3.57,2.6,0,0,.84,2.45,3.52.84,0,0-.18.04,1.29-.08.54-.04.45,1.16,1.71-.7,0,0,3.48-.09,3.44-2.7,0,0,1.67-3.52-.54-4.07,0,0-1.53-4.77-3.89-2.37,0,0-1.05-3.67-3.68-1.15Z"/>
        <path class="cls-1" d="M162.24,239.23s-4.24-1.11-5.8,1.67c0,0-4.81,0-4.24,3.16,0,0-3.68.37-.85,4.27,0,0-.85,4.27,1.98,2.79,0,0,2.69,4.27,6.79,1.49,0,0,2.55,4.64,6.65-.56,0,0,2.83,1.86,5.37-2.42,0,0-.22.21,1.7-1.3.71-.56,1.41.83,1.84-2.37,0,0,4.67-3.39,2.83-6.17,0,0-.14-5.39-3.53-3.9,0,0-5.37-3.72-6.93,1.11,0,0-3.96-2.97-5.8,2.23Z"/>
      </g>
      <g>
        <path class="cls-4" d="M286.68,213.82s.19-1.53,1.54-.61c0,0,6.54,21.36,7.5,21.36,0,0,2.5,2.75.58-29.9l4.62-7.63s-1.92,20.14-1.15,21.97c0,0,2.12-1.22,3.46-16.78l2.31-.31s-1.1,13.79-1.51,13.91.41-.12.41-.12l9.57-9.82,1.15,2.14s-14.81,7.63-15.97,29.29c0,0,1.35,75.05.77,75.36,0,0-3.66,2.14-3.46-3.36,0,0-1.35-63.15-.96-63.15,0,0-2.12-14.95-8.85-32.34Z"/>
        <path class="cls-8" d="M280.71,175.07s-5.77-1.83-7.89,2.75c0,0-6.54,0-5.77,5.19,0,0-5,.61-1.15,7.02,0,0-1.15,7.02,2.69,4.58,0,0,3.66,7.02,9.23,2.44,0,0,3.46,7.63,9.04-.92,0,0,3.85,3.05,7.31-3.97,0,0-.3.35,2.31-2.14.96-.92,1.92,1.36,2.5-3.9,0,0,6.35-5.56,3.85-10.14,0,0-.19-8.85-4.81-6.41,0,0-7.31-6.1-9.43,1.83,0,0-5.39-4.88-7.89,3.66Z"/>
        <path class="cls-5" d="M296.68,252.26v30.08s2.69-25.81,0-30.08Z"/>
        <path class="cls-5" d="M300.14,221.45s-2.8,9.15-2.27,18c0,0,1.11-15.56,2.27-18Z"/>
        <path class="cls-5" d="M299.37,298.33s.58,13.12-1.15,13.12c0,0,2.69,3.36,1.15-13.12Z"/>
        <path class="cls-7" d="M281.71,175.19s-3.9-1.46-5.33,2.19c0,0-4.42,0-3.9,4.14,0,0-3.38.49-.78,5.6,0,0-.78,5.6,1.82,3.65,0,0,2.47,5.6,6.24,1.95,0,0,2.34,6.08,6.11-.73,0,0,2.6,2.43,4.94-3.16,0,0-.2.28,1.56-1.7.65-.73,1.3,1.08,1.69-3.11,0,0,4.29-4.43,2.6-8.08,0,0-.13-7.06-3.25-5.11,0,0-4.94-4.87-6.37,1.46,0,0-3.64-3.89-5.33,2.92Z"/>
        <path class="cls-8" d="M316.45,194.06s-3.82-7.1-7.27-5.58c0,0-5.14-6.41-6.56-1.58,0,0-4.17-4.43-3.64,4.38,0,0-3.64,4.38.33,6.24,0,0,.14,9.1,6.31,10.97,0,0-.25,9.39,7.46,8.15,0,0,1.83,6.17,7.29,4.05,0,0-.37-.02,2.65.59,1.11.22.98,2.95,3.49-.61,0,0,7.16,1.86,6.98-4.19,0,0,3.3-7.14-1.28-9.75,0,0-3.37-11.96-8.12-7.81,0,0-2.33-9.12-7.63-4.86Z"/>
        <path class="cls-3" d="M317.2,198.14s-2.89-4.37-5.2-2.74c0,0-3.77-3.67-4.56-.04,0,0-3.03-2.43-2.34,3.68,0,0-2.34,3.68.46,4.33,0,0,.43,6.38,4.74,6.69,0,0,.17,6.64,5.43,4.51,0,0,1.49,4.04,5.16,1.66,0,0-.26.05,1.84-.02.77-.02.78,1.92,2.37-1,0,0,4.98.14,4.64-4.09,0,0,2-5.56-1.24-6.65,0,0-2.75-7.86-5.87-4.16,0,0-1.94-6.03-5.42-2.17Z"/>
        <path class="cls-1" d="M315.42,170.48s-4.5-6.01-7.75-3.62c0,0-5.73-5-6.63.14,0,0-4.57-3.29-3.14,5.27,0,0-3.14,5.27.97,6.07,0,0,1.07,8.94,7.35,9.19,0,0,.72,9.33,8.2,6.11,0,0,2.45,5.61,7.61,2.11,0,0-.37.07,2.67-.11,1.12-.07,1.27,2.66,3.38-1.51,0,0,7.25-.02,6.45-5.94,0,0,2.52-7.9-2.27-9.29,0,0-4.55-10.93-8.82-5.6,0,0-3.24-8.39-8.02-2.82Z"/>
        <path class="cls-2" d="M315.46,176.19s-2.45-4.27-4.76-2.48c0,0-3.33-3.51-4.33.23,0,0-2.71-2.29-2.47,3.88,0,0-2.47,3.88.14,4.38,0,0-.02,6.46,4.05,6.52,0,0-.28,6.75,4.85,4.27,0,0,1.14,4.02,4.79,1.38,0,0-.25.06,1.75-.13.74-.07.62,1.9,2.32-1.16,0,0,4.73-.16,4.68-4.43,0,0,2.28-5.78-.73-6.69,0,0-2.09-7.84-5.3-3.89,0,0-1.43-6.02-5-1.89Z"/>
        <path class="cls-1" d="M279.48,199.33s-5.77-1.83-7.89,2.75c0,0-6.54,0-5.77,5.19,0,0-5,.61-1.15,7.02,0,0-1.15,7.02,2.69,4.58,0,0,3.66,7.02,9.23,2.44,0,0,3.46,7.63,9.04-.92,0,0,3.85,3.05,7.31-3.97,0,0-.3.35,2.31-2.14.96-.92,1.92,1.36,2.5-3.9,0,0,6.35-5.56,3.85-10.14,0,0-.19-8.85-4.81-6.41,0,0-7.31-6.1-9.43,1.83,0,0-5.39-4.88-7.89,3.66Z"/>
      </g>
      <g>
        <path class="cls-4" d="M304.26,169.87s.25-2.25,2.02-.9c0,0,8.61,31.53,9.87,31.53,0,0,3.29,4.05.76-44.15l6.07-11.26s-2.53,29.73-1.52,32.43c0,0,2.78-1.8,4.56-24.78l3.04-.45s-1.45,20.36-1.99,20.54c-.54.18.54-.18.54-.18l12.59-14.5,1.52,3.15s-19.49,11.26-21.01,43.25c0,0,1.77,110.82,1.01,111.27,0,0-4.81,3.15-4.56-4.96,0,0-1.77-93.25-1.27-93.25,0,0-2.78-22.07-11.64-47.75Z"/>
        <path class="cls-8" d="M296.42,112.66s-7.59-2.7-10.38,4.05c0,0-8.61,0-7.59,7.66,0,0-6.58.9-1.52,10.36,0,0-1.52,10.36,3.54,6.76,0,0,4.81,10.36,12.15,3.6,0,0,4.56,11.26,11.9-1.35,0,0,5.06,4.5,9.62-5.86,0,0-.39.51,3.04-3.15,1.27-1.35,2.53,2,3.29-5.76,0,0,8.35-8.21,5.06-14.97,0,0-.25-13.06-6.33-9.46,0,0-9.62-9.01-12.4,2.7,0,0-7.09-7.21-10.38,5.41Z"/>
        <path class="cls-5" d="M317.42,226.63v44.41s3.54-38.11,0-44.41Z"/>
        <path class="cls-5" d="M321.98,181.14s-3.68,13.51-2.98,26.58c0,0,1.46-22.97,2.98-26.58Z"/>
        <path class="cls-5" d="M320.96,294.66s.76,19.37-1.52,19.37c0,0,3.54,4.96,1.52-19.37Z"/>
        <path class="cls-7" d="M297.73,112.83s-5.13-2.16-7.01,3.23c0,0-5.82,0-5.13,6.11,0,0-4.45.72-1.03,8.26,0,0-1.03,8.26,2.4,5.39,0,0,3.25,8.26,8.21,2.87,0,0,3.08,8.98,8.04-1.08,0,0,3.42,3.59,6.5-4.67,0,0-.27.41,2.05-2.52.86-1.08,1.71,1.6,2.22-4.59,0,0,5.65-6.55,3.42-11.94,0,0-.17-10.42-4.28-7.55,0,0-6.5-7.19-8.38,2.16,0,0-4.79-5.75-7.01,4.31Z"/>
        <path class="cls-8" d="M343.44,140.7s-5.03-10.48-9.56-8.23c0,0-6.76-9.47-8.63-2.34,0,0-5.48-6.53-4.79,6.47,0,0-4.79,6.47.44,9.21,0,0,.18,13.44,8.3,16.2,0,0-.33,13.86,9.82,12.03,0,0,2.41,9.11,9.59,5.98,0,0-.49-.03,3.48.86,1.46.33,1.29,4.36,4.59-.9,0,0,9.42,2.74,9.18-6.19,0,0,4.34-10.55-1.69-14.4,0,0-4.43-17.67-10.69-11.52,0,0-3.07-13.46-10.03-7.17Z"/>
        <path class="cls-3" d="M344.42,146.72s-3.8-6.45-6.84-4.04c0,0-4.96-5.42-6-.07,0,0-3.98-3.59-3.08,5.43,0,0-3.08,5.43.6,6.4,0,0,.56,9.41,6.23,9.88,0,0,.23,9.81,7.14,6.66,0,0,1.96,5.97,6.79,2.45,0,0-.34.07,2.42-.03,1.02-.04,1.03,2.83,3.12-1.47,0,0,6.56.2,6.1-6.03,0,0,2.63-8.21-1.63-9.82,0,0-3.62-11.61-7.72-6.15,0,0-2.55-8.91-7.13-3.21Z"/>
        <path class="cls-1" d="M342.07,105.89s-5.92-8.88-10.19-5.34c0,0-7.54-7.38-8.73.2,0,0-6.01-4.85-4.13,7.78,0,0-4.13,7.78,1.28,8.96,0,0,1.41,13.2,9.67,13.57,0,0,.94,13.78,10.79,9.01,0,0,3.22,8.29,10.01,3.11,0,0-.48.11,3.51-.16,1.47-.1,1.68,3.92,4.44-2.22,0,0,9.54-.03,8.49-8.77,0,0,3.31-11.67-2.98-13.72,0,0-5.99-16.14-11.6-8.26,0,0-4.26-12.39-10.56-4.16Z"/>
        <path class="cls-2" d="M342.13,114.31s-3.22-6.31-6.26-3.65c0,0-4.39-5.19-5.7.33,0,0-3.57-3.39-3.25,5.73,0,0-3.25,5.73.19,6.47,0,0-.03,9.54,5.33,9.63,0,0-.37,9.97,6.39,6.3,0,0,1.5,5.94,6.3,2.04,0,0-.32.09,2.3-.19.97-.1.81,2.81,3.05-1.71,0,0,6.22-.23,6.16-6.54,0,0,3-8.53-.96-9.88,0,0-2.74-11.57-6.97-5.74,0,0-1.89-8.89-6.58-2.79Z"/>
        <path class="cls-1" d="M294.8,148.48s-7.59-2.7-10.38,4.05c0,0-8.61,0-7.59,7.66,0,0-6.58.9-1.52,10.36,0,0-1.52,10.36,3.54,6.76,0,0,4.81,10.36,12.15,3.6,0,0,4.56,11.26,11.9-1.35,0,0,5.06,4.5,9.62-5.86,0,0-.39.51,3.04-3.15,1.27-1.35,2.53,2,3.29-5.76,0,0,8.35-8.21,5.06-14.97,0,0-.25-13.06-6.33-9.46,0,0-9.62-9.01-12.4,2.7,0,0-7.09-7.21-10.38,5.41Z"/>
      </g>
      <g>
        <path class="cls-4" d="M57.16,210.16s.19-1.53,1.54-.61c0,0,6.54,21.36,7.5,21.36,0,0,2.5,2.75.58-29.9l4.62-7.63s-1.92,20.14-1.15,21.97c0,0,2.12-1.22,3.46-16.78l2.31-.31s-1.1,13.79-1.51,13.91.41-.12.41-.12l9.57-9.82,1.15,2.14s-14.81,7.63-15.97,29.29c0,0,1.35,75.05.77,75.36,0,0-3.66,2.14-3.46-3.36,0,0-1.35-63.15-.96-63.15,0,0-2.12-14.95-8.85-32.34Z"/>
        <path class="cls-8" d="M51.19,171.41s-5.77-1.83-7.89,2.75c0,0-6.54,0-5.77,5.19,0,0-5,.61-1.15,7.02,0,0-1.15,7.02,2.69,4.58,0,0,3.66,7.02,9.23,2.44,0,0,3.46,7.63,9.04-.92,0,0,3.85,3.05,7.31-3.97,0,0-.3.35,2.31-2.14.96-.92,1.92,1.36,2.5-3.9,0,0,6.35-5.56,3.85-10.14,0,0-.19-8.85-4.81-6.41,0,0-7.31-6.1-9.43,1.83,0,0-5.39-4.88-7.89,3.66Z"/>
        <path class="cls-5" d="M67.16,248.6v30.08s2.69-25.81,0-30.08Z"/>
        <path class="cls-5" d="M70.62,217.79s-2.8,9.15-2.27,18c0,0,1.11-15.56,2.27-18Z"/>
        <path class="cls-5" d="M69.86,294.67s.58,13.12-1.15,13.12c0,0,2.69,3.36,1.15-13.12Z"/>
        <path class="cls-7" d="M52.2,171.53s-3.9-1.46-5.33,2.19c0,0-4.42,0-3.9,4.14,0,0-3.38.49-.78,5.6,0,0-.78,5.6,1.82,3.65,0,0,2.47,5.6,6.24,1.95,0,0,2.34,6.08,6.11-.73,0,0,2.6,2.43,4.94-3.16,0,0-.2.28,1.56-1.7.65-.73,1.3,1.08,1.69-3.11,0,0,4.29-4.43,2.6-8.08,0,0-.13-7.06-3.25-5.11,0,0-4.94-4.87-6.37,1.46,0,0-3.64-3.89-5.33,2.92Z"/>
        <path class="cls-8" d="M86.94,190.4s-3.82-7.1-7.27-5.58c0,0-5.14-6.41-6.56-1.58,0,0-4.17-4.43-3.64,4.38,0,0-3.64,4.38.33,6.24,0,0,.14,9.1,6.31,10.97,0,0-.25,9.39,7.46,8.15,0,0,1.83,6.17,7.29,4.05,0,0-.37-.02,2.65.59,1.11.22.98,2.95,3.49-.61,0,0,7.16,1.86,6.98-4.19,0,0,3.3-7.14-1.28-9.75,0,0-3.37-11.96-8.12-7.81,0,0-2.33-9.12-7.63-4.86Z"/>
        <path class="cls-3" d="M87.68,194.48s-2.89-4.37-5.2-2.74c0,0-3.77-3.67-4.56-.04,0,0-3.03-2.43-2.34,3.68,0,0-2.34,3.68.46,4.33,0,0,.43,6.38,4.74,6.69,0,0,.17,6.64,5.43,4.51,0,0,1.49,4.04,5.16,1.66,0,0-.26.05,1.84-.02.77-.02.78,1.92,2.37-1,0,0,4.98.14,4.64-4.09,0,0,2-5.56-1.24-6.65,0,0-2.75-7.86-5.87-4.16,0,0-1.94-6.03-5.42-2.17Z"/>
        <path class="cls-1" d="M85.9,166.82s-4.5-6.01-7.75-3.62c0,0-5.73-5-6.63.14,0,0-4.57-3.29-3.14,5.27,0,0-3.14,5.27.97,6.07,0,0,1.07,8.94,7.35,9.19,0,0,.72,9.33,8.2,6.11,0,0,2.45,5.61,7.61,2.11,0,0-.37.07,2.67-.11,1.12-.07,1.27,2.66,3.38-1.51,0,0,7.25-.02,6.45-5.94,0,0,2.52-7.9-2.27-9.29,0,0-4.55-10.93-8.82-5.6,0,0-3.24-8.39-8.02-2.82Z"/>
        <path class="cls-2" d="M85.94,172.53s-2.45-4.27-4.76-2.48c0,0-3.33-3.51-4.33.23,0,0-2.71-2.29-2.47,3.88,0,0-2.47,3.88.14,4.38,0,0-.02,6.46,4.05,6.52,0,0-.28,6.75,4.85,4.27,0,0,1.14,4.02,4.79,1.38,0,0-.25.06,1.75-.13.74-.07.62,1.9,2.32-1.16,0,0,4.73-.16,4.68-4.43,0,0,2.28-5.78-.73-6.69,0,0-2.09-7.84-5.3-3.89,0,0-1.43-6.02-5-1.89Z"/>
        <path class="cls-1" d="M49.96,195.67s-5.77-1.83-7.89,2.75c0,0-6.54,0-5.77,5.19,0,0-5,.61-1.15,7.02,0,0-1.15,7.02,2.69,4.58,0,0,3.66,7.02,9.23,2.44,0,0,3.46,7.63,9.04-.92,0,0,3.85,3.05,7.31-3.97,0,0-.3.35,2.31-2.14.96-.92,1.92,1.36,2.5-3.9,0,0,6.35-5.56,3.85-10.14,0,0-.19-8.85-4.81-6.41,0,0-7.31-6.1-9.43,1.83,0,0-5.39-4.88-7.89,3.66Z"/>
      </g>
      <g>
        <polygon class="cls-11" points="55.36 86.74 36.51 92.61 36.51 117.6 58.4 111.72 55.36 86.74"/>
        <polygon class="cls-11" points="55.36 51.47 83.93 36.77 83.93 67.63 55.36 83.8 55.36 51.47"/>
        <polygon class="cls-11" points="108.25 88.2 108.25 58.81 83.93 36.77 83.93 67.63 108.25 88.2"/>
        <polygon class="cls-11" points="137.44 79.39 138.04 45.59 108.25 58.81 108.25 88.2 137.44 79.39"/>
        <polygon class="cls-11" points="155.68 95.55 156.28 64.69 138.04 45.59 137.44 79.39 155.68 95.55"/>
        <polygon class="cls-10" points="58.4 111.72 80.89 123.47 79.07 142.58 60.83 148.46 40.16 138.17 36.51 117.6 58.4 111.72"/>
        <polygon class="cls-10" points="61.44 163.15 60.83 148.46 79.07 142.58 82.11 169.03 77.24 170.5 61.44 163.15"/>
        <polygon class="cls-10" points="104 116.13 108.25 88.2 83.93 67.63 55.36 83.8 58.4 111.72 80.89 123.47 104 116.13"/>
        <polygon class="cls-12" points="87.58 230.75 79.07 142.58 80.89 123.47 102.17 230.75 87.58 230.75"/>
        <polygon class="cls-6" points="113.12 229.28 103.39 113.19 122.84 129.35 113.12 229.28"/>
        <polygon class="cls-12" points="80.89 123.47 104 116.13 113.12 229.28 102.17 230.75 80.89 123.47"/>
        <polygon class="cls-10" points="145.34 120.53 155.68 95.55 137.44 79.39 108.25 88.2 104 116.13 122.24 127.88 145.34 120.53"/>
        <polygon class="cls-10" points="151.42 151.39 161.15 133.76 145.34 120.53 122.24 127.88 119.8 148.46 130.14 154.33 151.42 151.39"/>
        <polygon class="cls-11" points="161.15 111.72 152.28 105.98 145.34 120.53 161.15 133.76 161.15 111.72"/>
        <polygon class="cls-13" points="125.88 166.09 130.14 154.33 119.8 148.46 117.98 169.03 125.88 166.09"/>
        <polygon class="cls-13" points="120.41 191.07 116.76 188.13 117.98 169.03 125.88 166.09 136.22 171.97 133.79 185.19 120.41 191.07"/>
        <polygon class="cls-13" points="136.22 207.24 133.79 185.19 120.41 191.07 121.02 198.42 133.18 205.77 136.22 207.24"/>
        <polygon class="cls-12" points="139.87 248.38 152.64 166.09 136.22 171.97 136.22 207.24 139.87 248.38"/>
        <polygon class="cls-6" points="151.42 249.85 166.01 174.91 152.64 166.09 139.87 248.38 151.42 249.85"/>
        <polygon class="cls-12" points="159.32 249.85 166.01 174.91 151.42 249.85 159.32 249.85"/>
        <path class="cls-13" d="M155.37,146.25c-1.32,1.71-2.63,3.43-3.95,5.14l-21.28,2.94-4.26,11.76,10.34,5.88,16.42-5.88c.91-6.61,1.82-13.23,2.74-19.84Z"/>
        <polygon class="cls-11" points="155.28 146.07 176.35 138.17 176.96 114.66 161.27 121.57 161.15 133.76 155.28 146.07"/>
        <polygon class="cls-11" points="190.33 151.39 190.94 127.88 176.96 114.66 176.35 138.17 190.33 151.39"/>
        <polygon class="cls-13" points="166.01 174.91 183.04 170.5 190.33 151.39 176.35 138.17 155.28 146.07 152.64 166.09 166.01 174.91"/>
        <polygon class="cls-13" points="162.36 205.77 167.84 204.3 172.09 194.01 163.8 190.07 162.36 205.77"/>
        <polygon class="cls-6" points="177.56 179.32 178.17 192.54 190.94 189.6 189.12 171.97 177.56 179.32"/>
        <polygon class="cls-11" points="189.12 152.86 189.12 171.97 206.14 163.15 205.53 144.05 189.12 152.86"/>
        <polygon class="cls-11" points="220.73 174.91 220.73 155.8 205.53 144.05 206.14 163.15 220.73 174.91"/>
        <polygon class="cls-10" points="204.32 195.48 190.94 189.6 189.12 171.97 206.14 163.15 220.73 174.91 217.69 191.07 204.32 195.48"/>
        <polygon class="cls-6" points="180 205.77 178.17 192.54 190.94 189.6 204.32 195.48 203.71 208.71 192.16 211.65 180 205.77"/>
        <polygon class="cls-12" points="207.96 261.61 217.69 191.07 204.32 195.48 204.92 223.4 207.96 261.61"/>
        <polygon class="cls-12" points="217.08 260.14 229.24 198.42 217.69 191.07 208.27 259.12 217.08 260.14"/>
        <path class="cls-12" d="M223.77,260.14c1.52-18.86,3.04-37.72,4.56-56.58-3.75,18.86-7.5,37.72-11.25,56.58h6.69Z"/>
        <polygon class="cls-12" points="178.17 267.49 182.43 216.05 173.31 210.18 178.17 267.49"/>
        <path class="cls-12" d="M172.09,267.49l-9.67-53.48c-.32,3.86-.65,7.73-.97,11.59,1.52,13.96,3.04,27.92,4.56,41.88h6.08Z"/>
        <polygon class="cls-12" points="173.31 210.18 178.17 267.49 172.09 267.49 162.42 214.01 173.31 210.18"/>
        <polygon class="cls-6" points="172.09 194.01 167.84 204.3 162.36 205.77 162.42 214.01 173.31 210.18 175.74 196.95 172.09 194.01"/>
        <polygon class="cls-10" points="180.85 236.84 184.86 235.16 187.29 229.28 182 224.59 180.85 236.84"/>
        <polygon class="cls-10" points="197.63 227.81 200.06 223.4 192.76 218.99 192.16 213.11 183.04 217.52 181.83 226.68 187.19 229.88 197.63 227.81"/>
        <polygon class="cls-10" points="177.56 192.54 179.99 204.96 192.16 211.65 203.71 207.24 204.92 195.48 190.94 189.6 177.56 192.54"/>
        <polygon class="cls-10" points="175.74 196.95 173.92 210.18 162.42 214.01 162.88 205.52 168.44 204.3 172.09 195.48 173.42 194.94 175.74 196.95"/>
        <polygon class="cls-10" points="178.09 195.77 175.74 196.95 173.6 210.11 183.04 216.05 192.14 213.59 192.16 211.65 180 204.3 178.09 195.77"/>
        <polygon class="cls-6" points="217.95 191.18 220.73 174.91 238.36 169.03 249.31 180.79 243.23 194.01 229.31 199.16 217.95 191.18"/>
        <polygon class="cls-11" points="220.73 157.27 220.63 175.77 238.36 169.03 238.36 160.21 237.15 155.8 237.15 149.93 220.73 157.27"/>
        <polygon class="cls-11" points="237.15 135.23 237.15 155.8 255.39 149.93 252.95 129.35 237.15 135.23"/>
        <polygon class="cls-10" points="243.23 195.48 252.35 201.36 246.27 213.11 234.11 216.05 228.03 211.65 229.31 199.16 243.23 195.48"/>
        <polygon class="cls-6" points="231.67 221.93 240.19 218.99 239.58 214.58 234.11 214.58 231.67 221.93"/>
        <polygon class="cls-6" points="226.81 223.4 228.03 211.65 234.11 214.58 231.67 221.93 226.81 223.4"/>
        <polygon class="cls-10" points="231.67 230.75 230.46 223.4 240.19 218.99 250.52 224.87 249.31 232.22 241.4 235.16 231.67 230.75"/>
        <polygon class="cls-10" points="250.52 243.98 248.7 245.44 241.4 241.04 241.4 235.16 249.31 232.22 250.52 243.98"/>
        <polygon class="cls-6" points="260.25 220.46 250.52 224.87 259.64 271.9 264.51 271.9 260.25 220.46"/>
        <polygon class="cls-12" points="268.76 226.34 264.51 271.9 260.25 220.46 268.76 226.34"/>
        <polygon class="cls-12" points="250.52 224.87 249.31 232.22 253.56 271.9 259.64 271.9 250.52 224.87"/>
        <polygon class="cls-10" points="260.25 220.46 262.07 208.71 252.35 201.36 246.52 212.71 239.58 214.58 240.19 218.99 250.52 224.87 260.25 220.46"/>
        <polyline class="cls-10" points="274.23 204.3 262.07 208.71 260.25 220.46 268.76 226.34 276.06 224.87 274.23 204.3"/>
        <path class="cls-10" d="M277.27,236.63l-4.86,1.47c-1.52-.73-3.04-1.47-4.56-2.2.3-3.18.61-6.37.91-9.55l7.3-2.94,1.22,13.23Z"/>
        <polygon class="cls-6" points="266.94 245.44 270.59 243.98 272.41 238.1 267.55 235.16 266.94 245.44"/>
        <polygon class="cls-11" points="262.07 208.71 262.07 195.48 265.11 194.01 271.19 196.95 273.63 195.48 274.23 204.3 262.07 208.71"/>
        <polygon class="cls-11" points="251.74 188.13 251.74 185.19 262.07 195.48 262.07 208.71 252.35 199.89 252.35 188.13 251.74 188.13"/>
        <polygon class="cls-11" points="247.36 184.87 243.23 195.48 252.35 201.36 252.35 188.13 247.36 184.87"/>
        <polygon class="cls-6" points="256.6 179.32 257.21 189.6 270.48 196.93 273.63 195.48 271.8 174.91 256.6 179.32"/>
        <polygon class="cls-12" points="278.49 243.98 271.8 173.44 273.63 158.74 290.04 243.98 278.49 243.98"/>
        <polygon class="cls-6" points="299.16 245.44 291.26 152.86 306.46 164.62 299.16 245.44"/>
        <polygon class="cls-12" points="273.55 159.44 290.04 243.98 299.16 245.44 291.26 152.86 273.55 159.44"/>
        <polygon class="cls-6" points="237.45 156.1 254.96 150.16 273.55 159.44 271.8 174.91 256.58 180.04 240.22 170.95 237.45 156.1"/>
        <polygon class="cls-10" points="273.65 196.19 270.59 196.95 257.21 189.6 256.6 179.32 271.8 174.91 273.65 196.19"/>
        <polygon class="cls-11" points="252.35 126.41 252.35 101.43 275.45 89.67 275.45 116.13 252.35 126.41"/>
        <polygon class="cls-6" points="294.91 132.29 294.91 107.31 275.45 89.67 275.45 116.13 294.91 132.29"/>
        <polygon class="cls-10" points="291.26 152.86 294.91 132.29 275.45 116.13 252.35 126.41 255.39 149.93 273.55 159.44 291.26 152.86"/>
        <polygon class="cls-11" points="294.91 107.31 294.61 132.15 275.45 116.13 275.26 90.11 294.91 107.31"/>
        <polygon class="cls-11" points="318.62 97.02 318.62 122 294.61 132.15 294.67 107.09 318.62 97.02"/>
        <polygon class="cls-11" points="333.21 138.17 333.82 111.72 318.62 97.02 318.62 122 333.21 138.17"/>
        <polygon class="cls-11" points="336.86 167.56 337.47 148.46 330.78 144.05 324.7 157.27 336.86 167.56"/>
        <polygon class="cls-6" points="333.43 137.3 318.34 122.13 294.91 132.29 291.44 152.76 306.46 163.15 324.7 157.27 333.43 137.3"/>
        <polygon class="cls-10" points="304.63 179.32 312.54 185.19 329.56 182.25 337.47 167.56 324.7 157.27 306.25 163.34 304.63 179.32"/>
        <polygon class="cls-6" points="291.39 152.2 294.91 132.29 318.34 122.13 333.43 137.3 324.7 157.27 306.25 163.34 291.39 152.2"/>
        <polygon class="cls-13" points="163.8 190.07 166.01 174.91 183.04 170.5 187.42 173.92 177.56 177.85 177.86 193.69 171.64 195.36 163.8 190.07"/>
        <polygon class="cls-11" points="178.17 192.54 177.56 177.85 189.3 173.17 190.84 188.58 178.17 192.54"/>
        <polygon class="cls-11" points="183.31 169.83 189.07 155.73 188.92 173.36 183.31 169.83"/>
        <polygon class="cls-10" points="204.58 201.2 204.92 223.4 202.8 224.14 192.76 218.99 192.16 211.65 201.05 208.81 204.58 201.2"/>
        <polygon class="cls-10" points="238.03 169 249.61 180.05 242.71 195.45 229.31 199.16 217.99 190.34 221.03 175.64 238.03 169"/>
        <polygon class="cls-11" points="238.67 163.89 239.99 170.11 238.49 169.09 238.67 163.89"/>
        <polygon class="cls-11" points="241.91 172.06 249.61 180.05 249.61 175.64 241.91 172.06"/>
        <polygon class="cls-13" points="226.81 223.4 230.76 222.67 233.77 216.24 228.03 211.65 226.81 223.4"/>
        <polygon class="cls-11" points="239.88 218.26 239.22 214.94 233.46 216.05 231.31 222.18 239.88 218.26"/>
        <path class="cls-13" d="M267.24,244.71l3.34-.73,2.2-6.02c-1.64-1.18-3.29-2.36-4.93-3.53-.2,3.43-.41,6.86-.61,10.29Z"/>
        <polygon class="cls-12" points="259.64 271.9 264.51 271.9 260.25 220.46 250.52 224.87 259.64 271.9"/>
        <polygon class="cls-12" points="152.64 166.09 166.01 174.91 151.42 249.85 139.56 250.59 152.64 166.09"/>
        <polygon class="cls-10" points="237.45 156.1 239.99 170.11 256.6 179.32 271.8 174.91 273.55 159.44 255.39 149.93 237.45 156.1"/>
        <polygon class="cls-10" points="306.46 164.62 324.7 157.27 333.43 137.3 318.34 122.13 294.91 132.29 291.39 152.2 306.46 164.62"/>
        <polygon class="cls-10" points="303.11 196.22 304.63 179.32 312.54 185.19 308.59 194.75 303.11 196.22"/>
        <polygon class="cls-12" points="306.46 164.62 291.39 152.2 299.16 245.44 306.46 164.62"/>
        <polygon class="cls-12" points="104 116.13 122.24 127.88 113.12 229.28 104 116.13"/>
        <polygon class="cls-9" points="87.58 230.75 113.12 229.28 113.42 304.96 112.2 304.96 111.6 243.24 102.48 243.24 102.48 304.96 101.26 304.96 100.65 243.24 89.1 243.24 89.1 304.96 87.28 304.96 87.58 230.75"/>
        <polygon class="cls-9" points="206.7 258.52 224.17 257.58 224.38 305.7 223.55 305.7 223.13 266.46 216.89 266.46 216.89 305.7 216.06 305.7 215.64 266.46 207.74 266.46 207.74 305.7 206.49 305.7 206.7 258.52"/>
        <polygon class="cls-9" points="252.84 270.05 264.97 269.34 265.11 305.7 264.54 305.7 264.25 276.05 259.92 276.05 259.92 305.7 259.34 305.7 259.05 276.05 253.56 276.05 253.56 305.7 252.7 305.7 252.84 270.05"/>
        <polygon class="cls-9" points="139.24 250.94 159.09 249.85 159.32 305.7 158.38 305.7 157.91 260.15 150.82 260.15 150.82 305.7 149.87 305.7 149.4 260.15 140.42 260.15 140.42 305.7 139 305.7 139.24 250.94"/>
        <polygon class="cls-9" points="165.3 268.23 178.62 267.49 178.78 305.7 178.15 305.7 177.83 274.54 173.07 274.54 173.07 305.7 172.44 305.7 172.12 274.54 166.1 274.54 166.1 305.7 165.14 305.7 165.3 268.23"/>
        <polygon class="cls-9" points="278.26 244.94 298.92 243.74 299.16 305.7 298.18 305.7 297.69 255.17 290.31 255.17 290.31 305.7 289.33 305.7 288.83 255.17 279.49 255.17 279.49 305.7 278.02 305.7 278.26 244.94"/>
      </g>
      <rect class="cls-16" x=".5" y="306.15" width="369.96" height="24.71"/>
    </g>
  </g>
</svg>