<?xml version="1.0" encoding="UTF-8"?>
<svg id="Capa_1" data-name="Capa 1" xmlns="http://www.w3.org/2000/svg" viewBox="0 0 628.98 396.67">
  <defs>
    <style>
      .cls-1 {
        fill: #0c730e;
      }

      .cls-1, .cls-2, .cls-3, .cls-4, .cls-5, .cls-6, .cls-7, .cls-8, .cls-9 {
        stroke-width: 0px;
      }

      .cls-2 {
        fill: #1f891f;
      }

      .cls-3 {
        fill: #0c510c;
      }

      .cls-10 {
        fill: #bb6e3d;
      }

      .cls-10, .cls-11, .cls-12, .cls-13, .cls-14, .cls-15 {
        stroke-miterlimit: 10;
      }

      .cls-10, .cls-13 {
        stroke: #e5d8d1;
      }

      .cls-4 {
        fill: #3a2103;
      }

      .cls-11 {
        fill: #674928;
        stroke: #f2e6da;
      }

      .cls-5 {
        fill: #5b4216;
      }

      .cls-6 {
        fill: none;
      }

      .cls-7 {
        fill: #267226;
      }

      .cls-12 {
        fill: #9b5c23;
        stroke: #ccb59e;
      }

      .cls-8 {
        fill: #045906;
      }

      .cls-13 {
        fill: #c18668;
      }

      .cls-14 {
        fill: #5f8589;
      }

      .cls-14, .cls-15 {
        stroke: #000;
      }

      .cls-9 {
        fill: #353524;
      }

      .cls-15 {
        fill: #383528;
      }
    </style>
  </defs>
  <rect class="cls-14" x=".5" y=".5" width="627" height="395.67"/>
  <g>
    <path class="cls-4" d="M43.22,224.14s.32-2.48,2.59-.99c0,0,11.01,34.66,12.63,34.66,0,0,4.21,4.46.97-48.52l7.77-12.38s-3.24,32.68-1.94,35.65c0,0,3.56-1.98,5.83-27.23l3.89-.5s-1.85,22.37-2.55,22.57.69-.2.69-.2l16.1-15.94,1.94,3.47s-24.93,12.38-26.88,47.53c0,0,2.27,121.8,1.3,122.3,0,0-6.15,3.47-5.83-5.45,0,0-2.27-102.49-1.62-102.49,0,0-3.56-24.26-14.89-52.48Z"/>
    <path class="cls-8" d="M33.18,161.26s-9.71-2.97-13.28,4.46c0,0-11.01,0-9.71,8.42,0,0-8.42.99-1.94,11.39,0,0-1.94,11.39,4.53,7.43,0,0,6.15,11.39,15.54,3.96,0,0,5.83,12.38,15.22-1.49,0,0,6.48,4.95,12.3-6.44,0,0-.5.56,3.89-3.47,1.62-1.49,3.24,2.2,4.21-6.33,0,0,10.69-9.02,6.48-16.45,0,0-.32-14.36-8.1-10.4,0,0-12.3-9.9-15.87,2.97,0,0-9.07-7.92-13.28,5.94Z"/>
    <path class="cls-5" d="M60.06,286.52v48.81s4.53-41.88,0-48.81Z"/>
    <path class="cls-5" d="M65.89,236.52s-4.71,14.85-3.81,29.21c0,0,1.87-25.25,3.81-29.21Z"/>
    <path class="cls-5" d="M64.59,361.29s.97,21.29-1.94,21.29c0,0,4.53,5.45,1.94-21.29Z"/>
    <path class="cls-7" d="M34.87,161.44s-6.57-2.37-8.97,3.55c0,0-7.44,0-6.57,6.71,0,0-5.69.79-1.31,9.08,0,0-1.31,9.08,3.06,5.92,0,0,4.16,9.08,10.51,3.16,0,0,3.94,9.87,10.29-1.18,0,0,4.38,3.95,8.32-5.13,0,0-.34.45,2.63-2.76,1.09-1.18,2.19,1.75,2.85-5.05,0,0,7.22-7.2,4.38-13.12,0,0-.22-11.45-5.47-8.29,0,0-8.32-7.9-10.73,2.37,0,0-6.13-6.32-8.97,4.74Z"/>
    <path class="cls-8" d="M93.34,192.08s-6.43-11.52-12.24-9.05c0,0-8.65-10.41-11.04-2.57,0,0-7.02-7.18-6.13,7.11,0,0-6.13,7.11.56,10.12,0,0,.23,14.77,10.61,17.81,0,0-.42,15.24,12.56,13.22,0,0,3.09,10.01,12.27,6.58,0,0-.62-.04,4.46.95,1.87.36,1.66,4.79,5.87-.99,0,0,12.05,3.01,11.74-6.8,0,0,5.55-11.59-2.16-15.83,0,0-5.67-19.42-13.67-12.67,0,0-3.92-14.8-12.84-7.88Z"/>
    <path class="cls-3" d="M94.6,198.69s-4.86-7.09-8.75-4.44c0,0-6.34-5.96-7.68-.07,0,0-5.09-3.95-3.94,5.97,0,0-3.94,5.97.77,7.03,0,0,.72,10.35,7.97,10.85,0,0,.29,10.78,9.13,7.32,0,0,2.5,6.56,8.68,2.69,0,0-.43.07,3.1-.03,1.3-.04,1.32,3.11,3.99-1.62,0,0,8.39.23,7.8-6.63,0,0,3.37-9.02-2.09-10.79,0,0-4.63-12.76-9.87-6.76,0,0-3.26-9.79-9.12-3.53Z"/>
    <path class="cls-1" d="M91.59,153.81s-7.58-9.76-13.04-5.87c0,0-9.65-8.11-11.16.22,0,0-7.69-5.33-5.29,8.55,0,0-5.29,8.55,1.63,9.85,0,0,1.8,14.51,12.37,14.92,0,0,1.21,15.14,13.8,9.91,0,0,4.12,9.11,12.81,3.42,0,0-.62.12,4.5-.18,1.89-.11,2.14,4.31,5.68-2.44,0,0,12.21-.04,10.86-9.64,0,0,4.24-12.82-3.82-15.07,0,0-7.66-17.74-14.84-9.08,0,0-5.45-13.62-13.51-4.57Z"/>
    <path class="cls-2" d="M91.67,163.07s-4.12-6.93-8.01-4.02c0,0-5.61-5.7-7.3.37,0,0-4.57-3.72-4.16,6.3,0,0-4.16,6.3.24,7.11,0,0-.04,10.49,6.82,10.59,0,0-.48,10.95,8.17,6.93,0,0,1.92,6.53,8.06,2.24,0,0-.41.1,2.95-.21,1.24-.11,1.04,3.09,3.91-1.88,0,0,7.96-.25,7.88-7.19,0,0,3.84-9.37-1.23-10.86,0,0-3.51-12.72-8.91-6.31,0,0-2.41-9.77-8.42-3.06Z"/>
    <path class="cls-1" d="M31.11,200.62s-9.71-2.97-13.28,4.46c0,0-11.01,0-9.71,8.42,0,0-8.42.99-1.94,11.39,0,0-1.94,11.39,4.53,7.43,0,0,6.15,11.39,15.54,3.96,0,0,5.83,12.38,15.22-1.49,0,0,6.48,4.95,12.3-6.44,0,0-.5.56,3.89-3.47,1.62-1.49,3.24,2.2,4.21-6.33,0,0,10.69-9.02,6.48-16.45,0,0-.32-14.36-8.1-10.4,0,0-12.3-9.9-15.87,2.97,0,0-9.07-7.92-13.28,5.94Z"/>
  </g>
  <g>
    <path class="cls-4" d="M205.73,286.32s.21-1.27,1.71-.51c0,0,7.27,17.78,8.34,17.78,0,0,2.78,2.29.64-24.89l5.13-6.35s-2.14,16.76-1.28,18.29c0,0,2.35-1.02,3.85-13.97l2.57-.25s-1.22,11.48-1.68,11.58.46-.1.46-.1l10.63-8.17,1.28,1.78s-16.46,6.35-17.75,24.38c0,0,1.5,62.48.86,62.73,0,0-4.06,1.78-3.85-2.79,0,0-1.5-52.57-1.07-52.57,0,0-2.35-12.45-9.84-26.92Z"/>
    <path class="cls-8" d="M199.1,254.06s-6.41-1.52-8.77,2.29c0,0-7.27,0-6.41,4.32,0,0-5.56.51-1.28,5.84,0,0-1.28,5.84,2.99,3.81,0,0,4.06,5.84,10.26,2.03,0,0,3.85,6.35,10.05-.76,0,0,4.28,2.54,8.13-3.3,0,0-.33.29,2.57-1.78,1.07-.76,2.14,1.13,2.78-3.25,0,0,7.06-4.63,4.28-8.44,0,0-.21-7.37-5.35-5.33,0,0-8.13-5.08-10.48,1.52,0,0-5.99-4.06-8.77,3.05Z"/>
    <path class="cls-5" d="M216.85,318.32v25.04s2.99-21.48,0-25.04Z"/>
    <path class="cls-5" d="M220.7,292.67s-3.11,7.62-2.52,14.98c0,0,1.24-12.95,2.52-14.98Z"/>
    <path class="cls-5" d="M219.84,356.67s.64,10.92-1.28,10.92c0,0,2.99,2.79,1.28-10.92Z"/>
    <path class="cls-7" d="M200.21,254.16s-4.34-1.22-5.93,1.82c0,0-4.91,0-4.34,3.44,0,0-3.76.41-.87,4.66,0,0-.87,4.66,2.02,3.04,0,0,2.75,4.66,6.94,1.62,0,0,2.6,5.06,6.79-.61,0,0,2.89,2.03,5.49-2.63,0,0-.23.23,1.73-1.42.72-.61,1.45.9,1.88-2.59,0,0,4.77-3.69,2.89-6.73,0,0-.14-5.88-3.61-4.25,0,0-5.49-4.05-7.08,1.22,0,0-4.05-3.24-5.93,2.43Z"/>
    <path class="cls-8" d="M238.83,269.87s-4.25-5.91-8.08-4.64c0,0-5.71-5.34-7.29-1.32,0,0-4.63-3.68-4.05,3.65,0,0-4.05,3.65.37,5.19,0,0,.15,7.57,7.01,9.14,0,0-.28,7.82,8.29,6.78,0,0,2.04,5.14,8.1,3.37,0,0-.41-.02,2.94.49,1.24.19,1.09,2.46,3.87-.51,0,0,7.95,1.55,7.75-3.49,0,0,3.67-5.95-1.42-8.12,0,0-3.74-9.96-9.03-6.5,0,0-2.59-7.59-8.48-4.04Z"/>
    <path class="cls-3" d="M239.66,273.27s-3.21-3.64-5.78-2.28c0,0-4.19-3.06-5.07-.04,0,0-3.36-2.02-2.6,3.06,0,0-2.6,3.06.51,3.61,0,0,.48,5.31,5.26,5.57,0,0,.19,5.53,6.03,3.76,0,0,1.65,3.36,5.73,1.38,0,0-.28.04,2.04-.02.86-.02.87,1.59,2.64-.83,0,0,5.54.12,5.15-3.4,0,0,2.23-4.63-1.38-5.53,0,0-3.06-6.55-6.52-3.47,0,0-2.15-5.02-6.02-1.81Z"/>
    <path class="cls-1" d="M237.67,250.24s-5-5.01-8.61-3.01c0,0-6.37-4.16-7.37.11,0,0-5.08-2.74-3.49,4.39,0,0-3.49,4.39,1.08,5.05,0,0,1.19,7.44,8.17,7.65,0,0,.8,7.77,9.12,5.08,0,0,2.72,4.67,8.46,1.76,0,0-.41.06,2.97-.09,1.25-.06,1.42,2.21,3.75-1.25,0,0,8.06-.02,7.17-4.95,0,0,2.8-6.58-2.52-7.73,0,0-5.06-9.1-9.8-4.66,0,0-3.6-6.99-8.92-2.35Z"/>
    <path class="cls-2" d="M237.72,254.99s-2.72-3.56-5.29-2.06c0,0-3.7-2.92-4.82.19,0,0-3.02-1.91-2.75,3.23,0,0-2.75,3.23.16,3.65,0,0-.02,5.38,4.5,5.43,0,0-.32,5.62,5.39,3.55,0,0,1.27,3.35,5.32,1.15,0,0-.27.05,1.95-.11.82-.06.68,1.58,2.58-.96,0,0,5.26-.13,5.21-3.69,0,0,2.53-4.81-.81-5.57,0,0-2.32-6.52-5.89-3.24,0,0-1.59-5.01-5.56-1.57Z"/>
    <path class="cls-1" d="M197.73,274.25s-6.41-1.52-8.77,2.29c0,0-7.27,0-6.41,4.32,0,0-5.56.51-1.28,5.84,0,0-1.28,5.84,2.99,3.81,0,0,4.06,5.84,10.26,2.03,0,0,3.85,6.35,10.05-.76,0,0,4.28,2.54,8.13-3.3,0,0-.33.29,2.57-1.78,1.07-.76,2.14,1.13,2.78-3.25,0,0,7.06-4.63,4.28-8.44,0,0-.21-7.37-5.35-5.33,0,0-8.13-5.08-10.48,1.52,0,0-5.99-4.06-8.77,3.05Z"/>
  </g>
  <g>
    <path class="cls-4" d="M420.33,290.87s.19-1.13,1.52-.45c0,0,6.47,15.78,7.43,15.78,0,0,2.48,2.03.57-22.09l4.57-5.63s-1.9,14.87-1.14,16.23c0,0,2.09-.9,3.43-12.39l2.29-.23s-1.09,10.18-1.5,10.27.41-.09.41-.09l9.47-7.25,1.14,1.58s-14.66,5.63-15.81,21.63c0,0,1.33,55.44.76,55.66,0,0-3.62,1.58-3.43-2.48,0,0-1.33-46.65-.95-46.65,0,0-2.09-11.04-8.76-23.89Z"/>
    <path class="cls-8" d="M414.43,262.25s-5.71-1.35-7.81,2.03c0,0-6.47,0-5.71,3.83,0,0-4.95.45-1.14,5.18,0,0-1.14,5.18,2.67,3.38,0,0,3.62,5.18,9.14,1.8,0,0,3.43,5.63,8.95-.68,0,0,3.81,2.25,7.24-2.93,0,0-.3.26,2.29-1.58.95-.68,1.9,1,2.48-2.88,0,0,6.28-4.11,3.81-7.49,0,0-.19-6.54-4.76-4.73,0,0-7.24-4.51-9.33,1.35,0,0-5.33-3.61-7.81,2.7Z"/>
    <path class="cls-5" d="M430.24,319.26v22.22s2.67-19.06,0-22.22Z"/>
    <path class="cls-5" d="M433.67,296.5s-2.77,6.76-2.24,13.3c0,0,1.1-11.49,2.24-13.3Z"/>
    <path class="cls-5" d="M432.9,353.29s.57,9.69-1.14,9.69c0,0,2.67,2.48,1.14-9.69Z"/>
    <path class="cls-7" d="M415.42,262.33s-3.86-1.08-5.28,1.62c0,0-4.38,0-3.86,3.06,0,0-3.35.36-.77,4.13,0,0-.77,4.13,1.8,2.7,0,0,2.45,4.13,6.18,1.44,0,0,2.32,4.49,6.05-.54,0,0,2.57,1.8,4.89-2.34,0,0-.2.2,1.54-1.26.64-.54,1.29.8,1.67-2.3,0,0,4.25-3.28,2.57-5.97,0,0-.13-5.21-3.22-3.78,0,0-4.89-3.6-6.31,1.08,0,0-3.6-2.88-5.28,2.16Z"/>
    <path class="cls-8" d="M449.81,276.27s-3.78-5.24-7.2-4.12c0,0-5.09-4.74-6.49-1.17,0,0-4.13-3.27-3.61,3.24,0,0-3.61,3.24.33,4.61,0,0,.14,6.72,6.24,8.11,0,0-.25,6.94,7.39,6.02,0,0,1.82,4.56,7.22,2.99,0,0-.37-.02,2.62.43,1.1.17.97,2.18,3.45-.45,0,0,7.08,1.37,6.91-3.1,0,0,3.27-5.28-1.27-7.2,0,0-3.33-8.84-8.04-5.77,0,0-2.31-6.74-7.55-3.59Z"/>
    <path class="cls-3" d="M450.55,279.29s-2.86-3.23-5.15-2.02c0,0-3.73-2.71-4.52-.03,0,0-3-1.8-2.32,2.72,0,0-2.32,2.72.45,3.2,0,0,.42,4.71,4.69,4.94,0,0,.17,4.91,5.37,3.33,0,0,1.47,2.98,5.11,1.23,0,0-.25.03,1.82-.01.76-.02.78,1.41,2.35-.74,0,0,4.93.1,4.59-3.02,0,0,1.98-4.11-1.23-4.91,0,0-2.72-5.81-5.81-3.08,0,0-1.92-4.46-5.36-1.6Z"/>
    <path class="cls-1" d="M448.78,258.86s-4.46-4.44-7.67-2.67c0,0-5.67-3.69-6.57.1,0,0-4.52-2.43-3.11,3.89,0,0-3.11,3.89.96,4.48,0,0,1.06,6.6,7.28,6.79,0,0,.71,6.89,8.12,4.51,0,0,2.42,4.15,7.53,1.56,0,0-.36.05,2.64-.08,1.11-.05,1.26,1.96,3.34-1.11,0,0,7.18-.02,6.39-4.39,0,0,2.49-5.84-2.25-6.86,0,0-4.51-8.07-8.73-4.13,0,0-3.2-6.2-7.94-2.08Z"/>
    <path class="cls-2" d="M448.83,263.07s-2.42-3.16-4.71-1.83c0,0-3.3-2.59-4.29.17,0,0-2.69-1.7-2.45,2.87,0,0-2.45,2.87.14,3.24,0,0-.02,4.77,4.01,4.82,0,0-.28,4.99,4.8,3.15,0,0,1.13,2.97,4.74,1.02,0,0-.24.05,1.73-.1.73-.05.61,1.4,2.3-.85,0,0,4.68-.11,4.64-3.27,0,0,2.26-4.27-.72-4.94,0,0-2.06-5.79-5.24-2.87,0,0-1.42-4.45-4.95-1.39Z"/>
    <path class="cls-1" d="M413.21,280.16s-5.71-1.35-7.81,2.03c0,0-6.47,0-5.71,3.83,0,0-4.95.45-1.14,5.18,0,0-1.14,5.18,2.67,3.38,0,0,3.62,5.18,9.14,1.8,0,0,3.43,5.63,8.95-.68,0,0,3.81,2.25,7.24-2.93,0,0-.3.26,2.29-1.58.95-.68,1.9,1,2.48-2.88,0,0,6.28-4.11,3.81-7.49,0,0-.19-6.54-4.76-4.73,0,0-7.24-4.51-9.33,1.35,0,0-5.33-3.61-7.81,2.7Z"/>
  </g>
  <g>
    <path class="cls-4" d="M284.01,294.9s.24-1.12,1.92-.45c0,0,8.16,15.62,9.36,15.62,0,0,3.12,2.01.72-21.86l5.76-5.58s-2.4,14.72-1.44,16.06c0,0,2.64-.89,4.32-12.27l2.88-.22s-1.37,10.08-1.89,10.17.51-.09.51-.09l11.93-7.18,1.44,1.56s-18.48,5.58-19.92,21.42c0,0,1.68,54.88.96,55.11,0,0-4.56,1.56-4.32-2.45,0,0-1.68-46.18-1.2-46.18,0,0-2.64-10.93-11.04-23.65Z"/>
    <path class="cls-8" d="M276.57,266.57s-7.2-1.34-9.84,2.01c0,0-8.16,0-7.2,3.79,0,0-6.24.45-1.44,5.13,0,0-1.44,5.13,3.36,3.35,0,0,4.56,5.13,11.52,1.78,0,0,4.32,5.58,11.28-.67,0,0,4.8,2.23,9.12-2.9,0,0-.37.25,2.88-1.56,1.2-.67,2.4.99,3.12-2.85,0,0,7.92-4.07,4.8-7.41,0,0-.24-6.47-6-4.69,0,0-9.12-4.46-11.76,1.34,0,0-6.72-3.57-9.84,2.68Z"/>
    <path class="cls-5" d="M296.49,323.01v22s3.36-18.87,0-22Z"/>
    <path class="cls-5" d="M300.81,300.48s-3.49,6.69-2.83,13.16c0,0,1.39-11.38,2.83-13.16Z"/>
    <path class="cls-5" d="M299.85,356.7s.72,9.59-1.44,9.59c0,0,3.36,2.45,1.44-9.59Z"/>
    <path class="cls-7" d="M277.82,266.65s-4.87-1.07-6.65,1.6c0,0-5.52,0-4.87,3.03,0,0-4.22.36-.97,4.09,0,0-.97,4.09,2.27,2.67,0,0,3.08,4.09,7.79,1.42,0,0,2.92,4.45,7.63-.53,0,0,3.24,1.78,6.17-2.31,0,0-.25.2,1.95-1.25.81-.53,1.62.79,2.11-2.27,0,0,5.35-3.24,3.24-5.91,0,0-.16-5.16-4.06-3.74,0,0-6.17-3.56-7.95,1.07,0,0-4.54-2.85-6.65,2.14Z"/>
    <path class="cls-8" d="M321.16,280.45s-4.77-5.19-9.07-4.08c0,0-6.41-4.69-8.18-1.16,0,0-5.2-3.24-4.55,3.2,0,0-4.55,3.2.41,4.56,0,0,.17,6.65,7.87,8.02,0,0-.31,6.87,9.31,5.96,0,0,2.29,4.51,9.1,2.96,0,0-.46-.02,3.3.43,1.39.16,1.23,2.16,4.35-.45,0,0,8.93,1.36,8.7-3.07,0,0,4.12-5.22-1.6-7.13,0,0-4.2-8.75-10.13-5.71,0,0-2.91-6.67-9.51-3.55Z"/>
    <path class="cls-3" d="M322.09,283.43s-3.6-3.19-6.49-2c0,0-4.7-2.69-5.69-.03,0,0-3.78-1.78-2.92,2.69,0,0-2.92,2.69.57,3.17,0,0,.54,4.66,5.91,4.89,0,0,.21,4.86,6.77,3.3,0,0,1.86,2.95,6.43,1.21,0,0-.32.03,2.3-.01.96-.02.98,1.4,2.96-.73,0,0,6.22.1,5.78-2.99,0,0,2.5-4.07-1.55-4.86,0,0-3.43-5.75-7.32-3.05,0,0-2.42-4.41-6.76-1.59Z"/>
    <path class="cls-1" d="M319.87,263.21s-5.62-4.4-9.66-2.65c0,0-7.15-3.65-8.28.1,0,0-5.7-2.4-3.92,3.85,0,0-3.92,3.85,1.21,4.44,0,0,1.34,6.54,9.17,6.72,0,0,.9,6.82,10.23,4.46,0,0,3.05,4.1,9.5,1.54,0,0-.46.05,3.33-.08,1.4-.05,1.59,1.94,4.21-1.1,0,0,9.05-.02,8.05-4.35,0,0,3.14-5.78-2.83-6.79,0,0-5.68-7.99-11-4.09,0,0-4.04-6.14-10.01-2.06Z"/>
    <path class="cls-2" d="M319.92,267.38s-3.06-3.12-5.93-1.81c0,0-4.16-2.57-5.41.17,0,0-3.38-1.68-3.09,2.84,0,0-3.09,2.84.18,3.2,0,0-.03,4.73,5.05,4.77,0,0-.35,4.94,6.06,3.12,0,0,1.42,2.94,5.98,1.01,0,0-.31.04,2.18-.09.92-.05.77,1.39,2.9-.85,0,0,5.9-.11,5.84-3.24,0,0,2.84-4.22-.91-4.89,0,0-2.6-5.73-6.61-2.84,0,0-1.79-4.4-6.24-1.38Z"/>
    <path class="cls-1" d="M275.04,284.3s-7.2-1.34-9.84,2.01c0,0-8.16,0-7.2,3.79,0,0-6.24.45-1.44,5.13,0,0-1.44,5.13,3.36,3.35,0,0,4.56,5.13,11.52,1.78,0,0,4.32,5.58,11.28-.67,0,0,4.8,2.23,9.12-2.9,0,0-.37.25,2.88-1.56,1.2-.67,2.4.99,3.12-2.85,0,0,7.92-4.07,4.8-7.41,0,0-.24-6.47-6-4.69,0,0-9.12-4.46-11.76,1.34,0,0-6.72-3.57-9.84,2.68Z"/>
  </g>
  <g>
    <path class="cls-4" d="M486.26,253.79s.33-1.83,2.61-.73c0,0,11.1,25.65,12.74,25.65,0,0,4.25,3.3.98-35.9l7.84-9.16s-3.27,24.18-1.96,26.38c0,0,3.59-1.47,5.88-20.15l3.92-.37s-1.87,16.55-2.57,16.7.7-.15.7-.15l16.24-11.79,1.96,2.56s-25.15,9.16-27.1,35.17c0,0,2.29,90.13,1.31,90.49,0,0-6.2,2.56-5.88-4.03,0,0-2.29-75.84-1.63-75.84,0,0-3.59-17.95-15.02-38.83Z"/>
    <path class="cls-8" d="M476.14,207.26s-9.8-2.2-13.39,3.3c0,0-11.1,0-9.8,6.23,0,0-8.49.73-1.96,8.43,0,0-1.96,8.43,4.57,5.5,0,0,6.2,8.43,15.68,2.93,0,0,5.88,9.16,15.35-1.1,0,0,6.53,3.66,12.41-4.76,0,0-.51.42,3.92-2.56,1.63-1.1,3.27,1.63,4.25-4.68,0,0,10.78-6.68,6.53-12.17,0,0-.33-10.62-8.16-7.69,0,0-12.41-7.33-16,2.2,0,0-9.14-5.86-13.39,4.4Z"/>
    <path class="cls-5" d="M503.24,299.95v36.12s4.57-30.99,0-36.12Z"/>
    <path class="cls-5" d="M509.12,262.94s-4.75,10.99-3.85,21.62c0,0,1.89-18.68,3.85-21.62Z"/>
    <path class="cls-5" d="M507.82,355.27s.98,15.75-1.96,15.75c0,0,4.57,4.03,1.96-15.75Z"/>
    <path class="cls-7" d="M477.84,207.39s-6.62-1.75-9.05,2.63c0,0-7.51,0-6.62,4.97,0,0-5.74.58-1.32,6.72,0,0-1.32,6.72,3.09,4.38,0,0,4.19,6.72,10.6,2.34,0,0,3.97,7.31,10.38-.88,0,0,4.42,2.92,8.39-3.8,0,0-.34.33,2.65-2.05,1.1-.88,2.21,1.3,2.87-3.73,0,0,7.29-5.32,4.42-9.71,0,0-.22-8.48-5.52-6.14,0,0-8.39-5.84-10.82,1.75,0,0-6.18-4.68-9.05,3.51Z"/>
    <path class="cls-8" d="M536.81,230.06s-6.49-8.52-12.34-6.7c0,0-8.73-7.7-11.13-1.9,0,0-7.08-5.31-6.18,5.26,0,0-6.18,5.26.56,7.49,0,0,.23,10.93,10.7,13.18,0,0-.43,11.28,12.67,9.78,0,0,3.11,7.41,12.38,4.87,0,0-.63-.03,4.49.7,1.89.27,1.67,3.54,5.92-.73,0,0,12.15,2.23,11.84-5.03,0,0,5.6-8.58-2.18-11.71,0,0-5.71-14.37-13.79-9.37,0,0-3.96-10.95-12.95-5.83Z"/>
    <path class="cls-3" d="M538.08,234.96s-4.9-5.25-8.82-3.29c0,0-6.39-4.41-7.75-.05,0,0-5.14-2.92-3.97,4.41,0,0-3.97,4.41.78,5.2,0,0,.73,7.66,8.04,8.03,0,0,.29,7.98,9.21,5.42,0,0,2.52,4.85,8.75,1.99,0,0-.43.05,3.12-.02,1.31-.03,1.33,2.3,4.03-1.2,0,0,8.46.17,7.87-4.91,0,0,3.4-6.68-2.1-7.98,0,0-4.67-9.44-9.96-5,0,0-3.29-7.24-9.2-2.61Z"/>
    <path class="cls-1" d="M535.05,201.75s-7.64-7.22-13.15-4.35c0,0-9.73-6-11.26.16,0,0-7.76-3.95-5.34,6.33,0,0-5.34,6.33,1.65,7.29,0,0,1.82,10.74,12.48,11.04,0,0,1.22,11.2,13.92,7.33,0,0,4.15,6.74,12.92,2.53,0,0-.62.09,4.54-.13,1.9-.08,2.16,3.19,5.73-1.81,0,0,12.31-.03,10.95-7.14,0,0,4.28-9.49-3.85-11.15,0,0-7.73-13.13-14.97-6.72,0,0-5.5-10.08-13.62-3.38Z"/>
    <path class="cls-2" d="M535.12,208.6s-4.16-5.13-8.08-2.97c0,0-5.66-4.22-7.36.27,0,0-4.61-2.76-4.2,4.66,0,0-4.2,4.66.24,5.26,0,0-.04,7.76,6.87,7.83,0,0-.48,8.11,8.24,5.13,0,0,1.94,4.83,8.13,1.66,0,0-.42.07,2.97-.16,1.25-.08,1.05,2.28,3.94-1.39,0,0,8.03-.19,7.95-5.32,0,0,3.87-6.94-1.24-8.03,0,0-3.54-9.41-8.99-4.67,0,0-2.43-7.23-8.49-2.27Z"/>
    <path class="cls-1" d="M474.05,236.38s-9.8-2.2-13.39,3.3c0,0-11.1,0-9.8,6.23,0,0-8.49.73-1.96,8.43,0,0-1.96,8.43,4.57,5.5,0,0,6.2,8.43,15.68,2.93,0,0,5.88,9.16,15.35-1.1,0,0,6.53,3.66,12.41-4.76,0,0-.51.42,3.92-2.56,1.63-1.1,3.27,1.63,4.25-4.68,0,0,10.78-6.68,6.53-12.17,0,0-.33-10.62-8.16-7.69,0,0-12.41-7.33-16,2.2,0,0-9.14-5.86-13.39,4.4Z"/>
  </g>
  <g>
    <path class="cls-4" d="M515.72,194.81s.43-2.7,3.44-1.08c0,0,14.61,37.87,16.75,37.87,0,0,5.58,4.87,1.29-53.01l10.31-13.52s-4.3,35.7-2.58,38.95c0,0,4.73-2.16,7.73-29.75l5.16-.54s-2.46,24.44-3.38,24.66.92-.22.92-.22l21.36-17.41,2.58,3.79s-33.08,13.52-35.66,51.93c0,0,3.01,133.08,1.72,133.62,0,0-8.16,3.79-7.73-5.95,0,0-3.01-111.98-2.15-111.98,0,0-4.73-26.51-19.76-57.34Z"/>
    <path class="cls-8" d="M502.4,126.11s-12.89-3.25-17.61,4.87c0,0-14.61,0-12.89,9.2,0,0-11.17,1.08-2.58,12.44,0,0-2.58,12.44,6.01,8.11,0,0,8.16,12.44,20.62,4.33,0,0,7.73,13.52,20.19-1.62,0,0,8.59,5.41,16.32-7.03,0,0-.67.61,5.16-3.79,2.15-1.62,4.3,2.4,5.58-6.91,0,0,14.18-9.86,8.59-17.97,0,0-.43-15.69-10.74-11.36,0,0-16.32-10.82-21.05,3.25,0,0-12.03-8.66-17.61,6.49Z"/>
    <path class="cls-5" d="M538.06,262.97v53.33s6.01-45.76,0-53.33Z"/>
    <path class="cls-5" d="M545.79,208.34s-6.25,16.23-5.06,31.92c0,0,2.48-27.59,5.06-31.92Z"/>
    <path class="cls-5" d="M544.08,344.66s1.29,23.26-2.58,23.26c0,0,6.01,5.95,2.58-23.26Z"/>
    <path class="cls-7" d="M504.64,126.31s-8.71-2.59-11.91,3.88c0,0-9.87,0-8.71,7.34,0,0-7.55.86-1.74,9.92,0,0-1.74,9.92,4.07,6.47,0,0,5.52,9.92,13.94,3.45,0,0,5.23,10.79,13.65-1.29,0,0,5.81,4.32,11.04-5.61,0,0-.45.49,3.48-3.02,1.45-1.29,2.9,1.92,3.78-5.51,0,0,9.58-7.86,5.81-14.34,0,0-.29-12.51-7.26-9.06,0,0-11.04-8.63-14.23,2.59,0,0-8.13-6.9-11.91,5.18Z"/>
    <path class="cls-8" d="M582.22,159.78s-8.53-12.59-16.23-9.89c0,0-11.48-11.37-14.64-2.81,0,0-9.31-7.85-8.14,7.77,0,0-8.14,7.77.74,11.06,0,0,.31,16.13,14.08,19.46,0,0-.56,16.65,16.67,14.45,0,0,4.1,10.94,16.28,7.18,0,0-.83-.04,5.91,1.04,2.49.4,2.2,5.23,7.78-1.08,0,0,15.98,3.29,15.58-7.43,0,0,7.37-12.66-2.86-17.29,0,0-7.52-21.21-18.14-13.84,0,0-5.2-16.17-17.03-8.61Z"/>
    <path class="cls-3" d="M583.88,167.02s-6.45-7.75-11.61-4.85c0,0-8.41-6.51-10.19-.08,0,0-6.76-4.31-5.23,6.52,0,0-5.23,6.52,1.02,7.68,0,0,.96,11.31,10.57,11.86,0,0,.38,11.78,12.12,8,0,0,3.32,7.16,11.52,2.94,0,0-.57.08,4.11-.04,1.73-.04,1.75,3.4,5.3-1.77,0,0,11.13.25,10.35-7.24,0,0,4.47-9.86-2.77-11.79,0,0-6.15-13.94-13.1-7.38,0,0-4.32-10.7-12.1-3.85Z"/>
    <path class="cls-1" d="M579.9,117.98s-10.05-10.66-17.3-6.42c0,0-12.8-8.86-14.81.24,0,0-10.2-5.83-7.02,9.34,0,0-7.02,9.34,2.17,10.76,0,0,2.39,15.85,16.42,16.3,0,0,1.6,16.54,18.32,10.83,0,0,5.46,9.95,17,3.74,0,0-.82.13,5.97-.19,2.5-.12,2.85,4.71,7.54-2.67,0,0,16.19-.04,14.4-10.54,0,0,5.62-14.01-5.07-16.47,0,0-10.17-19.38-19.69-9.92,0,0-7.23-14.88-17.92-5Z"/>
    <path class="cls-2" d="M580,128.09s-5.47-7.58-10.62-4.39c0,0-7.44-6.23-9.68.4,0,0-6.06-4.07-5.52,6.88,0,0-5.52,6.88.32,7.77,0,0-.05,11.46,9.04,11.57,0,0-.64,11.97,10.84,7.57,0,0,2.55,7.13,10.7,2.45,0,0-.55.11,3.91-.23,1.64-.12,1.38,3.37,5.18-2.05,0,0,10.56-.27,10.46-7.86,0,0,5.09-10.24-1.63-11.86,0,0-4.66-13.9-11.83-6.89,0,0-3.2-10.68-11.17-3.35Z"/>
    <path class="cls-1" d="M499.66,169.12s-12.89-3.25-17.61,4.87c0,0-14.61,0-12.89,9.2,0,0-11.17,1.08-2.58,12.44,0,0-2.58,12.44,6.01,8.11,0,0,8.16,12.44,20.62,4.33,0,0,7.73,13.52,20.19-1.62,0,0,8.59,5.41,16.32-7.03,0,0-.67.61,5.16-3.79,2.15-1.62,4.3,2.4,5.58-6.91,0,0,14.18-9.86,8.59-17.97,0,0-.43-15.69-10.74-11.36,0,0-16.32-10.82-21.05,3.25,0,0-12.03-8.66-17.61,6.49Z"/>
  </g>
  <g>
    <path class="cls-4" d="M102.08,247.39s.33-1.83,2.61-.73c0,0,11.1,25.65,12.74,25.65,0,0,4.25,3.3.98-35.9l7.84-9.16s-3.27,24.18-1.96,26.38c0,0,3.59-1.47,5.88-20.15l3.92-.37s-1.87,16.55-2.57,16.7.7-.15.7-.15l16.24-11.79,1.96,2.56s-25.15,9.16-27.1,35.17c0,0,2.29,90.13,1.31,90.49,0,0-6.2,2.56-5.88-4.03,0,0-2.29-75.84-1.63-75.84,0,0-3.59-17.95-15.02-38.83Z"/>
    <path class="cls-8" d="M91.96,200.86s-9.8-2.2-13.39,3.3c0,0-11.1,0-9.8,6.23,0,0-8.49.73-1.96,8.43,0,0-1.96,8.43,4.57,5.5,0,0,6.2,8.43,15.68,2.93,0,0,5.88,9.16,15.35-1.1,0,0,6.53,3.66,12.41-4.76,0,0-.51.42,3.92-2.56,1.63-1.1,3.27,1.63,4.25-4.68,0,0,10.78-6.68,6.53-12.17,0,0-.33-10.62-8.16-7.69,0,0-12.41-7.33-16,2.2,0,0-9.14-5.86-13.39,4.4Z"/>
    <path class="cls-5" d="M119.06,293.55v36.12s4.57-30.99,0-36.12Z"/>
    <path class="cls-5" d="M124.94,256.55s-4.75,10.99-3.85,21.62c0,0,1.89-18.68,3.85-21.62Z"/>
    <path class="cls-5" d="M123.63,348.87s.98,15.75-1.96,15.75c0,0,4.57,4.03,1.96-15.75Z"/>
    <path class="cls-7" d="M93.66,201s-6.62-1.75-9.05,2.63c0,0-7.51,0-6.62,4.97,0,0-5.74.58-1.32,6.72,0,0-1.32,6.72,3.09,4.38,0,0,4.19,6.72,10.6,2.34,0,0,3.97,7.31,10.38-.88,0,0,4.42,2.92,8.39-3.8,0,0-.34.33,2.65-2.05,1.1-.88,2.21,1.3,2.87-3.73,0,0,7.29-5.32,4.42-9.71,0,0-.22-8.48-5.52-6.14,0,0-8.39-5.84-10.82,1.75,0,0-6.18-4.68-9.05,3.51Z"/>
    <path class="cls-8" d="M152.63,223.67s-6.49-8.52-12.34-6.7c0,0-8.73-7.7-11.13-1.9,0,0-7.08-5.31-6.18,5.26,0,0-6.18,5.26.56,7.49,0,0,.23,10.93,10.7,13.18,0,0-.43,11.28,12.67,9.78,0,0,3.11,7.41,12.38,4.87,0,0-.63-.03,4.49.7,1.89.27,1.67,3.54,5.92-.73,0,0,12.15,2.23,11.84-5.03,0,0,5.6-8.58-2.18-11.71,0,0-5.71-14.37-13.79-9.37,0,0-3.96-10.95-12.95-5.83Z"/>
    <path class="cls-3" d="M153.89,228.56s-4.9-5.25-8.82-3.29c0,0-6.39-4.41-7.75-.05,0,0-5.14-2.92-3.97,4.41,0,0-3.97,4.41.78,5.2,0,0,.73,7.66,8.04,8.03,0,0,.29,7.98,9.21,5.42,0,0,2.52,4.85,8.75,1.99,0,0-.43.05,3.12-.02,1.31-.03,1.33,2.3,4.03-1.2,0,0,8.46.17,7.87-4.91,0,0,3.4-6.68-2.1-7.98,0,0-4.67-9.44-9.96-5,0,0-3.29-7.24-9.2-2.61Z"/>
    <path class="cls-1" d="M150.86,195.35s-7.64-7.22-13.15-4.35c0,0-9.73-6-11.26.16,0,0-7.76-3.95-5.34,6.33,0,0-5.34,6.33,1.65,7.29,0,0,1.82,10.74,12.48,11.04,0,0,1.22,11.2,13.92,7.33,0,0,4.15,6.74,12.92,2.53,0,0-.62.09,4.54-.13,1.9-.08,2.16,3.19,5.73-1.81,0,0,12.31-.03,10.95-7.14,0,0,4.28-9.49-3.85-11.15,0,0-7.73-13.13-14.97-6.72,0,0-5.5-10.08-13.62-3.38Z"/>
    <path class="cls-2" d="M150.94,202.2s-4.16-5.13-8.08-2.97c0,0-5.66-4.22-7.36.27,0,0-4.61-2.76-4.2,4.66,0,0-4.2,4.66.24,5.26,0,0-.04,7.76,6.87,7.83,0,0-.48,8.11,8.24,5.13,0,0,1.94,4.83,8.13,1.66,0,0-.42.07,2.97-.16,1.25-.08,1.05,2.28,3.94-1.39,0,0,8.03-.19,7.95-5.32,0,0,3.87-6.94-1.24-8.03,0,0-3.54-9.41-8.99-4.67,0,0-2.43-7.23-8.49-2.27Z"/>
    <path class="cls-1" d="M89.87,229.99s-9.8-2.2-13.39,3.3c0,0-11.1,0-9.8,6.23,0,0-8.49.73-1.96,8.43,0,0-1.96,8.43,4.57,5.5,0,0,6.2,8.43,15.68,2.93,0,0,5.88,9.16,15.35-1.1,0,0,6.53,3.66,12.41-4.76,0,0-.51.42,3.92-2.56,1.63-1.1,3.27,1.63,4.25-4.68,0,0,10.78-6.68,6.53-12.17,0,0-.33-10.62-8.16-7.69,0,0-12.41-7.33-16,2.2,0,0-9.14-5.86-13.39,4.4Z"/>
  </g>
  <g>
    <polygon class="cls-11" points="93.62 101.18 61.62 108.23 61.62 138.23 98.78 131.18 93.62 101.18"/>
    <polygon class="cls-11" points="93.62 58.82 142.12 41.18 142.12 78.23 93.62 97.65 93.62 58.82"/>
    <polygon class="cls-11" points="183.4 102.94 183.4 67.65 142.12 41.18 142.12 78.23 183.4 102.94"/>
    <polygon class="cls-11" points="232.94 92.35 233.97 51.76 183.4 67.65 183.4 102.94 232.94 92.35"/>
    <polygon class="cls-11" points="263.9 111.76 264.93 74.71 233.97 51.76 232.94 92.35 263.9 111.76"/>
    <polygon class="cls-10" points="98.78 131.18 136.96 145.29 133.86 168.23 102.9 175.29 67.82 162.94 61.62 138.23 98.78 131.18"/>
    <polygon class="cls-10" points="103.94 192.94 102.9 175.29 133.86 168.23 139.02 200 130.77 201.76 103.94 192.94"/>
    <polygon class="cls-10" points="176.18 136.47 183.4 102.94 142.12 78.23 93.62 97.65 98.78 131.18 136.96 145.29 176.18 136.47"/>
    <polygon class="cls-12" points="148.31 274.12 133.86 168.23 136.96 145.29 173.08 274.12 148.31 274.12"/>
    <polygon class="cls-6" points="191.66 272.35 175.15 132.94 208.17 152.35 191.66 272.35"/>
    <polygon class="cls-12" points="136.96 145.29 176.18 136.47 191.66 272.35 173.08 274.12 136.96 145.29"/>
    <polygon class="cls-10" points="246.36 141.76 263.9 111.76 232.94 92.35 183.4 102.94 176.18 136.47 207.14 150.59 246.36 141.76"/>
    <polygon class="cls-10" points="256.68 178.82 273.19 157.65 246.36 141.76 207.14 150.59 203.01 175.29 220.55 182.35 256.68 178.82"/>
    <polygon class="cls-11" points="273.19 131.18 258.14 124.28 246.36 141.76 273.19 157.65 273.19 131.18"/>
    <polygon class="cls-13" points="213.33 196.47 220.55 182.35 203.01 175.29 199.91 200 213.33 196.47"/>
    <polygon class="cls-13" points="204.04 226.47 197.85 222.94 199.91 200 213.33 196.47 230.87 203.53 226.75 219.41 204.04 226.47"/>
    <polygon class="cls-13" points="230.87 245.88 226.75 219.41 204.04 226.47 205.07 235.29 225.71 244.12 230.87 245.88"/>
    <polygon class="cls-12" points="237.07 295.29 258.74 196.47 230.87 203.53 230.87 245.88 237.07 295.29"/>
    <polygon class="cls-6" points="256.68 297.06 281.44 207.06 258.74 196.47 237.07 295.29 256.68 297.06"/>
    <polygon class="cls-12" points="270.09 297.06 281.44 207.06 256.68 297.06 270.09 297.06"/>
    <path class="cls-13" d="M263.38,172.65c-2.24,2.06-4.47,4.12-6.71,6.18l-36.12,3.53-7.22,14.12,17.54,7.06,27.86-7.06c1.55-7.94,3.1-15.88,4.64-23.82Z"/>
    <polygon class="cls-11" points="263.23 172.43 298.99 162.94 300.02 134.7 273.39 143.01 273.19 157.65 263.23 172.43"/>
    <polygon class="cls-11" points="322.73 178.82 323.76 150.59 300.02 134.7 298.99 162.94 322.73 178.82"/>
    <polygon class="cls-13" points="281.44 207.06 310.34 201.76 322.73 178.82 298.99 162.94 263.23 172.43 258.74 196.47 281.44 207.06"/>
    <polygon class="cls-13" points="275.25 244.12 284.54 242.35 291.76 230 277.7 225.26 275.25 244.12"/>
    <polygon class="cls-6" points="301.05 212.35 302.08 228.23 323.76 224.7 320.66 203.53 301.05 212.35"/>
    <polygon class="cls-11" points="320.66 180.59 320.66 203.53 349.56 192.94 348.53 170 320.66 180.59"/>
    <polygon class="cls-11" points="374.33 207.06 374.33 184.12 348.53 170 349.56 192.94 374.33 207.06"/>
    <polygon class="cls-10" points="346.46 231.76 323.76 224.7 320.66 203.53 349.56 192.94 374.33 207.06 369.17 226.47 346.46 231.76"/>
    <polygon class="cls-6" points="305.18 244.12 302.08 228.23 323.76 224.7 346.46 231.76 345.43 247.64 325.82 251.17 305.18 244.12"/>
    <polygon class="cls-12" points="352.65 311.17 369.17 226.47 346.46 231.76 347.49 265.29 352.65 311.17"/>
    <polygon class="cls-12" points="368.13 309.41 388.77 235.29 369.17 226.47 353.18 308.18 368.13 309.41"/>
    <path class="cls-12" d="M379.49,309.41c2.58-22.65,5.16-45.29,7.74-67.94-6.36,22.65-12.73,45.29-19.09,67.94h11.35Z"/>
    <polygon class="cls-12" points="302.08 318.23 309.31 256.47 293.83 249.41 302.08 318.23"/>
    <path class="cls-12" d="M291.76,318.23l-16.41-64.22c-.55,4.64-1.1,9.28-1.65,13.92,2.58,16.76,5.16,33.53,7.74,50.29h10.32Z"/>
    <polygon class="cls-12" points="293.83 249.41 302.08 318.23 291.76 318.23 275.35 254.02 293.83 249.41"/>
    <polygon class="cls-6" points="291.76 230 284.54 242.35 275.25 244.12 275.35 254.02 293.83 249.41 297.96 233.53 291.76 230"/>
    <polygon class="cls-10" points="306.64 281.43 313.44 279.41 317.57 272.35 308.59 266.72 306.64 281.43"/>
    <polygon class="cls-10" points="335.11 270.59 339.24 265.29 326.85 260 325.82 252.94 310.34 258.23 308.3 269.23 317.39 273.08 335.11 270.59"/>
    <polygon class="cls-10" points="301.05 228.23 305.17 243.15 325.82 251.17 345.43 245.88 347.49 231.76 323.76 224.7 301.05 228.23"/>
    <polygon class="cls-10" points="297.96 233.53 294.86 249.41 275.35 254.02 276.13 243.82 285.57 242.35 291.76 231.76 294.02 231.11 297.96 233.53"/>
    <polygon class="cls-10" points="301.94 232.12 297.96 233.53 294.32 249.34 310.34 256.47 325.8 253.51 325.82 251.17 305.18 242.35 301.94 232.12"/>
    <polygon class="cls-6" points="369.6 226.6 374.33 207.06 404.26 200 422.83 214.12 412.51 230 388.89 236.18 369.6 226.6"/>
    <polygon class="cls-11" points="374.33 185.88 374.16 208.1 404.26 200 404.26 189.41 402.19 184.12 402.19 177.06 374.33 185.88"/>
    <polygon class="cls-11" points="402.19 159.41 402.19 184.12 433.15 177.06 429.02 152.35 402.19 159.41"/>
    <polygon class="cls-10" points="412.51 231.76 427.99 238.82 417.67 252.94 397.03 256.47 386.71 251.17 388.89 236.18 412.51 231.76"/>
    <polygon class="cls-6" points="392.9 263.53 407.35 260 406.32 254.7 397.03 254.7 392.9 263.53"/>
    <polygon class="cls-6" points="384.65 265.29 386.71 251.17 397.03 254.7 392.9 263.53 384.65 265.29"/>
    <polygon class="cls-10" points="392.9 274.12 390.84 265.29 407.35 260 424.9 267.06 422.83 275.88 409.42 279.41 392.9 274.12"/>
    <polygon class="cls-10" points="424.9 290 421.8 291.76 409.42 286.47 409.42 279.41 422.83 275.88 424.9 290"/>
    <polygon class="cls-6" points="441.41 261.76 424.9 267.06 440.38 323.53 448.63 323.53 441.41 261.76"/>
    <polygon class="cls-12" points="455.86 268.82 448.63 323.53 441.41 261.76 455.86 268.82"/>
    <polygon class="cls-12" points="424.9 267.06 422.83 275.88 430.06 323.53 440.38 323.53 424.9 267.06"/>
    <polygon class="cls-10" points="441.41 261.76 444.5 247.64 427.99 238.82 418.1 252.46 406.32 254.7 407.35 260 424.9 267.06 441.41 261.76"/>
    <polyline class="cls-10" points="465.14 242.35 444.5 247.64 441.41 261.76 455.86 268.82 468.24 267.06 465.14 242.35"/>
    <path class="cls-10" d="M470.3,281.17l-8.26,1.76c-2.58-.88-5.16-1.76-7.74-2.65.52-3.82,1.03-7.65,1.55-11.47l12.38-3.53,2.06,15.88Z"/>
    <polygon class="cls-6" points="452.76 291.76 458.95 290 462.05 282.94 453.79 279.41 452.76 291.76"/>
    <polygon class="cls-11" points="444.5 247.64 444.5 231.76 449.66 230 459.98 233.53 464.11 231.76 465.14 242.35 444.5 247.64"/>
    <polygon class="cls-11" points="426.96 222.94 426.96 219.41 444.5 231.76 444.5 247.64 427.99 237.06 427.99 222.94 426.96 222.94"/>
    <polygon class="cls-11" points="419.53 219.02 412.51 231.76 427.99 238.82 427.99 222.94 419.53 219.02"/>
    <polygon class="cls-6" points="435.22 212.35 436.25 224.7 458.77 233.51 464.11 231.76 461.02 207.06 435.22 212.35"/>
    <polygon class="cls-12" points="472.37 290 461.02 205.29 464.11 187.65 491.98 290 472.37 290"/>
    <polygon class="cls-6" points="507.46 291.76 494.04 180.59 519.84 194.7 507.46 291.76"/>
    <polygon class="cls-12" points="463.98 188.48 491.98 290 507.46 291.76 494.04 180.59 463.98 188.48"/>
    <polygon class="cls-6" points="402.71 184.47 432.43 177.34 463.98 188.48 461.02 207.06 435.17 213.22 407.41 202.3 402.71 184.47"/>
    <polygon class="cls-10" points="464.15 232.62 458.95 233.53 436.25 224.7 435.22 212.35 461.02 207.06 464.15 232.62"/>
    <polygon class="cls-11" points="427.99 148.82 427.99 118.82 467.21 104.71 467.21 136.47 427.99 148.82"/>
    <polygon class="cls-6" points="500.23 155.88 500.23 125.88 467.21 104.71 467.21 136.47 500.23 155.88"/>
    <polygon class="cls-10" points="494.04 180.59 500.23 155.88 467.21 136.47 427.99 148.82 433.15 177.06 463.98 188.48 494.04 180.59"/>
    <polygon class="cls-11" points="500.23 125.88 499.73 155.71 467.21 136.47 466.88 105.23 500.23 125.88"/>
    <polygon class="cls-11" points="540.48 113.53 540.48 143.53 499.73 155.71 499.83 125.62 540.48 113.53"/>
    <polygon class="cls-11" points="565.25 162.94 566.28 131.18 540.48 113.53 540.48 143.53 565.25 162.94"/>
    <polygon class="cls-11" points="571.44 198.23 572.47 175.29 561.12 170 550.8 185.88 571.44 198.23"/>
    <polygon class="cls-6" points="565.63 161.9 540.02 143.68 500.23 155.88 494.36 180.46 519.84 192.94 550.8 185.88 565.63 161.9"/>
    <polygon class="cls-10" points="516.75 212.35 530.16 219.41 559.06 215.88 572.47 198.23 550.8 185.88 519.48 193.16 516.75 212.35"/>
    <polygon class="cls-6" points="494.26 179.79 500.23 155.88 540.02 143.68 565.63 161.9 550.8 185.88 519.48 193.16 494.26 179.79"/>
    <polygon class="cls-13" points="277.7 225.26 281.44 207.06 310.34 201.76 317.78 205.87 301.05 210.59 301.55 229.61 290.99 231.61 277.7 225.26"/>
    <polygon class="cls-11" points="302.08 228.23 301.05 210.59 320.98 204.98 323.58 223.48 302.08 228.23"/>
    <polygon class="cls-11" points="310.81 200.96 320.59 184.02 320.32 205.2 310.81 200.96"/>
    <polygon class="cls-10" points="346.92 238.64 347.49 265.29 343.88 266.17 326.85 260 325.82 251.17 340.92 247.78 346.92 238.64"/>
    <polygon class="cls-10" points="403.69 199.96 423.35 213.23 411.64 231.73 388.89 236.18 369.68 225.59 374.84 207.94 403.69 199.96"/>
    <polygon class="cls-11" points="404.77 193.82 407.01 201.3 404.47 200.07 404.77 193.82"/>
    <polygon class="cls-11" points="410.27 203.64 423.35 213.23 423.35 207.94 410.27 203.64"/>
    <polygon class="cls-13" points="384.65 265.29 391.35 264.41 396.46 256.69 386.71 251.17 384.65 265.29"/>
    <polygon class="cls-11" points="406.84 259.12 405.71 255.13 395.93 256.47 392.28 263.82 406.84 259.12"/>
    <path class="cls-13" d="M453.28,290.88l5.68-.88,3.73-7.23c-2.79-1.41-5.58-2.83-8.37-4.24-.34,4.12-.69,8.24-1.03,12.35Z"/>
    <polygon class="cls-12" points="440.38 323.53 448.63 323.53 441.41 261.76 424.9 267.06 440.38 323.53"/>
    <polygon class="cls-12" points="258.74 196.47 281.44 207.06 256.68 297.06 236.55 297.94 258.74 196.47"/>
    <polygon class="cls-10" points="402.71 184.47 407.01 201.3 435.22 212.35 461.02 207.06 463.98 188.48 433.15 177.06 402.71 184.47"/>
    <polygon class="cls-10" points="519.84 194.7 550.8 185.88 565.63 161.9 540.02 143.68 500.23 155.88 494.26 179.79 519.84 194.7"/>
    <polygon class="cls-10" points="514.17 232.65 516.75 212.35 530.16 219.41 523.45 230.88 514.17 232.65"/>
    <polygon class="cls-12" points="519.84 194.7 494.26 179.79 507.46 291.76 519.84 194.7"/>
    <polygon class="cls-12" points="176.18 136.47 207.14 150.59 191.66 272.35 176.18 136.47"/>
    <polygon class="cls-9" points="148.31 274.12 191.66 272.35 192.17 363.23 190.11 363.23 189.08 289.12 173.6 289.12 173.6 363.23 171.53 363.23 170.5 289.12 150.89 289.12 150.89 363.23 147.8 363.23 148.31 274.12"/>
    <polygon class="cls-9" points="350.5 307.46 380.17 306.34 380.52 364.11 379.11 364.11 378.4 317 367.81 317 367.81 364.11 366.39 364.11 365.69 317 352.27 317 352.27 364.11 350.15 364.11 350.5 307.46"/>
    <polygon class="cls-9" points="428.83 321.3 449.42 320.46 449.66 364.11 448.68 364.11 448.19 328.51 440.84 328.51 440.84 364.11 439.86 364.11 439.37 328.51 430.05 328.51 430.05 364.11 428.58 364.11 428.83 321.3"/>
    <polygon class="cls-9" points="236 298.36 269.69 297.06 270.09 364.11 268.49 364.11 267.69 309.43 255.65 309.43 255.65 364.11 254.05 364.11 253.24 309.43 238 309.43 238 364.11 235.6 364.11 236 298.36"/>
    <polygon class="cls-9" points="280.24 319.12 302.85 318.23 303.12 364.11 302.04 364.11 301.5 326.7 293.43 326.7 293.43 364.11 292.35 364.11 291.81 326.7 281.59 326.7 281.59 364.11 279.97 364.11 280.24 319.12"/>
    <polygon class="cls-9" points="471.98 291.16 507.04 289.72 507.46 364.11 505.79 364.11 504.95 303.44 492.43 303.44 492.43 364.11 490.76 364.11 489.93 303.44 474.07 303.44 474.07 364.11 471.56 364.11 471.98 291.16"/>
  </g>
  <rect class="cls-15" x=".5" y="364.66" width="627.98" height="29.68"/>
</svg>