<?xml version="1.0" encoding="UTF-8"?>
<svg id="Capa_1" data-name="Capa 1" xmlns="http://www.w3.org/2000/svg" viewBox="0 0 501 727">
  <defs>
    <style>
      .cls-1 {
        fill: #ffd3c2;
      }

      .cls-1, .cls-2, .cls-3, .cls-4, .cls-5, .cls-6, .cls-7, .cls-8, .cls-9, .cls-10, .cls-11, .cls-12, .cls-13, .cls-14, .cls-15, .cls-16, .cls-17 {
        stroke-width: 0px;
      }

      .cls-2 {
        fill: #a3a4a8;
      }

      .cls-3 {
        fill: #f2b9a7;
      }

      .cls-18 {
        opacity: .35;
      }

      .cls-4 {
        fill: #3a51a3;
      }

      .cls-5 {
        fill: none;
      }

      .cls-6 {
        fill: #cecece;
      }

      .cls-7 {
        fill: #797a7f;
      }

      .cls-8 {
        fill: #33280c;
      }

      .cls-19 {
        opacity: .4;
      }

      .cls-9 {
        fill: #663612;
      }

      .cls-10 {
        fill: #000d68;
      }

      .cls-11 {
        fill: #b9bbc1;
      }

      .cls-12 {
        fill: #6d571b;
      }

      .cls-13 {
        fill: #282b26;
      }

      .cls-14 {
        fill: #fff;
      }

      .cls-15 {
        fill: #accfe8;
      }

      .cls-16 {
        fill: #adadad;
      }

      .cls-17 {
        fill: #fcc5b4;
      }

      .cls-20 {
        opacity: .25;
      }
    </style>
  </defs>
  <rect class="cls-15" width="501" height="727" rx="84.32" ry="84.32"/>
  <g>
    <g>
      <path class="cls-1" d="M214.82,67.38s-79.96,11.2-104.57,78.38c0,0-16.92,71.35,0,100.76,0,0-26.14-13.98-13.84,23.81,0,0,10.76,11.2,29.22,14,10.85,12.8,21.81,20.83,29.54,25.66,16.51,10.32,31.25,14.85,41.2,17.73,9.05,2.62,18.89,5.46,32.4,6.24,15.68.9,27.62-1.48,44.49-4.84,5.81-1.16,17.19-3.7,30.78-7.52,1.1-.31,2.09-.6,3.05-.88,16.15-4.75,24.39-7.23,32.29-12.6,10.82-7.34,16.8-16.42,19.99-22.39,0,0,24.6-1.4,32.29-19.59,0,0,7.69-25.19-10.76-23.79,3.51-12.8,6.49-29.71,5.57-49.51-1.84-39.66-18.32-69.38-28.64-84.85-7.23-7.53-16.55-15.51-28.45-22.57-46.03-27.31-97.08-20.96-114.56-18.02Z"/>
      <path class="cls-7" d="M181.06,296.68c.21-.31.59-.48,1.01-.44.4.04.74.29.87.63l1.17,3.09h2.24l3.63-4.77c.23-.3.65-.46,1.04-.39.4.06.73.33.83.69l.72,2.52c1.21.07,2.66.15,3.49.2.21-.63.51-1.78.74-2.76.08-.37.41-.66.83-.73.42-.07.84.09,1.07.41l2.01,2.75,18.36-.17c2.65-5.82,2.87-5.82,3.64-5.82.86,0,1.13,0,2.36,5.07l12.44-.24,1-2.98c.11-.33.42-.59.8-.65.38-.07.77.06,1.02.34,1.03,1.17,2.3,2.53,2.82,3.01,1.29-.11,6.19-.97,11.07-1.9-4.96-4.33-23.53-18.97-46.88-18.66-23.65.31-34.97,19.24-37.53,24.19l8.52.58,2.7-3.96Z"/>
      <path class="cls-7" d="M304.82,130.72l-4.33,33.16,1.74-.84c.31-.15.7-.15,1.01,0,.31.16.51.45.53.77l.22,4.43h1.7c.32,0,.63.13.83.36.22.26,22.74,26.11,39.89,34.62.24.12.28.36.52.67,11.31,14.4,20.56,26.84,28.03,37.24,2.39-.13,7.21-.07,11.96,2.52.77.42,2.38,1.32,3.75,2.73,5.06,5.24,2.74,13.41,2.35,14.73,7.46-4.5,18.68-12.62,27.12-25.74,12.14-18.88,10.29-37.18,10.79-51.47,1.77-50.01-31.36-86.53-34.8-90.18l-9.14-.34c-3.12.55-69.4,12.48-82.17,37.32Z"/>
      <path class="cls-11" d="M238.9,202.58c1.97-1.31,11.2-7.1,20.56-7.1.18,0,.35,0,.53,0,9.37.22,22.6,2.93,25.26,3.5,1.31-.85,3.82-2.85,4.05-4.84.11-.93-.29-1.79-1.21-2.62-4.51-4.04-23.41-7.68-37.31-4.36-12.05,2.88-16.11,9.82-16.84,11.25.32.88,1.56,3.56,4.96,4.16Z"/>
      <path class="cls-7" d="M102.87,209.3l13.36-33.89c.15-.37.54-.63.99-.63h4.09c.16-15.19.28-37.41,0-38.82-.35-1.56-3.41-16.51-4.33-21.02-20.52,9.98-31.81,43.63-26.93,80.88,2.56,19.54,11.59,38.14,19.44,51.23l-6.67-37.29c-.03-.15-.01-.31.05-.46Z"/>
      <path class="cls-11" d="M165.88,198.01c-1.26-1.11-11.51-5.86-25.35-4.52-13.69,1.33-19.6,11-20.06,11.78-.13.38-.85,3.01,2.98,5.26,2.43-1.81,11.75-8.2,21.46-7.89,9.56.32,16.07,3.03,17.74,3.8,1.16-.4,4.76-2.17,3.23-8.42Z"/>
      <path class="cls-16" d="M254.51,192.76c11.69-1.77,23.02,1.63,27.42,1.23,3.4-.32,4.86-2.22,5.36-3.08-5.62-3.78-23.31-6.9-36.51-3.75-12.05,2.88-16.11,9.82-16.84,11.25.19.53.74,1.73,1.88,2.72,1.42-1.23,8.12-6.77,18.68-8.37Z"/>
      <path class="cls-5" d="M94,263.72s.14,10.65,3.44,18.52c2.47,5.88,6.59,7.94,8.52,8.6,1.58-14.64,11.07-22.68,13.99-24.83-1.12-1.42-3.71-4.8-6.96-9.64-2.31-.53-15.22-2.98-19.49,7.79,0,.01,0,.03-.02.04.17-.18.34-.34.51-.48Z"/>
      <path class="cls-16" d="M138.46,200.24c12.75-2.42,17.61.91,21.79,0,2.65-.57,4.02-1.92,4.68-2.84-3.06-1.65-12.37-5.08-24.4-3.92-13.69,1.33-19.6,11-20.06,11.78-.1.29-.52,1.82.86,3.51.98-1.16,5.64-6.35,17.13-8.53Z"/>
      <path class="cls-7" d="M94.07,172.34s7.89,2,13.56-2c5.67-3.99,13.05-37.38,13.05-37.38-.7-3.36-1.81-8.78-2.68-13.02-1.72.87-6,3.58-11.52,10.88-7.22,9.56-16.53,38.97-16.53,38.97-.25-.43-.44-1.01-.57-1.71-.77,8.78-.6,18.14.66,27.74.26,2.01.61,4,1,5.98.92-8.55,3.02-29.47,3.02-29.47Z"/>
      <path class="cls-5" d="M391.37,97.73s-18.21,2.9-40.27,11.62c-22.06,8.71-39.67,22.06-40.07,23.42-.4,1.36-7.14,33.31-7.14,33.31h0l.11,2.18h1.7c.32,0,.63.13.83.36.22.25,21.35,24.52,38.26,33.78l-29.71-35.32s40.88,14.52,77.51,1.45c0,0-8.3,1.09-23.48-1.45,0,0,38.25-3.27,44.73-34.86,0,0,9.51,15.79,10.93,44.66,1.41,28.74-5.75,60.76-5.82,61.05,5.54-11.28,11.1-28.7,11.99-54,1-28.32-9.18-52.3-18.83-68.45l-20.73-17.76Z"/>
      <g class="cls-20">
        <path class="cls-6" d="M107.63,170.34c-5.67,3.99-13.56,2-13.56,2,0,0-2.1,20.92-3.02,29.47,3.42,17.32,11.4,33.51,18.44,45.25l-6.67-37.29c-.03-.15-.01-.31.05-.46l13.36-33.89c.15-.37.54-.63.99-.63h4.09c.16-15.19.28-37.41,0-38.82-.08-.37-.31-1.47-.63-3,0,0-7.38,33.38-13.05,37.38Z"/>
      </g>
      <path class="cls-17" d="M360.67,272.49c-19.3,2.24-22.41,20.24-39.63,34.88-42.09,35.75-122.06,15.33-131.35,12.46-6.49-2.01-11.73-4.42-11.73-4.42-7.48-3.44-11.37-6.53-19.7-11.99-8.5-5.57-10.3-6.19-16.42-10.1-7.41-4.74-17.77-12.13-29.55-23.35,2.69,7.56,6.58,12.26,9.62,15.15,3.31,3.14,5.46,3.99,14.07,10.31,5.44,3.99,8.71,6.68,10.65,8.2,21.58,16.89,40.75,24.93,40.75,24.93,26.57,9.33,65.31,9.66,104.93,1.07.02,0,.03,0,.05-.01,0,0,4.3-.92,7.92-1.84,19.92-5.06,40.42-20.56,40.42-20.56,4.18-3.16,15.66-11.84,16.88-17.67.09-.44.35-1.93,1.64-3.16,2.07-1.97,5.11-1.64,8.44-2.1,3.9-.54,6.49-1.93,10.29-3.96,2.25-1.2,8.79-4.8,12.92-12.03,1.07-1.88,3.24-5.79,3.28-11.15.02-2.26-.35-4.15-.7-5.47-.48,4.88-2.08,11.3-7.48,15.65-7.38,5.94-16.84,4.19-25.33,5.18Z"/>
      <g class="cls-20">
        <path class="cls-6" d="M425.7,171.83c-2.79-17.1-10.93-44.66-10.93-44.66h0c-6.48,31.59-44.73,34.86-44.73,34.86,15.18,2.54,23.48,1.45,23.48,1.45-36.63,13.07-77.51-1.45-77.51-1.45l29.71,35.32c.55.3,1.09.58,1.62.85.41.21.49.6.52.67.48.83,11.53,18.07,27.09,42.29,1.76-.14,5.16-.19,8.91,1.26,1.68.65,6.28,2.51,8.68,7.15,2.83,5.49.42,10.7,0,11.57,5.81-3.37,13.56-8.78,20.61-17.01,3.85-4.5,6.66-8.86,8.71-12.65,6.95-25.6,6.12-45.64,3.84-59.64Z"/>
      </g>
      <path class="cls-2" d="M226.91,290.42c-.67,0-5.33-3.51-5.33-3.51,0,0-5.13,4.24-5.6,4.42-.47.18-12.55.42-13.42.61-.88.18-3.98-2.18-4.25-2.18s-3.98,2.97-3.98,2.97c0,0-3.64-2.6-3.91-2.48s-4.32,3.63-4.79,3.81c-.47.18-3.24-2.36-3.85-2.18-.61.18-7.42,8.23-7.42,8.23l-.15.25,4.15.28,2.7-3.96c.21-.31.59-.48,1.01-.44.4.04.74.29.87.63l1.17,3.09h2.24l3.63-4.77c.23-.3.65-.46,1.04-.39.4.06.73.33.83.69l.72,2.52c1.21.07,2.66.15,3.49.2.21-.63.51-1.78.74-2.76.08-.37.41-.66.83-.73.42-.07.84.09,1.07.41l2.01,2.75,18.36-.17c2.65-5.82,2.87-5.82,3.64-5.82.86,0,1.13,0,2.36,5.07l12.44-.24,1-2.98c.11-.33.42-.59.8-.65.38-.07.77.06,1.02.34,1.03,1.17,2.3,2.53,2.82,3.01,1.29-.11,6.19-.97,11.07-1.9-.91-.79-2.27-1.93-4.04-3.26-6.99-3.34-20.53-7.87-20.53-7.87,1.01,3.85-2.09,7.02-2.77,7.02Z"/>
      <g class="cls-20">
        <path class="cls-10" d="M281.93,193.99c-4.4.41-15.74-3-27.42-1.23-10.56,1.6-17.26,7.15-18.68,8.37.74.64,1.74,1.21,3.08,1.44,1.97-1.31,11.2-7.1,20.56-7.1.18,0,.35,0,.53,0,9.37.22,22.6,2.93,25.26,3.5,1.31-.85,3.82-2.85,4.05-4.84.11-.93-.29-1.79-1.21-2.62-.23-.2-.5-.41-.8-.61-.49.85-1.96,2.76-5.36,3.08Z"/>
      </g>
      <g class="cls-20">
        <path class="cls-10" d="M160.25,200.24c-4.18.91-9.04-2.42-21.79,0-11.49,2.18-16.16,7.37-17.13,8.53.47.58,1.15,1.17,2.12,1.75,2.43-1.81,11.75-8.2,21.46-7.89,9.56.32,16.07,3.03,17.74,3.8,1.16-.4,4.76-2.17,3.23-8.42-.16-.15-.49-.36-.96-.6-.65.91-2.03,2.26-4.68,2.84Z"/>
      </g>
      <g class="cls-19">
        <path class="cls-14" d="M174.5,79.55c4.11,4.05,20.16,2.97,37.82-2.8,18.48-6.03,31.94-14.99,30.94-20.41,52.02-4.55,105.29,17.99,135.06,36.83h0c2.65-.56,4.79-.98,6.26-1.25l.06-.09c-15.01-12.23-67.21-44.89-126.5-44.89-9.09,0-18.34.77-27.66,2.5-68.31,12.67-108.16,60.03-111.63,64.3.19.92.7,3.42,1.31,6.41h0s22.43-22.35,54.33-40.61Z"/>
      </g>
      <g class="cls-19">
        <path class="cls-14" d="M248.57,81.47c3.65-.69,6.21-2.94,5.72-5.03-.49-2.09-3.84-3.23-7.49-2.55-3.65.69-6.21,2.94-5.72,5.03.49,2.09,3.84,3.23,7.49,2.55Z"/>
      </g>
      <ellipse class="cls-9" cx="153.14" cy="252.26" rx="19.46" ry="24.59"/>
      <ellipse class="cls-14" cx="158.82" cy="248.04" rx="6.1" ry="7.71"/>
      <g class="cls-18">
        <ellipse class="cls-14" cx="146.01" cy="262.75" rx="2.9" ry="5.94" transform="translate(-108.68 103.09) rotate(-28.86)"/>
      </g>
      <path class="cls-9" d="M239.95,250.56c2.18,15.09,13.64,26.2,25.59,24.8,11.95-1.39,19.86-14.75,17.67-29.84-2.18-15.09-13.64-26.2-25.59-24.8-11.95,1.39-19.86,14.75-17.67,29.84Z"/>
      <ellipse class="cls-14" cx="254.59" cy="244.09" rx="6.82" ry="8.66" transform="translate(-41.38 52.26) rotate(-10.84)"/>
      <g class="cls-18">
        <ellipse class="cls-14" cx="271.19" cy="258.78" rx="6.58" ry="3.28" transform="translate(-66.33 421.85) rotate(-69.45)"/>
      </g>
      <path class="cls-5" d="M301.65,352.73l.08.4c.09-.17.18-.34.26-.5-.11.03-.23.06-.34.1Z"/>
      <path class="cls-7" d="M300.49,163.88s-40.2-30.08-70.34-13.96c0,0-43.94-18.26-60.49-4.75,0,0-47.92-3.01-50.53,27.66-1.42-18.53-2.83-37.06-4.25-55.59,8.45-12.16,23.6-30.24,48.48-45.27,46.49-28.08,95.12-26.29,111.63-25.02,12.63-.79,30.93-.48,51.62,5.15,39.4,10.74,62.78,34.08,72.03,44.52-32.72,22.42-65.44,44.84-98.16,67.26Z"/>
      <rect class="cls-17" x="227.22" y="327.4" width="32.83" height="29.45" rx="14.73" ry="14.73"/>
      <path class="cls-1" d="M321.01,479.27l-9.74-48.56c-1.76-7.6,1.17-13.75,11.25-13.21,6.18.33,14.2,4.75,15.62,13.2l1.92,51.61c.84,6.07-2.31,9.47-7.76,9.06-6.55-.51-9.93-4.3-11.3-12.09Z"/>
      <path class="cls-1" d="M322.88,485.66c-.5,6.04-2.5,18.04-2.44,21.59.07,3.56,1.46,8.04,2.16,10.2.7,2.15,2.97,5.55,4.01,7.15,1.04,1.6,1.9,1.82,2.79,1.31.9-.52,1.33-1.74,1.1-3.29,0,0,1.59,1.78,2.39,2.67.82.89,2.01,1.06,2.81-.14.81-1.2.86-4.04-.3-6.07,0,0,3.43,3.45,4.4,4.26.97.81,1.55.89,2.41.3.86-.59,1.83-1.84,1.41-3.71-.42-1.87-2.66-4.8-2.66-4.8,0,0,4.92,3.8,6,4.52,1.09.71,1.78.42,2.13-.56.35-.98.8-2.2-.21-4.22-1-2.01-2.71-2.71-3.14-3.38-.43-.66-1.31-3.48-1.8-4.93.48-5.19-1.23-7.26-1.73-9.46-.49-2.2-1.44-4.59-1.09-7.33.53-3.45-2.94-9.01-9.18-10.06-6.25-1.05-8.61,1.41-9.1,5.96Z"/>
      <path class="cls-3" d="M335.32,522.22s-.2-.13-.55-.35c-.34-.24-.86-.56-1.43-.98-.29-.21-.6-.44-.93-.69-.32-.25-.68-.57-1.03-.87-.4-.39-.55-.71-.84-1.08-.26-.35-.52-.72-.79-1.09-.52-.73-1.03-1.46-1.49-2.16-.46-.71-.86-1.38-1.22-1.95-.69-1.15-1.1-1.92-1.1-1.92-.08-.16,0-.31.15-.35.14-.04.31.02.4.14,0,0,.59.7,1.39,1.77.79,1.06,1.85,2.5,2.89,3.97.25.37.5.73.75,1.1.25.34.5.79.73,1,.3.26.53.54.84.8.3.27.58.51.84.73,1.06.92,1.76,1.53,1.76,1.53.14.12.16.3.04.4-.1.09-.27.09-.41,0ZM339.35,517.81c.14-.09.15-.27.03-.4,0,0-.11-.13-.31-.35-.19-.21-.52-.53-.81-.89-.16-.17-.32-.37-.5-.57-.18-.22-.35-.39-.58-.66-.37-.5-.76-1.02-1.16-1.56-.81-1.05-1.67-2.06-2.34-2.82-.1-.11-.12-.14-.29-.32-.09-.07-.18-.15-.26-.21-.16-.14-.3-.25-.42-.35-.11-.09-.28-.18-.34-.23-.09-.05-.13-.08-.13-.08-.12-.07-.27-.08-.38-.01-.12.08-.12.26,0,.38l.05.06s.02.03.07.07c.05.05.1.09.2.2.09.11.21.25.34.41.07.07.14.16.22.24-.03,0,.11.17.15.25.56.81,1.32,1.89,2.13,2.93.42.51.83,1.03,1.23,1.52.17.2.47.45.68.66.23.21.44.41.64.6.39.38.75.6.99.79.24.18.39.29.39.29.12.08.28.1.39.04ZM343.69,513c.17-.04.24-.21.15-.37,0,0-.18-.33-.51-.83-.17-.24-.35-.52-.58-.82-.2-.29-.43-.6-.65-.92-.46-.61-.97-1.2-1.39-1.63-.42-.44-.74-.71-.74-.71l-.02-.02c-.09-.08-.21-.12-.33-.1-.17.03-.25.19-.19.35,0,0,.15.35.45.85.3.5.74,1.16,1.22,1.8.25.31.5.62.74.91.25.27.52.52.73.73.44.42.77.67.77.67.1.07.23.12.34.08Z"/>
      <path class="cls-1" d="M312.13,431.47c-7.91-18.24-15.82-36.48-23.73-54.73-4.05-7.16-3.09-14.04,6.88-16.01,6.11-1.21,15.27,1.21,19.26,9.3,7.85,19.26,15.7,38.52,23.55,57.79-.15.9-1.07,5.54-6.22,7.69-5.55,2.32-13.75.79-19.74-4.04Z"/>
      <rect class="cls-10" x="179.14" y="350.54" width="136.96" height="185.12" rx="68.48" ry="68.48"/>
      <rect class="cls-12" x="187.82" y="520.73" width="52.77" height="123.27" rx="26.38" ry="26.38"/>
      <rect class="cls-12" x="175.62" y="487.7" width="142.58" height="48.81" rx="24.4" ry="24.4"/>
      <rect class="cls-12" x="251.37" y="520.73" width="52.77" height="123.27" rx="26.38" ry="26.38"/>
      <rect class="cls-8" x="166.24" y="605.5" width="75.51" height="38.5" rx="19.25" ry="19.25"/>
      <rect class="cls-8" x="250.67" y="605.5" width="75.51" height="38.5" rx="19.25" ry="19.25"/>
      <polygon class="cls-4" points="227.55 350.54 243.63 369.95 216.9 364.42 227.55 350.54"/>
      <polygon class="cls-4" points="243.63 369.95 259.71 350.54 272.95 362.53 243.63 369.95"/>
      <polygon class="cls-17" points="227.55 350.54 259.71 350.54 243.63 369.95 227.55 350.54"/>
      <path class="cls-10" d="M288.42,350.5s36.71-5.72,49.66,77.31h-29.3l-20.36-77.31Z"/>
      <path class="cls-1" d="M168.4,481.52l9.74-48.56c1.76-7.6-1.17-13.75-11.25-13.21-6.18.33-14.2,4.75-15.62,13.2l-1.92,51.61c-.84,6.07,2.31,9.47,7.76,9.06,6.55-.51,9.93-4.3,11.3-12.09Z"/>
      <path class="cls-1" d="M166.53,487.91c.5,6.04,2.5,18.04,2.44,21.59-.07,3.56-1.46,8.04-2.16,10.2-.7,2.15-2.97,5.55-4.01,7.15-1.04,1.6-1.9,1.82-2.79,1.31-.9-.52-1.33-1.74-1.1-3.29,0,0-1.59,1.78-2.39,2.67-.82.89-2.01,1.06-2.81-.14-.81-1.2-.86-4.04.3-6.07,0,0-3.43,3.45-4.4,4.26-.97.81-1.55.89-2.41.3-.86-.59-1.83-1.84-1.41-3.71s2.66-4.8,2.66-4.8c0,0-4.92,3.8-6,4.52-1.09.71-1.78.42-2.13-.56-.35-.98-.8-2.2.21-4.22,1-2.01,2.71-2.71,3.14-3.38.43-.66,1.31-3.48,1.8-4.93-.48-5.19,1.23-7.26,1.73-9.46.49-2.2,1.44-4.59,1.09-7.33-.53-3.45,2.94-9.01,9.18-10.06,6.25-1.05,8.61,1.41,9.1,5.96Z"/>
      <path class="cls-3" d="M153.69,524.47c-.12-.1-.1-.29.04-.4,0,0,.71-.61,1.76-1.53.25-.23.53-.47.84-.73.31-.26.54-.54.84-.8.23-.21.48-.66.73-1,.25-.36.5-.73.75-1.1,1.04-1.47,2.11-2.9,2.89-3.97.8-1.07,1.39-1.77,1.39-1.77.09-.12.26-.18.4-.14.15.05.23.2.15.35,0,0-.41.77-1.1,1.92-.36.57-.76,1.24-1.22,1.95-.46.7-.97,1.43-1.49,2.16-.27.37-.53.73-.79,1.09-.29.37-.44.69-.84,1.08-.35.31-.7.63-1.03.87-.34.25-.65.48-.93.69-.58.42-1.09.75-1.43.98-.35.22-.55.35-.55.35-.14.09-.31.09-.41,0ZM150.46,520.02s.15-.11.39-.29c.24-.19.6-.41.99-.79.2-.19.41-.39.64-.6.21-.21.51-.46.68-.66.39-.49.81-1,1.23-1.52.82-1.05,1.58-2.12,2.13-2.93.05-.08.18-.25.15-.25.08-.08.14-.17.22-.24.13-.15.25-.29.34-.41.1-.12.15-.15.2-.2.05-.05.07-.07.07-.07l.05-.06c.12-.12.12-.3,0-.38-.11-.07-.26-.06-.38.01,0,0-.05.03-.13.08-.07.05-.23.14-.34.23-.12.1-.26.22-.42.35-.08.06-.17.13-.26.21-.17.18-.19.2-.29.32-.67.75-1.53,1.77-2.34,2.82-.4.53-.8,1.06-1.16,1.56-.23.27-.4.44-.58.66-.18.2-.35.4-.5.57-.29.36-.61.68-.81.89-.2.22-.31.35-.31.35-.12.13-.11.31.03.4.11.06.27.04.39-.04ZM146.06,515.16s.33-.26.77-.67c.21-.21.48-.46.73-.73.24-.29.49-.6.74-.91.48-.63.92-1.3,1.22-1.8.3-.5.45-.85.45-.85.06-.16-.02-.31-.19-.35-.12-.02-.24.02-.33.1l-.02.02s-.33.27-.74.71c-.42.43-.93,1.02-1.39,1.63-.22.31-.45.63-.65.92-.23.29-.41.58-.58.82-.33.49-.51.83-.51.83-.08.16-.02.32.15.37.11.03.24,0,.34-.08Z"/>
      <path class="cls-10" d="M200.99,352.75s-36.71-5.72-49.66,77.31h29.3s20.36-77.31,20.36-77.31Z"/>
      <path class="cls-13" d="M211.93,237.7c5.9.88,8.63,7.41,8.63,7.41,8.63,28.13,10.87,28.75,21.74,41.35,10.87,12.6,43.81,16.15,66.19,6.14,22.38-10.01,24.94-53.95,24.94-53.95l5.76-6.46v-19.71c-18.93-6.04-76.05-6.77-113.51,3.88-6.64.96-20.74.97-27.5,0-38.93-11.06-95.52-9.62-113.51-3.88v19.71l5.76,6.46s2.56,43.94,24.94,53.95c22.38,10.02,55.32,6.46,66.19-6.14s13.11-13.22,21.74-41.35c0,0,2.73-6.52,8.63-7.41ZM297.3,289.37c-22.38,5.49-46.04,2.26-55.64-15.51-9.59-17.77-11.83-36.51-4.8-43.29,0,0,7.35-9.37,27.5-10.66,20.14-1.29,50.2-4.52,56.59,13.57,6.39,18.09-1.28,50.4-23.66,55.89ZM102.9,233.48c6.4-18.09,36.45-14.86,56.59-13.57,20.14,1.29,27.5,10.66,27.5,10.66,7.03,6.78,4.8,25.52-4.8,43.29-9.59,17.77-33.25,21-55.64,15.51-22.38-5.49-30.06-37.8-23.66-55.89Z"/>
      <path class="cls-13" d="M339.19,212.48s72.68,33.08,53.36,48.65c0,0,.46-25.58-53.36-28.94v-19.71Z"/>
    </g>
    <path class="cls-4" d="M230.26,350.84s-17.09-2.85-29.28,1.9l-5.42,20.57,34.69-22.47Z"/>
    <path class="cls-4" d="M259.71,350.54c4.2-.75,9.4-1.34,15.37-1.27,5.09.06,9.59.57,13.34,1.23,1.47,5.59,2.94,11.17,4.41,16.76,0,0-31.87-13.95-33.12-16.72Z"/>
  </g>
  <g>
    <path class="cls-10" d="M205.09,695.03c-.59,0-1.15-.25-1.66-.75-5.17-5.11-10.92-8.55-17.25-10.31l.19,4.59.12,4.62c0,.69-.22,1.26-.67,1.72s-1,.69-1.68.69-1.23-.23-1.68-.69-.67-1.04-.67-1.72c0-1.23-.06-3.07-.18-5.52s-.18-4.29-.18-5.52c0-1.44.16-3.58.47-6.42s.47-4.98.47-6.4c0-.8-.07-1.98-.22-3.54s-.22-2.74-.22-3.54c0-.89.25-1.67.75-2.34.59-.83,1.41-1.2,2.46-1.12l5.65.45c2.14.27,3.95.79,5.41,1.57,6.33,3.36,9.49,7.46,9.49,12.3,0,2.38-1.08,4.48-3.23,6.3-1.73,1.47-3.9,2.59-6.49,3.35,4.86,2.61,8.49,5.36,10.9,8.25.41.5.61,1.03.61,1.59,0,.66-.24,1.23-.71,1.71s-1.04.73-1.68.73ZM190.16,664.05l-3.47-.28.23,2.84c.11,1.16.16,2.1.16,2.84,0,1.25-.1,2.8-.3,4.66l-.49,4.66c.22,0,.56,0,1.02.02s.81.02,1.04.02c3.98,0,6.97-.53,8.95-1.59.88-.48,1.69-1.12,2.44-1.9.83-.88,1.24-1.62,1.24-2.23,0-2.17-1.23-4.2-3.7-6.07-2.27-1.72-4.64-2.71-7.12-2.98Z"/>
    <path class="cls-10" d="M220.91,696.16c-2.62,0-4.88-.97-6.77-2.91-2.11-2.16-3.22-5.05-3.33-8.7-.09-3.53.8-6.64,2.67-9.33,2.19-3.17,5.23-4.76,9.14-4.76,3.12,0,5.49,1.43,7.1,4.29,1.28,2.31,1.9,5.09,1.85,8.34-.05,3.47-.95,6.43-2.72,8.88-2,2.78-4.65,4.17-7.95,4.17ZM222.31,675.23c-2.3-.02-4.09,1.08-5.37,3.28-1.02,1.77-1.52,3.78-1.52,6.05s.62,4.03,1.85,5.3c1.03,1.05,2.24,1.57,3.63,1.57,1.62,0,3.02-.59,4.2-1.78,1.33-1.31,2.03-3.09,2.11-5.32.22-6.05-1.41-9.08-4.9-9.09Z"/>
    <path class="cls-10" d="M248.3,695.76c-2.39,0-4.56-.47-6.52-1.41-.5.75-1.11,1.12-1.83,1.12-.59,0-1.1-.21-1.51-.62s-.62-.93-.62-1.56c0-.41.02-1.01.06-1.8s.06-1.4.06-1.8c0-1.66-.04-4.14-.13-7.44s-.13-5.79-.13-7.44c0-1.14,0-3.3.02-6.48s.02-5.35.02-6.5c0-.94.2-1.78.59-2.53.52-.95,1.23-1.43,2.13-1.43,1.17,0,1.76.68,1.76,2.04,0,.22-.04.54-.12.96s-.12.74-.12.96l-.07,5.13-.05,5.98c1.36-.92,2.65-1.61,3.88-2.07s2.38-.69,3.46-.69c3.36,0,6.09,1.29,8.18,3.87,1.97,2.42,2.95,5.4,2.95,8.93s-1.15,6.59-3.45,9.07-5.16,3.73-8.58,3.73ZM249.19,674.6c-1.28,0-2.59.36-3.94,1.08-.66.36-1.78,1.13-3.38,2.32l-.05,4.05.02,3.66.02,3.84c.75.34,1.8.78,3.16,1.31.97.3,2.05.45,3.26.45,2.27,0,4.12-.8,5.58-2.39s2.18-3.58,2.18-5.95-.59-4.27-1.76-5.84c-1.27-1.69-2.97-2.53-5.11-2.53Z"/>
    <path class="cls-10" d="M276.78,695.85c-3.53,0-6.39-.88-8.58-2.65-2.39-1.95-3.59-4.69-3.59-8.2,0-4.06.98-7.47,2.95-10.22,2.14-3,5-4.5,8.58-4.5,2.59,0,4.71.44,6.35,1.31,2.02,1.08,3.02,2.73,3.02,4.97,0,1.56-.88,2.98-2.65,4.27-.78.56-2.44,1.44-4.97,2.62l-8.95,4.24c.88,1.3,1.96,2.27,3.27,2.93s2.82.98,4.56.98c1.08,0,2.34-.2,3.8-.61,1.84-.52,3.03-1.19,3.56-2.03s1.1-1.25,1.71-1.25c.55,0,1.04.21,1.46.62s.64.89.64,1.44c0,1.73-1.4,3.23-4.2,4.48-2.39,1.06-4.72,1.59-6.98,1.59ZM276.15,674.5c-1.91,0-3.49.74-4.76,2.21s-2.21,3.7-2.84,6.67l7.2-3.42c2.83-1.38,4.84-2.57,6.05-3.59-1.34-1.25-3.23-1.88-5.65-1.88Z"/>
    <path class="cls-10" d="M310.37,677.46c-.11,1.95-.89,2.93-2.34,2.93-1.34,0-2.02-.77-2.02-2.32,0-.3-.02-.84-.07-1.64l-.07-1.97c-2.47.3-4.45.99-5.93,2.09-1.39,1.02-2.55,2.55-3.47,4.59l.05,12.84c0,1.58-.77,2.37-2.32,2.37-1.38,0-2.06-.79-2.06-2.37v-16.45c0-.52.02-1.29.06-2.32s.06-1.8.06-2.32c0-1.58.69-2.37,2.06-2.37,1.53,0,2.3,1.3,2.32,3.89,3-2.89,6.33-4.34,9.98-4.34,1.27,0,2.21.48,2.84,1.43s.94,2.39.94,4.31c0,.81,0,1.36-.02,1.64Z"/>
    <path class="cls-10" d="M330.88,674.81c-.33,0-.71-.02-1.16-.05s-.83-.05-1.16-.05c-.36,0-1.42.12-3.19.35l.45,13.85.02,1.03.02,1.2c.06,3.42-.76,5.13-2.46,5.13-.62,0-1.17-.2-1.63-.61s-.69-.91-.69-1.52.02-1.48.07-2.67.07-2.08.07-2.67l-.47-13.69c-1.14-.05-2.88-.18-5.2-.4-1.39-.19-2.09-.96-2.09-2.32,0-.69.21-1.26.63-1.71s.96-.68,1.62-.68l4.92.4c0-.8-.04-1.86-.11-3.2s-.11-2.3-.11-2.89c0-.66.23-1.2.68-1.63s1.01-.64,1.66-.64c1.41,0,2.23,1.15,2.46,3.45.05.58.07,1.27.07,2.09l-.05,1.36-.02,1.45c1.94-.25,3.05-.38,3.33-.38,1.62,0,2.69.08,3.19.23.95.31,1.43,1.05,1.43,2.2,0,.69-.21,1.25-.64,1.7s-.98.67-1.65.67Z"/>
  </g>
</svg>