<?xml version="1.0" encoding="UTF-8"?>
<svg id="Capa_1" data-name="Capa 1" xmlns="http://www.w3.org/2000/svg" xmlns:xlink="http://www.w3.org/1999/xlink" viewBox="0 0 325.33 437.25">
  <defs>
    <style>
      .cls-1 {
        fill: #a6c8dd;
      }

      .cls-1, .cls-2, .cls-3, .cls-4, .cls-5, .cls-6, .cls-7, .cls-8, .cls-9, .cls-10, .cls-11, .cls-12, .cls-13, .cls-14, .cls-15, .cls-16, .cls-17, .cls-18 {
        stroke-width: 0px;
      }

      .cls-2 {
        fill: #416d25;
      }

      .cls-3 {
        fill: #8ab270;
      }

      .cls-4 {
        fill: #a6c98f;
      }

      .cls-5 {
        fill: #000;
      }

      .cls-6 {
        fill: #9a67b7;
      }

      .cls-7 {
        fill: #2c4919;
      }

      .cls-19 {
        fill: #e5b3db;
      }

      .cls-19, .cls-20, .cls-21, .cls-22 {
        stroke: #000;
        stroke-miterlimit: 10;
      }

      .cls-8 {
        fill: #74a555;
      }

      .cls-9 {
        fill: #11000e;
      }

      .cls-20 {
        fill: none;
      }

      .cls-21 {
        fill: #d375cc;
      }

      .cls-10 {
        fill: #80b25f;
      }

      .cls-11 {
        fill: #578738;
      }

      .cls-22 {
        fill: #b679cc;
      }

      .cls-12 {
        fill: #496b2c;
      }

      .cls-13 {
        fill: #5088aa;
      }

      .cls-14 {
        fill: #639cc6;
      }

      .cls-15 {
        fill: #fff;
      }

      .cls-16 {
        fill: url(#Degradado_sin_nombre);
      }

      .cls-17 {
        fill: #e57fca;
      }

      .cls-18 {
        fill: #e889d2;
      }
    </style>
    <radialGradient id="Degradado_sin_nombre" data-name="Degradado sin nombre" cx="655.45" cy="2293.53" fx="655.45" fy="2293.53" r="200.55" gradientTransform="translate(-237.87 -1341.72) scale(.62 .66)" gradientUnits="userSpaceOnUse">
      <stop offset=".62" stop-color="#82b362"/>
      <stop offset=".92" stop-color="#a4c88d"/>
    </radialGradient>
  </defs>
  <g>
    <path class="cls-4" d="M109.31,417.4h0c-4.4,4.81-12.3,4.83-17.55.04l-54.44-49.66c-5.25-4.79-5.94-12.64-1.55-17.45h0c4.4-4.81,12.3-4.83,17.55-.04l54.44,49.66c5.25,4.79,5.94,12.64,1.55,17.45Z"/>
    <g>
      <ellipse class="cls-7" cx="59.9" cy="354.79" rx="5.85" ry="6.25" transform="translate(-242.49 159.79) rotate(-47.6)"/>
      <ellipse class="cls-7" cx="57.45" cy="346.74" rx="5.85" ry="6.25" transform="translate(-237.34 155.36) rotate(-47.6)"/>
      <ellipse class="cls-7" cx="50.17" cy="345.92" rx="5.85" ry="6.25" transform="translate(-239.1 149.71) rotate(-47.6)"/>
      <path class="cls-4" d="M38.43,374.3l-1.29-1.07c-2.31-1.91-2.72-5.26-.93-7.46.09-.1.18-.2.26-.3l-3.23-2.68c-4.25-3.52-5.03-9.72-1.72-13.77l3.01-3.68c3.31-4.05,9.49-4.48,13.75-.95l7.09,5.87c4.25,3.52,5.03,9.72,1.72,13.77l-3.01,3.68c-1.78,2.18-4.4,3.31-7.11,3.34-.08.97-.44,1.93-1.09,2.73-.9,1.1-2.18,1.71-3.53,1.79-1.35.1-2.76-.32-3.91-1.28h-.01Z"/>
    </g>
  </g>
  <g>
    <rect class="cls-4" x="206.55" y="363.39" width="99.53" height="23.71" rx="11.65" ry="11.65" transform="translate(-196 419) rotate(-61.19)"/>
    <ellipse class="cls-7" cx="261.89" cy="344.92" rx="6.25" ry="5.85" transform="translate(-166.55 408.18) rotate(-61.19)"/>
    <ellipse class="cls-7" cx="261.6" cy="336.49" rx="6.25" ry="5.85" transform="translate(-159.31 403.55) rotate(-61.19)"/>
    <ellipse class="cls-7" cx="268.23" cy="333.38" rx="6.25" ry="5.85" transform="translate(-153.15 407.75) rotate(-61.19)"/>
    <path class="cls-4" d="M285.74,357.07l.86-1.4c1.54-2.51.88-5.76-1.48-7.23-.11-.07-.23-.13-.34-.19l2.16-3.52c2.84-4.63,1.61-10.64-2.74-13.35l-3.95-2.47c-4.35-2.71-10.24-1.14-13.08,3.48l-4.74,7.72c-2.84,4.63-1.61,10.64,2.74,13.35l3.95,2.47c2.35,1.46,5.14,1.68,7.66.85.38.88,1.02,1.65,1.87,2.19,1.18.74,2.57.89,3.85.55s2.47-1.18,3.24-2.43v-.02h0Z"/>
  </g>
  <g>
    <path class="cls-7" d="M217.61,324.65c1.33,2.96,4.36,4.36,6.76,3.13s3.27-4.63,1.94-7.59-4.36-4.36-6.76-3.13-3.27,4.63-1.94,7.59Z"/>
    <path class="cls-7" d="M223.61,329.21c1.33,2.96,4.36,4.36,6.76,3.13s3.27-4.63,1.94-7.59-4.36-4.36-6.76-3.13c-2.4,1.23-3.27,4.63-1.94,7.59Z"/>
    <path class="cls-7" d="M222.68,335.94c1.33,2.96,4.36,4.36,6.76,3.13s3.27-4.63,1.94-7.59-4.36-4.36-6.76-3.13c-2.4,1.23-3.27,4.63-1.94,7.59Z"/>
  </g>
  <g>
    <path class="cls-7" d="M120.41,326.81c-1.33,2.96-4.36,4.36-6.76,3.13s-3.27-4.63-1.94-7.59,4.36-4.36,6.76-3.13,3.27,4.63,1.94,7.59Z"/>
    <path class="cls-7" d="M114.41,331.37c-1.33,2.96-4.36,4.36-6.76,3.13s-3.27-4.63-1.94-7.59,4.36-4.36,6.76-3.13,3.27,4.63,1.94,7.59Z"/>
    <path class="cls-7" d="M115.34,338.09c-1.33,2.96-4.36,4.36-6.76,3.13s-3.27-4.63-1.94-7.59,4.36-4.36,6.76-3.13,3.27,4.63,1.94,7.59Z"/>
  </g>
  <ellipse class="cls-2" cx="284.36" cy="219.88" rx="40.97" ry="57.27"/>
  <ellipse class="cls-2" cx="61.31" cy="228.44" rx="40.97" ry="57.27"/>
  <ellipse class="cls-2" cx="37.89" cy="166.23" rx="37.28" ry="38.51"/>
  <ellipse class="cls-11" cx="131.55" cy="288.02" rx="21.87" ry="23.37"/>
  <ellipse class="cls-11" cx="239.38" cy="274.19" rx="21.87" ry="23.37"/>
  <ellipse class="cls-2" cx="235.68" cy="266.95" rx="26.19" ry="24.69"/>
  <ellipse class="cls-2" cx="131.55" cy="276.17" rx="26.19" ry="24.69"/>
  <ellipse class="cls-11" cx="96.43" cy="270.9" rx="21.87" ry="23.37"/>
  <ellipse class="cls-11" cx="201.79" cy="284.73" rx="21.87" ry="23.37"/>
  <ellipse class="cls-11" cx="62.54" cy="104.35" rx="37.28" ry="38.51"/>
  <ellipse class="cls-11" cx="280.66" cy="221.2" rx="40.97" ry="57.27"/>
  <ellipse class="cls-11" cx="288.05" cy="156.35" rx="37.28" ry="38.51"/>
  <ellipse class="cls-11" cx="283.74" cy="103.69" rx="37.28" ry="38.51"/>
  <ellipse class="cls-11" cx="243.07" cy="60.9" rx="40.36" ry="43.12"/>
  <ellipse class="cls-11" cx="174.68" cy="56.95" rx="37.28" ry="38.51"/>
  <ellipse class="cls-11" cx="97.04" cy="53.65" rx="37.28" ry="38.51"/>
  <ellipse class="cls-11" cx="63.77" cy="221.86" rx="40.97" ry="57.27"/>
  <ellipse class="cls-11" cx="37.28" cy="156.35" rx="37.28" ry="38.51"/>
  <ellipse class="cls-11" cx="148.8" cy="38.51" rx="37.28" ry="38.51"/>
  <ellipse class="cls-11" cx="198.71" cy="39.17" rx="37.28" ry="38.51"/>
  <path class="cls-11" d="M293.01,172.53c-.13,1.99-4.97,21.9-14.65,61.71-4.69,19.31-7.56,30.46-17.31,39.77-4.96,4.74-10.7,8.04-30.63,13.71-31.08,8.85-46.61,13.28-65.24,12.34-23.41-1.18-40.08-8.31-55.92-15.08-16.1-6.89-26.95-11.68-35.95-23.31-6.76-8.73-8.93-16.72-13.32-32.91-15.98-58.94-15.96-58.84-15.98-58.97-5.31-43.64,42.3-131.41,125.16-130.96,81.9.44,126.91,86.68,123.83,133.7h0Z"/>
  <path class="cls-4" d="M96.51,419.58h0c-6.19-2.18-9.59-9.37-7.56-15.99l21.69-70.49c2.04-6.62,8.77-10.25,14.96-8.08h0c6.19,2.18,9.59,9.37,7.56,15.99l-21.69,70.49c-2.04,6.62-8.77,10.25-14.96,8.08Z"/>
  <path class="cls-4" d="M238.91,418.26h0c6.21-2.12,9.67-9.28,7.69-15.91l-21.1-70.69c-1.98-6.64-8.68-10.34-14.89-8.22h0c-6.21,2.12-9.67,9.28-7.69,15.91l21.1,70.69c1.98,6.64,8.68,10.34,14.89,8.22Z"/>
  <path class="cls-16" d="M293.14,172.54c-.13,1.99-4.97,21.9-14.65,61.71-4.69,19.31-7.56,30.46-17.31,39.77-4.96,4.74-10.7,8.04-30.63,13.71-31.08,8.85-46.61,13.28-65.24,12.34-23.41-1.18-40.08-8.31-55.92-15.08-16.1-6.89-26.95-11.68-35.95-23.31-6.76-8.73-8.93-16.72-13.32-32.91-15.98-58.94-15.96-58.84-15.98-58.97-5.31-43.64,42.3-131.41,125.16-130.96,81.9.44,126.91,86.68,123.83,133.7h0Z"/>
  <rect class="cls-4" x="146.65" y="287.69" width="44.36" height="32.92" rx="12" ry="12"/>
  <path class="cls-4" d="M180.12,314.02h-23.2c-27.45,0-49.71,22.26-49.71,49.71v64.5c0,3.07.29,6.06.82,8.97.26-.04.53-.07.82-.07,8.32-.02,16.62-.38,24.93-.23.47-.18.97-.26,1.5-.24.05,0,.09,0,.14,0,.44.06.89.12,1.33.18.01,0,.03,0,.04,0,.06.01.12.03.18.04.03.01.06.02.09.03.15.06.31.13.46.2.1,0,.21,0,.31,0,.17.02.34.03.51.05.15-.01.29-.05.44-.05h2.16c1.55-.16,3.11-.33,4.63-.31,2.25.03,4.5.15,6.75.26.64-.32,1.4-.52,2.28-.52.62,0,1.18.09,1.67.26.49-.16,1.03-.26,1.64-.26.53,0,1.02.07,1.47.2.65-.08,1.3-.14,1.94-.11.49.02.96.14,1.41.29.33-.06.68-.1,1.05-.1.2,0,.4.01.6.03.15-.01.29-.04.45-.03h.09c.25,0,.49.02.72.06.26-.04.52-.07.79-.06h.09c.2,0,.39.02.58.04.21-.02.43-.04.66-.04.5,0,.96.07,1.38.18.24-.05.49-.08.75-.08.32-.06.64-.1,1-.1.11,0,.2,0,.31.02.09,0,.17-.02.26-.02.06,0,.12,0,.19,0,.13,0,.25-.01.38,0h.28c.12,0,.24.02.35.02.13,0,.26-.02.4-.02.16,0,.31.01.47.02.19-.02.38-.03.58-.02h.09c.25,0,.49.02.72.06.26-.04.52-.07.79-.06h.09c.35,0,.68.05,1.01.11.11,0,.21-.02.32-.02.51,0,.97.07,1.4.18.31-.05.63-.09.97-.09.29,0,.57.03.83.07.49-.16,1.03-.26,1.63-.26.04,0,.07,0,.11,0,.32-.09.66-.16,1.03-.19,3.76-.31,7.6.31,11.38.33,2.98.02,5.91.02,8.85.25.67-.37,1.47-.59,2.41-.59,7.76,0,15.51.31,23.26.37.52-2.86.8-5.79.8-8.8v-64.5c0-27.45-22.26-49.71-49.71-49.71Z"/>
  <path class="cls-4" d="M226.8,334.55c2.03,8.26-2.59,16.72-10.33,18.89-7.73,2.17-15.65-2.77-17.68-11.03s2.59-16.72,10.33-18.89,15.65,2.77,17.68,11.03h0Z"/>
  <path class="cls-4" d="M136.83,335.85c2.03,8.26-2.59,16.72-10.33,18.89s-15.65-2.77-17.68-11.03,2.59-16.72,10.33-18.89c7.73-2.17,15.65,2.77,17.68,11.03Z"/>
  <path class="cls-4" d="M75.52,264.08c-2.54.86-5.22,1.37-8.01,1.47-16.98.6-31.23-14.26-31.81-33.19-.43-13.84,6.56-26.02,16.99-31.81"/>
  <path class="cls-4" d="M286.52,201.04c2.5,1,4.9,2.37,7.15,4.12,13.71,10.73,16.33,31.81,5.86,47.09-7.66,11.17-20.2,16.15-31.74,13.83"/>
  <path class="cls-12" d="M134.19,137.58c-4.85-1.41-8.93-1.81-11.79-1.9-4.83-.15-20.32-.65-30.86,11.35-1.92,2.18-3.23,4.28-4.04,5.7,1.49-.91,11.46-6.93,20.65-9.85,2.07-.66,7.25-2.27,12.85-2.14.53,0,.88.06,1.4.06,3.17,0,6.62.64,10.04,1.61,1.54.4,2.93-.75,3.1-2.12.13-1.02-.41-2.13-1.35-2.71h0Z"/>
  <path class="cls-12" d="M195.36,137.52c4.85-1.41,8.93-1.81,11.79-1.9,4.83-.15,20.32-.65,30.86,11.35,1.92,2.18,3.23,4.28,4.04,5.7-1.49-.91-11.46-6.93-20.65-9.85-2.07-.66-7.25-2.27-12.85-2.14-.53,0-.88.06-1.4.06-3.17,0-6.62.64-10.04,1.61-1.54.4-2.93-.75-3.1-2.12-.13-1.02.41-2.13,1.35-2.71h0Z"/>
  <path class="cls-12" d="M164.63,259.74c1.28.15,5.57.58,11.15-.54,11.84-2.38,19.62-9.78,23.06-13.55-9.11,4.28-16.67,6.63-21.93,7.97-4.54,1.16-7.96,1.71-12,1.53-.97-.05-4.77-.26-10.37-2.05-9.29-2.96-14.2-7.26-14.39-6.95-.29.47,9.59,11.84,24.48,13.6h0Z"/>
  <path class="cls-12" d="M205.09,242.63c-.04-.17-.19-.73-.59-1.38-.84-1.37-2.09-1.99-2.71-2.23.94.94,1.58,1.77,1.98,2.37.35.51.58.92.75,1.44.04.12.19.61.24,1.41.08,1.32-.2,2.15-.15,2.16.07,0,.97-1.79.48-3.76h0Z"/>
  <path class="cls-12" d="M135.79,241.5c-.09.13-.37.55-.52,1.25-.31,1.48.27,2.95.6,3.65-.09-1.35,0-2.37.09-3.05.09-.59.19-1.01.43-1.43.06-.1.29-.49.83-.95.89-.76,1.73-.92,1.7-.97-.05-.07-2.1.04-3.13,1.5h0Z"/>
  <ellipse class="cls-10" cx="249.85" cy="240.95" rx="6.47" ry="7.24"/>
  <ellipse class="cls-10" cx="260.02" cy="200.46" rx="4.31" ry="3.62"/>
  <ellipse class="cls-8" cx="262.8" cy="214.64" rx="7.2" ry="4.65" transform="translate(-18.11 404.97) rotate(-73.36)"/>
  <ellipse class="cls-10" cx="250.78" cy="221.86" rx="3.7" ry="3.95"/>
  <ellipse class="cls-10" cx="260.02" cy="231.73" rx="3.7" ry="5.92"/>
  <ellipse class="cls-10" cx="274.5" cy="190.66" rx="5.55" ry="3.42" transform="translate(1.12 382.92) rotate(-69.9)"/>
  <path class="cls-8" d="M273.54,220.24c1.32,1.41,1.03,4.02-.65,5.82s-4.12,2.11-5.45.7c-1.32-1.41-1.03-4.02.65-5.82s4.12-2.11,5.45-.7Z"/>
  <ellipse class="cls-8" cx="266.18" cy="192.23" rx="3.08" ry="3.29"/>
  <path class="cls-10" d="M274.45,199.53c1.18,1.55.64,4.11-1.2,5.72s-4.3,1.65-5.48.1-.64-4.11,1.2-5.72c1.85-1.61,4.3-1.65,5.48-.1Z"/>
  <ellipse class="cls-10" cx="273.88" cy="212.67" rx="4.56" ry="2.18" transform="translate(-29.81 380.04) rotate(-66.69)"/>
  <ellipse class="cls-8" cx="232.91" cy="235.68" rx="6.78" ry="7.24"/>
  <ellipse class="cls-10" cx="81.7" cy="242.25" rx="6.47" ry="7.24"/>
  <ellipse class="cls-10" cx="71.53" cy="201.76" rx="4.31" ry="3.62"/>
  <ellipse class="cls-8" cx="68.78" cy="215.9" rx="4.65" ry="7.2" transform="translate(-58.94 28.74) rotate(-16.64)"/>
  <ellipse class="cls-10" cx="80.77" cy="223.15" rx="3.7" ry="3.95"/>
  <ellipse class="cls-10" cx="71.53" cy="233.03" rx="3.7" ry="5.92"/>
  <ellipse class="cls-10" cx="57.1" cy="191.85" rx="3.42" ry="5.55" transform="translate(-62.45 31.31) rotate(-20.1)"/>
  <path class="cls-8" d="M58.01,221.54c-1.32,1.41-1.03,4.02.65,5.82s4.12,2.11,5.45.7,1.03-4.02-.65-5.82-4.12-2.11-5.45-.7Z"/>
  <ellipse class="cls-8" cx="65.37" cy="193.53" rx="3.08" ry="3.29"/>
  <path class="cls-10" d="M57.1,200.82c-1.18,1.55-.64,4.11,1.2,5.72,1.85,1.61,4.3,1.65,5.48.1s.64-4.11-1.2-5.72-4.3-1.65-5.48-.1Z"/>
  <ellipse class="cls-10" cx="57.69" cy="213.93" rx="2.18" ry="4.56" transform="translate(-79.94 40.29) rotate(-23.31)"/>
  <ellipse class="cls-8" cx="98.64" cy="236.98" rx="6.78" ry="7.24"/>
  <path class="cls-3" d="M146.65,297.73c6.36,1.7,11.67,2.27,15.4,2.47,5.27.28,9.37-.08,16.02-.66,5.39-.47,9.85-1.06,12.94-1.51v12l-44.36.31v-12.61Z"/>
  <path class="cls-14" d="M180.12,314.02h-23.2c-27.45,0-49.71,22.26-49.71,49.71v64.5c0,3.07.29,6.06.82,8.97.26-.04.53-.07.82-.07,8.32-.02,16.62-.38,24.93-.23.47-.18.97-.26,1.5-.24.05,0,.09,0,.14,0,.44.06.89.12,1.33.18.01,0,.03,0,.04,0,.06.01.12.03.18.04.03.01.06.02.09.03.15.06.31.13.46.2.1,0,.21,0,.31,0,.17.02.34.03.51.05.15-.01.29-.05.44-.05h2.16c1.55-.16,3.11-.33,4.63-.31,2.25.03,4.5.15,6.75.26.64-.32,1.4-.52,2.28-.52.62,0,1.18.09,1.67.26.49-.16,1.03-.26,1.64-.26.53,0,1.02.07,1.47.2.65-.08,1.3-.14,1.94-.11.49.02.96.14,1.41.29.33-.06.68-.1,1.05-.1.2,0,.4.01.6.03.15-.01.29-.04.45-.03h.09c.25,0,.49.02.72.06.26-.04.52-.07.79-.06h.09c.2,0,.39.02.58.04.21-.02.43-.04.66-.04.5,0,.96.07,1.38.18.24-.05.49-.08.75-.08.32-.06.64-.1,1-.1.11,0,.2,0,.31.02.09,0,.17-.02.26-.02.06,0,.12,0,.19,0,.13,0,.25-.01.38,0h.28c.12,0,.24.02.35.02.13,0,.26-.02.4-.02.16,0,.31.01.47.02.19-.02.38-.03.58-.02h.09c.25,0,.49.02.72.06.26-.04.52-.07.79-.06h.09c.35,0,.68.05,1.01.11.11,0,.21-.02.32-.02.51,0,.97.07,1.4.18.31-.05.63-.09.97-.09.29,0,.57.03.83.07.49-.16,1.03-.26,1.63-.26.04,0,.07,0,.11,0,.32-.09.66-.16,1.03-.19,3.76-.31,7.6.31,11.38.33,2.98.02,5.91.02,8.85.25.67-.37,1.47-.59,2.41-.59,7.76,0,15.51.31,23.26.37.52-2.86.8-5.79.8-8.8v-64.5c0-27.45-22.26-49.71-49.71-49.71Z"/>
  <path class="cls-13" d="M136.53,333.54c2.03,8.26-2.59,16.72-10.33,18.89s-15.65-2.77-17.68-11.03,2.59-16.72,10.33-18.89c7.73-2.17,15.65,2.77,17.68,11.03h0Z"/>
  <path class="cls-13" d="M96.01,420.96h0c-6.19-2.18-9.59-9.37-7.56-15.99l21.69-70.49c2.04-6.62,8.77-10.25,14.96-8.08h0c6.19,2.18,9.59,9.37,7.56,15.99l-21.69,70.49c-2.04,6.62-8.77,10.25-14.96,8.08Z"/>
  <path class="cls-13" d="M200.96,333.55c-2.03,8.26,2.59,16.72,10.33,18.89,7.73,2.17,15.65-2.77,17.68-11.03s-2.59-16.72-10.33-18.89-15.65,2.77-17.68,11.03h0Z"/>
  <path class="cls-13" d="M241.48,420.96h0c6.19-2.18,9.59-9.37,7.56-15.99l-21.69-70.49c-2.04-6.62-8.77-10.25-14.96-8.08h0c-6.19,2.18-9.59,9.37-7.56,15.99l21.69,70.49c2.04,6.62,8.77,10.25,14.96,8.08h0Z"/>
  <ellipse class="cls-11" cx="191.32" cy="53" rx="37.28" ry="38.51"/>
  <ellipse class="cls-2" cx="126" cy="45.75" rx="37.28" ry="38.51"/>
  <ellipse class="cls-2" cx="45.9" cy="118.17" rx="37.28" ry="38.51"/>
  <ellipse class="cls-2" cx="75.48" cy="84.6" rx="37.28" ry="38.51"/>
  <ellipse class="cls-2" cx="275.11" cy="112.25" rx="37.28" ry="38.51"/>
  <ellipse class="cls-2" cx="241.84" cy="73.4" rx="37.28" ry="38.51"/>
  <ellipse class="cls-11" cx="128.47" cy="53" rx="37.28" ry="38.51"/>
  <ellipse class="cls-11" cx="97.66" cy="56.95" rx="37.28" ry="38.51"/>
  <ellipse class="cls-11" cx="48.37" cy="126.07" rx="37.28" ry="38.51"/>
  <ellipse class="cls-11" cx="271.42" cy="117.51" rx="37.28" ry="38.51"/>
  <ellipse class="cls-11" cx="237.53" cy="78.01" rx="37.28" ry="38.51"/>
  <ellipse class="cls-11" cx="81.02" cy="85.25" rx="37.28" ry="38.51"/>
  <ellipse class="cls-11" cx="283.12" cy="153.06" rx="21.87" ry="23.37"/>
  <ellipse class="cls-11" cx="44.05" cy="162.28" rx="21.87" ry="23.37"/>
  <g>
    <path class="cls-1" d="M165.77,389.37s-6.7-22.69-21.98-9.26c0,0-10.75,10.2-5.8,17.98,0,0,10.52,10.53,20.85,4.69l1.08,1.12s-2.98,5.93.95,6.29c0,0,2.79,1.29,3.8.61s-.63,0-.63,0c0,0,9.71,6.73,18.35.9,0,0,2.39-1.69,1.14-2.91h1.3s6.64,1.85,10.13-2.24c0,0,3.21-2.93-2.98-3.72,0,0,6.83-5.45,3.82-9.72,0,0-3.77,3.66-8.2,3.53,0,0-6.86-14.43-21.82-7.28h-.01Z"/>
    <g>
      <path class="cls-19" d="M164.69,393.01c-.25-8.38-4.45-14.91-9.77-16.19-1.07-.26-3.54-.63-6.8.97-1.1.72-2.36,1.67-3.61,2.93-2.61,2.61-4.13,5.4-5,7.39,0,0-3.41,5.97,0,9.19,0,0,8.61,8.82,19.33,3.92l2.76,1.75s-2.44,2.8-1.79,4.72c0,0,2.11,2.41,5.44,1.47,0,0,3.17,4.48,12.1,2.55,0,0,5.2-.7,5.04-2.27l-2.76-1.92s3.9-.52,3.9-1.22c0,0,1.3,3.32,8.94.7,0,0,2.6-1.05,2.44-2.27,0,0-.49-1.57-5.04-1.92v-.52s5.7-2.7,5.04-7.56c0,0-4.23,3.36-7.64,2.49,0,0-1.14-3.85-6.99-6.99-.42-.26-6.96-4.19-12.35-.7-1.55,1.01-2.58,2.35-3.25,3.5v-.02h.01Z"/>
      <path class="cls-22" d="M163.55,395.99s14.19,4.71,22.45-1.05c-.91-1.29-1.82-2.23-2.55-2.88-4.19-3.75-10.16-5.18-13.65-3.5-.85.41-1.79,1.05-1.79,1.05-1.54,1.05-2.63,2.21-3.34,3.07-.38,1.1-.75,2.21-1.13,3.31h0Z"/>
      <path class="cls-21" d="M162.17,398.7s10.24,6.99,25.1-1.49c0,0-.35-1.67-1.27-2.28-2.74,1.35-5.16,2-6.87,2.33-4.5.87-8.1.35-10.14.03-2.28-.35-4.14-.88-5.44-1.31-.46.9-.92,1.81-1.38,2.71h0Z"/>
      <path class="cls-21" d="M179.64,407.53s3.49-.09,3.9-1.22l-.41-3.23s-5.2,2.97-11.21,1.4c0,0,5.69,3.32,7.72,3.06h0Z"/>
      <ellipse class="cls-9" cx="150.47" cy="388.82" rx="2.76" ry="3.58"/>
      <ellipse class="cls-15" cx="150" cy="387.51" rx="1.39" ry=".98" transform="translate(-259.36 458.89) rotate(-78.73)"/>
      <ellipse class="cls-17" cx="154.54" cy="395.29" rx="2.76" ry="1.49"/>
      <path class="cls-18" d="M150.15,378.32s-2.92,1.77,0,1.1c0,0,1.92-1.78,5.02,0,0,0,1.75.9.8-1.1,0,0-4.52-1.14-5.82,0Z"/>
      <ellipse class="cls-18" cx="147.71" cy="380.86" rx=".81" ry=".87"/>
      <path class="cls-6" d="M164.22,394.03s11.91,3.78,20.49-.63c0,0,1.16,1.01,1.3,1.53,0,0-7.83,5.25-22.45,1.05l.67-1.95h-.01Z"/>
      <path class="cls-20" d="M166.79,390.42s4.97,1.98,5.13,7.23c0,0-6.42-.96-8.37-1.66l1.12-3.65,2.12-1.92Z"/>
      <path class="cls-20" d="M176.83,388.39s-6.65,2.5-6.8,4.44c0,0-1.64-1.86-3.25-2.41,0,0,4.64-4.03,10.04-2.03h.01Z"/>
      <path class="cls-20" d="M180.85,396.87s-.97-7.16-4.01-8.48c0,0,6.6,2.17,9.17,6.54,0,0-4.11,2.12-5.16,1.94Z"/>
      <path class="cls-20" d="M182.39,391.23s-2.42-1.38-2.51,1.6c0,0-.98-3.47-3.05-4.44,0,0,4.58,1.41,5.56,2.84Z"/>
      <path class="cls-20" d="M161.6,402.98s2.51,2.38,4.02,2.32c0,0-.11-1.82.86-2.07,0,0-.98-1.16-1.22,5.94"/>
      <path class="cls-5" d="M142.84,394.8s.27,3.55,4.1,1.56c0,0-3.21,1.07-4.1-1.56Z"/>
      <path class="cls-20" d="M158.84,401.23s2.52-.96,3.33-2.54"/>
      <path class="cls-20" d="M176.83,404.87s1.82.24,1.82,2.59"/>
      <path class="cls-20" d="M180.8,404.05s1.37,1.43,1.32,3.06"/>
      <ellipse class="cls-17" cx="168.75" cy="408.31" rx="1.3" ry="1.14"/>
      <ellipse class="cls-17" cx="184.84" cy="406.21" rx="1.3" ry="1.14"/>
      <ellipse class="cls-17" cx="160.85" cy="405.93" rx="1.28" ry=".75" transform="translate(-265.3 310.8) rotate(-55.8)"/>
      <ellipse class="cls-17" cx="175.09" cy="409.71" rx=".97" ry=".61"/>
      <ellipse class="cls-17" cx="188.08" cy="403.42" rx=".49" ry=".61"/>
      <ellipse class="cls-17" cx="191.98" cy="405.34" rx=".97" ry=".61"/>
    </g>
  </g>
  <g>
    <ellipse class="cls-1" cx="197.62" cy="384.76" rx="3.86" ry="3.62"/>
    <ellipse class="cls-15" cx="199.7" cy="382.81" rx=".59" ry=".56"/>
    <ellipse class="cls-15" cx="200.64" cy="385.01" rx=".23" ry=".09" transform="translate(-102.55 74.27) rotate(-16.77)"/>
    <ellipse class="cls-15" cx="200.36" cy="384.15" rx=".53" ry=".33"/>
  </g>
  <g>
    <ellipse class="cls-1" cx="141.72" cy="368.1" rx="3.61" ry="3.16"/>
    <ellipse class="cls-15" cx="143.66" cy="366.4" rx=".56" ry=".49"/>
    <ellipse class="cls-15" cx="144.44" cy="368.36" rx=".22" ry=".08" transform="translate(-91.97 51.09) rotate(-15.28)"/>
    <ellipse class="cls-15" cx="144.28" cy="367.56" rx=".5" ry=".29"/>
  </g>
  <g>
    <ellipse class="cls-1" cx="201.71" cy="397.08" rx="1.63" ry="1.57"/>
    <ellipse class="cls-15" cx="202.58" cy="396.24" rx=".25" ry=".24"/>
    <ellipse class="cls-15" cx="202.93" cy="397.22" rx=".1" ry=".04" transform="translate(-109.94 79.3) rotate(-17.48)"/>
    <ellipse class="cls-15" cx="202.86" cy="396.82" rx=".22" ry=".14"/>
  </g>
  <g>
    <ellipse class="cls-1" cx="145.12" cy="404.19" rx="2.91" ry="2.83"/>
    <ellipse class="cls-15" cx="146.69" cy="402.67" rx=".45" ry=".43"/>
    <ellipse class="cls-15" cx="147.42" cy="404.36" rx=".17" ry=".07" transform="translate(-115.19 63.36) rotate(-17.57)"/>
    <ellipse class="cls-15" cx="147.18" cy="403.71" rx=".4" ry=".26"/>
  </g>
  <path class="cls-12" d="M125.09,182.66c-1.28-.07-5.6-.22-11.09,1.27-11.66,3.15-18.94,11.05-22.12,15.04,8.81-4.87,16.2-7.71,21.36-9.39,4.45-1.45,7.83-2.23,11.88-2.31.97-.02,4.78-.05,10.48,1.36,9.46,2.34,14.65,6.32,14.82,5.99.26-.49-10.34-11.18-25.32-11.96h0Z"/>
  <path class="cls-12" d="M219.22,180.85c-1.28-.07-5.6-.22-11.09,1.27-11.66,3.15-18.94,11.05-22.12,15.04,8.81-4.87,16.2-7.71,21.36-9.39,4.45-1.45,7.83-2.23,11.88-2.31.97-.02,4.78-.05,10.48,1.36,9.46,2.34,14.65,6.32,14.82,5.99.26-.49-10.34-11.18-25.32-11.96h-.01Z"/>
</svg>