<?xml version="1.0" encoding="UTF-8"?>
<svg xmlns="http://www.w3.org/2000/svg" viewBox="0 0 501 727">
  <defs>
    <style>
      .cls-1 {
        fill: #ffd3c2;
      }

      .cls-1, .cls-2, .cls-3, .cls-4, .cls-5, .cls-6, .cls-7, .cls-8, .cls-9, .cls-10, .cls-11, .cls-12, .cls-13, .cls-14, .cls-15, .cls-16, .cls-17, .cls-18, .cls-19 {
        stroke-width: 0px;
      }

      .cls-2 {
        fill: #b1b7dd;
      }

      .cls-3 {
        fill: #000;
      }

      .cls-4 {
        fill: #56331f;
      }

      .cls-5 {
        fill: #dda08e;
      }

      .cls-20 {
        isolation: isolate;
      }

      .cls-6 {
        fill: #650e81;
        mix-blend-mode: multiply;
        opacity: .1;
      }

      .cls-7 {
        fill: #f2b9a7;
      }

      .cls-8 {
        fill: #f297ab;
        opacity: .5;
      }

      .cls-9 {
        fill: #505982;
      }

      .cls-10 {
        fill: none;
      }

      .cls-11 {
        fill: #7c797c;
      }

      .cls-12 {
        fill: #e2bbaf;
      }

      .cls-13 {
        fill: #4c2612;
      }

      .cls-14 {
        fill: #757daa;
      }

      .cls-15 {
        fill: #474047;
      }

      .cls-21 {
        stroke: #af8571;
      }

      .cls-21, .cls-22 {
        stroke-miterlimit: 10;
      }

      .cls-21, .cls-17 {
        fill: #fff;
      }

      .cls-16, .cls-22 {
        fill: #f2cabb;
      }

      .cls-22 {
        stroke: #ddae97;
      }

      .cls-18 {
        fill: #353135;
      }

      .cls-19 {
        fill: #7c7c7c;
      }
    </style>
  </defs>
  <g class="cls-20">
    <g id="Capa_1" data-name="Capa 1">
      <rect class="cls-19" width="501" height="727" rx="84.32" ry="84.32"/>
      <g>
        <path class="cls-1" d="M169.42,471.55c.49,6,2.46,17.92,2.41,21.45-.07,3.53-1.44,7.99-2.13,10.14-.69,2.14-2.93,5.52-3.96,7.11-1.03,1.59-1.87,1.81-2.75,1.3-.88-.51-1.31-1.73-1.09-3.27,0,0-1.57,1.77-2.36,2.65-.8.89-1.99,1.05-2.78-.14-.8-1.2-.85-4.01.29-6.04,0,0-3.39,3.43-4.35,4.23-.96.81-1.53.89-2.38.3-.84-.59-1.8-1.83-1.39-3.69s2.62-4.77,2.62-4.77c0,0-4.85,3.78-5.92,4.49-1.07.71-1.76.42-2.11-.55-.35-.98-.79-2.18.2-4.19.99-2,2.67-2.7,3.09-3.35.42-.66,1.29-3.46,1.77-4.9-.48-5.16,1.21-7.21,1.7-9.4.48-2.18,1.42-4.56,1.08-7.29-.52-3.43,2.9-8.95,9.06-10,6.16-1.04,8.49,1.4,8.98,5.93Z"/>
        <path class="cls-7" d="M156.74,507.88c-.12-.1-.1-.28.04-.4,0,0,.7-.61,1.74-1.52.25-.23.53-.46.82-.73.31-.26.53-.53.83-.8.23-.21.47-.66.72-.99.25-.36.49-.73.74-1.09,1.03-1.46,2.08-2.88,2.86-3.94.79-1.06,1.37-1.76,1.37-1.76.09-.12.25-.18.39-.14.15.05.22.19.14.35,0,0-.41.77-1.09,1.91-.36.56-.75,1.23-1.2,1.94-.45.69-.96,1.42-1.47,2.14-.26.37-.52.73-.78,1.08-.28.36-.43.68-.83,1.07-.34.31-.7.63-1.01.87-.33.25-.64.47-.92.69-.57.42-1.08.74-1.42.98-.34.22-.54.35-.54.35-.14.09-.3.09-.4,0ZM153.55,503.45s.15-.11.38-.28c.24-.19.6-.41.98-.79.19-.18.41-.38.63-.59.21-.21.5-.46.67-.66.39-.48.8-1,1.21-1.51.81-1.04,1.56-2.11,2.11-2.91.05-.08.18-.25.15-.25.08-.08.14-.17.22-.24.13-.15.25-.29.34-.4.1-.12.15-.15.2-.2.05-.05.07-.07.07-.07l.05-.06c.12-.12.12-.29,0-.38-.1-.07-.25-.06-.37,0,0,0-.05.03-.13.08-.07.05-.23.14-.34.23-.12.1-.25.21-.41.35-.08.06-.17.13-.26.21-.17.18-.18.2-.28.32-.66.75-1.51,1.76-2.31,2.8-.39.53-.79,1.05-1.15,1.55-.23.27-.39.44-.57.66-.18.2-.34.4-.5.57-.29.36-.61.67-.8.89-.19.22-.3.35-.3.35-.12.13-.11.31.03.39.11.06.27.04.39-.04ZM149.22,498.63s.33-.25.76-.67c.21-.21.48-.46.72-.73.23-.29.49-.6.73-.9.48-.63.91-1.29,1.21-1.78.29-.5.44-.84.44-.84.06-.16-.02-.31-.18-.35-.12-.02-.24.02-.33.1l-.02.02s-.32.27-.73.71c-.41.43-.92,1.01-1.37,1.62-.22.31-.44.62-.64.91-.23.29-.41.58-.58.81-.32.49-.5.82-.5.82-.08.16-.02.32.15.37.11.03.24,0,.34-.08Z"/>
        <path class="cls-4" d="M342.2,220.88s-2.36,59.12-8.45,66.08c0,0,35.5,15.91,51.06-18.42,0,0,14.53-58.29-42.62-47.66Z"/>
        <path class="cls-17" d="M309.74,242.73c-1.12.59-2.24,1.12-3.35,1.6,1.16-.47,2.29-1,3.35-1.6Z"/>
        <path class="cls-2" d="M293.67,235.56s-.04.02-.11.09c.07-.05.11-.09.11-.09Z"/>
        <path class="cls-4" d="M129.06,431.39s242.58,40.59,314.58-43.61c0,0-274.68-150.26-314.58,43.61Z"/>
        <polygon class="cls-4" points="298.21 364.17 215.79 365.43 215.79 321.28 296.28 323.61 298.21 364.17"/>
        <rect class="cls-12" x="220.57" y="320.11" width="39.05" height="37.07" rx="4.37" ry="4.37"/>
        <path class="cls-16" d="M212.57,93.35s-71.45,10.07-93.43,70.5c0,0-15.11,64.18,0,90.63,0,0-23.36-12.58-12.37,21.41,0,0,9.62,10.07,26.11,12.59,9.69,11.52,19.49,18.73,26.39,23.08,14.75,9.28,27.92,13.36,36.81,15.95,8.09,2.35,16.88,4.91,28.95,5.61,14.01.81,24.68-1.33,39.75-4.35,5.19-1.04,15.36-3.33,27.51-6.76.99-.28,1.87-.54,2.72-.79,14.43-4.27,21.79-6.51,28.85-11.33,9.66-6.6,15.01-14.77,17.86-20.14,0,0,21.98-1.26,28.85-17.62,0,0,6.87-22.66-9.62-21.4,3.14-11.51,5.8-26.72,4.98-44.53-1.64-35.67-16.37-62.41-25.59-76.32-6.46-6.78-14.79-13.95-25.42-20.3-41.13-24.56-86.74-18.85-102.37-16.21Z"/>
        <path class="cls-8" d="M152.06,267.85c-4.2-11.21,2.1-23.48,14.08-27.42,11.97-3.92,25.09,1.97,29.28,13.19,4.21,11.21-2.1,23.5-14.08,27.43-11.97,3.93-25.08-1.97-29.28-13.19Z"/>
        <path class="cls-8" d="M275.47,267.85c-4.2-11.21,2.1-23.49,14.08-27.42,11.97-3.92,25.09,1.97,29.28,13.18,4.21,11.21-2.09,23.5-14.07,27.43-11.97,3.93-25.09-1.97-29.29-13.19Z"/>
        <path class="cls-8" d="M247.12,286.86s-11.39,3.69-17.44,3.49c-6.06-.2-13.32-2.41-13.32-2.41,0,0,4.97-6.45,14.83-6.76,9.85-.31,15.94,5.68,15.94,5.68Z"/>
        <path class="cls-8" d="M216.36,287.51s2.34,9.09,15.91,8.87c13.57-.22,15.53-10.62,15.53-10.62,0,0-8.13,3.84-16.46,3.94-6.09.07-14.99-2.19-14.99-2.19Z"/>
        <path class="cls-10" d="M278.16,248.5c.97.17,1.93.32,2.84.44-.92-.12-1.87-.27-2.84-.44Z"/>
        <path class="cls-9" d="M181.16,238.12s-.02-.02-.1-.04c.06.03.09.04.1.04Z"/>
        <path class="cls-9" d="M277.08,237.09s0,0,0,0c.07.03.11.05.11.05s-.03-.02-.11-.05Z"/>
        <polygon class="cls-14" points="277.07 237.09 277.08 237.09 277.08 237.09 277.07 237.09"/>
        <path class="cls-5" d="M233.29,253.91c-4.18-4.71.39-9.25.39-9.25-9.7,1.57-.39,9.25-.39,9.25Z"/>
        <path class="cls-4" d="M132.25,176.8l.15,1.4-4.34,36.09s-14.74,20.01-15.37,33.74c-1.18,26.42,32.61,74.92,106.23,83.1l-.12.82-1.68,27.31s-1.86.15-4.97.62c-11.4,1.83-39.52,8.13-55.48,27.58-9.71,11.84-18.3,26.92-25.96,44.48l-1.64-.54c-27.36-.84-53.14-13.95-53.14-13.95,0,0-18.52-53.9,1.08-182.5C96.6,106.34,120.75,58.88,196.18,45.83c75.44-13.05,103.97,25.77,103.97,25.77,0,0,66.26-11.98,91.71,36.67,25.45,48.66,64.07,267.57,51.78,279.5-12.29,11.92-57.61,25.91-57.61,25.91l-.48.23h-.05c-5.24-9.11-10.2-15.98-14.7-19.86-24.38-21.14-64.41-30.99-79.65-34.08-3.88-.82-6.15-1.17-6.15-1.17l-1.29-33.92-.41-.75c32.47-13.07,50.45-37.16,50.45-37.16,0,0,21.78,5.51,37.11-6.03,25.43-19.15,11-68.49-22.08-57.2l-.27-.58c-60.45-17.62-65.33-127.04-65.33-127.04,0,0-54.5,74.45-150.92,80.7Z"/>
        <path class="cls-4" d="M132.25,176.8l-4.2,37.48s13.99,69.69,9.53,82.1l-9.53,10.61-27.89-59.91,32.08-70.28Z"/>
        <polygon class="cls-4" points="137.59 290.64 177.09 324.94 130.38 296.38 137.59 290.64"/>
        <path class="cls-6" d="M257.29,330.92l-.24-.38c-6.58,2.63-14.32,4.55-23.08,4.82-4.48.15-8.77.06-12.82-.25l-.05.42-.23,6.89c12.88.06,25.48-1.65,36.71-7.71l-.29-3.79Z"/>
        <path class="cls-13" d="M275.74,187.35s20.31,8.92,48.42,3.72c-5.83-.22-12.25-.71-19.14-1.64-7-.95-13.4-2.2-19.13-3.56-4.6-2.06-8.55-2.13-9.77-.48-.25.34-.52.93-.39,1.97Z"/>
        <path class="cls-13" d="M198.21,191.83s-20.31,8.92-48.42,3.72c5.83-.22,12.25-.71,19.14-1.64,7-.95,13.4-2.2,19.13-3.56,4.6-2.06,8.55-2.13,9.77-.48.25.34.52.93.39,1.97Z"/>
        <path class="cls-1" d="M321.35,470.8c-.49,6-2.46,17.92-2.41,21.45.07,3.53,1.44,7.99,2.13,10.14.69,2.14,2.93,5.52,3.96,7.11,1.03,1.59,1.87,1.81,2.75,1.3.88-.51,1.31-1.73,1.09-3.27,0,0,1.57,1.77,2.36,2.65.8.89,1.99,1.05,2.78-.14.8-1.2.85-4.01-.29-6.04,0,0,3.39,3.43,4.35,4.23.96.81,1.53.89,2.38.3.84-.59,1.8-1.83,1.39-3.69s-2.62-4.77-2.62-4.77c0,0,4.85,3.78,5.92,4.49,1.07.71,1.76.42,2.11-.55.35-.98.79-2.18-.2-4.19-.99-2-2.67-2.7-3.09-3.35-.42-.66-1.29-3.46-1.77-4.9.48-5.16-1.21-7.21-1.7-9.4-.48-2.18-1.42-4.56-1.08-7.29.52-3.43-2.9-8.95-9.06-10-6.16-1.04-8.49,1.4-8.98,5.93Z"/>
        <path class="cls-7" d="M333.62,507.13s-.2-.13-.54-.35c-.34-.24-.84-.56-1.42-.98-.28-.21-.59-.44-.92-.69-.32-.24-.67-.56-1.01-.87-.4-.39-.54-.71-.83-1.07-.26-.35-.52-.71-.78-1.08-.51-.73-1.02-1.45-1.47-2.14-.45-.7-.85-1.37-1.2-1.94-.68-1.14-1.09-1.91-1.09-1.91-.08-.16,0-.31.14-.35.14-.04.3.02.39.14,0,0,.58.7,1.37,1.76.78,1.06,1.83,2.48,2.86,3.94.25.36.5.73.74,1.09.25.33.49.78.72.99.3.26.53.54.83.8.3.27.58.5.82.73,1.04.91,1.74,1.52,1.74,1.52.14.12.16.3.04.4-.1.09-.27.09-.4,0ZM337.6,502.75c.14-.09.15-.27.03-.39,0,0-.11-.13-.3-.35-.19-.21-.51-.53-.8-.89-.15-.17-.32-.37-.5-.57-.18-.22-.34-.39-.57-.66-.36-.5-.75-1.02-1.15-1.55-.8-1.04-1.65-2.05-2.31-2.8-.1-.11-.11-.14-.28-.32-.09-.07-.18-.15-.26-.21-.16-.13-.29-.25-.41-.35-.11-.09-.27-.18-.34-.23-.09-.05-.13-.08-.13-.08-.12-.07-.27-.08-.37,0-.12.08-.12.25,0,.38l.05.06s.02.03.07.07c.05.05.1.08.2.2.09.11.2.25.34.4.07.07.14.16.22.24-.03,0,.11.16.15.25.55.81,1.3,1.88,2.11,2.91.41.51.82,1.02,1.21,1.51.17.2.46.45.67.66.22.21.44.41.63.59.39.38.74.6.98.79.24.18.38.28.38.28.12.08.28.1.39.04ZM341.89,497.96c.17-.04.23-.21.15-.37,0,0-.18-.33-.5-.82-.17-.23-.35-.52-.58-.81-.2-.29-.42-.6-.64-.91-.46-.61-.96-1.2-1.37-1.62-.41-.44-.73-.71-.73-.71l-.02-.02c-.09-.08-.21-.12-.33-.1-.17.03-.25.19-.18.35,0,0,.15.35.44.84.3.5.73,1.15,1.21,1.78.25.3.5.61.73.9.24.27.51.52.72.73.43.41.76.67.76.67.1.07.23.11.34.08Z"/>
        <path class="cls-3" d="M274.6,445.73c-4.37,1.27-17.33,4.46-37.21,4.53-14.07.04-25.43-2.19-30.57-3.4l-8.74-27.04s-3.31-2.98-6.1-7.34l-.13.04c-5.09,13.44-17.09,50.09-21.22,64.28l-.32-.04c-12.66,1.04-24.98-2.59-24.98-2.59l-.48-.04c4.45-35.78,11.01-65.24,21.72-89.69,3.97-9.06,8.51-16.86,13.73-23.03,8.58-10.14,24.2-13.79,30.55-14.9l.11.4s-2.82,13.85,7.68,16.94c2.66.79,12.98-11.48,12.98-11.48,0,0,15.01,10.43,16.98,10.18,2.03-.27,10.34-11.75,6.34-16.69l.13-.54c8.58,1.33,31.16,5.72,45.18,16.09,2.58,1.9,5.49,5.32,8.58,9.87h.03c15.49,22.55,32.75,72.67,35.45,100.28h-.08c-7.44,4.4-24.42,2.88-26.71,2.65-5.01-13.61-16.66-51.14-31.56-78.14l-.37.13-11.33,49.28s.11.08.35.27Z"/>
        <rect class="cls-3" x="174.4" y="340.68" width="135.14" height="183.95" rx="57.39" ry="57.39"/>
        <rect class="cls-15" x="171.94" y="474.71" width="140.7" height="48.5" rx="19.55" ry="19.55"/>
        <rect class="cls-15" x="191.93" y="511.3" width="52.07" height="122.49" rx="22.11" ry="22.11"/>
        <rect class="cls-15" x="240.59" y="511.3" width="52.07" height="122.49" rx="22.11" ry="22.11"/>
        <rect class="cls-3" x="174.21" y="613.27" width="66.38" height="29.73" rx="11.99" ry="11.99"/>
        <rect class="cls-3" x="240.6" y="613.27" width="66.38" height="29.73" rx="11.99" ry="11.99"/>
        <g>
          <path class="cls-17" d="M242.16,349.39s-10.32,12.27-12.98,11.48c-10.5-3.09-7.68-16.94-7.68-16.94l-.11-.4c1.74-.29,2.77-.4,2.77-.4,0,0,4.64,6.51,17.99,6.09v.17Z"/>
          <path class="cls-17" d="M243.84,349.14c14.66-1.04,18.31-7.3,18.31-7.3,0,0,1.28.15,3.47.5l-.13.54c4,4.94-4.32,16.42-6.34,16.69-1.97.25-16.98-10.18-16.98-10.18v-.17c.56-.02,1.1-.04,1.68-.08Z"/>
          <path class="cls-11" d="M242.57,350.43s.07,1.5.19,4.12c.12,2.62.31,6.36.36,10.86.08,4.5.17,9.75.27,15.38.03,2.8.05,5.7.08,8.64.09,2.93.18,5.91.27,8.89.48,11.95,1.53,23.9,2.45,32.86.92,8.95,1.65,14.91,1.65,14.91.04.3-.24.56-.62.59-.38.03-.71-.19-.75-.48,0,0-.89-5.96-2.03-14.91-1.14-8.95-2.49-20.9-3.27-32.9-.21-3-.25-6.02-.38-8.98-.03-2.97.1-5.84.15-8.68.23-5.61.45-10.84.63-15.33.31-8.99.52-14.98.52-14.98,0-.11.12-.19.25-.19.13,0,.23.09.24.19Z"/>
          <path class="cls-11" d="M238.05,387.72c0-1.3-1.34-2.35-3-2.35s-3,1.05-3,2.35,1.34,2.35,3,2.35,3-1.05,3-2.35Z"/>
          <path class="cls-11" d="M238.38,372.6c0-1.3-1.34-2.35-3-2.35s-3,1.05-3,2.35,1.34,2.35,3,2.35,3-1.05,3-2.35Z"/>
          <path class="cls-11" d="M238.19,403.33c-.39-1.26-2.02-2.03-3.63-1.72-1.6.31-2.59,1.58-2.19,2.84.39,1.26,2.02,2.03,3.63,1.72s2.59-1.58,2.19-2.84Z"/>
          <path class="cls-11" d="M239.27,418.24c-.06-1.3-1.44-2.31-3.1-2.27-1.65.05-2.95,1.13-2.89,2.43.05,1.29,1.44,2.31,3.1,2.27,1.65-.05,2.95-1.13,2.89-2.43Z"/>
        </g>
        <path class="cls-21" d="M159.99,229.32c.11,12.05,10.21,21.87,22.55,21.92,12.34.06,22.25-9.66,22.14-21.71-.11-12.05-10.21-21.87-22.55-21.92-12.34-.06-22.25,9.66-22.14,21.71Z"/>
        <ellipse class="cls-4" cx="182.88" cy="234.08" rx="16.23" ry="12.43"/>
        <ellipse class="cls-17" cx="188.19" cy="240.31" rx="3.62" ry="3.25"/>
        <path class="cls-22" d="M200.85,217.48h-37.39c.45-1.25,1.35-3,3.19-4.7,4.6-4.26,11.5-4.93,13.18-5.06,0,0,14.64-2.1,21.02,9.77Z"/>
        <path class="cls-21" d="M315.63,229.5c-.11,12.05-10.21,21.87-22.55,21.92-12.34.06-22.25-9.66-22.14-21.71.11-12.05,10.21-21.87,22.55-21.92,12.34-.06,22.25,9.66,22.14,21.71Z"/>
        <ellipse class="cls-4" cx="292.73" cy="234.26" rx="16.23" ry="12.43"/>
        <ellipse class="cls-17" cx="287.43" cy="240.48" rx="3.62" ry="3.25"/>
        <path class="cls-22" d="M274.77,217.66h37.39c-.45-1.25-1.35-3-3.19-4.7-4.6-4.26-11.5-4.93-13.18-5.06,0,0-14.64-2.1-21.02,9.77Z"/>
      </g>
      <g>
        <path class="cls-18" d="M196.82,670.35c-1,0-1.75-.59-2.25-1.76-.44-1-.84-1.61-1.22-1.83-.33-.17-1.14-.26-2.44-.26-2.27,0-4.78,1.73-7.55,5.2-3.75,4.66-5.62,9.07-5.62,13.24,0,2.02.65,3.75,1.95,5.2,1.33,1.5,2.93,2.25,4.8,2.25,1.61,0,3.23-.41,4.85-1.24.91-.47,2.3-1.39,4.17-2.77.89-.66,1.56-.98,2.02-.98.67,0,1.23.25,1.69.76s.68,1.07.68,1.7c0,.7-.3,1.32-.89,1.85-4.12,3.66-8.3,5.48-12.52,5.48-3.23,0-5.97-1.24-8.2-3.73-2.16-2.41-3.23-5.25-3.23-8.53,0-5.3,2.22-10.73,6.66-16.29,3.7-4.64,7.44-6.96,11.2-6.96.77,0,1.45.04,2.06.11s1.15.18,1.62.34c.55-.8,1.26-1.2,2.13-1.2,1.08,0,1.76.71,2.04,2.13.25,1.27.38,2.82.38,4.66,0,.64-.17,1.2-.52,1.69-.42.61-1.02.91-1.8.91Z"/>
        <path class="cls-18" d="M209.08,678.23l-.35,11.65c0,1.23-.06,3.05-.19,5.44-.16,1.56-.92,2.34-2.3,2.34-1.53,0-2.3-.8-2.3-2.39,0-1.89.09-4.73.26-8.52s.26-6.63.26-8.52c0-2.47.04-5.29.12-8.47s.12-6,.12-8.47c0-1.56.77-2.34,2.3-2.34s2.32.78,2.32,2.34c0,2.47-.04,5.29-.12,8.47s-.12,6-.12,8.47Z"/>
        <path class="cls-18" d="M234.58,698.2c-.3,0-.84-.34-1.62-1.03-.7-.64-1.23-1.21-1.57-1.71-1.5.81-2.82,1.43-3.96,1.84s-2.09.62-2.86.62c-3.66,0-6.32-1.03-7.99-3.09-1.58-1.94-2.37-4.91-2.37-8.91,0-3.78,1.3-7.02,3.9-9.7s5.71-4.03,9.32-4.03c1.36,0,2.88.35,4.57,1.05,2.12.88,3.19,1.93,3.19,3.16,0,.42-.16.8-.47,1.12-.16.59-.28,1.57-.36,2.93s-.14,3.1-.15,5.23c-.02,1.94.12,3.47.4,4.59.16.69.65,2.06,1.48,4.12.11.28.29.7.54,1.24l.14.4c0,.62-.22,1.14-.66,1.55s-.95.61-1.52.61ZM229.71,681.91c0-.67.04-1.4.13-2.19s.21-1.63.39-2.52c-.58-.3-1.07-.52-1.49-.66s-.75-.21-1-.21c-2.42,0-4.51.99-6.27,2.96s-2.64,4.25-2.64,6.83.45,4.48,1.36,5.77,2.27,1.92,4.08,1.92c1.5,0,2.77-.27,3.82-.82.56-.3,1.35-.89,2.37-1.78-.5-4.14-.75-7.24-.75-9.3Z"/>
        <path class="cls-18" d="M259.96,682.96c0,1.12,0,2.81.02,5.06s.02,3.94.02,5.06c0,.34.03.87.08,1.57s.08,1.23.08,1.57c0,.67-.23,1.22-.68,1.65s-1.01.64-1.66.64c-1.2,0-1.97-.74-2.3-2.23-1.95,1.02-4.2,1.52-6.75,1.52-2.05,0-3.74-.45-5.09-1.36-1.48-1-2.37-2.46-2.65-4.38-.61-4.14-.91-7.83-.91-11.06,0-2.14.23-4.58.7-7.31.22-1.36.96-2.04,2.23-2.04.67,0,1.23.21,1.69.64s.68.98.68,1.65c0,.72-.11,1.87-.34,3.45s-.34,2.78-.34,3.61c0,2.61.09,4.84.26,6.7s.43,3.35.77,4.48c.52.28,1.02.5,1.52.64s.99.22,1.48.22c2.09,0,4.3-.34,6.63-1.01l-.02-4.76-.05-4.55c0-3.38.15-6.3.45-8.79.17-1.44.93-2.16,2.27-2.16.67,0,1.23.22,1.69.66s.66.98.63,1.64l-.42,8.86Z"/>
        <path class="cls-18" d="M287.38,675.95c-.19,2.3-.28,4.59-.28,6.89,0,5.2.24,9.13.73,11.79.03.22.05.4.05.54,0,.62-.22,1.14-.66,1.55s-.95.61-1.52.61c-.97,0-1.68-.7-2.13-2.11-1.12.83-2.29,1.45-3.5,1.88s-2.47.63-3.79.63c-3.23,0-5.91-1.08-8.04-3.23-2.19-2.2-3.28-5.03-3.28-8.48,0-4.17,1.11-7.52,3.32-10.03s5.08-3.77,8.61-3.77c1.81,0,3.21.28,4.2.84l2.2,1.62c.22-6.58.48-11.01.77-13.29.2-1.39.91-2.09,2.13-2.09,1.42,0,2.13.76,2.13,2.27,0,2.17-.31,6.97-.94,14.39ZM276.98,676.56c-2.62,0-4.59.78-5.91,2.33s-1.97,3.89-1.97,7.02c0,2.02.71,3.75,2.14,5.2s3.11,2.18,5.03,2.18c1.31,0,2.42-.24,3.33-.73.53-.28,1.4-.93,2.6-1.95.23-.2.46-.45.68-.73l-.07-4.05.02-2.72.05-2.77c-.59-1.27-1.38-2.21-2.37-2.85s-2.16-.95-3.54-.95Z"/>
        <path class="cls-18" d="M299.53,686.01c0,.94.03,2.34.08,4.21s.08,3.27.08,4.21c0,.69-.21,1.25-.63,1.69s-.98.66-1.66.66-1.22-.22-1.65-.66-.64-1-.64-1.69c0-.94-.03-2.34-.08-4.21s-.08-3.27-.08-4.21c0-1.47.08-3.3.23-5.5s.23-4.03.23-5.5c0-.7.21-1.27.64-1.71s.98-.66,1.65-.66,1.22.22,1.65.66.64,1.01.64,1.71c0,1.47-.08,3.3-.23,5.5s-.23,4.03-.23,5.5ZM298.47,666.98c-.75,0-1.4-.27-1.95-.8s-.82-1.17-.82-1.92.27-1.39.82-1.92,1.2-.8,1.95-.8,1.39.27,1.93.8.81,1.17.81,1.92-.27,1.39-.81,1.92-1.18.8-1.93.8Z"/>
        <path class="cls-18" d="M325.75,698.2c-.3,0-.84-.34-1.62-1.03-.7-.64-1.23-1.21-1.57-1.71-1.5.81-2.82,1.43-3.96,1.84s-2.09.62-2.86.62c-3.66,0-6.32-1.03-7.99-3.09-1.58-1.94-2.37-4.91-2.37-8.91,0-3.78,1.3-7.02,3.9-9.7s5.71-4.03,9.32-4.03c1.36,0,2.88.35,4.57,1.05,2.12.88,3.19,1.93,3.19,3.16,0,.42-.16.8-.47,1.12-.16.59-.28,1.57-.36,2.93s-.14,3.1-.15,5.23c-.02,1.94.12,3.47.4,4.59.16.69.65,2.06,1.48,4.12.11.28.29.7.54,1.24l.14.4c0,.62-.22,1.14-.66,1.55s-.95.61-1.52.61ZM320.88,681.91c0-.67.04-1.4.13-2.19s.21-1.63.39-2.52c-.58-.3-1.07-.52-1.49-.66s-.75-.21-1-.21c-2.42,0-4.51.99-6.27,2.96s-2.64,4.25-2.64,6.83.45,4.48,1.36,5.77,2.27,1.92,4.08,1.92c1.5,0,2.77-.27,3.82-.82.56-.3,1.35-.89,2.37-1.78-.5-4.14-.75-7.24-.75-9.3Z"/>
      </g>
    </g>
  </g>
</svg>