<?xml version="1.0" encoding="UTF-8"?>
<svg id="Capa_1" data-name="Capa 1" xmlns="http://www.w3.org/2000/svg" xmlns:xlink="http://www.w3.org/1999/xlink" viewBox="0 0 325.33 477.95">
  <defs>
    <style>
      .cls-1 {
        fill: url(#Degradado_sin_nombre_17);
      }

      .cls-1, .cls-2, .cls-3, .cls-4, .cls-5, .cls-6, .cls-7, .cls-8, .cls-9, .cls-10, .cls-11, .cls-12, .cls-13, .cls-14, .cls-15, .cls-16, .cls-17, .cls-18, .cls-19, .cls-20, .cls-21 {
        stroke-width: 0px;
      }

      .cls-2 {
        fill: #a6c8dd;
      }

      .cls-3 {
        fill: #416d25;
      }

      .cls-4 {
        fill: #8ab270;
      }

      .cls-5 {
        fill: #a6c98f;
      }

      .cls-6 {
        fill: #000;
      }

      .cls-7 {
        fill: #9a67b7;
      }

      .cls-8 {
        fill: #2c4919;
      }

      .cls-22 {
        stroke: #417235;
      }

      .cls-22, .cls-23, .cls-24, .cls-25, .cls-26 {
        stroke-miterlimit: 10;
      }

      .cls-22, .cls-17 {
        fill: #fff;
      }

      .cls-23 {
        fill: #e5b3db;
      }

      .cls-23, .cls-24, .cls-25, .cls-26 {
        stroke: #000;
      }

      .cls-9 {
        fill: #74a555;
      }

      .cls-10 {
        fill: #11000e;
      }

      .cls-24 {
        fill: none;
      }

      .cls-11 {
        fill: #b0ae6e;
      }

      .cls-25 {
        fill: #d375cc;
      }

      .cls-12 {
        fill: #80b25f;
      }

      .cls-13 {
        fill: #578738;
      }

      .cls-26 {
        fill: #b679cc;
      }

      .cls-14 {
        fill: #496b2c;
      }

      .cls-15 {
        fill: #5088aa;
      }

      .cls-16 {
        fill: #639cc6;
      }

      .cls-18 {
        fill: #6c8e4c;
      }

      .cls-19 {
        fill: #e8aac2;
      }

      .cls-20 {
        fill: #e57fca;
      }

      .cls-21 {
        fill: #e889d2;
      }
    </style>
    <radialGradient id="Degradado_sin_nombre_17" data-name="Degradado sin nombre 17" cx="-56.48" cy="846.51" fx="-56.48" fy="846.51" r="200.51" gradientTransform="translate(203.32 -387.76) scale(.62 .66)" gradientUnits="userSpaceOnUse">
      <stop offset=".62" stop-color="#82b362"/>
      <stop offset=".92" stop-color="#a4c88d"/>
    </radialGradient>
  </defs>
  <g>
    <path class="cls-8" d="M217.62,324.65c1.33,2.96,4.36,4.36,6.76,3.13s3.27-4.63,1.94-7.59c-1.33-2.96-4.36-4.36-6.76-3.13s-3.27,4.63-1.94,7.59Z"/>
    <path class="cls-8" d="M223.61,329.21c1.33,2.96,4.36,4.36,6.76,3.13s3.27-4.63,1.94-7.59c-1.33-2.96-4.36-4.36-6.76-3.13-2.4,1.23-3.27,4.63-1.94,7.59Z"/>
    <path class="cls-8" d="M222.69,335.94c1.33,2.96,4.36,4.36,6.76,3.13s3.27-4.63,1.94-7.59c-1.33-2.96-4.36-4.36-6.76-3.13s-3.27,4.63-1.94,7.59Z"/>
  </g>
  <g>
    <path class="cls-8" d="M120.41,326.81c-1.33,2.96-4.36,4.36-6.76,3.13s-3.27-4.63-1.94-7.59,4.36-4.36,6.76-3.13c2.4,1.23,3.27,4.63,1.94,7.59Z"/>
    <path class="cls-8" d="M114.42,331.37c-1.33,2.96-4.36,4.36-6.76,3.13s-3.27-4.63-1.94-7.59c1.33-2.96,4.36-4.36,6.76-3.13,2.4,1.23,3.27,4.63,1.94,7.59Z"/>
    <path class="cls-8" d="M115.34,338.09c-1.33,2.96-4.36,4.36-6.76,3.13s-3.27-4.63-1.94-7.59,4.36-4.36,6.76-3.13,3.27,4.63,1.94,7.59Z"/>
  </g>
  <ellipse class="cls-3" cx="284.36" cy="219.88" rx="40.97" ry="57.27"/>
  <ellipse class="cls-3" cx="61.31" cy="228.44" rx="40.97" ry="57.27"/>
  <ellipse class="cls-3" cx="37.89" cy="166.23" rx="37.28" ry="38.51"/>
  <ellipse class="cls-13" cx="131.55" cy="288.02" rx="21.87" ry="23.37"/>
  <ellipse class="cls-13" cx="239.38" cy="274.19" rx="21.87" ry="23.37"/>
  <ellipse class="cls-3" cx="235.68" cy="266.95" rx="26.19" ry="24.69"/>
  <ellipse class="cls-3" cx="131.55" cy="276.17" rx="26.19" ry="24.69"/>
  <ellipse class="cls-13" cx="96.43" cy="270.9" rx="21.87" ry="23.37"/>
  <ellipse class="cls-13" cx="201.79" cy="284.73" rx="21.87" ry="23.37"/>
  <ellipse class="cls-13" cx="62.54" cy="104.35" rx="37.28" ry="38.51"/>
  <ellipse class="cls-13" cx="280.66" cy="221.2" rx="40.97" ry="57.27"/>
  <ellipse class="cls-13" cx="288.06" cy="156.35" rx="37.28" ry="38.51"/>
  <ellipse class="cls-13" cx="283.74" cy="103.69" rx="37.28" ry="38.51"/>
  <ellipse class="cls-13" cx="243.08" cy="60.9" rx="40.36" ry="43.12"/>
  <ellipse class="cls-13" cx="174.68" cy="56.95" rx="37.28" ry="38.51"/>
  <ellipse class="cls-13" cx="97.05" cy="53.65" rx="37.28" ry="38.51"/>
  <ellipse class="cls-13" cx="63.77" cy="221.86" rx="40.97" ry="57.27"/>
  <ellipse class="cls-13" cx="37.28" cy="156.35" rx="37.28" ry="38.51"/>
  <ellipse class="cls-13" cx="148.8" cy="38.51" rx="37.28" ry="38.51"/>
  <ellipse class="cls-13" cx="198.71" cy="39.17" rx="37.28" ry="38.51"/>
  <path class="cls-13" d="M293.01,172.53c-.13,1.99-4.97,21.9-14.65,61.71-4.69,19.31-7.56,30.46-17.31,39.77-4.96,4.74-10.7,8.04-30.63,13.71-31.08,8.85-46.61,13.28-65.24,12.34-23.41-1.18-40.08-8.31-55.92-15.08-16.1-6.89-26.95-11.68-35.95-23.31-6.76-8.73-8.93-16.72-13.32-32.91-15.98-58.94-15.96-58.84-15.98-58.97-5.31-43.64,42.3-131.41,125.16-130.96,81.9.44,126.91,86.68,123.83,133.7Z"/>
  <path class="cls-5" d="M96.51,419.58h0c-6.19-2.18-9.59-9.37-7.56-15.99l21.69-70.49c2.04-6.62,8.77-10.25,14.96-8.08h0c6.19,2.18,9.59,9.37,7.56,15.99l-21.69,70.49c-2.04,6.62-8.77,10.25-14.96,8.08Z"/>
  <path class="cls-5" d="M238.91,418.26h0c6.21-2.12,9.67-9.28,7.69-15.91l-21.1-70.69c-1.98-6.64-8.68-10.34-14.89-8.22h0c-6.21,2.12-9.67,9.28-7.69,15.91l21.1,70.69c1.98,6.64,8.68,10.34,14.89,8.22Z"/>
  <path class="cls-1" d="M293.14,172.54c-.13,1.99-4.97,21.9-14.65,61.71-4.69,19.31-7.56,30.46-17.31,39.77-4.96,4.74-10.7,8.04-30.63,13.71-31.08,8.85-46.61,13.28-65.24,12.34-23.41-1.18-40.08-8.31-55.92-15.08-16.1-6.89-26.95-11.68-35.95-23.31-6.76-8.73-8.93-16.72-13.32-32.91-15.98-58.94-15.96-58.84-15.98-58.97-5.31-43.64,42.3-131.41,125.16-130.96,81.9.44,126.91,86.68,123.83,133.7Z"/>
  <rect class="cls-5" x="146.65" y="287.69" width="44.36" height="32.92" rx="12" ry="12"/>
  <rect class="cls-5" x="107.21" y="314.02" width="122.62" height="163.92" rx="49.71" ry="49.71"/>
  <path class="cls-5" d="M226.81,334.55c2.03,8.26-2.59,16.72-10.33,18.89-7.73,2.17-15.65-2.77-17.68-11.03-2.03-8.26,2.59-16.72,10.33-18.89s15.65,2.77,17.68,11.03Z"/>
  <path class="cls-5" d="M136.84,335.85c2.03,8.26-2.59,16.72-10.33,18.89s-15.65-2.77-17.68-11.03,2.59-16.72,10.33-18.89c7.73-2.17,15.65,2.77,17.68,11.03Z"/>
  <path class="cls-5" d="M75.52,264.08c-2.54.86-5.22,1.37-8.01,1.47-16.98.6-31.23-14.26-31.81-33.19-.43-13.84,6.56-26.02,16.99-31.81"/>
  <path class="cls-5" d="M286.52,201.04c2.5,1,4.9,2.37,7.15,4.12,13.71,10.73,16.33,31.81,5.86,47.09-7.66,11.17-20.2,16.15-31.74,13.83"/>
  <ellipse class="cls-22" cx="111.83" cy="189.93" rx="35.12" ry="37.52"/>
  <ellipse class="cls-22" cx="219.05" cy="190.59" rx="35.12" ry="37.52"/>
  <ellipse class="cls-14" cx="117.69" cy="196.18" rx="17.87" ry="19.09"/>
  <ellipse class="cls-17" cx="126.01" cy="190.59" rx="5.24" ry="5.6"/>
  <ellipse class="cls-14" cx="211.96" cy="196.18" rx="17.87" ry="19.09"/>
  <ellipse class="cls-17" cx="204.26" cy="190.59" rx="5.24" ry="5.6"/>
  <path class="cls-14" d="M134.19,137.58c-4.85-1.41-8.93-1.81-11.79-1.9-4.83-.15-20.32-.65-30.86,11.35-1.92,2.18-3.23,4.28-4.04,5.7,1.49-.91,11.46-6.93,20.65-9.85,2.07-.66,7.25-2.27,12.85-2.14.53.01.88.06,1.4.06,3.17,0,6.62.64,10.04,1.61,1.54.4,2.93-.75,3.1-2.12.13-1.02-.41-2.13-1.35-2.71Z"/>
  <path class="cls-14" d="M195.36,137.52c4.85-1.41,8.93-1.81,11.79-1.9,4.83-.15,20.32-.65,30.86,11.35,1.92,2.18,3.23,4.28,4.04,5.7-1.49-.91-11.46-6.93-20.65-9.85-2.07-.66-7.25-2.27-12.85-2.14-.53.01-.88.06-1.4.06-3.17,0-6.62.64-10.04,1.61-1.54.4-2.93-.75-3.1-2.12-.13-1.02.41-2.13,1.35-2.71Z"/>
  <path class="cls-14" d="M205.09,242.63c-.04-.17-.19-.73-.59-1.38-.84-1.37-2.09-1.99-2.71-2.23.94.94,1.58,1.77,1.98,2.37.35.51.58.92.75,1.44.04.12.19.61.24,1.41.08,1.32-.2,2.15-.15,2.16.07.01.97-1.79.48-3.76Z"/>
  <path class="cls-14" d="M135.79,241.5c-.09.13-.37.55-.52,1.25-.31,1.48.27,2.95.6,3.65-.09-1.35,0-2.37.09-3.05.09-.59.19-1.01.43-1.43.06-.1.29-.49.83-.95.89-.76,1.73-.92,1.7-.97-.05-.07-2.1.04-3.13,1.5Z"/>
  <ellipse class="cls-12" cx="249.85" cy="240.95" rx="6.47" ry="7.24"/>
  <ellipse class="cls-12" cx="260.02" cy="200.46" rx="4.31" ry="3.62"/>
  <ellipse class="cls-9" cx="262.79" cy="214.62" rx="7.2" ry="4.65" transform="translate(-18.08 404.96) rotate(-73.36)"/>
  <ellipse class="cls-12" cx="250.78" cy="221.86" rx="3.7" ry="3.95"/>
  <ellipse class="cls-12" cx="260.02" cy="231.73" rx="3.7" ry="5.92"/>
  <ellipse class="cls-12" cx="274.5" cy="190.59" rx="5.55" ry="3.42" transform="translate(1.2 382.89) rotate(-69.9)"/>
  <path class="cls-9" d="M273.54,220.24c1.32,1.41,1.03,4.02-.65,5.82-1.68,1.8-4.12,2.11-5.45.7s-1.03-4.02.65-5.82c1.68-1.8,4.12-2.11,5.45-.7Z"/>
  <ellipse class="cls-9" cx="266.18" cy="192.23" rx="3.08" ry="3.29"/>
  <path class="cls-12" d="M274.45,199.53c1.18,1.55.64,4.11-1.2,5.72s-4.3,1.65-5.48.1c-1.18-1.55-.64-4.11,1.2-5.72,1.85-1.61,4.3-1.65,5.48-.1Z"/>
  <ellipse class="cls-12" cx="273.88" cy="212.64" rx="4.56" ry="2.18" transform="translate(-29.77 380.04) rotate(-66.69)"/>
  <ellipse class="cls-9" cx="232.91" cy="235.68" rx="6.78" ry="7.24"/>
  <ellipse class="cls-12" cx="81.7" cy="242.25" rx="6.47" ry="7.24"/>
  <ellipse class="cls-12" cx="71.53" cy="201.76" rx="4.31" ry="3.62"/>
  <ellipse class="cls-9" cx="68.76" cy="215.91" rx="4.65" ry="7.2" transform="translate(-58.94 28.73) rotate(-16.64)"/>
  <ellipse class="cls-12" cx="80.77" cy="223.15" rx="3.7" ry="3.95"/>
  <ellipse class="cls-12" cx="71.53" cy="233.03" rx="3.7" ry="5.92"/>
  <ellipse class="cls-12" cx="57.05" cy="191.88" rx="3.42" ry="5.55" transform="translate(-62.45 31.28) rotate(-20.1)"/>
  <path class="cls-9" d="M58.01,221.54c-1.32,1.41-1.03,4.02.65,5.82,1.68,1.8,4.12,2.11,5.45.7s1.03-4.02-.65-5.82c-1.68-1.8-4.12-2.11-5.45-.7Z"/>
  <ellipse class="cls-9" cx="65.37" cy="193.53" rx="3.08" ry="3.29"/>
  <path class="cls-12" d="M57.1,200.82c-1.18,1.55-.64,4.11,1.2,5.72,1.85,1.61,4.3,1.65,5.48.1s.64-4.11-1.2-5.72-4.3-1.65-5.48-.1Z"/>
  <ellipse class="cls-12" cx="57.67" cy="213.94" rx="2.18" ry="4.56" transform="translate(-79.94 40.28) rotate(-23.31)"/>
  <ellipse class="cls-9" cx="98.64" cy="236.98" rx="6.78" ry="7.24"/>
  <path class="cls-4" d="M146.65,297.73c6.36,1.7,11.67,2.27,15.4,2.47,5.27.28,9.37-.08,16.02-.66,5.39-.47,9.85-1.06,12.94-1.51v12l-44.36.31v-12.61Z"/>
  <rect class="cls-16" x="107.21" y="314.02" width="122.62" height="163.92" rx="49.71" ry="49.71"/>
  <path class="cls-15" d="M136.53,333.54c2.03,8.26-2.59,16.72-10.33,18.89-7.73,2.17-15.65-2.77-17.68-11.03-2.03-8.26,2.59-16.72,10.33-18.89,7.73-2.17,15.65,2.77,17.68,11.03Z"/>
  <path class="cls-15" d="M96.01,420.96h0c-6.19-2.18-9.59-9.37-7.56-15.99l21.69-70.49c2.04-6.62,8.77-10.25,14.96-8.08h0c6.19,2.18,9.59,9.37,7.56,15.99l-21.69,70.49c-2.04,6.62-8.77,10.25-14.96,8.08Z"/>
  <path class="cls-15" d="M200.96,333.55c-2.03,8.26,2.59,16.72,10.33,18.89,7.73,2.17,15.65-2.77,17.68-11.03,2.03-8.26-2.59-16.72-10.33-18.89-7.73-2.17-15.65,2.77-17.68,11.03Z"/>
  <path class="cls-15" d="M241.49,420.96h0c6.19-2.18,9.59-9.37,7.56-15.99l-21.69-70.49c-2.04-6.62-8.77-10.25-14.96-8.08h0c-6.19,2.18-9.59,9.37-7.56,15.99l21.69,70.49c2.04,6.62,8.77,10.25,14.96,8.08Z"/>
  <rect class="cls-11" x="152.01" y="400.75" width="30.97" height="123.43" rx="12.07" ry="12.07" transform="translate(-294.97 629.96) rotate(-90)"/>
  <ellipse class="cls-13" cx="191.32" cy="53" rx="37.28" ry="38.51"/>
  <ellipse class="cls-3" cx="126.01" cy="45.75" rx="37.28" ry="38.51"/>
  <ellipse class="cls-3" cx="45.9" cy="118.17" rx="37.28" ry="38.51"/>
  <ellipse class="cls-3" cx="75.48" cy="84.6" rx="37.28" ry="38.51"/>
  <ellipse class="cls-3" cx="275.12" cy="112.25" rx="37.28" ry="38.51"/>
  <ellipse class="cls-3" cx="241.84" cy="73.4" rx="37.28" ry="38.51"/>
  <ellipse class="cls-13" cx="128.47" cy="53" rx="37.28" ry="38.51"/>
  <ellipse class="cls-13" cx="97.66" cy="56.95" rx="37.28" ry="38.51"/>
  <ellipse class="cls-13" cx="48.37" cy="126.07" rx="37.28" ry="38.51"/>
  <ellipse class="cls-13" cx="271.42" cy="117.51" rx="37.28" ry="38.51"/>
  <ellipse class="cls-13" cx="237.53" cy="78.01" rx="37.28" ry="38.51"/>
  <ellipse class="cls-13" cx="81.03" cy="85.25" rx="37.28" ry="38.51"/>
  <ellipse class="cls-13" cx="283.13" cy="153.06" rx="21.87" ry="23.37"/>
  <ellipse class="cls-13" cx="44.06" cy="162.28" rx="21.87" ry="23.37"/>
  <g>
    <path class="cls-5" d="M23.06,369.96h0c3.14-5.72,10.81-7.6,17.04-4.19l64.64,35.38c6.23,3.41,8.76,10.88,5.63,16.59h0c-3.14,5.72-10.81,7.6-17.04,4.19l-64.64-35.38c-6.23-3.41-8.76-10.88-5.63-16.59Z"/>
    <ellipse class="cls-8" cx="49.48" cy="371.09" rx="5.85" ry="6.25" transform="translate(-300.92 239.28) rotate(-61.79)"/>
    <ellipse class="cls-8" cx="45.14" cy="363.87" rx="5.85" ry="6.25" transform="translate(-296.85 231.65) rotate(-61.79)"/>
    <ellipse class="cls-8" cx="37.88" cy="364.87" rx="5.85" ry="6.25" transform="translate(-301.56 225.78) rotate(-61.79)"/>
    <path class="cls-5" d="M33.47,395.24l-1.51-.72c-2.71-1.29-3.93-4.43-2.73-7,.06-.12.12-.24.18-.35l-3.79-1.81c-4.99-2.37-7.26-8.19-5.04-12.93l2.01-4.3c2.21-4.73,8.11-6.67,13.09-4.29l8.31,3.96c4.99,2.37,7.26,8.19,5.04,12.93l-2.01,4.3c-1.19,2.55-3.46,4.29-6.07,4.98.16.96.05,1.98-.39,2.91-.6,1.28-1.7,2.19-2.98,2.61-1.28.43-2.76.36-4.11-.28Z"/>
  </g>
  <rect class="cls-5" x="251.39" y="333.55" width="23.71" height="99.53" rx="11.85" ry="11.85" transform="translate(338.12 -75.62) rotate(43.75)"/>
  <ellipse class="cls-8" cx="274.37" cy="356.19" rx="6.25" ry="5.85" transform="translate(-172.67 308.11) rotate(-46.25)"/>
  <ellipse class="cls-8" cx="276.26" cy="347.98" rx="6.25" ry="5.85" transform="translate(-166.15 306.94) rotate(-46.25)"/>
  <ellipse class="cls-8" cx="283.47" cy="346.68" rx="6.25" ry="5.85" transform="translate(-162.99 311.75) rotate(-46.25)"/>
  <path class="cls-5" d="M294.27,374.1l1.19-1.13c2.14-2.03,2.33-5.34.43-7.37-.09-.1-.19-.19-.28-.27l3-2.84c3.94-3.74,4.3-9.86.8-13.6l-3.19-3.4c-3.5-3.74-9.59-3.74-13.54,0l-6.57,6.23c-3.94,3.74-4.3,9.86-.8,13.6l3.19,3.4c1.89,2.02,4.53,2.95,7.18,2.79.14.95.56,1.86,1.25,2.6.95,1.02,2.25,1.53,3.58,1.52,1.33,0,2.69-.5,3.75-1.52Z"/>
  <g>
    <path class="cls-2" d="M165.78,389.37s-6.7-22.69-21.98-9.26c0,0-10.75,10.2-5.8,17.98,0,0,10.52,10.53,20.85,4.69l1.08,1.12s-2.98,5.93.95,6.29c0,0,2.79,1.29,3.8.61s-.63,0-.63,0c0,0,9.71,6.73,18.35.9,0,0,2.39-1.69,1.14-2.91h1.3s6.64,1.85,10.13-2.24c0,0,3.21-2.93-2.98-3.72,0,0,6.83-5.45,3.82-9.72,0,0-3.77,3.66-8.2,3.53,0,0-6.86-14.43-21.82-7.28Z"/>
    <g>
      <path class="cls-23" d="M164.69,393.01c-.25-8.38-4.45-14.91-9.77-16.19-1.07-.26-3.54-.63-6.8.97-1.1.72-2.36,1.67-3.61,2.93-2.61,2.61-4.13,5.4-5,7.39,0,0-3.41,5.97,0,9.19,0,0,8.61,8.82,19.33,3.92l2.76,1.75s-2.44,2.8-1.79,4.72c0,0,2.11,2.41,5.44,1.47,0,0,3.17,4.48,12.1,2.55,0,0,5.2-.7,5.04-2.27l-2.76-1.92s3.9-.52,3.9-1.22c0,0,1.3,3.32,8.94.7,0,0,2.6-1.05,2.44-2.27,0,0-.49-1.57-5.04-1.92v-.52s5.7-2.7,5.04-7.56c0,0-4.23,3.36-7.64,2.49,0,0-1.14-3.85-6.99-6.99-.42-.26-6.96-4.19-12.35-.7-1.55,1.01-2.58,2.35-3.25,3.5Z"/>
      <path class="cls-26" d="M163.55,395.99s14.19,4.71,22.45-1.05c-.91-1.29-1.82-2.23-2.55-2.88-4.19-3.75-10.16-5.18-13.65-3.5-.85.41-1.79,1.05-1.79,1.05-1.54,1.05-2.63,2.21-3.34,3.07-.38,1.1-.75,2.21-1.13,3.31Z"/>
      <path class="cls-25" d="M162.17,398.7s10.24,6.99,25.1-1.49c0,0-.35-1.67-1.27-2.28-2.74,1.35-5.16,2-6.87,2.33-4.5.87-8.1.35-10.14.03-2.28-.35-4.14-.88-5.44-1.31-.46.9-.92,1.81-1.38,2.71Z"/>
      <path class="cls-25" d="M179.64,407.53s3.49-.09,3.9-1.22l-.41-3.23s-5.2,2.97-11.21,1.4c0,0,5.69,3.32,7.72,3.06Z"/>
      <ellipse class="cls-10" cx="150.48" cy="388.82" rx="2.76" ry="3.58"/>
      <ellipse class="cls-17" cx="149.99" cy="387.51" rx="1.39" ry=".98" transform="translate(-259.36 458.87) rotate(-78.73)"/>
      <ellipse class="cls-20" cx="154.54" cy="395.29" rx="2.76" ry="1.49"/>
      <path class="cls-21" d="M150.15,378.32s-2.92,1.77,0,1.1c0,0,1.92-1.78,5.02,0,0,0,1.75.9.8-1.1,0,0-4.52-1.14-5.82,0Z"/>
      <ellipse class="cls-21" cx="147.71" cy="380.86" rx=".81" ry=".87"/>
      <path class="cls-7" d="M164.22,394.03s11.91,3.78,20.49-.63c0,0,1.16,1.01,1.3,1.53,0,0-7.83,5.25-22.45,1.05l.67-1.95Z"/>
      <path class="cls-24" d="M166.79,390.42s4.97,1.98,5.13,7.23c0,0-6.42-.96-8.37-1.66l1.12-3.65,2.12-1.92Z"/>
      <path class="cls-24" d="M176.84,388.39s-6.65,2.5-6.8,4.44c0,0-1.64-1.86-3.25-2.41,0,0,4.64-4.03,10.04-2.03Z"/>
      <path class="cls-24" d="M180.85,396.87s-.97-7.16-4.01-8.48c0,0,6.6,2.17,9.17,6.54,0,0-4.11,2.12-5.16,1.94Z"/>
      <path class="cls-24" d="M182.4,391.23s-2.42-1.38-2.51,1.6c0,0-.98-3.47-3.05-4.44,0,0,4.58,1.41,5.56,2.84Z"/>
      <path class="cls-24" d="M161.6,402.98s2.51,2.38,4.02,2.32c0,0-.11-1.82.86-2.07,0,0-.98-1.16-1.22,5.94"/>
      <path class="cls-6" d="M142.84,394.8s.27,3.55,4.1,1.56c0,0-3.21,1.07-4.1-1.56Z"/>
      <path class="cls-24" d="M158.84,401.23s2.52-.96,3.33-2.54"/>
      <path class="cls-24" d="M176.84,404.87s1.82.24,1.82,2.59"/>
      <path class="cls-24" d="M180.8,404.05s1.37,1.43,1.32,3.06"/>
      <ellipse class="cls-20" cx="168.75" cy="408.31" rx="1.3" ry="1.14"/>
      <ellipse class="cls-20" cx="184.84" cy="406.21" rx="1.3" ry="1.14"/>
      <ellipse class="cls-20" cx="160.87" cy="405.87" rx="1.28" ry=".75" transform="translate(-265.24 310.82) rotate(-55.8)"/>
      <ellipse class="cls-20" cx="175.09" cy="409.71" rx=".97" ry=".61"/>
      <ellipse class="cls-20" cx="188.09" cy="403.42" rx=".49" ry=".61"/>
      <ellipse class="cls-20" cx="191.99" cy="405.34" rx=".97" ry=".61"/>
    </g>
  </g>
  <g>
    <ellipse class="cls-2" cx="197.62" cy="384.76" rx="3.86" ry="3.62"/>
    <ellipse class="cls-17" cx="199.7" cy="382.81" rx=".59" ry=".56"/>
    <ellipse class="cls-17" cx="200.58" cy="385.04" rx=".23" ry=".09" transform="translate(-102.54 74.23) rotate(-16.77)"/>
    <ellipse class="cls-17" cx="200.36" cy="384.15" rx=".53" ry=".33"/>
  </g>
  <g>
    <ellipse class="cls-2" cx="141.72" cy="368.1" rx="3.61" ry="3.16"/>
    <ellipse class="cls-17" cx="143.66" cy="366.4" rx=".56" ry=".49"/>
    <ellipse class="cls-17" cx="144.48" cy="368.34" rx=".22" ry=".08" transform="translate(-91.98 51.11) rotate(-15.28)"/>
    <ellipse class="cls-17" cx="144.28" cy="367.56" rx=".5" ry=".29"/>
  </g>
  <g>
    <ellipse class="cls-2" cx="201.71" cy="397.08" rx="1.63" ry="1.57"/>
    <ellipse class="cls-17" cx="202.58" cy="396.24" rx=".25" ry=".24"/>
    <ellipse class="cls-17" cx="202.95" cy="397.21" rx=".1" ry=".04" transform="translate(-109.94 79.31) rotate(-17.48)"/>
    <ellipse class="cls-17" cx="202.86" cy="396.82" rx=".22" ry=".14"/>
  </g>
  <g>
    <ellipse class="cls-2" cx="143.12" cy="417.19" rx="2.91" ry="2.83"/>
    <ellipse class="cls-17" cx="144.69" cy="415.67" rx=".45" ry=".43"/>
    <ellipse class="cls-17" cx="145.35" cy="417.4" rx=".17" ry=".07" transform="translate(-119.19 63.33) rotate(-17.57)"/>
    <ellipse class="cls-17" cx="145.18" cy="416.71" rx=".4" ry=".26"/>
  </g>
  <ellipse class="cls-18" cx="170.83" cy="251.33" rx="28" ry="25.5"/>
  <path class="cls-19" d="M148.7,266.95s15.63-.62,21.63,5.38c0,0,15.52-9.6,23.76-6.8,0,0-5.3,7.83-15.53,10.31,0,0-9.52,3.5-21.88-2.51,0,0-5.61-2.77-7.98-6.39Z"/>
</svg>